M48
; DRILL file {KiCad 7.0.7} date Tue Feb 20 11:10:36 2024
; FORMAT={-:-/ absolute / inch / decimal}
; #@! TF.CreationDate,2024-02-20T11:10:36-08:00
; #@! TF.GenerationSoftware,Kicad,Pcbnew,7.0.7
; #@! TF.FileFunction,Plated,1,2,PTH
FMAT,2
INCH
; #@! TA.AperFunction,Plated,PTH,ViaDrill
T1C0.0079
; #@! TA.AperFunction,Plated,PTH,ViaDrill
T2C0.0118
; #@! TA.AperFunction,Plated,PTH,ViaDrill
T3C0.0236
; #@! TA.AperFunction,Plated,PTH,ViaDrill
T4C0.0276
; #@! TA.AperFunction,Plated,PTH,ComponentDrill
T5C0.2402
%
G90
G05
T1
X5.1339Y-4.3031
X5.1339Y-4.315
X5.1378Y-3.0039
X5.1378Y-3.0157
X5.1378Y-3.4173
X5.1378Y-3.4331
X5.1496Y-3.8504
X5.1496Y-3.8622
X5.1496Y-4.3031
X5.1496Y-4.315
X5.1535Y-3.0039
X5.1535Y-3.0157
X5.1535Y-3.4173
X5.1535Y-3.4331
X5.1654Y-3.8504
X5.1654Y-3.8622
X5.1654Y-4.3031
X5.1654Y-4.315
X5.1693Y-3.0039
X5.1693Y-3.0157
X5.1693Y-3.4173
X5.1693Y-3.4331
X5.1811Y-3.8504
X5.1811Y-3.8622
X5.2244Y-2.9685
X5.2244Y-2.9803
X5.2244Y-3.378
X5.2244Y-3.3937
X5.2244Y-4.2677
X5.2244Y-4.2795
X5.2402Y-2.9685
X5.2402Y-2.9803
X5.2402Y-3.378
X5.2402Y-3.3937
X5.2402Y-3.815
X5.2402Y-3.8268
X5.2402Y-4.2677
X5.2402Y-4.2795
X5.2559Y-2.9685
X5.2559Y-2.9803
X5.2559Y-3.378
X5.2559Y-3.3937
X5.2559Y-3.815
X5.2559Y-3.8268
X5.2559Y-4.2677
X5.2559Y-4.2795
X5.2717Y-3.815
X5.2717Y-3.8268
X5.315Y-3.0354
X5.315Y-3.0551
X5.315Y-4.3071
X5.3169Y-3.4272
X5.3386Y-3.8543
X5.3445Y-3.0157
X5.3543Y-3.4567
X5.3583Y-4.3268
X5.3622Y-3.0551
X5.3819Y-3.878
X5.3842Y-2.9921
X5.3871Y-3.1109
X5.3937Y-3.4606
X5.4016Y-4.3425
X5.4094Y-3.4094
X5.4094Y-3.4606
X5.4154Y-2.937
X5.4154Y-2.9567
X5.4154Y-3.0354
X5.4154Y-3.0551
X5.4154Y-3.1339
X5.4173Y-4.2953
X5.4173Y-4.3425
X5.4252Y-3.4094
X5.4252Y-3.4606
X5.4331Y-4.2953
X5.4331Y-4.3425
X5.437Y-3.8425
X5.437Y-3.8976
X5.4409Y-3.4094
X5.4409Y-3.4606
X5.4449Y-2.937
X5.4449Y-2.9567
X5.4449Y-3.0354
X5.4449Y-3.0551
X5.4449Y-3.1535
X5.4488Y-3.4252
X5.4488Y-3.4449
X5.4488Y-4.2953
X5.4488Y-4.311
X5.4488Y-4.3268
X5.4488Y-4.3425
X5.4528Y-3.8425
X5.4528Y-3.8976
X5.4567Y-3.4094
X5.4567Y-3.4606
X5.4685Y-3.8425
X5.4685Y-3.8976
X5.4843Y-3.8425
X5.4843Y-3.8622
X5.4843Y-3.878
X5.4843Y-3.8976
X5.4921Y-3.0502
X5.5079Y-3.0502
X5.5236Y-3.003
X5.5236Y-3.0502
X5.5394Y-3.003
X5.5394Y-3.0502
X5.5551Y-3.003
X5.5551Y-3.0187
X5.5551Y-3.0344
X5.5551Y-3.0502
T2
X5.0787Y-2.8622
X5.0787Y-2.9793
X5.0787Y-3.2746
X5.0787Y-3.3927
X5.0787Y-4.1476
X5.0787Y-4.2785
X5.0906Y-3.7087
X5.0906Y-3.8268
X5.2323Y-2.9134
X5.2323Y-4.2126
X5.2362Y-3.2874
X5.252Y-3.7598
X5.2835Y-2.9134
X5.3091Y-3.1083
X5.311Y-2.9646
X5.3543Y-2.9646
X5.3543Y-3.1083
X5.3543Y-3.3661
X5.3844Y-4.248
X5.3883Y-3.7992
X5.4055Y-2.8681
X5.4055Y-3.2028
X5.4488Y-2.8681
T3
X4.126Y-2.6417
X4.126Y-2.7598
X4.126Y-2.878
X4.126Y-2.9961
X4.126Y-3.1142
X4.126Y-3.2323
X4.126Y-3.3504
X4.126Y-3.4685
X4.126Y-3.5866
X4.126Y-3.7047
X4.126Y-3.8228
X4.126Y-3.9409
X4.126Y-4.0591
X4.126Y-4.1772
X4.126Y-4.2953
X4.126Y-4.4134
X4.126Y-4.5315
X4.2441Y-2.6417
X4.2441Y-2.7598
X4.2441Y-3.3504
X4.2441Y-3.4685
X4.2441Y-4.0591
X4.2441Y-4.1772
X4.2441Y-4.2953
X4.2441Y-4.4134
X4.2441Y-4.5315
X4.3622Y-2.6417
X4.3622Y-2.7598
X4.3622Y-3.4685
X4.3622Y-4.0591
X4.3622Y-4.1772
X4.3622Y-4.2953
X4.3622Y-4.4134
X4.3622Y-4.5315
X4.4488Y-3.4547
X4.4803Y-2.6417
X4.4803Y-2.7598
X4.4803Y-4.0591
X4.4803Y-4.1772
X4.4803Y-4.2953
X4.4803Y-4.4134
X4.4803Y-4.5315
X4.5276Y-3.4547
X4.5984Y-2.6417
X4.5984Y-2.7598
X4.5984Y-3.5866
X4.5984Y-3.9409
X4.5984Y-4.0591
X4.5984Y-4.1772
X4.5984Y-4.2953
X4.5984Y-4.4134
X4.5984Y-4.5315
X4.6063Y-3.4557
X4.7165Y-2.6417
X4.7165Y-4.5315
X4.7441Y-3.3228
X4.7441Y-3.3661
X4.7441Y-3.7244
X4.7441Y-3.7677
X4.7441Y-4.1614
X4.7441Y-4.2047
X4.748Y-2.8976
X4.748Y-2.9409
X4.748Y-3.0827
X4.748Y-3.126
X4.748Y-3.5118
X4.748Y-3.5551
X4.748Y-3.9094
X4.748Y-3.9528
X4.748Y-4.3504
X4.748Y-4.3937
X4.7874Y-3.3228
X4.7874Y-3.3661
X4.7874Y-3.7244
X4.7874Y-3.7677
X4.7874Y-4.1614
X4.7874Y-4.2047
X4.7913Y-2.8976
X4.7913Y-2.9409
X4.7913Y-3.0827
X4.7913Y-3.126
X4.7913Y-3.5118
X4.7913Y-3.5551
X4.7913Y-3.9094
X4.7913Y-3.9528
X4.7913Y-4.3504
X4.7913Y-4.3937
X4.8307Y-3.3228
X4.8307Y-3.7244
X4.8307Y-4.1614
X4.8346Y-2.6417
X4.8346Y-2.8976
X4.8346Y-3.126
X4.8346Y-3.5551
X4.8346Y-3.9528
X4.8346Y-4.3937
X4.8346Y-4.5315
X4.8898Y-3.3228
X4.8898Y-3.7244
X4.8898Y-4.1614
X4.8937Y-2.8976
X4.8937Y-3.126
X4.8937Y-3.5551
X4.8937Y-3.9528
X4.8937Y-4.3937
X4.9331Y-3.3228
X4.9331Y-3.3661
X4.9331Y-3.7244
X4.9331Y-3.7677
X4.9331Y-4.1614
X4.9331Y-4.2047
X4.937Y-2.8976
X4.937Y-2.9409
X4.937Y-3.0827
X4.937Y-3.126
X4.937Y-3.5118
X4.937Y-3.5551
X4.937Y-3.9094
X4.937Y-3.9528
X4.937Y-4.3504
X4.937Y-4.3937
X4.9528Y-2.6417
X4.9528Y-4.5315
X4.9764Y-3.3228
X4.9764Y-3.3661
X4.9764Y-3.7244
X4.9764Y-3.7677
X4.9764Y-4.1614
X4.9764Y-4.2047
X4.9803Y-2.8976
X4.9803Y-2.9409
X4.9803Y-3.0827
X4.9803Y-3.126
X4.9803Y-3.5118
X4.9803Y-3.5551
X4.9803Y-3.9094
X4.9803Y-3.9528
X4.9803Y-4.3504
X4.9803Y-4.3937
X5.0709Y-2.6417
X5.0709Y-4.4134
X5.0709Y-4.5315
X5.0787Y-3.1575
X5.0787Y-3.5591
X5.0906Y-4.0
X5.189Y-2.6417
X5.189Y-2.7598
X5.189Y-4.5315
X5.2638Y-3.2008
X5.3071Y-2.6417
X5.3071Y-2.7598
X5.3071Y-3.5236
X5.3071Y-3.6102
X5.3071Y-3.7047
X5.3071Y-3.9409
X5.3071Y-4.0591
X5.3071Y-4.4134
X5.3071Y-4.5315
X5.315Y-3.252
X5.4232Y-2.7598
X5.4252Y-2.6417
X5.4252Y-3.5866
X5.4252Y-3.9409
X5.4252Y-4.0591
X5.4252Y-4.4134
X5.4252Y-4.5315
X5.5433Y-2.6417
X5.5433Y-2.7579
X5.5433Y-2.878
X5.5433Y-3.2323
X5.5433Y-3.3504
X5.5433Y-3.4685
X5.5433Y-3.5866
X5.5433Y-3.7047
X5.5433Y-3.8228
X5.5433Y-3.9409
X5.5433Y-4.0591
X5.5433Y-4.1772
X5.5433Y-4.2953
X5.5433Y-4.4134
X5.5433Y-4.5315
X5.6614Y-2.6417
X5.6614Y-2.7598
X5.6614Y-2.878
X5.6614Y-3.002
X5.6614Y-3.1142
X5.6614Y-3.2323
X5.6614Y-3.3504
X5.6614Y-3.4685
X5.6614Y-3.5866
X5.6614Y-3.7047
X5.6614Y-3.8228
X5.6614Y-3.9409
X5.6614Y-4.0591
X5.6614Y-4.1772
X5.6614Y-4.2953
X5.6614Y-4.4134
X5.6614Y-4.5315
X5.7795Y-2.6417
X5.7795Y-2.7598
X5.7795Y-2.878
X5.7795Y-2.9961
X5.7795Y-3.1142
X5.7795Y-3.2323
X5.7795Y-3.3504
X5.7795Y-3.4685
X5.7795Y-3.5866
X5.7795Y-3.7047
X5.7795Y-3.8228
X5.7795Y-3.9409
X5.7795Y-4.0591
X5.7795Y-4.1772
X5.7795Y-4.2953
X5.7795Y-4.4134
X5.7795Y-4.5315
T4
X5.4016Y-3.378
X5.4035Y-3.3248
X5.4252Y-4.2087
X5.4356Y-4.2619
X5.4488Y-3.75
X5.4488Y-3.7992
X5.5172Y-2.9701
X5.5728Y-2.9685
T5
X4.3898Y-3.0906
X4.3898Y-3.7795
T0
M30
