%TF.GenerationSoftware,KiCad,Pcbnew,7.0.7*%
%TF.CreationDate,2024-02-20T11:11:12-08:00*%
%TF.ProjectId,GD_test,47445f74-6573-4742-9e6b-696361645f70,rev?*%
%TF.SameCoordinates,Original*%
%TF.FileFunction,Copper,L2,Bot*%
%TF.FilePolarity,Positive*%
%FSLAX46Y46*%
G04 Gerber Fmt 4.6, Leading zero omitted, Abs format (unit mm)*
G04 Created by KiCad (PCBNEW 7.0.7) date 2024-02-20 11:11:12*
%MOMM*%
%LPD*%
G01*
G04 APERTURE LIST*
%TA.AperFunction,ComponentPad*%
%ADD10C,10.160000*%
%TD*%
%TA.AperFunction,ViaPad*%
%ADD11C,1.000000*%
%TD*%
%TA.AperFunction,ViaPad*%
%ADD12C,0.600000*%
%TD*%
%TA.AperFunction,ViaPad*%
%ADD13C,0.300000*%
%TD*%
%TA.AperFunction,Conductor*%
%ADD14C,0.200000*%
%TD*%
%TA.AperFunction,Conductor*%
%ADD15C,0.100000*%
%TD*%
G04 APERTURE END LIST*
D10*
%TO.P,J6,1,Pin_1*%
%TO.N,GND*%
X111500000Y-96000000D03*
%TD*%
%TO.P,J5,1,Pin_1*%
%TO.N,+5V*%
X111500000Y-78500000D03*
%TD*%
D11*
%TO.N,GND*%
X113000000Y-87750000D03*
X115000000Y-87750000D03*
X117000000Y-87775000D03*
D12*
X129300000Y-97200000D03*
D13*
X138300000Y-80100000D03*
%TO.N,/BUFF_OUT-*%
X136832155Y-79017845D03*
X137550000Y-75100000D03*
%TO.N,/BUFF_OUT+*%
X136759500Y-76000000D03*
X135750000Y-76600000D03*
D11*
%TO.N,GND*%
X141550000Y-75400000D03*
X140800000Y-82100000D03*
X140800000Y-73100000D03*
X140800000Y-70050000D03*
X137750000Y-70100000D03*
D13*
%TO.N,/BUFF_OUT-*%
X136200500Y-77600000D03*
X137550000Y-77600000D03*
D12*
%TO.N,GND*%
X137300000Y-81350000D03*
X137300000Y-72850000D03*
%TO.N,+5V*%
X138400000Y-72850000D03*
X136000000Y-78950000D03*
%TO.N,GND*%
X134850000Y-78950000D03*
X134900000Y-75300000D03*
D13*
X138300000Y-75100000D03*
X137550000Y-74600000D03*
X135000000Y-77600000D03*
X135000000Y-77100000D03*
X138300000Y-77600000D03*
X137550000Y-77100000D03*
X137550000Y-79600000D03*
%TO.N,+5V*%
X138300000Y-74600000D03*
X138300000Y-77100000D03*
D12*
X136000000Y-75300000D03*
D13*
%TO.N,GND*%
X140700000Y-77475000D03*
X138900000Y-97600000D03*
X139900000Y-77475000D03*
D11*
X125800000Y-115100000D03*
X133700000Y-81300000D03*
D13*
X133500000Y-75400000D03*
D11*
X131800000Y-70100000D03*
X120500000Y-85500000D03*
X113800000Y-70100000D03*
X140800000Y-109100000D03*
D13*
X130400000Y-109600000D03*
D11*
X104800000Y-88100000D03*
X125400000Y-78300000D03*
X104800000Y-67100000D03*
X104800000Y-100100000D03*
X124300000Y-73600000D03*
D13*
X138200000Y-86600000D03*
D11*
X137250000Y-84450000D03*
X126500000Y-110500000D03*
X104800000Y-70100000D03*
X104800000Y-73100000D03*
X121700000Y-79400000D03*
X120500000Y-94600000D03*
X120600000Y-78300000D03*
D13*
X131600000Y-97800000D03*
D11*
X121600000Y-95700000D03*
X121600000Y-105700000D03*
X143800000Y-100100000D03*
D13*
X138500000Y-99000000D03*
D11*
X125400000Y-90300000D03*
D12*
X129000000Y-83175000D03*
D13*
X135000000Y-109400000D03*
D11*
X140800000Y-112100000D03*
X146800000Y-88100000D03*
X143800000Y-103100000D03*
D13*
X136700000Y-98500000D03*
D11*
X104800000Y-106100000D03*
X140800000Y-85100000D03*
D13*
X139300000Y-99000000D03*
D11*
X125300000Y-95700000D03*
X107800000Y-109100000D03*
X134800000Y-70100000D03*
D13*
X140300000Y-77475000D03*
D11*
X143800000Y-112100000D03*
X126500000Y-89200000D03*
X134800000Y-91700000D03*
D13*
X140700000Y-76275000D03*
D12*
X136862500Y-96500000D03*
D11*
X143800000Y-67100000D03*
X120500000Y-106800000D03*
X110800000Y-88100000D03*
X135000000Y-82600000D03*
X140800000Y-94100000D03*
D13*
X131300000Y-87200000D03*
D11*
X143800000Y-70100000D03*
X126400000Y-85500000D03*
X125400000Y-79400000D03*
X122800000Y-67100000D03*
X120600000Y-79400000D03*
D13*
X133100000Y-75700000D03*
D11*
X137800000Y-100100000D03*
D13*
X140300000Y-76275000D03*
D11*
X120600000Y-100400000D03*
D13*
X141100000Y-76675000D03*
D11*
X107800000Y-103100000D03*
X125400000Y-111600000D03*
X146800000Y-67100000D03*
X125400000Y-74700000D03*
D13*
X130800000Y-109600000D03*
D11*
X126500000Y-79400000D03*
X113800000Y-103100000D03*
X116800000Y-112100000D03*
D12*
X129000000Y-105350000D03*
D13*
X130900000Y-86800000D03*
D11*
X121700000Y-100400000D03*
D13*
X130500000Y-86800000D03*
X139300000Y-98100000D03*
D11*
X143800000Y-94100000D03*
D13*
X133500000Y-85800000D03*
X130800000Y-98100000D03*
D11*
X125400000Y-89200000D03*
X126500000Y-100400000D03*
X122700000Y-105700000D03*
X129000000Y-90400000D03*
X128800000Y-112100000D03*
X146800000Y-82100000D03*
D13*
X132700000Y-86200000D03*
X133500000Y-108400000D03*
D11*
X125800000Y-67100000D03*
X134800000Y-100100000D03*
D13*
X135600000Y-97900000D03*
D11*
X119800000Y-115100000D03*
X121700000Y-73600000D03*
D13*
X138400000Y-87000000D03*
D11*
X121700000Y-111600000D03*
X140800000Y-67100000D03*
X126400000Y-95700000D03*
X126500000Y-111600000D03*
X107800000Y-70100000D03*
X120500000Y-95700000D03*
X107800000Y-106100000D03*
X104800000Y-97100000D03*
D13*
X138600000Y-86600000D03*
D11*
X116800000Y-106100000D03*
X140800000Y-91100000D03*
X140800000Y-97100000D03*
X113800000Y-106100000D03*
X146800000Y-91100000D03*
X140800000Y-103100000D03*
D13*
X137400000Y-86600000D03*
D11*
X122800000Y-115100000D03*
X125400000Y-110500000D03*
D13*
X138100000Y-97600000D03*
D11*
X131800000Y-67100000D03*
X107800000Y-115100000D03*
X113800000Y-115100000D03*
X125400000Y-100400000D03*
D13*
X133500000Y-97200000D03*
D11*
X125300000Y-105700000D03*
D13*
X137800000Y-86600000D03*
X130900000Y-76600000D03*
X133500000Y-75700000D03*
X133100000Y-96900000D03*
X138000000Y-110300000D03*
D11*
X122700000Y-94600000D03*
X104800000Y-103100000D03*
X134800000Y-89500000D03*
D13*
X133500000Y-108700000D03*
D12*
X132900000Y-107000000D03*
D11*
X137800000Y-106900000D03*
D13*
X130500000Y-87200000D03*
D11*
X146800000Y-76100000D03*
X146800000Y-97100000D03*
D12*
X133000000Y-83500000D03*
D13*
X131200000Y-109600000D03*
D11*
X126500000Y-78300000D03*
X126400000Y-105700000D03*
X143800000Y-79100000D03*
X110800000Y-109100000D03*
X146800000Y-115100000D03*
X124200000Y-94600000D03*
D13*
X136100000Y-109900000D03*
X138600000Y-87900000D03*
D11*
X126500000Y-90300000D03*
D13*
X132700000Y-108700000D03*
X133100000Y-97200000D03*
D11*
X121700000Y-74700000D03*
X104800000Y-91100000D03*
X116800000Y-109100000D03*
D13*
X137200000Y-110300000D03*
D11*
X120500000Y-84400000D03*
X122700000Y-84400000D03*
X121700000Y-89200000D03*
X137800000Y-112100000D03*
X124300000Y-100400000D03*
X125400000Y-99300000D03*
D13*
X137000000Y-87900000D03*
X131600000Y-98100000D03*
X137800000Y-87900000D03*
D12*
X133400000Y-95500000D03*
D11*
X116800000Y-67100000D03*
D12*
X129000000Y-108675000D03*
D11*
X124200000Y-105700000D03*
X116800000Y-103100000D03*
D13*
X131300000Y-76600000D03*
X133100000Y-85800000D03*
D11*
X120600000Y-73600000D03*
D13*
X136000000Y-87800000D03*
D11*
X104800000Y-94100000D03*
X121600000Y-85500000D03*
X104800000Y-82100000D03*
D13*
X133900000Y-96900000D03*
D12*
X129300000Y-94200000D03*
D11*
X143800000Y-76250000D03*
X143800000Y-73100000D03*
X129300000Y-101600000D03*
D13*
X131300000Y-86800000D03*
D11*
X120600000Y-111600000D03*
D12*
X136000000Y-85500000D03*
D11*
X107800000Y-88100000D03*
X137800000Y-115100000D03*
D13*
X138900000Y-99000000D03*
D11*
X146800000Y-103100000D03*
D13*
X137400000Y-87900000D03*
X138500000Y-97600000D03*
D11*
X146800000Y-85100000D03*
X146800000Y-70100000D03*
X126400000Y-94600000D03*
D13*
X141100000Y-76275000D03*
X133100000Y-108700000D03*
X141100000Y-77475000D03*
X132700000Y-75400000D03*
D11*
X104800000Y-109100000D03*
D12*
X129000000Y-86175000D03*
D11*
X104800000Y-79100000D03*
D13*
X132700000Y-85800000D03*
X139300000Y-98500000D03*
D12*
X129000000Y-72700000D03*
D11*
X140800000Y-115100000D03*
D13*
X130500000Y-76600000D03*
X139500000Y-77475000D03*
X131200000Y-109300000D03*
D11*
X125300000Y-106800000D03*
X134800000Y-103100000D03*
X110800000Y-103100000D03*
D13*
X130800000Y-109300000D03*
D11*
X104800000Y-76100000D03*
X146800000Y-106100000D03*
X126500000Y-73600000D03*
X146800000Y-100100000D03*
X125300000Y-84400000D03*
X120600000Y-90300000D03*
D13*
X133500000Y-86200000D03*
X130500000Y-76300000D03*
X138400000Y-87500000D03*
X133100000Y-86200000D03*
D11*
X140800000Y-106100000D03*
X120500000Y-105700000D03*
D12*
X134200000Y-74000000D03*
D13*
X131200000Y-98100000D03*
D11*
X122800000Y-90300000D03*
X128800000Y-115100000D03*
X140800000Y-88100000D03*
X120600000Y-99300000D03*
X124200000Y-84400000D03*
X146800000Y-109100000D03*
X116800000Y-115100000D03*
X137800000Y-91100000D03*
D13*
X138100000Y-99000000D03*
X130400000Y-109300000D03*
X138000000Y-109100000D03*
D11*
X125300000Y-85500000D03*
D13*
X133100000Y-75400000D03*
D11*
X138400000Y-95250000D03*
X110800000Y-70100000D03*
X124300000Y-90300000D03*
X137800000Y-103100000D03*
X113800000Y-112100000D03*
X134800000Y-67100000D03*
X122800000Y-111600000D03*
X143800000Y-97100000D03*
D13*
X141100000Y-77075000D03*
D11*
X122800000Y-100400000D03*
X107800000Y-85100000D03*
X134800000Y-115100000D03*
X137800000Y-67100000D03*
X146800000Y-112100000D03*
X116800000Y-91100000D03*
X110800000Y-115100000D03*
D13*
X133100000Y-108400000D03*
D11*
X110800000Y-112100000D03*
X140800000Y-100100000D03*
X143800000Y-106100000D03*
X121600000Y-106800000D03*
X110800000Y-67100000D03*
X146800000Y-73100000D03*
D13*
X137600000Y-110300000D03*
D11*
X124300000Y-111600000D03*
X121600000Y-84400000D03*
X134800000Y-94100000D03*
X120600000Y-74700000D03*
X120600000Y-89200000D03*
X116800000Y-70100000D03*
X122800000Y-79400000D03*
D13*
X137600000Y-109100000D03*
D11*
X126400000Y-84400000D03*
D13*
X131300000Y-76300000D03*
D11*
X131800000Y-115100000D03*
D13*
X139300000Y-97600000D03*
D11*
X120600000Y-110500000D03*
D12*
X132900000Y-74000000D03*
D11*
X107800000Y-112100000D03*
D13*
X135050000Y-87050500D03*
X132700000Y-108400000D03*
D12*
X129000000Y-75675000D03*
D11*
X134800000Y-112100000D03*
X146800000Y-94100000D03*
X116800000Y-100100000D03*
X104800000Y-115100000D03*
D13*
X138400000Y-109900000D03*
D11*
X143800000Y-115100000D03*
X104800000Y-85100000D03*
X121600000Y-94600000D03*
D13*
X130900000Y-87200000D03*
D11*
X113800000Y-109100000D03*
X129000000Y-80200000D03*
X143800000Y-85100000D03*
X143800000Y-82100000D03*
X143800000Y-91100000D03*
D13*
X133500000Y-96900000D03*
X138400000Y-109100000D03*
D11*
X110800000Y-106100000D03*
D12*
X136762500Y-107900000D03*
D11*
X126500000Y-74700000D03*
D13*
X138400000Y-109500000D03*
D11*
X113800000Y-67100000D03*
X125300000Y-94600000D03*
X119800000Y-67100000D03*
X125400000Y-73600000D03*
X126500000Y-99300000D03*
X122800000Y-73600000D03*
D13*
X131200000Y-97800000D03*
D11*
X124300000Y-79400000D03*
D13*
X130900000Y-76300000D03*
D11*
X107800000Y-67100000D03*
X128800000Y-67100000D03*
D13*
X132700000Y-75700000D03*
D11*
X143800000Y-109100000D03*
D13*
X130800000Y-97800000D03*
D11*
X121700000Y-90300000D03*
D13*
X138200000Y-87900000D03*
D11*
X126400000Y-106800000D03*
X121700000Y-110500000D03*
D13*
X133900000Y-97200000D03*
X138400000Y-110300000D03*
D11*
X104800000Y-112100000D03*
X121700000Y-99300000D03*
X121700000Y-78300000D03*
X146800000Y-79100000D03*
X143800000Y-88100000D03*
%TO.N,Net-(Q1-G)*%
X140135804Y-75441517D03*
%TO.N,Net-(Q2-G)*%
X137200000Y-85800000D03*
%TO.N,Net-(Q3-G)*%
X138065154Y-108253000D03*
%TO.N,Net-(Q5-G)*%
X138400000Y-96500000D03*
%TD*%
D14*
%TO.N,/BUFF_OUT-*%
X136200500Y-77499500D02*
X136200500Y-77600000D01*
X137209500Y-76490500D02*
X136200500Y-77499500D01*
X137209500Y-75709500D02*
X137209500Y-76490500D01*
X137200000Y-75700000D02*
X137209500Y-75709500D01*
X137200000Y-75450000D02*
X137200000Y-75700000D01*
X137550000Y-75100000D02*
X137200000Y-75450000D01*
X136832155Y-78231655D02*
X136832155Y-79017845D01*
X136200500Y-77600000D02*
X136832155Y-78231655D01*
%TO.N,/BUFF_OUT+*%
X136159500Y-76600000D02*
X136759500Y-76000000D01*
X135750000Y-76600000D02*
X136159500Y-76600000D01*
D15*
%TO.N,GND*%
X138234314Y-75100000D02*
X137734314Y-74600000D01*
X138300000Y-75100000D02*
X138234314Y-75100000D01*
X137734314Y-74600000D02*
X137550000Y-74600000D01*
X137660000Y-77100000D02*
X138160000Y-77600000D01*
X137550000Y-77100000D02*
X137660000Y-77100000D01*
X138160000Y-77600000D02*
X138300000Y-77600000D01*
D14*
%TO.N,/BUFF_OUT-*%
X137400000Y-77600000D02*
X137550000Y-77600000D01*
%TO.N,+5V*%
X138436397Y-74600000D02*
X138300000Y-74600000D01*
X138750000Y-74913603D02*
X138436397Y-74600000D01*
X138750000Y-76650000D02*
X138750000Y-74913603D01*
X138300000Y-77100000D02*
X138750000Y-76650000D01*
%TO.N,/BUFF_OUT-*%
X136200500Y-77600000D02*
X137550000Y-77600000D01*
%TO.N,+5V*%
X138400000Y-74500000D02*
X138300000Y-74600000D01*
X138400000Y-72850000D02*
X138400000Y-74500000D01*
%TD*%
%TA.AperFunction,Conductor*%
%TO.N,GND*%
G36*
X138235228Y-75050500D02*
G01*
X138235232Y-75050500D01*
X138241429Y-75051391D01*
X138306010Y-75080883D01*
X138344395Y-75140608D01*
X138349500Y-75176109D01*
X138349500Y-76431916D01*
X138329498Y-76500037D01*
X138312595Y-76521011D01*
X138185598Y-76648008D01*
X138132002Y-76679809D01*
X138110930Y-76685996D01*
X138001951Y-76756032D01*
X137917118Y-76853937D01*
X137863302Y-76971776D01*
X137863301Y-76971780D01*
X137849411Y-77068388D01*
X137819918Y-77132969D01*
X137760192Y-77171352D01*
X137689197Y-77171352D01*
X137614778Y-77149501D01*
X137614774Y-77149500D01*
X137614772Y-77149500D01*
X137485228Y-77149500D01*
X137485225Y-77149500D01*
X137485222Y-77149501D01*
X137437444Y-77163529D01*
X137366447Y-77163527D01*
X137306722Y-77125142D01*
X137277231Y-77060560D01*
X137287337Y-76990286D01*
X137312849Y-76953542D01*
X137514983Y-76751409D01*
X137514983Y-76751408D01*
X137532706Y-76733686D01*
X137532706Y-76733685D01*
X137537550Y-76728842D01*
X137547533Y-76709245D01*
X137557867Y-76692383D01*
X137570796Y-76674590D01*
X137577594Y-76653665D01*
X137585161Y-76635399D01*
X137595145Y-76615806D01*
X137595145Y-76615805D01*
X137595146Y-76615804D01*
X137598587Y-76594070D01*
X137603201Y-76574852D01*
X137609999Y-76553933D01*
X137609999Y-76524617D01*
X137610000Y-76524592D01*
X137610000Y-75658583D01*
X137630002Y-75590462D01*
X137646902Y-75569490D01*
X137664401Y-75551991D01*
X137717999Y-75520190D01*
X137739069Y-75514004D01*
X137848049Y-75443967D01*
X137932882Y-75346063D01*
X137986697Y-75228226D01*
X138000588Y-75131609D01*
X138030080Y-75067031D01*
X138089806Y-75028647D01*
X138160802Y-75028647D01*
X138235228Y-75050500D01*
G37*
%TD.AperFunction*%
%TA.AperFunction,Conductor*%
G36*
X147942121Y-66220002D02*
G01*
X147988614Y-66273658D01*
X148000000Y-66326000D01*
X148000000Y-115874000D01*
X147979998Y-115942121D01*
X147926342Y-115988614D01*
X147874000Y-116000000D01*
X104125747Y-116000000D01*
X104057626Y-115979998D01*
X104011133Y-115926342D01*
X103999747Y-115874253D01*
X103999746Y-115874000D01*
X103984443Y-108253000D01*
X137259589Y-108253000D01*
X137279786Y-108432255D01*
X137279787Y-108432257D01*
X137339365Y-108602522D01*
X137339366Y-108602525D01*
X137435336Y-108755260D01*
X137435337Y-108755262D01*
X137562891Y-108882816D01*
X137562893Y-108882817D01*
X137715628Y-108978787D01*
X137715629Y-108978787D01*
X137715632Y-108978789D01*
X137885899Y-109038368D01*
X138065154Y-109058565D01*
X138244409Y-109038368D01*
X138414676Y-108978789D01*
X138567416Y-108882816D01*
X138694970Y-108755262D01*
X138790943Y-108602522D01*
X138850522Y-108432255D01*
X138870719Y-108253000D01*
X138850522Y-108073745D01*
X138790943Y-107903478D01*
X138790941Y-107903475D01*
X138790941Y-107903474D01*
X138694971Y-107750739D01*
X138694970Y-107750737D01*
X138567416Y-107623183D01*
X138567414Y-107623182D01*
X138414679Y-107527212D01*
X138414676Y-107527211D01*
X138244409Y-107467632D01*
X138065154Y-107447435D01*
X137885899Y-107467632D01*
X137885896Y-107467632D01*
X137885896Y-107467633D01*
X137715631Y-107527211D01*
X137715628Y-107527212D01*
X137562893Y-107623182D01*
X137562891Y-107623183D01*
X137435337Y-107750737D01*
X137435336Y-107750739D01*
X137339366Y-107903474D01*
X137339365Y-107903477D01*
X137339365Y-107903478D01*
X137279786Y-108073745D01*
X137259589Y-108253000D01*
X103984443Y-108253000D01*
X103960843Y-96500000D01*
X137594435Y-96500000D01*
X137614632Y-96679255D01*
X137614633Y-96679257D01*
X137674211Y-96849522D01*
X137674212Y-96849525D01*
X137770182Y-97002260D01*
X137770183Y-97002262D01*
X137897737Y-97129816D01*
X137897739Y-97129817D01*
X138050474Y-97225787D01*
X138050475Y-97225787D01*
X138050478Y-97225789D01*
X138220745Y-97285368D01*
X138400000Y-97305565D01*
X138579255Y-97285368D01*
X138749522Y-97225789D01*
X138902262Y-97129816D01*
X139029816Y-97002262D01*
X139125789Y-96849522D01*
X139185368Y-96679255D01*
X139205565Y-96500000D01*
X139185368Y-96320745D01*
X139125789Y-96150478D01*
X139125787Y-96150475D01*
X139125787Y-96150474D01*
X139029817Y-95997739D01*
X139029816Y-95997737D01*
X138902262Y-95870183D01*
X138902260Y-95870182D01*
X138749525Y-95774212D01*
X138749522Y-95774211D01*
X138579255Y-95714632D01*
X138400000Y-95694435D01*
X138220745Y-95714632D01*
X138220742Y-95714632D01*
X138220742Y-95714633D01*
X138050477Y-95774211D01*
X138050474Y-95774212D01*
X137897739Y-95870182D01*
X137897737Y-95870183D01*
X137770183Y-95997737D01*
X137770182Y-95997739D01*
X137674212Y-96150474D01*
X137674211Y-96150477D01*
X137674211Y-96150478D01*
X137614632Y-96320745D01*
X137594435Y-96500000D01*
X103960843Y-96500000D01*
X103940975Y-86605564D01*
X103939357Y-85800000D01*
X136394435Y-85800000D01*
X136414632Y-85979255D01*
X136414633Y-85979257D01*
X136474211Y-86149522D01*
X136474212Y-86149525D01*
X136570182Y-86302260D01*
X136570183Y-86302262D01*
X136697737Y-86429816D01*
X136697739Y-86429817D01*
X136850474Y-86525787D01*
X136850475Y-86525787D01*
X136850478Y-86525789D01*
X137020745Y-86585368D01*
X137200000Y-86605565D01*
X137379255Y-86585368D01*
X137549522Y-86525789D01*
X137702262Y-86429816D01*
X137829816Y-86302262D01*
X137925789Y-86149522D01*
X137985368Y-85979255D01*
X138005565Y-85800000D01*
X137985368Y-85620745D01*
X137925789Y-85450478D01*
X137925787Y-85450475D01*
X137925787Y-85450474D01*
X137829817Y-85297739D01*
X137829816Y-85297737D01*
X137702262Y-85170183D01*
X137702260Y-85170182D01*
X137549525Y-85074212D01*
X137549522Y-85074211D01*
X137549521Y-85074210D01*
X137379255Y-85014632D01*
X137200000Y-84994435D01*
X137020745Y-85014632D01*
X137020742Y-85014632D01*
X137020742Y-85014633D01*
X136850477Y-85074211D01*
X136850474Y-85074212D01*
X136697739Y-85170182D01*
X136697737Y-85170183D01*
X136570183Y-85297737D01*
X136570182Y-85297739D01*
X136474212Y-85450474D01*
X136474211Y-85450477D01*
X136474211Y-85450478D01*
X136414632Y-85620745D01*
X136394435Y-85800000D01*
X103939357Y-85800000D01*
X103924699Y-78500000D01*
X106114648Y-78500000D01*
X106134049Y-78956710D01*
X106153264Y-79106762D01*
X106192111Y-79410132D01*
X106192111Y-79410133D01*
X106288417Y-79856991D01*
X106422270Y-80294067D01*
X106592712Y-80718229D01*
X106798514Y-81126412D01*
X107038182Y-81515657D01*
X107038181Y-81515657D01*
X107038184Y-81515661D01*
X107310004Y-81883186D01*
X107310006Y-81883188D01*
X107310006Y-81883189D01*
X107612014Y-82226336D01*
X107942037Y-82542638D01*
X108297691Y-82829808D01*
X108676421Y-83085784D01*
X108676425Y-83085786D01*
X108676424Y-83085786D01*
X108792187Y-83150455D01*
X109075494Y-83308720D01*
X109492037Y-83497009D01*
X109733546Y-83582339D01*
X109923042Y-83649293D01*
X109923041Y-83649292D01*
X109923046Y-83649294D01*
X110365418Y-83764479D01*
X110365421Y-83764479D01*
X110365427Y-83764481D01*
X110815957Y-83841732D01*
X110815959Y-83841732D01*
X110815964Y-83841733D01*
X111271439Y-83880500D01*
X111728561Y-83880500D01*
X112184036Y-83841733D01*
X112184040Y-83841732D01*
X112184043Y-83841732D01*
X112634573Y-83764481D01*
X112634578Y-83764479D01*
X112634582Y-83764479D01*
X113076954Y-83649294D01*
X113076958Y-83649292D01*
X113076958Y-83649293D01*
X113266453Y-83582339D01*
X113507963Y-83497009D01*
X113924506Y-83308720D01*
X114207812Y-83150454D01*
X114323576Y-83085786D01*
X114323575Y-83085786D01*
X114323579Y-83085784D01*
X114702309Y-82829808D01*
X115057963Y-82542638D01*
X115099126Y-82503186D01*
X115387988Y-82226334D01*
X115587135Y-82000058D01*
X115689994Y-81883189D01*
X115689994Y-81883188D01*
X115689996Y-81883186D01*
X115961816Y-81515661D01*
X115961815Y-81515661D01*
X115961819Y-81515657D01*
X115961818Y-81515657D01*
X116201486Y-81126412D01*
X116407288Y-80718229D01*
X116577730Y-80294067D01*
X116711583Y-79856991D01*
X116807889Y-79410133D01*
X116807889Y-79410132D01*
X116846736Y-79106762D01*
X116865951Y-78956710D01*
X116885352Y-78500000D01*
X116865951Y-78043290D01*
X116807889Y-77589871D01*
X116807889Y-77589868D01*
X116807889Y-77589867D01*
X116711583Y-77143009D01*
X116577730Y-76705933D01*
X116575509Y-76700407D01*
X116535162Y-76600000D01*
X135294867Y-76600000D01*
X135313303Y-76728226D01*
X135367118Y-76846063D01*
X135451951Y-76943967D01*
X135560931Y-77014004D01*
X135685228Y-77050500D01*
X135685232Y-77050500D01*
X135778917Y-77050500D01*
X135847038Y-77070502D01*
X135893531Y-77124158D01*
X135903635Y-77194432D01*
X135877188Y-77252338D01*
X135878281Y-77253132D01*
X135874364Y-77258523D01*
X135874141Y-77259012D01*
X135873541Y-77259656D01*
X135872450Y-77261158D01*
X135862462Y-77280758D01*
X135852140Y-77297602D01*
X135839204Y-77315409D01*
X135834701Y-77324247D01*
X135833859Y-77323818D01*
X135821494Y-77345716D01*
X135822490Y-77346356D01*
X135817617Y-77353938D01*
X135763804Y-77471770D01*
X135763803Y-77471773D01*
X135763803Y-77471774D01*
X135745367Y-77600000D01*
X135763803Y-77728226D01*
X135817618Y-77846063D01*
X135902451Y-77943967D01*
X136011431Y-78014004D01*
X136032500Y-78020190D01*
X136086099Y-78051992D01*
X136173332Y-78139225D01*
X136207358Y-78201537D01*
X136202293Y-78272352D01*
X136159746Y-78329188D01*
X136093226Y-78353999D01*
X136067792Y-78353242D01*
X136000002Y-78344318D01*
X136000000Y-78344318D01*
X135843239Y-78364955D01*
X135697160Y-78425463D01*
X135697157Y-78425465D01*
X135571718Y-78521718D01*
X135475465Y-78647157D01*
X135475463Y-78647160D01*
X135414955Y-78793239D01*
X135394318Y-78949999D01*
X135394318Y-78950000D01*
X135414955Y-79106760D01*
X135431238Y-79146069D01*
X135475464Y-79252841D01*
X135571718Y-79378282D01*
X135697159Y-79474536D01*
X135843238Y-79535044D01*
X136000000Y-79555682D01*
X136156762Y-79535044D01*
X136302841Y-79474536D01*
X136417908Y-79386242D01*
X136484126Y-79360643D01*
X136553675Y-79374908D01*
X136562730Y-79380208D01*
X136609295Y-79410133D01*
X136643086Y-79431849D01*
X136767383Y-79468345D01*
X136767387Y-79468345D01*
X136896923Y-79468345D01*
X136896927Y-79468345D01*
X137021224Y-79431849D01*
X137130204Y-79361812D01*
X137215037Y-79263908D01*
X137268852Y-79146071D01*
X137287288Y-79017845D01*
X137268852Y-78889619D01*
X137244040Y-78835290D01*
X137232655Y-78782949D01*
X137232655Y-78168222D01*
X137231939Y-78163703D01*
X137241036Y-78093292D01*
X137286757Y-78038977D01*
X137354584Y-78018002D01*
X137391884Y-78023093D01*
X137475232Y-78047565D01*
X137485228Y-78050500D01*
X137485232Y-78050500D01*
X137614768Y-78050500D01*
X137614772Y-78050500D01*
X137739069Y-78014004D01*
X137848049Y-77943967D01*
X137932882Y-77846063D01*
X137986697Y-77728226D01*
X138000588Y-77631609D01*
X138030080Y-77567031D01*
X138089806Y-77528647D01*
X138160802Y-77528647D01*
X138235228Y-77550500D01*
X138235232Y-77550500D01*
X138364768Y-77550500D01*
X138364772Y-77550500D01*
X138489069Y-77514004D01*
X138598049Y-77443967D01*
X138682882Y-77346063D01*
X138726019Y-77251604D01*
X138751533Y-77214857D01*
X139055483Y-76910909D01*
X139055483Y-76910908D01*
X139073206Y-76893186D01*
X139073206Y-76893185D01*
X139078050Y-76888342D01*
X139088033Y-76868745D01*
X139098367Y-76851883D01*
X139111296Y-76834090D01*
X139118094Y-76813163D01*
X139125659Y-76794902D01*
X139135646Y-76775304D01*
X139139088Y-76753569D01*
X139143700Y-76734360D01*
X139150500Y-76713433D01*
X139150500Y-76586567D01*
X139150500Y-75790969D01*
X139170502Y-75722848D01*
X139224158Y-75676355D01*
X139294432Y-75666251D01*
X139359012Y-75695745D01*
X139395427Y-75749350D01*
X139404568Y-75775471D01*
X139410017Y-75791044D01*
X139505986Y-75943777D01*
X139505987Y-75943779D01*
X139633541Y-76071333D01*
X139633543Y-76071334D01*
X139786278Y-76167304D01*
X139786279Y-76167304D01*
X139786282Y-76167306D01*
X139956549Y-76226885D01*
X140135804Y-76247082D01*
X140315059Y-76226885D01*
X140485326Y-76167306D01*
X140638066Y-76071333D01*
X140765620Y-75943779D01*
X140861593Y-75791039D01*
X140921172Y-75620772D01*
X140941369Y-75441517D01*
X140921172Y-75262262D01*
X140861593Y-75091995D01*
X140861591Y-75091992D01*
X140861591Y-75091991D01*
X140765621Y-74939256D01*
X140765620Y-74939254D01*
X140638066Y-74811700D01*
X140638064Y-74811699D01*
X140485329Y-74715729D01*
X140485326Y-74715728D01*
X140473875Y-74711721D01*
X140315059Y-74656149D01*
X140135804Y-74635952D01*
X139956549Y-74656149D01*
X139956546Y-74656149D01*
X139956546Y-74656150D01*
X139786281Y-74715728D01*
X139786278Y-74715729D01*
X139633543Y-74811699D01*
X139633541Y-74811700D01*
X139505987Y-74939254D01*
X139505986Y-74939256D01*
X139410016Y-75091991D01*
X139410015Y-75091994D01*
X139395429Y-75133679D01*
X139354051Y-75191371D01*
X139288050Y-75217533D01*
X139218383Y-75203860D01*
X139167167Y-75154693D01*
X139150500Y-75092064D01*
X139150500Y-74850170D01*
X139143703Y-74829253D01*
X139139086Y-74810020D01*
X139135646Y-74788299D01*
X139135646Y-74788298D01*
X139125658Y-74768695D01*
X139118092Y-74750429D01*
X139111296Y-74729515D01*
X139111295Y-74729512D01*
X139098369Y-74711721D01*
X139088038Y-74694863D01*
X139078050Y-74675261D01*
X139074141Y-74671352D01*
X139057419Y-74654630D01*
X139057410Y-74654620D01*
X138837404Y-74434613D01*
X138803379Y-74372301D01*
X138800500Y-74345518D01*
X138800500Y-73357259D01*
X138820502Y-73289138D01*
X138826538Y-73280555D01*
X138861095Y-73235519D01*
X138924536Y-73152841D01*
X138985044Y-73006762D01*
X139005682Y-72850000D01*
X138985044Y-72693238D01*
X138924536Y-72547159D01*
X138828282Y-72421718D01*
X138702841Y-72325464D01*
X138556762Y-72264956D01*
X138556760Y-72264955D01*
X138400000Y-72244318D01*
X138243239Y-72264955D01*
X138097160Y-72325463D01*
X138097157Y-72325465D01*
X137971718Y-72421718D01*
X137875465Y-72547157D01*
X137875463Y-72547160D01*
X137814955Y-72693239D01*
X137794318Y-72849999D01*
X137794318Y-72850000D01*
X137814955Y-73006760D01*
X137875463Y-73152839D01*
X137875468Y-73152847D01*
X137973462Y-73280555D01*
X137999063Y-73346775D01*
X137999500Y-73357259D01*
X137999500Y-74211866D01*
X137979498Y-74279987D01*
X137968726Y-74294377D01*
X137917118Y-74353937D01*
X137863302Y-74471776D01*
X137863301Y-74471780D01*
X137849411Y-74568388D01*
X137819918Y-74632969D01*
X137760192Y-74671352D01*
X137689197Y-74671352D01*
X137614778Y-74649501D01*
X137614774Y-74649500D01*
X137614772Y-74649500D01*
X137485228Y-74649500D01*
X137485225Y-74649500D01*
X137485223Y-74649501D01*
X137360933Y-74685995D01*
X137360926Y-74685998D01*
X137251948Y-74756033D01*
X137167121Y-74853932D01*
X137167117Y-74853937D01*
X137123981Y-74948390D01*
X137098464Y-74985141D01*
X136894516Y-75189091D01*
X136894515Y-75189090D01*
X136894512Y-75189095D01*
X136871953Y-75211653D01*
X136871950Y-75211658D01*
X136861962Y-75231258D01*
X136851640Y-75248102D01*
X136838704Y-75265909D01*
X136834201Y-75274747D01*
X136830768Y-75272998D01*
X136800309Y-75316236D01*
X136734533Y-75342957D01*
X136664752Y-75329875D01*
X136613121Y-75281143D01*
X136596997Y-75234037D01*
X136585044Y-75143238D01*
X136524536Y-74997159D01*
X136428282Y-74871718D01*
X136302841Y-74775464D01*
X136298501Y-74773666D01*
X136156760Y-74714955D01*
X136000000Y-74694318D01*
X135843239Y-74714955D01*
X135697160Y-74775463D01*
X135697157Y-74775465D01*
X135571718Y-74871718D01*
X135475465Y-74997157D01*
X135475463Y-74997160D01*
X135414955Y-75143239D01*
X135394318Y-75299999D01*
X135394318Y-75300000D01*
X135414955Y-75456760D01*
X135468487Y-75585996D01*
X135475464Y-75602841D01*
X135571718Y-75728282D01*
X135697159Y-75824536D01*
X135843238Y-75885044D01*
X136000000Y-75905682D01*
X136000000Y-75905681D01*
X136000670Y-75905770D01*
X136065597Y-75934492D01*
X136104689Y-75993757D01*
X136105534Y-76064749D01*
X136073319Y-76119787D01*
X136044530Y-76148576D01*
X135982218Y-76182602D01*
X135919939Y-76180378D01*
X135844197Y-76158140D01*
X135814772Y-76149500D01*
X135685228Y-76149500D01*
X135685225Y-76149500D01*
X135685223Y-76149501D01*
X135560933Y-76185995D01*
X135560926Y-76185998D01*
X135451951Y-76256032D01*
X135429649Y-76281771D01*
X135367118Y-76353937D01*
X135313303Y-76471774D01*
X135294867Y-76600000D01*
X116535162Y-76600000D01*
X116467621Y-76431916D01*
X116407288Y-76281771D01*
X116340598Y-76149500D01*
X116201488Y-75873591D01*
X115961818Y-75484343D01*
X115961819Y-75484343D01*
X115867056Y-75356215D01*
X115689996Y-75116814D01*
X115689994Y-75116811D01*
X115483407Y-74882083D01*
X115387988Y-74773666D01*
X115261772Y-74652697D01*
X115057963Y-74457362D01*
X114702309Y-74170192D01*
X114323579Y-73914216D01*
X114323575Y-73914214D01*
X114323576Y-73914214D01*
X114207812Y-73849544D01*
X113924506Y-73691280D01*
X113507963Y-73502991D01*
X113266453Y-73417660D01*
X113076958Y-73350707D01*
X113076954Y-73350706D01*
X112634582Y-73235521D01*
X112634578Y-73235520D01*
X112634573Y-73235519D01*
X112184043Y-73158268D01*
X112184040Y-73158267D01*
X112184036Y-73158267D01*
X111728561Y-73119500D01*
X111271439Y-73119500D01*
X110815964Y-73158267D01*
X110815959Y-73158267D01*
X110815957Y-73158268D01*
X110365427Y-73235519D01*
X110365421Y-73235520D01*
X110365418Y-73235521D01*
X109923046Y-73350706D01*
X109923041Y-73350707D01*
X109923042Y-73350707D01*
X109733546Y-73417660D01*
X109492037Y-73502991D01*
X109075494Y-73691280D01*
X108792187Y-73849545D01*
X108676424Y-73914214D01*
X108676425Y-73914214D01*
X108676421Y-73914216D01*
X108297690Y-74170191D01*
X108297691Y-74170192D01*
X107942037Y-74457362D01*
X107612014Y-74773663D01*
X107310006Y-75116811D01*
X107310004Y-75116814D01*
X107132944Y-75356215D01*
X107038181Y-75484343D01*
X107038182Y-75484343D01*
X106798512Y-75873591D01*
X106659402Y-76149500D01*
X106592712Y-76281771D01*
X106532379Y-76431916D01*
X106424491Y-76700407D01*
X106422270Y-76705933D01*
X106288417Y-77143009D01*
X106192111Y-77589867D01*
X106192111Y-77589868D01*
X106192111Y-77589871D01*
X106134049Y-78043290D01*
X106114648Y-78500000D01*
X103924699Y-78500000D01*
X103900254Y-66326253D01*
X103920119Y-66258092D01*
X103973682Y-66211492D01*
X104026254Y-66200000D01*
X147874000Y-66200000D01*
X147942121Y-66220002D01*
G37*
%TD.AperFunction*%
%TD*%
M02*
