%TF.GenerationSoftware,KiCad,Pcbnew,7.0.7*%
%TF.CreationDate,2024-02-20T11:11:12-08:00*%
%TF.ProjectId,GD_test,47445f74-6573-4742-9e6b-696361645f70,rev?*%
%TF.SameCoordinates,Original*%
%TF.FileFunction,Copper,L1,Top*%
%TF.FilePolarity,Positive*%
%FSLAX46Y46*%
G04 Gerber Fmt 4.6, Leading zero omitted, Abs format (unit mm)*
G04 Created by KiCad (PCBNEW 7.0.7) date 2024-02-20 11:11:12*
%MOMM*%
%LPD*%
G01*
G04 APERTURE LIST*
G04 Aperture macros list*
%AMRoundRect*
0 Rectangle with rounded corners*
0 $1 Rounding radius*
0 $2 $3 $4 $5 $6 $7 $8 $9 X,Y pos of 4 corners*
0 Add a 4 corners polygon primitive as box body*
4,1,4,$2,$3,$4,$5,$6,$7,$8,$9,$2,$3,0*
0 Add four circle primitives for the rounded corners*
1,1,$1+$1,$2,$3*
1,1,$1+$1,$4,$5*
1,1,$1+$1,$6,$7*
1,1,$1+$1,$8,$9*
0 Add four rect primitives between the rounded corners*
20,1,$1+$1,$2,$3,$4,$5,0*
20,1,$1+$1,$4,$5,$6,$7,0*
20,1,$1+$1,$6,$7,$8,$9,0*
20,1,$1+$1,$8,$9,$2,$3,0*%
%AMFreePoly0*
4,1,25,-1.500000,1.420000,-1.360000,1.280000,-1.205000,1.155000,-1.035000,1.045000,-0.860000,0.950000,-0.675000,0.875000,-0.480000,0.820000,-0.280000,0.780000,-0.085000,0.765000,0.085000,0.765000,0.280000,0.780000,0.480000,0.820000,0.675000,0.875000,0.860000,0.950000,1.035000,1.045000,1.205000,1.155000,1.360000,1.280000,1.500000,1.420000,1.645000,1.595000,3.555000,1.595000,
3.555000,-0.755000,-3.555000,-0.755000,-3.555000,1.595000,-1.645000,1.595000,-1.500000,1.420000,-1.500000,1.420000,$1*%
G04 Aperture macros list end*
%TA.AperFunction,SMDPad,CuDef*%
%ADD10R,0.520000X0.300000*%
%TD*%
%TA.AperFunction,SMDPad,CuDef*%
%ADD11RoundRect,0.155000X0.212500X0.155000X-0.212500X0.155000X-0.212500X-0.155000X0.212500X-0.155000X0*%
%TD*%
%TA.AperFunction,SMDPad,CuDef*%
%ADD12RoundRect,0.237500X-0.300000X-0.237500X0.300000X-0.237500X0.300000X0.237500X-0.300000X0.237500X0*%
%TD*%
%TA.AperFunction,SMDPad,CuDef*%
%ADD13RoundRect,0.155000X-0.212500X-0.155000X0.212500X-0.155000X0.212500X0.155000X-0.212500X0.155000X0*%
%TD*%
%TA.AperFunction,SMDPad,CuDef*%
%ADD14RoundRect,0.237500X-0.237500X0.300000X-0.237500X-0.300000X0.237500X-0.300000X0.237500X0.300000X0*%
%TD*%
%TA.AperFunction,SMDPad,CuDef*%
%ADD15O,0.180000X0.310000*%
%TD*%
%TA.AperFunction,SMDPad,CuDef*%
%ADD16O,0.180000X0.817000*%
%TD*%
%TA.AperFunction,SMDPad,CuDef*%
%ADD17C,0.250000*%
%TD*%
%TA.AperFunction,SMDPad,CuDef*%
%ADD18RoundRect,0.200000X0.275000X-0.200000X0.275000X0.200000X-0.275000X0.200000X-0.275000X-0.200000X0*%
%TD*%
%TA.AperFunction,SMDPad,CuDef*%
%ADD19RoundRect,0.200000X0.200000X0.275000X-0.200000X0.275000X-0.200000X-0.275000X0.200000X-0.275000X0*%
%TD*%
%TA.AperFunction,ComponentPad*%
%ADD20C,10.160000*%
%TD*%
%TA.AperFunction,SMDPad,CuDef*%
%ADD21C,1.730000*%
%TD*%
%TA.AperFunction,SMDPad,CuDef*%
%ADD22FreePoly0,180.000000*%
%TD*%
%TA.AperFunction,SMDPad,CuDef*%
%ADD23FreePoly0,0.000000*%
%TD*%
%TA.AperFunction,SMDPad,CuDef*%
%ADD24C,0.230000*%
%TD*%
%TA.AperFunction,SMDPad,CuDef*%
%ADD25RoundRect,0.200000X-0.275000X0.200000X-0.275000X-0.200000X0.275000X-0.200000X0.275000X0.200000X0*%
%TD*%
%TA.AperFunction,SMDPad,CuDef*%
%ADD26RoundRect,0.150000X-0.512500X-0.150000X0.512500X-0.150000X0.512500X0.150000X-0.512500X0.150000X0*%
%TD*%
%TA.AperFunction,ViaPad*%
%ADD27C,1.000000*%
%TD*%
%TA.AperFunction,ViaPad*%
%ADD28C,0.600000*%
%TD*%
%TA.AperFunction,ViaPad*%
%ADD29C,0.300000*%
%TD*%
%TA.AperFunction,Conductor*%
%ADD30C,0.200000*%
%TD*%
%TA.AperFunction,Conductor*%
%ADD31C,1.000000*%
%TD*%
%TA.AperFunction,Conductor*%
%ADD32C,0.500000*%
%TD*%
%TA.AperFunction,Conductor*%
%ADD33C,1.500000*%
%TD*%
%TA.AperFunction,Conductor*%
%ADD34C,0.300000*%
%TD*%
G04 APERTURE END LIST*
D10*
%TO.P,U7,1,A1*%
%TO.N,/BUFF_OUT+*%
X137550000Y-79100000D03*
%TO.P,U7,2,GND*%
%TO.N,GND*%
X137550000Y-79600000D03*
%TO.P,U7,3,A2*%
%TO.N,/BUFF_OUT-*%
X137550000Y-80100000D03*
%TO.P,U7,4,Y2*%
%TO.N,GND*%
X138300000Y-80100000D03*
%TO.P,U7,5,VCC*%
%TO.N,+5V*%
X138300000Y-79600000D03*
%TO.P,U7,6,Y1*%
%TO.N,Net-(Q1-G)*%
X138300000Y-79100000D03*
%TD*%
D11*
%TO.P,C17,1*%
%TO.N,+5V*%
X138467500Y-81350000D03*
%TO.P,C17,2*%
%TO.N,GND*%
X137332500Y-81350000D03*
%TD*%
%TO.P,C9,1*%
%TO.N,+5V*%
X138417500Y-72850000D03*
%TO.P,C9,2*%
%TO.N,GND*%
X137282500Y-72850000D03*
%TD*%
%TO.P,C7,1*%
%TO.N,+5V*%
X135967500Y-78950000D03*
%TO.P,C7,2*%
%TO.N,GND*%
X134832500Y-78950000D03*
%TD*%
D12*
%TO.P,C16,1*%
%TO.N,+5V*%
X131137500Y-107000000D03*
%TO.P,C16,2*%
%TO.N,GND*%
X132862500Y-107000000D03*
%TD*%
%TO.P,C15,1*%
%TO.N,+5V*%
X131637500Y-95500000D03*
%TO.P,C15,2*%
%TO.N,GND*%
X133362500Y-95500000D03*
%TD*%
%TO.P,C14,1*%
%TO.N,+5V*%
X135037500Y-107900000D03*
%TO.P,C14,2*%
%TO.N,GND*%
X136762500Y-107900000D03*
%TD*%
%TO.P,C12,1*%
%TO.N,+5V*%
X135137500Y-96500000D03*
%TO.P,C12,2*%
%TO.N,GND*%
X136862500Y-96500000D03*
%TD*%
%TO.P,C10,1*%
%TO.N,+5V*%
X131137500Y-74000000D03*
%TO.P,C10,2*%
%TO.N,GND*%
X132862500Y-74000000D03*
%TD*%
D11*
%TO.P,C8,1*%
%TO.N,+5V*%
X136017500Y-75300000D03*
%TO.P,C8,2*%
%TO.N,GND*%
X134882500Y-75300000D03*
%TD*%
D13*
%TO.P,C6,1*%
%TO.N,+5V*%
X134832500Y-85500000D03*
%TO.P,C6,2*%
%TO.N,GND*%
X135967500Y-85500000D03*
%TD*%
D12*
%TO.P,C4,1*%
%TO.N,+5V*%
X131225000Y-83500000D03*
%TO.P,C4,2*%
%TO.N,GND*%
X132950000Y-83500000D03*
%TD*%
D14*
%TO.P,C3,1*%
%TO.N,+5V*%
X112990000Y-86050000D03*
%TO.P,C3,2*%
%TO.N,GND*%
X112990000Y-87775000D03*
%TD*%
%TO.P,C2,1*%
%TO.N,+5V*%
X115000000Y-86050000D03*
%TO.P,C2,2*%
%TO.N,GND*%
X115000000Y-87775000D03*
%TD*%
%TO.P,C1,1*%
%TO.N,+5V*%
X117000000Y-86050000D03*
%TO.P,C1,2*%
%TO.N,GND*%
X117000000Y-87775000D03*
%TD*%
D10*
%TO.P,U3,6,Y1*%
%TO.N,/BUFF_OUT+*%
X135750000Y-76600000D03*
%TO.P,U3,5,VCC*%
%TO.N,+5V*%
X135750000Y-77100000D03*
%TO.P,U3,4,Y2*%
%TO.N,/BUFF_OUT-*%
X135750000Y-77600000D03*
%TO.P,U3,3,A2*%
%TO.N,GND*%
X135000000Y-77600000D03*
%TO.P,U3,2,GND*%
X135000000Y-77100000D03*
%TO.P,U3,1,A1*%
%TO.N,Net-(U3-A1)*%
X135000000Y-76600000D03*
%TD*%
%TO.P,U6,1,A1*%
%TO.N,/BUFF_OUT+*%
X137550000Y-76600000D03*
%TO.P,U6,2,GND*%
%TO.N,GND*%
X137550000Y-77100000D03*
%TO.P,U6,3,A2*%
%TO.N,/BUFF_OUT-*%
X137550000Y-77600000D03*
%TO.P,U6,4,Y2*%
%TO.N,GND*%
X138300000Y-77600000D03*
%TO.P,U6,5,VCC*%
%TO.N,+5V*%
X138300000Y-77100000D03*
%TO.P,U6,6,Y1*%
%TO.N,Net-(Q1-G)*%
X138300000Y-76600000D03*
%TD*%
%TO.P,U5,1,A1*%
%TO.N,/BUFF_OUT+*%
X137550000Y-74100000D03*
%TO.P,U5,2,GND*%
%TO.N,GND*%
X137550000Y-74600000D03*
%TO.P,U5,3,A2*%
%TO.N,/BUFF_OUT-*%
X137550000Y-75100000D03*
%TO.P,U5,4,Y2*%
%TO.N,GND*%
X138300000Y-75100000D03*
%TO.P,U5,5,VCC*%
%TO.N,+5V*%
X138300000Y-74600000D03*
%TO.P,U5,6,Y1*%
%TO.N,Net-(Q1-G)*%
X138300000Y-74100000D03*
%TD*%
D15*
%TO.P,Q5,1,G*%
%TO.N,Net-(Q5-G)*%
X137700000Y-98047000D03*
%TO.P,Q5,2,S*%
%TO.N,GND*%
X137700000Y-98554000D03*
D16*
%TO.P,Q5,3,D*%
X138100000Y-98300000D03*
%TO.P,Q5,4,S*%
X138500000Y-98300000D03*
%TO.P,Q5,5,D*%
X138900000Y-98300000D03*
%TD*%
D17*
%TO.P,U9,A1,V_{DD}*%
%TO.N,+5V*%
X136000000Y-97550000D03*
%TO.P,U9,A2,OUTH*%
%TO.N,Net-(Q5-G)*%
X136400000Y-97550000D03*
%TO.P,U9,B1,GND*%
%TO.N,GND*%
X136000000Y-97950000D03*
%TO.P,U9,B2,OUTL*%
%TO.N,Net-(Q5-G)*%
X136400000Y-97950000D03*
%TO.P,U9,C1,IN+*%
%TO.N,Net-(U8-OUT)*%
X136000000Y-98350000D03*
%TO.P,U9,C2,IN-*%
%TO.N,GND*%
X136400000Y-98350000D03*
%TD*%
D18*
%TO.P,R3,1*%
%TO.N,Net-(U2--IN)*%
X129000000Y-84825000D03*
%TO.P,R3,2*%
%TO.N,GND*%
X129000000Y-83175000D03*
%TD*%
D19*
%TO.P,R11,1*%
%TO.N,+5V*%
X132825000Y-112000000D03*
%TO.P,R11,2*%
%TO.N,Net-(U10--IN)*%
X131175000Y-112000000D03*
%TD*%
D20*
%TO.P,J6,1,Pin_1*%
%TO.N,GND*%
X111500000Y-96000000D03*
%TD*%
D21*
%TO.P,J2,1,In*%
%TO.N,/RF_IN_3*%
X123500000Y-97500000D03*
D22*
%TO.P,J2,2,Ext*%
%TO.N,GND*%
X123500000Y-94700000D03*
D23*
X123500000Y-100300000D03*
%TD*%
D19*
%TO.P,R2,1*%
%TO.N,+5V*%
X132825000Y-89500000D03*
%TO.P,R2,2*%
%TO.N,Net-(U2--IN)*%
X131175000Y-89500000D03*
%TD*%
D24*
%TO.P,Q1,1,G*%
%TO.N,Net-(Q1-G)*%
X139900000Y-76650000D03*
%TO.P,Q1,2,S*%
%TO.N,GND*%
X139900000Y-77100000D03*
%TO.P,Q1,3,D*%
X140350000Y-76650000D03*
%TO.P,Q1,4,D*%
X140350000Y-77100000D03*
%TO.P,Q1,5,D*%
X140800000Y-76650000D03*
%TO.P,Q1,6,D*%
X140800000Y-77100000D03*
%TD*%
D17*
%TO.P,U11,A1,V_{DD}*%
%TO.N,+5V*%
X135400000Y-109100000D03*
%TO.P,U11,A2,OUTH*%
%TO.N,Net-(Q3-G)*%
X135800000Y-109100000D03*
%TO.P,U11,B1,GND*%
%TO.N,GND*%
X135400000Y-109500000D03*
%TO.P,U11,B2,OUTL*%
%TO.N,Net-(Q3-G)*%
X135800000Y-109500000D03*
%TO.P,U11,C1,IN+*%
%TO.N,Net-(U10-OUT)*%
X135400000Y-109900000D03*
%TO.P,U11,C2,IN-*%
%TO.N,GND*%
X135800000Y-109900000D03*
%TD*%
D18*
%TO.P,R12,1*%
%TO.N,Net-(U10--IN)*%
X129000000Y-107000000D03*
%TO.P,R12,2*%
%TO.N,GND*%
X129000000Y-105350000D03*
%TD*%
D25*
%TO.P,R7,1*%
%TO.N,GND*%
X129300000Y-97225000D03*
%TO.P,R7,2*%
%TO.N,/RF_IN_3*%
X129300000Y-98875000D03*
%TD*%
D26*
%TO.P,U2,1,-IN*%
%TO.N,Net-(U2--IN)*%
X130862500Y-86050000D03*
%TO.P,U2,2,V-*%
%TO.N,GND*%
X130862500Y-87000000D03*
%TO.P,U2,3,+IN*%
%TO.N,/RF_IN_1*%
X130862500Y-87950000D03*
%TO.P,U2,4,V+*%
%TO.N,+5V*%
X133137500Y-87950000D03*
%TO.P,U2,5,OUT*%
%TO.N,Net-(U1-IN+)*%
X133137500Y-87000000D03*
%TO.P,U2,6,SHDN*%
%TO.N,GND*%
X133137500Y-86050000D03*
%TD*%
D20*
%TO.P,J5,1,Pin_1*%
%TO.N,+5V*%
X111500000Y-78500000D03*
%TD*%
D24*
%TO.P,Q3,1,G*%
%TO.N,Net-(Q3-G)*%
X137150000Y-109500000D03*
%TO.P,Q3,2,S*%
%TO.N,GND*%
X137150000Y-109950000D03*
%TO.P,Q3,3,D*%
X137600000Y-109500000D03*
%TO.P,Q3,4,D*%
X137600000Y-109950000D03*
%TO.P,Q3,5,D*%
X138050000Y-109500000D03*
%TO.P,Q3,6,D*%
X138050000Y-109950000D03*
%TD*%
D18*
%TO.P,R6,1*%
%TO.N,Net-(U4--IN)*%
X129000000Y-74325000D03*
%TO.P,R6,2*%
%TO.N,GND*%
X129000000Y-72675000D03*
%TD*%
D26*
%TO.P,U4,1,-IN*%
%TO.N,Net-(U4--IN)*%
X130862500Y-75550000D03*
%TO.P,U4,2,V-*%
%TO.N,GND*%
X130862500Y-76500000D03*
%TO.P,U4,3,+IN*%
%TO.N,/RF_IN_2*%
X130862500Y-77450000D03*
%TO.P,U4,4,V+*%
%TO.N,+5V*%
X133137500Y-77450000D03*
%TO.P,U4,5,OUT*%
%TO.N,Net-(U3-A1)*%
X133137500Y-76500000D03*
%TO.P,U4,6,SHDN*%
%TO.N,GND*%
X133137500Y-75550000D03*
%TD*%
D17*
%TO.P,U1,A1,V_{DD}*%
%TO.N,+5V*%
X135400000Y-86700000D03*
%TO.P,U1,A2,OUTH*%
%TO.N,Net-(Q2-G)*%
X135800000Y-86700000D03*
%TO.P,U1,B1,GND*%
%TO.N,GND*%
X135400000Y-87100000D03*
%TO.P,U1,B2,OUTL*%
%TO.N,Net-(Q2-G)*%
X135800000Y-87100000D03*
%TO.P,U1,C1,IN+*%
%TO.N,Net-(U1-IN+)*%
X135400000Y-87500000D03*
%TO.P,U1,C2,IN-*%
%TO.N,GND*%
X135800000Y-87500000D03*
%TD*%
D21*
%TO.P,J1,1,In*%
%TO.N,/RF_IN_1*%
X123500000Y-87300000D03*
D22*
%TO.P,J1,2,Ext*%
%TO.N,GND*%
X123500000Y-84500000D03*
D23*
X123500000Y-90100000D03*
%TD*%
D26*
%TO.P,U8,1,-IN*%
%TO.N,Net-(U8--IN)*%
X131225000Y-97050000D03*
%TO.P,U8,2,V-*%
%TO.N,GND*%
X131225000Y-98000000D03*
%TO.P,U8,3,+IN*%
%TO.N,/RF_IN_3*%
X131225000Y-98950000D03*
%TO.P,U8,4,V+*%
%TO.N,+5V*%
X133500000Y-98950000D03*
%TO.P,U8,5,OUT*%
%TO.N,Net-(U8-OUT)*%
X133500000Y-98000000D03*
%TO.P,U8,6,SHDN*%
%TO.N,GND*%
X133500000Y-97050000D03*
%TD*%
D24*
%TO.P,Q2,1,G*%
%TO.N,Net-(Q2-G)*%
X137100000Y-87050000D03*
%TO.P,Q2,2,S*%
%TO.N,GND*%
X137100000Y-87500000D03*
%TO.P,Q2,3,D*%
X137550000Y-87050000D03*
%TO.P,Q2,4,D*%
X137550000Y-87500000D03*
%TO.P,Q2,5,D*%
X138000000Y-87050000D03*
%TO.P,Q2,6,D*%
X138000000Y-87500000D03*
%TD*%
D21*
%TO.P,J3,1,In*%
%TO.N,/RF_IN_4*%
X123500000Y-108600000D03*
D22*
%TO.P,J3,2,Ext*%
%TO.N,GND*%
X123500000Y-105800000D03*
D23*
X123500000Y-111400000D03*
%TD*%
D26*
%TO.P,U10,1,-IN*%
%TO.N,Net-(U10--IN)*%
X130862500Y-108550000D03*
%TO.P,U10,2,V-*%
%TO.N,GND*%
X130862500Y-109500000D03*
%TO.P,U10,3,+IN*%
%TO.N,/RF_IN_4*%
X130862500Y-110450000D03*
%TO.P,U10,4,V+*%
%TO.N,+5V*%
X133137500Y-110450000D03*
%TO.P,U10,5,OUT*%
%TO.N,Net-(U10-OUT)*%
X133137500Y-109500000D03*
%TO.P,U10,6,SHDN*%
%TO.N,GND*%
X133137500Y-108550000D03*
%TD*%
D25*
%TO.P,R1,1*%
%TO.N,GND*%
X129000000Y-86175000D03*
%TO.P,R1,2*%
%TO.N,/RF_IN_1*%
X129000000Y-87825000D03*
%TD*%
D18*
%TO.P,R9,1*%
%TO.N,Net-(U8--IN)*%
X129300000Y-95875000D03*
%TO.P,R9,2*%
%TO.N,GND*%
X129300000Y-94225000D03*
%TD*%
D19*
%TO.P,R5,1*%
%TO.N,+5V*%
X132825000Y-79500000D03*
%TO.P,R5,2*%
%TO.N,Net-(U4--IN)*%
X131175000Y-79500000D03*
%TD*%
D25*
%TO.P,R4,1*%
%TO.N,GND*%
X129000000Y-75675000D03*
%TO.P,R4,2*%
%TO.N,/RF_IN_2*%
X129000000Y-77325000D03*
%TD*%
%TO.P,R10,1*%
%TO.N,GND*%
X129000000Y-108675000D03*
%TO.P,R10,2*%
%TO.N,/RF_IN_4*%
X129000000Y-110325000D03*
%TD*%
D21*
%TO.P,J4,1,In*%
%TO.N,/RF_IN_2*%
X123500000Y-76500000D03*
D22*
%TO.P,J4,2,Ext*%
%TO.N,GND*%
X123500000Y-73700000D03*
D23*
X123500000Y-79300000D03*
%TD*%
D19*
%TO.P,R8,1*%
%TO.N,+5V*%
X132825000Y-100500000D03*
%TO.P,R8,2*%
%TO.N,Net-(U8--IN)*%
X131175000Y-100500000D03*
%TD*%
D27*
%TO.N,GND*%
X113000000Y-87750000D03*
X115000000Y-87750000D03*
X117000000Y-87775000D03*
D28*
X129300000Y-97200000D03*
D29*
X138300000Y-80100000D03*
%TO.N,/BUFF_OUT-*%
X136832155Y-79017845D03*
X137550000Y-75100000D03*
%TO.N,/BUFF_OUT+*%
X136759500Y-76000000D03*
X135750000Y-76600000D03*
D27*
%TO.N,GND*%
X141550000Y-75400000D03*
X140800000Y-82100000D03*
X140800000Y-73100000D03*
X140800000Y-70050000D03*
X137750000Y-70100000D03*
D29*
%TO.N,/BUFF_OUT-*%
X136200500Y-77600000D03*
X137550000Y-77600000D03*
D28*
%TO.N,GND*%
X137300000Y-81350000D03*
X137300000Y-72850000D03*
%TO.N,+5V*%
X138400000Y-72850000D03*
X136000000Y-78950000D03*
%TO.N,GND*%
X134850000Y-78950000D03*
X134900000Y-75300000D03*
D29*
X138300000Y-75100000D03*
X137550000Y-74600000D03*
X135000000Y-77600000D03*
X135000000Y-77100000D03*
X138300000Y-77600000D03*
X137550000Y-77100000D03*
X137550000Y-79600000D03*
%TO.N,+5V*%
X138300000Y-74600000D03*
X138300000Y-77100000D03*
D28*
X136000000Y-75300000D03*
D29*
%TO.N,GND*%
X140700000Y-77475000D03*
X138900000Y-97600000D03*
X139900000Y-77475000D03*
D27*
X125800000Y-115100000D03*
X133700000Y-81300000D03*
D29*
X133500000Y-75400000D03*
D27*
X131800000Y-70100000D03*
X120500000Y-85500000D03*
X113800000Y-70100000D03*
X140800000Y-109100000D03*
D29*
X130400000Y-109600000D03*
D27*
X104800000Y-88100000D03*
X125400000Y-78300000D03*
X104800000Y-67100000D03*
X104800000Y-100100000D03*
X124300000Y-73600000D03*
D29*
X138200000Y-86600000D03*
D27*
X137250000Y-84450000D03*
X126500000Y-110500000D03*
X104800000Y-70100000D03*
X104800000Y-73100000D03*
X121700000Y-79400000D03*
X120500000Y-94600000D03*
X120600000Y-78300000D03*
D29*
X131600000Y-97800000D03*
D27*
X121600000Y-95700000D03*
X121600000Y-105700000D03*
X143800000Y-100100000D03*
D29*
X138500000Y-99000000D03*
D27*
X125400000Y-90300000D03*
D28*
X129000000Y-83175000D03*
D29*
X135000000Y-109400000D03*
D27*
X140800000Y-112100000D03*
X146800000Y-88100000D03*
X143800000Y-103100000D03*
D29*
X136700000Y-98500000D03*
D27*
X104800000Y-106100000D03*
X140800000Y-85100000D03*
D29*
X139300000Y-99000000D03*
D27*
X125300000Y-95700000D03*
X107800000Y-109100000D03*
X134800000Y-70100000D03*
D29*
X140300000Y-77475000D03*
D27*
X143800000Y-112100000D03*
X126500000Y-89200000D03*
X134800000Y-91700000D03*
D29*
X140700000Y-76275000D03*
D28*
X136862500Y-96500000D03*
D27*
X143800000Y-67100000D03*
X120500000Y-106800000D03*
X110800000Y-88100000D03*
X135000000Y-82600000D03*
X140800000Y-94100000D03*
D29*
X131300000Y-87200000D03*
D27*
X143800000Y-70100000D03*
X126400000Y-85500000D03*
X125400000Y-79400000D03*
X122800000Y-67100000D03*
X120600000Y-79400000D03*
D29*
X133100000Y-75700000D03*
D27*
X137800000Y-100100000D03*
D29*
X140300000Y-76275000D03*
D27*
X120600000Y-100400000D03*
D29*
X141100000Y-76675000D03*
D27*
X107800000Y-103100000D03*
X125400000Y-111600000D03*
X146800000Y-67100000D03*
X125400000Y-74700000D03*
D29*
X130800000Y-109600000D03*
D27*
X126500000Y-79400000D03*
X113800000Y-103100000D03*
X116800000Y-112100000D03*
D28*
X129000000Y-105350000D03*
D29*
X130900000Y-86800000D03*
D27*
X121700000Y-100400000D03*
D29*
X130500000Y-86800000D03*
X139300000Y-98100000D03*
D27*
X143800000Y-94100000D03*
D29*
X133500000Y-85800000D03*
X130800000Y-98100000D03*
D27*
X125400000Y-89200000D03*
X126500000Y-100400000D03*
X122700000Y-105700000D03*
X129000000Y-90400000D03*
X128800000Y-112100000D03*
X146800000Y-82100000D03*
D29*
X132700000Y-86200000D03*
X133500000Y-108400000D03*
D27*
X125800000Y-67100000D03*
X134800000Y-100100000D03*
D29*
X135600000Y-97900000D03*
D27*
X119800000Y-115100000D03*
X121700000Y-73600000D03*
D29*
X138400000Y-87000000D03*
D27*
X121700000Y-111600000D03*
X140800000Y-67100000D03*
X126400000Y-95700000D03*
X126500000Y-111600000D03*
X107800000Y-70100000D03*
X120500000Y-95700000D03*
X107800000Y-106100000D03*
X104800000Y-97100000D03*
D29*
X138600000Y-86600000D03*
D27*
X116800000Y-106100000D03*
X140800000Y-91100000D03*
X140800000Y-97100000D03*
X113800000Y-106100000D03*
X146800000Y-91100000D03*
X140800000Y-103100000D03*
D29*
X137400000Y-86600000D03*
D27*
X122800000Y-115100000D03*
X125400000Y-110500000D03*
D29*
X138100000Y-97600000D03*
D27*
X131800000Y-67100000D03*
X107800000Y-115100000D03*
X113800000Y-115100000D03*
X125400000Y-100400000D03*
D29*
X133500000Y-97200000D03*
D27*
X125300000Y-105700000D03*
D29*
X137800000Y-86600000D03*
X130900000Y-76600000D03*
X133500000Y-75700000D03*
X133100000Y-96900000D03*
X138000000Y-110300000D03*
D27*
X122700000Y-94600000D03*
X104800000Y-103100000D03*
X134800000Y-89500000D03*
D29*
X133500000Y-108700000D03*
D28*
X132900000Y-107000000D03*
D27*
X137800000Y-106900000D03*
D29*
X130500000Y-87200000D03*
D27*
X146800000Y-76100000D03*
X146800000Y-97100000D03*
D28*
X133000000Y-83500000D03*
D29*
X131200000Y-109600000D03*
D27*
X126500000Y-78300000D03*
X126400000Y-105700000D03*
X143800000Y-79100000D03*
X110800000Y-109100000D03*
X146800000Y-115100000D03*
X124200000Y-94600000D03*
D29*
X136100000Y-109900000D03*
X138600000Y-87900000D03*
D27*
X126500000Y-90300000D03*
D29*
X132700000Y-108700000D03*
X133100000Y-97200000D03*
D27*
X121700000Y-74700000D03*
X104800000Y-91100000D03*
X116800000Y-109100000D03*
D29*
X137200000Y-110300000D03*
D27*
X120500000Y-84400000D03*
X122700000Y-84400000D03*
X121700000Y-89200000D03*
X137800000Y-112100000D03*
X124300000Y-100400000D03*
X125400000Y-99300000D03*
D29*
X137000000Y-87900000D03*
X131600000Y-98100000D03*
X137800000Y-87900000D03*
D28*
X133400000Y-95500000D03*
D27*
X116800000Y-67100000D03*
D28*
X129000000Y-108675000D03*
D27*
X124200000Y-105700000D03*
X116800000Y-103100000D03*
D29*
X131300000Y-76600000D03*
X133100000Y-85800000D03*
D27*
X120600000Y-73600000D03*
D29*
X136000000Y-87800000D03*
D27*
X104800000Y-94100000D03*
X121600000Y-85500000D03*
X104800000Y-82100000D03*
D29*
X133900000Y-96900000D03*
D28*
X129300000Y-94200000D03*
D27*
X143800000Y-76250000D03*
X143800000Y-73100000D03*
X129300000Y-101600000D03*
D29*
X131300000Y-86800000D03*
D27*
X120600000Y-111600000D03*
D28*
X136000000Y-85500000D03*
D27*
X107800000Y-88100000D03*
X137800000Y-115100000D03*
D29*
X138900000Y-99000000D03*
D27*
X146800000Y-103100000D03*
D29*
X137400000Y-87900000D03*
X138500000Y-97600000D03*
D27*
X146800000Y-85100000D03*
X146800000Y-70100000D03*
X126400000Y-94600000D03*
D29*
X141100000Y-76275000D03*
X133100000Y-108700000D03*
X141100000Y-77475000D03*
X132700000Y-75400000D03*
D27*
X104800000Y-109100000D03*
D28*
X129000000Y-86175000D03*
D27*
X104800000Y-79100000D03*
D29*
X132700000Y-85800000D03*
X139300000Y-98500000D03*
D28*
X129000000Y-72700000D03*
D27*
X140800000Y-115100000D03*
D29*
X130500000Y-76600000D03*
X139500000Y-77475000D03*
X131200000Y-109300000D03*
D27*
X125300000Y-106800000D03*
X134800000Y-103100000D03*
X110800000Y-103100000D03*
D29*
X130800000Y-109300000D03*
D27*
X104800000Y-76100000D03*
X146800000Y-106100000D03*
X126500000Y-73600000D03*
X146800000Y-100100000D03*
X125300000Y-84400000D03*
X120600000Y-90300000D03*
D29*
X133500000Y-86200000D03*
X130500000Y-76300000D03*
X138400000Y-87500000D03*
X133100000Y-86200000D03*
D27*
X140800000Y-106100000D03*
X120500000Y-105700000D03*
D28*
X134200000Y-74000000D03*
D29*
X131200000Y-98100000D03*
D27*
X122800000Y-90300000D03*
X128800000Y-115100000D03*
X140800000Y-88100000D03*
X120600000Y-99300000D03*
X124200000Y-84400000D03*
X146800000Y-109100000D03*
X116800000Y-115100000D03*
X137800000Y-91100000D03*
D29*
X138100000Y-99000000D03*
X130400000Y-109300000D03*
X138000000Y-109100000D03*
D27*
X125300000Y-85500000D03*
D29*
X133100000Y-75400000D03*
D27*
X138400000Y-95250000D03*
X110800000Y-70100000D03*
X124300000Y-90300000D03*
X137800000Y-103100000D03*
X113800000Y-112100000D03*
X134800000Y-67100000D03*
X122800000Y-111600000D03*
X143800000Y-97100000D03*
D29*
X141100000Y-77075000D03*
D27*
X122800000Y-100400000D03*
X107800000Y-85100000D03*
X134800000Y-115100000D03*
X137800000Y-67100000D03*
X146800000Y-112100000D03*
X116800000Y-91100000D03*
X110800000Y-115100000D03*
D29*
X133100000Y-108400000D03*
D27*
X110800000Y-112100000D03*
X140800000Y-100100000D03*
X143800000Y-106100000D03*
X121600000Y-106800000D03*
X110800000Y-67100000D03*
X146800000Y-73100000D03*
D29*
X137600000Y-110300000D03*
D27*
X124300000Y-111600000D03*
X121600000Y-84400000D03*
X134800000Y-94100000D03*
X120600000Y-74700000D03*
X120600000Y-89200000D03*
X116800000Y-70100000D03*
X122800000Y-79400000D03*
D29*
X137600000Y-109100000D03*
D27*
X126400000Y-84400000D03*
D29*
X131300000Y-76300000D03*
D27*
X131800000Y-115100000D03*
D29*
X139300000Y-97600000D03*
D27*
X120600000Y-110500000D03*
D28*
X132900000Y-74000000D03*
D27*
X107800000Y-112100000D03*
D29*
X135050000Y-87050500D03*
X132700000Y-108400000D03*
D28*
X129000000Y-75675000D03*
D27*
X134800000Y-112100000D03*
X146800000Y-94100000D03*
X116800000Y-100100000D03*
X104800000Y-115100000D03*
D29*
X138400000Y-109900000D03*
D27*
X143800000Y-115100000D03*
X104800000Y-85100000D03*
X121600000Y-94600000D03*
D29*
X130900000Y-87200000D03*
D27*
X113800000Y-109100000D03*
X129000000Y-80200000D03*
X143800000Y-85100000D03*
X143800000Y-82100000D03*
X143800000Y-91100000D03*
D29*
X133500000Y-96900000D03*
X138400000Y-109100000D03*
D27*
X110800000Y-106100000D03*
D28*
X136762500Y-107900000D03*
D27*
X126500000Y-74700000D03*
D29*
X138400000Y-109500000D03*
D27*
X113800000Y-67100000D03*
X125300000Y-94600000D03*
X119800000Y-67100000D03*
X125400000Y-73600000D03*
X126500000Y-99300000D03*
X122800000Y-73600000D03*
D29*
X131200000Y-97800000D03*
D27*
X124300000Y-79400000D03*
D29*
X130900000Y-76300000D03*
D27*
X107800000Y-67100000D03*
X128800000Y-67100000D03*
D29*
X132700000Y-75700000D03*
D27*
X143800000Y-109100000D03*
D29*
X130800000Y-97800000D03*
D27*
X121700000Y-90300000D03*
D29*
X138200000Y-87900000D03*
D27*
X126400000Y-106800000D03*
X121700000Y-110500000D03*
D29*
X133900000Y-97200000D03*
X138400000Y-110300000D03*
D27*
X104800000Y-112100000D03*
X121700000Y-99300000D03*
X121700000Y-78300000D03*
X146800000Y-79100000D03*
X143800000Y-88100000D03*
%TO.N,Net-(Q1-G)*%
X140135804Y-75441517D03*
%TO.N,Net-(Q2-G)*%
X137200000Y-85800000D03*
%TO.N,Net-(Q3-G)*%
X138065154Y-108253000D03*
%TO.N,Net-(Q5-G)*%
X138400000Y-96500000D03*
%TD*%
D30*
%TO.N,/BUFF_OUT-*%
X137100000Y-80100000D02*
X137550000Y-80100000D01*
X136832155Y-79832155D02*
X137100000Y-80100000D01*
X136832155Y-79017845D02*
X136832155Y-79832155D01*
%TO.N,/BUFF_OUT+*%
X137040000Y-74100000D02*
X137550000Y-74100000D01*
X136759500Y-74380500D02*
X137040000Y-74100000D01*
X136759500Y-78309500D02*
X137550000Y-79100000D01*
X136759500Y-76000000D02*
X136759500Y-78309500D01*
X136759500Y-76000000D02*
X136759500Y-74380500D01*
X137359500Y-76600000D02*
X137550000Y-76600000D01*
X136759500Y-76000000D02*
X137359500Y-76600000D01*
%TO.N,Net-(U10-OUT)*%
X134500000Y-109900000D02*
X135400000Y-109900000D01*
D31*
%TO.N,+5V*%
X118250000Y-86800000D02*
X118250000Y-92000000D01*
X117000000Y-86000000D02*
X117450000Y-86000000D01*
X117450000Y-86000000D02*
X118250000Y-86800000D01*
D30*
%TO.N,Net-(Q3-G)*%
X137668154Y-108650000D02*
X137413603Y-108650000D01*
X138065154Y-108253000D02*
X137668154Y-108650000D01*
X137413603Y-108650000D02*
X137150000Y-108913603D01*
X137150000Y-108913603D02*
X137150000Y-109500000D01*
%TO.N,+5V*%
X138860000Y-80957500D02*
X138467500Y-81350000D01*
X138810000Y-79600000D02*
X138860000Y-79650000D01*
X138300000Y-79600000D02*
X138810000Y-79600000D01*
X138860000Y-79650000D02*
X138860000Y-80957500D01*
D32*
X138400000Y-72450000D02*
X138400000Y-72850000D01*
X138040000Y-72090000D02*
X138400000Y-72450000D01*
X133724265Y-72463604D02*
X134097869Y-72090000D01*
X134097869Y-72090000D02*
X138040000Y-72090000D01*
X136017500Y-74756839D02*
X136017500Y-75300000D01*
X133724265Y-72463604D02*
X136017500Y-74756839D01*
X130536396Y-72463604D02*
X133724265Y-72463604D01*
D30*
X136310000Y-75592500D02*
X136017500Y-75300000D01*
X136310000Y-77050000D02*
X136310000Y-75592500D01*
X135800000Y-77050000D02*
X136310000Y-77050000D01*
X135750000Y-77100000D02*
X135800000Y-77050000D01*
%TO.N,Net-(Q1-G)*%
X139785000Y-75792321D02*
X140135804Y-75441517D01*
X139785000Y-76535000D02*
X139785000Y-75792321D01*
X139900000Y-76650000D02*
X139785000Y-76535000D01*
%TO.N,/BUFF_OUT-*%
X135750000Y-77600000D02*
X136200500Y-77600000D01*
D32*
%TO.N,+5V*%
X136660000Y-82110000D02*
X137890000Y-82110000D01*
X137890000Y-82110000D02*
X138467500Y-81532500D01*
X134700000Y-79710000D02*
X134700000Y-80150000D01*
X134700000Y-80150000D02*
X136660000Y-82110000D01*
X138467500Y-81532500D02*
X138467500Y-81350000D01*
X134700000Y-79710000D02*
X133035000Y-79710000D01*
X135295599Y-79710000D02*
X134700000Y-79710000D01*
D30*
%TO.N,Net-(Q1-G)*%
X139050000Y-77000000D02*
X139450000Y-76600000D01*
X138750000Y-79100000D02*
X139050000Y-78800000D01*
X138300000Y-79100000D02*
X138750000Y-79100000D01*
X139050000Y-78800000D02*
X139050000Y-77000000D01*
X139150000Y-74440000D02*
X139150000Y-76300000D01*
X139150000Y-76300000D02*
X139450000Y-76600000D01*
X138810000Y-74100000D02*
X139150000Y-74440000D01*
X138300000Y-74100000D02*
X138810000Y-74100000D01*
X139450000Y-76600000D02*
X139850000Y-76600000D01*
X138300000Y-76600000D02*
X139450000Y-76600000D01*
X139850000Y-76600000D02*
X139900000Y-76650000D01*
D32*
%TO.N,+5V*%
X133035000Y-79710000D02*
X132825000Y-79500000D01*
X135967500Y-79038099D02*
X135295599Y-79710000D01*
X135967500Y-78950000D02*
X135967500Y-79038099D01*
D30*
%TO.N,Net-(U3-A1)*%
X134900000Y-76500000D02*
X135000000Y-76600000D01*
X133137500Y-76500000D02*
X134900000Y-76500000D01*
%TO.N,GND*%
X135099500Y-87100000D02*
X135400000Y-87100000D01*
X135050000Y-87050500D02*
X135099500Y-87100000D01*
D31*
%TO.N,+5V*%
X117000000Y-85290000D02*
X118895000Y-83395000D01*
X120990000Y-70500000D02*
X128572792Y-70500000D01*
D33*
X111500000Y-84510000D02*
X112990000Y-86000000D01*
D32*
X133137500Y-87950000D02*
X133137500Y-89187500D01*
D31*
X132825000Y-101675000D02*
X132825000Y-101050000D01*
D32*
X133137500Y-77450000D02*
X133137500Y-79187500D01*
D31*
X120290000Y-82000000D02*
X129675000Y-82000000D01*
X131587500Y-94087500D02*
X131587500Y-95500000D01*
D33*
X111500000Y-78500000D02*
X109500000Y-80500000D01*
D31*
X129837500Y-82162500D02*
X130260292Y-82162500D01*
X118000000Y-73490000D02*
X120990000Y-70500000D01*
X129500000Y-92000000D02*
X130922792Y-92000000D01*
X118000000Y-82500000D02*
X118000000Y-73490000D01*
D34*
X131587500Y-94087500D02*
X133318350Y-94087500D01*
D30*
X133137500Y-110450000D02*
X132750000Y-110450000D01*
D31*
X135302500Y-106302500D02*
X135302500Y-107900000D01*
X130922792Y-92000000D02*
X132825000Y-90097792D01*
X117000000Y-86000000D02*
X117000000Y-85290000D01*
X130500000Y-105000000D02*
X131087500Y-105587500D01*
X118250000Y-92000000D02*
X129500000Y-92000000D01*
X134000000Y-105000000D02*
X135302500Y-106302500D01*
D32*
X133137500Y-79187500D02*
X132825000Y-79500000D01*
D34*
X132825000Y-110762500D02*
X133137500Y-110450000D01*
D30*
X135402500Y-96500000D02*
X135402500Y-96952500D01*
D31*
X132736675Y-85050000D02*
X134352500Y-85050000D01*
X131087500Y-105587500D02*
X131087500Y-107000000D01*
D30*
X134802500Y-86102500D02*
X135400000Y-86700000D01*
D31*
X130000000Y-104500000D02*
X132825000Y-101675000D01*
D33*
X109500000Y-80500000D02*
X109500000Y-82000000D01*
D30*
X135402500Y-96952500D02*
X135975000Y-97525000D01*
D31*
X118895000Y-83395000D02*
X120290000Y-82000000D01*
D30*
X134802500Y-85500000D02*
X134802500Y-86102500D01*
D31*
X129500000Y-92000000D02*
X131587500Y-94087500D01*
D32*
X133137500Y-89187500D02*
X132825000Y-89500000D01*
D31*
X132825000Y-79597792D02*
X132825000Y-79500000D01*
D30*
X132200000Y-108112500D02*
X131087500Y-107000000D01*
X132750000Y-110450000D02*
X132200000Y-109900000D01*
D31*
X129837500Y-82162500D02*
X131175000Y-83500000D01*
D34*
X133318350Y-94087500D02*
X135402500Y-96171650D01*
D31*
X112990000Y-79990000D02*
X111500000Y-78500000D01*
X134352500Y-85050000D02*
X134802500Y-85500000D01*
X118250000Y-92000000D02*
X118250000Y-100760000D01*
X129675000Y-82000000D02*
X129837500Y-82162500D01*
X132825000Y-90097792D02*
X132825000Y-89500000D01*
X130500000Y-105000000D02*
X134000000Y-105000000D01*
X130536396Y-72463604D02*
X131087500Y-73014708D01*
D32*
X132825000Y-99625000D02*
X133500000Y-98950000D01*
D30*
X135400000Y-109100000D02*
X135400000Y-107997500D01*
D33*
X117000000Y-86000000D02*
X112990000Y-86000000D01*
D31*
X120490000Y-103000000D02*
X128500000Y-103000000D01*
D30*
X132200000Y-109900000D02*
X132200000Y-108112500D01*
D31*
X130000000Y-104500000D02*
X130500000Y-105000000D01*
X128572792Y-70500000D02*
X130536396Y-72463604D01*
X130260292Y-82162500D02*
X132825000Y-79597792D01*
X128500000Y-103000000D02*
X130000000Y-104500000D01*
D30*
X135400000Y-107997500D02*
X135302500Y-107900000D01*
D31*
X118895000Y-83395000D02*
X118000000Y-82500000D01*
X131175000Y-83500000D02*
X131186675Y-83500000D01*
D32*
X132825000Y-100500000D02*
X132825000Y-99625000D01*
D31*
X131087500Y-73014708D02*
X131087500Y-74000000D01*
X131186675Y-83500000D02*
X132736675Y-85050000D01*
X118250000Y-100760000D02*
X120490000Y-103000000D01*
D34*
X135402500Y-96171650D02*
X135402500Y-96500000D01*
D33*
X111500000Y-78500000D02*
X111500000Y-84510000D01*
D34*
X132825000Y-112000000D02*
X132825000Y-110762500D01*
D30*
%TO.N,GND*%
X135650000Y-97950000D02*
X135600000Y-97900000D01*
X136000000Y-97950000D02*
X135650000Y-97950000D01*
X135100000Y-109500000D02*
X135400000Y-109500000D01*
X135000000Y-109400000D02*
X135100000Y-109500000D01*
X135800000Y-109900000D02*
X135850000Y-109950000D01*
X135850000Y-109950000D02*
X137150000Y-109950000D01*
D34*
%TO.N,/RF_IN_1*%
X128475000Y-87300000D02*
X129000000Y-87825000D01*
X129000000Y-87825000D02*
X130737500Y-87825000D01*
X130737500Y-87825000D02*
X130862500Y-87950000D01*
X123500000Y-87300000D02*
X128475000Y-87300000D01*
%TO.N,/RF_IN_3*%
X129300000Y-98875000D02*
X131150000Y-98875000D01*
X127925000Y-97500000D02*
X129300000Y-98875000D01*
X123500000Y-97500000D02*
X127925000Y-97500000D01*
X131150000Y-98875000D02*
X131225000Y-98950000D01*
%TO.N,/RF_IN_4*%
X130737500Y-110325000D02*
X130862500Y-110450000D01*
X129000000Y-110325000D02*
X130737500Y-110325000D01*
X123500000Y-108600000D02*
X127275000Y-108600000D01*
X127275000Y-108600000D02*
X129000000Y-110325000D01*
%TO.N,/RF_IN_2*%
X130737500Y-77325000D02*
X130862500Y-77450000D01*
X123500000Y-76500000D02*
X128175000Y-76500000D01*
X128175000Y-76500000D02*
X129000000Y-77325000D01*
X129000000Y-77325000D02*
X130737500Y-77325000D01*
%TO.N,Net-(U2--IN)*%
X131875000Y-86575000D02*
X131350000Y-86050000D01*
X129000000Y-84825000D02*
X129637500Y-84825000D01*
X129637500Y-84825000D02*
X130862500Y-86050000D01*
X131350000Y-86050000D02*
X130862500Y-86050000D01*
X131875000Y-88800000D02*
X131875000Y-86575000D01*
X131175000Y-89500000D02*
X131875000Y-88800000D01*
D30*
%TO.N,Net-(U4--IN)*%
X130862500Y-75550000D02*
X131450000Y-75550000D01*
X131825000Y-78850000D02*
X131175000Y-79500000D01*
D34*
X129637500Y-74325000D02*
X130862500Y-75550000D01*
X129000000Y-74325000D02*
X129637500Y-74325000D01*
D30*
X131825000Y-75925000D02*
X131825000Y-78850000D01*
X131450000Y-75550000D02*
X131825000Y-75925000D01*
D34*
%TO.N,Net-(U8--IN)*%
X132237500Y-99437500D02*
X132237500Y-97642893D01*
X132237500Y-97642893D02*
X131644607Y-97050000D01*
X129300000Y-95875000D02*
X130050000Y-95875000D01*
X130050000Y-95875000D02*
X131225000Y-97050000D01*
X131644607Y-97050000D02*
X131225000Y-97050000D01*
X131175000Y-100500000D02*
X132237500Y-99437500D01*
D30*
%TO.N,Net-(U10--IN)*%
X130862500Y-108550000D02*
X131144975Y-108550000D01*
X131800000Y-109230026D02*
X131800000Y-111425000D01*
D34*
X129312500Y-107000000D02*
X130862500Y-108550000D01*
X131282107Y-108550000D02*
X130862500Y-108550000D01*
D30*
X131144975Y-108550000D02*
X131800000Y-109205025D01*
D34*
X129000000Y-107000000D02*
X129312500Y-107000000D01*
D30*
X131800000Y-111450000D02*
X131250000Y-112000000D01*
%TO.N,Net-(U1-IN+)*%
X135400000Y-87500000D02*
X133986396Y-87500000D01*
X133986396Y-87500000D02*
X133486396Y-87000000D01*
X133486396Y-87000000D02*
X133137500Y-87000000D01*
%TO.N,Net-(U8-OUT)*%
X134700000Y-98000000D02*
X133500000Y-98000000D01*
X135050000Y-98350000D02*
X134700000Y-98000000D01*
X136000000Y-98350000D02*
X135050000Y-98350000D01*
%TO.N,Net-(U10-OUT)*%
X133537500Y-109900000D02*
X134500000Y-109900000D01*
X133137500Y-109500000D02*
X133537500Y-109900000D01*
%TO.N,Net-(Q2-G)*%
X136000000Y-86900000D02*
X136200000Y-87100000D01*
X137100000Y-87050000D02*
X136950000Y-86900000D01*
X135800000Y-87100000D02*
X135800000Y-86700000D01*
X136200000Y-87100000D02*
X137050000Y-87100000D01*
X135800000Y-86700000D02*
X136000000Y-86900000D01*
X135800000Y-87100000D02*
X136000000Y-86900000D01*
X136950000Y-86050000D02*
X137200000Y-85800000D01*
X136950000Y-86900000D02*
X136950000Y-86050000D01*
X135800000Y-87100000D02*
X136200000Y-87100000D01*
X137050000Y-87100000D02*
X137100000Y-87050000D01*
%TO.N,Net-(Q3-G)*%
X136000000Y-109500000D02*
X137150000Y-109500000D01*
X135800000Y-109300000D02*
X136000000Y-109500000D01*
X135800000Y-109500000D02*
X136000000Y-109500000D01*
X135800000Y-109500000D02*
X135800000Y-109100000D01*
X135800000Y-109100000D02*
X135800000Y-109300000D01*
%TO.N,Net-(Q5-G)*%
X137700000Y-98047000D02*
X137650000Y-97997000D01*
X136400000Y-97950000D02*
X136600000Y-97950000D01*
X137603000Y-97950000D02*
X137700000Y-98047000D01*
X136600000Y-97950000D02*
X137603000Y-97950000D01*
X136400000Y-97750000D02*
X136600000Y-97950000D01*
X137650000Y-97250000D02*
X138400000Y-96500000D01*
X137650000Y-97997000D02*
X137650000Y-97250000D01*
X136400000Y-97550000D02*
X136400000Y-97750000D01*
%TD*%
%TA.AperFunction,Conductor*%
%TO.N,GND*%
G36*
X133684353Y-105820502D02*
G01*
X133705327Y-105837405D01*
X134465095Y-106597173D01*
X134499121Y-106659485D01*
X134502000Y-106686268D01*
X134502000Y-107103306D01*
X134481998Y-107171427D01*
X134452134Y-107203703D01*
X134353500Y-107278499D01*
X134264139Y-107396340D01*
X134264137Y-107396343D01*
X134209882Y-107533922D01*
X134199500Y-107620379D01*
X134199500Y-108179620D01*
X134209882Y-108266077D01*
X134264137Y-108403656D01*
X134264139Y-108403659D01*
X134353499Y-108521500D01*
X134423162Y-108574326D01*
X134471342Y-108610862D01*
X134496391Y-108620740D01*
X134608922Y-108665117D01*
X134608921Y-108665117D01*
X134632520Y-108667950D01*
X134695382Y-108675500D01*
X134873500Y-108675500D01*
X134941621Y-108695502D01*
X134988114Y-108749158D01*
X134999500Y-108801500D01*
X134999500Y-109131519D01*
X135014354Y-109225304D01*
X135014354Y-109225305D01*
X135014355Y-109225307D01*
X135060717Y-109316298D01*
X135073821Y-109386074D01*
X135047121Y-109451859D01*
X134989093Y-109492765D01*
X134948450Y-109499500D01*
X134026500Y-109499500D01*
X133958379Y-109479498D01*
X133911886Y-109425842D01*
X133900500Y-109373500D01*
X133900500Y-109325325D01*
X133900499Y-109325322D01*
X133885966Y-109252260D01*
X133867955Y-109225304D01*
X133830601Y-109169399D01*
X133773903Y-109131515D01*
X133747739Y-109114033D01*
X133674677Y-109099500D01*
X133674674Y-109099500D01*
X132726500Y-109099500D01*
X132658379Y-109079498D01*
X132611886Y-109025842D01*
X132600500Y-108973500D01*
X132600500Y-108049067D01*
X132600499Y-108049067D01*
X132593701Y-108028142D01*
X132589088Y-108008925D01*
X132585646Y-107987197D01*
X132585645Y-107987194D01*
X132575660Y-107967598D01*
X132568092Y-107949326D01*
X132567244Y-107946717D01*
X132561297Y-107928411D01*
X132548360Y-107910606D01*
X132538030Y-107893746D01*
X132528050Y-107874158D01*
X132507419Y-107853527D01*
X132507402Y-107853508D01*
X132012405Y-107358511D01*
X131978379Y-107296199D01*
X131975500Y-107269416D01*
X131975500Y-106720385D01*
X131975500Y-106720382D01*
X131965117Y-106633923D01*
X131910862Y-106496342D01*
X131910860Y-106496339D01*
X131906637Y-106488828D01*
X131908892Y-106487559D01*
X131888380Y-106433607D01*
X131888000Y-106423847D01*
X131888000Y-105926500D01*
X131908002Y-105858379D01*
X131961658Y-105811886D01*
X132014000Y-105800500D01*
X133616232Y-105800500D01*
X133684353Y-105820502D01*
G37*
%TD.AperFunction*%
%TA.AperFunction,Conductor*%
G36*
X129184353Y-92820502D02*
G01*
X129205327Y-92837405D01*
X130750096Y-94382174D01*
X130784120Y-94444484D01*
X130787000Y-94471267D01*
X130787000Y-95544955D01*
X130799103Y-95652377D01*
X130799499Y-95659436D01*
X130799499Y-95683204D01*
X130779497Y-95751325D01*
X130725841Y-95797818D01*
X130655567Y-95807922D01*
X130590987Y-95778428D01*
X130584404Y-95772300D01*
X130388947Y-95576844D01*
X130384235Y-95571572D01*
X130381001Y-95567517D01*
X130359879Y-95541030D01*
X130310728Y-95507519D01*
X130262879Y-95472204D01*
X130255330Y-95468214D01*
X130247674Y-95464528D01*
X130190822Y-95446992D01*
X130134696Y-95427353D01*
X130126320Y-95425767D01*
X130117905Y-95424500D01*
X130117902Y-95424500D01*
X130075752Y-95424500D01*
X130007631Y-95404498D01*
X129974885Y-95374010D01*
X129932549Y-95317457D01*
X129932547Y-95317455D01*
X129932546Y-95317454D01*
X129817331Y-95231204D01*
X129817327Y-95231202D01*
X129817325Y-95231201D01*
X129817326Y-95231201D01*
X129682483Y-95180909D01*
X129682486Y-95180909D01*
X129622873Y-95174500D01*
X128977135Y-95174500D01*
X128977114Y-95174502D01*
X128917519Y-95180908D01*
X128917518Y-95180908D01*
X128782673Y-95231201D01*
X128782670Y-95231203D01*
X128667453Y-95317453D01*
X128581203Y-95432670D01*
X128581201Y-95432673D01*
X128530909Y-95567515D01*
X128524500Y-95627121D01*
X128524500Y-96122864D01*
X128524502Y-96122885D01*
X128530908Y-96182480D01*
X128530908Y-96182481D01*
X128581201Y-96317326D01*
X128581203Y-96317329D01*
X128581204Y-96317331D01*
X128583760Y-96320745D01*
X128667453Y-96432546D01*
X128693728Y-96452215D01*
X128782669Y-96518796D01*
X128782671Y-96518796D01*
X128782673Y-96518798D01*
X128843030Y-96541309D01*
X128917514Y-96569090D01*
X128917517Y-96569091D01*
X128977127Y-96575500D01*
X129622872Y-96575499D01*
X129682483Y-96569091D01*
X129817331Y-96518796D01*
X129866818Y-96481749D01*
X129933335Y-96456940D01*
X130002710Y-96472031D01*
X130031420Y-96493524D01*
X130231991Y-96694095D01*
X130266017Y-96756407D01*
X130265995Y-96810070D01*
X130264855Y-96815289D01*
X130262000Y-96845733D01*
X130262000Y-97254266D01*
X130264854Y-97284700D01*
X130264855Y-97284704D01*
X130309706Y-97412881D01*
X130309708Y-97412885D01*
X130390349Y-97522150D01*
X130499614Y-97602791D01*
X130499618Y-97602793D01*
X130532657Y-97614354D01*
X130627801Y-97647646D01*
X130658234Y-97650500D01*
X131555812Y-97650500D01*
X131623933Y-97670502D01*
X131644907Y-97687404D01*
X131750095Y-97792591D01*
X131784120Y-97854903D01*
X131787000Y-97881687D01*
X131787000Y-98223500D01*
X131766998Y-98291621D01*
X131713342Y-98338114D01*
X131661000Y-98349500D01*
X130658233Y-98349500D01*
X130627799Y-98352354D01*
X130627795Y-98352355D01*
X130499618Y-98397206D01*
X130499614Y-98397208D01*
X130495996Y-98399879D01*
X130491350Y-98401575D01*
X130491267Y-98401620D01*
X130491260Y-98401608D01*
X130429309Y-98424237D01*
X130421175Y-98424500D01*
X130075752Y-98424500D01*
X130007631Y-98404498D01*
X129974885Y-98374010D01*
X129932549Y-98317457D01*
X129932547Y-98317455D01*
X129932546Y-98317454D01*
X129817331Y-98231204D01*
X129817327Y-98231202D01*
X129817325Y-98231201D01*
X129817326Y-98231201D01*
X129682483Y-98180909D01*
X129682486Y-98180909D01*
X129622878Y-98174500D01*
X129622873Y-98174500D01*
X129288793Y-98174500D01*
X129220672Y-98154498D01*
X129199698Y-98137595D01*
X128732605Y-97670502D01*
X128263942Y-97201839D01*
X128259239Y-97196576D01*
X128234880Y-97166031D01*
X128234881Y-97166031D01*
X128185728Y-97132519D01*
X128137879Y-97097204D01*
X128130330Y-97093214D01*
X128122674Y-97089528D01*
X128065822Y-97071992D01*
X128048440Y-97065910D01*
X128009699Y-97052354D01*
X128009698Y-97052353D01*
X128009696Y-97052353D01*
X128001320Y-97050767D01*
X127992905Y-97049500D01*
X127992902Y-97049500D01*
X127933426Y-97049500D01*
X127873990Y-97047276D01*
X127873989Y-97047276D01*
X127864610Y-97048333D01*
X127864512Y-97047471D01*
X127849103Y-97049500D01*
X124655690Y-97049500D01*
X124587569Y-97029498D01*
X124542899Y-96979663D01*
X124531261Y-96956290D01*
X124495173Y-96883815D01*
X124416489Y-96779620D01*
X124365006Y-96711445D01*
X124205382Y-96565927D01*
X124021734Y-96452218D01*
X124021727Y-96452215D01*
X123820327Y-96374191D01*
X123782491Y-96367118D01*
X123607999Y-96334500D01*
X123392001Y-96334500D01*
X123255030Y-96360104D01*
X123179672Y-96374191D01*
X122978272Y-96452215D01*
X122978265Y-96452218D01*
X122794617Y-96565927D01*
X122634993Y-96711445D01*
X122504828Y-96883813D01*
X122408545Y-97077174D01*
X122349437Y-97284918D01*
X122329507Y-97500000D01*
X122349437Y-97715081D01*
X122408545Y-97922825D01*
X122408548Y-97922831D01*
X122504827Y-98116185D01*
X122520995Y-98137595D01*
X122634993Y-98288554D01*
X122794617Y-98434072D01*
X122794619Y-98434073D01*
X122794620Y-98434074D01*
X122978266Y-98547782D01*
X123029014Y-98567442D01*
X123179672Y-98625808D01*
X123179675Y-98625808D01*
X123179679Y-98625810D01*
X123392001Y-98665500D01*
X123392004Y-98665500D01*
X123607996Y-98665500D01*
X123607999Y-98665500D01*
X123820321Y-98625810D01*
X123820325Y-98625808D01*
X123820327Y-98625808D01*
X123883379Y-98601380D01*
X124021734Y-98547782D01*
X124205380Y-98434074D01*
X124365005Y-98288556D01*
X124495173Y-98116185D01*
X124542899Y-98020335D01*
X124591169Y-97968273D01*
X124655690Y-97950500D01*
X127686205Y-97950500D01*
X127754326Y-97970502D01*
X127775300Y-97987404D01*
X128487595Y-98699698D01*
X128521620Y-98762011D01*
X128524500Y-98788794D01*
X128524500Y-99122864D01*
X128524502Y-99122885D01*
X128530908Y-99182480D01*
X128530908Y-99182481D01*
X128581201Y-99317326D01*
X128581203Y-99317329D01*
X128581204Y-99317331D01*
X128593266Y-99333444D01*
X128667453Y-99432546D01*
X128725061Y-99475671D01*
X128782669Y-99518796D01*
X128782671Y-99518796D01*
X128782673Y-99518798D01*
X128843030Y-99541309D01*
X128917514Y-99569090D01*
X128917517Y-99569091D01*
X128977127Y-99575500D01*
X129622872Y-99575499D01*
X129682483Y-99569091D01*
X129817331Y-99518796D01*
X129932546Y-99432546D01*
X129932549Y-99432542D01*
X129974885Y-99375990D01*
X130031721Y-99333444D01*
X130075752Y-99325500D01*
X130255412Y-99325500D01*
X130323533Y-99345502D01*
X130356792Y-99376680D01*
X130390347Y-99422147D01*
X130390348Y-99422148D01*
X130390349Y-99422148D01*
X130390350Y-99422150D01*
X130499618Y-99502793D01*
X130627801Y-99547646D01*
X130658234Y-99550500D01*
X130662285Y-99550500D01*
X130730406Y-99570502D01*
X130776899Y-99624158D01*
X130787003Y-99694432D01*
X130757509Y-99759012D01*
X130737794Y-99777368D01*
X130732670Y-99781203D01*
X130732669Y-99781204D01*
X130707925Y-99799726D01*
X130617453Y-99867453D01*
X130531203Y-99982670D01*
X130531201Y-99982673D01*
X130480909Y-100117515D01*
X130474500Y-100177121D01*
X130474500Y-100822864D01*
X130474502Y-100822885D01*
X130480908Y-100882480D01*
X130480908Y-100882481D01*
X130531201Y-101017326D01*
X130531203Y-101017329D01*
X130531204Y-101017331D01*
X130552368Y-101045602D01*
X130617453Y-101132546D01*
X130675061Y-101175671D01*
X130732669Y-101218796D01*
X130732671Y-101218796D01*
X130732673Y-101218798D01*
X130793030Y-101241309D01*
X130867514Y-101269090D01*
X130867517Y-101269091D01*
X130927127Y-101275500D01*
X131422872Y-101275499D01*
X131482483Y-101269091D01*
X131617331Y-101218796D01*
X131732546Y-101132546D01*
X131797632Y-101045601D01*
X131854468Y-101003055D01*
X131925284Y-100997991D01*
X131987596Y-101032016D01*
X132021621Y-101094328D01*
X132024500Y-101121111D01*
X132024500Y-101291232D01*
X132004498Y-101359353D01*
X131987595Y-101380327D01*
X130089095Y-103278827D01*
X130026783Y-103312853D01*
X129955968Y-103307788D01*
X129910905Y-103278827D01*
X129910904Y-103278827D01*
X129034252Y-102402174D01*
X129002262Y-102370184D01*
X129002261Y-102370183D01*
X128990122Y-102362555D01*
X128966948Y-102347994D01*
X128961191Y-102343909D01*
X128928590Y-102317911D01*
X128928588Y-102317910D01*
X128928587Y-102317909D01*
X128891020Y-102299817D01*
X128884833Y-102296398D01*
X128849522Y-102274210D01*
X128849519Y-102274209D01*
X128810162Y-102260437D01*
X128803632Y-102257732D01*
X128766065Y-102239642D01*
X128766061Y-102239640D01*
X128766058Y-102239639D01*
X128766055Y-102239638D01*
X128725399Y-102230357D01*
X128718608Y-102228401D01*
X128679259Y-102214633D01*
X128679257Y-102214632D01*
X128679255Y-102214632D01*
X128637802Y-102209960D01*
X128630865Y-102208782D01*
X128590194Y-102199500D01*
X120873768Y-102199500D01*
X120805647Y-102179498D01*
X120784673Y-102162595D01*
X119087405Y-100465327D01*
X119053379Y-100403015D01*
X119050500Y-100376232D01*
X119050500Y-92926500D01*
X119070502Y-92858379D01*
X119124158Y-92811886D01*
X119176500Y-92800500D01*
X129116232Y-92800500D01*
X129184353Y-92820502D01*
G37*
%TD.AperFunction*%
%TA.AperFunction,Conductor*%
G36*
X133147677Y-94558002D02*
G01*
X133168651Y-94574905D01*
X134383897Y-95790151D01*
X134417923Y-95852463D01*
X134412858Y-95923278D01*
X134395201Y-95955378D01*
X134364139Y-95996340D01*
X134364137Y-95996343D01*
X134309882Y-96133922D01*
X134299500Y-96220379D01*
X134299500Y-96779620D01*
X134309882Y-96866077D01*
X134364137Y-97003656D01*
X134364139Y-97003659D01*
X134453499Y-97121500D01*
X134509405Y-97163894D01*
X134571342Y-97210862D01*
X134640132Y-97237989D01*
X134708922Y-97265117D01*
X134708921Y-97265117D01*
X134732520Y-97267950D01*
X134795382Y-97275500D01*
X135106916Y-97275500D01*
X135175037Y-97295502D01*
X135196011Y-97312404D01*
X135433107Y-97549500D01*
X135618012Y-97734404D01*
X135652037Y-97796717D01*
X135646973Y-97867532D01*
X135604426Y-97924368D01*
X135537906Y-97949179D01*
X135528917Y-97949500D01*
X135268083Y-97949500D01*
X135199962Y-97929498D01*
X135178992Y-97912599D01*
X134960909Y-97694516D01*
X134960908Y-97694515D01*
X134959348Y-97692955D01*
X134959334Y-97692942D01*
X134938342Y-97671950D01*
X134938341Y-97671949D01*
X134938340Y-97671948D01*
X134918738Y-97661960D01*
X134901883Y-97651631D01*
X134884091Y-97638704D01*
X134884089Y-97638703D01*
X134863169Y-97631906D01*
X134844906Y-97624341D01*
X134825306Y-97614355D01*
X134825305Y-97614354D01*
X134825304Y-97614354D01*
X134825302Y-97614353D01*
X134825300Y-97614353D01*
X134803577Y-97610912D01*
X134784358Y-97606298D01*
X134763434Y-97599500D01*
X134763433Y-97599500D01*
X134731519Y-97599500D01*
X134451138Y-97599500D01*
X134383017Y-97579498D01*
X134349759Y-97548322D01*
X134335866Y-97529498D01*
X134334650Y-97527850D01*
X134334648Y-97527849D01*
X134334648Y-97527848D01*
X134225385Y-97447208D01*
X134225381Y-97447206D01*
X134097204Y-97402355D01*
X134097200Y-97402354D01*
X134066766Y-97399500D01*
X132933234Y-97399500D01*
X132933233Y-97399500D01*
X132902800Y-97402354D01*
X132768500Y-97449347D01*
X132697596Y-97452965D01*
X132635991Y-97417676D01*
X132619478Y-97393892D01*
X132619244Y-97394052D01*
X132609133Y-97379222D01*
X132604063Y-97372352D01*
X132562016Y-97330306D01*
X132521554Y-97286697D01*
X132514174Y-97280812D01*
X132514713Y-97280135D01*
X132502384Y-97270674D01*
X132224901Y-96993191D01*
X132190879Y-96930883D01*
X132188000Y-96904107D01*
X132188000Y-96845734D01*
X132185146Y-96815301D01*
X132147837Y-96708679D01*
X132140293Y-96687118D01*
X132140291Y-96687114D01*
X132059650Y-96577849D01*
X131951668Y-96498155D01*
X131908735Y-96441610D01*
X131903189Y-96370831D01*
X131936790Y-96308288D01*
X131998869Y-96273840D01*
X132011463Y-96271675D01*
X132066077Y-96265117D01*
X132203658Y-96210862D01*
X132321500Y-96121500D01*
X132410862Y-96003658D01*
X132465117Y-95866077D01*
X132475500Y-95779618D01*
X132475500Y-95220382D01*
X132465117Y-95133923D01*
X132410862Y-94996342D01*
X132410860Y-94996339D01*
X132406637Y-94988828D01*
X132408889Y-94987561D01*
X132388379Y-94933582D01*
X132388000Y-94923822D01*
X132388000Y-94664000D01*
X132408002Y-94595879D01*
X132461658Y-94549386D01*
X132514000Y-94538000D01*
X133079556Y-94538000D01*
X133147677Y-94558002D01*
G37*
%TD.AperFunction*%
%TA.AperFunction,Conductor*%
G36*
X129359353Y-82820502D02*
G01*
X129380327Y-82837405D01*
X130371304Y-83828382D01*
X130399424Y-83871253D01*
X130451637Y-84003656D01*
X130451639Y-84003659D01*
X130540999Y-84121500D01*
X130612967Y-84176074D01*
X130658842Y-84210862D01*
X130706100Y-84229498D01*
X130803939Y-84268081D01*
X130803264Y-84269792D01*
X130852145Y-84297549D01*
X132106858Y-85552261D01*
X132106859Y-85552262D01*
X132175339Y-85620742D01*
X132234414Y-85679817D01*
X132269722Y-85702003D01*
X132275488Y-85706093D01*
X132308088Y-85732091D01*
X132345665Y-85750187D01*
X132351839Y-85753600D01*
X132387153Y-85775789D01*
X132426521Y-85789564D01*
X132433023Y-85792257D01*
X132470614Y-85810360D01*
X132511275Y-85819640D01*
X132518042Y-85821589D01*
X132557420Y-85835368D01*
X132557423Y-85835368D01*
X132557425Y-85835369D01*
X132574475Y-85837289D01*
X132598866Y-85840037D01*
X132605816Y-85841218D01*
X132625600Y-85845734D01*
X132646479Y-85850500D01*
X132646481Y-85850500D01*
X132691721Y-85850500D01*
X133968732Y-85850500D01*
X134036853Y-85870502D01*
X134057822Y-85887400D01*
X134172094Y-86001672D01*
X134268249Y-86097827D01*
X134379445Y-86186503D01*
X134378638Y-86187514D01*
X134418604Y-86231239D01*
X134426841Y-86247406D01*
X134434406Y-86265669D01*
X134441203Y-86286589D01*
X134441204Y-86286591D01*
X134454131Y-86304383D01*
X134464460Y-86321238D01*
X134474448Y-86340840D01*
X134474449Y-86340841D01*
X134474450Y-86340842D01*
X134495442Y-86361834D01*
X134495469Y-86361863D01*
X135018011Y-86884405D01*
X135052037Y-86946717D01*
X135046972Y-87017532D01*
X135004425Y-87074368D01*
X134937905Y-87099179D01*
X134928916Y-87099500D01*
X134226500Y-87099500D01*
X134158379Y-87079498D01*
X134111886Y-87025842D01*
X134100500Y-86973500D01*
X134100500Y-86795735D01*
X134100500Y-86795734D01*
X134097646Y-86765301D01*
X134083438Y-86724698D01*
X134052793Y-86637118D01*
X134052791Y-86637114D01*
X133972150Y-86527849D01*
X133862885Y-86447208D01*
X133862881Y-86447206D01*
X133734704Y-86402355D01*
X133734700Y-86402354D01*
X133704266Y-86399500D01*
X132570734Y-86399500D01*
X132570733Y-86399500D01*
X132540299Y-86402354D01*
X132540295Y-86402355D01*
X132434198Y-86439480D01*
X132363294Y-86443099D01*
X132301688Y-86407810D01*
X132281183Y-86379423D01*
X132277226Y-86371936D01*
X132251425Y-86318358D01*
X132251422Y-86318355D01*
X132251422Y-86318354D01*
X132246633Y-86311329D01*
X132241563Y-86304459D01*
X132199516Y-86262413D01*
X132159054Y-86218804D01*
X132151674Y-86212919D01*
X132152213Y-86212242D01*
X132139880Y-86202777D01*
X131862029Y-85924926D01*
X131828003Y-85862614D01*
X131825674Y-85847594D01*
X131825500Y-85845734D01*
X131822646Y-85815301D01*
X131777793Y-85687118D01*
X131777791Y-85687114D01*
X131697150Y-85577849D01*
X131587885Y-85497208D01*
X131587881Y-85497206D01*
X131459704Y-85452355D01*
X131459700Y-85452354D01*
X131429266Y-85449500D01*
X130951293Y-85449500D01*
X130883172Y-85429498D01*
X130862198Y-85412595D01*
X130425075Y-84975472D01*
X129976442Y-84526839D01*
X129971739Y-84521576D01*
X129947380Y-84491031D01*
X129947381Y-84491031D01*
X129898228Y-84457519D01*
X129850379Y-84422204D01*
X129842830Y-84418214D01*
X129835174Y-84414528D01*
X129778320Y-84396991D01*
X129748438Y-84386535D01*
X129690747Y-84345156D01*
X129689188Y-84343116D01*
X129632549Y-84267457D01*
X129632547Y-84267455D01*
X129632546Y-84267454D01*
X129517331Y-84181204D01*
X129517327Y-84181202D01*
X129517325Y-84181201D01*
X129517326Y-84181201D01*
X129382483Y-84130909D01*
X129382486Y-84130909D01*
X129322873Y-84124500D01*
X128677135Y-84124500D01*
X128677114Y-84124502D01*
X128617519Y-84130908D01*
X128617518Y-84130908D01*
X128482673Y-84181201D01*
X128482670Y-84181203D01*
X128367453Y-84267453D01*
X128281203Y-84382670D01*
X128281201Y-84382673D01*
X128230909Y-84517515D01*
X128224500Y-84577121D01*
X128224500Y-85072864D01*
X128224502Y-85072885D01*
X128230908Y-85132480D01*
X128230908Y-85132481D01*
X128281201Y-85267326D01*
X128281203Y-85267329D01*
X128281204Y-85267331D01*
X128309845Y-85305591D01*
X128367453Y-85382546D01*
X128417485Y-85419999D01*
X128482669Y-85468796D01*
X128482671Y-85468796D01*
X128482673Y-85468798D01*
X128509783Y-85478909D01*
X128617514Y-85519090D01*
X128617517Y-85519091D01*
X128677127Y-85525500D01*
X129322872Y-85525499D01*
X129382483Y-85519091D01*
X129517331Y-85468796D01*
X129517332Y-85468794D01*
X129525775Y-85465646D01*
X129526310Y-85467082D01*
X129585970Y-85454102D01*
X129652491Y-85478909D01*
X129666081Y-85490684D01*
X129783541Y-85608145D01*
X129869492Y-85694096D01*
X129903517Y-85756408D01*
X129903495Y-85810073D01*
X129902354Y-85815294D01*
X129899500Y-85845733D01*
X129899500Y-86254266D01*
X129902354Y-86284700D01*
X129902355Y-86284704D01*
X129947206Y-86412881D01*
X129947208Y-86412885D01*
X130027849Y-86522150D01*
X130137114Y-86602791D01*
X130137118Y-86602793D01*
X130240843Y-86639088D01*
X130265301Y-86647646D01*
X130295734Y-86650500D01*
X131261207Y-86650500D01*
X131329328Y-86670502D01*
X131350302Y-86687405D01*
X131387595Y-86724698D01*
X131421621Y-86787010D01*
X131424500Y-86813793D01*
X131424500Y-87223500D01*
X131404498Y-87291621D01*
X131350842Y-87338114D01*
X131298500Y-87349500D01*
X130295733Y-87349500D01*
X130265299Y-87352354D01*
X130265298Y-87352354D01*
X130222219Y-87367429D01*
X130180603Y-87374500D01*
X129775752Y-87374500D01*
X129707631Y-87354498D01*
X129674885Y-87324010D01*
X129632549Y-87267457D01*
X129632547Y-87267455D01*
X129632546Y-87267454D01*
X129517331Y-87181204D01*
X129517327Y-87181202D01*
X129517325Y-87181201D01*
X129517326Y-87181201D01*
X129382483Y-87130909D01*
X129382486Y-87130909D01*
X129322878Y-87124500D01*
X129322873Y-87124500D01*
X128988793Y-87124500D01*
X128920672Y-87104498D01*
X128899698Y-87087595D01*
X128859813Y-87047710D01*
X128813942Y-87001839D01*
X128809239Y-86996576D01*
X128784880Y-86966031D01*
X128784881Y-86966031D01*
X128735728Y-86932519D01*
X128687879Y-86897204D01*
X128680330Y-86893214D01*
X128672674Y-86889528D01*
X128615822Y-86871992D01*
X128559696Y-86852353D01*
X128551320Y-86850767D01*
X128542905Y-86849500D01*
X128542902Y-86849500D01*
X128483426Y-86849500D01*
X128423990Y-86847276D01*
X128423989Y-86847276D01*
X128414610Y-86848333D01*
X128414512Y-86847471D01*
X128399103Y-86849500D01*
X124655690Y-86849500D01*
X124587569Y-86829498D01*
X124542899Y-86779663D01*
X124535745Y-86765295D01*
X124495173Y-86683815D01*
X124484102Y-86669155D01*
X124365006Y-86511445D01*
X124205382Y-86365927D01*
X124021734Y-86252218D01*
X124021727Y-86252215D01*
X123820327Y-86174191D01*
X123782491Y-86167118D01*
X123607999Y-86134500D01*
X123392001Y-86134500D01*
X123255030Y-86160104D01*
X123179672Y-86174191D01*
X122978272Y-86252215D01*
X122978265Y-86252218D01*
X122794617Y-86365927D01*
X122634993Y-86511445D01*
X122504828Y-86683813D01*
X122408545Y-86877174D01*
X122349437Y-87084918D01*
X122329507Y-87300000D01*
X122349437Y-87515081D01*
X122408545Y-87722825D01*
X122408548Y-87722831D01*
X122504827Y-87916185D01*
X122536690Y-87958379D01*
X122634993Y-88088554D01*
X122794617Y-88234072D01*
X122794619Y-88234073D01*
X122794620Y-88234074D01*
X122978266Y-88347782D01*
X123041324Y-88372211D01*
X123179672Y-88425808D01*
X123179675Y-88425808D01*
X123179679Y-88425810D01*
X123392001Y-88465500D01*
X123392004Y-88465500D01*
X123607996Y-88465500D01*
X123607999Y-88465500D01*
X123820321Y-88425810D01*
X123820325Y-88425808D01*
X123820327Y-88425808D01*
X123883379Y-88401380D01*
X124021734Y-88347782D01*
X124205380Y-88234074D01*
X124365005Y-88088556D01*
X124495173Y-87916185D01*
X124542899Y-87820335D01*
X124591169Y-87768273D01*
X124655690Y-87750500D01*
X128098500Y-87750500D01*
X128166621Y-87770502D01*
X128213114Y-87824158D01*
X128224500Y-87876499D01*
X128224500Y-88072864D01*
X128224502Y-88072885D01*
X128230908Y-88132480D01*
X128230908Y-88132481D01*
X128281201Y-88267326D01*
X128281203Y-88267329D01*
X128281204Y-88267331D01*
X128293266Y-88283444D01*
X128367453Y-88382546D01*
X128420358Y-88422150D01*
X128482669Y-88468796D01*
X128482671Y-88468796D01*
X128482673Y-88468798D01*
X128543030Y-88491309D01*
X128617514Y-88519090D01*
X128617517Y-88519091D01*
X128677127Y-88525500D01*
X129322872Y-88525499D01*
X129382483Y-88519091D01*
X129517331Y-88468796D01*
X129632546Y-88382546D01*
X129632549Y-88382542D01*
X129674885Y-88325990D01*
X129731721Y-88283444D01*
X129775752Y-88275500D01*
X129856010Y-88275500D01*
X129924131Y-88295502D01*
X129957388Y-88326677D01*
X129972964Y-88347782D01*
X130027851Y-88422152D01*
X130137114Y-88502791D01*
X130137118Y-88502793D01*
X130202002Y-88525497D01*
X130265301Y-88547646D01*
X130295734Y-88550500D01*
X130662285Y-88550500D01*
X130730406Y-88570502D01*
X130776899Y-88624158D01*
X130787003Y-88694432D01*
X130757509Y-88759012D01*
X130737794Y-88777368D01*
X130732670Y-88781203D01*
X130732669Y-88781204D01*
X130707925Y-88799726D01*
X130617453Y-88867453D01*
X130531203Y-88982670D01*
X130531201Y-88982673D01*
X130480909Y-89117515D01*
X130474500Y-89177121D01*
X130474500Y-89822864D01*
X130474502Y-89822885D01*
X130480908Y-89882480D01*
X130480908Y-89882481D01*
X130531201Y-90017326D01*
X130531203Y-90017329D01*
X130617453Y-90132546D01*
X130675061Y-90175671D01*
X130732669Y-90218796D01*
X130732671Y-90218796D01*
X130732673Y-90218798D01*
X130777755Y-90235612D01*
X130867514Y-90269090D01*
X130867517Y-90269091D01*
X130927127Y-90275500D01*
X131211023Y-90275499D01*
X131279142Y-90295501D01*
X131325635Y-90349156D01*
X131335740Y-90419430D01*
X131306247Y-90484011D01*
X131300118Y-90490594D01*
X130628119Y-91162595D01*
X130565806Y-91196620D01*
X130539023Y-91199500D01*
X119176500Y-91199500D01*
X119108379Y-91179498D01*
X119061886Y-91125842D01*
X119050500Y-91073500D01*
X119050500Y-88982669D01*
X119050500Y-86755046D01*
X119050500Y-86709806D01*
X119041218Y-86669141D01*
X119040037Y-86662191D01*
X119035368Y-86620745D01*
X119021589Y-86581367D01*
X119019639Y-86574595D01*
X119018793Y-86570887D01*
X119010360Y-86533939D01*
X118992261Y-86496358D01*
X118989566Y-86489852D01*
X118975789Y-86450478D01*
X118975787Y-86450475D01*
X118975787Y-86450474D01*
X118953605Y-86415173D01*
X118950185Y-86408984D01*
X118945618Y-86399500D01*
X118932092Y-86371413D01*
X118925706Y-86363405D01*
X118906090Y-86338806D01*
X118901999Y-86333041D01*
X118887119Y-86309361D01*
X118879816Y-86297738D01*
X118752262Y-86170184D01*
X118091172Y-85509094D01*
X118057146Y-85446782D01*
X118062211Y-85375967D01*
X118091172Y-85330904D01*
X118407444Y-85014632D01*
X119426756Y-83995319D01*
X119432011Y-83990624D01*
X119464620Y-83964620D01*
X119490622Y-83932013D01*
X119495315Y-83926761D01*
X120584675Y-82837402D01*
X120646985Y-82803379D01*
X120673768Y-82800500D01*
X129291232Y-82800500D01*
X129359353Y-82820502D01*
G37*
%TD.AperFunction*%
%TA.AperFunction,Conductor*%
G36*
X128257145Y-71320502D02*
G01*
X128278119Y-71337405D01*
X130250095Y-73309381D01*
X130284121Y-73371693D01*
X130287000Y-73398476D01*
X130287000Y-74033207D01*
X130266998Y-74101328D01*
X130213342Y-74147821D01*
X130143068Y-74157925D01*
X130078488Y-74128431D01*
X130071905Y-74122302D01*
X130026724Y-74077121D01*
X129976442Y-74026839D01*
X129971739Y-74021576D01*
X129947380Y-73991031D01*
X129947381Y-73991031D01*
X129898228Y-73957519D01*
X129850379Y-73922204D01*
X129842830Y-73918214D01*
X129835174Y-73914528D01*
X129778320Y-73896991D01*
X129748438Y-73886535D01*
X129690747Y-73845156D01*
X129689188Y-73843116D01*
X129632549Y-73767457D01*
X129632547Y-73767455D01*
X129632546Y-73767454D01*
X129517331Y-73681204D01*
X129517327Y-73681202D01*
X129517325Y-73681201D01*
X129517326Y-73681201D01*
X129382483Y-73630909D01*
X129382486Y-73630909D01*
X129322873Y-73624500D01*
X128677135Y-73624500D01*
X128677114Y-73624502D01*
X128617519Y-73630908D01*
X128617518Y-73630908D01*
X128482673Y-73681201D01*
X128482670Y-73681203D01*
X128367453Y-73767453D01*
X128281203Y-73882670D01*
X128281201Y-73882673D01*
X128230909Y-74017515D01*
X128224500Y-74077121D01*
X128224500Y-74572864D01*
X128224502Y-74572885D01*
X128230908Y-74632480D01*
X128230908Y-74632481D01*
X128281201Y-74767326D01*
X128281203Y-74767329D01*
X128281204Y-74767331D01*
X128294707Y-74785368D01*
X128367453Y-74882546D01*
X128419637Y-74921610D01*
X128482669Y-74968796D01*
X128482671Y-74968796D01*
X128482673Y-74968798D01*
X128509783Y-74978909D01*
X128617514Y-75019090D01*
X128617517Y-75019091D01*
X128677127Y-75025500D01*
X129322872Y-75025499D01*
X129382483Y-75019091D01*
X129517331Y-74968796D01*
X129517332Y-74968794D01*
X129525775Y-74965646D01*
X129526310Y-74967082D01*
X129585970Y-74954102D01*
X129652491Y-74978909D01*
X129666081Y-74990684D01*
X129783541Y-75108145D01*
X129869492Y-75194096D01*
X129903517Y-75256408D01*
X129903495Y-75310073D01*
X129902354Y-75315294D01*
X129899500Y-75345733D01*
X129899500Y-75754266D01*
X129902354Y-75784700D01*
X129902355Y-75784704D01*
X129947206Y-75912881D01*
X129947208Y-75912885D01*
X130027849Y-76022150D01*
X130137114Y-76102791D01*
X130137118Y-76102793D01*
X130248502Y-76141768D01*
X130265301Y-76147646D01*
X130295734Y-76150500D01*
X131298500Y-76150500D01*
X131366621Y-76170502D01*
X131413114Y-76224158D01*
X131424500Y-76276500D01*
X131424500Y-76723500D01*
X131404498Y-76791621D01*
X131350842Y-76838114D01*
X131298500Y-76849500D01*
X130295733Y-76849500D01*
X130265299Y-76852354D01*
X130265298Y-76852354D01*
X130222219Y-76867429D01*
X130180603Y-76874500D01*
X129775752Y-76874500D01*
X129707631Y-76854498D01*
X129674885Y-76824010D01*
X129632549Y-76767457D01*
X129632547Y-76767455D01*
X129632546Y-76767454D01*
X129517331Y-76681204D01*
X129517327Y-76681202D01*
X129517325Y-76681201D01*
X129517326Y-76681201D01*
X129382483Y-76630909D01*
X129382486Y-76630909D01*
X129322878Y-76624500D01*
X129322873Y-76624500D01*
X128988793Y-76624500D01*
X128920672Y-76604498D01*
X128899698Y-76587595D01*
X128714834Y-76402731D01*
X128513942Y-76201839D01*
X128509239Y-76196576D01*
X128484880Y-76166031D01*
X128484881Y-76166031D01*
X128435728Y-76132519D01*
X128387879Y-76097204D01*
X128380330Y-76093214D01*
X128372674Y-76089528D01*
X128315822Y-76071992D01*
X128259696Y-76052353D01*
X128251320Y-76050767D01*
X128242905Y-76049500D01*
X128242902Y-76049500D01*
X128183426Y-76049500D01*
X128123990Y-76047276D01*
X128123989Y-76047276D01*
X128114610Y-76048333D01*
X128114512Y-76047471D01*
X128099103Y-76049500D01*
X124655690Y-76049500D01*
X124587569Y-76029498D01*
X124542899Y-75979663D01*
X124495173Y-75883815D01*
X124462576Y-75840649D01*
X124365006Y-75711445D01*
X124205382Y-75565927D01*
X124021734Y-75452218D01*
X124021727Y-75452215D01*
X123820327Y-75374191D01*
X123739634Y-75359107D01*
X123607999Y-75334500D01*
X123392001Y-75334500D01*
X123260366Y-75359107D01*
X123179672Y-75374191D01*
X122978272Y-75452215D01*
X122978265Y-75452218D01*
X122794617Y-75565927D01*
X122634993Y-75711445D01*
X122504828Y-75883813D01*
X122408545Y-76077174D01*
X122349437Y-76284918D01*
X122329507Y-76500000D01*
X122349437Y-76715081D01*
X122408545Y-76922825D01*
X122408548Y-76922831D01*
X122504827Y-77116185D01*
X122529985Y-77149500D01*
X122634993Y-77288554D01*
X122794617Y-77434072D01*
X122794619Y-77434073D01*
X122794620Y-77434074D01*
X122978266Y-77547782D01*
X123014673Y-77561886D01*
X123179672Y-77625808D01*
X123179675Y-77625808D01*
X123179679Y-77625810D01*
X123392001Y-77665500D01*
X123392004Y-77665500D01*
X123607996Y-77665500D01*
X123607999Y-77665500D01*
X123820321Y-77625810D01*
X123820325Y-77625808D01*
X123820327Y-77625808D01*
X123913090Y-77589871D01*
X124021734Y-77547782D01*
X124205380Y-77434074D01*
X124365005Y-77288556D01*
X124495173Y-77116185D01*
X124542899Y-77020335D01*
X124591169Y-76968273D01*
X124655690Y-76950500D01*
X127936205Y-76950500D01*
X128004326Y-76970502D01*
X128025300Y-76987404D01*
X128187595Y-77149698D01*
X128221620Y-77212010D01*
X128224500Y-77238794D01*
X128224500Y-77572864D01*
X128224502Y-77572885D01*
X128230908Y-77632480D01*
X128230908Y-77632481D01*
X128281201Y-77767326D01*
X128281203Y-77767329D01*
X128281204Y-77767331D01*
X128293266Y-77783444D01*
X128367453Y-77882546D01*
X128420358Y-77922150D01*
X128482669Y-77968796D01*
X128482671Y-77968796D01*
X128482673Y-77968798D01*
X128535640Y-77988553D01*
X128617514Y-78019090D01*
X128617517Y-78019091D01*
X128677127Y-78025500D01*
X129322872Y-78025499D01*
X129382483Y-78019091D01*
X129517331Y-77968796D01*
X129632546Y-77882546D01*
X129632549Y-77882542D01*
X129674885Y-77825990D01*
X129731721Y-77783444D01*
X129775752Y-77775500D01*
X129856010Y-77775500D01*
X129924131Y-77795502D01*
X129957390Y-77826679D01*
X130027851Y-77922152D01*
X130137114Y-78002791D01*
X130137118Y-78002793D01*
X130265126Y-78047585D01*
X130265301Y-78047646D01*
X130295734Y-78050500D01*
X131298500Y-78050500D01*
X131366621Y-78070502D01*
X131413114Y-78124158D01*
X131424500Y-78176500D01*
X131424500Y-78598500D01*
X131404498Y-78666621D01*
X131350842Y-78713114D01*
X131298500Y-78724500D01*
X130927135Y-78724500D01*
X130927114Y-78724502D01*
X130867519Y-78730908D01*
X130867518Y-78730908D01*
X130732673Y-78781201D01*
X130732670Y-78781203D01*
X130617453Y-78867453D01*
X130531203Y-78982670D01*
X130531201Y-78982673D01*
X130480909Y-79117515D01*
X130474500Y-79177121D01*
X130474500Y-79822864D01*
X130474502Y-79822885D01*
X130480908Y-79882480D01*
X130480908Y-79882481D01*
X130531201Y-80017326D01*
X130531203Y-80017329D01*
X130617453Y-80132546D01*
X130644464Y-80152766D01*
X130732669Y-80218796D01*
X130732671Y-80218796D01*
X130732673Y-80218798D01*
X130796058Y-80242439D01*
X130852895Y-80284985D01*
X130877706Y-80351505D01*
X130862615Y-80420879D01*
X130841122Y-80449590D01*
X130078530Y-81212182D01*
X130016218Y-81246208D01*
X129947965Y-81241326D01*
X129947738Y-81241977D01*
X129941055Y-81239638D01*
X129900399Y-81230357D01*
X129893608Y-81228401D01*
X129854259Y-81214633D01*
X129854257Y-81214632D01*
X129854255Y-81214632D01*
X129812802Y-81209960D01*
X129805865Y-81208782D01*
X129765194Y-81199500D01*
X129719954Y-81199500D01*
X120380194Y-81199500D01*
X120199806Y-81199500D01*
X120199800Y-81199500D01*
X120159139Y-81208779D01*
X120152174Y-81209963D01*
X120110745Y-81214631D01*
X120071383Y-81228403D01*
X120064592Y-81230360D01*
X120023942Y-81239638D01*
X120023941Y-81239639D01*
X119986362Y-81257735D01*
X119979833Y-81260439D01*
X119940479Y-81274210D01*
X119940476Y-81274211D01*
X119905169Y-81296395D01*
X119898984Y-81299814D01*
X119861416Y-81317905D01*
X119828810Y-81343906D01*
X119823049Y-81347994D01*
X119787742Y-81370180D01*
X119787735Y-81370186D01*
X119015595Y-82142327D01*
X118953283Y-82176353D01*
X118882468Y-82171288D01*
X118825632Y-82128741D01*
X118800821Y-82062221D01*
X118800500Y-82053232D01*
X118800500Y-73873768D01*
X118820502Y-73805647D01*
X118837405Y-73784673D01*
X121284673Y-71337405D01*
X121346985Y-71303379D01*
X121373768Y-71300500D01*
X128189024Y-71300500D01*
X128257145Y-71320502D01*
G37*
%TD.AperFunction*%
%TA.AperFunction,Conductor*%
G36*
X136396547Y-79589841D02*
G01*
X136429296Y-79652833D01*
X136431655Y-79677103D01*
X136431655Y-79895589D01*
X136438453Y-79916513D01*
X136443067Y-79935732D01*
X136446508Y-79957455D01*
X136446510Y-79957461D01*
X136456496Y-79977061D01*
X136464061Y-79995324D01*
X136470858Y-80016244D01*
X136470859Y-80016246D01*
X136483786Y-80034038D01*
X136494115Y-80050893D01*
X136504103Y-80070495D01*
X136504104Y-80070496D01*
X136504105Y-80070497D01*
X136525097Y-80091489D01*
X136525124Y-80091518D01*
X136841008Y-80407402D01*
X136841027Y-80407419D01*
X136854487Y-80420879D01*
X136861659Y-80428051D01*
X136881254Y-80438035D01*
X136898113Y-80448366D01*
X136915908Y-80461295D01*
X136915910Y-80461296D01*
X136936827Y-80468092D01*
X136955097Y-80475659D01*
X136974696Y-80485646D01*
X136996431Y-80489088D01*
X137015636Y-80493699D01*
X137036567Y-80500500D01*
X137068481Y-80500500D01*
X137086792Y-80500500D01*
X137137686Y-80511236D01*
X137220009Y-80547585D01*
X137220008Y-80547585D01*
X137224478Y-80548103D01*
X137245135Y-80550500D01*
X137854864Y-80550499D01*
X137879991Y-80547585D01*
X137982765Y-80502206D01*
X138062206Y-80422765D01*
X138107585Y-80319991D01*
X138110500Y-80294865D01*
X138110500Y-80176499D01*
X138130502Y-80108378D01*
X138184158Y-80061885D01*
X138236500Y-80050499D01*
X138333500Y-80050499D01*
X138401621Y-80070501D01*
X138448114Y-80124157D01*
X138459500Y-80176499D01*
X138459500Y-80613500D01*
X138439498Y-80681621D01*
X138385842Y-80728114D01*
X138333500Y-80739500D01*
X138200135Y-80739500D01*
X138169359Y-80742386D01*
X138169355Y-80742387D01*
X138039760Y-80787734D01*
X138039753Y-80787737D01*
X137929274Y-80869274D01*
X137847737Y-80979753D01*
X137847734Y-80979760D01*
X137802387Y-81109355D01*
X137802386Y-81109359D01*
X137799500Y-81140135D01*
X137799500Y-81369784D01*
X137779498Y-81437905D01*
X137762595Y-81458879D01*
X137698878Y-81522596D01*
X137636569Y-81556620D01*
X137609785Y-81559500D01*
X136940215Y-81559500D01*
X136872094Y-81539498D01*
X136851120Y-81522595D01*
X135645419Y-80316894D01*
X135611393Y-80254582D01*
X135616458Y-80183767D01*
X135645417Y-80138705D01*
X135662635Y-80121487D01*
X135667403Y-80117185D01*
X135701707Y-80089278D01*
X135711957Y-80074756D01*
X135725794Y-80058328D01*
X136190349Y-79593774D01*
X136252659Y-79559751D01*
X136263663Y-79558045D01*
X136265635Y-79557614D01*
X136265639Y-79557614D01*
X136265642Y-79557612D01*
X136273129Y-79555978D01*
X136273503Y-79557691D01*
X136334941Y-79554554D01*
X136396547Y-79589841D01*
G37*
%TD.AperFunction*%
%TA.AperFunction,Conductor*%
G36*
X134481459Y-76920502D02*
G01*
X134502433Y-76937405D01*
X134567232Y-77002204D01*
X134567234Y-77002205D01*
X134567235Y-77002206D01*
X134670009Y-77047585D01*
X134670008Y-77047585D01*
X134674478Y-77048103D01*
X134695135Y-77050500D01*
X135063500Y-77050499D01*
X135131620Y-77070501D01*
X135178113Y-77124156D01*
X135189500Y-77176498D01*
X135189500Y-77294860D01*
X135189501Y-77294866D01*
X135193507Y-77329406D01*
X135191584Y-77329629D01*
X135191584Y-77370373D01*
X135193507Y-77370597D01*
X135189500Y-77405130D01*
X135189500Y-77794860D01*
X135189501Y-77794866D01*
X135192414Y-77819989D01*
X135192416Y-77819994D01*
X135237793Y-77922765D01*
X135317232Y-78002204D01*
X135317234Y-78002205D01*
X135317235Y-78002206D01*
X135420009Y-78047585D01*
X135420008Y-78047585D01*
X135424478Y-78048103D01*
X135445135Y-78050500D01*
X136054864Y-78050499D01*
X136079991Y-78047585D01*
X136079991Y-78047584D01*
X136087389Y-78046727D01*
X136126684Y-78050077D01*
X136126808Y-78049217D01*
X136135725Y-78050499D01*
X136135728Y-78050500D01*
X136135731Y-78050500D01*
X136233000Y-78050500D01*
X136301121Y-78070502D01*
X136347614Y-78124158D01*
X136359000Y-78176500D01*
X136359000Y-78213500D01*
X136338998Y-78281621D01*
X136285342Y-78328114D01*
X136233000Y-78339500D01*
X135700135Y-78339500D01*
X135669359Y-78342386D01*
X135669355Y-78342387D01*
X135539760Y-78387734D01*
X135539753Y-78387737D01*
X135429274Y-78469274D01*
X135347737Y-78579753D01*
X135347734Y-78579760D01*
X135302387Y-78709355D01*
X135302386Y-78709359D01*
X135299500Y-78740135D01*
X135299500Y-78875382D01*
X135279498Y-78943503D01*
X135262596Y-78964477D01*
X135104479Y-79122595D01*
X135042167Y-79156620D01*
X135015383Y-79159500D01*
X134720967Y-79159500D01*
X134716671Y-79159353D01*
X134662079Y-79155619D01*
X134656085Y-79156864D01*
X134630451Y-79159500D01*
X133814000Y-79159500D01*
X133745879Y-79139498D01*
X133699386Y-79085842D01*
X133688000Y-79033500D01*
X133688000Y-78153388D01*
X133708002Y-78085267D01*
X133761658Y-78038774D01*
X133772370Y-78034464D01*
X133862882Y-78002793D01*
X133863678Y-78002206D01*
X133972150Y-77922150D01*
X134052791Y-77812885D01*
X134052793Y-77812881D01*
X134058875Y-77795502D01*
X134097646Y-77684699D01*
X134100500Y-77654266D01*
X134100500Y-77245734D01*
X134097646Y-77215301D01*
X134096494Y-77212010D01*
X134075641Y-77152415D01*
X134052793Y-77087118D01*
X134052789Y-77087112D01*
X134051871Y-77085374D01*
X134051438Y-77083244D01*
X134049675Y-77078206D01*
X134050364Y-77077964D01*
X134037726Y-77015800D01*
X134063441Y-76949624D01*
X134120850Y-76907856D01*
X134163271Y-76900500D01*
X134413338Y-76900500D01*
X134481459Y-76920502D01*
G37*
%TD.AperFunction*%
%TA.AperFunction,Conductor*%
G36*
X138591621Y-77570501D02*
G01*
X138638114Y-77624157D01*
X138649500Y-77676499D01*
X138649500Y-78523500D01*
X138629498Y-78591621D01*
X138575842Y-78638114D01*
X138523500Y-78649500D01*
X137995140Y-78649500D01*
X137995133Y-78649501D01*
X137970011Y-78652414D01*
X137960861Y-78654904D01*
X137960043Y-78651897D01*
X137905459Y-78659028D01*
X137889306Y-78654283D01*
X137889138Y-78654904D01*
X137879987Y-78652414D01*
X137854870Y-78649500D01*
X137854865Y-78649500D01*
X137718083Y-78649500D01*
X137649962Y-78629498D01*
X137628988Y-78612595D01*
X137281987Y-78265594D01*
X137247961Y-78203282D01*
X137253026Y-78132467D01*
X137295573Y-78075631D01*
X137362093Y-78050820D01*
X137371068Y-78050499D01*
X137470553Y-78050499D01*
X137470561Y-78050500D01*
X137485228Y-78050500D01*
X137629439Y-78050500D01*
X137629447Y-78050499D01*
X137854860Y-78050499D01*
X137854864Y-78050499D01*
X137879991Y-78047585D01*
X137982765Y-78002206D01*
X138062206Y-77922765D01*
X138107585Y-77819991D01*
X138110500Y-77794865D01*
X138110500Y-77676499D01*
X138130502Y-77608379D01*
X138184158Y-77561886D01*
X138236500Y-77550500D01*
X138379439Y-77550500D01*
X138379447Y-77550499D01*
X138523500Y-77550499D01*
X138591621Y-77570501D01*
G37*
%TD.AperFunction*%
%TA.AperFunction,Conductor*%
G36*
X133512171Y-73034106D02*
G01*
X133533145Y-73051009D01*
X134439655Y-73957519D01*
X135345423Y-74863286D01*
X135379448Y-74925598D01*
X135375258Y-74993995D01*
X135352386Y-75059360D01*
X135349500Y-75090135D01*
X135349500Y-75509864D01*
X135352386Y-75540640D01*
X135352387Y-75540644D01*
X135397734Y-75670239D01*
X135397737Y-75670246D01*
X135479274Y-75780725D01*
X135589753Y-75862262D01*
X135589760Y-75862265D01*
X135710662Y-75904571D01*
X135768354Y-75945949D01*
X135794516Y-76011949D01*
X135780843Y-76081617D01*
X135731676Y-76132833D01*
X135669048Y-76149500D01*
X135445139Y-76149500D01*
X135445133Y-76149501D01*
X135420011Y-76152414D01*
X135410861Y-76154904D01*
X135410043Y-76151897D01*
X135355459Y-76159028D01*
X135339306Y-76154283D01*
X135339138Y-76154904D01*
X135329987Y-76152414D01*
X135304870Y-76149500D01*
X135304865Y-76149500D01*
X135135529Y-76149500D01*
X135094231Y-76139583D01*
X135093522Y-76141768D01*
X135063170Y-76131906D01*
X135044906Y-76124341D01*
X135025306Y-76114355D01*
X135025305Y-76114354D01*
X135025304Y-76114354D01*
X135025302Y-76114353D01*
X135025300Y-76114353D01*
X135003577Y-76110912D01*
X134984358Y-76106298D01*
X134963434Y-76099500D01*
X134963433Y-76099500D01*
X134931519Y-76099500D01*
X134088638Y-76099500D01*
X134020517Y-76079498D01*
X133987259Y-76048322D01*
X133973366Y-76029498D01*
X133972150Y-76027850D01*
X133972148Y-76027849D01*
X133972148Y-76027848D01*
X133862885Y-75947208D01*
X133862881Y-75947206D01*
X133734704Y-75902355D01*
X133734700Y-75902354D01*
X133704266Y-75899500D01*
X132570734Y-75899500D01*
X132570733Y-75899500D01*
X132540299Y-75902354D01*
X132540295Y-75902355D01*
X132412116Y-75947207D01*
X132408188Y-75949283D01*
X132403406Y-75950255D01*
X132403206Y-75950325D01*
X132403196Y-75950297D01*
X132338614Y-75963425D01*
X132272439Y-75937708D01*
X132230673Y-75880297D01*
X132227311Y-75867141D01*
X132225500Y-75861567D01*
X132218702Y-75840645D01*
X132214087Y-75821428D01*
X132210646Y-75799696D01*
X132200659Y-75780096D01*
X132193092Y-75761827D01*
X132186296Y-75740910D01*
X132186295Y-75740908D01*
X132173366Y-75723113D01*
X132163035Y-75706254D01*
X132153051Y-75686659D01*
X132142891Y-75676499D01*
X132132419Y-75666027D01*
X132132411Y-75666018D01*
X132007032Y-75540639D01*
X131858996Y-75392603D01*
X131824973Y-75330293D01*
X131822653Y-75315334D01*
X131822646Y-75315305D01*
X131822646Y-75315301D01*
X131777793Y-75187118D01*
X131777791Y-75187114D01*
X131697150Y-75077849D01*
X131587885Y-74997208D01*
X131587881Y-74997206D01*
X131584214Y-74995923D01*
X131580745Y-74993435D01*
X131579536Y-74992796D01*
X131579623Y-74992630D01*
X131526523Y-74954543D01*
X131500363Y-74888541D01*
X131514039Y-74818874D01*
X131563208Y-74767660D01*
X131579601Y-74759783D01*
X131703658Y-74710862D01*
X131821500Y-74621500D01*
X131910862Y-74503658D01*
X131965117Y-74366077D01*
X131975500Y-74279618D01*
X131975500Y-73720382D01*
X131966757Y-73647586D01*
X131965117Y-73633922D01*
X131913485Y-73502994D01*
X131910862Y-73496342D01*
X131910860Y-73496339D01*
X131906637Y-73488828D01*
X131908889Y-73487561D01*
X131888379Y-73433582D01*
X131888000Y-73423822D01*
X131888000Y-73140104D01*
X131908002Y-73071983D01*
X131961658Y-73025490D01*
X132014000Y-73014104D01*
X133444050Y-73014104D01*
X133512171Y-73034106D01*
G37*
%TD.AperFunction*%
%TA.AperFunction,Conductor*%
G36*
X138678942Y-75062034D02*
G01*
X138731313Y-75109971D01*
X138749500Y-75175181D01*
X138749500Y-76024816D01*
X138729498Y-76092937D01*
X138675842Y-76139430D01*
X138608992Y-76149978D01*
X138604868Y-76149500D01*
X137995140Y-76149500D01*
X137995133Y-76149501D01*
X137970011Y-76152414D01*
X137960861Y-76154904D01*
X137960043Y-76151897D01*
X137905459Y-76159028D01*
X137889306Y-76154283D01*
X137889138Y-76154904D01*
X137879987Y-76152414D01*
X137854870Y-76149500D01*
X137854865Y-76149500D01*
X137527583Y-76149500D01*
X137459462Y-76129498D01*
X137438487Y-76112595D01*
X137211035Y-75885142D01*
X137185516Y-75848387D01*
X137171385Y-75817443D01*
X137160000Y-75765103D01*
X137160000Y-75676499D01*
X137180002Y-75608378D01*
X137233658Y-75561885D01*
X137285996Y-75550499D01*
X137470553Y-75550499D01*
X137470561Y-75550500D01*
X137485228Y-75550500D01*
X137629439Y-75550500D01*
X137629447Y-75550499D01*
X137854860Y-75550499D01*
X137854864Y-75550499D01*
X137879991Y-75547585D01*
X137982765Y-75502206D01*
X138062206Y-75422765D01*
X138107585Y-75319991D01*
X138110500Y-75294865D01*
X138110500Y-75176500D01*
X138130502Y-75108379D01*
X138184158Y-75061886D01*
X138236500Y-75050500D01*
X138379439Y-75050500D01*
X138379447Y-75050499D01*
X138604860Y-75050499D01*
X138604864Y-75050499D01*
X138608972Y-75050022D01*
X138678942Y-75062034D01*
G37*
%TD.AperFunction*%
%TA.AperFunction,Conductor*%
G36*
X137691621Y-72660502D02*
G01*
X137738114Y-72714158D01*
X137749500Y-72766500D01*
X137749500Y-73059864D01*
X137752386Y-73090640D01*
X137752387Y-73090644D01*
X137797734Y-73220239D01*
X137797737Y-73220246D01*
X137879274Y-73330725D01*
X137989753Y-73412262D01*
X137998108Y-73416678D01*
X137996731Y-73419282D01*
X138041956Y-73451708D01*
X138068129Y-73517705D01*
X138054466Y-73587374D01*
X138005307Y-73638598D01*
X137975741Y-73650855D01*
X137960867Y-73654902D01*
X137960049Y-73651897D01*
X137905459Y-73659028D01*
X137889306Y-73654283D01*
X137889138Y-73654904D01*
X137879987Y-73652414D01*
X137854867Y-73649500D01*
X137245140Y-73649500D01*
X137245133Y-73649501D01*
X137220009Y-73652414D01*
X137220005Y-73652416D01*
X137137686Y-73688764D01*
X137086792Y-73699500D01*
X136976562Y-73699500D01*
X136955639Y-73706298D01*
X136936427Y-73710911D01*
X136914694Y-73714354D01*
X136895095Y-73724340D01*
X136876835Y-73731904D01*
X136855910Y-73738703D01*
X136855909Y-73738704D01*
X136838102Y-73751640D01*
X136821258Y-73761962D01*
X136801658Y-73771950D01*
X136801653Y-73771953D01*
X136431453Y-74142153D01*
X136431448Y-74142159D01*
X136425755Y-74153332D01*
X136377002Y-74204942D01*
X136308085Y-74222002D01*
X136240886Y-74199094D01*
X136224399Y-74185213D01*
X134894781Y-72855595D01*
X134860755Y-72793283D01*
X134865820Y-72722468D01*
X134908367Y-72665632D01*
X134974887Y-72640821D01*
X134983876Y-72640500D01*
X137623500Y-72640500D01*
X137691621Y-72660502D01*
G37*
%TD.AperFunction*%
%TA.AperFunction,Conductor*%
G36*
X147942121Y-66220002D02*
G01*
X147988614Y-66273658D01*
X148000000Y-66326000D01*
X148000000Y-115874000D01*
X147979998Y-115942121D01*
X147926342Y-115988614D01*
X147874000Y-116000000D01*
X104125747Y-116000000D01*
X104057626Y-115979998D01*
X104011133Y-115926342D01*
X103999747Y-115874253D01*
X103999746Y-115874000D01*
X103944785Y-88502791D01*
X103924699Y-78500000D01*
X106114648Y-78500000D01*
X106134049Y-78956710D01*
X106159998Y-79159353D01*
X106192111Y-79410132D01*
X106192111Y-79410133D01*
X106288417Y-79856991D01*
X106422270Y-80294067D01*
X106422272Y-80294072D01*
X106422273Y-80294075D01*
X106467041Y-80405484D01*
X106527567Y-80556110D01*
X106592714Y-80718233D01*
X106798512Y-81126409D01*
X106980499Y-81421975D01*
X107038182Y-81515657D01*
X107038181Y-81515657D01*
X107038184Y-81515661D01*
X107310004Y-81883186D01*
X107310006Y-81883188D01*
X107310006Y-81883189D01*
X107526119Y-82128741D01*
X107563565Y-82171288D01*
X107612014Y-82226336D01*
X107942037Y-82542638D01*
X108218734Y-82766055D01*
X108297691Y-82829808D01*
X108676421Y-83085784D01*
X108676425Y-83085786D01*
X108676424Y-83085786D01*
X108792187Y-83150455D01*
X109075494Y-83308720D01*
X109266367Y-83395000D01*
X109463465Y-83484094D01*
X109492037Y-83497009D01*
X109733546Y-83582339D01*
X109923042Y-83649293D01*
X109923041Y-83649292D01*
X109923046Y-83649294D01*
X110355249Y-83761831D01*
X110416132Y-83798352D01*
X110447604Y-83861992D01*
X110449500Y-83883765D01*
X110449500Y-84455297D01*
X110449196Y-84461476D01*
X110444417Y-84509998D01*
X110444417Y-84510003D01*
X110464698Y-84715927D01*
X110464699Y-84715933D01*
X110464700Y-84715934D01*
X110524768Y-84913955D01*
X110557650Y-84975472D01*
X110610428Y-85074212D01*
X110622316Y-85096451D01*
X110753590Y-85256410D01*
X110791290Y-85287350D01*
X110795863Y-85291494D01*
X112208504Y-86704135D01*
X112212649Y-86708709D01*
X112243587Y-86746407D01*
X112243588Y-86746408D01*
X112243590Y-86746410D01*
X112337357Y-86823362D01*
X112403550Y-86877685D01*
X112586045Y-86975232D01*
X112707301Y-87012014D01*
X112784066Y-87035300D01*
X112784068Y-87035300D01*
X112784071Y-87035301D01*
X112933315Y-87050000D01*
X112989998Y-87055583D01*
X112990000Y-87055583D01*
X112990002Y-87055583D01*
X113038522Y-87050804D01*
X113044702Y-87050500D01*
X117051599Y-87050500D01*
X117051608Y-87050500D01*
X117120480Y-87043716D01*
X117205929Y-87035301D01*
X117205931Y-87035300D01*
X117205934Y-87035300D01*
X117246672Y-87022941D01*
X117317665Y-87022308D01*
X117372343Y-87054421D01*
X117412595Y-87094673D01*
X117446621Y-87156985D01*
X117449500Y-87183768D01*
X117449500Y-91951503D01*
X117449104Y-91958562D01*
X117444435Y-92000000D01*
X117449103Y-92041435D01*
X117449499Y-92048492D01*
X117449500Y-100669806D01*
X117449500Y-100850194D01*
X117458782Y-100890865D01*
X117459960Y-100897802D01*
X117464632Y-100939255D01*
X117464632Y-100939257D01*
X117464633Y-100939259D01*
X117478401Y-100978608D01*
X117480357Y-100985399D01*
X117489638Y-101026055D01*
X117489642Y-101026065D01*
X117507732Y-101063632D01*
X117510437Y-101070162D01*
X117524209Y-101109519D01*
X117524210Y-101109522D01*
X117546398Y-101144833D01*
X117549817Y-101151020D01*
X117567909Y-101188586D01*
X117567910Y-101188589D01*
X117593909Y-101221192D01*
X117597999Y-101226956D01*
X117620181Y-101262259D01*
X117620183Y-101262261D01*
X117669892Y-101311972D01*
X117669898Y-101311976D01*
X119860184Y-103502262D01*
X119987738Y-103629816D01*
X119987739Y-103629817D01*
X120023047Y-103652003D01*
X120028813Y-103656093D01*
X120061413Y-103682091D01*
X120098989Y-103700187D01*
X120105167Y-103703602D01*
X120140478Y-103725789D01*
X120179852Y-103739566D01*
X120186354Y-103742259D01*
X120223939Y-103760359D01*
X120264429Y-103769600D01*
X120264592Y-103769638D01*
X120271377Y-103771592D01*
X120310745Y-103785368D01*
X120352187Y-103790037D01*
X120359147Y-103791219D01*
X120399805Y-103800500D01*
X120445046Y-103800500D01*
X128116232Y-103800500D01*
X128184353Y-103820502D01*
X128205322Y-103837400D01*
X128547420Y-104179498D01*
X129399679Y-105031758D01*
X129404381Y-105037019D01*
X129430380Y-105069620D01*
X129430382Y-105069622D01*
X129462982Y-105095620D01*
X129468244Y-105100322D01*
X129870184Y-105502262D01*
X130250095Y-105882173D01*
X130284121Y-105944485D01*
X130287000Y-105971268D01*
X130287000Y-107033207D01*
X130266998Y-107101328D01*
X130213342Y-107147821D01*
X130143068Y-107157925D01*
X130078488Y-107128431D01*
X130071905Y-107122302D01*
X129812404Y-106862801D01*
X129778378Y-106800489D01*
X129775499Y-106773706D01*
X129775499Y-106752135D01*
X129775499Y-106752128D01*
X129769091Y-106692517D01*
X129733530Y-106597173D01*
X129718798Y-106557673D01*
X129718796Y-106557670D01*
X129718796Y-106557669D01*
X129650317Y-106466193D01*
X129632546Y-106442453D01*
X129555591Y-106384845D01*
X129517331Y-106356204D01*
X129517329Y-106356203D01*
X129517326Y-106356201D01*
X129382483Y-106305909D01*
X129382486Y-106305909D01*
X129322873Y-106299500D01*
X128677135Y-106299500D01*
X128677114Y-106299502D01*
X128617519Y-106305908D01*
X128617518Y-106305908D01*
X128482673Y-106356201D01*
X128482670Y-106356203D01*
X128367453Y-106442453D01*
X128281203Y-106557670D01*
X128281201Y-106557673D01*
X128230909Y-106692515D01*
X128224500Y-106752121D01*
X128224500Y-107247864D01*
X128224502Y-107247885D01*
X128230908Y-107307480D01*
X128230908Y-107307481D01*
X128281201Y-107442326D01*
X128281203Y-107442329D01*
X128281204Y-107442331D01*
X128300145Y-107467633D01*
X128367453Y-107557546D01*
X128425061Y-107600671D01*
X128482669Y-107643796D01*
X128482671Y-107643796D01*
X128482673Y-107643798D01*
X128542003Y-107665926D01*
X128617514Y-107694090D01*
X128617517Y-107694091D01*
X128677127Y-107700500D01*
X129322872Y-107700499D01*
X129323704Y-107700499D01*
X129391825Y-107720501D01*
X129412799Y-107737403D01*
X130062595Y-108387198D01*
X130096620Y-108449511D01*
X130099500Y-108476294D01*
X130099500Y-108724677D01*
X130114033Y-108797739D01*
X130114034Y-108797740D01*
X130169399Y-108880601D01*
X130252260Y-108935966D01*
X130325326Y-108950500D01*
X130615361Y-108950500D01*
X130655214Y-108959595D01*
X130655803Y-108957688D01*
X130664825Y-108960471D01*
X130664827Y-108960472D01*
X130721677Y-108978007D01*
X130777801Y-108997646D01*
X130777807Y-108997646D01*
X130786215Y-108999237D01*
X130794594Y-109000500D01*
X130854074Y-109000500D01*
X130913510Y-109002724D01*
X130913516Y-109002722D01*
X130922890Y-109001667D01*
X130922987Y-109002528D01*
X130938397Y-109000500D01*
X130976892Y-109000500D01*
X131045013Y-109020502D01*
X131065987Y-109037405D01*
X131362594Y-109334012D01*
X131396620Y-109396324D01*
X131399499Y-109423107D01*
X131399499Y-109681204D01*
X131399500Y-109923500D01*
X131379498Y-109991621D01*
X131325843Y-110038114D01*
X131273500Y-110049500D01*
X131154686Y-110049500D01*
X131086565Y-110029498D01*
X131056175Y-110002059D01*
X131047380Y-109991031D01*
X131047381Y-109991031D01*
X130998228Y-109957519D01*
X130950379Y-109922204D01*
X130942830Y-109918214D01*
X130935174Y-109914528D01*
X130878322Y-109896992D01*
X130822196Y-109877353D01*
X130813820Y-109875767D01*
X130805405Y-109874500D01*
X130805402Y-109874500D01*
X130745926Y-109874500D01*
X130686490Y-109872276D01*
X130686489Y-109872276D01*
X130677110Y-109873333D01*
X130677012Y-109872471D01*
X130661603Y-109874500D01*
X129775752Y-109874500D01*
X129707631Y-109854498D01*
X129674885Y-109824010D01*
X129632549Y-109767457D01*
X129632547Y-109767455D01*
X129632546Y-109767454D01*
X129517331Y-109681204D01*
X129517327Y-109681202D01*
X129517325Y-109681201D01*
X129517326Y-109681201D01*
X129382483Y-109630909D01*
X129382486Y-109630909D01*
X129322878Y-109624500D01*
X129322873Y-109624500D01*
X128988793Y-109624500D01*
X128920672Y-109604498D01*
X128899698Y-109587595D01*
X128262602Y-108950499D01*
X127613942Y-108301839D01*
X127609239Y-108296576D01*
X127584880Y-108266031D01*
X127584881Y-108266031D01*
X127535728Y-108232519D01*
X127487879Y-108197204D01*
X127480330Y-108193214D01*
X127472674Y-108189528D01*
X127415822Y-108171992D01*
X127359696Y-108152353D01*
X127351320Y-108150767D01*
X127342905Y-108149500D01*
X127342902Y-108149500D01*
X127283426Y-108149500D01*
X127223990Y-108147276D01*
X127223989Y-108147276D01*
X127214610Y-108148333D01*
X127214512Y-108147471D01*
X127199103Y-108149500D01*
X124655690Y-108149500D01*
X124587569Y-108129498D01*
X124542899Y-108079663D01*
X124542696Y-108079255D01*
X124495173Y-107983815D01*
X124420445Y-107884859D01*
X124365006Y-107811445D01*
X124356490Y-107803682D01*
X124336401Y-107785368D01*
X124205382Y-107665927D01*
X124021734Y-107552218D01*
X124021727Y-107552215D01*
X123820327Y-107474191D01*
X123782491Y-107467118D01*
X123607999Y-107434500D01*
X123392001Y-107434500D01*
X123255030Y-107460104D01*
X123179672Y-107474191D01*
X122978272Y-107552215D01*
X122978265Y-107552218D01*
X122794617Y-107665927D01*
X122634993Y-107811445D01*
X122504828Y-107983813D01*
X122408545Y-108177174D01*
X122349437Y-108384918D01*
X122329507Y-108599999D01*
X122349437Y-108815081D01*
X122408545Y-109022825D01*
X122408548Y-109022831D01*
X122504827Y-109216185D01*
X122548216Y-109273642D01*
X122634993Y-109388554D01*
X122794617Y-109534072D01*
X122794619Y-109534073D01*
X122794620Y-109534074D01*
X122978266Y-109647782D01*
X123041324Y-109672211D01*
X123179672Y-109725808D01*
X123179675Y-109725808D01*
X123179679Y-109725810D01*
X123392001Y-109765500D01*
X123392004Y-109765500D01*
X123607996Y-109765500D01*
X123607999Y-109765500D01*
X123820321Y-109725810D01*
X123820325Y-109725808D01*
X123820327Y-109725808D01*
X123883379Y-109701380D01*
X124021734Y-109647782D01*
X124205380Y-109534074D01*
X124365005Y-109388556D01*
X124495173Y-109216185D01*
X124542899Y-109120335D01*
X124591169Y-109068273D01*
X124655690Y-109050500D01*
X127036206Y-109050500D01*
X127104327Y-109070502D01*
X127125301Y-109087405D01*
X128187595Y-110149699D01*
X128221621Y-110212011D01*
X128224500Y-110238794D01*
X128224500Y-110572864D01*
X128224502Y-110572885D01*
X128230908Y-110632480D01*
X128230908Y-110632481D01*
X128281201Y-110767326D01*
X128281203Y-110767329D01*
X128281204Y-110767331D01*
X128291138Y-110780601D01*
X128367453Y-110882546D01*
X128407064Y-110912198D01*
X128482669Y-110968796D01*
X128482671Y-110968796D01*
X128482673Y-110968798D01*
X128543030Y-110991309D01*
X128617514Y-111019090D01*
X128617517Y-111019091D01*
X128677127Y-111025500D01*
X129322872Y-111025499D01*
X129382483Y-111019091D01*
X129517331Y-110968796D01*
X129632546Y-110882546D01*
X129643754Y-110867574D01*
X129674885Y-110825990D01*
X129731721Y-110783444D01*
X129775752Y-110775500D01*
X130123544Y-110775500D01*
X130191665Y-110795502D01*
X130193545Y-110796735D01*
X130252256Y-110835964D01*
X130252260Y-110835966D01*
X130325326Y-110850500D01*
X130621656Y-110850500D01*
X130663271Y-110857571D01*
X130777799Y-110897646D01*
X130787249Y-110897999D01*
X130913510Y-110902725D01*
X131044687Y-110867576D01*
X131044689Y-110867574D01*
X131044691Y-110867574D01*
X131053341Y-110863801D01*
X131054307Y-110866016D01*
X131108163Y-110850500D01*
X131273500Y-110850500D01*
X131341621Y-110870502D01*
X131388114Y-110924158D01*
X131399500Y-110976500D01*
X131399500Y-111098500D01*
X131379498Y-111166621D01*
X131325842Y-111213114D01*
X131273500Y-111224500D01*
X130927135Y-111224500D01*
X130927114Y-111224502D01*
X130867519Y-111230908D01*
X130867518Y-111230908D01*
X130732673Y-111281201D01*
X130732670Y-111281203D01*
X130617453Y-111367453D01*
X130531203Y-111482670D01*
X130531201Y-111482673D01*
X130480909Y-111617515D01*
X130474500Y-111677121D01*
X130474500Y-112322864D01*
X130474502Y-112322885D01*
X130480908Y-112382480D01*
X130480908Y-112382481D01*
X130531201Y-112517326D01*
X130531203Y-112517329D01*
X130617453Y-112632546D01*
X130675061Y-112675670D01*
X130732669Y-112718796D01*
X130732671Y-112718796D01*
X130732673Y-112718798D01*
X130793030Y-112741309D01*
X130867514Y-112769090D01*
X130867517Y-112769091D01*
X130927127Y-112775500D01*
X131422872Y-112775499D01*
X131482483Y-112769091D01*
X131617331Y-112718796D01*
X131732546Y-112632546D01*
X131818796Y-112517331D01*
X131869091Y-112382483D01*
X131874722Y-112330104D01*
X131901892Y-112264513D01*
X131960210Y-112224023D01*
X132031161Y-112221489D01*
X132092219Y-112257717D01*
X132123998Y-112321204D01*
X132125278Y-112330107D01*
X132130908Y-112382481D01*
X132181201Y-112517326D01*
X132181203Y-112517329D01*
X132267453Y-112632546D01*
X132325061Y-112675671D01*
X132382669Y-112718796D01*
X132382671Y-112718796D01*
X132382673Y-112718798D01*
X132443030Y-112741309D01*
X132517514Y-112769090D01*
X132517517Y-112769091D01*
X132577127Y-112775500D01*
X133072872Y-112775499D01*
X133132483Y-112769091D01*
X133267331Y-112718796D01*
X133382546Y-112632546D01*
X133468796Y-112517331D01*
X133519091Y-112382483D01*
X133525500Y-112322873D01*
X133525499Y-111677128D01*
X133519091Y-111617517D01*
X133468796Y-111482669D01*
X133382546Y-111367454D01*
X133382543Y-111367452D01*
X133382542Y-111367450D01*
X133325990Y-111325115D01*
X133283444Y-111268279D01*
X133275500Y-111224248D01*
X133275500Y-111001293D01*
X133295502Y-110933172D01*
X133312405Y-110912198D01*
X133337198Y-110887405D01*
X133399510Y-110853379D01*
X133426293Y-110850500D01*
X133674674Y-110850500D01*
X133747740Y-110835966D01*
X133830601Y-110780601D01*
X133885966Y-110697740D01*
X133900500Y-110624674D01*
X133900500Y-110426500D01*
X133920502Y-110358379D01*
X133974158Y-110311886D01*
X134026500Y-110300500D01*
X135431516Y-110300500D01*
X135431519Y-110300500D01*
X135525304Y-110285646D01*
X135638342Y-110228050D01*
X135728050Y-110138342D01*
X135785646Y-110025304D01*
X135788579Y-110006788D01*
X135818992Y-109942635D01*
X135879261Y-109905109D01*
X135913028Y-109900500D01*
X135936567Y-109900500D01*
X135968481Y-109900500D01*
X137012675Y-109900500D01*
X137032384Y-109902050D01*
X137150000Y-109920679D01*
X137262223Y-109902904D01*
X137279998Y-109900090D01*
X137397266Y-109840338D01*
X137397267Y-109840336D01*
X137397269Y-109840336D01*
X137490336Y-109747269D01*
X137490338Y-109747266D01*
X137550090Y-109629998D01*
X137552904Y-109612223D01*
X137570679Y-109500000D01*
X137553028Y-109388554D01*
X137552051Y-109382383D01*
X137550500Y-109362673D01*
X137550500Y-109176500D01*
X137570502Y-109108379D01*
X137624158Y-109061886D01*
X137676500Y-109050500D01*
X137731585Y-109050500D01*
X137731587Y-109050500D01*
X137752514Y-109043700D01*
X137771723Y-109039088D01*
X137793458Y-109035646D01*
X137793466Y-109035641D01*
X137796921Y-109034520D01*
X137801372Y-109034392D01*
X137803258Y-109034094D01*
X137803296Y-109034337D01*
X137867889Y-109032489D01*
X137877482Y-109035423D01*
X137883074Y-109037379D01*
X137885899Y-109038368D01*
X138065154Y-109058565D01*
X138244409Y-109038368D01*
X138414676Y-108978789D01*
X138567416Y-108882816D01*
X138694970Y-108755262D01*
X138790943Y-108602522D01*
X138850522Y-108432255D01*
X138870719Y-108253000D01*
X138850522Y-108073745D01*
X138790943Y-107903478D01*
X138790941Y-107903475D01*
X138790941Y-107903474D01*
X138694971Y-107750739D01*
X138694970Y-107750737D01*
X138567416Y-107623183D01*
X138567414Y-107623182D01*
X138414679Y-107527212D01*
X138414676Y-107527211D01*
X138244409Y-107467632D01*
X138065154Y-107447435D01*
X137885899Y-107467632D01*
X137885896Y-107467632D01*
X137885896Y-107467633D01*
X137715631Y-107527211D01*
X137715628Y-107527212D01*
X137562893Y-107623182D01*
X137562891Y-107623183D01*
X137435337Y-107750737D01*
X137435336Y-107750739D01*
X137339366Y-107903474D01*
X137339365Y-107903477D01*
X137310071Y-107987196D01*
X137279786Y-108073745D01*
X137267857Y-108179618D01*
X137264107Y-108212900D01*
X137236603Y-108278353D01*
X137212975Y-108300717D01*
X137211727Y-108301624D01*
X137194861Y-108311962D01*
X137175261Y-108321950D01*
X137175256Y-108321953D01*
X136821953Y-108675256D01*
X136821950Y-108675261D01*
X136811962Y-108694861D01*
X136801640Y-108711705D01*
X136788704Y-108729512D01*
X136788703Y-108729513D01*
X136781904Y-108750438D01*
X136774340Y-108768698D01*
X136764354Y-108788297D01*
X136760911Y-108810030D01*
X136756298Y-108829242D01*
X136749500Y-108850165D01*
X136749500Y-108973500D01*
X136729498Y-109041621D01*
X136675842Y-109088114D01*
X136623500Y-109099500D01*
X136313027Y-109099500D01*
X136244906Y-109079498D01*
X136198413Y-109025842D01*
X136188579Y-108993216D01*
X136185646Y-108974696D01*
X136137702Y-108880601D01*
X136128050Y-108861657D01*
X136038342Y-108771949D01*
X135955053Y-108729512D01*
X135925304Y-108714354D01*
X135906785Y-108711421D01*
X135842635Y-108681009D01*
X135805109Y-108620740D01*
X135800500Y-108586973D01*
X135800500Y-108586269D01*
X135820502Y-108518148D01*
X135837405Y-108497174D01*
X135932316Y-108402262D01*
X135932317Y-108402260D01*
X135982619Y-108322206D01*
X136028289Y-108249522D01*
X136087868Y-108079255D01*
X136103000Y-107944954D01*
X136103000Y-106257546D01*
X136103000Y-106257545D01*
X136103000Y-106212306D01*
X136103000Y-106212305D01*
X136103000Y-106212303D01*
X136098717Y-106193542D01*
X136093718Y-106171641D01*
X136092537Y-106164691D01*
X136087868Y-106123245D01*
X136074089Y-106083867D01*
X136072139Y-106077095D01*
X136062860Y-106036439D01*
X136044757Y-105998848D01*
X136042064Y-105992346D01*
X136028289Y-105952978D01*
X136022952Y-105944485D01*
X136019691Y-105939294D01*
X136006100Y-105917664D01*
X136002687Y-105911490D01*
X135984591Y-105873913D01*
X135958593Y-105841313D01*
X135954503Y-105835547D01*
X135932317Y-105800239D01*
X135932316Y-105800238D01*
X135804762Y-105672684D01*
X135160646Y-105028567D01*
X134516530Y-104384451D01*
X134502265Y-104370186D01*
X134502263Y-104370185D01*
X134502262Y-104370184D01*
X134466948Y-104347994D01*
X134461191Y-104343909D01*
X134428590Y-104317911D01*
X134428588Y-104317910D01*
X134428587Y-104317909D01*
X134391020Y-104299817D01*
X134384833Y-104296398D01*
X134349522Y-104274210D01*
X134349519Y-104274209D01*
X134310162Y-104260437D01*
X134303632Y-104257732D01*
X134266065Y-104239642D01*
X134266061Y-104239640D01*
X134266058Y-104239639D01*
X134266055Y-104239638D01*
X134225399Y-104230357D01*
X134218608Y-104228401D01*
X134179259Y-104214633D01*
X134179257Y-104214632D01*
X134179255Y-104214632D01*
X134137802Y-104209960D01*
X134130865Y-104208782D01*
X134090194Y-104199500D01*
X131736768Y-104199500D01*
X131668647Y-104179498D01*
X131622154Y-104125842D01*
X131612050Y-104055568D01*
X131641544Y-103990988D01*
X131647673Y-103984405D01*
X133440542Y-102191536D01*
X133440546Y-102191531D01*
X133454816Y-102177262D01*
X133477013Y-102141933D01*
X133481074Y-102136210D01*
X133507091Y-102103587D01*
X133525190Y-102066002D01*
X133528602Y-102059831D01*
X133550789Y-102024522D01*
X133564563Y-101985154D01*
X133567264Y-101978633D01*
X133585359Y-101941061D01*
X133594638Y-101900404D01*
X133596585Y-101893642D01*
X133610368Y-101854255D01*
X133615036Y-101812814D01*
X133616221Y-101805846D01*
X133625500Y-101765195D01*
X133625500Y-101584806D01*
X133625500Y-101005046D01*
X133610368Y-100870745D01*
X133550789Y-100700478D01*
X133544810Y-100690962D01*
X133525499Y-100623928D01*
X133525499Y-100403015D01*
X133525499Y-100177128D01*
X133519091Y-100117517D01*
X133497800Y-100060435D01*
X133468798Y-99982673D01*
X133468796Y-99982669D01*
X133468795Y-99982668D01*
X133438780Y-99942573D01*
X133413969Y-99876055D01*
X133429060Y-99806681D01*
X133450549Y-99777973D01*
X133641119Y-99587404D01*
X133703432Y-99553379D01*
X133730215Y-99550500D01*
X134066764Y-99550500D01*
X134066766Y-99550500D01*
X134097199Y-99547646D01*
X134225382Y-99502793D01*
X134334650Y-99422150D01*
X134368208Y-99376680D01*
X134415291Y-99312885D01*
X134415293Y-99312881D01*
X134460144Y-99184704D01*
X134460146Y-99184699D01*
X134463000Y-99154266D01*
X134463000Y-98745734D01*
X134460146Y-98715301D01*
X134452181Y-98692538D01*
X134433219Y-98638346D01*
X134429599Y-98567442D01*
X134464889Y-98505837D01*
X134527882Y-98473090D01*
X134598580Y-98479598D01*
X134641241Y-98507634D01*
X134720725Y-98587118D01*
X134791018Y-98657411D01*
X134791027Y-98657419D01*
X134811658Y-98678050D01*
X134831260Y-98688038D01*
X134848118Y-98698369D01*
X134865909Y-98711295D01*
X134865910Y-98711295D01*
X134865911Y-98711296D01*
X134876852Y-98714851D01*
X134886826Y-98718092D01*
X134905092Y-98725658D01*
X134924696Y-98735646D01*
X134946417Y-98739086D01*
X134965645Y-98743701D01*
X134986567Y-98750500D01*
X134986568Y-98750500D01*
X136031516Y-98750500D01*
X136031519Y-98750500D01*
X136125304Y-98735646D01*
X136238342Y-98678050D01*
X136328050Y-98588342D01*
X136385646Y-98475304D01*
X136388578Y-98456785D01*
X136418991Y-98392635D01*
X136479260Y-98355109D01*
X136513027Y-98350500D01*
X136536567Y-98350500D01*
X136568481Y-98350500D01*
X137334060Y-98350500D01*
X137402181Y-98370502D01*
X137423150Y-98387400D01*
X137467609Y-98431859D01*
X137577825Y-98488017D01*
X137700000Y-98507368D01*
X137822175Y-98488017D01*
X137932391Y-98431859D01*
X138019859Y-98344391D01*
X138076017Y-98234175D01*
X138089421Y-98149542D01*
X138094032Y-98130337D01*
X138100500Y-98110433D01*
X138100500Y-97983567D01*
X138094033Y-97963665D01*
X138089421Y-97944457D01*
X138076017Y-97859825D01*
X138076015Y-97859821D01*
X138076015Y-97859820D01*
X138064233Y-97836695D01*
X138050500Y-97779494D01*
X138050500Y-97468082D01*
X138070502Y-97399961D01*
X138087400Y-97378990D01*
X138142141Y-97324249D01*
X138204451Y-97290226D01*
X138245333Y-97288138D01*
X138400000Y-97305565D01*
X138579255Y-97285368D01*
X138749522Y-97225789D01*
X138902262Y-97129816D01*
X139029816Y-97002262D01*
X139125789Y-96849522D01*
X139185368Y-96679255D01*
X139205565Y-96500000D01*
X139185368Y-96320745D01*
X139125789Y-96150478D01*
X139125787Y-96150475D01*
X139125787Y-96150474D01*
X139029817Y-95997739D01*
X139029816Y-95997737D01*
X138902262Y-95870183D01*
X138902260Y-95870182D01*
X138749525Y-95774212D01*
X138749522Y-95774211D01*
X138705528Y-95758817D01*
X138579255Y-95714632D01*
X138400000Y-95694435D01*
X138220745Y-95714632D01*
X138220742Y-95714632D01*
X138220742Y-95714633D01*
X138050477Y-95774211D01*
X138050474Y-95774212D01*
X137897739Y-95870182D01*
X137897737Y-95870183D01*
X137770183Y-95997737D01*
X137770182Y-95997739D01*
X137674212Y-96150474D01*
X137674211Y-96150477D01*
X137649749Y-96220385D01*
X137614632Y-96320745D01*
X137594435Y-96500000D01*
X137611860Y-96654657D01*
X137599612Y-96724587D01*
X137575749Y-96757858D01*
X137344516Y-96989091D01*
X137344513Y-96989094D01*
X137336994Y-96996613D01*
X137321952Y-97011654D01*
X137321950Y-97011658D01*
X137311962Y-97031258D01*
X137301640Y-97048102D01*
X137288704Y-97065909D01*
X137288703Y-97065910D01*
X137281904Y-97086835D01*
X137274340Y-97105095D01*
X137264354Y-97124694D01*
X137260911Y-97146427D01*
X137256298Y-97165639D01*
X137249500Y-97186562D01*
X137249500Y-97423500D01*
X137229498Y-97491621D01*
X137175842Y-97538114D01*
X137123500Y-97549500D01*
X136913027Y-97549500D01*
X136844906Y-97529498D01*
X136798413Y-97475842D01*
X136788579Y-97443216D01*
X136785646Y-97424696D01*
X136737552Y-97330306D01*
X136728050Y-97311657D01*
X136638342Y-97221949D01*
X136562502Y-97183307D01*
X136525304Y-97164354D01*
X136400000Y-97144508D01*
X136399999Y-97144508D01*
X136264901Y-97165905D01*
X136264582Y-97163894D01*
X136206249Y-97165560D01*
X136149189Y-97132795D01*
X135999040Y-96982646D01*
X135965014Y-96920334D01*
X135965785Y-96874294D01*
X135964154Y-96874099D01*
X135967901Y-96842886D01*
X135975500Y-96779618D01*
X135975500Y-96220382D01*
X135965117Y-96133923D01*
X135960764Y-96122885D01*
X135911413Y-95997739D01*
X135910862Y-95996342D01*
X135855456Y-95923278D01*
X135821500Y-95878499D01*
X135703658Y-95789138D01*
X135651124Y-95768421D01*
X135608254Y-95740301D01*
X134791775Y-94923822D01*
X133657292Y-93789339D01*
X133652589Y-93784076D01*
X133628230Y-93753531D01*
X133628231Y-93753531D01*
X133579078Y-93720019D01*
X133531229Y-93684704D01*
X133523680Y-93680714D01*
X133516024Y-93677028D01*
X133459172Y-93659492D01*
X133403046Y-93639853D01*
X133394670Y-93638267D01*
X133386255Y-93637000D01*
X133386252Y-93637000D01*
X133326776Y-93637000D01*
X133267340Y-93634776D01*
X133267339Y-93634776D01*
X133257960Y-93635833D01*
X133257862Y-93634971D01*
X133242453Y-93637000D01*
X132319273Y-93637000D01*
X132251152Y-93616998D01*
X132220761Y-93589558D01*
X132217316Y-93585238D01*
X132217315Y-93585237D01*
X132089762Y-93457684D01*
X131432569Y-92800490D01*
X131398543Y-92738179D01*
X131403608Y-92667364D01*
X131432569Y-92622301D01*
X133459420Y-90595450D01*
X133462175Y-90588340D01*
X133477011Y-90564728D01*
X133481083Y-90558990D01*
X133507091Y-90526379D01*
X133525190Y-90488794D01*
X133528602Y-90482623D01*
X133550789Y-90447314D01*
X133564563Y-90407946D01*
X133567264Y-90401425D01*
X133585359Y-90363853D01*
X133594638Y-90323196D01*
X133596585Y-90316434D01*
X133610368Y-90277047D01*
X133615036Y-90235606D01*
X133616221Y-90228638D01*
X133618467Y-90218798D01*
X133625500Y-90187987D01*
X133625500Y-90007598D01*
X133625500Y-90007597D01*
X133625500Y-89479822D01*
X133643844Y-89414354D01*
X133647172Y-89408882D01*
X133659103Y-89366295D01*
X133661149Y-89360210D01*
X133677376Y-89319064D01*
X133679194Y-89301379D01*
X133683204Y-89280279D01*
X133688000Y-89263165D01*
X133687999Y-89218953D01*
X133688330Y-89212505D01*
X133692852Y-89168528D01*
X133689832Y-89151010D01*
X133688000Y-89129604D01*
X133688000Y-88653388D01*
X133708002Y-88585267D01*
X133761658Y-88538774D01*
X133772370Y-88534464D01*
X133862882Y-88502793D01*
X133949501Y-88438866D01*
X133972150Y-88422150D01*
X134052791Y-88312885D01*
X134052793Y-88312881D01*
X134058875Y-88295502D01*
X134097646Y-88184699D01*
X134100500Y-88154266D01*
X134100500Y-88026500D01*
X134120502Y-87958379D01*
X134174158Y-87911886D01*
X134226500Y-87900500D01*
X135431516Y-87900500D01*
X135431519Y-87900500D01*
X135525304Y-87885646D01*
X135638342Y-87828050D01*
X135728050Y-87738342D01*
X135785646Y-87625304D01*
X135788579Y-87606788D01*
X135818992Y-87542635D01*
X135879261Y-87505109D01*
X135913028Y-87500500D01*
X137113431Y-87500500D01*
X137113433Y-87500500D01*
X137134360Y-87493700D01*
X137153569Y-87489088D01*
X137175304Y-87485646D01*
X137194910Y-87475655D01*
X137213161Y-87468095D01*
X137234090Y-87461296D01*
X137251891Y-87448362D01*
X137268741Y-87438036D01*
X137288342Y-87428050D01*
X137303718Y-87412672D01*
X137303727Y-87412666D01*
X137353900Y-87362492D01*
X137368938Y-87349649D01*
X137369143Y-87349500D01*
X137386726Y-87336726D01*
X137398905Y-87319963D01*
X137405482Y-87310910D01*
X137405484Y-87310909D01*
X137440599Y-87262577D01*
X137461296Y-87234090D01*
X137500500Y-87113433D01*
X137500500Y-86986567D01*
X137461296Y-86865910D01*
X137405484Y-86789091D01*
X137405483Y-86789090D01*
X137402574Y-86785086D01*
X137402573Y-86785086D01*
X137381722Y-86756386D01*
X137357864Y-86689518D01*
X137373946Y-86620367D01*
X137424860Y-86570887D01*
X137442041Y-86563397D01*
X137549522Y-86525789D01*
X137702262Y-86429816D01*
X137829816Y-86302262D01*
X137829819Y-86302259D01*
X137925787Y-86149525D01*
X137925786Y-86149525D01*
X137925789Y-86149522D01*
X137985368Y-85979255D01*
X138005565Y-85800000D01*
X137985368Y-85620745D01*
X137925789Y-85450478D01*
X137925787Y-85450475D01*
X137925787Y-85450474D01*
X137829817Y-85297739D01*
X137829816Y-85297737D01*
X137702262Y-85170183D01*
X137702260Y-85170182D01*
X137549525Y-85074212D01*
X137549522Y-85074211D01*
X137549521Y-85074210D01*
X137379255Y-85014632D01*
X137200000Y-84994435D01*
X137020745Y-85014632D01*
X137020742Y-85014632D01*
X137020742Y-85014633D01*
X136850477Y-85074211D01*
X136850474Y-85074212D01*
X136697739Y-85170182D01*
X136697737Y-85170183D01*
X136570183Y-85297737D01*
X136570182Y-85297739D01*
X136474212Y-85450474D01*
X136474211Y-85450477D01*
X136425322Y-85590194D01*
X136414632Y-85620745D01*
X136400085Y-85749857D01*
X136395307Y-85792265D01*
X136394435Y-85800000D01*
X136414632Y-85979255D01*
X136414633Y-85979257D01*
X136474210Y-86149521D01*
X136488467Y-86172210D01*
X136530187Y-86238608D01*
X136549500Y-86305642D01*
X136549500Y-86573500D01*
X136529498Y-86641621D01*
X136475842Y-86688114D01*
X136423500Y-86699500D01*
X136418083Y-86699500D01*
X136349962Y-86679498D01*
X136328988Y-86662595D01*
X136312495Y-86646102D01*
X136299653Y-86631067D01*
X136286724Y-86613271D01*
X136268926Y-86600340D01*
X136253899Y-86587506D01*
X136060909Y-86394516D01*
X136060908Y-86394515D01*
X136059348Y-86392955D01*
X136059334Y-86392942D01*
X136038342Y-86371950D01*
X136038341Y-86371949D01*
X136038340Y-86371948D01*
X136018738Y-86361960D01*
X136001883Y-86351631D01*
X135984091Y-86338704D01*
X135984089Y-86338703D01*
X135963169Y-86331906D01*
X135944906Y-86324341D01*
X135925306Y-86314355D01*
X135925305Y-86314354D01*
X135925304Y-86314354D01*
X135925302Y-86314353D01*
X135925300Y-86314353D01*
X135903577Y-86310912D01*
X135884358Y-86306298D01*
X135863434Y-86299500D01*
X135863433Y-86299500D01*
X135841436Y-86299500D01*
X135821726Y-86297949D01*
X135820387Y-86297737D01*
X135800000Y-86294508D01*
X135779613Y-86297737D01*
X135778274Y-86297949D01*
X135758564Y-86299500D01*
X135736562Y-86299500D01*
X135715639Y-86306298D01*
X135696427Y-86310911D01*
X135664906Y-86315905D01*
X135664587Y-86313896D01*
X135606237Y-86315557D01*
X135549188Y-86282795D01*
X135435721Y-86169328D01*
X135401695Y-86107016D01*
X135406760Y-86036201D01*
X135426303Y-86001677D01*
X135484591Y-85928587D01*
X135562860Y-85766061D01*
X135603000Y-85590194D01*
X135603000Y-85409806D01*
X135562860Y-85233939D01*
X135484591Y-85071413D01*
X135484590Y-85071413D01*
X135400327Y-84965749D01*
X134886752Y-84452174D01*
X134886751Y-84452173D01*
X134854762Y-84420184D01*
X134854761Y-84420183D01*
X134842622Y-84412555D01*
X134819448Y-84397994D01*
X134813691Y-84393909D01*
X134781090Y-84367911D01*
X134781088Y-84367910D01*
X134781087Y-84367909D01*
X134743520Y-84349817D01*
X134737333Y-84346398D01*
X134702022Y-84324210D01*
X134702019Y-84324209D01*
X134662662Y-84310437D01*
X134656132Y-84307732D01*
X134618565Y-84289642D01*
X134618561Y-84289640D01*
X134618558Y-84289639D01*
X134618555Y-84289638D01*
X134577899Y-84280357D01*
X134571108Y-84278401D01*
X134531759Y-84264633D01*
X134531757Y-84264632D01*
X134531755Y-84264632D01*
X134490302Y-84259960D01*
X134483365Y-84258782D01*
X134442694Y-84249500D01*
X133120443Y-84249500D01*
X133052322Y-84229498D01*
X133031348Y-84212595D01*
X132097067Y-83278314D01*
X132063041Y-83216002D01*
X132061063Y-83204253D01*
X132052617Y-83133923D01*
X132033633Y-83085784D01*
X132013311Y-83034250D01*
X131998362Y-82996342D01*
X131963574Y-82950467D01*
X131909000Y-82878499D01*
X131791159Y-82789139D01*
X131791158Y-82789138D01*
X131791156Y-82789137D01*
X131653577Y-82734882D01*
X131569988Y-82724844D01*
X131504738Y-82696862D01*
X131495917Y-82688839D01*
X131391858Y-82584780D01*
X131270067Y-82462990D01*
X131236043Y-82400678D01*
X131241107Y-82329863D01*
X131270066Y-82284802D01*
X133257464Y-80297405D01*
X133319777Y-80263379D01*
X133346560Y-80260500D01*
X134061336Y-80260500D01*
X134129457Y-80280502D01*
X134175950Y-80334158D01*
X134180666Y-80347763D01*
X134183066Y-80353851D01*
X134204735Y-80392391D01*
X134207605Y-80398169D01*
X134225219Y-80438718D01*
X134225222Y-80438722D01*
X134236432Y-80452502D01*
X134248519Y-80470260D01*
X134257234Y-80485759D01*
X134288500Y-80517025D01*
X134292817Y-80521808D01*
X134320718Y-80556105D01*
X134320723Y-80556110D01*
X134335242Y-80566358D01*
X134351676Y-80580201D01*
X136264093Y-82492618D01*
X136309320Y-82541044D01*
X136340437Y-82559966D01*
X136347089Y-82564012D01*
X136352423Y-82567641D01*
X136387658Y-82594361D01*
X136404203Y-82600885D01*
X136423429Y-82610435D01*
X136438618Y-82619672D01*
X136481203Y-82631603D01*
X136487300Y-82633654D01*
X136528436Y-82649876D01*
X136546117Y-82651693D01*
X136567217Y-82655704D01*
X136584335Y-82660500D01*
X136628547Y-82660500D01*
X136634995Y-82660831D01*
X136678970Y-82665352D01*
X136678970Y-82665351D01*
X136678972Y-82665352D01*
X136689356Y-82663561D01*
X136696489Y-82662332D01*
X136717896Y-82660500D01*
X137880603Y-82660500D01*
X137946826Y-82662762D01*
X137972730Y-82656448D01*
X137989772Y-82652296D01*
X137996116Y-82651090D01*
X138001444Y-82650357D01*
X138039920Y-82645070D01*
X138056225Y-82637986D01*
X138076590Y-82631138D01*
X138093852Y-82626933D01*
X138132402Y-82605256D01*
X138138167Y-82602394D01*
X138178720Y-82584780D01*
X138192506Y-82573563D01*
X138210272Y-82561473D01*
X138225759Y-82552766D01*
X138257031Y-82521491D01*
X138261793Y-82517193D01*
X138296108Y-82489278D01*
X138306358Y-82474756D01*
X138320194Y-82458329D01*
X138830325Y-81948197D01*
X138877804Y-81918365D01*
X138895245Y-81912263D01*
X139005725Y-81830725D01*
X139087263Y-81720245D01*
X139132614Y-81590639D01*
X139135500Y-81559864D01*
X139135500Y-81300584D01*
X139155502Y-81232463D01*
X139158455Y-81228805D01*
X139158165Y-81228604D01*
X139158174Y-81228591D01*
X139172143Y-81211853D01*
X139172576Y-81211318D01*
X139172662Y-81211232D01*
X139172679Y-81211212D01*
X139175112Y-81208779D01*
X139188050Y-81195842D01*
X139198041Y-81176232D01*
X139208361Y-81159392D01*
X139221296Y-81141589D01*
X139228094Y-81120664D01*
X139235654Y-81102412D01*
X139245646Y-81082804D01*
X139249088Y-81061068D01*
X139253701Y-81041854D01*
X139260500Y-81020933D01*
X139260500Y-80894067D01*
X139260500Y-80894066D01*
X139260500Y-79618481D01*
X139260500Y-79586567D01*
X139253701Y-79565645D01*
X139249086Y-79546417D01*
X139245646Y-79524696D01*
X139245646Y-79524695D01*
X139235658Y-79505092D01*
X139228092Y-79486826D01*
X139221296Y-79465912D01*
X139221295Y-79465909D01*
X139208369Y-79448118D01*
X139198038Y-79431260D01*
X139188050Y-79411658D01*
X139188048Y-79411655D01*
X139185488Y-79409095D01*
X139183370Y-79405217D01*
X139182223Y-79403638D01*
X139182427Y-79403489D01*
X139151462Y-79346783D01*
X139156527Y-79275968D01*
X139185486Y-79230906D01*
X139355484Y-79060909D01*
X139355484Y-79060908D01*
X139362667Y-79053726D01*
X139362673Y-79053717D01*
X139378050Y-79038342D01*
X139388036Y-79018741D01*
X139398362Y-79001891D01*
X139411296Y-78984090D01*
X139418095Y-78963161D01*
X139425655Y-78944910D01*
X139435646Y-78925304D01*
X139439088Y-78903569D01*
X139443700Y-78884360D01*
X139450500Y-78863433D01*
X139450500Y-78736567D01*
X139450500Y-77218081D01*
X139470502Y-77149961D01*
X139487399Y-77128992D01*
X139570330Y-77046061D01*
X139632638Y-77012039D01*
X139703454Y-77017103D01*
X139716626Y-77022893D01*
X139770001Y-77050090D01*
X139801273Y-77055042D01*
X139900000Y-77070679D01*
X140012223Y-77052904D01*
X140029998Y-77050090D01*
X140147266Y-76990338D01*
X140147267Y-76990336D01*
X140147269Y-76990336D01*
X140240336Y-76897269D01*
X140251938Y-76874500D01*
X140300090Y-76779998D01*
X140310371Y-76715081D01*
X140320679Y-76650000D01*
X140300090Y-76520003D01*
X140300090Y-76520001D01*
X140241076Y-76404183D01*
X140227971Y-76334406D01*
X140254670Y-76268621D01*
X140311727Y-76228049D01*
X140315050Y-76226885D01*
X140315059Y-76226885D01*
X140485326Y-76167306D01*
X140498501Y-76159028D01*
X140569597Y-76114355D01*
X140638066Y-76071333D01*
X140765620Y-75943779D01*
X140861593Y-75791039D01*
X140921172Y-75620772D01*
X140941369Y-75441517D01*
X140921172Y-75262262D01*
X140861593Y-75091995D01*
X140861591Y-75091992D01*
X140861591Y-75091991D01*
X140765621Y-74939256D01*
X140765620Y-74939254D01*
X140638066Y-74811700D01*
X140638064Y-74811699D01*
X140485329Y-74715729D01*
X140485326Y-74715728D01*
X140380109Y-74678911D01*
X140315059Y-74656149D01*
X140135804Y-74635952D01*
X139956549Y-74656149D01*
X139956546Y-74656149D01*
X139956546Y-74656150D01*
X139786281Y-74715728D01*
X139743535Y-74742587D01*
X139675214Y-74761892D01*
X139607301Y-74741196D01*
X139561358Y-74687069D01*
X139550500Y-74635899D01*
X139550500Y-74376567D01*
X139543703Y-74355650D01*
X139539086Y-74336417D01*
X139535646Y-74314696D01*
X139535646Y-74314695D01*
X139525658Y-74295092D01*
X139518092Y-74276826D01*
X139511296Y-74255912D01*
X139511295Y-74255909D01*
X139498369Y-74238118D01*
X139488038Y-74221260D01*
X139478050Y-74201658D01*
X139472802Y-74196410D01*
X139457419Y-74181027D01*
X139457402Y-74181008D01*
X139069363Y-73792969D01*
X139069334Y-73792942D01*
X139048342Y-73771950D01*
X139048341Y-73771949D01*
X139048340Y-73771948D01*
X139028738Y-73761960D01*
X139011883Y-73751631D01*
X138994091Y-73738704D01*
X138994089Y-73738703D01*
X138973169Y-73731906D01*
X138954906Y-73724341D01*
X138935306Y-73714355D01*
X138935305Y-73714354D01*
X138935304Y-73714354D01*
X138935302Y-73714353D01*
X138935300Y-73714353D01*
X138913577Y-73710912D01*
X138894358Y-73706298D01*
X138873434Y-73699500D01*
X138873433Y-73699500D01*
X138841519Y-73699500D01*
X138765952Y-73699500D01*
X138697831Y-73679498D01*
X138651338Y-73625842D01*
X138641234Y-73555568D01*
X138670728Y-73490988D01*
X138724337Y-73454571D01*
X138845239Y-73412265D01*
X138845237Y-73412265D01*
X138845245Y-73412263D01*
X138955725Y-73330725D01*
X139037263Y-73220245D01*
X139082614Y-73090639D01*
X139085500Y-73059864D01*
X139085500Y-72640136D01*
X139082614Y-72609361D01*
X139037263Y-72479755D01*
X138961101Y-72376560D01*
X138937655Y-72318893D01*
X138935070Y-72300080D01*
X138927988Y-72283778D01*
X138921137Y-72263403D01*
X138916934Y-72246153D01*
X138916933Y-72246148D01*
X138895257Y-72207597D01*
X138892397Y-72201838D01*
X138884709Y-72184140D01*
X138874782Y-72161283D01*
X138874778Y-72161277D01*
X138863564Y-72147493D01*
X138851475Y-72129731D01*
X138842765Y-72114240D01*
X138842761Y-72114235D01*
X138811507Y-72082981D01*
X138807182Y-72078190D01*
X138779281Y-72043895D01*
X138779273Y-72043888D01*
X138764751Y-72033637D01*
X138748326Y-72019801D01*
X138435906Y-71707381D01*
X138435905Y-71707381D01*
X138390683Y-71658958D01*
X138390682Y-71658957D01*
X138371401Y-71647232D01*
X138352899Y-71635980D01*
X138347575Y-71632356D01*
X138312339Y-71605637D01*
X138295806Y-71599117D01*
X138276568Y-71589562D01*
X138261383Y-71580328D01*
X138261380Y-71580327D01*
X138235468Y-71573067D01*
X138218802Y-71568397D01*
X138212695Y-71566343D01*
X138171566Y-71550124D01*
X138159456Y-71548878D01*
X138153873Y-71548304D01*
X138132784Y-71544296D01*
X138115665Y-71539500D01*
X138115662Y-71539500D01*
X138071453Y-71539500D01*
X138065005Y-71539169D01*
X138021029Y-71534647D01*
X138003511Y-71537668D01*
X137982104Y-71539500D01*
X134107266Y-71539500D01*
X134041043Y-71537238D01*
X134041042Y-71537238D01*
X133998087Y-71547705D01*
X133991747Y-71548910D01*
X133947956Y-71554928D01*
X133947944Y-71554931D01*
X133931637Y-71562014D01*
X133911282Y-71568858D01*
X133894023Y-71573064D01*
X133894015Y-71573067D01*
X133855472Y-71594737D01*
X133849695Y-71597607D01*
X133809147Y-71615220D01*
X133795361Y-71626436D01*
X133777608Y-71638518D01*
X133762114Y-71647230D01*
X133762112Y-71647232D01*
X133730843Y-71678499D01*
X133726054Y-71682821D01*
X133691762Y-71710720D01*
X133691761Y-71710721D01*
X133681509Y-71725244D01*
X133667671Y-71741671D01*
X133533145Y-71876199D01*
X133470833Y-71910224D01*
X133444049Y-71913104D01*
X131170164Y-71913104D01*
X131102043Y-71893102D01*
X131081069Y-71876199D01*
X130505370Y-71300500D01*
X129107044Y-69902174D01*
X129107043Y-69902173D01*
X129075054Y-69870184D01*
X129075053Y-69870183D01*
X129062914Y-69862555D01*
X129039740Y-69847994D01*
X129033983Y-69843909D01*
X129001382Y-69817911D01*
X129001380Y-69817910D01*
X129001379Y-69817909D01*
X128963812Y-69799817D01*
X128957625Y-69796398D01*
X128922314Y-69774210D01*
X128922311Y-69774209D01*
X128882954Y-69760437D01*
X128876424Y-69757732D01*
X128838857Y-69739642D01*
X128838853Y-69739640D01*
X128838850Y-69739639D01*
X128838847Y-69739638D01*
X128798191Y-69730357D01*
X128791400Y-69728401D01*
X128752051Y-69714633D01*
X128752049Y-69714632D01*
X128752047Y-69714632D01*
X128710594Y-69709960D01*
X128703657Y-69708782D01*
X128662986Y-69699500D01*
X128617746Y-69699500D01*
X121080195Y-69699500D01*
X120899806Y-69699500D01*
X120899800Y-69699500D01*
X120859139Y-69708779D01*
X120852174Y-69709963D01*
X120810745Y-69714631D01*
X120771383Y-69728403D01*
X120764593Y-69730360D01*
X120723942Y-69739639D01*
X120723933Y-69739642D01*
X120686358Y-69757735D01*
X120679832Y-69760439D01*
X120640477Y-69774211D01*
X120605167Y-69796396D01*
X120598984Y-69799813D01*
X120561417Y-69817906D01*
X120561411Y-69817909D01*
X120528813Y-69843905D01*
X120523049Y-69847995D01*
X120487740Y-69870182D01*
X120487737Y-69870184D01*
X120396234Y-69961684D01*
X120396217Y-69961704D01*
X119057422Y-71300500D01*
X117497738Y-72860184D01*
X117433959Y-72923962D01*
X117370181Y-72987740D01*
X117347995Y-73023048D01*
X117343906Y-73028811D01*
X117317910Y-73061410D01*
X117317907Y-73061415D01*
X117299813Y-73098987D01*
X117296394Y-73105172D01*
X117274210Y-73140479D01*
X117274208Y-73140483D01*
X117260438Y-73179835D01*
X117257733Y-73186365D01*
X117239642Y-73223933D01*
X117239639Y-73223940D01*
X117230360Y-73264593D01*
X117228403Y-73271383D01*
X117214631Y-73310745D01*
X117209963Y-73352174D01*
X117208779Y-73359139D01*
X117199500Y-73399800D01*
X117199499Y-73399803D01*
X117199499Y-82590194D01*
X117202939Y-82605264D01*
X117208782Y-82630865D01*
X117209960Y-82637802D01*
X117214632Y-82679255D01*
X117214632Y-82679257D01*
X117214633Y-82679259D01*
X117228401Y-82718608D01*
X117230357Y-82725399D01*
X117239638Y-82766055D01*
X117239642Y-82766065D01*
X117257732Y-82803632D01*
X117260437Y-82810162D01*
X117274209Y-82849519D01*
X117274210Y-82849522D01*
X117296398Y-82884833D01*
X117299817Y-82891020D01*
X117317909Y-82928586D01*
X117317911Y-82928590D01*
X117343909Y-82961191D01*
X117347994Y-82966948D01*
X117370184Y-83002262D01*
X117402173Y-83034251D01*
X117402174Y-83034252D01*
X117572163Y-83204241D01*
X117673826Y-83305904D01*
X117707852Y-83368216D01*
X117702787Y-83439031D01*
X117673826Y-83484094D01*
X116480015Y-84677905D01*
X116480013Y-84677908D01*
X116370185Y-84787735D01*
X116370181Y-84787740D01*
X116347995Y-84823048D01*
X116343906Y-84828811D01*
X116317910Y-84861410D01*
X116317909Y-84861411D01*
X116309838Y-84878172D01*
X116262259Y-84930867D01*
X116196317Y-84949500D01*
X113477321Y-84949500D01*
X113409200Y-84929498D01*
X113388226Y-84912595D01*
X112587405Y-84111774D01*
X112553379Y-84049462D01*
X112550500Y-84022679D01*
X112550500Y-83883765D01*
X112570502Y-83815644D01*
X112624158Y-83769151D01*
X112644748Y-83761831D01*
X113076954Y-83649294D01*
X113076958Y-83649292D01*
X113076958Y-83649293D01*
X113266453Y-83582339D01*
X113507963Y-83497009D01*
X113536535Y-83484094D01*
X113733633Y-83395000D01*
X113924506Y-83308720D01*
X114207812Y-83150454D01*
X114323576Y-83085786D01*
X114323575Y-83085786D01*
X114323579Y-83085784D01*
X114702309Y-82829808D01*
X114781266Y-82766055D01*
X115057963Y-82542638D01*
X115128785Y-82474760D01*
X115387988Y-82226334D01*
X115587135Y-82000058D01*
X115689994Y-81883189D01*
X115689994Y-81883188D01*
X115689996Y-81883186D01*
X115961816Y-81515661D01*
X115961815Y-81515661D01*
X115961819Y-81515657D01*
X115961818Y-81515657D01*
X116019501Y-81421975D01*
X116201488Y-81126409D01*
X116407286Y-80718233D01*
X116472433Y-80556110D01*
X116532959Y-80405484D01*
X116577727Y-80294075D01*
X116577727Y-80294072D01*
X116577730Y-80294067D01*
X116711583Y-79856991D01*
X116807889Y-79410133D01*
X116807889Y-79410132D01*
X116840002Y-79159353D01*
X116865951Y-78956710D01*
X116885352Y-78500000D01*
X116865951Y-78043290D01*
X116832677Y-77783444D01*
X116807889Y-77589868D01*
X116807889Y-77589867D01*
X116711583Y-77143009D01*
X116577730Y-76705933D01*
X116407288Y-76281771D01*
X116364948Y-76197794D01*
X116201488Y-75873591D01*
X115961818Y-75484343D01*
X115961819Y-75484343D01*
X115859304Y-75345734D01*
X115689996Y-75116814D01*
X115689994Y-75116811D01*
X115421461Y-74811699D01*
X115387988Y-74773666D01*
X115381722Y-74767660D01*
X115057963Y-74457362D01*
X114702309Y-74170192D01*
X114631453Y-74122302D01*
X114323579Y-73914216D01*
X114323575Y-73914214D01*
X114323576Y-73914214D01*
X114196304Y-73843116D01*
X113924506Y-73691280D01*
X113507963Y-73502991D01*
X113251183Y-73412265D01*
X113076958Y-73350707D01*
X113076954Y-73350706D01*
X112634582Y-73235521D01*
X112634578Y-73235520D01*
X112634573Y-73235519D01*
X112184043Y-73158268D01*
X112184040Y-73158267D01*
X112184036Y-73158267D01*
X111728561Y-73119500D01*
X111271439Y-73119500D01*
X110815964Y-73158267D01*
X110815959Y-73158267D01*
X110815957Y-73158268D01*
X110365427Y-73235519D01*
X110365421Y-73235520D01*
X110365418Y-73235521D01*
X109923046Y-73350706D01*
X109923041Y-73350707D01*
X109923042Y-73350707D01*
X109748817Y-73412265D01*
X109492037Y-73502991D01*
X109075494Y-73691280D01*
X108803696Y-73843116D01*
X108676424Y-73914214D01*
X108676425Y-73914214D01*
X108676421Y-73914216D01*
X108368547Y-74122302D01*
X108297691Y-74170192D01*
X107942037Y-74457362D01*
X107612014Y-74773663D01*
X107310006Y-75116811D01*
X107310004Y-75116814D01*
X107140696Y-75345734D01*
X107038181Y-75484343D01*
X107038182Y-75484343D01*
X106798512Y-75873591D01*
X106635052Y-76197794D01*
X106592712Y-76281771D01*
X106422270Y-76705933D01*
X106288417Y-77143009D01*
X106192111Y-77589867D01*
X106192111Y-77589868D01*
X106167323Y-77783444D01*
X106134049Y-78043290D01*
X106114648Y-78500000D01*
X103924699Y-78500000D01*
X103900254Y-66326253D01*
X103920119Y-66258092D01*
X103973682Y-66211492D01*
X104026254Y-66200000D01*
X147874000Y-66200000D01*
X147942121Y-66220002D01*
G37*
%TD.AperFunction*%
%TD*%
M02*
