%TF.GenerationSoftware,KiCad,Pcbnew,7.0.7*%
%TF.CreationDate,2024-02-20T21:30:14-08:00*%
%TF.ProjectId,GD_test,47445f74-6573-4742-9e6b-696361645f70,rev?*%
%TF.SameCoordinates,Original*%
%TF.FileFunction,Legend,Top*%
%TF.FilePolarity,Positive*%
%FSLAX46Y46*%
G04 Gerber Fmt 4.6, Leading zero omitted, Abs format (unit mm)*
G04 Created by KiCad (PCBNEW 7.0.7) date 2024-02-20 21:30:14*
%MOMM*%
%LPD*%
G01*
G04 APERTURE LIST*
%ADD10C,0.100000*%
%ADD11C,0.150000*%
%ADD12C,0.127000*%
%ADD13C,0.200000*%
%ADD14C,0.120000*%
G04 APERTURE END LIST*
D10*
X138296741Y-112957419D02*
X138249122Y-112933609D01*
X138249122Y-112933609D02*
X138177693Y-112933609D01*
X138177693Y-112933609D02*
X138106265Y-112957419D01*
X138106265Y-112957419D02*
X138058646Y-113005038D01*
X138058646Y-113005038D02*
X138034836Y-113052657D01*
X138034836Y-113052657D02*
X138011027Y-113147895D01*
X138011027Y-113147895D02*
X138011027Y-113219323D01*
X138011027Y-113219323D02*
X138034836Y-113314561D01*
X138034836Y-113314561D02*
X138058646Y-113362180D01*
X138058646Y-113362180D02*
X138106265Y-113409800D01*
X138106265Y-113409800D02*
X138177693Y-113433609D01*
X138177693Y-113433609D02*
X138225312Y-113433609D01*
X138225312Y-113433609D02*
X138296741Y-113409800D01*
X138296741Y-113409800D02*
X138320550Y-113385990D01*
X138320550Y-113385990D02*
X138320550Y-113219323D01*
X138320550Y-113219323D02*
X138225312Y-113219323D01*
X138749122Y-113433609D02*
X138749122Y-113171704D01*
X138749122Y-113171704D02*
X138725312Y-113124085D01*
X138725312Y-113124085D02*
X138677693Y-113100276D01*
X138677693Y-113100276D02*
X138582455Y-113100276D01*
X138582455Y-113100276D02*
X138534836Y-113124085D01*
X138749122Y-113409800D02*
X138701503Y-113433609D01*
X138701503Y-113433609D02*
X138582455Y-113433609D01*
X138582455Y-113433609D02*
X138534836Y-113409800D01*
X138534836Y-113409800D02*
X138511027Y-113362180D01*
X138511027Y-113362180D02*
X138511027Y-113314561D01*
X138511027Y-113314561D02*
X138534836Y-113266942D01*
X138534836Y-113266942D02*
X138582455Y-113243133D01*
X138582455Y-113243133D02*
X138701503Y-113243133D01*
X138701503Y-113243133D02*
X138749122Y-113219323D01*
X138987217Y-113433609D02*
X138987217Y-112933609D01*
X138987217Y-112933609D02*
X139272931Y-113433609D01*
X139272931Y-113433609D02*
X139272931Y-112933609D01*
X139891979Y-113433609D02*
X139891979Y-112933609D01*
X139891979Y-112933609D02*
X140011027Y-112933609D01*
X140011027Y-112933609D02*
X140082455Y-112957419D01*
X140082455Y-112957419D02*
X140130074Y-113005038D01*
X140130074Y-113005038D02*
X140153884Y-113052657D01*
X140153884Y-113052657D02*
X140177693Y-113147895D01*
X140177693Y-113147895D02*
X140177693Y-113219323D01*
X140177693Y-113219323D02*
X140153884Y-113314561D01*
X140153884Y-113314561D02*
X140130074Y-113362180D01*
X140130074Y-113362180D02*
X140082455Y-113409800D01*
X140082455Y-113409800D02*
X140011027Y-113433609D01*
X140011027Y-113433609D02*
X139891979Y-113433609D01*
X140391979Y-113433609D02*
X140391979Y-113100276D01*
X140391979Y-113195514D02*
X140415789Y-113147895D01*
X140415789Y-113147895D02*
X140439598Y-113124085D01*
X140439598Y-113124085D02*
X140487217Y-113100276D01*
X140487217Y-113100276D02*
X140534836Y-113100276D01*
X140701503Y-113433609D02*
X140701503Y-113100276D01*
X140701503Y-112933609D02*
X140677694Y-112957419D01*
X140677694Y-112957419D02*
X140701503Y-112981228D01*
X140701503Y-112981228D02*
X140725313Y-112957419D01*
X140725313Y-112957419D02*
X140701503Y-112933609D01*
X140701503Y-112933609D02*
X140701503Y-112981228D01*
X140891979Y-113100276D02*
X141011027Y-113433609D01*
X141011027Y-113433609D02*
X141130074Y-113100276D01*
X141511026Y-113409800D02*
X141463407Y-113433609D01*
X141463407Y-113433609D02*
X141368169Y-113433609D01*
X141368169Y-113433609D02*
X141320550Y-113409800D01*
X141320550Y-113409800D02*
X141296741Y-113362180D01*
X141296741Y-113362180D02*
X141296741Y-113171704D01*
X141296741Y-113171704D02*
X141320550Y-113124085D01*
X141320550Y-113124085D02*
X141368169Y-113100276D01*
X141368169Y-113100276D02*
X141463407Y-113100276D01*
X141463407Y-113100276D02*
X141511026Y-113124085D01*
X141511026Y-113124085D02*
X141534836Y-113171704D01*
X141534836Y-113171704D02*
X141534836Y-113219323D01*
X141534836Y-113219323D02*
X141296741Y-113266942D01*
X141749121Y-113433609D02*
X141749121Y-113100276D01*
X141749121Y-113195514D02*
X141772931Y-113147895D01*
X141772931Y-113147895D02*
X141796740Y-113124085D01*
X141796740Y-113124085D02*
X141844359Y-113100276D01*
X141844359Y-113100276D02*
X141891978Y-113100276D01*
X142368169Y-112933609D02*
X142653883Y-112933609D01*
X142511026Y-113433609D02*
X142511026Y-112933609D01*
X143011025Y-113409800D02*
X142963406Y-113433609D01*
X142963406Y-113433609D02*
X142868168Y-113433609D01*
X142868168Y-113433609D02*
X142820549Y-113409800D01*
X142820549Y-113409800D02*
X142796740Y-113362180D01*
X142796740Y-113362180D02*
X142796740Y-113171704D01*
X142796740Y-113171704D02*
X142820549Y-113124085D01*
X142820549Y-113124085D02*
X142868168Y-113100276D01*
X142868168Y-113100276D02*
X142963406Y-113100276D01*
X142963406Y-113100276D02*
X143011025Y-113124085D01*
X143011025Y-113124085D02*
X143034835Y-113171704D01*
X143034835Y-113171704D02*
X143034835Y-113219323D01*
X143034835Y-113219323D02*
X142796740Y-113266942D01*
X143225311Y-113409800D02*
X143272930Y-113433609D01*
X143272930Y-113433609D02*
X143368168Y-113433609D01*
X143368168Y-113433609D02*
X143415787Y-113409800D01*
X143415787Y-113409800D02*
X143439596Y-113362180D01*
X143439596Y-113362180D02*
X143439596Y-113338371D01*
X143439596Y-113338371D02*
X143415787Y-113290752D01*
X143415787Y-113290752D02*
X143368168Y-113266942D01*
X143368168Y-113266942D02*
X143296739Y-113266942D01*
X143296739Y-113266942D02*
X143249120Y-113243133D01*
X143249120Y-113243133D02*
X143225311Y-113195514D01*
X143225311Y-113195514D02*
X143225311Y-113171704D01*
X143225311Y-113171704D02*
X143249120Y-113124085D01*
X143249120Y-113124085D02*
X143296739Y-113100276D01*
X143296739Y-113100276D02*
X143368168Y-113100276D01*
X143368168Y-113100276D02*
X143415787Y-113124085D01*
X143582454Y-113100276D02*
X143772930Y-113100276D01*
X143653882Y-112933609D02*
X143653882Y-113362180D01*
X143653882Y-113362180D02*
X143677692Y-113409800D01*
X143677692Y-113409800D02*
X143725311Y-113433609D01*
X143725311Y-113433609D02*
X143772930Y-113433609D01*
X144487215Y-113171704D02*
X144558643Y-113195514D01*
X144558643Y-113195514D02*
X144582453Y-113219323D01*
X144582453Y-113219323D02*
X144606262Y-113266942D01*
X144606262Y-113266942D02*
X144606262Y-113338371D01*
X144606262Y-113338371D02*
X144582453Y-113385990D01*
X144582453Y-113385990D02*
X144558643Y-113409800D01*
X144558643Y-113409800D02*
X144511024Y-113433609D01*
X144511024Y-113433609D02*
X144320548Y-113433609D01*
X144320548Y-113433609D02*
X144320548Y-112933609D01*
X144320548Y-112933609D02*
X144487215Y-112933609D01*
X144487215Y-112933609D02*
X144534834Y-112957419D01*
X144534834Y-112957419D02*
X144558643Y-112981228D01*
X144558643Y-112981228D02*
X144582453Y-113028847D01*
X144582453Y-113028847D02*
X144582453Y-113076466D01*
X144582453Y-113076466D02*
X144558643Y-113124085D01*
X144558643Y-113124085D02*
X144534834Y-113147895D01*
X144534834Y-113147895D02*
X144487215Y-113171704D01*
X144487215Y-113171704D02*
X144320548Y-113171704D01*
X144891977Y-113433609D02*
X144844358Y-113409800D01*
X144844358Y-113409800D02*
X144820548Y-113385990D01*
X144820548Y-113385990D02*
X144796739Y-113338371D01*
X144796739Y-113338371D02*
X144796739Y-113195514D01*
X144796739Y-113195514D02*
X144820548Y-113147895D01*
X144820548Y-113147895D02*
X144844358Y-113124085D01*
X144844358Y-113124085D02*
X144891977Y-113100276D01*
X144891977Y-113100276D02*
X144963405Y-113100276D01*
X144963405Y-113100276D02*
X145011024Y-113124085D01*
X145011024Y-113124085D02*
X145034834Y-113147895D01*
X145034834Y-113147895D02*
X145058643Y-113195514D01*
X145058643Y-113195514D02*
X145058643Y-113338371D01*
X145058643Y-113338371D02*
X145034834Y-113385990D01*
X145034834Y-113385990D02*
X145011024Y-113409800D01*
X145011024Y-113409800D02*
X144963405Y-113433609D01*
X144963405Y-113433609D02*
X144891977Y-113433609D01*
X145487215Y-113433609D02*
X145487215Y-113171704D01*
X145487215Y-113171704D02*
X145463405Y-113124085D01*
X145463405Y-113124085D02*
X145415786Y-113100276D01*
X145415786Y-113100276D02*
X145320548Y-113100276D01*
X145320548Y-113100276D02*
X145272929Y-113124085D01*
X145487215Y-113409800D02*
X145439596Y-113433609D01*
X145439596Y-113433609D02*
X145320548Y-113433609D01*
X145320548Y-113433609D02*
X145272929Y-113409800D01*
X145272929Y-113409800D02*
X145249120Y-113362180D01*
X145249120Y-113362180D02*
X145249120Y-113314561D01*
X145249120Y-113314561D02*
X145272929Y-113266942D01*
X145272929Y-113266942D02*
X145320548Y-113243133D01*
X145320548Y-113243133D02*
X145439596Y-113243133D01*
X145439596Y-113243133D02*
X145487215Y-113219323D01*
X145725310Y-113433609D02*
X145725310Y-113100276D01*
X145725310Y-113195514D02*
X145749120Y-113147895D01*
X145749120Y-113147895D02*
X145772929Y-113124085D01*
X145772929Y-113124085D02*
X145820548Y-113100276D01*
X145820548Y-113100276D02*
X145868167Y-113100276D01*
X146249120Y-113433609D02*
X146249120Y-112933609D01*
X146249120Y-113409800D02*
X146201501Y-113433609D01*
X146201501Y-113433609D02*
X146106263Y-113433609D01*
X146106263Y-113433609D02*
X146058644Y-113409800D01*
X146058644Y-113409800D02*
X146034834Y-113385990D01*
X146034834Y-113385990D02*
X146011025Y-113338371D01*
X146011025Y-113338371D02*
X146011025Y-113195514D01*
X146011025Y-113195514D02*
X146034834Y-113147895D01*
X146034834Y-113147895D02*
X146058644Y-113124085D01*
X146058644Y-113124085D02*
X146106263Y-113100276D01*
X146106263Y-113100276D02*
X146201501Y-113100276D01*
X146201501Y-113100276D02*
X146249120Y-113124085D01*
X138299122Y-114209800D02*
X138251503Y-114233609D01*
X138251503Y-114233609D02*
X138156265Y-114233609D01*
X138156265Y-114233609D02*
X138108646Y-114209800D01*
X138108646Y-114209800D02*
X138084836Y-114185990D01*
X138084836Y-114185990D02*
X138061027Y-114138371D01*
X138061027Y-114138371D02*
X138061027Y-113995514D01*
X138061027Y-113995514D02*
X138084836Y-113947895D01*
X138084836Y-113947895D02*
X138108646Y-113924085D01*
X138108646Y-113924085D02*
X138156265Y-113900276D01*
X138156265Y-113900276D02*
X138251503Y-113900276D01*
X138251503Y-113900276D02*
X138299122Y-113924085D01*
X138727693Y-114233609D02*
X138727693Y-113971704D01*
X138727693Y-113971704D02*
X138703883Y-113924085D01*
X138703883Y-113924085D02*
X138656264Y-113900276D01*
X138656264Y-113900276D02*
X138561026Y-113900276D01*
X138561026Y-113900276D02*
X138513407Y-113924085D01*
X138727693Y-114209800D02*
X138680074Y-114233609D01*
X138680074Y-114233609D02*
X138561026Y-114233609D01*
X138561026Y-114233609D02*
X138513407Y-114209800D01*
X138513407Y-114209800D02*
X138489598Y-114162180D01*
X138489598Y-114162180D02*
X138489598Y-114114561D01*
X138489598Y-114114561D02*
X138513407Y-114066942D01*
X138513407Y-114066942D02*
X138561026Y-114043133D01*
X138561026Y-114043133D02*
X138680074Y-114043133D01*
X138680074Y-114043133D02*
X138727693Y-114019323D01*
X139037217Y-114233609D02*
X138989598Y-114209800D01*
X138989598Y-114209800D02*
X138965788Y-114162180D01*
X138965788Y-114162180D02*
X138965788Y-113733609D01*
X139180074Y-113900276D02*
X139299122Y-114233609D01*
X139299122Y-114233609D02*
X139418169Y-113900276D01*
X139608645Y-114233609D02*
X139608645Y-113900276D01*
X139608645Y-113733609D02*
X139584836Y-113757419D01*
X139584836Y-113757419D02*
X139608645Y-113781228D01*
X139608645Y-113781228D02*
X139632455Y-113757419D01*
X139632455Y-113757419D02*
X139608645Y-113733609D01*
X139608645Y-113733609D02*
X139608645Y-113781228D01*
X139846740Y-113900276D02*
X139846740Y-114233609D01*
X139846740Y-113947895D02*
X139870550Y-113924085D01*
X139870550Y-113924085D02*
X139918169Y-113900276D01*
X139918169Y-113900276D02*
X139989597Y-113900276D01*
X139989597Y-113900276D02*
X140037216Y-113924085D01*
X140037216Y-113924085D02*
X140061026Y-113971704D01*
X140061026Y-113971704D02*
X140061026Y-114233609D01*
X140370550Y-114233609D02*
X140322931Y-114209800D01*
X140322931Y-114209800D02*
X140299121Y-114162180D01*
X140299121Y-114162180D02*
X140299121Y-113733609D01*
X140561026Y-114233609D02*
X140561026Y-113900276D01*
X140561026Y-113733609D02*
X140537217Y-113757419D01*
X140537217Y-113757419D02*
X140561026Y-113781228D01*
X140561026Y-113781228D02*
X140584836Y-113757419D01*
X140584836Y-113757419D02*
X140561026Y-113733609D01*
X140561026Y-113733609D02*
X140561026Y-113781228D01*
X140799121Y-113900276D02*
X140799121Y-114233609D01*
X140799121Y-113947895D02*
X140822931Y-113924085D01*
X140822931Y-113924085D02*
X140870550Y-113900276D01*
X140870550Y-113900276D02*
X140941978Y-113900276D01*
X140941978Y-113900276D02*
X140989597Y-113924085D01*
X140989597Y-113924085D02*
X141013407Y-113971704D01*
X141013407Y-113971704D02*
X141013407Y-114233609D01*
X141561026Y-113995514D02*
X141537216Y-113971704D01*
X141537216Y-113971704D02*
X141489597Y-113947895D01*
X141489597Y-113947895D02*
X141441978Y-113947895D01*
X141441978Y-113947895D02*
X141394359Y-113971704D01*
X141394359Y-113971704D02*
X141370550Y-113995514D01*
X141370550Y-113995514D02*
X141346740Y-114043133D01*
X141346740Y-114043133D02*
X141346740Y-114090752D01*
X141346740Y-114090752D02*
X141370550Y-114138371D01*
X141370550Y-114138371D02*
X141394359Y-114162180D01*
X141394359Y-114162180D02*
X141441978Y-114185990D01*
X141441978Y-114185990D02*
X141489597Y-114185990D01*
X141489597Y-114185990D02*
X141537216Y-114162180D01*
X141537216Y-114162180D02*
X141561026Y-114138371D01*
X141561026Y-113947895D02*
X141561026Y-114138371D01*
X141561026Y-114138371D02*
X141584835Y-114162180D01*
X141584835Y-114162180D02*
X141608645Y-114162180D01*
X141608645Y-114162180D02*
X141656264Y-114138371D01*
X141656264Y-114138371D02*
X141680074Y-114090752D01*
X141680074Y-114090752D02*
X141680074Y-113971704D01*
X141680074Y-113971704D02*
X141632455Y-113900276D01*
X141632455Y-113900276D02*
X141561026Y-113852657D01*
X141561026Y-113852657D02*
X141465788Y-113828847D01*
X141465788Y-113828847D02*
X141370550Y-113852657D01*
X141370550Y-113852657D02*
X141299121Y-113900276D01*
X141299121Y-113900276D02*
X141251502Y-113971704D01*
X141251502Y-113971704D02*
X141227693Y-114066942D01*
X141227693Y-114066942D02*
X141251502Y-114162180D01*
X141251502Y-114162180D02*
X141299121Y-114233609D01*
X141299121Y-114233609D02*
X141370550Y-114281228D01*
X141370550Y-114281228D02*
X141465788Y-114305038D01*
X141465788Y-114305038D02*
X141561026Y-114281228D01*
X141561026Y-114281228D02*
X141632455Y-114233609D01*
X141870550Y-114209800D02*
X141918169Y-114233609D01*
X141918169Y-114233609D02*
X142013407Y-114233609D01*
X142013407Y-114233609D02*
X142061026Y-114209800D01*
X142061026Y-114209800D02*
X142084835Y-114162180D01*
X142084835Y-114162180D02*
X142084835Y-114138371D01*
X142084835Y-114138371D02*
X142061026Y-114090752D01*
X142061026Y-114090752D02*
X142013407Y-114066942D01*
X142013407Y-114066942D02*
X141941978Y-114066942D01*
X141941978Y-114066942D02*
X141894359Y-114043133D01*
X141894359Y-114043133D02*
X141870550Y-113995514D01*
X141870550Y-113995514D02*
X141870550Y-113971704D01*
X141870550Y-113971704D02*
X141894359Y-113924085D01*
X141894359Y-113924085D02*
X141941978Y-113900276D01*
X141941978Y-113900276D02*
X142013407Y-113900276D01*
X142013407Y-113900276D02*
X142061026Y-113924085D01*
X142227693Y-113900276D02*
X142418169Y-113900276D01*
X142299121Y-113733609D02*
X142299121Y-114162180D01*
X142299121Y-114162180D02*
X142322931Y-114209800D01*
X142322931Y-114209800D02*
X142370550Y-114233609D01*
X142370550Y-114233609D02*
X142418169Y-114233609D01*
X142799121Y-114233609D02*
X142799121Y-113971704D01*
X142799121Y-113971704D02*
X142775311Y-113924085D01*
X142775311Y-113924085D02*
X142727692Y-113900276D01*
X142727692Y-113900276D02*
X142632454Y-113900276D01*
X142632454Y-113900276D02*
X142584835Y-113924085D01*
X142799121Y-114209800D02*
X142751502Y-114233609D01*
X142751502Y-114233609D02*
X142632454Y-114233609D01*
X142632454Y-114233609D02*
X142584835Y-114209800D01*
X142584835Y-114209800D02*
X142561026Y-114162180D01*
X142561026Y-114162180D02*
X142561026Y-114114561D01*
X142561026Y-114114561D02*
X142584835Y-114066942D01*
X142584835Y-114066942D02*
X142632454Y-114043133D01*
X142632454Y-114043133D02*
X142751502Y-114043133D01*
X142751502Y-114043133D02*
X142799121Y-114019323D01*
X143037216Y-113900276D02*
X143037216Y-114233609D01*
X143037216Y-113947895D02*
X143061026Y-113924085D01*
X143061026Y-113924085D02*
X143108645Y-113900276D01*
X143108645Y-113900276D02*
X143180073Y-113900276D01*
X143180073Y-113900276D02*
X143227692Y-113924085D01*
X143227692Y-113924085D02*
X143251502Y-113971704D01*
X143251502Y-113971704D02*
X143251502Y-114233609D01*
X143418169Y-113900276D02*
X143608645Y-113900276D01*
X143489597Y-114233609D02*
X143489597Y-113805038D01*
X143489597Y-113805038D02*
X143513407Y-113757419D01*
X143513407Y-113757419D02*
X143561026Y-113733609D01*
X143561026Y-113733609D02*
X143608645Y-113733609D01*
X143846740Y-114233609D02*
X143799121Y-114209800D01*
X143799121Y-114209800D02*
X143775311Y-114185990D01*
X143775311Y-114185990D02*
X143751502Y-114138371D01*
X143751502Y-114138371D02*
X143751502Y-113995514D01*
X143751502Y-113995514D02*
X143775311Y-113947895D01*
X143775311Y-113947895D02*
X143799121Y-113924085D01*
X143799121Y-113924085D02*
X143846740Y-113900276D01*
X143846740Y-113900276D02*
X143918168Y-113900276D01*
X143918168Y-113900276D02*
X143965787Y-113924085D01*
X143965787Y-113924085D02*
X143989597Y-113947895D01*
X143989597Y-113947895D02*
X144013406Y-113995514D01*
X144013406Y-113995514D02*
X144013406Y-114138371D01*
X144013406Y-114138371D02*
X143989597Y-114185990D01*
X143989597Y-114185990D02*
X143965787Y-114209800D01*
X143965787Y-114209800D02*
X143918168Y-114233609D01*
X143918168Y-114233609D02*
X143846740Y-114233609D01*
X144227692Y-114233609D02*
X144227692Y-113900276D01*
X144227692Y-113995514D02*
X144251502Y-113947895D01*
X144251502Y-113947895D02*
X144275311Y-113924085D01*
X144275311Y-113924085D02*
X144322930Y-113900276D01*
X144322930Y-113900276D02*
X144370549Y-113900276D01*
X144751502Y-114233609D02*
X144751502Y-113733609D01*
X144751502Y-114209800D02*
X144703883Y-114233609D01*
X144703883Y-114233609D02*
X144608645Y-114233609D01*
X144608645Y-114233609D02*
X144561026Y-114209800D01*
X144561026Y-114209800D02*
X144537216Y-114185990D01*
X144537216Y-114185990D02*
X144513407Y-114138371D01*
X144513407Y-114138371D02*
X144513407Y-113995514D01*
X144513407Y-113995514D02*
X144537216Y-113947895D01*
X144537216Y-113947895D02*
X144561026Y-113924085D01*
X144561026Y-113924085D02*
X144608645Y-113900276D01*
X144608645Y-113900276D02*
X144703883Y-113900276D01*
X144703883Y-113900276D02*
X144751502Y-113924085D01*
X144989597Y-114185990D02*
X145013407Y-114209800D01*
X145013407Y-114209800D02*
X144989597Y-114233609D01*
X144989597Y-114233609D02*
X144965788Y-114209800D01*
X144965788Y-114209800D02*
X144989597Y-114185990D01*
X144989597Y-114185990D02*
X144989597Y-114233609D01*
X145418168Y-114209800D02*
X145370549Y-114233609D01*
X145370549Y-114233609D02*
X145275311Y-114233609D01*
X145275311Y-114233609D02*
X145227692Y-114209800D01*
X145227692Y-114209800D02*
X145203883Y-114162180D01*
X145203883Y-114162180D02*
X145203883Y-113971704D01*
X145203883Y-113971704D02*
X145227692Y-113924085D01*
X145227692Y-113924085D02*
X145275311Y-113900276D01*
X145275311Y-113900276D02*
X145370549Y-113900276D01*
X145370549Y-113900276D02*
X145418168Y-113924085D01*
X145418168Y-113924085D02*
X145441978Y-113971704D01*
X145441978Y-113971704D02*
X145441978Y-114019323D01*
X145441978Y-114019323D02*
X145203883Y-114066942D01*
X145870549Y-114233609D02*
X145870549Y-113733609D01*
X145870549Y-114209800D02*
X145822930Y-114233609D01*
X145822930Y-114233609D02*
X145727692Y-114233609D01*
X145727692Y-114233609D02*
X145680073Y-114209800D01*
X145680073Y-114209800D02*
X145656263Y-114185990D01*
X145656263Y-114185990D02*
X145632454Y-114138371D01*
X145632454Y-114138371D02*
X145632454Y-113995514D01*
X145632454Y-113995514D02*
X145656263Y-113947895D01*
X145656263Y-113947895D02*
X145680073Y-113924085D01*
X145680073Y-113924085D02*
X145727692Y-113900276D01*
X145727692Y-113900276D02*
X145822930Y-113900276D01*
X145822930Y-113900276D02*
X145870549Y-113924085D01*
X146322930Y-113900276D02*
X146322930Y-114233609D01*
X146108644Y-113900276D02*
X146108644Y-114162180D01*
X146108644Y-114162180D02*
X146132454Y-114209800D01*
X146132454Y-114209800D02*
X146180073Y-114233609D01*
X146180073Y-114233609D02*
X146251501Y-114233609D01*
X146251501Y-114233609D02*
X146299120Y-114209800D01*
X146299120Y-114209800D02*
X146322930Y-114185990D01*
D11*
X139767761Y-105742057D02*
X139672523Y-105694438D01*
X139672523Y-105694438D02*
X139577285Y-105599200D01*
X139577285Y-105599200D02*
X139434428Y-105456342D01*
X139434428Y-105456342D02*
X139339190Y-105408723D01*
X139339190Y-105408723D02*
X139243952Y-105408723D01*
X139291571Y-105646819D02*
X139196333Y-105599200D01*
X139196333Y-105599200D02*
X139101095Y-105503961D01*
X139101095Y-105503961D02*
X139053476Y-105313485D01*
X139053476Y-105313485D02*
X139053476Y-104980152D01*
X139053476Y-104980152D02*
X139101095Y-104789676D01*
X139101095Y-104789676D02*
X139196333Y-104694438D01*
X139196333Y-104694438D02*
X139291571Y-104646819D01*
X139291571Y-104646819D02*
X139482047Y-104646819D01*
X139482047Y-104646819D02*
X139577285Y-104694438D01*
X139577285Y-104694438D02*
X139672523Y-104789676D01*
X139672523Y-104789676D02*
X139720142Y-104980152D01*
X139720142Y-104980152D02*
X139720142Y-105313485D01*
X139720142Y-105313485D02*
X139672523Y-105503961D01*
X139672523Y-105503961D02*
X139577285Y-105599200D01*
X139577285Y-105599200D02*
X139482047Y-105646819D01*
X139482047Y-105646819D02*
X139291571Y-105646819D01*
X140053476Y-104646819D02*
X140672523Y-104646819D01*
X140672523Y-104646819D02*
X140339190Y-105027771D01*
X140339190Y-105027771D02*
X140482047Y-105027771D01*
X140482047Y-105027771D02*
X140577285Y-105075390D01*
X140577285Y-105075390D02*
X140624904Y-105123009D01*
X140624904Y-105123009D02*
X140672523Y-105218247D01*
X140672523Y-105218247D02*
X140672523Y-105456342D01*
X140672523Y-105456342D02*
X140624904Y-105551580D01*
X140624904Y-105551580D02*
X140577285Y-105599200D01*
X140577285Y-105599200D02*
X140482047Y-105646819D01*
X140482047Y-105646819D02*
X140196333Y-105646819D01*
X140196333Y-105646819D02*
X140101095Y-105599200D01*
X140101095Y-105599200D02*
X140053476Y-105551580D01*
X116933333Y-89709580D02*
X116885714Y-89757200D01*
X116885714Y-89757200D02*
X116742857Y-89804819D01*
X116742857Y-89804819D02*
X116647619Y-89804819D01*
X116647619Y-89804819D02*
X116504762Y-89757200D01*
X116504762Y-89757200D02*
X116409524Y-89661961D01*
X116409524Y-89661961D02*
X116361905Y-89566723D01*
X116361905Y-89566723D02*
X116314286Y-89376247D01*
X116314286Y-89376247D02*
X116314286Y-89233390D01*
X116314286Y-89233390D02*
X116361905Y-89042914D01*
X116361905Y-89042914D02*
X116409524Y-88947676D01*
X116409524Y-88947676D02*
X116504762Y-88852438D01*
X116504762Y-88852438D02*
X116647619Y-88804819D01*
X116647619Y-88804819D02*
X116742857Y-88804819D01*
X116742857Y-88804819D02*
X116885714Y-88852438D01*
X116885714Y-88852438D02*
X116933333Y-88900057D01*
X117885714Y-89804819D02*
X117314286Y-89804819D01*
X117600000Y-89804819D02*
X117600000Y-88804819D01*
X117600000Y-88804819D02*
X117504762Y-88947676D01*
X117504762Y-88947676D02*
X117409524Y-89042914D01*
X117409524Y-89042914D02*
X117314286Y-89090533D01*
X135057142Y-106629580D02*
X135009523Y-106677200D01*
X135009523Y-106677200D02*
X134866666Y-106724819D01*
X134866666Y-106724819D02*
X134771428Y-106724819D01*
X134771428Y-106724819D02*
X134628571Y-106677200D01*
X134628571Y-106677200D02*
X134533333Y-106581961D01*
X134533333Y-106581961D02*
X134485714Y-106486723D01*
X134485714Y-106486723D02*
X134438095Y-106296247D01*
X134438095Y-106296247D02*
X134438095Y-106153390D01*
X134438095Y-106153390D02*
X134485714Y-105962914D01*
X134485714Y-105962914D02*
X134533333Y-105867676D01*
X134533333Y-105867676D02*
X134628571Y-105772438D01*
X134628571Y-105772438D02*
X134771428Y-105724819D01*
X134771428Y-105724819D02*
X134866666Y-105724819D01*
X134866666Y-105724819D02*
X135009523Y-105772438D01*
X135009523Y-105772438D02*
X135057142Y-105820057D01*
X136009523Y-106724819D02*
X135438095Y-106724819D01*
X135723809Y-106724819D02*
X135723809Y-105724819D01*
X135723809Y-105724819D02*
X135628571Y-105867676D01*
X135628571Y-105867676D02*
X135533333Y-105962914D01*
X135533333Y-105962914D02*
X135438095Y-106010533D01*
X136866666Y-106058152D02*
X136866666Y-106724819D01*
X136628571Y-105677200D02*
X136390476Y-106391485D01*
X136390476Y-106391485D02*
X137009523Y-106391485D01*
D10*
X138802380Y-99773728D02*
X138754761Y-99749919D01*
X138754761Y-99749919D02*
X138707142Y-99702300D01*
X138707142Y-99702300D02*
X138635714Y-99630871D01*
X138635714Y-99630871D02*
X138588095Y-99607061D01*
X138588095Y-99607061D02*
X138540476Y-99607061D01*
X138564285Y-99726109D02*
X138516666Y-99702300D01*
X138516666Y-99702300D02*
X138469047Y-99654680D01*
X138469047Y-99654680D02*
X138445238Y-99559442D01*
X138445238Y-99559442D02*
X138445238Y-99392776D01*
X138445238Y-99392776D02*
X138469047Y-99297538D01*
X138469047Y-99297538D02*
X138516666Y-99249919D01*
X138516666Y-99249919D02*
X138564285Y-99226109D01*
X138564285Y-99226109D02*
X138659523Y-99226109D01*
X138659523Y-99226109D02*
X138707142Y-99249919D01*
X138707142Y-99249919D02*
X138754761Y-99297538D01*
X138754761Y-99297538D02*
X138778571Y-99392776D01*
X138778571Y-99392776D02*
X138778571Y-99559442D01*
X138778571Y-99559442D02*
X138754761Y-99654680D01*
X138754761Y-99654680D02*
X138707142Y-99702300D01*
X138707142Y-99702300D02*
X138659523Y-99726109D01*
X138659523Y-99726109D02*
X138564285Y-99726109D01*
X139230952Y-99226109D02*
X138992857Y-99226109D01*
X138992857Y-99226109D02*
X138969048Y-99464204D01*
X138969048Y-99464204D02*
X138992857Y-99440395D01*
X138992857Y-99440395D02*
X139040476Y-99416585D01*
X139040476Y-99416585D02*
X139159524Y-99416585D01*
X139159524Y-99416585D02*
X139207143Y-99440395D01*
X139207143Y-99440395D02*
X139230952Y-99464204D01*
X139230952Y-99464204D02*
X139254762Y-99511823D01*
X139254762Y-99511823D02*
X139254762Y-99630871D01*
X139254762Y-99630871D02*
X139230952Y-99678490D01*
X139230952Y-99678490D02*
X139207143Y-99702300D01*
X139207143Y-99702300D02*
X139159524Y-99726109D01*
X139159524Y-99726109D02*
X139040476Y-99726109D01*
X139040476Y-99726109D02*
X138992857Y-99702300D01*
X138992857Y-99702300D02*
X138969048Y-99678490D01*
D11*
X135357142Y-95429580D02*
X135309523Y-95477200D01*
X135309523Y-95477200D02*
X135166666Y-95524819D01*
X135166666Y-95524819D02*
X135071428Y-95524819D01*
X135071428Y-95524819D02*
X134928571Y-95477200D01*
X134928571Y-95477200D02*
X134833333Y-95381961D01*
X134833333Y-95381961D02*
X134785714Y-95286723D01*
X134785714Y-95286723D02*
X134738095Y-95096247D01*
X134738095Y-95096247D02*
X134738095Y-94953390D01*
X134738095Y-94953390D02*
X134785714Y-94762914D01*
X134785714Y-94762914D02*
X134833333Y-94667676D01*
X134833333Y-94667676D02*
X134928571Y-94572438D01*
X134928571Y-94572438D02*
X135071428Y-94524819D01*
X135071428Y-94524819D02*
X135166666Y-94524819D01*
X135166666Y-94524819D02*
X135309523Y-94572438D01*
X135309523Y-94572438D02*
X135357142Y-94620057D01*
X136309523Y-95524819D02*
X135738095Y-95524819D01*
X136023809Y-95524819D02*
X136023809Y-94524819D01*
X136023809Y-94524819D02*
X135928571Y-94667676D01*
X135928571Y-94667676D02*
X135833333Y-94762914D01*
X135833333Y-94762914D02*
X135738095Y-94810533D01*
X136690476Y-94620057D02*
X136738095Y-94572438D01*
X136738095Y-94572438D02*
X136833333Y-94524819D01*
X136833333Y-94524819D02*
X137071428Y-94524819D01*
X137071428Y-94524819D02*
X137166666Y-94572438D01*
X137166666Y-94572438D02*
X137214285Y-94620057D01*
X137214285Y-94620057D02*
X137261904Y-94715295D01*
X137261904Y-94715295D02*
X137261904Y-94810533D01*
X137261904Y-94810533D02*
X137214285Y-94953390D01*
X137214285Y-94953390D02*
X136642857Y-95524819D01*
X136642857Y-95524819D02*
X137261904Y-95524819D01*
X135233333Y-84699580D02*
X135185714Y-84747200D01*
X135185714Y-84747200D02*
X135042857Y-84794819D01*
X135042857Y-84794819D02*
X134947619Y-84794819D01*
X134947619Y-84794819D02*
X134804762Y-84747200D01*
X134804762Y-84747200D02*
X134709524Y-84651961D01*
X134709524Y-84651961D02*
X134661905Y-84556723D01*
X134661905Y-84556723D02*
X134614286Y-84366247D01*
X134614286Y-84366247D02*
X134614286Y-84223390D01*
X134614286Y-84223390D02*
X134661905Y-84032914D01*
X134661905Y-84032914D02*
X134709524Y-83937676D01*
X134709524Y-83937676D02*
X134804762Y-83842438D01*
X134804762Y-83842438D02*
X134947619Y-83794819D01*
X134947619Y-83794819D02*
X135042857Y-83794819D01*
X135042857Y-83794819D02*
X135185714Y-83842438D01*
X135185714Y-83842438D02*
X135233333Y-83890057D01*
X136090476Y-83794819D02*
X135900000Y-83794819D01*
X135900000Y-83794819D02*
X135804762Y-83842438D01*
X135804762Y-83842438D02*
X135757143Y-83890057D01*
X135757143Y-83890057D02*
X135661905Y-84032914D01*
X135661905Y-84032914D02*
X135614286Y-84223390D01*
X135614286Y-84223390D02*
X135614286Y-84604342D01*
X135614286Y-84604342D02*
X135661905Y-84699580D01*
X135661905Y-84699580D02*
X135709524Y-84747200D01*
X135709524Y-84747200D02*
X135804762Y-84794819D01*
X135804762Y-84794819D02*
X135995238Y-84794819D01*
X135995238Y-84794819D02*
X136090476Y-84747200D01*
X136090476Y-84747200D02*
X136138095Y-84699580D01*
X136138095Y-84699580D02*
X136185714Y-84604342D01*
X136185714Y-84604342D02*
X136185714Y-84366247D01*
X136185714Y-84366247D02*
X136138095Y-84271009D01*
X136138095Y-84271009D02*
X136090476Y-84223390D01*
X136090476Y-84223390D02*
X135995238Y-84175771D01*
X135995238Y-84175771D02*
X135804762Y-84175771D01*
X135804762Y-84175771D02*
X135709524Y-84223390D01*
X135709524Y-84223390D02*
X135661905Y-84271009D01*
X135661905Y-84271009D02*
X135614286Y-84366247D01*
D10*
X135519047Y-99026109D02*
X135519047Y-99430871D01*
X135519047Y-99430871D02*
X135542857Y-99478490D01*
X135542857Y-99478490D02*
X135566666Y-99502300D01*
X135566666Y-99502300D02*
X135614285Y-99526109D01*
X135614285Y-99526109D02*
X135709523Y-99526109D01*
X135709523Y-99526109D02*
X135757142Y-99502300D01*
X135757142Y-99502300D02*
X135780952Y-99478490D01*
X135780952Y-99478490D02*
X135804761Y-99430871D01*
X135804761Y-99430871D02*
X135804761Y-99026109D01*
X136066667Y-99526109D02*
X136161905Y-99526109D01*
X136161905Y-99526109D02*
X136209524Y-99502300D01*
X136209524Y-99502300D02*
X136233333Y-99478490D01*
X136233333Y-99478490D02*
X136280952Y-99407061D01*
X136280952Y-99407061D02*
X136304762Y-99311823D01*
X136304762Y-99311823D02*
X136304762Y-99121347D01*
X136304762Y-99121347D02*
X136280952Y-99073728D01*
X136280952Y-99073728D02*
X136257143Y-99049919D01*
X136257143Y-99049919D02*
X136209524Y-99026109D01*
X136209524Y-99026109D02*
X136114286Y-99026109D01*
X136114286Y-99026109D02*
X136066667Y-99049919D01*
X136066667Y-99049919D02*
X136042857Y-99073728D01*
X136042857Y-99073728D02*
X136019048Y-99121347D01*
X136019048Y-99121347D02*
X136019048Y-99240395D01*
X136019048Y-99240395D02*
X136042857Y-99288014D01*
X136042857Y-99288014D02*
X136066667Y-99311823D01*
X136066667Y-99311823D02*
X136114286Y-99335633D01*
X136114286Y-99335633D02*
X136209524Y-99335633D01*
X136209524Y-99335633D02*
X136257143Y-99311823D01*
X136257143Y-99311823D02*
X136280952Y-99288014D01*
X136280952Y-99288014D02*
X136304762Y-99240395D01*
D11*
X128833333Y-82129819D02*
X128500000Y-81653628D01*
X128261905Y-82129819D02*
X128261905Y-81129819D01*
X128261905Y-81129819D02*
X128642857Y-81129819D01*
X128642857Y-81129819D02*
X128738095Y-81177438D01*
X128738095Y-81177438D02*
X128785714Y-81225057D01*
X128785714Y-81225057D02*
X128833333Y-81320295D01*
X128833333Y-81320295D02*
X128833333Y-81463152D01*
X128833333Y-81463152D02*
X128785714Y-81558390D01*
X128785714Y-81558390D02*
X128738095Y-81606009D01*
X128738095Y-81606009D02*
X128642857Y-81653628D01*
X128642857Y-81653628D02*
X128261905Y-81653628D01*
X129166667Y-81129819D02*
X129785714Y-81129819D01*
X129785714Y-81129819D02*
X129452381Y-81510771D01*
X129452381Y-81510771D02*
X129595238Y-81510771D01*
X129595238Y-81510771D02*
X129690476Y-81558390D01*
X129690476Y-81558390D02*
X129738095Y-81606009D01*
X129738095Y-81606009D02*
X129785714Y-81701247D01*
X129785714Y-81701247D02*
X129785714Y-81939342D01*
X129785714Y-81939342D02*
X129738095Y-82034580D01*
X129738095Y-82034580D02*
X129690476Y-82082200D01*
X129690476Y-82082200D02*
X129595238Y-82129819D01*
X129595238Y-82129819D02*
X129309524Y-82129819D01*
X129309524Y-82129819D02*
X129214286Y-82082200D01*
X129214286Y-82082200D02*
X129166667Y-82034580D01*
X131357142Y-113884819D02*
X131023809Y-113408628D01*
X130785714Y-113884819D02*
X130785714Y-112884819D01*
X130785714Y-112884819D02*
X131166666Y-112884819D01*
X131166666Y-112884819D02*
X131261904Y-112932438D01*
X131261904Y-112932438D02*
X131309523Y-112980057D01*
X131309523Y-112980057D02*
X131357142Y-113075295D01*
X131357142Y-113075295D02*
X131357142Y-113218152D01*
X131357142Y-113218152D02*
X131309523Y-113313390D01*
X131309523Y-113313390D02*
X131261904Y-113361009D01*
X131261904Y-113361009D02*
X131166666Y-113408628D01*
X131166666Y-113408628D02*
X130785714Y-113408628D01*
X132309523Y-113884819D02*
X131738095Y-113884819D01*
X132023809Y-113884819D02*
X132023809Y-112884819D01*
X132023809Y-112884819D02*
X131928571Y-113027676D01*
X131928571Y-113027676D02*
X131833333Y-113122914D01*
X131833333Y-113122914D02*
X131738095Y-113170533D01*
X133261904Y-113884819D02*
X132690476Y-113884819D01*
X132976190Y-113884819D02*
X132976190Y-112884819D01*
X132976190Y-112884819D02*
X132880952Y-113027676D01*
X132880952Y-113027676D02*
X132785714Y-113122914D01*
X132785714Y-113122914D02*
X132690476Y-113170533D01*
X131920833Y-82429580D02*
X131873214Y-82477200D01*
X131873214Y-82477200D02*
X131730357Y-82524819D01*
X131730357Y-82524819D02*
X131635119Y-82524819D01*
X131635119Y-82524819D02*
X131492262Y-82477200D01*
X131492262Y-82477200D02*
X131397024Y-82381961D01*
X131397024Y-82381961D02*
X131349405Y-82286723D01*
X131349405Y-82286723D02*
X131301786Y-82096247D01*
X131301786Y-82096247D02*
X131301786Y-81953390D01*
X131301786Y-81953390D02*
X131349405Y-81762914D01*
X131349405Y-81762914D02*
X131397024Y-81667676D01*
X131397024Y-81667676D02*
X131492262Y-81572438D01*
X131492262Y-81572438D02*
X131635119Y-81524819D01*
X131635119Y-81524819D02*
X131730357Y-81524819D01*
X131730357Y-81524819D02*
X131873214Y-81572438D01*
X131873214Y-81572438D02*
X131920833Y-81620057D01*
X132777976Y-81858152D02*
X132777976Y-82524819D01*
X132539881Y-81477200D02*
X132301786Y-82191485D01*
X132301786Y-82191485D02*
X132920833Y-82191485D01*
X135283333Y-74609580D02*
X135235714Y-74657200D01*
X135235714Y-74657200D02*
X135092857Y-74704819D01*
X135092857Y-74704819D02*
X134997619Y-74704819D01*
X134997619Y-74704819D02*
X134854762Y-74657200D01*
X134854762Y-74657200D02*
X134759524Y-74561961D01*
X134759524Y-74561961D02*
X134711905Y-74466723D01*
X134711905Y-74466723D02*
X134664286Y-74276247D01*
X134664286Y-74276247D02*
X134664286Y-74133390D01*
X134664286Y-74133390D02*
X134711905Y-73942914D01*
X134711905Y-73942914D02*
X134759524Y-73847676D01*
X134759524Y-73847676D02*
X134854762Y-73752438D01*
X134854762Y-73752438D02*
X134997619Y-73704819D01*
X134997619Y-73704819D02*
X135092857Y-73704819D01*
X135092857Y-73704819D02*
X135235714Y-73752438D01*
X135235714Y-73752438D02*
X135283333Y-73800057D01*
X135854762Y-74133390D02*
X135759524Y-74085771D01*
X135759524Y-74085771D02*
X135711905Y-74038152D01*
X135711905Y-74038152D02*
X135664286Y-73942914D01*
X135664286Y-73942914D02*
X135664286Y-73895295D01*
X135664286Y-73895295D02*
X135711905Y-73800057D01*
X135711905Y-73800057D02*
X135759524Y-73752438D01*
X135759524Y-73752438D02*
X135854762Y-73704819D01*
X135854762Y-73704819D02*
X136045238Y-73704819D01*
X136045238Y-73704819D02*
X136140476Y-73752438D01*
X136140476Y-73752438D02*
X136188095Y-73800057D01*
X136188095Y-73800057D02*
X136235714Y-73895295D01*
X136235714Y-73895295D02*
X136235714Y-73942914D01*
X136235714Y-73942914D02*
X136188095Y-74038152D01*
X136188095Y-74038152D02*
X136140476Y-74085771D01*
X136140476Y-74085771D02*
X136045238Y-74133390D01*
X136045238Y-74133390D02*
X135854762Y-74133390D01*
X135854762Y-74133390D02*
X135759524Y-74181009D01*
X135759524Y-74181009D02*
X135711905Y-74228628D01*
X135711905Y-74228628D02*
X135664286Y-74323866D01*
X135664286Y-74323866D02*
X135664286Y-74514342D01*
X135664286Y-74514342D02*
X135711905Y-74609580D01*
X135711905Y-74609580D02*
X135759524Y-74657200D01*
X135759524Y-74657200D02*
X135854762Y-74704819D01*
X135854762Y-74704819D02*
X136045238Y-74704819D01*
X136045238Y-74704819D02*
X136140476Y-74657200D01*
X136140476Y-74657200D02*
X136188095Y-74609580D01*
X136188095Y-74609580D02*
X136235714Y-74514342D01*
X136235714Y-74514342D02*
X136235714Y-74323866D01*
X136235714Y-74323866D02*
X136188095Y-74228628D01*
X136188095Y-74228628D02*
X136140476Y-74181009D01*
X136140476Y-74181009D02*
X136045238Y-74133390D01*
X131833333Y-91384819D02*
X131500000Y-90908628D01*
X131261905Y-91384819D02*
X131261905Y-90384819D01*
X131261905Y-90384819D02*
X131642857Y-90384819D01*
X131642857Y-90384819D02*
X131738095Y-90432438D01*
X131738095Y-90432438D02*
X131785714Y-90480057D01*
X131785714Y-90480057D02*
X131833333Y-90575295D01*
X131833333Y-90575295D02*
X131833333Y-90718152D01*
X131833333Y-90718152D02*
X131785714Y-90813390D01*
X131785714Y-90813390D02*
X131738095Y-90861009D01*
X131738095Y-90861009D02*
X131642857Y-90908628D01*
X131642857Y-90908628D02*
X131261905Y-90908628D01*
X132214286Y-90480057D02*
X132261905Y-90432438D01*
X132261905Y-90432438D02*
X132357143Y-90384819D01*
X132357143Y-90384819D02*
X132595238Y-90384819D01*
X132595238Y-90384819D02*
X132690476Y-90432438D01*
X132690476Y-90432438D02*
X132738095Y-90480057D01*
X132738095Y-90480057D02*
X132785714Y-90575295D01*
X132785714Y-90575295D02*
X132785714Y-90670533D01*
X132785714Y-90670533D02*
X132738095Y-90813390D01*
X132738095Y-90813390D02*
X132166667Y-91384819D01*
X132166667Y-91384819D02*
X132785714Y-91384819D01*
D10*
X141852380Y-77523728D02*
X141804761Y-77499919D01*
X141804761Y-77499919D02*
X141757142Y-77452300D01*
X141757142Y-77452300D02*
X141685714Y-77380871D01*
X141685714Y-77380871D02*
X141638095Y-77357061D01*
X141638095Y-77357061D02*
X141590476Y-77357061D01*
X141614285Y-77476109D02*
X141566666Y-77452300D01*
X141566666Y-77452300D02*
X141519047Y-77404680D01*
X141519047Y-77404680D02*
X141495238Y-77309442D01*
X141495238Y-77309442D02*
X141495238Y-77142776D01*
X141495238Y-77142776D02*
X141519047Y-77047538D01*
X141519047Y-77047538D02*
X141566666Y-76999919D01*
X141566666Y-76999919D02*
X141614285Y-76976109D01*
X141614285Y-76976109D02*
X141709523Y-76976109D01*
X141709523Y-76976109D02*
X141757142Y-76999919D01*
X141757142Y-76999919D02*
X141804761Y-77047538D01*
X141804761Y-77047538D02*
X141828571Y-77142776D01*
X141828571Y-77142776D02*
X141828571Y-77309442D01*
X141828571Y-77309442D02*
X141804761Y-77404680D01*
X141804761Y-77404680D02*
X141757142Y-77452300D01*
X141757142Y-77452300D02*
X141709523Y-77476109D01*
X141709523Y-77476109D02*
X141614285Y-77476109D01*
X142304762Y-77476109D02*
X142019048Y-77476109D01*
X142161905Y-77476109D02*
X142161905Y-76976109D01*
X142161905Y-76976109D02*
X142114286Y-77047538D01*
X142114286Y-77047538D02*
X142066667Y-77095157D01*
X142066667Y-77095157D02*
X142019048Y-77118966D01*
D11*
X135233333Y-80469580D02*
X135185714Y-80517200D01*
X135185714Y-80517200D02*
X135042857Y-80564819D01*
X135042857Y-80564819D02*
X134947619Y-80564819D01*
X134947619Y-80564819D02*
X134804762Y-80517200D01*
X134804762Y-80517200D02*
X134709524Y-80421961D01*
X134709524Y-80421961D02*
X134661905Y-80326723D01*
X134661905Y-80326723D02*
X134614286Y-80136247D01*
X134614286Y-80136247D02*
X134614286Y-79993390D01*
X134614286Y-79993390D02*
X134661905Y-79802914D01*
X134661905Y-79802914D02*
X134709524Y-79707676D01*
X134709524Y-79707676D02*
X134804762Y-79612438D01*
X134804762Y-79612438D02*
X134947619Y-79564819D01*
X134947619Y-79564819D02*
X135042857Y-79564819D01*
X135042857Y-79564819D02*
X135185714Y-79612438D01*
X135185714Y-79612438D02*
X135233333Y-79660057D01*
X135566667Y-79564819D02*
X136233333Y-79564819D01*
X136233333Y-79564819D02*
X135804762Y-80564819D01*
X139288095Y-77804819D02*
X139288095Y-78614342D01*
X139288095Y-78614342D02*
X139335714Y-78709580D01*
X139335714Y-78709580D02*
X139383333Y-78757200D01*
X139383333Y-78757200D02*
X139478571Y-78804819D01*
X139478571Y-78804819D02*
X139669047Y-78804819D01*
X139669047Y-78804819D02*
X139764285Y-78757200D01*
X139764285Y-78757200D02*
X139811904Y-78709580D01*
X139811904Y-78709580D02*
X139859523Y-78614342D01*
X139859523Y-78614342D02*
X139859523Y-77804819D01*
X140764285Y-77804819D02*
X140573809Y-77804819D01*
X140573809Y-77804819D02*
X140478571Y-77852438D01*
X140478571Y-77852438D02*
X140430952Y-77900057D01*
X140430952Y-77900057D02*
X140335714Y-78042914D01*
X140335714Y-78042914D02*
X140288095Y-78233390D01*
X140288095Y-78233390D02*
X140288095Y-78614342D01*
X140288095Y-78614342D02*
X140335714Y-78709580D01*
X140335714Y-78709580D02*
X140383333Y-78757200D01*
X140383333Y-78757200D02*
X140478571Y-78804819D01*
X140478571Y-78804819D02*
X140669047Y-78804819D01*
X140669047Y-78804819D02*
X140764285Y-78757200D01*
X140764285Y-78757200D02*
X140811904Y-78709580D01*
X140811904Y-78709580D02*
X140859523Y-78614342D01*
X140859523Y-78614342D02*
X140859523Y-78376247D01*
X140859523Y-78376247D02*
X140811904Y-78281009D01*
X140811904Y-78281009D02*
X140764285Y-78233390D01*
X140764285Y-78233390D02*
X140669047Y-78185771D01*
X140669047Y-78185771D02*
X140478571Y-78185771D01*
X140478571Y-78185771D02*
X140383333Y-78233390D01*
X140383333Y-78233390D02*
X140335714Y-78281009D01*
X140335714Y-78281009D02*
X140288095Y-78376247D01*
X112633333Y-89659580D02*
X112585714Y-89707200D01*
X112585714Y-89707200D02*
X112442857Y-89754819D01*
X112442857Y-89754819D02*
X112347619Y-89754819D01*
X112347619Y-89754819D02*
X112204762Y-89707200D01*
X112204762Y-89707200D02*
X112109524Y-89611961D01*
X112109524Y-89611961D02*
X112061905Y-89516723D01*
X112061905Y-89516723D02*
X112014286Y-89326247D01*
X112014286Y-89326247D02*
X112014286Y-89183390D01*
X112014286Y-89183390D02*
X112061905Y-88992914D01*
X112061905Y-88992914D02*
X112109524Y-88897676D01*
X112109524Y-88897676D02*
X112204762Y-88802438D01*
X112204762Y-88802438D02*
X112347619Y-88754819D01*
X112347619Y-88754819D02*
X112442857Y-88754819D01*
X112442857Y-88754819D02*
X112585714Y-88802438D01*
X112585714Y-88802438D02*
X112633333Y-88850057D01*
X112966667Y-88754819D02*
X113585714Y-88754819D01*
X113585714Y-88754819D02*
X113252381Y-89135771D01*
X113252381Y-89135771D02*
X113395238Y-89135771D01*
X113395238Y-89135771D02*
X113490476Y-89183390D01*
X113490476Y-89183390D02*
X113538095Y-89231009D01*
X113538095Y-89231009D02*
X113585714Y-89326247D01*
X113585714Y-89326247D02*
X113585714Y-89564342D01*
X113585714Y-89564342D02*
X113538095Y-89659580D01*
X113538095Y-89659580D02*
X113490476Y-89707200D01*
X113490476Y-89707200D02*
X113395238Y-89754819D01*
X113395238Y-89754819D02*
X113109524Y-89754819D01*
X113109524Y-89754819D02*
X113014286Y-89707200D01*
X113014286Y-89707200D02*
X112966667Y-89659580D01*
D10*
X135480952Y-110626109D02*
X135480952Y-111030871D01*
X135480952Y-111030871D02*
X135504762Y-111078490D01*
X135504762Y-111078490D02*
X135528571Y-111102300D01*
X135528571Y-111102300D02*
X135576190Y-111126109D01*
X135576190Y-111126109D02*
X135671428Y-111126109D01*
X135671428Y-111126109D02*
X135719047Y-111102300D01*
X135719047Y-111102300D02*
X135742857Y-111078490D01*
X135742857Y-111078490D02*
X135766666Y-111030871D01*
X135766666Y-111030871D02*
X135766666Y-110626109D01*
X136266667Y-111126109D02*
X135980953Y-111126109D01*
X136123810Y-111126109D02*
X136123810Y-110626109D01*
X136123810Y-110626109D02*
X136076191Y-110697538D01*
X136076191Y-110697538D02*
X136028572Y-110745157D01*
X136028572Y-110745157D02*
X135980953Y-110768966D01*
X136742857Y-111126109D02*
X136457143Y-111126109D01*
X136600000Y-111126109D02*
X136600000Y-110626109D01*
X136600000Y-110626109D02*
X136552381Y-110697538D01*
X136552381Y-110697538D02*
X136504762Y-110745157D01*
X136504762Y-110745157D02*
X136457143Y-110768966D01*
D11*
X128357142Y-104454819D02*
X128023809Y-103978628D01*
X127785714Y-104454819D02*
X127785714Y-103454819D01*
X127785714Y-103454819D02*
X128166666Y-103454819D01*
X128166666Y-103454819D02*
X128261904Y-103502438D01*
X128261904Y-103502438D02*
X128309523Y-103550057D01*
X128309523Y-103550057D02*
X128357142Y-103645295D01*
X128357142Y-103645295D02*
X128357142Y-103788152D01*
X128357142Y-103788152D02*
X128309523Y-103883390D01*
X128309523Y-103883390D02*
X128261904Y-103931009D01*
X128261904Y-103931009D02*
X128166666Y-103978628D01*
X128166666Y-103978628D02*
X127785714Y-103978628D01*
X129309523Y-104454819D02*
X128738095Y-104454819D01*
X129023809Y-104454819D02*
X129023809Y-103454819D01*
X129023809Y-103454819D02*
X128928571Y-103597676D01*
X128928571Y-103597676D02*
X128833333Y-103692914D01*
X128833333Y-103692914D02*
X128738095Y-103740533D01*
X129690476Y-103550057D02*
X129738095Y-103502438D01*
X129738095Y-103502438D02*
X129833333Y-103454819D01*
X129833333Y-103454819D02*
X130071428Y-103454819D01*
X130071428Y-103454819D02*
X130166666Y-103502438D01*
X130166666Y-103502438D02*
X130214285Y-103550057D01*
X130214285Y-103550057D02*
X130261904Y-103645295D01*
X130261904Y-103645295D02*
X130261904Y-103740533D01*
X130261904Y-103740533D02*
X130214285Y-103883390D01*
X130214285Y-103883390D02*
X129642857Y-104454819D01*
X129642857Y-104454819D02*
X130261904Y-104454819D01*
X134738095Y-80854819D02*
X134738095Y-81664342D01*
X134738095Y-81664342D02*
X134785714Y-81759580D01*
X134785714Y-81759580D02*
X134833333Y-81807200D01*
X134833333Y-81807200D02*
X134928571Y-81854819D01*
X134928571Y-81854819D02*
X135119047Y-81854819D01*
X135119047Y-81854819D02*
X135214285Y-81807200D01*
X135214285Y-81807200D02*
X135261904Y-81759580D01*
X135261904Y-81759580D02*
X135309523Y-81664342D01*
X135309523Y-81664342D02*
X135309523Y-80854819D01*
X135690476Y-80854819D02*
X136309523Y-80854819D01*
X136309523Y-80854819D02*
X135976190Y-81235771D01*
X135976190Y-81235771D02*
X136119047Y-81235771D01*
X136119047Y-81235771D02*
X136214285Y-81283390D01*
X136214285Y-81283390D02*
X136261904Y-81331009D01*
X136261904Y-81331009D02*
X136309523Y-81426247D01*
X136309523Y-81426247D02*
X136309523Y-81664342D01*
X136309523Y-81664342D02*
X136261904Y-81759580D01*
X136261904Y-81759580D02*
X136214285Y-81807200D01*
X136214285Y-81807200D02*
X136119047Y-81854819D01*
X136119047Y-81854819D02*
X135833333Y-81854819D01*
X135833333Y-81854819D02*
X135738095Y-81807200D01*
X135738095Y-81807200D02*
X135690476Y-81759580D01*
X129033333Y-100854819D02*
X128700000Y-100378628D01*
X128461905Y-100854819D02*
X128461905Y-99854819D01*
X128461905Y-99854819D02*
X128842857Y-99854819D01*
X128842857Y-99854819D02*
X128938095Y-99902438D01*
X128938095Y-99902438D02*
X128985714Y-99950057D01*
X128985714Y-99950057D02*
X129033333Y-100045295D01*
X129033333Y-100045295D02*
X129033333Y-100188152D01*
X129033333Y-100188152D02*
X128985714Y-100283390D01*
X128985714Y-100283390D02*
X128938095Y-100331009D01*
X128938095Y-100331009D02*
X128842857Y-100378628D01*
X128842857Y-100378628D02*
X128461905Y-100378628D01*
X129366667Y-99854819D02*
X130033333Y-99854819D01*
X130033333Y-99854819D02*
X129604762Y-100854819D01*
X131338095Y-84254819D02*
X131338095Y-85064342D01*
X131338095Y-85064342D02*
X131385714Y-85159580D01*
X131385714Y-85159580D02*
X131433333Y-85207200D01*
X131433333Y-85207200D02*
X131528571Y-85254819D01*
X131528571Y-85254819D02*
X131719047Y-85254819D01*
X131719047Y-85254819D02*
X131814285Y-85207200D01*
X131814285Y-85207200D02*
X131861904Y-85159580D01*
X131861904Y-85159580D02*
X131909523Y-85064342D01*
X131909523Y-85064342D02*
X131909523Y-84254819D01*
X132338095Y-84350057D02*
X132385714Y-84302438D01*
X132385714Y-84302438D02*
X132480952Y-84254819D01*
X132480952Y-84254819D02*
X132719047Y-84254819D01*
X132719047Y-84254819D02*
X132814285Y-84302438D01*
X132814285Y-84302438D02*
X132861904Y-84350057D01*
X132861904Y-84350057D02*
X132909523Y-84445295D01*
X132909523Y-84445295D02*
X132909523Y-84540533D01*
X132909523Y-84540533D02*
X132861904Y-84683390D01*
X132861904Y-84683390D02*
X132290476Y-85254819D01*
X132290476Y-85254819D02*
X132909523Y-85254819D01*
X114833333Y-89659580D02*
X114785714Y-89707200D01*
X114785714Y-89707200D02*
X114642857Y-89754819D01*
X114642857Y-89754819D02*
X114547619Y-89754819D01*
X114547619Y-89754819D02*
X114404762Y-89707200D01*
X114404762Y-89707200D02*
X114309524Y-89611961D01*
X114309524Y-89611961D02*
X114261905Y-89516723D01*
X114261905Y-89516723D02*
X114214286Y-89326247D01*
X114214286Y-89326247D02*
X114214286Y-89183390D01*
X114214286Y-89183390D02*
X114261905Y-88992914D01*
X114261905Y-88992914D02*
X114309524Y-88897676D01*
X114309524Y-88897676D02*
X114404762Y-88802438D01*
X114404762Y-88802438D02*
X114547619Y-88754819D01*
X114547619Y-88754819D02*
X114642857Y-88754819D01*
X114642857Y-88754819D02*
X114785714Y-88802438D01*
X114785714Y-88802438D02*
X114833333Y-88850057D01*
X115214286Y-88850057D02*
X115261905Y-88802438D01*
X115261905Y-88802438D02*
X115357143Y-88754819D01*
X115357143Y-88754819D02*
X115595238Y-88754819D01*
X115595238Y-88754819D02*
X115690476Y-88802438D01*
X115690476Y-88802438D02*
X115738095Y-88850057D01*
X115738095Y-88850057D02*
X115785714Y-88945295D01*
X115785714Y-88945295D02*
X115785714Y-89040533D01*
X115785714Y-89040533D02*
X115738095Y-89183390D01*
X115738095Y-89183390D02*
X115166667Y-89754819D01*
X115166667Y-89754819D02*
X115785714Y-89754819D01*
X128833333Y-71954819D02*
X128500000Y-71478628D01*
X128261905Y-71954819D02*
X128261905Y-70954819D01*
X128261905Y-70954819D02*
X128642857Y-70954819D01*
X128642857Y-70954819D02*
X128738095Y-71002438D01*
X128738095Y-71002438D02*
X128785714Y-71050057D01*
X128785714Y-71050057D02*
X128833333Y-71145295D01*
X128833333Y-71145295D02*
X128833333Y-71288152D01*
X128833333Y-71288152D02*
X128785714Y-71383390D01*
X128785714Y-71383390D02*
X128738095Y-71431009D01*
X128738095Y-71431009D02*
X128642857Y-71478628D01*
X128642857Y-71478628D02*
X128261905Y-71478628D01*
X129690476Y-70954819D02*
X129500000Y-70954819D01*
X129500000Y-70954819D02*
X129404762Y-71002438D01*
X129404762Y-71002438D02*
X129357143Y-71050057D01*
X129357143Y-71050057D02*
X129261905Y-71192914D01*
X129261905Y-71192914D02*
X129214286Y-71383390D01*
X129214286Y-71383390D02*
X129214286Y-71764342D01*
X129214286Y-71764342D02*
X129261905Y-71859580D01*
X129261905Y-71859580D02*
X129309524Y-71907200D01*
X129309524Y-71907200D02*
X129404762Y-71954819D01*
X129404762Y-71954819D02*
X129595238Y-71954819D01*
X129595238Y-71954819D02*
X129690476Y-71907200D01*
X129690476Y-71907200D02*
X129738095Y-71859580D01*
X129738095Y-71859580D02*
X129785714Y-71764342D01*
X129785714Y-71764342D02*
X129785714Y-71526247D01*
X129785714Y-71526247D02*
X129738095Y-71431009D01*
X129738095Y-71431009D02*
X129690476Y-71383390D01*
X129690476Y-71383390D02*
X129595238Y-71335771D01*
X129595238Y-71335771D02*
X129404762Y-71335771D01*
X129404762Y-71335771D02*
X129309524Y-71383390D01*
X129309524Y-71383390D02*
X129261905Y-71431009D01*
X129261905Y-71431009D02*
X129214286Y-71526247D01*
X133504819Y-79961904D02*
X134314342Y-79961904D01*
X134314342Y-79961904D02*
X134409580Y-79914285D01*
X134409580Y-79914285D02*
X134457200Y-79866666D01*
X134457200Y-79866666D02*
X134504819Y-79771428D01*
X134504819Y-79771428D02*
X134504819Y-79580952D01*
X134504819Y-79580952D02*
X134457200Y-79485714D01*
X134457200Y-79485714D02*
X134409580Y-79438095D01*
X134409580Y-79438095D02*
X134314342Y-79390476D01*
X134314342Y-79390476D02*
X133504819Y-79390476D01*
X133838152Y-78485714D02*
X134504819Y-78485714D01*
X133457200Y-78723809D02*
X134171485Y-78961904D01*
X134171485Y-78961904D02*
X134171485Y-78342857D01*
X131357142Y-105929580D02*
X131309523Y-105977200D01*
X131309523Y-105977200D02*
X131166666Y-106024819D01*
X131166666Y-106024819D02*
X131071428Y-106024819D01*
X131071428Y-106024819D02*
X130928571Y-105977200D01*
X130928571Y-105977200D02*
X130833333Y-105881961D01*
X130833333Y-105881961D02*
X130785714Y-105786723D01*
X130785714Y-105786723D02*
X130738095Y-105596247D01*
X130738095Y-105596247D02*
X130738095Y-105453390D01*
X130738095Y-105453390D02*
X130785714Y-105262914D01*
X130785714Y-105262914D02*
X130833333Y-105167676D01*
X130833333Y-105167676D02*
X130928571Y-105072438D01*
X130928571Y-105072438D02*
X131071428Y-105024819D01*
X131071428Y-105024819D02*
X131166666Y-105024819D01*
X131166666Y-105024819D02*
X131309523Y-105072438D01*
X131309523Y-105072438D02*
X131357142Y-105120057D01*
X132309523Y-106024819D02*
X131738095Y-106024819D01*
X132023809Y-106024819D02*
X132023809Y-105024819D01*
X132023809Y-105024819D02*
X131928571Y-105167676D01*
X131928571Y-105167676D02*
X131833333Y-105262914D01*
X131833333Y-105262914D02*
X131738095Y-105310533D01*
X133166666Y-105024819D02*
X132976190Y-105024819D01*
X132976190Y-105024819D02*
X132880952Y-105072438D01*
X132880952Y-105072438D02*
X132833333Y-105120057D01*
X132833333Y-105120057D02*
X132738095Y-105262914D01*
X132738095Y-105262914D02*
X132690476Y-105453390D01*
X132690476Y-105453390D02*
X132690476Y-105834342D01*
X132690476Y-105834342D02*
X132738095Y-105929580D01*
X132738095Y-105929580D02*
X132785714Y-105977200D01*
X132785714Y-105977200D02*
X132880952Y-106024819D01*
X132880952Y-106024819D02*
X133071428Y-106024819D01*
X133071428Y-106024819D02*
X133166666Y-105977200D01*
X133166666Y-105977200D02*
X133214285Y-105929580D01*
X133214285Y-105929580D02*
X133261904Y-105834342D01*
X133261904Y-105834342D02*
X133261904Y-105596247D01*
X133261904Y-105596247D02*
X133214285Y-105501009D01*
X133214285Y-105501009D02*
X133166666Y-105453390D01*
X133166666Y-105453390D02*
X133071428Y-105405771D01*
X133071428Y-105405771D02*
X132880952Y-105405771D01*
X132880952Y-105405771D02*
X132785714Y-105453390D01*
X132785714Y-105453390D02*
X132738095Y-105501009D01*
X132738095Y-105501009D02*
X132690476Y-105596247D01*
D10*
X135719047Y-88226109D02*
X135719047Y-88630871D01*
X135719047Y-88630871D02*
X135742857Y-88678490D01*
X135742857Y-88678490D02*
X135766666Y-88702300D01*
X135766666Y-88702300D02*
X135814285Y-88726109D01*
X135814285Y-88726109D02*
X135909523Y-88726109D01*
X135909523Y-88726109D02*
X135957142Y-88702300D01*
X135957142Y-88702300D02*
X135980952Y-88678490D01*
X135980952Y-88678490D02*
X136004761Y-88630871D01*
X136004761Y-88630871D02*
X136004761Y-88226109D01*
X136504762Y-88726109D02*
X136219048Y-88726109D01*
X136361905Y-88726109D02*
X136361905Y-88226109D01*
X136361905Y-88226109D02*
X136314286Y-88297538D01*
X136314286Y-88297538D02*
X136266667Y-88345157D01*
X136266667Y-88345157D02*
X136219048Y-88368966D01*
D11*
X139354819Y-80761904D02*
X140164342Y-80761904D01*
X140164342Y-80761904D02*
X140259580Y-80714285D01*
X140259580Y-80714285D02*
X140307200Y-80666666D01*
X140307200Y-80666666D02*
X140354819Y-80571428D01*
X140354819Y-80571428D02*
X140354819Y-80380952D01*
X140354819Y-80380952D02*
X140307200Y-80285714D01*
X140307200Y-80285714D02*
X140259580Y-80238095D01*
X140259580Y-80238095D02*
X140164342Y-80190476D01*
X140164342Y-80190476D02*
X139354819Y-80190476D01*
X139354819Y-79809523D02*
X139354819Y-79142857D01*
X139354819Y-79142857D02*
X140354819Y-79571428D01*
X133688095Y-100754819D02*
X133688095Y-101564342D01*
X133688095Y-101564342D02*
X133735714Y-101659580D01*
X133735714Y-101659580D02*
X133783333Y-101707200D01*
X133783333Y-101707200D02*
X133878571Y-101754819D01*
X133878571Y-101754819D02*
X134069047Y-101754819D01*
X134069047Y-101754819D02*
X134164285Y-101707200D01*
X134164285Y-101707200D02*
X134211904Y-101659580D01*
X134211904Y-101659580D02*
X134259523Y-101564342D01*
X134259523Y-101564342D02*
X134259523Y-100754819D01*
X134878571Y-101183390D02*
X134783333Y-101135771D01*
X134783333Y-101135771D02*
X134735714Y-101088152D01*
X134735714Y-101088152D02*
X134688095Y-100992914D01*
X134688095Y-100992914D02*
X134688095Y-100945295D01*
X134688095Y-100945295D02*
X134735714Y-100850057D01*
X134735714Y-100850057D02*
X134783333Y-100802438D01*
X134783333Y-100802438D02*
X134878571Y-100754819D01*
X134878571Y-100754819D02*
X135069047Y-100754819D01*
X135069047Y-100754819D02*
X135164285Y-100802438D01*
X135164285Y-100802438D02*
X135211904Y-100850057D01*
X135211904Y-100850057D02*
X135259523Y-100945295D01*
X135259523Y-100945295D02*
X135259523Y-100992914D01*
X135259523Y-100992914D02*
X135211904Y-101088152D01*
X135211904Y-101088152D02*
X135164285Y-101135771D01*
X135164285Y-101135771D02*
X135069047Y-101183390D01*
X135069047Y-101183390D02*
X134878571Y-101183390D01*
X134878571Y-101183390D02*
X134783333Y-101231009D01*
X134783333Y-101231009D02*
X134735714Y-101278628D01*
X134735714Y-101278628D02*
X134688095Y-101373866D01*
X134688095Y-101373866D02*
X134688095Y-101564342D01*
X134688095Y-101564342D02*
X134735714Y-101659580D01*
X134735714Y-101659580D02*
X134783333Y-101707200D01*
X134783333Y-101707200D02*
X134878571Y-101754819D01*
X134878571Y-101754819D02*
X135069047Y-101754819D01*
X135069047Y-101754819D02*
X135164285Y-101707200D01*
X135164285Y-101707200D02*
X135211904Y-101659580D01*
X135211904Y-101659580D02*
X135259523Y-101564342D01*
X135259523Y-101564342D02*
X135259523Y-101373866D01*
X135259523Y-101373866D02*
X135211904Y-101278628D01*
X135211904Y-101278628D02*
X135164285Y-101231009D01*
X135164285Y-101231009D02*
X135069047Y-101183390D01*
D10*
X137952380Y-88773728D02*
X137904761Y-88749919D01*
X137904761Y-88749919D02*
X137857142Y-88702300D01*
X137857142Y-88702300D02*
X137785714Y-88630871D01*
X137785714Y-88630871D02*
X137738095Y-88607061D01*
X137738095Y-88607061D02*
X137690476Y-88607061D01*
X137714285Y-88726109D02*
X137666666Y-88702300D01*
X137666666Y-88702300D02*
X137619047Y-88654680D01*
X137619047Y-88654680D02*
X137595238Y-88559442D01*
X137595238Y-88559442D02*
X137595238Y-88392776D01*
X137595238Y-88392776D02*
X137619047Y-88297538D01*
X137619047Y-88297538D02*
X137666666Y-88249919D01*
X137666666Y-88249919D02*
X137714285Y-88226109D01*
X137714285Y-88226109D02*
X137809523Y-88226109D01*
X137809523Y-88226109D02*
X137857142Y-88249919D01*
X137857142Y-88249919D02*
X137904761Y-88297538D01*
X137904761Y-88297538D02*
X137928571Y-88392776D01*
X137928571Y-88392776D02*
X137928571Y-88559442D01*
X137928571Y-88559442D02*
X137904761Y-88654680D01*
X137904761Y-88654680D02*
X137857142Y-88702300D01*
X137857142Y-88702300D02*
X137809523Y-88726109D01*
X137809523Y-88726109D02*
X137714285Y-88726109D01*
X138119048Y-88273728D02*
X138142857Y-88249919D01*
X138142857Y-88249919D02*
X138190476Y-88226109D01*
X138190476Y-88226109D02*
X138309524Y-88226109D01*
X138309524Y-88226109D02*
X138357143Y-88249919D01*
X138357143Y-88249919D02*
X138380952Y-88273728D01*
X138380952Y-88273728D02*
X138404762Y-88321347D01*
X138404762Y-88321347D02*
X138404762Y-88368966D01*
X138404762Y-88368966D02*
X138380952Y-88440395D01*
X138380952Y-88440395D02*
X138095238Y-88726109D01*
X138095238Y-88726109D02*
X138404762Y-88726109D01*
D11*
X135583333Y-72959580D02*
X135535714Y-73007200D01*
X135535714Y-73007200D02*
X135392857Y-73054819D01*
X135392857Y-73054819D02*
X135297619Y-73054819D01*
X135297619Y-73054819D02*
X135154762Y-73007200D01*
X135154762Y-73007200D02*
X135059524Y-72911961D01*
X135059524Y-72911961D02*
X135011905Y-72816723D01*
X135011905Y-72816723D02*
X134964286Y-72626247D01*
X134964286Y-72626247D02*
X134964286Y-72483390D01*
X134964286Y-72483390D02*
X135011905Y-72292914D01*
X135011905Y-72292914D02*
X135059524Y-72197676D01*
X135059524Y-72197676D02*
X135154762Y-72102438D01*
X135154762Y-72102438D02*
X135297619Y-72054819D01*
X135297619Y-72054819D02*
X135392857Y-72054819D01*
X135392857Y-72054819D02*
X135535714Y-72102438D01*
X135535714Y-72102438D02*
X135583333Y-72150057D01*
X136059524Y-73054819D02*
X136250000Y-73054819D01*
X136250000Y-73054819D02*
X136345238Y-73007200D01*
X136345238Y-73007200D02*
X136392857Y-72959580D01*
X136392857Y-72959580D02*
X136488095Y-72816723D01*
X136488095Y-72816723D02*
X136535714Y-72626247D01*
X136535714Y-72626247D02*
X136535714Y-72245295D01*
X136535714Y-72245295D02*
X136488095Y-72150057D01*
X136488095Y-72150057D02*
X136440476Y-72102438D01*
X136440476Y-72102438D02*
X136345238Y-72054819D01*
X136345238Y-72054819D02*
X136154762Y-72054819D01*
X136154762Y-72054819D02*
X136059524Y-72102438D01*
X136059524Y-72102438D02*
X136011905Y-72150057D01*
X136011905Y-72150057D02*
X135964286Y-72245295D01*
X135964286Y-72245295D02*
X135964286Y-72483390D01*
X135964286Y-72483390D02*
X136011905Y-72578628D01*
X136011905Y-72578628D02*
X136059524Y-72626247D01*
X136059524Y-72626247D02*
X136154762Y-72673866D01*
X136154762Y-72673866D02*
X136345238Y-72673866D01*
X136345238Y-72673866D02*
X136440476Y-72626247D01*
X136440476Y-72626247D02*
X136488095Y-72578628D01*
X136488095Y-72578628D02*
X136535714Y-72483390D01*
X133454819Y-113938094D02*
X134264342Y-113938094D01*
X134264342Y-113938094D02*
X134359580Y-113890475D01*
X134359580Y-113890475D02*
X134407200Y-113842856D01*
X134407200Y-113842856D02*
X134454819Y-113747618D01*
X134454819Y-113747618D02*
X134454819Y-113557142D01*
X134454819Y-113557142D02*
X134407200Y-113461904D01*
X134407200Y-113461904D02*
X134359580Y-113414285D01*
X134359580Y-113414285D02*
X134264342Y-113366666D01*
X134264342Y-113366666D02*
X133454819Y-113366666D01*
X134454819Y-112366666D02*
X134454819Y-112938094D01*
X134454819Y-112652380D02*
X133454819Y-112652380D01*
X133454819Y-112652380D02*
X133597676Y-112747618D01*
X133597676Y-112747618D02*
X133692914Y-112842856D01*
X133692914Y-112842856D02*
X133740533Y-112938094D01*
X133454819Y-111747618D02*
X133454819Y-111652380D01*
X133454819Y-111652380D02*
X133502438Y-111557142D01*
X133502438Y-111557142D02*
X133550057Y-111509523D01*
X133550057Y-111509523D02*
X133645295Y-111461904D01*
X133645295Y-111461904D02*
X133835771Y-111414285D01*
X133835771Y-111414285D02*
X134073866Y-111414285D01*
X134073866Y-111414285D02*
X134264342Y-111461904D01*
X134264342Y-111461904D02*
X134359580Y-111509523D01*
X134359580Y-111509523D02*
X134407200Y-111557142D01*
X134407200Y-111557142D02*
X134454819Y-111652380D01*
X134454819Y-111652380D02*
X134454819Y-111747618D01*
X134454819Y-111747618D02*
X134407200Y-111842856D01*
X134407200Y-111842856D02*
X134359580Y-111890475D01*
X134359580Y-111890475D02*
X134264342Y-111938094D01*
X134264342Y-111938094D02*
X134073866Y-111985713D01*
X134073866Y-111985713D02*
X133835771Y-111985713D01*
X133835771Y-111985713D02*
X133645295Y-111938094D01*
X133645295Y-111938094D02*
X133550057Y-111890475D01*
X133550057Y-111890475D02*
X133502438Y-111842856D01*
X133502438Y-111842856D02*
X133454819Y-111747618D01*
X128833333Y-89754819D02*
X128500000Y-89278628D01*
X128261905Y-89754819D02*
X128261905Y-88754819D01*
X128261905Y-88754819D02*
X128642857Y-88754819D01*
X128642857Y-88754819D02*
X128738095Y-88802438D01*
X128738095Y-88802438D02*
X128785714Y-88850057D01*
X128785714Y-88850057D02*
X128833333Y-88945295D01*
X128833333Y-88945295D02*
X128833333Y-89088152D01*
X128833333Y-89088152D02*
X128785714Y-89183390D01*
X128785714Y-89183390D02*
X128738095Y-89231009D01*
X128738095Y-89231009D02*
X128642857Y-89278628D01*
X128642857Y-89278628D02*
X128261905Y-89278628D01*
X129785714Y-89754819D02*
X129214286Y-89754819D01*
X129500000Y-89754819D02*
X129500000Y-88754819D01*
X129500000Y-88754819D02*
X129404762Y-88897676D01*
X129404762Y-88897676D02*
X129309524Y-88992914D01*
X129309524Y-88992914D02*
X129214286Y-89040533D01*
X139204819Y-74311904D02*
X140014342Y-74311904D01*
X140014342Y-74311904D02*
X140109580Y-74264285D01*
X140109580Y-74264285D02*
X140157200Y-74216666D01*
X140157200Y-74216666D02*
X140204819Y-74121428D01*
X140204819Y-74121428D02*
X140204819Y-73930952D01*
X140204819Y-73930952D02*
X140157200Y-73835714D01*
X140157200Y-73835714D02*
X140109580Y-73788095D01*
X140109580Y-73788095D02*
X140014342Y-73740476D01*
X140014342Y-73740476D02*
X139204819Y-73740476D01*
X139204819Y-72788095D02*
X139204819Y-73264285D01*
X139204819Y-73264285D02*
X139681009Y-73311904D01*
X139681009Y-73311904D02*
X139633390Y-73264285D01*
X139633390Y-73264285D02*
X139585771Y-73169047D01*
X139585771Y-73169047D02*
X139585771Y-72930952D01*
X139585771Y-72930952D02*
X139633390Y-72835714D01*
X139633390Y-72835714D02*
X139681009Y-72788095D01*
X139681009Y-72788095D02*
X139776247Y-72740476D01*
X139776247Y-72740476D02*
X140014342Y-72740476D01*
X140014342Y-72740476D02*
X140109580Y-72788095D01*
X140109580Y-72788095D02*
X140157200Y-72835714D01*
X140157200Y-72835714D02*
X140204819Y-72930952D01*
X140204819Y-72930952D02*
X140204819Y-73169047D01*
X140204819Y-73169047D02*
X140157200Y-73264285D01*
X140157200Y-73264285D02*
X140109580Y-73311904D01*
X129133333Y-93454819D02*
X128800000Y-92978628D01*
X128561905Y-93454819D02*
X128561905Y-92454819D01*
X128561905Y-92454819D02*
X128942857Y-92454819D01*
X128942857Y-92454819D02*
X129038095Y-92502438D01*
X129038095Y-92502438D02*
X129085714Y-92550057D01*
X129085714Y-92550057D02*
X129133333Y-92645295D01*
X129133333Y-92645295D02*
X129133333Y-92788152D01*
X129133333Y-92788152D02*
X129085714Y-92883390D01*
X129085714Y-92883390D02*
X129038095Y-92931009D01*
X129038095Y-92931009D02*
X128942857Y-92978628D01*
X128942857Y-92978628D02*
X128561905Y-92978628D01*
X129609524Y-93454819D02*
X129800000Y-93454819D01*
X129800000Y-93454819D02*
X129895238Y-93407200D01*
X129895238Y-93407200D02*
X129942857Y-93359580D01*
X129942857Y-93359580D02*
X130038095Y-93216723D01*
X130038095Y-93216723D02*
X130085714Y-93026247D01*
X130085714Y-93026247D02*
X130085714Y-92645295D01*
X130085714Y-92645295D02*
X130038095Y-92550057D01*
X130038095Y-92550057D02*
X129990476Y-92502438D01*
X129990476Y-92502438D02*
X129895238Y-92454819D01*
X129895238Y-92454819D02*
X129704762Y-92454819D01*
X129704762Y-92454819D02*
X129609524Y-92502438D01*
X129609524Y-92502438D02*
X129561905Y-92550057D01*
X129561905Y-92550057D02*
X129514286Y-92645295D01*
X129514286Y-92645295D02*
X129514286Y-92883390D01*
X129514286Y-92883390D02*
X129561905Y-92978628D01*
X129561905Y-92978628D02*
X129609524Y-93026247D01*
X129609524Y-93026247D02*
X129704762Y-93073866D01*
X129704762Y-93073866D02*
X129895238Y-93073866D01*
X129895238Y-93073866D02*
X129990476Y-93026247D01*
X129990476Y-93026247D02*
X130038095Y-92978628D01*
X130038095Y-92978628D02*
X130085714Y-92883390D01*
X131857142Y-94429580D02*
X131809523Y-94477200D01*
X131809523Y-94477200D02*
X131666666Y-94524819D01*
X131666666Y-94524819D02*
X131571428Y-94524819D01*
X131571428Y-94524819D02*
X131428571Y-94477200D01*
X131428571Y-94477200D02*
X131333333Y-94381961D01*
X131333333Y-94381961D02*
X131285714Y-94286723D01*
X131285714Y-94286723D02*
X131238095Y-94096247D01*
X131238095Y-94096247D02*
X131238095Y-93953390D01*
X131238095Y-93953390D02*
X131285714Y-93762914D01*
X131285714Y-93762914D02*
X131333333Y-93667676D01*
X131333333Y-93667676D02*
X131428571Y-93572438D01*
X131428571Y-93572438D02*
X131571428Y-93524819D01*
X131571428Y-93524819D02*
X131666666Y-93524819D01*
X131666666Y-93524819D02*
X131809523Y-93572438D01*
X131809523Y-93572438D02*
X131857142Y-93620057D01*
X132809523Y-94524819D02*
X132238095Y-94524819D01*
X132523809Y-94524819D02*
X132523809Y-93524819D01*
X132523809Y-93524819D02*
X132428571Y-93667676D01*
X132428571Y-93667676D02*
X132333333Y-93762914D01*
X132333333Y-93762914D02*
X132238095Y-93810533D01*
X133714285Y-93524819D02*
X133238095Y-93524819D01*
X133238095Y-93524819D02*
X133190476Y-94001009D01*
X133190476Y-94001009D02*
X133238095Y-93953390D01*
X133238095Y-93953390D02*
X133333333Y-93905771D01*
X133333333Y-93905771D02*
X133571428Y-93905771D01*
X133571428Y-93905771D02*
X133666666Y-93953390D01*
X133666666Y-93953390D02*
X133714285Y-94001009D01*
X133714285Y-94001009D02*
X133761904Y-94096247D01*
X133761904Y-94096247D02*
X133761904Y-94334342D01*
X133761904Y-94334342D02*
X133714285Y-94429580D01*
X133714285Y-94429580D02*
X133666666Y-94477200D01*
X133666666Y-94477200D02*
X133571428Y-94524819D01*
X133571428Y-94524819D02*
X133333333Y-94524819D01*
X133333333Y-94524819D02*
X133238095Y-94477200D01*
X133238095Y-94477200D02*
X133190476Y-94429580D01*
X131133333Y-81354819D02*
X130800000Y-80878628D01*
X130561905Y-81354819D02*
X130561905Y-80354819D01*
X130561905Y-80354819D02*
X130942857Y-80354819D01*
X130942857Y-80354819D02*
X131038095Y-80402438D01*
X131038095Y-80402438D02*
X131085714Y-80450057D01*
X131085714Y-80450057D02*
X131133333Y-80545295D01*
X131133333Y-80545295D02*
X131133333Y-80688152D01*
X131133333Y-80688152D02*
X131085714Y-80783390D01*
X131085714Y-80783390D02*
X131038095Y-80831009D01*
X131038095Y-80831009D02*
X130942857Y-80878628D01*
X130942857Y-80878628D02*
X130561905Y-80878628D01*
X132038095Y-80354819D02*
X131561905Y-80354819D01*
X131561905Y-80354819D02*
X131514286Y-80831009D01*
X131514286Y-80831009D02*
X131561905Y-80783390D01*
X131561905Y-80783390D02*
X131657143Y-80735771D01*
X131657143Y-80735771D02*
X131895238Y-80735771D01*
X131895238Y-80735771D02*
X131990476Y-80783390D01*
X131990476Y-80783390D02*
X132038095Y-80831009D01*
X132038095Y-80831009D02*
X132085714Y-80926247D01*
X132085714Y-80926247D02*
X132085714Y-81164342D01*
X132085714Y-81164342D02*
X132038095Y-81259580D01*
X132038095Y-81259580D02*
X131990476Y-81307200D01*
X131990476Y-81307200D02*
X131895238Y-81354819D01*
X131895238Y-81354819D02*
X131657143Y-81354819D01*
X131657143Y-81354819D02*
X131561905Y-81307200D01*
X131561905Y-81307200D02*
X131514286Y-81259580D01*
X137257142Y-82869580D02*
X137209523Y-82917200D01*
X137209523Y-82917200D02*
X137066666Y-82964819D01*
X137066666Y-82964819D02*
X136971428Y-82964819D01*
X136971428Y-82964819D02*
X136828571Y-82917200D01*
X136828571Y-82917200D02*
X136733333Y-82821961D01*
X136733333Y-82821961D02*
X136685714Y-82726723D01*
X136685714Y-82726723D02*
X136638095Y-82536247D01*
X136638095Y-82536247D02*
X136638095Y-82393390D01*
X136638095Y-82393390D02*
X136685714Y-82202914D01*
X136685714Y-82202914D02*
X136733333Y-82107676D01*
X136733333Y-82107676D02*
X136828571Y-82012438D01*
X136828571Y-82012438D02*
X136971428Y-81964819D01*
X136971428Y-81964819D02*
X137066666Y-81964819D01*
X137066666Y-81964819D02*
X137209523Y-82012438D01*
X137209523Y-82012438D02*
X137257142Y-82060057D01*
X138209523Y-82964819D02*
X137638095Y-82964819D01*
X137923809Y-82964819D02*
X137923809Y-81964819D01*
X137923809Y-81964819D02*
X137828571Y-82107676D01*
X137828571Y-82107676D02*
X137733333Y-82202914D01*
X137733333Y-82202914D02*
X137638095Y-82250533D01*
X138542857Y-81964819D02*
X139209523Y-81964819D01*
X139209523Y-81964819D02*
X138780952Y-82964819D01*
X131357142Y-72929580D02*
X131309523Y-72977200D01*
X131309523Y-72977200D02*
X131166666Y-73024819D01*
X131166666Y-73024819D02*
X131071428Y-73024819D01*
X131071428Y-73024819D02*
X130928571Y-72977200D01*
X130928571Y-72977200D02*
X130833333Y-72881961D01*
X130833333Y-72881961D02*
X130785714Y-72786723D01*
X130785714Y-72786723D02*
X130738095Y-72596247D01*
X130738095Y-72596247D02*
X130738095Y-72453390D01*
X130738095Y-72453390D02*
X130785714Y-72262914D01*
X130785714Y-72262914D02*
X130833333Y-72167676D01*
X130833333Y-72167676D02*
X130928571Y-72072438D01*
X130928571Y-72072438D02*
X131071428Y-72024819D01*
X131071428Y-72024819D02*
X131166666Y-72024819D01*
X131166666Y-72024819D02*
X131309523Y-72072438D01*
X131309523Y-72072438D02*
X131357142Y-72120057D01*
X132309523Y-73024819D02*
X131738095Y-73024819D01*
X132023809Y-73024819D02*
X132023809Y-72024819D01*
X132023809Y-72024819D02*
X131928571Y-72167676D01*
X131928571Y-72167676D02*
X131833333Y-72262914D01*
X131833333Y-72262914D02*
X131738095Y-72310533D01*
X132928571Y-72024819D02*
X133023809Y-72024819D01*
X133023809Y-72024819D02*
X133119047Y-72072438D01*
X133119047Y-72072438D02*
X133166666Y-72120057D01*
X133166666Y-72120057D02*
X133214285Y-72215295D01*
X133214285Y-72215295D02*
X133261904Y-72405771D01*
X133261904Y-72405771D02*
X133261904Y-72643866D01*
X133261904Y-72643866D02*
X133214285Y-72834342D01*
X133214285Y-72834342D02*
X133166666Y-72929580D01*
X133166666Y-72929580D02*
X133119047Y-72977200D01*
X133119047Y-72977200D02*
X133023809Y-73024819D01*
X133023809Y-73024819D02*
X132928571Y-73024819D01*
X132928571Y-73024819D02*
X132833333Y-72977200D01*
X132833333Y-72977200D02*
X132785714Y-72929580D01*
X132785714Y-72929580D02*
X132738095Y-72834342D01*
X132738095Y-72834342D02*
X132690476Y-72643866D01*
X132690476Y-72643866D02*
X132690476Y-72405771D01*
X132690476Y-72405771D02*
X132738095Y-72215295D01*
X132738095Y-72215295D02*
X132785714Y-72120057D01*
X132785714Y-72120057D02*
X132833333Y-72072438D01*
X132833333Y-72072438D02*
X132928571Y-72024819D01*
X128933333Y-79254819D02*
X128600000Y-78778628D01*
X128361905Y-79254819D02*
X128361905Y-78254819D01*
X128361905Y-78254819D02*
X128742857Y-78254819D01*
X128742857Y-78254819D02*
X128838095Y-78302438D01*
X128838095Y-78302438D02*
X128885714Y-78350057D01*
X128885714Y-78350057D02*
X128933333Y-78445295D01*
X128933333Y-78445295D02*
X128933333Y-78588152D01*
X128933333Y-78588152D02*
X128885714Y-78683390D01*
X128885714Y-78683390D02*
X128838095Y-78731009D01*
X128838095Y-78731009D02*
X128742857Y-78778628D01*
X128742857Y-78778628D02*
X128361905Y-78778628D01*
X129790476Y-78588152D02*
X129790476Y-79254819D01*
X129552381Y-78207200D02*
X129314286Y-78921485D01*
X129314286Y-78921485D02*
X129933333Y-78921485D01*
X129254819Y-113142857D02*
X128778628Y-113476190D01*
X129254819Y-113714285D02*
X128254819Y-113714285D01*
X128254819Y-113714285D02*
X128254819Y-113333333D01*
X128254819Y-113333333D02*
X128302438Y-113238095D01*
X128302438Y-113238095D02*
X128350057Y-113190476D01*
X128350057Y-113190476D02*
X128445295Y-113142857D01*
X128445295Y-113142857D02*
X128588152Y-113142857D01*
X128588152Y-113142857D02*
X128683390Y-113190476D01*
X128683390Y-113190476D02*
X128731009Y-113238095D01*
X128731009Y-113238095D02*
X128778628Y-113333333D01*
X128778628Y-113333333D02*
X128778628Y-113714285D01*
X129254819Y-112190476D02*
X129254819Y-112761904D01*
X129254819Y-112476190D02*
X128254819Y-112476190D01*
X128254819Y-112476190D02*
X128397676Y-112571428D01*
X128397676Y-112571428D02*
X128492914Y-112666666D01*
X128492914Y-112666666D02*
X128540533Y-112761904D01*
X128254819Y-111571428D02*
X128254819Y-111476190D01*
X128254819Y-111476190D02*
X128302438Y-111380952D01*
X128302438Y-111380952D02*
X128350057Y-111333333D01*
X128350057Y-111333333D02*
X128445295Y-111285714D01*
X128445295Y-111285714D02*
X128635771Y-111238095D01*
X128635771Y-111238095D02*
X128873866Y-111238095D01*
X128873866Y-111238095D02*
X129064342Y-111285714D01*
X129064342Y-111285714D02*
X129159580Y-111333333D01*
X129159580Y-111333333D02*
X129207200Y-111380952D01*
X129207200Y-111380952D02*
X129254819Y-111476190D01*
X129254819Y-111476190D02*
X129254819Y-111571428D01*
X129254819Y-111571428D02*
X129207200Y-111666666D01*
X129207200Y-111666666D02*
X129159580Y-111714285D01*
X129159580Y-111714285D02*
X129064342Y-111761904D01*
X129064342Y-111761904D02*
X128873866Y-111809523D01*
X128873866Y-111809523D02*
X128635771Y-111809523D01*
X128635771Y-111809523D02*
X128445295Y-111761904D01*
X128445295Y-111761904D02*
X128350057Y-111714285D01*
X128350057Y-111714285D02*
X128302438Y-111666666D01*
X128302438Y-111666666D02*
X128254819Y-111571428D01*
X131833333Y-102384819D02*
X131500000Y-101908628D01*
X131261905Y-102384819D02*
X131261905Y-101384819D01*
X131261905Y-101384819D02*
X131642857Y-101384819D01*
X131642857Y-101384819D02*
X131738095Y-101432438D01*
X131738095Y-101432438D02*
X131785714Y-101480057D01*
X131785714Y-101480057D02*
X131833333Y-101575295D01*
X131833333Y-101575295D02*
X131833333Y-101718152D01*
X131833333Y-101718152D02*
X131785714Y-101813390D01*
X131785714Y-101813390D02*
X131738095Y-101861009D01*
X131738095Y-101861009D02*
X131642857Y-101908628D01*
X131642857Y-101908628D02*
X131261905Y-101908628D01*
X132404762Y-101813390D02*
X132309524Y-101765771D01*
X132309524Y-101765771D02*
X132261905Y-101718152D01*
X132261905Y-101718152D02*
X132214286Y-101622914D01*
X132214286Y-101622914D02*
X132214286Y-101575295D01*
X132214286Y-101575295D02*
X132261905Y-101480057D01*
X132261905Y-101480057D02*
X132309524Y-101432438D01*
X132309524Y-101432438D02*
X132404762Y-101384819D01*
X132404762Y-101384819D02*
X132595238Y-101384819D01*
X132595238Y-101384819D02*
X132690476Y-101432438D01*
X132690476Y-101432438D02*
X132738095Y-101480057D01*
X132738095Y-101480057D02*
X132785714Y-101575295D01*
X132785714Y-101575295D02*
X132785714Y-101622914D01*
X132785714Y-101622914D02*
X132738095Y-101718152D01*
X132738095Y-101718152D02*
X132690476Y-101765771D01*
X132690476Y-101765771D02*
X132595238Y-101813390D01*
X132595238Y-101813390D02*
X132404762Y-101813390D01*
X132404762Y-101813390D02*
X132309524Y-101861009D01*
X132309524Y-101861009D02*
X132261905Y-101908628D01*
X132261905Y-101908628D02*
X132214286Y-102003866D01*
X132214286Y-102003866D02*
X132214286Y-102194342D01*
X132214286Y-102194342D02*
X132261905Y-102289580D01*
X132261905Y-102289580D02*
X132309524Y-102337200D01*
X132309524Y-102337200D02*
X132404762Y-102384819D01*
X132404762Y-102384819D02*
X132595238Y-102384819D01*
X132595238Y-102384819D02*
X132690476Y-102337200D01*
X132690476Y-102337200D02*
X132738095Y-102289580D01*
X132738095Y-102289580D02*
X132785714Y-102194342D01*
X132785714Y-102194342D02*
X132785714Y-102003866D01*
X132785714Y-102003866D02*
X132738095Y-101908628D01*
X132738095Y-101908628D02*
X132690476Y-101861009D01*
X132690476Y-101861009D02*
X132595238Y-101813390D01*
D12*
%TO.C,Q3*%
X137700000Y-106300000D02*
X137700000Y-108355000D01*
X137700000Y-110700000D02*
X137700000Y-110045000D01*
X137700000Y-110700000D02*
X138555000Y-110700000D01*
X142300000Y-107555000D02*
X142300000Y-106300000D01*
D13*
X143100000Y-106879000D02*
G75*
G03*
X143100000Y-106879000I-100000J0D01*
G01*
D14*
%TO.C,C1*%
X117510000Y-86766233D02*
X117510000Y-87058767D01*
X116490000Y-86766233D02*
X116490000Y-87058767D01*
%TO.C,C14*%
X135553733Y-107190000D02*
X135846267Y-107190000D01*
X135553733Y-108210000D02*
X135846267Y-108210000D01*
D10*
%TO.C,Q5*%
X137449000Y-97757000D02*
X139151000Y-97757000D01*
X137449000Y-98844000D02*
X137449000Y-97757000D01*
D13*
X137600000Y-97300000D02*
X137600000Y-97300000D01*
X137800000Y-97300000D02*
X137800000Y-97300000D01*
D10*
X139151000Y-97757000D02*
X139151000Y-98844000D01*
X139151000Y-98844000D02*
X137449000Y-98844000D01*
D13*
X137800000Y-97300000D02*
G75*
G03*
X137600000Y-97300000I-100000J0D01*
G01*
X137600000Y-97300000D02*
G75*
G03*
X137800000Y-97300000I100000J0D01*
G01*
D14*
%TO.C,C12*%
X135853733Y-95990000D02*
X136146267Y-95990000D01*
X135853733Y-97010000D02*
X136146267Y-97010000D01*
%TO.C,C6*%
X135284165Y-85140000D02*
X135515835Y-85140000D01*
X135284165Y-85860000D02*
X135515835Y-85860000D01*
D12*
%TO.C,U9*%
X135555000Y-97105000D02*
X135555000Y-97527500D01*
X135555000Y-97105000D02*
X135877500Y-97105000D01*
X135555000Y-98795000D02*
X135555000Y-98372500D01*
X135555000Y-98795000D02*
X135877500Y-98795000D01*
X136845000Y-97105000D02*
X136522500Y-97105000D01*
X136845000Y-97105000D02*
X136845000Y-97527500D01*
X136845000Y-98795000D02*
X136522500Y-98795000D01*
X136845000Y-98795000D02*
X136845000Y-98372500D01*
D13*
X135357500Y-97550000D02*
G75*
G03*
X135357500Y-97550000I-100000J0D01*
G01*
D14*
%TO.C,R3*%
X128477500Y-84237258D02*
X128477500Y-83762742D01*
X129522500Y-84237258D02*
X129522500Y-83762742D01*
%TO.C,R11*%
X132237258Y-112522500D02*
X131762742Y-112522500D01*
X132237258Y-111477500D02*
X131762742Y-111477500D01*
%TO.C,J6*%
X117000000Y-96000000D02*
G75*
G03*
X117000000Y-96000000I-5500000J0D01*
G01*
%TO.C,C4*%
X131941233Y-82990000D02*
X132233767Y-82990000D01*
X131941233Y-84010000D02*
X132233767Y-84010000D01*
%TO.C,J2*%
X120145000Y-96560000D02*
X120145000Y-98440000D01*
X126855000Y-96560000D02*
X126855000Y-98440000D01*
%TO.C,C8*%
X135565835Y-75660000D02*
X135334165Y-75660000D01*
X135565835Y-74940000D02*
X135334165Y-74940000D01*
%TO.C,R2*%
X132237258Y-90022500D02*
X131762742Y-90022500D01*
X132237258Y-88977500D02*
X131762742Y-88977500D01*
D10*
%TO.C,Q1*%
X139450000Y-76475000D02*
X139450000Y-77575000D01*
X139750000Y-76175000D02*
X139450000Y-76475000D01*
X141250000Y-76175000D02*
X139750000Y-76175000D01*
X141250000Y-76175000D02*
X141250000Y-77575000D01*
X141250000Y-77575000D02*
X139450000Y-77575000D01*
D13*
X139450000Y-76075000D02*
G75*
G03*
X139450000Y-76075000I-100000J0D01*
G01*
D14*
%TO.C,C7*%
X135515835Y-79310000D02*
X135284165Y-79310000D01*
X135515835Y-78590000D02*
X135284165Y-78590000D01*
%TO.C,U6*%
X139060000Y-75950000D02*
X139060000Y-78250000D01*
X137590000Y-75950000D02*
X139060000Y-75950000D01*
X136790000Y-76750000D02*
X137590000Y-75950000D01*
X139060000Y-78250000D02*
X136790000Y-78250000D01*
X136790000Y-78250000D02*
X136790000Y-76750000D01*
%TO.C,C3*%
X113500000Y-86766233D02*
X113500000Y-87058767D01*
X112480000Y-86766233D02*
X112480000Y-87058767D01*
D12*
%TO.C,U11*%
X134955000Y-108655000D02*
X134955000Y-109077500D01*
X134955000Y-108655000D02*
X135277500Y-108655000D01*
X134955000Y-110345000D02*
X134955000Y-109922500D01*
X134955000Y-110345000D02*
X135277500Y-110345000D01*
X136245000Y-108655000D02*
X135922500Y-108655000D01*
X136245000Y-108655000D02*
X136245000Y-109077500D01*
X136245000Y-110345000D02*
X135922500Y-110345000D01*
X136245000Y-110345000D02*
X136245000Y-109922500D01*
D13*
X134757500Y-109100000D02*
G75*
G03*
X134757500Y-109100000I-100000J0D01*
G01*
D14*
%TO.C,R12*%
X128477500Y-106412258D02*
X128477500Y-105937742D01*
X129522500Y-106412258D02*
X129522500Y-105937742D01*
%TO.C,U3*%
X136510000Y-75950000D02*
X136510000Y-78250000D01*
X135040000Y-75950000D02*
X136510000Y-75950000D01*
X134240000Y-76750000D02*
X135040000Y-75950000D01*
X136510000Y-78250000D02*
X134240000Y-78250000D01*
X134240000Y-78250000D02*
X134240000Y-76750000D01*
%TO.C,R7*%
X129822500Y-97812742D02*
X129822500Y-98287258D01*
X128777500Y-97812742D02*
X128777500Y-98287258D01*
%TO.C,U2*%
X132000000Y-85440000D02*
X130200000Y-85440000D01*
X132000000Y-85440000D02*
X132800000Y-85440000D01*
X132000000Y-88560000D02*
X131200000Y-88560000D01*
X132000000Y-88560000D02*
X132800000Y-88560000D01*
%TO.C,C2*%
X115510000Y-86766233D02*
X115510000Y-87058767D01*
X114490000Y-86766233D02*
X114490000Y-87058767D01*
%TO.C,J5*%
X117000000Y-78500000D02*
G75*
G03*
X117000000Y-78500000I-5500000J0D01*
G01*
%TO.C,R6*%
X128477500Y-73737258D02*
X128477500Y-73262742D01*
X129522500Y-73737258D02*
X129522500Y-73262742D01*
%TO.C,U4*%
X132000000Y-74940000D02*
X130200000Y-74940000D01*
X132000000Y-74940000D02*
X132800000Y-74940000D01*
X132000000Y-78060000D02*
X131200000Y-78060000D01*
X132000000Y-78060000D02*
X132800000Y-78060000D01*
%TO.C,C16*%
X131853733Y-106490000D02*
X132146267Y-106490000D01*
X131853733Y-107510000D02*
X132146267Y-107510000D01*
D12*
%TO.C,U1*%
X134955000Y-86255000D02*
X134955000Y-86677500D01*
X134955000Y-86255000D02*
X135277500Y-86255000D01*
X134955000Y-87945000D02*
X134955000Y-87522500D01*
X134955000Y-87945000D02*
X135277500Y-87945000D01*
X136245000Y-86255000D02*
X135922500Y-86255000D01*
X136245000Y-86255000D02*
X136245000Y-86677500D01*
X136245000Y-87945000D02*
X135922500Y-87945000D01*
X136245000Y-87945000D02*
X136245000Y-87522500D01*
D13*
X134757500Y-86700000D02*
G75*
G03*
X134757500Y-86700000I-100000J0D01*
G01*
D14*
%TO.C,U7*%
X139060000Y-78450000D02*
X139060000Y-80750000D01*
X137590000Y-78450000D02*
X139060000Y-78450000D01*
X136790000Y-79250000D02*
X137590000Y-78450000D01*
X139060000Y-80750000D02*
X136790000Y-80750000D01*
X136790000Y-80750000D02*
X136790000Y-79250000D01*
%TO.C,J1*%
X120145000Y-86360000D02*
X120145000Y-88240000D01*
X126855000Y-86360000D02*
X126855000Y-88240000D01*
%TO.C,U8*%
X132362500Y-96440000D02*
X130562500Y-96440000D01*
X132362500Y-96440000D02*
X133162500Y-96440000D01*
X132362500Y-99560000D02*
X131562500Y-99560000D01*
X132362500Y-99560000D02*
X133162500Y-99560000D01*
D10*
%TO.C,Q2*%
X136650000Y-86875000D02*
X136650000Y-87975000D01*
X136950000Y-86575000D02*
X136650000Y-86875000D01*
X138450000Y-86575000D02*
X136950000Y-86575000D01*
X138450000Y-86575000D02*
X138450000Y-87975000D01*
X138450000Y-87975000D02*
X136650000Y-87975000D01*
D13*
X136650000Y-86475000D02*
G75*
G03*
X136650000Y-86475000I-100000J0D01*
G01*
D14*
%TO.C,J3*%
X120145000Y-107660000D02*
X120145000Y-109540000D01*
X126855000Y-107660000D02*
X126855000Y-109540000D01*
%TO.C,C9*%
X137965835Y-73210000D02*
X137734165Y-73210000D01*
X137965835Y-72490000D02*
X137734165Y-72490000D01*
%TO.C,U10*%
X132000000Y-107940000D02*
X130200000Y-107940000D01*
X132000000Y-107940000D02*
X132800000Y-107940000D01*
X132000000Y-111060000D02*
X131200000Y-111060000D01*
X132000000Y-111060000D02*
X132800000Y-111060000D01*
%TO.C,R1*%
X129522500Y-86762742D02*
X129522500Y-87237258D01*
X128477500Y-86762742D02*
X128477500Y-87237258D01*
%TO.C,U5*%
X139060000Y-73450000D02*
X139060000Y-75750000D01*
X137590000Y-73450000D02*
X139060000Y-73450000D01*
X136790000Y-74250000D02*
X137590000Y-73450000D01*
X139060000Y-75750000D02*
X136790000Y-75750000D01*
X136790000Y-75750000D02*
X136790000Y-74250000D01*
%TO.C,R9*%
X128777500Y-95287258D02*
X128777500Y-94812742D01*
X129822500Y-95287258D02*
X129822500Y-94812742D01*
%TO.C,C15*%
X132353733Y-94990000D02*
X132646267Y-94990000D01*
X132353733Y-96010000D02*
X132646267Y-96010000D01*
%TO.C,R5*%
X132237258Y-80022500D02*
X131762742Y-80022500D01*
X132237258Y-78977500D02*
X131762742Y-78977500D01*
%TO.C,C17*%
X138015835Y-81710000D02*
X137784165Y-81710000D01*
X138015835Y-80990000D02*
X137784165Y-80990000D01*
%TO.C,C10*%
X131853733Y-73490000D02*
X132146267Y-73490000D01*
X131853733Y-74510000D02*
X132146267Y-74510000D01*
%TO.C,R4*%
X129522500Y-76262742D02*
X129522500Y-76737258D01*
X128477500Y-76262742D02*
X128477500Y-76737258D01*
%TO.C,R10*%
X129522500Y-109262742D02*
X129522500Y-109737258D01*
X128477500Y-109262742D02*
X128477500Y-109737258D01*
%TO.C,J4*%
X120145000Y-75560000D02*
X120145000Y-77440000D01*
X126855000Y-75560000D02*
X126855000Y-77440000D01*
%TO.C,R8*%
X132237258Y-101022500D02*
X131762742Y-101022500D01*
X132237258Y-99977500D02*
X131762742Y-99977500D01*
%TD*%
M02*
