M48
; DRILL file {KiCad 8.0.0} date 2024-03-12T18:53:36-0700
; FORMAT={-:-/ absolute / inch / decimal}
; #@! TF.CreationDate,2024-03-12T18:53:36-07:00
; #@! TF.GenerationSoftware,Kicad,Pcbnew,8.0.0
; #@! TF.FileFunction,Plated,1,2,PTH
FMAT,2
INCH
; #@! TA.AperFunction,Plated,PTH,ViaDrill
T1C0.0079
; #@! TA.AperFunction,Plated,PTH,ViaDrill
T2C0.0118
; #@! TA.AperFunction,Plated,PTH,ViaDrill
T3C0.0236
; #@! TA.AperFunction,Plated,PTH,ViaDrill
T4C0.0276
; #@! TA.AperFunction,Plated,PTH,ComponentDrill
T5C0.2402
%
G90
G05
T1
X5.1339Y-4.3031
X5.1339Y-4.315
X5.1378Y-3.0039
X5.1378Y-3.0157
X5.1378Y-3.4173
X5.1378Y-3.4331
X5.1496Y-3.8504
X5.1496Y-3.8622
X5.1496Y-4.3031
X5.1496Y-4.315
X5.1535Y-3.0039
X5.1535Y-3.0157
X5.1535Y-3.4173
X5.1535Y-3.4331
X5.1654Y-3.8504
X5.1654Y-3.8622
X5.1654Y-4.3031
X5.1654Y-4.315
X5.1693Y-3.0039
X5.1693Y-3.0157
X5.1693Y-3.4173
X5.1693Y-3.4331
X5.1811Y-3.8504
X5.1811Y-3.8622
X5.2244Y-2.9685
X5.2244Y-2.9803
X5.2244Y-3.378
X5.2244Y-3.3937
X5.2244Y-4.2677
X5.2244Y-4.2795
X5.2402Y-2.9685
X5.2402Y-2.9803
X5.2402Y-3.378
X5.2402Y-3.3937
X5.2402Y-3.815
X5.2402Y-3.8268
X5.2402Y-4.2677
X5.2402Y-4.2795
X5.2559Y-2.9685
X5.2559Y-2.9803
X5.2559Y-3.378
X5.2559Y-3.3937
X5.2559Y-3.815
X5.2559Y-3.8268
X5.2559Y-4.2677
X5.2559Y-4.2795
X5.2717Y-3.815
X5.2717Y-3.8268
X5.315Y-2.9646
X5.315Y-3.1102
X5.315Y-4.3071
X5.3169Y-3.4272
X5.3248Y-3.0394
X5.3307Y-3.9311
X5.3366Y-3.8583
X5.3417Y-4.252
X5.3504Y-4.3346
X5.3543Y-3.4567
X5.4508Y-2.8701
X5.4508Y-3.6831
X5.4547Y-3.2126
X5.4587Y-3.0394
X5.4626Y-2.937
X5.4626Y-3.1417
X5.4724Y-3.9606
X5.4724Y-4.2028
X5.4744Y-3.7559
X5.4744Y-3.8583
X5.4882Y-4.2028
X5.502Y-4.2598
X5.502Y-4.2776
X5.502Y-4.2953
X5.502Y-4.313
X5.502Y-4.3307
X5.502Y-4.3484
X5.5039Y-4.2028
X5.5197Y-4.2028
X5.5197Y-4.2598
X5.5197Y-4.2776
X5.5197Y-4.2953
X5.5197Y-4.313
X5.5197Y-4.3307
X5.5197Y-4.3484
X5.5354Y-4.2028
X5.5374Y-4.2598
X5.5374Y-4.2776
X5.5374Y-4.2953
X5.5374Y-4.313
X5.5374Y-4.3307
X5.5374Y-4.3484
X5.5512Y-4.2028
X5.5551Y-4.2598
X5.5551Y-4.2776
X5.5551Y-4.2953
X5.5551Y-4.313
X5.5551Y-4.3307
X5.5551Y-4.3484
X5.5669Y-4.2028
X5.5728Y-4.2598
X5.5728Y-4.2776
X5.5728Y-4.2953
X5.5728Y-4.313
X5.5728Y-4.3307
X5.5728Y-4.3484
X5.5827Y-4.2028
X5.5906Y-4.2598
X5.5906Y-4.2776
X5.5906Y-4.2953
X5.5906Y-4.313
X5.5906Y-4.3307
X5.5906Y-4.3484
X5.5984Y-4.2028
X5.6083Y-4.2598
X5.6083Y-4.2776
X5.6083Y-4.2953
X5.6083Y-4.313
X5.6083Y-4.3307
X5.6083Y-4.3484
X5.6614Y-2.9429
X5.6772Y-2.9429
X5.6909Y-3.0
X5.6909Y-3.0177
X5.6909Y-3.0354
X5.6909Y-3.0531
X5.6909Y-3.0709
X5.6909Y-3.0886
X5.6929Y-2.9429
X5.7087Y-2.9429
X5.7087Y-3.0
X5.7087Y-3.0177
X5.7087Y-3.0354
X5.7087Y-3.0531
X5.7087Y-3.0709
X5.7087Y-3.0886
X5.7244Y-2.9429
X5.7264Y-3.0
X5.7264Y-3.0177
X5.7264Y-3.0354
X5.7264Y-3.0531
X5.7264Y-3.0709
X5.7264Y-3.0886
X5.7402Y-2.9429
X5.7441Y-3.0
X5.7441Y-3.0177
X5.7441Y-3.0354
X5.7441Y-3.0531
X5.7441Y-3.0709
X5.7441Y-3.0886
X5.7559Y-2.9429
X5.7618Y-3.0
X5.7618Y-3.0177
X5.7618Y-3.0354
X5.7618Y-3.0531
X5.7618Y-3.0709
X5.7618Y-3.0886
X5.7717Y-2.9429
X5.7795Y-3.0
X5.7795Y-3.0177
X5.7795Y-3.0354
X5.7795Y-3.0531
X5.7795Y-3.0709
X5.7795Y-3.0886
X5.7874Y-2.9429
X5.7972Y-3.0
X5.7972Y-3.0177
X5.7972Y-3.0354
X5.7972Y-3.0531
X5.7972Y-3.0709
X5.7972Y-3.0886
T2
X4.5472Y-3.4508
X4.6142Y-3.4528
X5.0787Y-2.8622
X5.0787Y-2.9793
X5.0787Y-3.2746
X5.0787Y-3.3927
X5.0787Y-4.1476
X5.0787Y-4.2785
X5.0906Y-3.7087
X5.0906Y-3.8268
X5.2274Y-2.9134
X5.2323Y-4.2126
X5.2362Y-3.2874
X5.2451Y-3.7638
X5.2835Y-2.9134
X5.3543Y-3.3661
T3
X4.126Y-2.6417
X4.126Y-2.7598
X4.126Y-3.1142
X4.126Y-3.2323
X4.126Y-3.3504
X4.126Y-3.4685
X4.126Y-3.5866
X4.126Y-3.7047
X4.126Y-3.8228
X4.126Y-3.9409
X4.126Y-4.0591
X4.126Y-4.1772
X4.126Y-4.2953
X4.126Y-4.4134
X4.126Y-4.5315
X4.2441Y-2.6417
X4.2441Y-3.4685
X4.2441Y-4.1772
X4.2441Y-4.2953
X4.2441Y-4.4134
X4.2441Y-4.5315
X4.3091Y-3.5965
X4.3622Y-2.6417
X4.3622Y-3.4685
X4.3622Y-4.1772
X4.3622Y-4.2953
X4.3622Y-4.4134
X4.3622Y-4.5315
X4.4449Y-3.5689
X4.4803Y-2.6417
X4.4803Y-2.7598
X4.4803Y-4.1772
X4.4803Y-4.2953
X4.4803Y-4.4134
X4.4803Y-4.5315
X4.5709Y-3.752
X4.5984Y-2.6417
X4.5984Y-2.7598
X4.5984Y-3.5866
X4.5984Y-3.9409
X4.5984Y-4.0591
X4.5984Y-4.1772
X4.5984Y-4.2953
X4.5984Y-4.4134
X4.5984Y-4.5315
X4.7165Y-2.6417
X4.7165Y-4.5315
X4.7638Y-3.3209
X4.7638Y-3.3642
X4.7638Y-4.1614
X4.7638Y-4.2047
X4.7677Y-3.5098
X4.7677Y-3.5531
X4.7677Y-4.3504
X4.7677Y-4.3937
X4.7697Y-2.8976
X4.7697Y-2.9409
X4.7697Y-3.0827
X4.7697Y-3.126
X4.7756Y-3.7185
X4.7756Y-3.7618
X4.7795Y-3.9035
X4.7795Y-3.9469
X4.8071Y-3.3209
X4.8071Y-4.1614
X4.811Y-3.5531
X4.811Y-4.3937
X4.813Y-2.8976
X4.813Y-3.126
X4.8189Y-3.7185
X4.8228Y-3.9469
X4.8346Y-2.6417
X4.8346Y-4.5315
X4.9528Y-2.6417
X4.9528Y-3.3209
X4.9528Y-4.1614
X4.9528Y-4.5315
X4.9567Y-3.5531
X4.9567Y-4.3937
X4.9587Y-2.8976
X4.9587Y-3.126
X4.9646Y-3.7185
X4.9685Y-3.9469
X4.9961Y-3.3209
X4.9961Y-3.3642
X4.9961Y-4.1614
X4.9961Y-4.2047
X5.0Y-3.5098
X5.0Y-3.5531
X5.0Y-4.3504
X5.0Y-4.3937
X5.002Y-2.8976
X5.002Y-2.9409
X5.002Y-3.0827
X5.002Y-3.126
X5.0079Y-3.7185
X5.0079Y-3.7618
X5.0118Y-3.9035
X5.0118Y-3.9469
X5.0709Y-2.6417
X5.0709Y-4.4134
X5.0709Y-4.5315
X5.0787Y-3.1575
X5.0787Y-3.5591
X5.0906Y-4.0
X5.189Y-2.6417
X5.189Y-2.7598
X5.189Y-4.5315
X5.2638Y-3.2008
X5.3071Y-2.6417
X5.3071Y-2.7598
X5.3071Y-3.5236
X5.3071Y-3.7047
X5.3071Y-4.0591
X5.3071Y-4.4134
X5.3071Y-4.5315
X5.374Y-3.2323
X5.3937Y-4.4094
X5.4232Y-2.7598
X5.4252Y-2.6417
X5.4252Y-4.0591
X5.4252Y-4.1535
X5.4252Y-4.5315
X5.5433Y-2.6417
X5.5433Y-2.7579
X5.5433Y-3.2323
X5.5433Y-3.3504
X5.5433Y-3.4685
X5.5433Y-3.5866
X5.5433Y-4.0591
X5.5433Y-4.4134
X5.5433Y-4.5315
X5.5472Y-4.1535
X5.624Y-3.9055
X5.6614Y-2.6417
X5.6614Y-2.7598
X5.6614Y-2.878
X5.6614Y-3.2323
X5.6614Y-3.3504
X5.6614Y-3.4685
X5.6614Y-3.5866
X5.6614Y-3.7047
X5.6614Y-3.9409
X5.6614Y-4.0591
X5.6614Y-4.1772
X5.6614Y-4.2953
X5.6614Y-4.4134
X5.6614Y-4.5315
X5.6634Y-3.8366
X5.6634Y-3.8799
X5.7795Y-2.6417
X5.7795Y-2.7598
X5.7795Y-2.878
X5.7795Y-3.2323
X5.7795Y-3.3504
X5.7795Y-3.4685
X5.7795Y-3.5866
X5.7795Y-3.7047
X5.7795Y-3.8228
X5.7795Y-3.9409
X5.7795Y-4.0591
X5.7795Y-4.1772
X5.7795Y-4.2953
X5.7795Y-4.4134
X5.7795Y-4.5315
X5.8976Y-2.6417
X5.8976Y-2.7598
X5.8976Y-2.878
X5.8976Y-2.9961
X5.8976Y-3.1142
X5.8976Y-3.2323
X5.8976Y-3.3504
X5.8976Y-3.4685
X5.8976Y-3.5866
X5.8976Y-3.7047
X5.8976Y-3.8228
X5.8976Y-3.9409
X5.8976Y-4.0591
X5.8976Y-4.1772
X5.8976Y-4.2953
X5.8976Y-4.4134
X5.8976Y-4.5315
X6.0157Y-2.6417
X6.0157Y-2.7598
X6.0157Y-2.878
X6.0157Y-2.9961
X6.0157Y-3.1142
X6.0157Y-3.2323
X6.0157Y-3.3504
X6.0157Y-3.4685
X6.0157Y-3.5866
X6.0157Y-3.7047
X6.0157Y-3.8228
X6.0157Y-3.9409
X6.0157Y-4.0591
X6.0157Y-4.1772
X6.0157Y-4.2953
X6.0157Y-4.4134
X6.0157Y-4.5315
T4
X5.4016Y-3.378
X5.4016Y-3.5
X5.4173Y-4.2539
X5.4173Y-4.3465
X5.4469Y-3.5
X5.4488Y-3.3802
X5.4705Y-3.4193
X5.4705Y-3.4606
X5.6024Y-3.7913
X5.6079Y-2.9843
X5.6079Y-3.0866
X5.6496Y-3.7913
T5
X4.3307Y-2.9646
X4.3583Y-3.9311
M30
