%TF.GenerationSoftware,KiCad,Pcbnew,8.0.0*%
%TF.CreationDate,2024-03-12T18:53:39-07:00*%
%TF.ProjectId,GD_test,47445f74-6573-4742-9e6b-696361645f70,rev?*%
%TF.SameCoordinates,Original*%
%TF.FileFunction,Soldermask,Top*%
%TF.FilePolarity,Negative*%
%FSLAX46Y46*%
G04 Gerber Fmt 4.6, Leading zero omitted, Abs format (unit mm)*
G04 Created by KiCad (PCBNEW 8.0.0) date 2024-03-12 18:53:39*
%MOMM*%
%LPD*%
G01*
G04 APERTURE LIST*
G04 Aperture macros list*
%AMRoundRect*
0 Rectangle with rounded corners*
0 $1 Rounding radius*
0 $2 $3 $4 $5 $6 $7 $8 $9 X,Y pos of 4 corners*
0 Add a 4 corners polygon primitive as box body*
4,1,4,$2,$3,$4,$5,$6,$7,$8,$9,$2,$3,0*
0 Add four circle primitives for the rounded corners*
1,1,$1+$1,$2,$3*
1,1,$1+$1,$4,$5*
1,1,$1+$1,$6,$7*
1,1,$1+$1,$8,$9*
0 Add four rect primitives between the rounded corners*
20,1,$1+$1,$2,$3,$4,$5,0*
20,1,$1+$1,$4,$5,$6,$7,0*
20,1,$1+$1,$6,$7,$8,$9,0*
20,1,$1+$1,$8,$9,$2,$3,0*%
%AMFreePoly0*
4,1,25,-1.500000,1.420000,-1.360000,1.280000,-1.205000,1.155000,-1.035000,1.045000,-0.860000,0.950000,-0.675000,0.875000,-0.480000,0.820000,-0.280000,0.780000,-0.085000,0.765000,0.085000,0.765000,0.280000,0.780000,0.480000,0.820000,0.675000,0.875000,0.860000,0.950000,1.035000,1.045000,1.205000,1.155000,1.360000,1.280000,1.500000,1.420000,1.645000,1.595000,3.555000,1.595000,
3.555000,-0.755000,-3.555000,-0.755000,-3.555000,1.595000,-1.645000,1.595000,-1.500000,1.420000,-1.500000,1.420000,$1*%
G04 Aperture macros list end*
%ADD10RoundRect,0.250000X-1.000000X1.750000X-1.000000X-1.750000X1.000000X-1.750000X1.000000X1.750000X0*%
%ADD11RoundRect,0.225000X-0.250000X0.225000X-0.250000X-0.225000X0.250000X-0.225000X0.250000X0.225000X0*%
%ADD12R,0.660000X0.300000*%
%ADD13RoundRect,0.140000X-0.140000X-0.170000X0.140000X-0.170000X0.140000X0.170000X-0.140000X0.170000X0*%
%ADD14RoundRect,0.225000X-0.225000X-0.250000X0.225000X-0.250000X0.225000X0.250000X-0.225000X0.250000X0*%
%ADD15RoundRect,0.200000X0.275000X-0.200000X0.275000X0.200000X-0.275000X0.200000X-0.275000X-0.200000X0*%
%ADD16RoundRect,0.200000X0.200000X0.275000X-0.200000X0.275000X-0.200000X-0.275000X0.200000X-0.275000X0*%
%ADD17C,10.160000*%
%ADD18C,1.730000*%
%ADD19FreePoly0,180.000000*%
%ADD20FreePoly0,0.000000*%
%ADD21RoundRect,0.140000X0.140000X0.170000X-0.140000X0.170000X-0.140000X-0.170000X0.140000X-0.170000X0*%
%ADD22C,0.250000*%
%ADD23RoundRect,0.200000X-0.275000X0.200000X-0.275000X-0.200000X0.275000X-0.200000X0.275000X0.200000X0*%
%ADD24RoundRect,0.150000X-0.512500X-0.150000X0.512500X-0.150000X0.512500X0.150000X-0.512500X0.150000X0*%
%ADD25RoundRect,0.135000X-0.135000X-0.185000X0.135000X-0.185000X0.135000X0.185000X-0.135000X0.185000X0*%
%ADD26C,0.225000*%
%ADD27RoundRect,0.102000X-1.875000X-0.375000X1.875000X-0.375000X1.875000X0.375000X-1.875000X0.375000X0*%
%ADD28RoundRect,0.102000X-0.325000X-0.525000X0.325000X-0.525000X0.325000X0.525000X-0.325000X0.525000X0*%
%ADD29RoundRect,0.102000X-1.675000X-1.375000X1.675000X-1.375000X1.675000X1.375000X-1.675000X1.375000X0*%
%ADD30C,0.300000*%
%ADD31C,1.000000*%
%ADD32C,0.600000*%
G04 APERTURE END LIST*
D10*
%TO.C,C18*%
X109382500Y-91367500D03*
X109382500Y-83367500D03*
%TD*%
D11*
%TO.C,C1*%
X117150000Y-86175000D03*
X117150000Y-87725000D03*
%TD*%
D12*
%TO.C,U13*%
X138850000Y-97350000D03*
X138850000Y-98000000D03*
X138850000Y-98650000D03*
X140690000Y-98650000D03*
X140690000Y-98000000D03*
X140690000Y-97350000D03*
%TD*%
D13*
%TO.C,C14*%
X134720000Y-108000000D03*
X135680000Y-108000000D03*
%TD*%
D14*
%TO.C,C5*%
X131675000Y-95600000D03*
X133225000Y-95600000D03*
%TD*%
D13*
%TO.C,C9*%
X135020000Y-75300000D03*
X135980000Y-75300000D03*
%TD*%
%TO.C,C6*%
X134920000Y-85500000D03*
X135880000Y-85500000D03*
%TD*%
D12*
%TO.C,U9*%
X135360000Y-97350000D03*
X135360000Y-98000000D03*
X135360000Y-98650000D03*
X137200000Y-98650000D03*
X137200000Y-98000000D03*
X137200000Y-97350000D03*
%TD*%
D15*
%TO.C,R3*%
X129000000Y-84825000D03*
X129000000Y-83175000D03*
%TD*%
D16*
%TO.C,R11*%
X132825000Y-112000000D03*
X131175000Y-112000000D03*
%TD*%
D17*
%TO.C,J6*%
X110700000Y-99850000D03*
%TD*%
D14*
%TO.C,C4*%
X131312500Y-83500000D03*
X132862500Y-83500000D03*
%TD*%
D18*
%TO.C,J2*%
X124300000Y-97350000D03*
D19*
X124300000Y-94550000D03*
D20*
X124300000Y-100150000D03*
%TD*%
D16*
%TO.C,R2*%
X132825000Y-89500000D03*
X131175000Y-89500000D03*
%TD*%
D13*
%TO.C,C11*%
X138520000Y-81600000D03*
X139480000Y-81600000D03*
%TD*%
D21*
%TO.C,C7*%
X139730000Y-102500000D03*
X138770000Y-102500000D03*
%TD*%
D12*
%TO.C,U3*%
X135060000Y-76550000D03*
X135060000Y-77200000D03*
X135060000Y-77850000D03*
X136900000Y-77850000D03*
X136900000Y-77200000D03*
X136900000Y-76550000D03*
%TD*%
D22*
%TO.C,U11*%
X135400000Y-109100000D03*
X135800000Y-109100000D03*
X135400000Y-109500000D03*
X135800000Y-109500000D03*
X135400000Y-109900000D03*
X135800000Y-109900000D03*
%TD*%
D15*
%TO.C,R12*%
X129000000Y-107000000D03*
X129000000Y-105350000D03*
%TD*%
D13*
%TO.C,C13*%
X135370000Y-96150000D03*
X136330000Y-96150000D03*
%TD*%
D23*
%TO.C,R7*%
X129300000Y-97225000D03*
X129300000Y-98875000D03*
%TD*%
D24*
%TO.C,U2*%
X130862500Y-86050000D03*
X130862500Y-87000000D03*
X130862500Y-87950000D03*
X133137500Y-87950000D03*
X133137500Y-87000000D03*
X133137500Y-86050000D03*
%TD*%
D12*
%TO.C,U14*%
X138850000Y-99950000D03*
X138850000Y-100600000D03*
X138850000Y-101250000D03*
X140690000Y-101250000D03*
X140690000Y-100600000D03*
X140690000Y-99950000D03*
%TD*%
D11*
%TO.C,C2*%
X115500000Y-86125000D03*
X115500000Y-87675000D03*
%TD*%
D25*
%TO.C,R14*%
X141640000Y-77050000D03*
X142660000Y-77050000D03*
%TD*%
D17*
%TO.C,J5*%
X110000000Y-75300000D03*
%TD*%
D15*
%TO.C,R6*%
X129000000Y-74325000D03*
X129000000Y-72675000D03*
%TD*%
D24*
%TO.C,U4*%
X130862500Y-75550000D03*
X130862500Y-76500000D03*
X130862500Y-77450000D03*
X133137500Y-77450000D03*
X133137500Y-76500000D03*
X133137500Y-75550000D03*
%TD*%
D14*
%TO.C,C16*%
X131225000Y-107000000D03*
X132775000Y-107000000D03*
%TD*%
D13*
%TO.C,C12*%
X138420000Y-93550000D03*
X139380000Y-93550000D03*
%TD*%
D22*
%TO.C,U1*%
X135400000Y-86700000D03*
X135800000Y-86700000D03*
X135400000Y-87100000D03*
X135800000Y-87100000D03*
X135400000Y-87500000D03*
X135800000Y-87500000D03*
%TD*%
D12*
%TO.C,U6*%
X138550000Y-76534400D03*
X138550000Y-77184400D03*
X138550000Y-77834400D03*
X140390000Y-77834400D03*
X140390000Y-77184400D03*
X140390000Y-76534400D03*
%TD*%
D18*
%TO.C,J1*%
X124000000Y-87250000D03*
D19*
X124000000Y-84450000D03*
D20*
X124000000Y-90050000D03*
%TD*%
D24*
%TO.C,U8*%
X131225000Y-97050000D03*
X131225000Y-98000000D03*
X131225000Y-98950000D03*
X133500000Y-98950000D03*
X133500000Y-98000000D03*
X133500000Y-97050000D03*
%TD*%
D26*
%TO.C,Q2*%
X137070800Y-87039600D03*
X137070800Y-87489600D03*
X137070800Y-87939600D03*
X137520800Y-87039600D03*
X137520800Y-87489600D03*
X137520800Y-87939600D03*
X137970800Y-87039600D03*
X137970800Y-87489600D03*
X137970800Y-87939600D03*
%TD*%
D18*
%TO.C,J3*%
X124000000Y-108600000D03*
D19*
X124000000Y-105800000D03*
D20*
X124000000Y-111400000D03*
%TD*%
D24*
%TO.C,U10*%
X130862500Y-108550000D03*
X130862500Y-109500000D03*
X130862500Y-110450000D03*
X133137500Y-110450000D03*
X133137500Y-109500000D03*
X133137500Y-108550000D03*
%TD*%
D23*
%TO.C,R1*%
X129000000Y-86175000D03*
X129000000Y-87825000D03*
%TD*%
D15*
%TO.C,R9*%
X129300000Y-95875000D03*
X129300000Y-94225000D03*
%TD*%
D25*
%TO.C,R13*%
X136690000Y-109200000D03*
X137710000Y-109200000D03*
%TD*%
D27*
%TO.C,Q3*%
X140550000Y-106800000D03*
D28*
X138650000Y-109250000D03*
D29*
X141100000Y-109300000D03*
%TD*%
D12*
%TO.C,U7*%
X138600000Y-79150000D03*
X138600000Y-79800000D03*
X138600000Y-80450000D03*
X140440000Y-80450000D03*
X140440000Y-79800000D03*
X140440000Y-79150000D03*
%TD*%
D16*
%TO.C,R5*%
X132825000Y-79500000D03*
X131175000Y-79500000D03*
%TD*%
D13*
%TO.C,C15*%
X135420000Y-99850000D03*
X136380000Y-99850000D03*
%TD*%
D21*
%TO.C,C17*%
X135930000Y-79000000D03*
X134970000Y-79000000D03*
%TD*%
D27*
%TO.C,Q1*%
X145400000Y-74800000D03*
D28*
X143500000Y-77250000D03*
D29*
X145950000Y-77300000D03*
%TD*%
D14*
%TO.C,C10*%
X131225000Y-74000000D03*
X132775000Y-74000000D03*
%TD*%
D23*
%TO.C,R4*%
X129000000Y-75675000D03*
X129000000Y-77325000D03*
%TD*%
D12*
%TO.C,U12*%
X138850000Y-94750000D03*
X138850000Y-95400000D03*
X138850000Y-96050000D03*
X140690000Y-96050000D03*
X140690000Y-95400000D03*
X140690000Y-94750000D03*
%TD*%
D23*
%TO.C,R10*%
X129000000Y-108675000D03*
X129000000Y-110325000D03*
%TD*%
D18*
%TO.C,J4*%
X124050000Y-76500000D03*
D19*
X124050000Y-73700000D03*
D20*
X124050000Y-79300000D03*
%TD*%
D12*
%TO.C,U5*%
X138580000Y-73950000D03*
X138580000Y-74600000D03*
X138580000Y-75250000D03*
X140420000Y-75250000D03*
X140420000Y-74600000D03*
X140420000Y-73950000D03*
%TD*%
D13*
%TO.C,C8*%
X138420000Y-72900000D03*
X139380000Y-72900000D03*
%TD*%
D26*
%TO.C,Q4*%
X142050000Y-97400000D03*
X142050000Y-97850000D03*
X142050000Y-98300000D03*
X142500000Y-97400000D03*
X142500000Y-97850000D03*
X142500000Y-98300000D03*
X142950000Y-97400000D03*
X142950000Y-97850000D03*
X142950000Y-98300000D03*
%TD*%
D16*
%TO.C,R8*%
X132825000Y-100500000D03*
X131175000Y-100500000D03*
%TD*%
D30*
X138750000Y-79800000D03*
X138450000Y-93550000D03*
D31*
X116100000Y-95300000D03*
X137200000Y-88900000D03*
X138350000Y-88900000D03*
X138950000Y-87900000D03*
X138950000Y-86850000D03*
X143850000Y-98550000D03*
X142850000Y-99200000D03*
X143850000Y-97450000D03*
D32*
X117200000Y-87700000D03*
X115500000Y-87650000D03*
D31*
X109450000Y-91350000D03*
X112900000Y-90650000D03*
X125800000Y-115100000D03*
D30*
X142450000Y-109550000D03*
D31*
X133700000Y-81300000D03*
D30*
X133500000Y-75400000D03*
D31*
X149800000Y-91100000D03*
X131800000Y-70100000D03*
D30*
X145900000Y-77550000D03*
X147250000Y-76650000D03*
D31*
X121000000Y-85450000D03*
D30*
X142000000Y-108200000D03*
D31*
X113800000Y-70100000D03*
D30*
X146800000Y-77550000D03*
X130400000Y-109600000D03*
D31*
X104800000Y-88100000D03*
X146800000Y-109100000D03*
X104800000Y-67100000D03*
X104800000Y-100100000D03*
X138398644Y-85857078D03*
X127000000Y-110500000D03*
X104800000Y-70100000D03*
X149800000Y-100100000D03*
X122250000Y-79400000D03*
D30*
X146350000Y-77550000D03*
X140200000Y-108650000D03*
D31*
X121300000Y-94450000D03*
X121150000Y-78300000D03*
D30*
X131600000Y-97800000D03*
D31*
X122100000Y-105700000D03*
D30*
X139000000Y-106750000D03*
D31*
X152800000Y-70100000D03*
X146800000Y-82100000D03*
D30*
X142000000Y-110450000D03*
D31*
X143800000Y-100100000D03*
X125900000Y-90250000D03*
D30*
X146350000Y-78450000D03*
D32*
X129000000Y-83175000D03*
D30*
X135000000Y-109400000D03*
X145000000Y-74750000D03*
D31*
X140800000Y-112100000D03*
X143800000Y-103100000D03*
X137800000Y-105500000D03*
D30*
X144550000Y-78000000D03*
D31*
X104800000Y-106100000D03*
X140800000Y-85100000D03*
D30*
X146350000Y-77100000D03*
X135250000Y-77200000D03*
X142450000Y-108650000D03*
D31*
X107800000Y-109100000D03*
X134800000Y-70100000D03*
X149800000Y-103100000D03*
D30*
X146350000Y-78000000D03*
D31*
X143800000Y-112100000D03*
X127000000Y-89150000D03*
D30*
X135000000Y-79000000D03*
X145000000Y-76650000D03*
X140650000Y-110450000D03*
D31*
X143800000Y-67100000D03*
X121000000Y-106800000D03*
X110800000Y-88100000D03*
D30*
X142450000Y-110450000D03*
X142000000Y-110000000D03*
D31*
X136500000Y-82100000D03*
D30*
X131300000Y-87200000D03*
X145450000Y-76650000D03*
D31*
X143800000Y-70100000D03*
X126900000Y-85450000D03*
X125950000Y-79400000D03*
X122800000Y-67100000D03*
X121150000Y-79400000D03*
D30*
X145450000Y-77550000D03*
X133100000Y-75700000D03*
X145900000Y-77100000D03*
D31*
X121400000Y-100250000D03*
X149800000Y-76100000D03*
X125900000Y-111600000D03*
X152800000Y-94100000D03*
X146800000Y-67100000D03*
D30*
X141550000Y-108650000D03*
X130800000Y-109600000D03*
D31*
X127050000Y-79400000D03*
X116800000Y-112100000D03*
D30*
X147250000Y-78450000D03*
D32*
X129000000Y-105350000D03*
D30*
X130900000Y-86800000D03*
D31*
X122500000Y-100250000D03*
D30*
X138550000Y-81600000D03*
X130500000Y-86800000D03*
D31*
X143800000Y-94100000D03*
D30*
X146800000Y-78000000D03*
X133500000Y-85800000D03*
X130800000Y-98100000D03*
X141550000Y-109550000D03*
D31*
X127300000Y-100250000D03*
X129000000Y-90400000D03*
X128800000Y-112100000D03*
D30*
X132700000Y-86200000D03*
X142450000Y-108200000D03*
X133500000Y-108400000D03*
D31*
X125800000Y-67100000D03*
D30*
X141550000Y-108200000D03*
X140650000Y-110000000D03*
D31*
X119800000Y-115100000D03*
D30*
X144200000Y-74750000D03*
D31*
X122250000Y-73600000D03*
D30*
X144550000Y-76200000D03*
D31*
X122200000Y-111600000D03*
X140800000Y-67100000D03*
X127200000Y-95550000D03*
X127000000Y-111600000D03*
X121300000Y-95550000D03*
D30*
X141100000Y-108200000D03*
D31*
X107800000Y-106100000D03*
D30*
X146600000Y-74750000D03*
D31*
X104800000Y-97100000D03*
D30*
X138650000Y-77200000D03*
X147000000Y-74750000D03*
D31*
X149800000Y-94100000D03*
X116800000Y-106100000D03*
X140800000Y-91100000D03*
X137600000Y-108050000D03*
X113800000Y-106100000D03*
X140800000Y-103100000D03*
D30*
X145000000Y-77100000D03*
D31*
X149800000Y-73100000D03*
X122800000Y-115100000D03*
D30*
X142000000Y-109550000D03*
X144550000Y-76650000D03*
X145450000Y-78450000D03*
D31*
X131800000Y-67100000D03*
D30*
X145000000Y-78000000D03*
X144600000Y-74750000D03*
D31*
X107800000Y-115100000D03*
D30*
X139750000Y-108200000D03*
D31*
X113800000Y-115100000D03*
X126200000Y-100250000D03*
D30*
X145900000Y-76650000D03*
X145450000Y-76200000D03*
X133500000Y-97200000D03*
D31*
X125800000Y-105700000D03*
D30*
X145000000Y-78450000D03*
X130900000Y-76600000D03*
X142000000Y-108650000D03*
X143800000Y-74750000D03*
X147250000Y-78000000D03*
X133500000Y-75700000D03*
X133100000Y-96900000D03*
X145900000Y-78000000D03*
D31*
X104800000Y-103100000D03*
X134800000Y-89500000D03*
D30*
X133500000Y-108700000D03*
D32*
X132900000Y-107000000D03*
D30*
X130500000Y-87200000D03*
D32*
X133000000Y-83500000D03*
D30*
X144550000Y-78450000D03*
X131200000Y-109600000D03*
X140200000Y-110450000D03*
X141000000Y-106750000D03*
D31*
X127050000Y-78300000D03*
X126900000Y-105700000D03*
X110800000Y-109100000D03*
D30*
X135900000Y-110100000D03*
X141100000Y-110450000D03*
D31*
X146800000Y-100100000D03*
X152800000Y-112100000D03*
X127000000Y-90250000D03*
D30*
X132700000Y-108700000D03*
X133100000Y-97200000D03*
D31*
X104800000Y-91100000D03*
X152800000Y-76100000D03*
X116800000Y-109100000D03*
X121000000Y-84350000D03*
X149800000Y-67100000D03*
D30*
X144550000Y-77100000D03*
X139000000Y-100600000D03*
X146800000Y-77100000D03*
D31*
X137000000Y-112000000D03*
D30*
X138750000Y-74600000D03*
D31*
X146800000Y-91100000D03*
D30*
X142450000Y-109100000D03*
X131600000Y-98100000D03*
D31*
X152800000Y-115100000D03*
X146800000Y-103100000D03*
D30*
X142450000Y-110000000D03*
D32*
X133225000Y-95600000D03*
D31*
X116800000Y-67100000D03*
D32*
X129000000Y-108675000D03*
D31*
X116800000Y-103100000D03*
D30*
X131300000Y-76600000D03*
X133100000Y-85800000D03*
X145800000Y-74750000D03*
D31*
X121150000Y-73600000D03*
D30*
X136000000Y-87800000D03*
X140200000Y-108200000D03*
D31*
X104800000Y-94100000D03*
X143500000Y-96300000D03*
X152800000Y-91100000D03*
X104800000Y-82100000D03*
D30*
X133900000Y-96900000D03*
D32*
X129300000Y-94200000D03*
D30*
X135400000Y-99850000D03*
X140650000Y-109100000D03*
D31*
X149800000Y-115100000D03*
X143800000Y-73100000D03*
X146800000Y-112100000D03*
X152800000Y-82100000D03*
X129300000Y-101600000D03*
D30*
X131300000Y-86800000D03*
D31*
X121100000Y-111600000D03*
D32*
X136000000Y-85500000D03*
D31*
X107800000Y-88100000D03*
X137800000Y-115100000D03*
X152800000Y-106100000D03*
X146800000Y-94100000D03*
D30*
X141800000Y-106750000D03*
X145900000Y-78450000D03*
D31*
X127200000Y-94450000D03*
D30*
X133100000Y-108700000D03*
X140200000Y-109100000D03*
X132700000Y-75400000D03*
D31*
X149800000Y-79100000D03*
D30*
X147250000Y-76200000D03*
D31*
X146800000Y-97100000D03*
X104800000Y-109100000D03*
D30*
X140200000Y-110000000D03*
D31*
X152800000Y-109100000D03*
D32*
X129000000Y-86175000D03*
D31*
X104800000Y-79100000D03*
D30*
X135680000Y-108000000D03*
D31*
X152800000Y-100100000D03*
D30*
X132700000Y-85800000D03*
D31*
X146800000Y-106100000D03*
D32*
X129000000Y-72700000D03*
D31*
X142440000Y-75800000D03*
X140800000Y-115100000D03*
D30*
X130500000Y-76600000D03*
X131200000Y-109300000D03*
X140200000Y-106750000D03*
D31*
X134800000Y-103100000D03*
X152800000Y-67100000D03*
D30*
X139750000Y-108650000D03*
X130800000Y-109300000D03*
X146350000Y-76650000D03*
D31*
X127050000Y-73600000D03*
X146800000Y-85100000D03*
X125800000Y-84350000D03*
X121100000Y-90250000D03*
D30*
X133500000Y-86200000D03*
X130500000Y-76300000D03*
D31*
X152800000Y-85100000D03*
D30*
X133100000Y-86200000D03*
D31*
X149800000Y-109100000D03*
X121000000Y-105700000D03*
D30*
X142000000Y-109100000D03*
X139750000Y-109100000D03*
D32*
X134200000Y-74000000D03*
D30*
X131200000Y-98100000D03*
X141100000Y-109550000D03*
D31*
X128800000Y-115100000D03*
D30*
X140600000Y-106750000D03*
D31*
X149800000Y-88100000D03*
D30*
X140200000Y-109550000D03*
D31*
X140800000Y-88100000D03*
D30*
X135550000Y-98000000D03*
D31*
X140800000Y-70050000D03*
X121400000Y-99150000D03*
D30*
X139750000Y-109550000D03*
X145450000Y-78000000D03*
D31*
X116800000Y-115100000D03*
D30*
X130400000Y-109300000D03*
X141550000Y-110000000D03*
X145450000Y-77100000D03*
X133100000Y-75400000D03*
X141100000Y-108650000D03*
X146200000Y-74750000D03*
D31*
X137800000Y-103100000D03*
X113800000Y-112100000D03*
D30*
X140650000Y-108200000D03*
D31*
X134800000Y-67100000D03*
D30*
X139750000Y-110000000D03*
D32*
X129300000Y-97200000D03*
D31*
X152800000Y-103100000D03*
D30*
X139750000Y-110450000D03*
D31*
X146800000Y-115100000D03*
D30*
X146800000Y-76650000D03*
D31*
X134800000Y-115100000D03*
D30*
X139050000Y-95400000D03*
X145900000Y-76200000D03*
D31*
X137800000Y-67100000D03*
X116800000Y-91100000D03*
D30*
X145400000Y-74750000D03*
X141550000Y-110450000D03*
D31*
X110800000Y-115100000D03*
D30*
X133100000Y-108400000D03*
D31*
X149800000Y-85100000D03*
X110800000Y-112100000D03*
D30*
X142200000Y-106750000D03*
D31*
X143800000Y-106100000D03*
D30*
X145000000Y-76200000D03*
D31*
X110800000Y-67100000D03*
D30*
X145000000Y-77550000D03*
X144550000Y-77550000D03*
X141550000Y-109100000D03*
D31*
X122100000Y-84350000D03*
X140900000Y-105500000D03*
X134800000Y-94100000D03*
X121150000Y-74700000D03*
X121100000Y-89150000D03*
D30*
X146800000Y-76200000D03*
D31*
X146800000Y-73100000D03*
X116800000Y-70100000D03*
X152800000Y-88100000D03*
X149800000Y-97100000D03*
X126900000Y-84350000D03*
D30*
X131300000Y-76300000D03*
D31*
X131800000Y-115100000D03*
X149800000Y-82100000D03*
X121100000Y-110500000D03*
D32*
X132775000Y-74000000D03*
D31*
X152800000Y-79100000D03*
D30*
X140650000Y-109550000D03*
D31*
X107800000Y-112100000D03*
D30*
X135050000Y-87050500D03*
X132700000Y-108400000D03*
D32*
X129000000Y-75675000D03*
D31*
X134800000Y-112100000D03*
X149800000Y-106100000D03*
X116800000Y-100100000D03*
X146800000Y-70100000D03*
X149800000Y-70100000D03*
X104800000Y-115100000D03*
D30*
X138450000Y-72900000D03*
D31*
X152800000Y-73100000D03*
X143800000Y-115100000D03*
D30*
X140650000Y-108650000D03*
X147250000Y-77100000D03*
D31*
X104800000Y-85100000D03*
X122400000Y-94450000D03*
D30*
X130900000Y-87200000D03*
D31*
X113800000Y-109100000D03*
X152800000Y-97100000D03*
D30*
X139050000Y-98000000D03*
D31*
X129000000Y-80200000D03*
X143800000Y-85100000D03*
X140800000Y-82100000D03*
X143800000Y-82100000D03*
D30*
X141400000Y-106750000D03*
D31*
X143800000Y-91100000D03*
D30*
X133500000Y-96900000D03*
X139400000Y-106750000D03*
D31*
X137750000Y-70100000D03*
X149800000Y-112100000D03*
D30*
X139800000Y-106750000D03*
D31*
X110800000Y-106100000D03*
X127050000Y-74700000D03*
X113800000Y-67100000D03*
D30*
X135000000Y-75300000D03*
X141100000Y-110000000D03*
D31*
X126100000Y-94450000D03*
D30*
X146800000Y-78450000D03*
D31*
X119800000Y-67100000D03*
X125950000Y-73600000D03*
D30*
X146350000Y-76200000D03*
D31*
X127300000Y-99150000D03*
D30*
X131200000Y-97800000D03*
X130900000Y-76300000D03*
X147250000Y-77550000D03*
D31*
X107800000Y-67100000D03*
X128800000Y-67100000D03*
D30*
X132700000Y-75700000D03*
D31*
X143800000Y-109100000D03*
D30*
X130800000Y-97800000D03*
D31*
X122200000Y-90250000D03*
X126900000Y-106800000D03*
D30*
X141100000Y-109100000D03*
X133900000Y-97200000D03*
D31*
X104800000Y-112100000D03*
X146800000Y-88100000D03*
X143800000Y-88100000D03*
X142300000Y-96300000D03*
X137200000Y-85800000D03*
X142440000Y-78400000D03*
X137600000Y-110400000D03*
M02*
