%TF.GenerationSoftware,KiCad,Pcbnew,8.0.0*%
%TF.CreationDate,2024-03-12T18:53:39-07:00*%
%TF.ProjectId,GD_test,47445f74-6573-4742-9e6b-696361645f70,rev?*%
%TF.SameCoordinates,Original*%
%TF.FileFunction,Soldermask,Bot*%
%TF.FilePolarity,Negative*%
%FSLAX46Y46*%
G04 Gerber Fmt 4.6, Leading zero omitted, Abs format (unit mm)*
G04 Created by KiCad (PCBNEW 8.0.0) date 2024-03-12 18:53:39*
%MOMM*%
%LPD*%
G01*
G04 APERTURE LIST*
%ADD10C,10.160000*%
%ADD11C,0.300000*%
%ADD12C,1.000000*%
%ADD13C,0.600000*%
G04 APERTURE END LIST*
D10*
%TO.C,J6*%
X110700000Y-99850000D03*
%TD*%
%TO.C,J5*%
X110000000Y-75300000D03*
%TD*%
D11*
X138750000Y-79800000D03*
X138450000Y-93550000D03*
D12*
X116100000Y-95300000D03*
X137200000Y-88900000D03*
X138350000Y-88900000D03*
X138950000Y-87900000D03*
X138950000Y-86850000D03*
X143850000Y-98550000D03*
X142850000Y-99200000D03*
X143850000Y-97450000D03*
D13*
X117200000Y-87700000D03*
X115500000Y-87650000D03*
D12*
X109450000Y-91350000D03*
X112900000Y-90650000D03*
X125800000Y-115100000D03*
D11*
X142450000Y-109550000D03*
D12*
X133700000Y-81300000D03*
D11*
X133500000Y-75400000D03*
D12*
X149800000Y-91100000D03*
X131800000Y-70100000D03*
D11*
X145900000Y-77550000D03*
X147250000Y-76650000D03*
D12*
X121000000Y-85450000D03*
D11*
X142000000Y-108200000D03*
D12*
X113800000Y-70100000D03*
D11*
X146800000Y-77550000D03*
X130400000Y-109600000D03*
D12*
X104800000Y-88100000D03*
X146800000Y-109100000D03*
X104800000Y-67100000D03*
X104800000Y-100100000D03*
X138398644Y-85857078D03*
X127000000Y-110500000D03*
X104800000Y-70100000D03*
X149800000Y-100100000D03*
X122250000Y-79400000D03*
D11*
X146350000Y-77550000D03*
X140200000Y-108650000D03*
D12*
X121300000Y-94450000D03*
X121150000Y-78300000D03*
D11*
X131600000Y-97800000D03*
D12*
X122100000Y-105700000D03*
D11*
X139000000Y-106750000D03*
D12*
X152800000Y-70100000D03*
X146800000Y-82100000D03*
D11*
X142000000Y-110450000D03*
D12*
X143800000Y-100100000D03*
X125900000Y-90250000D03*
D11*
X146350000Y-78450000D03*
D13*
X129000000Y-83175000D03*
D11*
X135000000Y-109400000D03*
X145000000Y-74750000D03*
D12*
X140800000Y-112100000D03*
X143800000Y-103100000D03*
X137800000Y-105500000D03*
D11*
X144550000Y-78000000D03*
D12*
X104800000Y-106100000D03*
X140800000Y-85100000D03*
D11*
X146350000Y-77100000D03*
X135250000Y-77200000D03*
X142450000Y-108650000D03*
D12*
X107800000Y-109100000D03*
X134800000Y-70100000D03*
X149800000Y-103100000D03*
D11*
X146350000Y-78000000D03*
D12*
X143800000Y-112100000D03*
X127000000Y-89150000D03*
D11*
X135000000Y-79000000D03*
X145000000Y-76650000D03*
X140650000Y-110450000D03*
D12*
X143800000Y-67100000D03*
X121000000Y-106800000D03*
X110800000Y-88100000D03*
D11*
X142450000Y-110450000D03*
X142000000Y-110000000D03*
D12*
X136500000Y-82100000D03*
D11*
X131300000Y-87200000D03*
X145450000Y-76650000D03*
D12*
X143800000Y-70100000D03*
X126900000Y-85450000D03*
X125950000Y-79400000D03*
X122800000Y-67100000D03*
X121150000Y-79400000D03*
D11*
X145450000Y-77550000D03*
X133100000Y-75700000D03*
X145900000Y-77100000D03*
D12*
X121400000Y-100250000D03*
X149800000Y-76100000D03*
X125900000Y-111600000D03*
X152800000Y-94100000D03*
X146800000Y-67100000D03*
D11*
X141550000Y-108650000D03*
X130800000Y-109600000D03*
D12*
X127050000Y-79400000D03*
X116800000Y-112100000D03*
D11*
X147250000Y-78450000D03*
D13*
X129000000Y-105350000D03*
D11*
X130900000Y-86800000D03*
D12*
X122500000Y-100250000D03*
D11*
X138550000Y-81600000D03*
X130500000Y-86800000D03*
D12*
X143800000Y-94100000D03*
D11*
X146800000Y-78000000D03*
X133500000Y-85800000D03*
X130800000Y-98100000D03*
X141550000Y-109550000D03*
D12*
X127300000Y-100250000D03*
X129000000Y-90400000D03*
X128800000Y-112100000D03*
D11*
X132700000Y-86200000D03*
X142450000Y-108200000D03*
X133500000Y-108400000D03*
D12*
X125800000Y-67100000D03*
D11*
X141550000Y-108200000D03*
X140650000Y-110000000D03*
D12*
X119800000Y-115100000D03*
D11*
X144200000Y-74750000D03*
D12*
X122250000Y-73600000D03*
D11*
X144550000Y-76200000D03*
D12*
X122200000Y-111600000D03*
X140800000Y-67100000D03*
X127200000Y-95550000D03*
X127000000Y-111600000D03*
X121300000Y-95550000D03*
D11*
X141100000Y-108200000D03*
D12*
X107800000Y-106100000D03*
D11*
X146600000Y-74750000D03*
D12*
X104800000Y-97100000D03*
D11*
X138650000Y-77200000D03*
X147000000Y-74750000D03*
D12*
X149800000Y-94100000D03*
X116800000Y-106100000D03*
X140800000Y-91100000D03*
X137600000Y-108050000D03*
X113800000Y-106100000D03*
X140800000Y-103100000D03*
D11*
X145000000Y-77100000D03*
D12*
X149800000Y-73100000D03*
X122800000Y-115100000D03*
D11*
X142000000Y-109550000D03*
X144550000Y-76650000D03*
X145450000Y-78450000D03*
D12*
X131800000Y-67100000D03*
D11*
X145000000Y-78000000D03*
X144600000Y-74750000D03*
D12*
X107800000Y-115100000D03*
D11*
X139750000Y-108200000D03*
D12*
X113800000Y-115100000D03*
X126200000Y-100250000D03*
D11*
X145900000Y-76650000D03*
X145450000Y-76200000D03*
X133500000Y-97200000D03*
D12*
X125800000Y-105700000D03*
D11*
X145000000Y-78450000D03*
X130900000Y-76600000D03*
X142000000Y-108650000D03*
X143800000Y-74750000D03*
X147250000Y-78000000D03*
X133500000Y-75700000D03*
X133100000Y-96900000D03*
X145900000Y-78000000D03*
D12*
X104800000Y-103100000D03*
X134800000Y-89500000D03*
D11*
X133500000Y-108700000D03*
D13*
X132900000Y-107000000D03*
D11*
X130500000Y-87200000D03*
D13*
X133000000Y-83500000D03*
D11*
X144550000Y-78450000D03*
X131200000Y-109600000D03*
X140200000Y-110450000D03*
X141000000Y-106750000D03*
D12*
X127050000Y-78300000D03*
X126900000Y-105700000D03*
X110800000Y-109100000D03*
D11*
X135900000Y-110100000D03*
X141100000Y-110450000D03*
D12*
X146800000Y-100100000D03*
X152800000Y-112100000D03*
X127000000Y-90250000D03*
D11*
X132700000Y-108700000D03*
X133100000Y-97200000D03*
D12*
X104800000Y-91100000D03*
X152800000Y-76100000D03*
X116800000Y-109100000D03*
X121000000Y-84350000D03*
X149800000Y-67100000D03*
D11*
X144550000Y-77100000D03*
X139000000Y-100600000D03*
X146800000Y-77100000D03*
D12*
X137000000Y-112000000D03*
D11*
X138750000Y-74600000D03*
D12*
X146800000Y-91100000D03*
D11*
X142450000Y-109100000D03*
X131600000Y-98100000D03*
D12*
X152800000Y-115100000D03*
X146800000Y-103100000D03*
D11*
X142450000Y-110000000D03*
D13*
X133225000Y-95600000D03*
D12*
X116800000Y-67100000D03*
D13*
X129000000Y-108675000D03*
D12*
X116800000Y-103100000D03*
D11*
X131300000Y-76600000D03*
X133100000Y-85800000D03*
X145800000Y-74750000D03*
D12*
X121150000Y-73600000D03*
D11*
X136000000Y-87800000D03*
X140200000Y-108200000D03*
D12*
X104800000Y-94100000D03*
X143500000Y-96300000D03*
X152800000Y-91100000D03*
X104800000Y-82100000D03*
D11*
X133900000Y-96900000D03*
D13*
X129300000Y-94200000D03*
D11*
X135400000Y-99850000D03*
X140650000Y-109100000D03*
D12*
X149800000Y-115100000D03*
X143800000Y-73100000D03*
X146800000Y-112100000D03*
X152800000Y-82100000D03*
X129300000Y-101600000D03*
D11*
X131300000Y-86800000D03*
D12*
X121100000Y-111600000D03*
D13*
X136000000Y-85500000D03*
D12*
X107800000Y-88100000D03*
X137800000Y-115100000D03*
X152800000Y-106100000D03*
X146800000Y-94100000D03*
D11*
X141800000Y-106750000D03*
X145900000Y-78450000D03*
D12*
X127200000Y-94450000D03*
D11*
X133100000Y-108700000D03*
X140200000Y-109100000D03*
X132700000Y-75400000D03*
D12*
X149800000Y-79100000D03*
D11*
X147250000Y-76200000D03*
D12*
X146800000Y-97100000D03*
X104800000Y-109100000D03*
D11*
X140200000Y-110000000D03*
D12*
X152800000Y-109100000D03*
D13*
X129000000Y-86175000D03*
D12*
X104800000Y-79100000D03*
D11*
X135680000Y-108000000D03*
D12*
X152800000Y-100100000D03*
D11*
X132700000Y-85800000D03*
D12*
X146800000Y-106100000D03*
D13*
X129000000Y-72700000D03*
D12*
X142440000Y-75800000D03*
X140800000Y-115100000D03*
D11*
X130500000Y-76600000D03*
X131200000Y-109300000D03*
X140200000Y-106750000D03*
D12*
X134800000Y-103100000D03*
X152800000Y-67100000D03*
D11*
X139750000Y-108650000D03*
X130800000Y-109300000D03*
X146350000Y-76650000D03*
D12*
X127050000Y-73600000D03*
X146800000Y-85100000D03*
X125800000Y-84350000D03*
X121100000Y-90250000D03*
D11*
X133500000Y-86200000D03*
X130500000Y-76300000D03*
D12*
X152800000Y-85100000D03*
D11*
X133100000Y-86200000D03*
D12*
X149800000Y-109100000D03*
X121000000Y-105700000D03*
D11*
X142000000Y-109100000D03*
X139750000Y-109100000D03*
D13*
X134200000Y-74000000D03*
D11*
X131200000Y-98100000D03*
X141100000Y-109550000D03*
D12*
X128800000Y-115100000D03*
D11*
X140600000Y-106750000D03*
D12*
X149800000Y-88100000D03*
D11*
X140200000Y-109550000D03*
D12*
X140800000Y-88100000D03*
D11*
X135550000Y-98000000D03*
D12*
X140800000Y-70050000D03*
X121400000Y-99150000D03*
D11*
X139750000Y-109550000D03*
X145450000Y-78000000D03*
D12*
X116800000Y-115100000D03*
D11*
X130400000Y-109300000D03*
X141550000Y-110000000D03*
X145450000Y-77100000D03*
X133100000Y-75400000D03*
X141100000Y-108650000D03*
X146200000Y-74750000D03*
D12*
X137800000Y-103100000D03*
X113800000Y-112100000D03*
D11*
X140650000Y-108200000D03*
D12*
X134800000Y-67100000D03*
D11*
X139750000Y-110000000D03*
D13*
X129300000Y-97200000D03*
D12*
X152800000Y-103100000D03*
D11*
X139750000Y-110450000D03*
D12*
X146800000Y-115100000D03*
D11*
X146800000Y-76650000D03*
D12*
X134800000Y-115100000D03*
D11*
X139050000Y-95400000D03*
X145900000Y-76200000D03*
D12*
X137800000Y-67100000D03*
X116800000Y-91100000D03*
D11*
X145400000Y-74750000D03*
X141550000Y-110450000D03*
D12*
X110800000Y-115100000D03*
D11*
X133100000Y-108400000D03*
D12*
X149800000Y-85100000D03*
X110800000Y-112100000D03*
D11*
X142200000Y-106750000D03*
D12*
X143800000Y-106100000D03*
D11*
X145000000Y-76200000D03*
D12*
X110800000Y-67100000D03*
D11*
X145000000Y-77550000D03*
X144550000Y-77550000D03*
X141550000Y-109100000D03*
D12*
X122100000Y-84350000D03*
X140900000Y-105500000D03*
X134800000Y-94100000D03*
X121150000Y-74700000D03*
X121100000Y-89150000D03*
D11*
X146800000Y-76200000D03*
D12*
X146800000Y-73100000D03*
X116800000Y-70100000D03*
X152800000Y-88100000D03*
X149800000Y-97100000D03*
X126900000Y-84350000D03*
D11*
X131300000Y-76300000D03*
D12*
X131800000Y-115100000D03*
X149800000Y-82100000D03*
X121100000Y-110500000D03*
D13*
X132775000Y-74000000D03*
D12*
X152800000Y-79100000D03*
D11*
X140650000Y-109550000D03*
D12*
X107800000Y-112100000D03*
D11*
X135050000Y-87050500D03*
X132700000Y-108400000D03*
D13*
X129000000Y-75675000D03*
D12*
X134800000Y-112100000D03*
X149800000Y-106100000D03*
X116800000Y-100100000D03*
X146800000Y-70100000D03*
X149800000Y-70100000D03*
X104800000Y-115100000D03*
D11*
X138450000Y-72900000D03*
D12*
X152800000Y-73100000D03*
X143800000Y-115100000D03*
D11*
X140650000Y-108650000D03*
X147250000Y-77100000D03*
D12*
X104800000Y-85100000D03*
X122400000Y-94450000D03*
D11*
X130900000Y-87200000D03*
D12*
X113800000Y-109100000D03*
X152800000Y-97100000D03*
D11*
X139050000Y-98000000D03*
D12*
X129000000Y-80200000D03*
X143800000Y-85100000D03*
X140800000Y-82100000D03*
X143800000Y-82100000D03*
D11*
X141400000Y-106750000D03*
D12*
X143800000Y-91100000D03*
D11*
X133500000Y-96900000D03*
X139400000Y-106750000D03*
D12*
X137750000Y-70100000D03*
X149800000Y-112100000D03*
D11*
X139800000Y-106750000D03*
D12*
X110800000Y-106100000D03*
X127050000Y-74700000D03*
X113800000Y-67100000D03*
D11*
X135000000Y-75300000D03*
X141100000Y-110000000D03*
D12*
X126100000Y-94450000D03*
D11*
X146800000Y-78450000D03*
D12*
X119800000Y-67100000D03*
X125950000Y-73600000D03*
D11*
X146350000Y-76200000D03*
D12*
X127300000Y-99150000D03*
D11*
X131200000Y-97800000D03*
X130900000Y-76300000D03*
X147250000Y-77550000D03*
D12*
X107800000Y-67100000D03*
X128800000Y-67100000D03*
D11*
X132700000Y-75700000D03*
D12*
X143800000Y-109100000D03*
D11*
X130800000Y-97800000D03*
D12*
X122200000Y-90250000D03*
X126900000Y-106800000D03*
D11*
X141100000Y-109100000D03*
X133900000Y-97200000D03*
D12*
X104800000Y-112100000D03*
X146800000Y-88100000D03*
X143800000Y-88100000D03*
X142300000Y-96300000D03*
X137200000Y-85800000D03*
X142440000Y-78400000D03*
X137600000Y-110400000D03*
M02*
