M48
; DRILL file {KiCad 8.0.0} date 2024-04-09T17:14:40-0700
; FORMAT={-:-/ absolute / inch / decimal}
; #@! TF.CreationDate,2024-04-09T17:14:40-07:00
; #@! TF.GenerationSoftware,Kicad,Pcbnew,8.0.0
; #@! TF.FileFunction,Plated,1,2,PTH
FMAT,2
INCH
; #@! TA.AperFunction,Plated,PTH,ViaDrill
T1C0.0118
; #@! TA.AperFunction,Plated,PTH,ViaDrill
T2C0.0157
; #@! TA.AperFunction,Plated,PTH,ViaDrill
T3C0.0236
; #@! TA.AperFunction,Plated,PTH,ViaDrill
T4C0.0394
; #@! TA.AperFunction,Plated,PTH,ComponentDrill
T5C0.2402
%
G90
G05
T1
X0.8098Y-1.7094
X0.8374Y-1.7094
X0.8906Y-1.7094
X0.9181Y-1.7094
X0.9516Y-1.5894
X0.9673Y-1.5343
X0.9752Y-1.6957
X0.987Y-1.5894
X1.0224Y-1.3319
X1.024Y-1.4933
X1.0295Y-1.6213
X1.052Y-1.6681
X1.0929Y-1.4118
X1.1051Y-1.5539
X1.1051Y-1.5894
X1.1051Y-1.6268
X1.111Y-1.4516
X1.1455Y-1.5047
X1.1996Y-1.487
X1.237Y-1.487
X1.3Y-0.8315
X1.3Y-0.865
X1.3Y-0.928
X1.3Y-0.9614
X1.3Y-1.0205
X1.3Y-1.0559
X1.3Y-1.487
X1.3354Y-1.487
X1.3945Y-1.487
X1.4299Y-1.487
X1.4909Y-1.552
X1.5386Y-2.3406
X1.548Y-1.9813
X1.5913Y-2.2813
X1.611Y-1.9683
X1.6244Y-1.3807
X1.6256Y-1.35
X1.6346Y-2.114
X1.6425Y-2.1671
X1.6425Y-2.1986
X1.6547Y-1.3799
X1.6591Y-2.3409
X1.6795Y-1.4335
X1.6799Y-1.4882
X1.6799Y-1.5437
X1.6799Y-2.2557
X1.6799Y-2.2892
X1.6803Y-1.5984
X1.6835Y-1.3795
X1.6843Y-1.3476
X1.7039Y-1.4291
X1.7055Y-1.9683
X1.7055Y-2.1061
X1.7314Y-1.3916
X1.7366Y-1.5437
X1.7366Y-1.6
X1.737Y-1.4339
X1.7374Y-1.4894
X1.7605Y-1.3453
X1.7705Y-2.1159
X1.7732Y-1.4039
X1.7823Y-1.4339
X1.7823Y-1.489
X1.7823Y-1.5441
X1.7823Y-1.5992
X1.8Y-1.9683
X1.8276Y-1.4339
X1.8276Y-1.489
X1.8276Y-1.5441
X1.8276Y-1.5992
X1.863Y-1.9762
T2
X1.7953Y-1.3681
X1.8488Y-1.3685
X1.9043Y-1.3689
T3
X1.3079Y-0.6524
X1.4043Y-0.6524
X1.6012Y-2.6031
X1.6012Y-2.6484
X1.6022Y-2.4152
X1.6022Y-2.4604
X1.6484Y-2.4152
X1.6494Y-2.6484
X1.7892Y-2.6484
X1.7902Y-2.4161
X1.8354Y-2.4161
X1.8354Y-2.4614
X1.8354Y-2.6061
X1.8364Y-2.6484
X1.9299Y-1.6764
X1.9925Y-1.6764
X2.0126Y-1.8925
X2.0441Y-1.861
X2.0441Y-1.924
X2.0535Y-1.6764
X2.1455Y-1.7616
X2.1465Y-2.0264
X2.175Y-1.7281
X2.176Y-2.0589
X2.2055Y-1.7596
X2.2094Y-2.0264
X2.3079Y-1.8591
X2.3089Y-1.924
X2.3404Y-1.8915
X2.389Y-1.6181
X2.3894Y-1.5567
X2.3906Y-1.4965
T4
X0.2443Y-0.5197
X0.2443Y-0.7953
X0.2443Y-1.0709
X0.2443Y-1.3465
X0.2443Y-1.8976
X0.2443Y-2.1732
X0.2443Y-2.4488
X0.2443Y-2.7244
X0.2443Y-3.0
X0.4969Y-0.2429
X0.4969Y-0.5185
X0.4969Y-0.7941
X0.4969Y-1.0697
X0.4969Y-1.3453
X0.4969Y-1.6209
X0.4969Y-1.8965
X0.4969Y-2.172
X0.4969Y-2.4476
X0.4969Y-2.7232
X0.4969Y-3.2748
X0.5008Y-2.9949
X0.7724Y-0.2429
X0.7724Y-1.0697
X0.7724Y-1.8965
X0.7724Y-2.172
X0.7724Y-2.4476
X0.7724Y-2.7232
X0.7724Y-3.2748
X0.7764Y-0.9398
X0.7764Y-2.9949
X1.048Y-0.2429
X1.048Y-0.9398
X1.048Y-1.0697
X1.048Y-1.8965
X1.048Y-2.172
X1.048Y-2.4476
X1.048Y-2.7232
X1.048Y-3.2748
X1.052Y-2.9949
X1.3236Y-0.2429
X1.3236Y-1.8965
X1.3236Y-2.172
X1.3236Y-2.4476
X1.3236Y-2.7232
X1.3236Y-3.2748
X1.3276Y-2.9949
X1.3945Y-0.8453
X1.3965Y-0.9398
X1.3965Y-1.0382
X1.3965Y-1.1366
X1.3965Y-1.2331
X1.3965Y-1.3335
X1.5008Y-1.2331
X1.5008Y-1.3354
X1.5047Y-1.0382
X1.5047Y-1.1346
X1.5992Y-0.2429
X1.5992Y-0.5185
X1.5992Y-1.7114
X1.5992Y-3.2748
X1.6031Y-2.9949
X1.8406Y-1.7437
X1.8748Y-0.2429
X1.8748Y-0.5185
X1.8748Y-2.172
X1.8787Y-2.9949
X1.9433Y-1.8213
X2.035Y-1.2591
X2.1504Y-0.2429
X2.1504Y-0.5185
X2.1504Y-0.7941
X2.1504Y-1.3453
X2.1504Y-2.172
X2.1504Y-2.4476
X2.1504Y-2.7232
X2.1543Y-2.9949
X2.1661Y-1.6209
X2.3059Y-1.6228
X2.3299Y-1.7244
X2.4142Y-1.8098
X2.426Y-0.2429
X2.426Y-0.5185
X2.426Y-0.7941
X2.426Y-1.3453
X2.426Y-2.4476
X2.426Y-2.7232
X2.4299Y-2.9949
X2.4929Y-1.9059
X2.5811Y-1.9906
X2.7016Y-0.2429
X2.7016Y-0.5185
X2.7016Y-0.7941
X2.7016Y-1.3453
X2.7016Y-2.172
X2.7016Y-2.4476
X2.7016Y-2.7232
X2.7055Y-2.9949
X3.0002Y-0.2441
X3.0002Y-0.5197
X3.0002Y-0.7953
X3.0002Y-1.0709
X3.0002Y-1.3465
X3.0002Y-1.622
X3.0002Y-1.8976
X3.0002Y-2.1732
X3.0002Y-2.4488
X3.0002Y-2.7244
X3.0002Y-3.0
X3.2758Y-0.5197
X3.2758Y-0.7953
X3.2758Y-1.0709
X3.2758Y-1.3465
X3.2758Y-1.8976
X3.2758Y-2.1732
X3.2758Y-2.4488
X3.2758Y-2.7244
X3.2758Y-3.0
T5
X0.8335Y-0.6189
X1.6866Y-0.7878
M30
