%TF.GenerationSoftware,KiCad,Pcbnew,8.0.0*%
%TF.CreationDate,2024-04-09T17:38:52-07:00*%
%TF.ProjectId,phi2_50MHz_EPC2214,70686932-5f35-4304-9d48-7a5f45504332,rev?*%
%TF.SameCoordinates,Original*%
%TF.FileFunction,Copper,L1,Top*%
%TF.FilePolarity,Positive*%
%FSLAX46Y46*%
G04 Gerber Fmt 4.6, Leading zero omitted, Abs format (unit mm)*
G04 Created by KiCad (PCBNEW 8.0.0) date 2024-04-09 17:38:52*
%MOMM*%
%LPD*%
G01*
G04 APERTURE LIST*
G04 Aperture macros list*
%AMRoundRect*
0 Rectangle with rounded corners*
0 $1 Rounding radius*
0 $2 $3 $4 $5 $6 $7 $8 $9 X,Y pos of 4 corners*
0 Add a 4 corners polygon primitive as box body*
4,1,4,$2,$3,$4,$5,$6,$7,$8,$9,$2,$3,0*
0 Add four circle primitives for the rounded corners*
1,1,$1+$1,$2,$3*
1,1,$1+$1,$4,$5*
1,1,$1+$1,$6,$7*
1,1,$1+$1,$8,$9*
0 Add four rect primitives between the rounded corners*
20,1,$1+$1,$2,$3,$4,$5,0*
20,1,$1+$1,$4,$5,$6,$7,0*
20,1,$1+$1,$6,$7,$8,$9,0*
20,1,$1+$1,$8,$9,$2,$3,0*%
%AMRotRect*
0 Rectangle, with rotation*
0 The origin of the aperture is its center*
0 $1 length*
0 $2 width*
0 $3 Rotation angle, in degrees counterclockwise*
0 Add horizontal line*
21,1,$1,$2,0,0,$3*%
%AMFreePoly0*
4,1,25,-1.500000,1.420000,-1.360000,1.280000,-1.205000,1.155000,-1.035000,1.045000,-0.860000,0.950000,-0.675001,0.875000,-0.480000,0.820000,-0.280000,0.780000,-0.085000,0.765000,0.085000,0.765000,0.280000,0.780000,0.480000,0.820000,0.675001,0.875000,0.860000,0.950000,1.035000,1.045000,1.205000,1.155000,1.360000,1.280000,1.500000,1.420000,1.645000,1.595000,3.555000,1.595000,
3.555000,-0.755000,-3.555000,-0.755000,-3.555000,1.595000,-1.645000,1.595000,-1.500000,1.420000,-1.500000,1.420000,$1*%
G04 Aperture macros list end*
%TA.AperFunction,SMDPad,CuDef*%
%ADD10FreePoly0,135.000000*%
%TD*%
%TA.AperFunction,SMDPad,CuDef*%
%ADD11FreePoly0,315.000000*%
%TD*%
%TA.AperFunction,SMDPad,CuDef*%
%ADD12C,1.730000*%
%TD*%
%TA.AperFunction,SMDPad,CuDef*%
%ADD13R,4.320000X4.700000*%
%TD*%
%TA.AperFunction,SMDPad,CuDef*%
%ADD14RoundRect,0.250000X-0.325000X-0.650000X0.325000X-0.650000X0.325000X0.650000X-0.325000X0.650000X0*%
%TD*%
%TA.AperFunction,SMDPad,CuDef*%
%ADD15RoundRect,0.150000X0.150000X0.200000X-0.150000X0.200000X-0.150000X-0.200000X0.150000X-0.200000X0*%
%TD*%
%TA.AperFunction,SMDPad,CuDef*%
%ADD16RoundRect,0.150000X0.150000X-0.512500X0.150000X0.512500X-0.150000X0.512500X-0.150000X-0.512500X0*%
%TD*%
%TA.AperFunction,SMDPad,CuDef*%
%ADD17R,10.340000X3.300000*%
%TD*%
%TA.AperFunction,SMDPad,CuDef*%
%ADD18FreePoly0,90.000000*%
%TD*%
%TA.AperFunction,SMDPad,CuDef*%
%ADD19FreePoly0,270.000000*%
%TD*%
%TA.AperFunction,SMDPad,CuDef*%
%ADD20RoundRect,0.225000X-0.250000X0.225000X-0.250000X-0.225000X0.250000X-0.225000X0.250000X0.225000X0*%
%TD*%
%TA.AperFunction,SMDPad,CuDef*%
%ADD21R,4.700000X3.810000*%
%TD*%
%TA.AperFunction,SMDPad,CuDef*%
%ADD22RoundRect,0.140000X0.170000X-0.140000X0.170000X0.140000X-0.170000X0.140000X-0.170000X-0.140000X0*%
%TD*%
%TA.AperFunction,SMDPad,CuDef*%
%ADD23RoundRect,0.250000X0.650000X-0.325000X0.650000X0.325000X-0.650000X0.325000X-0.650000X-0.325000X0*%
%TD*%
%TA.AperFunction,SMDPad,CuDef*%
%ADD24RoundRect,0.200000X-0.275000X0.200000X-0.275000X-0.200000X0.275000X-0.200000X0.275000X0.200000X0*%
%TD*%
%TA.AperFunction,SMDPad,CuDef*%
%ADD25RoundRect,0.225000X0.225000X0.250000X-0.225000X0.250000X-0.225000X-0.250000X0.225000X-0.250000X0*%
%TD*%
%TA.AperFunction,SMDPad,CuDef*%
%ADD26R,0.300000X0.660000*%
%TD*%
%TA.AperFunction,SMDPad,CuDef*%
%ADD27RoundRect,0.250000X-0.475000X0.250000X-0.475000X-0.250000X0.475000X-0.250000X0.475000X0.250000X0*%
%TD*%
%TA.AperFunction,SMDPad,CuDef*%
%ADD28C,0.225000*%
%TD*%
%TA.AperFunction,SMDPad,CuDef*%
%ADD29RoundRect,0.140000X-0.170000X0.140000X-0.170000X-0.140000X0.170000X-0.140000X0.170000X0.140000X0*%
%TD*%
%TA.AperFunction,SMDPad,CuDef*%
%ADD30RoundRect,0.085000X0.085000X-0.265000X0.085000X0.265000X-0.085000X0.265000X-0.085000X-0.265000X0*%
%TD*%
%TA.AperFunction,SMDPad,CuDef*%
%ADD31RoundRect,0.200000X0.200000X0.275000X-0.200000X0.275000X-0.200000X-0.275000X0.200000X-0.275000X0*%
%TD*%
%TA.AperFunction,ComponentPad*%
%ADD32C,10.160000*%
%TD*%
%TA.AperFunction,SMDPad,CuDef*%
%ADD33RoundRect,0.225000X-0.225000X-0.250000X0.225000X-0.250000X0.225000X0.250000X-0.225000X0.250000X0*%
%TD*%
%TA.AperFunction,SMDPad,CuDef*%
%ADD34R,1.500000X4.200000*%
%TD*%
%TA.AperFunction,SMDPad,CuDef*%
%ADD35RoundRect,0.200000X-0.200000X-0.275000X0.200000X-0.275000X0.200000X0.275000X-0.200000X0.275000X0*%
%TD*%
%TA.AperFunction,SMDPad,CuDef*%
%ADD36RoundRect,0.250000X-1.500000X-0.550000X1.500000X-0.550000X1.500000X0.550000X-1.500000X0.550000X0*%
%TD*%
%TA.AperFunction,SMDPad,CuDef*%
%ADD37RoundRect,0.135000X0.185000X-0.135000X0.185000X0.135000X-0.185000X0.135000X-0.185000X-0.135000X0*%
%TD*%
%TA.AperFunction,SMDPad,CuDef*%
%ADD38RoundRect,0.225000X0.250000X-0.225000X0.250000X0.225000X-0.250000X0.225000X-0.250000X-0.225000X0*%
%TD*%
%TA.AperFunction,SMDPad,CuDef*%
%ADD39RotRect,3.810000X4.700000X225.000000*%
%TD*%
%TA.AperFunction,ViaPad*%
%ADD40C,0.400000*%
%TD*%
%TA.AperFunction,ViaPad*%
%ADD41C,1.500000*%
%TD*%
%TA.AperFunction,ViaPad*%
%ADD42C,0.600000*%
%TD*%
%TA.AperFunction,ViaPad*%
%ADD43C,1.000000*%
%TD*%
%TA.AperFunction,ViaPad*%
%ADD44C,0.800000*%
%TD*%
%TA.AperFunction,Conductor*%
%ADD45C,0.500000*%
%TD*%
%TA.AperFunction,Conductor*%
%ADD46C,1.000000*%
%TD*%
%TA.AperFunction,Conductor*%
%ADD47C,0.300000*%
%TD*%
%TA.AperFunction,Conductor*%
%ADD48C,0.200000*%
%TD*%
%TA.AperFunction,Conductor*%
%ADD49C,1.500000*%
%TD*%
G04 APERTURE END LIST*
D10*
%TO.P,RF_OUT,2,Ext*%
%TO.N,GND*%
X57249899Y-46115101D03*
D11*
X53290101Y-50074899D03*
D12*
%TO.P,RF_OUT,1,In*%
%TO.N,Net-(J2-In)*%
X55270000Y-48095000D03*
%TD*%
D13*
%TO.P,L1,2,2*%
%TO.N,/D*%
X42410000Y-31110000D03*
%TO.P,L1,1,1*%
%TO.N,+12V*%
X31490000Y-31110000D03*
%TD*%
D14*
%TO.P,C4,2*%
%TO.N,GND*%
X33295000Y-26370000D03*
%TO.P,C4,1*%
%TO.N,+12V*%
X30345000Y-26370000D03*
%TD*%
D15*
%TO.P,D8,2,A*%
%TO.N,GND*%
X45412500Y-40640000D03*
%TO.P,D8,1,K*%
%TO.N,/G*%
X44012500Y-40640000D03*
%TD*%
D14*
%TO.P,C2,2*%
%TO.N,GND*%
X33295000Y-21570000D03*
%TO.P,C2,1*%
%TO.N,+12V*%
X30345000Y-21570000D03*
%TD*%
D16*
%TO.P,U4,6,SHDN*%
%TO.N,GND*%
X41720000Y-55457500D03*
%TO.P,U4,5,OUT*%
%TO.N,Net-(U3-A1)*%
X42670000Y-55457500D03*
%TO.P,U4,4,V+*%
%TO.N,+5V*%
X43620000Y-55457500D03*
%TO.P,U4,3,+IN*%
%TO.N,/RF_IN*%
X43620000Y-57732500D03*
%TO.P,U4,2,V-*%
%TO.N,GND*%
X42670000Y-57732500D03*
%TO.P,U4,1,-IN*%
%TO.N,Net-(U4--IN)*%
X41720000Y-57732500D03*
%TD*%
D17*
%TO.P,L2,2,2*%
%TO.N,Net-(C5-Pad1)*%
X53470000Y-37790000D03*
%TO.P,L2,1,1*%
%TO.N,/D*%
X53470000Y-28950000D03*
%TD*%
D18*
%TO.P,RF_IN,2,Ext*%
%TO.N,GND*%
X46470000Y-64320000D03*
D19*
X40870000Y-64320000D03*
D12*
%TO.P,RF_IN,1,In*%
%TO.N,/RF_IN*%
X43670000Y-64320000D03*
%TD*%
D20*
%TO.P,C19,1*%
%TO.N,/D*%
X46930000Y-33235000D03*
%TO.P,C19,2*%
%TO.N,GND*%
X46930000Y-34785000D03*
%TD*%
D21*
%TO.P,L3,2,2*%
%TO.N,Net-(C12-Pad1)*%
X65945000Y-39475000D03*
%TO.P,L3,1,1*%
%TO.N,Net-(C13-Pad2)*%
X65945000Y-29065000D03*
%TD*%
D22*
%TO.P,C9,2*%
%TO.N,+5V*%
X44970000Y-52765000D03*
%TO.P,C9,1*%
%TO.N,GND*%
X44970000Y-53725000D03*
%TD*%
D23*
%TO.P,C28,2*%
%TO.N,GND*%
X30970000Y-38045000D03*
%TO.P,C28,1*%
%TO.N,+5V*%
X30970000Y-40995000D03*
%TD*%
D20*
%TO.P,C20,1*%
%TO.N,/D*%
X48340000Y-33235000D03*
%TO.P,C20,2*%
%TO.N,GND*%
X48340000Y-34785000D03*
%TD*%
D24*
%TO.P,R7,2*%
%TO.N,GND*%
X24570000Y-39145000D03*
%TO.P,R7,1*%
%TO.N,Net-(U1-FB)*%
X24570000Y-37495000D03*
%TD*%
D25*
%TO.P,C12,2*%
%TO.N,GND*%
X60695000Y-38020000D03*
%TO.P,C12,1*%
%TO.N,Net-(C12-Pad1)*%
X62245000Y-38020000D03*
%TD*%
D23*
%TO.P,C26,2*%
%TO.N,GND*%
X35870000Y-38045000D03*
%TO.P,C26,1*%
%TO.N,+5V*%
X35870000Y-40995000D03*
%TD*%
D25*
%TO.P,C21,2*%
%TO.N,GND*%
X60695000Y-39570000D03*
%TO.P,C21,1*%
%TO.N,Net-(C12-Pad1)*%
X62245000Y-39570000D03*
%TD*%
D26*
%TO.P,U3,6,Y1*%
%TO.N,Net-(U3-Y1)*%
X42665000Y-51775000D03*
%TO.P,U3,5,VCC*%
%TO.N,+5V*%
X43315000Y-51775000D03*
%TO.P,U3,4,Y2*%
%TO.N,unconnected-(U3-Y2-Pad4)*%
X43965000Y-51775000D03*
%TO.P,U3,3,A2*%
%TO.N,unconnected-(U3-A2-Pad3)*%
X43965000Y-53615000D03*
%TO.P,U3,2,GND*%
%TO.N,GND*%
X43315000Y-53615000D03*
%TO.P,U3,1,A1*%
%TO.N,Net-(U3-A1)*%
X42665000Y-53615000D03*
%TD*%
D27*
%TO.P,C24,2*%
%TO.N,GND*%
X22970000Y-43640000D03*
%TO.P,C24,1*%
%TO.N,+12V*%
X22970000Y-41740000D03*
%TD*%
D14*
%TO.P,C3,2*%
%TO.N,GND*%
X33295000Y-23970000D03*
%TO.P,C3,1*%
%TO.N,+12V*%
X30345000Y-23970000D03*
%TD*%
D26*
%TO.P,U5,6,Y1*%
%TO.N,/G1*%
X40270000Y-48275000D03*
%TO.P,U5,5,VCC*%
%TO.N,+5V*%
X40920000Y-48275000D03*
%TO.P,U5,4,Y2*%
%TO.N,/G1*%
X41570000Y-48275000D03*
%TO.P,U5,3,A2*%
%TO.N,Net-(U3-Y1)*%
X41570000Y-50115000D03*
%TO.P,U5,2,GND*%
%TO.N,GND*%
X40920000Y-50115000D03*
%TO.P,U5,1,A1*%
%TO.N,Net-(U3-Y1)*%
X40270000Y-50115000D03*
%TD*%
D28*
%TO.P,Q1,9,S*%
%TO.N,GND*%
X44445000Y-34170000D03*
%TO.P,Q1,8,S*%
X43995000Y-34170000D03*
%TO.P,Q1,7,D*%
%TO.N,/D*%
X43545000Y-34170000D03*
%TO.P,Q1,6,D*%
X44445000Y-34620000D03*
%TO.P,Q1,5,D*%
X43995000Y-34620000D03*
%TO.P,Q1,4,D*%
X43545000Y-34620000D03*
%TO.P,Q1,3,S*%
%TO.N,GND*%
X44445000Y-35070000D03*
%TO.P,Q1,2,S*%
X43995000Y-35070000D03*
%TO.P,Q1,1,G*%
%TO.N,/G*%
X43545000Y-35070000D03*
%TD*%
D29*
%TO.P,C10,2*%
%TO.N,GND*%
X40420000Y-58025000D03*
%TO.P,C10,1*%
%TO.N,+5V*%
X40420000Y-57065000D03*
%TD*%
D15*
%TO.P,D4,2,A*%
%TO.N,/G*%
X42770000Y-40620000D03*
%TO.P,D4,1,K*%
%TO.N,+5V*%
X41370000Y-40620000D03*
%TD*%
%TO.P,D3,2,A*%
%TO.N,/G*%
X42770000Y-39220000D03*
%TO.P,D3,1,K*%
%TO.N,+5V*%
X41370000Y-39220000D03*
%TD*%
%TO.P,D1,2,A*%
%TO.N,/G*%
X42770000Y-36420000D03*
%TO.P,D1,1,K*%
%TO.N,+5V*%
X41370000Y-36420000D03*
%TD*%
%TO.P,D7,2,A*%
%TO.N,GND*%
X45412500Y-39240000D03*
%TO.P,D7,1,K*%
%TO.N,/G*%
X44012500Y-39240000D03*
%TD*%
D23*
%TO.P,C27,2*%
%TO.N,GND*%
X33470000Y-38045000D03*
%TO.P,C27,1*%
%TO.N,+5V*%
X33470000Y-40995000D03*
%TD*%
D20*
%TO.P,C15,1*%
%TO.N,/D*%
X45600000Y-33235000D03*
%TO.P,C15,2*%
%TO.N,GND*%
X45600000Y-34785000D03*
%TD*%
D30*
%TO.P,U1,6,FB*%
%TO.N,Net-(U1-FB)*%
X26220000Y-39670000D03*
%TO.P,U1,5,EN*%
%TO.N,Net-(U1-EN)*%
X26720000Y-39670000D03*
%TO.P,U1,4,BST*%
%TO.N,Net-(U1-BST)*%
X27220000Y-39670000D03*
%TO.P,U1,3,GND*%
%TO.N,GND*%
X27220000Y-41170000D03*
%TO.P,U1,2,SW*%
%TO.N,Net-(U1-SW)*%
X26720000Y-41170000D03*
%TO.P,U1,1,VIN*%
%TO.N,+12V*%
X26220000Y-41170000D03*
%TD*%
D15*
%TO.P,D2,2,A*%
%TO.N,/G*%
X42770000Y-37820000D03*
%TO.P,D2,1,K*%
%TO.N,+5V*%
X41370000Y-37820000D03*
%TD*%
D22*
%TO.P,C8,2*%
%TO.N,+5V*%
X39320000Y-49365000D03*
%TO.P,C8,1*%
%TO.N,GND*%
X39320000Y-50325000D03*
%TD*%
D20*
%TO.P,C7,2*%
%TO.N,GND*%
X49020000Y-42520000D03*
%TO.P,C7,1*%
%TO.N,Net-(C5-Pad1)*%
X49020000Y-40970000D03*
%TD*%
%TO.P,C25,2*%
%TO.N,GND*%
X24770000Y-43245000D03*
%TO.P,C25,1*%
%TO.N,+12V*%
X24770000Y-41695000D03*
%TD*%
D31*
%TO.P,R6,2*%
%TO.N,GND*%
X38995000Y-59445000D03*
%TO.P,R6,1*%
%TO.N,Net-(U4--IN)*%
X40645000Y-59445000D03*
%TD*%
D15*
%TO.P,D5,2,A*%
%TO.N,GND*%
X45410000Y-36450000D03*
%TO.P,D5,1,K*%
%TO.N,/G*%
X44010000Y-36450000D03*
%TD*%
D32*
%TO.P,12 V,1,Pin_1*%
%TO.N,+12V*%
X21170000Y-15720000D03*
%TD*%
D20*
%TO.P,C5,2*%
%TO.N,GND*%
X52170000Y-42520000D03*
%TO.P,C5,1*%
%TO.N,Net-(C5-Pad1)*%
X52170000Y-40970000D03*
%TD*%
D24*
%TO.P,R3,2*%
%TO.N,Net-(U1-FB)*%
X24570000Y-36045000D03*
%TO.P,R3,1*%
%TO.N,+5V*%
X24570000Y-34395000D03*
%TD*%
D33*
%TO.P,C13,2*%
%TO.N,Net-(C13-Pad2)*%
X61245000Y-28320000D03*
%TO.P,C13,1*%
%TO.N,/D*%
X59695000Y-28320000D03*
%TD*%
D24*
%TO.P,R5,2*%
%TO.N,Net-(U4--IN)*%
X45170000Y-57420000D03*
%TO.P,R5,1*%
%TO.N,+5V*%
X45170000Y-55770000D03*
%TD*%
D29*
%TO.P,C17,2*%
%TO.N,GND*%
X41520000Y-53775000D03*
%TO.P,C17,1*%
%TO.N,+5V*%
X41520000Y-52815000D03*
%TD*%
D34*
%TO.P,L5,2*%
%TO.N,+5V*%
X30420000Y-44670000D03*
%TO.P,L5,1*%
%TO.N,Net-(U1-SW)*%
X26820000Y-44670000D03*
%TD*%
D35*
%TO.P,R4,2*%
%TO.N,/RF_IN*%
X43695000Y-59445000D03*
%TO.P,R4,1*%
%TO.N,GND*%
X42045000Y-59445000D03*
%TD*%
D36*
%TO.P,C1,2*%
%TO.N,GND*%
X34470000Y-16620000D03*
%TO.P,C1,1*%
%TO.N,+12V*%
X29070000Y-16620000D03*
%TD*%
D37*
%TO.P,R2,2*%
%TO.N,GND*%
X25970000Y-33850000D03*
%TO.P,R2,1*%
%TO.N,Net-(U1-EN)*%
X25970000Y-34870000D03*
%TD*%
D38*
%TO.P,C29,2*%
%TO.N,GND*%
X37870000Y-39545000D03*
%TO.P,C29,1*%
%TO.N,+5V*%
X37870000Y-41095000D03*
%TD*%
D39*
%TO.P,L4,2,2*%
%TO.N,Net-(J2-In)*%
X60284018Y-52900491D03*
%TO.P,L4,1,1*%
%TO.N,Net-(C12-Pad1)*%
X67645000Y-45539509D03*
%TD*%
D32*
%TO.P,GND,1,Pin_1*%
%TO.N,GND*%
X42840000Y-20010000D03*
%TD*%
D15*
%TO.P,D6,2,A*%
%TO.N,GND*%
X45412500Y-37850000D03*
%TO.P,D6,1,K*%
%TO.N,/G*%
X44012500Y-37850000D03*
%TD*%
D26*
%TO.P,U6,6,Y1*%
%TO.N,/G1*%
X42670000Y-48275000D03*
%TO.P,U6,5,VCC*%
%TO.N,+5V*%
X43320000Y-48275000D03*
%TO.P,U6,4,Y2*%
%TO.N,/G1*%
X43970000Y-48275000D03*
%TO.P,U6,3,A2*%
%TO.N,Net-(U3-Y1)*%
X43970000Y-50115000D03*
%TO.P,U6,2,GND*%
%TO.N,GND*%
X43320000Y-50115000D03*
%TO.P,U6,1,A1*%
%TO.N,Net-(U3-Y1)*%
X42670000Y-50115000D03*
%TD*%
D25*
%TO.P,C18,2*%
%TO.N,Net-(U1-BST)*%
X27545000Y-38220000D03*
%TO.P,C18,1*%
%TO.N,Net-(U1-SW)*%
X29095000Y-38220000D03*
%TD*%
D37*
%TO.P,R1,2*%
%TO.N,Net-(U1-EN)*%
X25970000Y-35860000D03*
%TO.P,R1,1*%
%TO.N,+12V*%
X25970000Y-36880000D03*
%TD*%
D33*
%TO.P,C14,2*%
%TO.N,Net-(C13-Pad2)*%
X61245000Y-29870000D03*
%TO.P,C14,1*%
%TO.N,/D*%
X59695000Y-29870000D03*
%TD*%
D20*
%TO.P,C6,2*%
%TO.N,GND*%
X50620000Y-42520000D03*
%TO.P,C6,1*%
%TO.N,Net-(C5-Pad1)*%
X50620000Y-40970000D03*
%TD*%
D22*
%TO.P,C11,2*%
%TO.N,+5V*%
X47320000Y-49315000D03*
%TO.P,C11,1*%
%TO.N,GND*%
X47320000Y-50275000D03*
%TD*%
D27*
%TO.P,C23,2*%
%TO.N,GND*%
X20920000Y-43640000D03*
%TO.P,C23,1*%
%TO.N,+12V*%
X20920000Y-41740000D03*
%TD*%
D26*
%TO.P,U7,6,Y1*%
%TO.N,/G1*%
X45070000Y-48275000D03*
%TO.P,U7,5,VCC*%
%TO.N,+5V*%
X45720000Y-48275000D03*
%TO.P,U7,4,Y2*%
%TO.N,/G1*%
X46370000Y-48275000D03*
%TO.P,U7,3,A2*%
%TO.N,Net-(U3-Y1)*%
X46370000Y-50115000D03*
%TO.P,U7,2,GND*%
%TO.N,GND*%
X45720000Y-50115000D03*
%TO.P,U7,1,A1*%
%TO.N,Net-(U3-Y1)*%
X45070000Y-50115000D03*
%TD*%
D25*
%TO.P,C22,2*%
%TO.N,GND*%
X60695000Y-41120000D03*
%TO.P,C22,1*%
%TO.N,Net-(C12-Pad1)*%
X62245000Y-41120000D03*
%TD*%
D40*
%TO.N,GND*%
X42030000Y-35050000D03*
X45040000Y-35660000D03*
D41*
X19720000Y-76070000D03*
X26720000Y-76070000D03*
X12720000Y-76070000D03*
X68720000Y-76070000D03*
X40720000Y-76070000D03*
X33720000Y-76070000D03*
X47720000Y-76070000D03*
X61720000Y-76070000D03*
X54720000Y-76070000D03*
X38120000Y-33920000D03*
X38220000Y-28820000D03*
X35470000Y-31320000D03*
X35470000Y-26370000D03*
X68620000Y-69170000D03*
X76205000Y-76200000D03*
D40*
X39320000Y-50325000D03*
X46420000Y-36420000D03*
X46420000Y-40620000D03*
X46420000Y-39220000D03*
X46420000Y-37820000D03*
X41260000Y-35070000D03*
D41*
X61320000Y-45970000D03*
X65560000Y-50560000D03*
X35420000Y-21470000D03*
X63320000Y-48410000D03*
X40620000Y-83180000D03*
X33620000Y-83180000D03*
X26620000Y-83180000D03*
X19620000Y-83180000D03*
X12620000Y-83180000D03*
X83205000Y-76200000D03*
X61620000Y-69170000D03*
X54620000Y-69170000D03*
X33620000Y-69170000D03*
X26620000Y-69170000D03*
X19620000Y-69170000D03*
X12620000Y-69170000D03*
X6205000Y-76200000D03*
X83205000Y-69200000D03*
X76205000Y-69200000D03*
X68620000Y-62170000D03*
X61620000Y-62170000D03*
X54620000Y-62170000D03*
X33620000Y-62170000D03*
X26620000Y-62170000D03*
X19620000Y-62170000D03*
X12620000Y-62170000D03*
X6205000Y-69200000D03*
X83205000Y-62200000D03*
X76205000Y-62200000D03*
X68620000Y-55170000D03*
X54620000Y-55170000D03*
X47620000Y-55170000D03*
X33620000Y-55170000D03*
X26620000Y-55170000D03*
X19620000Y-55170000D03*
X12620000Y-55170000D03*
X6205000Y-62200000D03*
X83205000Y-55200000D03*
X76205000Y-55200000D03*
X33620000Y-48170000D03*
X26620000Y-48170000D03*
X19620000Y-48170000D03*
X12620000Y-48170000D03*
X6205000Y-55200000D03*
X83205000Y-48200000D03*
X76205000Y-48200000D03*
X12620000Y-41170000D03*
X6205000Y-48200000D03*
X76205000Y-41200000D03*
X68620000Y-34170000D03*
X61620000Y-34170000D03*
X54620000Y-34170000D03*
X12620000Y-34170000D03*
X83205000Y-34200000D03*
X76205000Y-34200000D03*
X26620000Y-27170000D03*
X19620000Y-27170000D03*
X12620000Y-27170000D03*
X6205000Y-34200000D03*
X83205000Y-27200000D03*
X76205000Y-27200000D03*
X68620000Y-20170000D03*
X61620000Y-20170000D03*
X54620000Y-20170000D03*
X12620000Y-20170000D03*
X6205000Y-27200000D03*
X83205000Y-20200000D03*
X76205000Y-20200000D03*
X68620000Y-13170000D03*
X61620000Y-13170000D03*
X54620000Y-13170000D03*
X47620000Y-13170000D03*
X40620000Y-13170000D03*
X12620000Y-13170000D03*
X6205000Y-20200000D03*
X83205000Y-13200000D03*
X76205000Y-13200000D03*
X68620000Y-6170000D03*
X61620000Y-6170000D03*
X54620000Y-6170000D03*
X47620000Y-6170000D03*
X40620000Y-6170000D03*
X33620000Y-6170000D03*
X26620000Y-6170000D03*
X19620000Y-6170000D03*
X12620000Y-6170000D03*
X6205000Y-13200000D03*
X76205000Y-6200000D03*
D40*
X42480000Y-34360000D03*
X41290000Y-34290000D03*
%TO.N,+12V*%
X26150000Y-41180000D03*
D42*
X26010000Y-37930000D03*
%TO.N,GND*%
X25970000Y-33830000D03*
D43*
X49020000Y-42580000D03*
X50610000Y-42580000D03*
X52160000Y-42580000D03*
X60680000Y-41100000D03*
X60690000Y-39540000D03*
X60720000Y-38010000D03*
D41*
X49360000Y-46260000D03*
D40*
X42760000Y-35040000D03*
%TO.N,/G*%
X43280000Y-36300000D03*
D41*
%TO.N,GND*%
X58570000Y-41220000D03*
X55020000Y-41170000D03*
X38120000Y-31320000D03*
X38220000Y-26370000D03*
D40*
X45270000Y-40620000D03*
X45270000Y-39220000D03*
X45270000Y-37820000D03*
X45270000Y-36420000D03*
D41*
X59180000Y-43800000D03*
X46750000Y-44290000D03*
X40620000Y-43470000D03*
X51690000Y-31980000D03*
X35470000Y-33870000D03*
X35470000Y-28870000D03*
X35470000Y-23870000D03*
X26620000Y-23870000D03*
X19720000Y-23870000D03*
D44*
X45600000Y-34750000D03*
X46960000Y-34760000D03*
X48370000Y-34770000D03*
D40*
X44717653Y-34170000D03*
D42*
X37870000Y-39420000D03*
D40*
X40920000Y-49995000D03*
D43*
X41895000Y-67270000D03*
D40*
X41720000Y-55845000D03*
D42*
X35420000Y-37770000D03*
X24170000Y-40370000D03*
D43*
X46620000Y-61370000D03*
X51120000Y-48070000D03*
X54520000Y-51470000D03*
D42*
X39080000Y-59450000D03*
X33020000Y-37770000D03*
D43*
X59445000Y-48045000D03*
D42*
X33020000Y-23570000D03*
D40*
X41720000Y-55045000D03*
D42*
X22620000Y-43420000D03*
X33020000Y-21970000D03*
X33020000Y-24420000D03*
X28070000Y-40370000D03*
X33920000Y-37770000D03*
D43*
X46620000Y-66195000D03*
D42*
X36320000Y-37770000D03*
D43*
X51920000Y-47270000D03*
D42*
X33020000Y-25920000D03*
D43*
X58620000Y-47220000D03*
X55245000Y-43895000D03*
D42*
X23320000Y-43420000D03*
D40*
X43976666Y-35346266D03*
D43*
X33220000Y-16570000D03*
X58645000Y-48870000D03*
X55270000Y-52295000D03*
D40*
X42670000Y-58145000D03*
D42*
X28220000Y-36870000D03*
D40*
X43320000Y-53495000D03*
D43*
X40695000Y-61345000D03*
X40670000Y-67270000D03*
D42*
X28070000Y-39470000D03*
D43*
X46645000Y-67270000D03*
X35670000Y-16570000D03*
D42*
X31420000Y-37770000D03*
X27760000Y-35860000D03*
D43*
X56120000Y-51470000D03*
D42*
X30470000Y-37770000D03*
X24770000Y-43070000D03*
X42140000Y-59460000D03*
D43*
X40670000Y-66120000D03*
D42*
X25070000Y-40370000D03*
D43*
X56020000Y-44695000D03*
D40*
X45720000Y-49995000D03*
X44970000Y-53745000D03*
D42*
X20570000Y-43420000D03*
D40*
X43320000Y-49995000D03*
D42*
X33020000Y-26820000D03*
D43*
X40695000Y-62495000D03*
D42*
X28070000Y-41320000D03*
D40*
X24570000Y-38970000D03*
D43*
X41870000Y-61345000D03*
D40*
X47320000Y-50195000D03*
D43*
X46620000Y-62520000D03*
D42*
X21270000Y-43420000D03*
D43*
X45445000Y-67270000D03*
X51920000Y-48870000D03*
X54495000Y-44745000D03*
D40*
X42670000Y-57295000D03*
D42*
X33020000Y-21120000D03*
D40*
X40420000Y-57945000D03*
D43*
X45470000Y-61370000D03*
D40*
X41520000Y-53695000D03*
%TO.N,Net-(U1-SW)*%
X29095000Y-38220000D03*
X26720000Y-42370000D03*
%TO.N,/G*%
X44110000Y-40640000D03*
X44130000Y-37830000D03*
X44110000Y-39210000D03*
X42670000Y-37800000D03*
X42670000Y-39210000D03*
X42680000Y-40600000D03*
X44120000Y-36420000D03*
X42660000Y-36410000D03*
%TD*%
D45*
%TO.N,/D*%
X42410000Y-31110000D02*
X43430000Y-32130000D01*
D46*
%TO.N,+5V*%
X47550000Y-47140610D02*
X47550000Y-49080000D01*
X45339390Y-44930000D02*
X47550000Y-47140610D01*
X39310000Y-44930000D02*
X45339390Y-44930000D01*
X38000000Y-43620000D02*
X39310000Y-44930000D01*
X37820000Y-43620000D02*
X38000000Y-43620000D01*
X37820000Y-48270000D02*
X37820000Y-43620000D01*
D45*
X47320000Y-47596472D02*
X47320000Y-49315000D01*
D47*
X36775456Y-37120000D02*
X38720000Y-39064544D01*
X38720000Y-40245000D02*
X37870000Y-41095000D01*
X31050000Y-37120000D02*
X36775456Y-37120000D01*
X38720000Y-39064544D02*
X38720000Y-40245000D01*
X27010000Y-33080000D02*
X31050000Y-37120000D01*
X24570000Y-33995000D02*
X25485000Y-33080000D01*
X25485000Y-33080000D02*
X27010000Y-33080000D01*
X24570000Y-34395000D02*
X24570000Y-33995000D01*
D48*
%TO.N,GND*%
X44717653Y-34170000D02*
X43995000Y-34170000D01*
X43995000Y-35327932D02*
X43995000Y-35070000D01*
X43976666Y-35346266D02*
X43995000Y-35327932D01*
%TO.N,/G*%
X43380000Y-36200000D02*
X43280000Y-36300000D01*
X43380000Y-35620000D02*
X43380000Y-36200000D01*
%TO.N,/D*%
X43545000Y-33165000D02*
X43550000Y-33160000D01*
X43545000Y-34170000D02*
X43545000Y-33165000D01*
D45*
%TO.N,+12V*%
X25605000Y-41695000D02*
X26120000Y-41180000D01*
X24770000Y-41695000D02*
X25605000Y-41695000D01*
D47*
X25970000Y-36880000D02*
X25970000Y-37890000D01*
X25970000Y-37890000D02*
X26010000Y-37930000D01*
%TO.N,Net-(U3-A1)*%
X42665000Y-55555000D02*
X42640000Y-55580000D01*
X42665000Y-53615000D02*
X42665000Y-55555000D01*
D48*
%TO.N,GND*%
X45210000Y-34620000D02*
X45220000Y-34630000D01*
%TO.N,/G*%
X43380000Y-35620000D02*
X43380000Y-35970000D01*
X43380000Y-35235000D02*
X43380000Y-35620000D01*
D46*
%TO.N,+5V*%
X37870000Y-41095000D02*
X37820000Y-41145000D01*
X37820000Y-41145000D02*
X37820000Y-43520000D01*
D48*
%TO.N,/D*%
X43545000Y-33295000D02*
X43570000Y-33270000D01*
D45*
%TO.N,Net-(J2-In)*%
X58920000Y-51745000D02*
X58995000Y-51745000D01*
X55270000Y-48095000D02*
X58920000Y-51745000D01*
D48*
%TO.N,GND*%
X43995000Y-35070000D02*
X44430000Y-35070000D01*
X44020000Y-34140000D02*
X44010000Y-34150000D01*
X43995000Y-34170000D02*
X44440000Y-34170000D01*
D49*
%TO.N,+12V*%
X31645000Y-30885000D02*
X31510000Y-31020000D01*
D47*
%TO.N,+5V*%
X43190000Y-52765000D02*
X43072500Y-52647500D01*
X43932500Y-55770000D02*
X43620000Y-55457500D01*
X45940000Y-49125000D02*
X43100000Y-49125000D01*
X40460000Y-49365000D02*
X40700000Y-49125000D01*
D45*
X47629999Y-49315000D02*
X47320000Y-49315000D01*
X40420000Y-53605001D02*
X41210001Y-52815000D01*
D47*
X43072500Y-52647500D02*
X43315000Y-52405000D01*
X47320000Y-49315000D02*
X46130000Y-49315000D01*
X45170000Y-55770000D02*
X43932500Y-55770000D01*
D45*
X44970000Y-52765000D02*
X45279999Y-52765000D01*
X45279999Y-52765000D02*
X45730000Y-53215001D01*
D46*
X37820000Y-54445000D02*
X40420000Y-57045000D01*
D47*
X45720000Y-48905000D02*
X45720000Y-48275000D01*
X41520000Y-52815000D02*
X42905000Y-52815000D01*
D45*
X41210001Y-52815000D02*
X41520000Y-52815000D01*
D47*
X40700000Y-49125000D02*
X40920000Y-48905000D01*
X43320000Y-48905000D02*
X43100000Y-49125000D01*
X39320000Y-49365000D02*
X40460000Y-49365000D01*
X40920000Y-48905000D02*
X40920000Y-48275000D01*
D45*
X45730000Y-55210000D02*
X45170000Y-55770000D01*
X45730000Y-53215001D02*
X45730000Y-54145000D01*
D47*
X46130000Y-49315000D02*
X45940000Y-49125000D01*
D46*
X37820000Y-48270000D02*
X37820000Y-54445000D01*
D45*
X45730000Y-54145000D02*
X48080000Y-51795000D01*
X40420000Y-57065000D02*
X40420000Y-53605001D01*
D47*
X45940000Y-49125000D02*
X45720000Y-48905000D01*
X44970000Y-52765000D02*
X43190000Y-52765000D01*
D45*
X38915000Y-49365000D02*
X37820000Y-48270000D01*
D47*
X43320000Y-48275000D02*
X43320000Y-48905000D01*
D45*
X48080000Y-51795000D02*
X48080000Y-49765001D01*
D47*
X42905000Y-52815000D02*
X43072500Y-52647500D01*
X43315000Y-52405000D02*
X43315000Y-51775000D01*
D45*
X39320000Y-49365000D02*
X38915000Y-49365000D01*
X45730000Y-54145000D02*
X45730000Y-55210000D01*
X48080000Y-49765001D02*
X47629999Y-49315000D01*
D47*
X43100000Y-49125000D02*
X40700000Y-49125000D01*
D48*
%TO.N,/D*%
X45740000Y-33170000D02*
X45710000Y-33200000D01*
X43510000Y-33260000D02*
X43530000Y-33240000D01*
X43545000Y-34620000D02*
X43545000Y-34170000D01*
X43545000Y-34620000D02*
X44445000Y-34620000D01*
X45740000Y-33155000D02*
X45640000Y-33255000D01*
D47*
%TO.N,Net-(U1-BST)*%
X27220000Y-39670000D02*
X27220000Y-38345000D01*
X27220000Y-38345000D02*
X27295000Y-38270000D01*
%TO.N,Net-(U1-SW)*%
X26720000Y-41170000D02*
X26720000Y-42370000D01*
X26720000Y-42370000D02*
X26720000Y-44570000D01*
X26720000Y-44570000D02*
X26820000Y-44670000D01*
%TO.N,/RF_IN*%
X43695000Y-59445000D02*
X43695000Y-59720000D01*
X43670000Y-59745000D02*
X43670000Y-64320000D01*
X43695000Y-57807500D02*
X43620000Y-57732500D01*
X43695000Y-59720000D02*
X43670000Y-59745000D01*
X43695000Y-59445000D02*
X43695000Y-57807500D01*
D48*
%TO.N,/G*%
X43545000Y-35070000D02*
X43380000Y-35235000D01*
D47*
%TO.N,Net-(U1-EN)*%
X26720000Y-36020000D02*
X25970000Y-35270000D01*
D45*
X25970000Y-35860000D02*
X25970000Y-35270000D01*
D47*
X26720000Y-39670000D02*
X26720000Y-36020000D01*
D45*
X25970000Y-35270000D02*
X25970000Y-34870000D01*
D47*
%TO.N,Net-(U1-FB)*%
X26220000Y-39145000D02*
X24570000Y-37495000D01*
X26220000Y-39670000D02*
X26220000Y-39145000D01*
D45*
X24570000Y-36045000D02*
X24570000Y-37495000D01*
D47*
%TO.N,Net-(U4--IN)*%
X40645000Y-58807500D02*
X41720000Y-57732500D01*
D48*
X41720000Y-57732500D02*
X41720000Y-57070001D01*
X41720000Y-57070001D02*
X42020001Y-56770000D01*
X44520000Y-56770000D02*
X45170000Y-57420000D01*
D47*
X40645000Y-59445000D02*
X40645000Y-58807500D01*
D48*
X42020001Y-56770000D02*
X44520000Y-56770000D01*
D47*
%TO.N,Net-(U3-Y1)*%
X43970000Y-50745000D02*
X43620000Y-51095000D01*
X40620000Y-51095000D02*
X42070000Y-51095000D01*
X41570000Y-50115000D02*
X41570000Y-50795000D01*
X41870000Y-51095000D02*
X42070000Y-51095000D01*
X43620000Y-51095000D02*
X42715000Y-51095000D01*
X45070000Y-50695000D02*
X45070000Y-50115000D01*
X44470000Y-51095000D02*
X45820000Y-51095000D01*
X43620000Y-51095000D02*
X44470000Y-51095000D01*
X40270000Y-50115000D02*
X40270000Y-50745000D01*
X44470000Y-51095000D02*
X44670000Y-51095000D01*
X42665000Y-51145000D02*
X42665000Y-50120000D01*
X42615000Y-51095000D02*
X42665000Y-51145000D01*
X42665000Y-51775000D02*
X42665000Y-51145000D01*
X45820000Y-51095000D02*
X46370000Y-50545000D01*
X46370000Y-50545000D02*
X46370000Y-50115000D01*
X40270000Y-50745000D02*
X40620000Y-51095000D01*
X42070000Y-51095000D02*
X42615000Y-51095000D01*
X41570000Y-50795000D02*
X41870000Y-51095000D01*
X42665000Y-50120000D02*
X42670000Y-50115000D01*
X44670000Y-51095000D02*
X45070000Y-50695000D01*
X42715000Y-51095000D02*
X42665000Y-51145000D01*
X43970000Y-50115000D02*
X43970000Y-50745000D01*
%TO.N,/G1*%
X44520000Y-46895000D02*
X45770000Y-46895000D01*
X40270000Y-48275000D02*
X40270000Y-47645000D01*
X42670000Y-48275000D02*
X42670000Y-47295000D01*
X42670000Y-47295000D02*
X43070000Y-46895000D01*
X40270000Y-47645000D02*
X41020000Y-46895000D01*
X41020000Y-46895000D02*
X42320000Y-46895000D01*
X46370000Y-47495000D02*
X46370000Y-48275000D01*
X42320000Y-46895000D02*
X43070000Y-46895000D01*
X45770000Y-46895000D02*
X46370000Y-47495000D01*
X45070000Y-48275000D02*
X45070000Y-47445000D01*
X43970000Y-48275000D02*
X43970000Y-47295000D01*
X43070000Y-46895000D02*
X43570000Y-46895000D01*
X41570000Y-47645000D02*
X42320000Y-46895000D01*
X45070000Y-47445000D02*
X44520000Y-46895000D01*
X43970000Y-47295000D02*
X43570000Y-46895000D01*
X43570000Y-46895000D02*
X44520000Y-46895000D01*
X41570000Y-48275000D02*
X41570000Y-47645000D01*
D45*
%TO.N,Net-(J2-In)*%
X58995000Y-51745000D02*
X58995000Y-51635000D01*
%TD*%
%TA.AperFunction,Conductor*%
%TO.N,+5V*%
G36*
X31370000Y-42920000D02*
G01*
X31370000Y-46666687D01*
X31350315Y-46733726D01*
X31297511Y-46779481D01*
X31246689Y-46790685D01*
X29694689Y-46799307D01*
X29627541Y-46779995D01*
X29581494Y-46727446D01*
X29570000Y-46675309D01*
X29570000Y-42420000D01*
X31370000Y-42410000D01*
X31370000Y-42920000D01*
G37*
%TD.AperFunction*%
%TD*%
%TA.AperFunction,Conductor*%
%TO.N,GND*%
G36*
X46070000Y-41470000D02*
G01*
X44820000Y-41470000D01*
X44820000Y-35670000D01*
X46070000Y-35670000D01*
X46070000Y-41470000D01*
G37*
%TD.AperFunction*%
%TD*%
%TA.AperFunction,Conductor*%
%TO.N,+12V*%
G36*
X30970000Y-33246000D02*
G01*
X30950315Y-33313039D01*
X30897511Y-33358794D01*
X30846000Y-33370000D01*
X28440000Y-33370000D01*
X28440000Y-17270000D01*
X30970000Y-17270000D01*
X30970000Y-33246000D01*
G37*
%TD.AperFunction*%
%TD*%
%TA.AperFunction,Conductor*%
%TO.N,/G1*%
G36*
X44253039Y-45650185D02*
G01*
X44298794Y-45702989D01*
X44310000Y-45754500D01*
X44310000Y-46881000D01*
X44290315Y-46948039D01*
X44237511Y-46993794D01*
X44186000Y-47005000D01*
X42504000Y-47005000D01*
X42436961Y-46985315D01*
X42391206Y-46932511D01*
X42380000Y-46881000D01*
X42380000Y-45754500D01*
X42399685Y-45687461D01*
X42452489Y-45641706D01*
X42504000Y-45630500D01*
X44186000Y-45630500D01*
X44253039Y-45650185D01*
G37*
%TD.AperFunction*%
%TD*%
%TA.AperFunction,Conductor*%
%TO.N,GND*%
G36*
X41925773Y-53573983D02*
G01*
X41984444Y-53611924D01*
X42013288Y-53675562D01*
X42014500Y-53692860D01*
X42014500Y-54487939D01*
X41997232Y-54551060D01*
X41918255Y-54684603D01*
X41918254Y-54684606D01*
X41872402Y-54842426D01*
X41872401Y-54842432D01*
X41869500Y-54879298D01*
X41869500Y-56035701D01*
X41872899Y-56078886D01*
X41870988Y-56079036D01*
X41864612Y-56139519D01*
X41820882Y-56194012D01*
X41795170Y-56205977D01*
X41795724Y-56207314D01*
X41788210Y-56210426D01*
X41651291Y-56289475D01*
X41651283Y-56289481D01*
X41560186Y-56380579D01*
X41539481Y-56401284D01*
X41539479Y-56401286D01*
X41457516Y-56483249D01*
X41438724Y-56502041D01*
X41377400Y-56535525D01*
X41307709Y-56530541D01*
X41251776Y-56488669D01*
X41247953Y-56483268D01*
X41197139Y-56407218D01*
X41197136Y-56407215D01*
X41193754Y-56402153D01*
X41195277Y-56401134D01*
X41171331Y-56344724D01*
X41170500Y-56330390D01*
X41170500Y-53967230D01*
X41190185Y-53900191D01*
X41206819Y-53879549D01*
X41454549Y-53631819D01*
X41515872Y-53598334D01*
X41542230Y-53595500D01*
X41754682Y-53595500D01*
X41754690Y-53595500D01*
X41790993Y-53592643D01*
X41855905Y-53573784D01*
X41925773Y-53573983D01*
G37*
%TD.AperFunction*%
%TA.AperFunction,Conductor*%
G36*
X44922539Y-53565185D02*
G01*
X44968294Y-53617989D01*
X44979500Y-53669500D01*
X44979500Y-54745500D01*
X44959815Y-54812539D01*
X44907011Y-54858294D01*
X44855500Y-54869500D01*
X44838384Y-54869500D01*
X44819145Y-54871248D01*
X44767807Y-54875913D01*
X44767804Y-54875914D01*
X44605394Y-54926522D01*
X44605392Y-54926522D01*
X44605389Y-54926524D01*
X44603925Y-54927409D01*
X44602711Y-54927729D01*
X44598555Y-54929600D01*
X44598243Y-54928908D01*
X44536368Y-54945238D01*
X44469897Y-54923712D01*
X44425615Y-54869667D01*
X44417804Y-54843562D01*
X44417599Y-54842443D01*
X44417598Y-54842431D01*
X44371744Y-54684602D01*
X44301234Y-54565375D01*
X44284051Y-54497651D01*
X44306211Y-54431388D01*
X44350882Y-54395494D01*
X44349546Y-54393047D01*
X44357326Y-54388797D01*
X44357331Y-54388796D01*
X44472546Y-54302546D01*
X44558796Y-54187331D01*
X44609091Y-54052483D01*
X44615500Y-53992873D01*
X44615499Y-53669498D01*
X44635183Y-53602461D01*
X44687987Y-53556706D01*
X44739499Y-53545500D01*
X44855500Y-53545500D01*
X44922539Y-53565185D01*
G37*
%TD.AperFunction*%
%TA.AperFunction,Conductor*%
G36*
X38979082Y-50122327D02*
G01*
X39049007Y-50142643D01*
X39085310Y-50145500D01*
X39085318Y-50145500D01*
X39495500Y-50145500D01*
X39562539Y-50165185D01*
X39608294Y-50217989D01*
X39619500Y-50269500D01*
X39619500Y-50809071D01*
X39638633Y-50905254D01*
X39638633Y-50905255D01*
X39644497Y-50934737D01*
X39644500Y-50934746D01*
X39693534Y-51053125D01*
X39764726Y-51159673D01*
X40205325Y-51600272D01*
X40205332Y-51600278D01*
X40311300Y-51671083D01*
X40311296Y-51671087D01*
X40311325Y-51671098D01*
X40311873Y-51671465D01*
X40430256Y-51720501D01*
X40430260Y-51720501D01*
X40430261Y-51720502D01*
X40555928Y-51745500D01*
X40555931Y-51745500D01*
X40684069Y-51745500D01*
X41805931Y-51745500D01*
X41890500Y-51745500D01*
X41957539Y-51765185D01*
X42003294Y-51817989D01*
X42014500Y-51869500D01*
X42014500Y-51937139D01*
X41994815Y-52004178D01*
X41942011Y-52049933D01*
X41872853Y-52059877D01*
X41855905Y-52056216D01*
X41834279Y-52049933D01*
X41790993Y-52037357D01*
X41790990Y-52037356D01*
X41790991Y-52037356D01*
X41754697Y-52034500D01*
X41754690Y-52034500D01*
X41285310Y-52034500D01*
X41285302Y-52034500D01*
X41249008Y-52037356D01*
X41249005Y-52037357D01*
X41190835Y-52054257D01*
X41172528Y-52059576D01*
X41142142Y-52063900D01*
X41142143Y-52063903D01*
X41142096Y-52063907D01*
X41137934Y-52064500D01*
X41136081Y-52064500D01*
X40991093Y-52093340D01*
X40991083Y-52093343D01*
X40854512Y-52149912D01*
X40854499Y-52149919D01*
X40760869Y-52212481D01*
X40760868Y-52212483D01*
X40732343Y-52231542D01*
X40731579Y-52232053D01*
X39837045Y-53126587D01*
X39807712Y-53170491D01*
X39807710Y-53170494D01*
X39754919Y-53249499D01*
X39754912Y-53249512D01*
X39698343Y-53386083D01*
X39698340Y-53386093D01*
X39669500Y-53531080D01*
X39669500Y-54580217D01*
X39649815Y-54647256D01*
X39597011Y-54693011D01*
X39527853Y-54702955D01*
X39464297Y-54673930D01*
X39457819Y-54667898D01*
X38856819Y-54066898D01*
X38823334Y-54005575D01*
X38820500Y-53979217D01*
X38820500Y-50241407D01*
X38840185Y-50174368D01*
X38892989Y-50128613D01*
X38962147Y-50118669D01*
X38979082Y-50122327D01*
G37*
%TD.AperFunction*%
%TA.AperFunction,Conductor*%
G36*
X47272539Y-50115185D02*
G01*
X47318294Y-50167989D01*
X47329500Y-50219500D01*
X47329500Y-51432769D01*
X47309815Y-51499808D01*
X47293181Y-51520450D01*
X46282680Y-52530950D01*
X46221357Y-52564435D01*
X46151665Y-52559451D01*
X46107318Y-52530950D01*
X45758420Y-52182052D01*
X45758413Y-52182046D01*
X45684728Y-52132812D01*
X45684728Y-52132813D01*
X45635490Y-52099913D01*
X45498916Y-52043343D01*
X45498906Y-52043340D01*
X45353919Y-52014500D01*
X45353917Y-52014500D01*
X45352066Y-52014500D01*
X45347903Y-52013907D01*
X45347857Y-52013903D01*
X45347857Y-52013900D01*
X45317471Y-52009576D01*
X45245189Y-51988576D01*
X45186304Y-51950970D01*
X45157098Y-51887497D01*
X45166844Y-51818310D01*
X45212448Y-51765376D01*
X45279432Y-51745501D01*
X45279785Y-51745500D01*
X45884071Y-51745500D01*
X45968615Y-51728682D01*
X46009744Y-51720501D01*
X46128127Y-51671465D01*
X46128665Y-51671104D01*
X46128706Y-51671092D01*
X46128700Y-51671083D01*
X46207996Y-51618098D01*
X46234669Y-51600277D01*
X46875276Y-50959670D01*
X46946465Y-50853127D01*
X46995501Y-50734744D01*
X47006205Y-50680931D01*
X47020500Y-50609069D01*
X47020500Y-50219500D01*
X47040185Y-50152461D01*
X47092989Y-50106706D01*
X47144500Y-50095500D01*
X47205500Y-50095500D01*
X47272539Y-50115185D01*
G37*
%TD.AperFunction*%
%TA.AperFunction,Conductor*%
G36*
X24566231Y-38415185D02*
G01*
X24586873Y-38431819D01*
X25533181Y-39378127D01*
X25566666Y-39439450D01*
X25569500Y-39465808D01*
X25569500Y-39734069D01*
X25569500Y-39734071D01*
X25569499Y-39734071D01*
X25594497Y-39859738D01*
X25594499Y-39859744D01*
X25643533Y-39978124D01*
X25643538Y-39978133D01*
X25714723Y-40084668D01*
X25714726Y-40084672D01*
X25805327Y-40175273D01*
X25805331Y-40175276D01*
X25910603Y-40245617D01*
X25955408Y-40299229D01*
X25964115Y-40368554D01*
X25933961Y-40431582D01*
X25889165Y-40463280D01*
X25764510Y-40514914D01*
X25764495Y-40514922D01*
X25746243Y-40527117D01*
X25679564Y-40547992D01*
X25625845Y-40536806D01*
X25555465Y-40504664D01*
X25555460Y-40504662D01*
X25555459Y-40504662D01*
X25488420Y-40484977D01*
X25488422Y-40484977D01*
X25488417Y-40484976D01*
X25440944Y-40478150D01*
X25346000Y-40464500D01*
X25345998Y-40464500D01*
X24259500Y-40464500D01*
X24192461Y-40444815D01*
X24146706Y-40392011D01*
X24135500Y-40340500D01*
X24135500Y-38519500D01*
X24155185Y-38452461D01*
X24207989Y-38406706D01*
X24259500Y-38395500D01*
X24499192Y-38395500D01*
X24566231Y-38415185D01*
G37*
%TD.AperFunction*%
%TA.AperFunction,Conductor*%
G36*
X87947539Y-1020185D02*
G01*
X87993294Y-1072989D01*
X88004500Y-1124500D01*
X88004500Y-87875500D01*
X87984815Y-87942539D01*
X87932011Y-87988294D01*
X87880500Y-87999500D01*
X1129500Y-87999500D01*
X1062461Y-87979815D01*
X1016706Y-87927011D01*
X1005500Y-87875500D01*
X1005500Y-84921288D01*
X2819500Y-84921288D01*
X2851161Y-85161785D01*
X2913947Y-85396104D01*
X3006773Y-85620205D01*
X3006776Y-85620212D01*
X3128064Y-85830289D01*
X3128066Y-85830292D01*
X3128067Y-85830293D01*
X3275733Y-86022736D01*
X3275739Y-86022743D01*
X3447256Y-86194260D01*
X3447262Y-86194265D01*
X3639711Y-86341936D01*
X3849788Y-86463224D01*
X4073900Y-86556054D01*
X4308211Y-86618838D01*
X4488586Y-86642584D01*
X4548711Y-86650500D01*
X4548712Y-86650500D01*
X4791289Y-86650500D01*
X4839388Y-86644167D01*
X5031789Y-86618838D01*
X5266100Y-86556054D01*
X5490212Y-86463224D01*
X5700289Y-86341936D01*
X5892738Y-86194265D01*
X6064265Y-86022738D01*
X6211936Y-85830289D01*
X6333224Y-85620212D01*
X6426054Y-85396100D01*
X6488838Y-85161789D01*
X6520500Y-84921288D01*
X82819500Y-84921288D01*
X82851161Y-85161785D01*
X82913947Y-85396104D01*
X83006773Y-85620205D01*
X83006776Y-85620212D01*
X83128064Y-85830289D01*
X83128066Y-85830292D01*
X83128067Y-85830293D01*
X83275733Y-86022736D01*
X83275739Y-86022743D01*
X83447256Y-86194260D01*
X83447262Y-86194265D01*
X83639711Y-86341936D01*
X83849788Y-86463224D01*
X84073900Y-86556054D01*
X84308211Y-86618838D01*
X84488586Y-86642584D01*
X84548711Y-86650500D01*
X84548712Y-86650500D01*
X84791289Y-86650500D01*
X84839388Y-86644167D01*
X85031789Y-86618838D01*
X85266100Y-86556054D01*
X85490212Y-86463224D01*
X85700289Y-86341936D01*
X85892738Y-86194265D01*
X86064265Y-86022738D01*
X86211936Y-85830289D01*
X86333224Y-85620212D01*
X86426054Y-85396100D01*
X86488838Y-85161789D01*
X86520500Y-84921288D01*
X86520500Y-84678712D01*
X86488838Y-84438211D01*
X86426054Y-84203900D01*
X86333224Y-83979788D01*
X86211936Y-83769711D01*
X86064265Y-83577262D01*
X86064260Y-83577256D01*
X85892743Y-83405739D01*
X85892736Y-83405733D01*
X85700293Y-83258067D01*
X85700292Y-83258066D01*
X85700289Y-83258064D01*
X85490212Y-83136776D01*
X85490205Y-83136773D01*
X85266104Y-83043947D01*
X85031785Y-82981161D01*
X84791289Y-82949500D01*
X84791288Y-82949500D01*
X84548712Y-82949500D01*
X84548711Y-82949500D01*
X84308214Y-82981161D01*
X84073895Y-83043947D01*
X83849794Y-83136773D01*
X83849785Y-83136777D01*
X83639706Y-83258067D01*
X83447263Y-83405733D01*
X83447256Y-83405739D01*
X83275739Y-83577256D01*
X83275733Y-83577263D01*
X83128067Y-83769706D01*
X83006777Y-83979785D01*
X83006773Y-83979794D01*
X82913947Y-84203895D01*
X82851161Y-84438214D01*
X82819500Y-84678711D01*
X82819500Y-84921288D01*
X6520500Y-84921288D01*
X6520500Y-84678712D01*
X6488838Y-84438211D01*
X6426054Y-84203900D01*
X6333224Y-83979788D01*
X6211936Y-83769711D01*
X6064265Y-83577262D01*
X6064260Y-83577256D01*
X5892743Y-83405739D01*
X5892736Y-83405733D01*
X5700293Y-83258067D01*
X5700292Y-83258066D01*
X5700289Y-83258064D01*
X5490212Y-83136776D01*
X5490205Y-83136773D01*
X5266104Y-83043947D01*
X5031785Y-82981161D01*
X4791289Y-82949500D01*
X4791288Y-82949500D01*
X4548712Y-82949500D01*
X4548711Y-82949500D01*
X4308214Y-82981161D01*
X4073895Y-83043947D01*
X3849794Y-83136773D01*
X3849785Y-83136777D01*
X3639706Y-83258067D01*
X3447263Y-83405733D01*
X3447256Y-83405739D01*
X3275739Y-83577256D01*
X3275733Y-83577263D01*
X3128067Y-83769706D01*
X3006777Y-83979785D01*
X3006773Y-83979794D01*
X2913947Y-84203895D01*
X2851161Y-84438214D01*
X2819500Y-84678711D01*
X2819500Y-84921288D01*
X1005500Y-84921288D01*
X1005500Y-41841288D01*
X2819500Y-41841288D01*
X2851161Y-42081785D01*
X2913947Y-42316104D01*
X2999283Y-42522123D01*
X3006776Y-42540212D01*
X3128064Y-42750289D01*
X3128066Y-42750292D01*
X3128067Y-42750293D01*
X3275733Y-42942736D01*
X3275739Y-42942743D01*
X3447256Y-43114260D01*
X3447263Y-43114266D01*
X3488058Y-43145569D01*
X3639711Y-43261936D01*
X3849788Y-43383224D01*
X4073900Y-43476054D01*
X4308211Y-43538838D01*
X4488586Y-43562584D01*
X4548711Y-43570500D01*
X4548712Y-43570500D01*
X4791289Y-43570500D01*
X4839388Y-43564167D01*
X5031789Y-43538838D01*
X5266100Y-43476054D01*
X5490212Y-43383224D01*
X5700289Y-43261936D01*
X5892738Y-43114265D01*
X6064265Y-42942738D01*
X6211936Y-42750289D01*
X6333224Y-42540212D01*
X6426054Y-42316100D01*
X6488838Y-42081789D01*
X6520500Y-41841288D01*
X6520500Y-41598712D01*
X6518690Y-41584967D01*
X6502156Y-41459372D01*
X6488838Y-41358211D01*
X6426054Y-41123900D01*
X6333224Y-40899788D01*
X6211936Y-40689711D01*
X6115807Y-40564433D01*
X6064266Y-40497263D01*
X6064260Y-40497256D01*
X5892743Y-40325739D01*
X5892736Y-40325733D01*
X5700293Y-40178067D01*
X5700292Y-40178066D01*
X5700289Y-40178064D01*
X5490212Y-40056776D01*
X5490205Y-40056773D01*
X5266104Y-39963947D01*
X5031785Y-39901161D01*
X4791289Y-39869500D01*
X4791288Y-39869500D01*
X4548712Y-39869500D01*
X4548711Y-39869500D01*
X4308214Y-39901161D01*
X4073895Y-39963947D01*
X3849794Y-40056773D01*
X3849785Y-40056777D01*
X3639706Y-40178067D01*
X3447263Y-40325733D01*
X3447256Y-40325739D01*
X3275739Y-40497256D01*
X3275733Y-40497263D01*
X3128067Y-40689706D01*
X3006777Y-40899785D01*
X3006773Y-40899794D01*
X2913947Y-41123895D01*
X2851161Y-41358214D01*
X2819500Y-41598711D01*
X2819500Y-41841288D01*
X1005500Y-41841288D01*
X1005500Y-15720006D01*
X15584467Y-15720006D01*
X15604587Y-16193673D01*
X15664810Y-16663961D01*
X15764696Y-17127432D01*
X15764698Y-17127440D01*
X15903527Y-17580765D01*
X15903529Y-17580770D01*
X16080298Y-18020677D01*
X16080302Y-18020688D01*
X16293741Y-18444018D01*
X16293751Y-18444036D01*
X16542332Y-18847758D01*
X16824256Y-19228944D01*
X16824261Y-19228949D01*
X16824262Y-19228951D01*
X17137489Y-19584846D01*
X17479788Y-19912913D01*
X17479790Y-19912914D01*
X17848654Y-20210751D01*
X17848655Y-20210752D01*
X17999322Y-20312584D01*
X18241464Y-20476244D01*
X18425423Y-20579009D01*
X18655362Y-20707462D01*
X18655384Y-20707473D01*
X19087391Y-20902752D01*
X19087398Y-20902755D01*
X19534429Y-21060701D01*
X19993244Y-21180167D01*
X20460538Y-21260293D01*
X20606774Y-21272739D01*
X20932924Y-21300499D01*
X20932941Y-21300499D01*
X20932943Y-21300500D01*
X20932944Y-21300500D01*
X21407056Y-21300500D01*
X21407057Y-21300500D01*
X21407058Y-21300499D01*
X21407075Y-21300499D01*
X21688242Y-21276567D01*
X21879462Y-21260293D01*
X22346756Y-21180167D01*
X22805571Y-21060701D01*
X23252602Y-20902755D01*
X23684628Y-20707467D01*
X24098536Y-20476244D01*
X24216129Y-20396764D01*
X24282695Y-20375533D01*
X24285566Y-20375500D01*
X27810500Y-20375500D01*
X27877539Y-20395185D01*
X27923294Y-20447989D01*
X27934500Y-20499500D01*
X27934500Y-27840500D01*
X27914815Y-27907539D01*
X27862011Y-27953294D01*
X27810500Y-27964500D01*
X19074089Y-27964500D01*
X18966466Y-27976089D01*
X18914881Y-27987329D01*
X18914862Y-27987334D01*
X18812174Y-28021573D01*
X18812174Y-28021574D01*
X18812044Y-28021658D01*
X18811900Y-28021750D01*
X18691193Y-28099446D01*
X18691191Y-28099447D01*
X18638413Y-28145245D01*
X18544280Y-28254040D01*
X18544277Y-28254043D01*
X18484604Y-28384956D01*
X18484598Y-28384974D01*
X18465283Y-28450926D01*
X18464973Y-28451950D01*
X18444589Y-28594439D01*
X18444589Y-28594444D01*
X18454411Y-42366452D01*
X18466002Y-42473714D01*
X18466004Y-42473726D01*
X18477209Y-42525144D01*
X18511298Y-42627502D01*
X18511299Y-42627505D01*
X18589082Y-42748537D01*
X18589091Y-42748548D01*
X18634835Y-42801340D01*
X18634838Y-42801343D01*
X18634842Y-42801347D01*
X18743576Y-42895567D01*
X18743579Y-42895568D01*
X18743580Y-42895569D01*
X18846863Y-42942738D01*
X18874453Y-42955338D01*
X18941492Y-42975023D01*
X18941496Y-42975024D01*
X19083912Y-42995500D01*
X23308681Y-42995500D01*
X23343619Y-43000524D01*
X23355600Y-43004041D01*
X23358942Y-43005023D01*
X23358946Y-43005024D01*
X23501362Y-43025500D01*
X23501365Y-43025500D01*
X25345990Y-43025500D01*
X25346000Y-43025500D01*
X25432246Y-43016227D01*
X25501004Y-43028632D01*
X25552141Y-43076242D01*
X25569500Y-43139516D01*
X25569500Y-46817870D01*
X25569501Y-46817876D01*
X25575908Y-46877483D01*
X25626202Y-47012328D01*
X25626206Y-47012335D01*
X25712452Y-47127544D01*
X25712455Y-47127547D01*
X25827664Y-47213793D01*
X25827671Y-47213797D01*
X25962517Y-47264091D01*
X25962516Y-47264091D01*
X25969444Y-47264835D01*
X26022127Y-47270500D01*
X27617872Y-47270499D01*
X27677483Y-47264091D01*
X27812331Y-47213796D01*
X27927546Y-47127546D01*
X28013796Y-47012331D01*
X28064091Y-46877483D01*
X28070500Y-46817873D01*
X28070499Y-42522128D01*
X28064091Y-42462517D01*
X28048233Y-42420000D01*
X28013797Y-42327671D01*
X28013793Y-42327664D01*
X27927547Y-42212455D01*
X27927544Y-42212452D01*
X27812335Y-42126206D01*
X27812328Y-42126202D01*
X27677482Y-42075908D01*
X27677483Y-42075908D01*
X27617883Y-42069501D01*
X27617881Y-42069500D01*
X27617873Y-42069500D01*
X27617865Y-42069500D01*
X27494500Y-42069500D01*
X27427461Y-42049815D01*
X27381706Y-41997011D01*
X27370500Y-41945500D01*
X27370500Y-41751625D01*
X27373518Y-41724435D01*
X27374798Y-41718740D01*
X27389330Y-41533450D01*
X27393645Y-41478440D01*
X27393998Y-41472488D01*
X27394779Y-41459373D01*
X27380084Y-41316245D01*
X27378279Y-41309029D01*
X27374797Y-41296155D01*
X27370500Y-41263791D01*
X27370500Y-41105928D01*
X27345502Y-40980261D01*
X27345501Y-40980260D01*
X27345501Y-40980256D01*
X27296465Y-40861873D01*
X27296464Y-40861872D01*
X27296461Y-40861866D01*
X27225276Y-40755331D01*
X27225273Y-40755327D01*
X27134672Y-40664726D01*
X27134668Y-40664723D01*
X27028133Y-40593538D01*
X27028124Y-40593533D01*
X26909744Y-40544499D01*
X26909738Y-40544497D01*
X26895257Y-40541617D01*
X26833347Y-40509232D01*
X26798772Y-40448516D01*
X26802512Y-40378747D01*
X26843379Y-40322075D01*
X26895257Y-40298383D01*
X26903784Y-40296686D01*
X26909744Y-40295501D01*
X26922547Y-40290197D01*
X26992013Y-40282728D01*
X27017447Y-40290195D01*
X27030256Y-40295501D01*
X27030260Y-40295501D01*
X27030261Y-40295502D01*
X27155928Y-40320500D01*
X27155931Y-40320500D01*
X27284071Y-40320500D01*
X27368615Y-40303682D01*
X27409744Y-40295501D01*
X27528127Y-40246465D01*
X27634669Y-40175276D01*
X27725276Y-40084669D01*
X27796465Y-39978127D01*
X27845501Y-39859744D01*
X27853682Y-39818615D01*
X27870500Y-39734071D01*
X27870500Y-39290533D01*
X27890185Y-39223494D01*
X27942989Y-39177739D01*
X27955489Y-39172829D01*
X28078697Y-39132003D01*
X28223044Y-39042968D01*
X28232319Y-39033693D01*
X28293642Y-39000208D01*
X28363334Y-39005192D01*
X28407681Y-39033693D01*
X28416955Y-39042967D01*
X28416959Y-39042970D01*
X28561294Y-39131998D01*
X28561297Y-39131999D01*
X28561303Y-39132003D01*
X28722292Y-39185349D01*
X28821655Y-39195500D01*
X29368344Y-39195499D01*
X29368352Y-39195498D01*
X29368355Y-39195498D01*
X29422760Y-39189940D01*
X29467708Y-39185349D01*
X29628697Y-39132003D01*
X29773044Y-39042968D01*
X29892968Y-38923044D01*
X29982003Y-38778697D01*
X30035349Y-38617708D01*
X30045500Y-38518345D01*
X30045499Y-37921656D01*
X30035349Y-37822292D01*
X29982003Y-37661303D01*
X29981999Y-37661297D01*
X29981998Y-37661294D01*
X29892970Y-37516959D01*
X29892967Y-37516955D01*
X29773044Y-37397032D01*
X29773040Y-37397029D01*
X29628705Y-37308001D01*
X29628699Y-37307998D01*
X29628697Y-37307997D01*
X29628694Y-37307996D01*
X29467709Y-37254651D01*
X29368346Y-37244500D01*
X28821662Y-37244500D01*
X28821644Y-37244501D01*
X28722292Y-37254650D01*
X28722289Y-37254651D01*
X28561305Y-37307996D01*
X28561294Y-37308001D01*
X28416959Y-37397029D01*
X28416955Y-37397032D01*
X28407681Y-37406307D01*
X28346358Y-37439792D01*
X28276666Y-37434808D01*
X28232319Y-37406307D01*
X28223044Y-37397032D01*
X28223040Y-37397029D01*
X28078705Y-37308001D01*
X28078699Y-37307998D01*
X28078697Y-37307997D01*
X28078694Y-37307996D01*
X27917709Y-37254651D01*
X27818352Y-37244500D01*
X27818345Y-37244500D01*
X27494500Y-37244500D01*
X27427461Y-37224815D01*
X27381706Y-37172011D01*
X27370500Y-37120500D01*
X27370500Y-35955928D01*
X27345502Y-35830261D01*
X27345501Y-35830260D01*
X27345501Y-35830256D01*
X27296465Y-35711873D01*
X27296464Y-35711872D01*
X27296461Y-35711866D01*
X27225277Y-35605332D01*
X27204479Y-35584534D01*
X27134669Y-35514724D01*
X26982081Y-35362136D01*
X26823526Y-35203580D01*
X26790041Y-35142257D01*
X26787589Y-35106171D01*
X26790499Y-35069188D01*
X26790500Y-35069181D01*
X26790499Y-34670820D01*
X26787665Y-34634796D01*
X26742869Y-34480607D01*
X26661135Y-34342402D01*
X26661133Y-34342400D01*
X26661130Y-34342396D01*
X26547603Y-34228869D01*
X26547595Y-34228863D01*
X26409393Y-34147131D01*
X26409388Y-34147129D01*
X26255208Y-34102335D01*
X26255202Y-34102334D01*
X26219181Y-34099500D01*
X25720830Y-34099500D01*
X25720803Y-34099502D01*
X25691871Y-34101778D01*
X25623495Y-34087412D01*
X25573740Y-34038358D01*
X25558403Y-33970193D01*
X25582355Y-33904556D01*
X25594457Y-33890487D01*
X25718128Y-33766816D01*
X25779450Y-33733334D01*
X25805808Y-33730500D01*
X26689192Y-33730500D01*
X26756231Y-33750185D01*
X26776873Y-33766819D01*
X30635325Y-37625272D01*
X30635328Y-37625275D01*
X30635331Y-37625277D01*
X30688987Y-37661128D01*
X30741873Y-37696465D01*
X30860256Y-37745501D01*
X30860260Y-37745501D01*
X30860261Y-37745502D01*
X30985928Y-37770500D01*
X30985931Y-37770500D01*
X36454648Y-37770500D01*
X36521687Y-37790185D01*
X36542329Y-37806819D01*
X38033181Y-39297671D01*
X38066666Y-39358994D01*
X38069500Y-39385352D01*
X38069500Y-39566000D01*
X38049815Y-39633039D01*
X37997011Y-39678794D01*
X37945500Y-39690000D01*
X37636058Y-39690000D01*
X37616660Y-39688473D01*
X37597651Y-39685462D01*
X37585789Y-39683583D01*
X37575397Y-39681477D01*
X37563817Y-39678610D01*
X37560655Y-39678520D01*
X37549632Y-39677711D01*
X37438033Y-39664500D01*
X37438029Y-39664500D01*
X29694000Y-39664500D01*
X29693991Y-39664500D01*
X29693990Y-39664501D01*
X29586549Y-39676052D01*
X29586537Y-39676054D01*
X29535027Y-39687260D01*
X29432502Y-39721383D01*
X29432496Y-39721386D01*
X29311462Y-39799171D01*
X29311451Y-39799179D01*
X29258659Y-39844923D01*
X29164433Y-39953664D01*
X29164430Y-39953668D01*
X29104664Y-40084534D01*
X29084976Y-40151582D01*
X29064500Y-40294001D01*
X29064500Y-46675306D01*
X29076354Y-46784139D01*
X29087848Y-46836276D01*
X29087848Y-46836277D01*
X29101754Y-46877483D01*
X29122847Y-46939987D01*
X29122849Y-46939990D01*
X29122850Y-46939992D01*
X29189254Y-47042069D01*
X29201305Y-47060593D01*
X29247352Y-47113142D01*
X29247354Y-47113144D01*
X29356613Y-47206760D01*
X29487821Y-47265802D01*
X29521395Y-47275458D01*
X29554963Y-47285113D01*
X29554967Y-47285113D01*
X29554969Y-47285114D01*
X29554970Y-47285114D01*
X29563085Y-47286257D01*
X29563412Y-47286280D01*
X29697497Y-47304799D01*
X31249497Y-47296177D01*
X31355516Y-47284332D01*
X31392535Y-47276170D01*
X31406321Y-47273132D01*
X31406324Y-47273130D01*
X31406338Y-47273128D01*
X31507504Y-47239300D01*
X31628543Y-47161512D01*
X31681347Y-47115757D01*
X31775567Y-47007023D01*
X31835338Y-46876146D01*
X31855023Y-46809107D01*
X31855024Y-46809103D01*
X31875500Y-46666687D01*
X31875500Y-43549500D01*
X31895185Y-43482461D01*
X31947989Y-43436706D01*
X31999500Y-43425500D01*
X36695500Y-43425500D01*
X36762539Y-43445185D01*
X36808294Y-43497989D01*
X36819500Y-43549500D01*
X36819500Y-48171459D01*
X36819500Y-54543541D01*
X36819500Y-54543543D01*
X36819499Y-54543543D01*
X36857947Y-54736829D01*
X36857950Y-54736839D01*
X36933364Y-54918907D01*
X36933371Y-54918920D01*
X37042859Y-55082780D01*
X37042860Y-55082781D01*
X37042861Y-55082782D01*
X37182218Y-55222139D01*
X37182219Y-55222139D01*
X37189286Y-55229206D01*
X37189285Y-55229206D01*
X37189289Y-55229209D01*
X39782212Y-57822134D01*
X39782219Y-57822140D01*
X39946084Y-57931630D01*
X39946085Y-57931630D01*
X39946086Y-57931631D01*
X40128164Y-58007051D01*
X40232052Y-58027715D01*
X40293961Y-58060099D01*
X40328535Y-58120815D01*
X40324796Y-58190584D01*
X40295541Y-58237013D01*
X40139717Y-58392837D01*
X40112885Y-58432998D01*
X40112883Y-58433001D01*
X40083317Y-58477249D01*
X40068535Y-58499372D01*
X40068532Y-58499378D01*
X40038065Y-58572929D01*
X40011187Y-58613155D01*
X39889529Y-58734813D01*
X39801522Y-58880393D01*
X39750913Y-59042807D01*
X39744500Y-59113386D01*
X39744500Y-59776613D01*
X39750913Y-59847192D01*
X39801522Y-60009606D01*
X39889530Y-60155188D01*
X40009811Y-60275469D01*
X40009813Y-60275470D01*
X40009815Y-60275472D01*
X40155394Y-60363478D01*
X40317804Y-60414086D01*
X40388384Y-60420500D01*
X40388387Y-60420500D01*
X40901613Y-60420500D01*
X40901616Y-60420500D01*
X40972196Y-60414086D01*
X41134606Y-60363478D01*
X41280185Y-60275472D01*
X41400472Y-60155185D01*
X41488478Y-60009606D01*
X41539086Y-59847196D01*
X41545500Y-59776616D01*
X41545500Y-59113384D01*
X41539086Y-59042804D01*
X41539085Y-59042803D01*
X41538492Y-59036270D01*
X41539939Y-59036138D01*
X41545486Y-58974108D01*
X41588345Y-58918928D01*
X41654233Y-58895678D01*
X41660879Y-58895500D01*
X41935686Y-58895500D01*
X41935694Y-58895500D01*
X41972569Y-58892598D01*
X41972571Y-58892597D01*
X41972573Y-58892597D01*
X42014585Y-58880391D01*
X42130398Y-58846744D01*
X42271865Y-58763081D01*
X42388081Y-58646865D01*
X42471744Y-58505398D01*
X42517598Y-58347569D01*
X42520500Y-58310694D01*
X42520500Y-57494500D01*
X42540185Y-57427461D01*
X42592989Y-57381706D01*
X42644500Y-57370500D01*
X42695500Y-57370500D01*
X42762539Y-57390185D01*
X42808294Y-57442989D01*
X42819500Y-57494500D01*
X42819500Y-58310701D01*
X42822401Y-58347567D01*
X42822402Y-58347573D01*
X42868254Y-58505393D01*
X42868255Y-58505396D01*
X42934340Y-58617141D01*
X42951523Y-58684865D01*
X42933725Y-58744411D01*
X42851523Y-58880391D01*
X42851522Y-58880393D01*
X42851522Y-58880394D01*
X42847719Y-58892598D01*
X42800913Y-59042807D01*
X42794500Y-59113386D01*
X42794500Y-59776613D01*
X42800913Y-59847192D01*
X42851522Y-60009606D01*
X42939530Y-60155188D01*
X42983180Y-60198837D01*
X43016666Y-60260160D01*
X43019500Y-60286519D01*
X43019500Y-63045512D01*
X42999815Y-63112551D01*
X42954520Y-63154564D01*
X42920585Y-63172930D01*
X42920581Y-63172932D01*
X42742003Y-63311925D01*
X42588732Y-63478420D01*
X42464962Y-63667866D01*
X42374059Y-63875102D01*
X42318506Y-64094479D01*
X42299820Y-64319993D01*
X42299820Y-64320006D01*
X42318506Y-64545520D01*
X42374059Y-64764897D01*
X42464962Y-64972133D01*
X42588732Y-65161579D01*
X42742004Y-65328076D01*
X42742008Y-65328079D01*
X42920574Y-65467063D01*
X42920581Y-65467067D01*
X42920583Y-65467069D01*
X43119605Y-65574774D01*
X43230746Y-65612929D01*
X43333637Y-65648252D01*
X43333639Y-65648252D01*
X43333641Y-65648253D01*
X43556851Y-65685500D01*
X43556852Y-65685500D01*
X43783148Y-65685500D01*
X43783149Y-65685500D01*
X44006359Y-65648253D01*
X44220395Y-65574774D01*
X44419417Y-65467069D01*
X44597998Y-65328074D01*
X44751265Y-65161582D01*
X44875037Y-64972134D01*
X44965940Y-64764897D01*
X45021493Y-64545524D01*
X45040180Y-64320000D01*
X45040180Y-64319993D01*
X45021493Y-64094479D01*
X45021493Y-64094476D01*
X44965940Y-63875103D01*
X44875037Y-63667866D01*
X44751267Y-63478420D01*
X44731603Y-63457059D01*
X44597998Y-63311926D01*
X44419417Y-63172931D01*
X44385479Y-63154564D01*
X44335891Y-63105346D01*
X44320500Y-63045512D01*
X44320500Y-60336519D01*
X44340185Y-60269480D01*
X44356814Y-60248842D01*
X44450472Y-60155185D01*
X44538478Y-60009606D01*
X44589086Y-59847196D01*
X44595500Y-59776616D01*
X44595500Y-59113384D01*
X44589086Y-59042804D01*
X44538478Y-58880394D01*
X44450472Y-58734815D01*
X44450470Y-58734813D01*
X44450469Y-58734811D01*
X44383757Y-58668099D01*
X44350272Y-58606776D01*
X44355256Y-58537084D01*
X44364705Y-58517300D01*
X44371744Y-58505398D01*
X44417598Y-58347569D01*
X44417598Y-58347558D01*
X44417804Y-58346440D01*
X44418093Y-58345864D01*
X44419366Y-58341485D01*
X44420178Y-58341721D01*
X44449210Y-58284027D01*
X44509374Y-58248501D01*
X44579194Y-58251142D01*
X44603935Y-58262596D01*
X44605394Y-58263478D01*
X44767804Y-58314086D01*
X44838384Y-58320500D01*
X44838387Y-58320500D01*
X45501613Y-58320500D01*
X45501616Y-58320500D01*
X45572196Y-58314086D01*
X45734606Y-58263478D01*
X45880185Y-58175472D01*
X46000472Y-58055185D01*
X46088478Y-57909606D01*
X46139086Y-57747196D01*
X46145500Y-57676616D01*
X46145500Y-57163384D01*
X46139086Y-57092804D01*
X46088478Y-56930394D01*
X46000472Y-56784815D01*
X46000470Y-56784813D01*
X46000469Y-56784811D01*
X45898339Y-56682681D01*
X45864854Y-56621358D01*
X45869838Y-56551666D01*
X45898339Y-56507319D01*
X46000468Y-56405189D01*
X46000469Y-56405188D01*
X46000472Y-56405185D01*
X46088478Y-56259606D01*
X46139086Y-56097196D01*
X46145500Y-56026616D01*
X46145500Y-55907229D01*
X46165185Y-55840190D01*
X46181814Y-55819552D01*
X46312952Y-55688415D01*
X46385220Y-55580257D01*
X46395084Y-55565495D01*
X46438006Y-55461873D01*
X46451659Y-55428912D01*
X46480500Y-55283917D01*
X46480500Y-55136082D01*
X46480500Y-54507230D01*
X46500185Y-54440191D01*
X46516819Y-54419549D01*
X47578758Y-53357610D01*
X48662952Y-52273416D01*
X48703666Y-52212482D01*
X48719021Y-52189501D01*
X48719022Y-52189499D01*
X48723998Y-52182052D01*
X48745084Y-52150495D01*
X48801658Y-52013913D01*
X48811096Y-51966462D01*
X48830500Y-51868920D01*
X48830500Y-49691082D01*
X48830499Y-49691081D01*
X48818405Y-49630277D01*
X48801659Y-49546089D01*
X48747408Y-49415118D01*
X48745765Y-49410526D01*
X48745084Y-49409506D01*
X48672537Y-49300931D01*
X48662952Y-49286586D01*
X48662948Y-49286582D01*
X48586818Y-49210450D01*
X48553333Y-49149127D01*
X48550500Y-49122770D01*
X48550500Y-48095006D01*
X53899820Y-48095006D01*
X53918506Y-48320520D01*
X53974059Y-48539897D01*
X54064962Y-48747133D01*
X54188732Y-48936579D01*
X54342004Y-49103076D01*
X54342008Y-49103079D01*
X54520574Y-49242063D01*
X54520581Y-49242067D01*
X54520583Y-49242069D01*
X54719605Y-49349774D01*
X54825433Y-49386105D01*
X54933637Y-49423252D01*
X54933639Y-49423252D01*
X54933641Y-49423253D01*
X55156851Y-49460500D01*
X55156852Y-49460500D01*
X55383147Y-49460500D01*
X55383149Y-49460500D01*
X55483864Y-49443693D01*
X55553227Y-49452075D01*
X55591953Y-49478321D01*
X57544192Y-51430560D01*
X57577677Y-51491883D01*
X57572693Y-51561575D01*
X57544192Y-51605922D01*
X57000249Y-52149865D01*
X57000245Y-52149870D01*
X57000240Y-52149875D01*
X57000239Y-52149877D01*
X56999741Y-52150495D01*
X56991212Y-52161078D01*
X56982349Y-52170944D01*
X56887517Y-52265778D01*
X56887516Y-52265779D01*
X56849901Y-52312454D01*
X56790113Y-52443371D01*
X56769632Y-52585827D01*
X56790113Y-52728285D01*
X56849900Y-52859200D01*
X56849902Y-52859202D01*
X56887520Y-52905884D01*
X56887523Y-52905887D01*
X56887528Y-52905893D01*
X56929884Y-52948248D01*
X56941471Y-52961619D01*
X57000237Y-53040121D01*
X57000248Y-53040133D01*
X60149873Y-56189757D01*
X60149891Y-56189774D01*
X60234010Y-56257563D01*
X60234020Y-56257570D01*
X60237328Y-56259696D01*
X60257965Y-56276327D01*
X60278625Y-56296987D01*
X60278629Y-56296990D01*
X60278631Y-56296992D01*
X60325306Y-56334607D01*
X60456223Y-56394395D01*
X60598681Y-56414877D01*
X60741138Y-56394395D01*
X60872054Y-56334607D01*
X60918736Y-56296989D01*
X60977538Y-56238185D01*
X60990903Y-56226606D01*
X61012521Y-56210423D01*
X61040123Y-56189761D01*
X63564761Y-53665123D01*
X63619388Y-53597335D01*
X63628231Y-53587490D01*
X63680514Y-53535209D01*
X63718134Y-53488527D01*
X63777922Y-53357611D01*
X63798404Y-53215154D01*
X63777922Y-53072696D01*
X63763045Y-53040121D01*
X63718135Y-52941781D01*
X63711864Y-52933999D01*
X63680516Y-52895098D01*
X63584325Y-52798907D01*
X63572746Y-52785544D01*
X63564761Y-52774877D01*
X63564756Y-52774872D01*
X63564751Y-52774866D01*
X60415126Y-49625242D01*
X60415108Y-49625225D01*
X60397279Y-49610858D01*
X60387405Y-49601989D01*
X60289414Y-49503998D01*
X60289408Y-49503993D01*
X60289404Y-49503989D01*
X60242729Y-49466374D01*
X60111812Y-49406586D01*
X59989836Y-49389049D01*
X59969355Y-49386105D01*
X59969354Y-49386105D01*
X59826898Y-49406586D01*
X59695983Y-49466373D01*
X59649290Y-49504001D01*
X59543780Y-49609510D01*
X59530421Y-49621087D01*
X59524876Y-49625238D01*
X58780922Y-50369192D01*
X58719599Y-50402677D01*
X58649907Y-50397693D01*
X58605560Y-50369192D01*
X56657191Y-48420823D01*
X56623706Y-48359500D01*
X56621296Y-48322902D01*
X56640180Y-48095005D01*
X56640180Y-48094993D01*
X56621493Y-47869479D01*
X56621493Y-47869476D01*
X56565940Y-47650103D01*
X56475037Y-47442866D01*
X56405789Y-47336873D01*
X56351267Y-47253420D01*
X56235391Y-47127546D01*
X56197998Y-47086926D01*
X56197997Y-47086925D01*
X56197995Y-47086923D01*
X56197991Y-47086920D01*
X56019425Y-46947936D01*
X56019414Y-46947929D01*
X55820401Y-46840229D01*
X55820398Y-46840228D01*
X55820395Y-46840226D01*
X55820389Y-46840224D01*
X55820387Y-46840223D01*
X55606362Y-46766747D01*
X55438951Y-46738811D01*
X55383149Y-46729500D01*
X55156851Y-46729500D01*
X55112209Y-46736949D01*
X54933637Y-46766747D01*
X54719612Y-46840223D01*
X54719598Y-46840229D01*
X54520585Y-46947929D01*
X54520574Y-46947936D01*
X54342008Y-47086920D01*
X54342004Y-47086923D01*
X54188732Y-47253420D01*
X54064962Y-47442866D01*
X53974059Y-47650102D01*
X53918506Y-47869479D01*
X53899820Y-48094993D01*
X53899820Y-48095006D01*
X48550500Y-48095006D01*
X48550500Y-47042068D01*
X48550499Y-47042067D01*
X48531775Y-46947931D01*
X48512052Y-46848775D01*
X48440200Y-46675309D01*
X48436633Y-46666698D01*
X48436628Y-46666689D01*
X48327140Y-46502829D01*
X48327137Y-46502825D01*
X46123599Y-44299289D01*
X46123596Y-44299285D01*
X46123596Y-44299286D01*
X46116529Y-44292219D01*
X46116529Y-44292218D01*
X45977172Y-44152861D01*
X45977171Y-44152860D01*
X45977170Y-44152859D01*
X45813310Y-44043371D01*
X45813301Y-44043366D01*
X45730073Y-44008892D01*
X45684555Y-43990038D01*
X45657890Y-43978993D01*
X45631227Y-43967949D01*
X45631223Y-43967948D01*
X45513335Y-43944499D01*
X45437933Y-43929500D01*
X45437931Y-43929500D01*
X39775783Y-43929500D01*
X39708744Y-43909815D01*
X39688102Y-43893181D01*
X38918078Y-43123157D01*
X38884593Y-43061834D01*
X38886781Y-43000541D01*
X38905023Y-42938420D01*
X38905024Y-42938416D01*
X38925500Y-42796000D01*
X38925500Y-42699500D01*
X38945185Y-42632461D01*
X38997989Y-42586706D01*
X39049500Y-42575500D01*
X41745990Y-42575500D01*
X41746000Y-42575500D01*
X41794866Y-42570246D01*
X41863625Y-42582651D01*
X41914762Y-42630261D01*
X41931410Y-42680277D01*
X41936053Y-42723454D01*
X41936054Y-42723462D01*
X41947260Y-42774972D01*
X41981383Y-42877497D01*
X41981386Y-42877503D01*
X42059171Y-42998537D01*
X42059179Y-42998548D01*
X42104923Y-43051340D01*
X42104926Y-43051343D01*
X42104930Y-43051347D01*
X42213664Y-43145567D01*
X42213667Y-43145568D01*
X42213668Y-43145569D01*
X42307925Y-43188616D01*
X42344541Y-43205338D01*
X42411580Y-43225023D01*
X42411584Y-43225024D01*
X42554000Y-43245500D01*
X42554003Y-43245500D01*
X44185990Y-43245500D01*
X44186000Y-43245500D01*
X44293456Y-43233947D01*
X44344967Y-43222741D01*
X44379197Y-43211347D01*
X44447497Y-43188616D01*
X44447501Y-43188613D01*
X44447504Y-43188613D01*
X44568543Y-43110825D01*
X44621347Y-43065070D01*
X44715567Y-42956336D01*
X44775338Y-42825459D01*
X44795023Y-42758420D01*
X44795024Y-42758416D01*
X44815500Y-42616000D01*
X44815500Y-40648699D01*
X44815645Y-40646301D01*
X44815645Y-40633713D01*
X44815500Y-40631312D01*
X44815500Y-39378639D01*
X47794500Y-39378639D01*
X47797396Y-39432667D01*
X47797399Y-39432699D01*
X47798790Y-39445642D01*
X47799500Y-39458886D01*
X47799500Y-39487859D01*
X47799501Y-39487871D01*
X47803790Y-39527770D01*
X47804500Y-39541022D01*
X47804500Y-41426000D01*
X47804501Y-41426009D01*
X47816052Y-41533450D01*
X47816054Y-41533462D01*
X47827260Y-41584972D01*
X47861383Y-41687497D01*
X47861386Y-41687503D01*
X47939171Y-41808537D01*
X47939179Y-41808548D01*
X47984923Y-41861340D01*
X47984926Y-41861343D01*
X47984930Y-41861347D01*
X48093664Y-41955567D01*
X48093667Y-41955568D01*
X48093668Y-41955569D01*
X48214098Y-42010569D01*
X48224541Y-42015338D01*
X48291580Y-42035023D01*
X48291584Y-42035024D01*
X48434000Y-42055500D01*
X48434003Y-42055500D01*
X52795990Y-42055500D01*
X52796000Y-42055500D01*
X52903456Y-42043947D01*
X52954967Y-42032741D01*
X52989197Y-42021347D01*
X53057497Y-41998616D01*
X53057501Y-41998613D01*
X53057504Y-41998613D01*
X53178543Y-41920825D01*
X53231347Y-41875070D01*
X53325567Y-41766336D01*
X53385338Y-41635459D01*
X53405023Y-41568420D01*
X53405024Y-41568416D01*
X53417592Y-41481000D01*
X61239500Y-41481000D01*
X61239501Y-41481009D01*
X61251052Y-41588450D01*
X61251054Y-41588462D01*
X61262260Y-41639972D01*
X61296383Y-41742497D01*
X61296386Y-41742503D01*
X61374171Y-41863537D01*
X61374179Y-41863548D01*
X61419923Y-41916340D01*
X61419926Y-41916343D01*
X61419930Y-41916347D01*
X61528664Y-42010567D01*
X61528667Y-42010568D01*
X61528668Y-42010569D01*
X61627046Y-42055498D01*
X61659541Y-42070338D01*
X61726580Y-42090023D01*
X61726584Y-42090024D01*
X61869000Y-42110500D01*
X64040500Y-42110500D01*
X64107539Y-42130185D01*
X64153294Y-42182989D01*
X64164500Y-42234500D01*
X64164500Y-45026062D01*
X64153296Y-45077570D01*
X64151097Y-45082385D01*
X64151095Y-45082389D01*
X64130614Y-45224845D01*
X64151095Y-45367303D01*
X64210882Y-45498218D01*
X64210884Y-45498220D01*
X64248502Y-45544902D01*
X64248505Y-45544905D01*
X64248510Y-45544911D01*
X67075673Y-48372071D01*
X67639607Y-48936005D01*
X67639611Y-48936008D01*
X67639613Y-48936010D01*
X67686288Y-48973625D01*
X67817205Y-49033413D01*
X67959663Y-49053895D01*
X68102120Y-49033413D01*
X68233036Y-48973625D01*
X68279718Y-48936007D01*
X68352538Y-48863185D01*
X68365903Y-48851606D01*
X68415123Y-48814761D01*
X70939761Y-46290123D01*
X70994388Y-46222336D01*
X71003241Y-46212481D01*
X71041496Y-46174227D01*
X71079116Y-46127545D01*
X71138904Y-45996629D01*
X71159386Y-45854172D01*
X71138904Y-45711714D01*
X71079117Y-45580799D01*
X71050197Y-45544911D01*
X71041498Y-45534116D01*
X71041494Y-45534112D01*
X71041482Y-45534097D01*
X71039269Y-45531633D01*
X71039434Y-45531484D01*
X71028897Y-45518410D01*
X71028639Y-45518604D01*
X71025986Y-45515060D01*
X71025985Y-45515058D01*
X70939761Y-45399877D01*
X70939756Y-45399872D01*
X70939751Y-45399866D01*
X68836819Y-43296934D01*
X68803334Y-43235611D01*
X68800500Y-43209253D01*
X68800500Y-41841288D01*
X82819500Y-41841288D01*
X82851161Y-42081785D01*
X82913947Y-42316104D01*
X82999283Y-42522123D01*
X83006776Y-42540212D01*
X83128064Y-42750289D01*
X83128066Y-42750292D01*
X83128067Y-42750293D01*
X83275733Y-42942736D01*
X83275739Y-42942743D01*
X83447256Y-43114260D01*
X83447263Y-43114266D01*
X83488058Y-43145569D01*
X83639711Y-43261936D01*
X83849788Y-43383224D01*
X84073900Y-43476054D01*
X84308211Y-43538838D01*
X84488586Y-43562584D01*
X84548711Y-43570500D01*
X84548712Y-43570500D01*
X84791289Y-43570500D01*
X84839388Y-43564167D01*
X85031789Y-43538838D01*
X85266100Y-43476054D01*
X85490212Y-43383224D01*
X85700289Y-43261936D01*
X85892738Y-43114265D01*
X86064265Y-42942738D01*
X86211936Y-42750289D01*
X86333224Y-42540212D01*
X86426054Y-42316100D01*
X86488838Y-42081789D01*
X86520500Y-41841288D01*
X86520500Y-41598712D01*
X86518690Y-41584967D01*
X86502156Y-41459372D01*
X86488838Y-41358211D01*
X86426054Y-41123900D01*
X86333224Y-40899788D01*
X86211936Y-40689711D01*
X86115807Y-40564433D01*
X86064266Y-40497263D01*
X86064260Y-40497256D01*
X85892743Y-40325739D01*
X85892736Y-40325733D01*
X85700293Y-40178067D01*
X85700292Y-40178066D01*
X85700289Y-40178064D01*
X85490212Y-40056776D01*
X85490205Y-40056773D01*
X85266104Y-39963947D01*
X85031785Y-39901161D01*
X84791289Y-39869500D01*
X84791288Y-39869500D01*
X84548712Y-39869500D01*
X84548711Y-39869500D01*
X84308214Y-39901161D01*
X84073895Y-39963947D01*
X83849794Y-40056773D01*
X83849785Y-40056777D01*
X83639706Y-40178067D01*
X83447263Y-40325733D01*
X83447256Y-40325739D01*
X83275739Y-40497256D01*
X83275733Y-40497263D01*
X83128067Y-40689706D01*
X83006777Y-40899785D01*
X83006773Y-40899794D01*
X82913947Y-41123895D01*
X82851161Y-41358214D01*
X82819500Y-41598711D01*
X82819500Y-41841288D01*
X68800500Y-41841288D01*
X68800500Y-37694010D01*
X68800500Y-37694000D01*
X68796210Y-37654098D01*
X68795499Y-37640843D01*
X68795499Y-37522129D01*
X68795498Y-37522123D01*
X68791458Y-37484541D01*
X68789091Y-37462517D01*
X68778756Y-37434808D01*
X68738797Y-37327671D01*
X68738793Y-37327664D01*
X68652547Y-37212455D01*
X68652544Y-37212452D01*
X68537335Y-37126206D01*
X68537328Y-37126202D01*
X68402482Y-37075908D01*
X68402483Y-37075908D01*
X68342883Y-37069501D01*
X68342881Y-37069500D01*
X68342873Y-37069500D01*
X68342865Y-37069500D01*
X68214645Y-37069500D01*
X68196999Y-37068238D01*
X68171001Y-37064500D01*
X68171000Y-37064500D01*
X62667441Y-37064500D01*
X62628437Y-37058206D01*
X62617709Y-37054651D01*
X62518346Y-37044500D01*
X61971662Y-37044500D01*
X61971644Y-37044501D01*
X61872290Y-37054651D01*
X61842450Y-37064539D01*
X61816704Y-37070122D01*
X61761542Y-37076053D01*
X61710027Y-37087260D01*
X61607502Y-37121383D01*
X61607496Y-37121386D01*
X61486462Y-37199171D01*
X61486451Y-37199179D01*
X61433659Y-37244923D01*
X61339433Y-37353664D01*
X61339430Y-37353668D01*
X61279664Y-37484534D01*
X61268627Y-37522123D01*
X61259977Y-37551580D01*
X61259976Y-37551584D01*
X61239500Y-37694000D01*
X61239500Y-41481000D01*
X53417592Y-41481000D01*
X53425500Y-41426000D01*
X53425500Y-40069500D01*
X53445185Y-40002461D01*
X53497989Y-39956706D01*
X53549500Y-39945500D01*
X58515991Y-39945500D01*
X58516000Y-39945500D01*
X58555901Y-39941209D01*
X58569157Y-39940499D01*
X58687871Y-39940499D01*
X58687872Y-39940499D01*
X58747483Y-39934091D01*
X58882331Y-39883796D01*
X58997546Y-39797546D01*
X59083796Y-39682331D01*
X59134091Y-39547483D01*
X59140500Y-39487873D01*
X59140499Y-39359643D01*
X59141762Y-39341990D01*
X59145500Y-39316000D01*
X59145500Y-36264010D01*
X59145500Y-36264000D01*
X59141210Y-36224098D01*
X59140499Y-36210843D01*
X59140499Y-36092129D01*
X59140498Y-36092123D01*
X59140497Y-36092116D01*
X59134091Y-36032517D01*
X59115995Y-35984000D01*
X59083797Y-35897671D01*
X59083793Y-35897664D01*
X58997547Y-35782455D01*
X58997544Y-35782452D01*
X58882335Y-35696206D01*
X58882328Y-35696202D01*
X58747482Y-35645908D01*
X58747483Y-35645908D01*
X58687883Y-35639501D01*
X58687881Y-35639500D01*
X58687873Y-35639500D01*
X58687865Y-35639500D01*
X58559645Y-35639500D01*
X58541999Y-35638238D01*
X58516001Y-35634500D01*
X58516000Y-35634500D01*
X48424000Y-35634500D01*
X48423995Y-35634500D01*
X48384089Y-35638790D01*
X48370837Y-35639500D01*
X48252130Y-35639500D01*
X48252123Y-35639501D01*
X48192516Y-35645908D01*
X48057671Y-35696202D01*
X48057664Y-35696206D01*
X47942455Y-35782452D01*
X47942452Y-35782455D01*
X47856206Y-35897664D01*
X47856202Y-35897671D01*
X47805908Y-36032517D01*
X47799501Y-36092116D01*
X47799501Y-36092123D01*
X47799500Y-36092135D01*
X47799500Y-36220354D01*
X47798238Y-36237999D01*
X47794500Y-36263996D01*
X47794500Y-39378639D01*
X44815500Y-39378639D01*
X44815500Y-39218699D01*
X44815645Y-39216301D01*
X44815645Y-39203713D01*
X44815500Y-39201312D01*
X44815500Y-38003408D01*
X44816404Y-37988461D01*
X44824515Y-37921662D01*
X44835645Y-37830000D01*
X44816404Y-37671537D01*
X44815500Y-37656590D01*
X44815500Y-36511051D01*
X44816404Y-36496104D01*
X44819634Y-36469500D01*
X44825645Y-36420000D01*
X44816404Y-36343893D01*
X44815500Y-36328947D01*
X44815500Y-35984010D01*
X44815500Y-35984000D01*
X44803947Y-35876544D01*
X44792741Y-35825033D01*
X44792637Y-35824722D01*
X44758616Y-35722502D01*
X44758613Y-35722496D01*
X44683315Y-35605332D01*
X44680825Y-35601457D01*
X44680820Y-35601451D01*
X44635076Y-35548659D01*
X44635072Y-35548656D01*
X44635070Y-35548653D01*
X44526336Y-35454433D01*
X44526332Y-35454431D01*
X44518872Y-35449636D01*
X44520686Y-35446813D01*
X44480178Y-35411710D01*
X44460495Y-35344670D01*
X44480182Y-35277631D01*
X44532987Y-35231878D01*
X44554815Y-35224278D01*
X44663969Y-35197374D01*
X44795781Y-35128194D01*
X44907207Y-35029480D01*
X44991771Y-34906967D01*
X45044559Y-34767778D01*
X45062502Y-34620000D01*
X45044559Y-34472222D01*
X45037815Y-34454439D01*
X45032448Y-34384776D01*
X45065595Y-34323270D01*
X45126733Y-34289448D01*
X45188975Y-34291574D01*
X45252366Y-34310352D01*
X45394730Y-34331167D01*
X49171555Y-34340160D01*
X49189499Y-34340203D01*
X49189499Y-34340202D01*
X49189501Y-34340203D01*
X49297577Y-34328778D01*
X49349383Y-34317572D01*
X49452504Y-34283317D01*
X49573543Y-34205529D01*
X49626347Y-34159774D01*
X49720567Y-34051040D01*
X49780338Y-33920163D01*
X49800023Y-33853124D01*
X49800024Y-33853120D01*
X49820500Y-33710704D01*
X49820500Y-31224500D01*
X49840185Y-31157461D01*
X49892989Y-31111706D01*
X49944500Y-31100500D01*
X60095990Y-31100500D01*
X60096000Y-31100500D01*
X60203456Y-31088947D01*
X60254967Y-31077741D01*
X60289197Y-31066347D01*
X60357497Y-31043616D01*
X60357498Y-31043615D01*
X60357498Y-31043614D01*
X60357504Y-31043613D01*
X60425442Y-30999950D01*
X60492479Y-30980267D01*
X60543991Y-30991472D01*
X60640041Y-31035338D01*
X60707080Y-31055023D01*
X60707084Y-31055024D01*
X60849500Y-31075500D01*
X62933110Y-31075500D01*
X63000149Y-31095185D01*
X63037425Y-31132460D01*
X63099170Y-31228537D01*
X63099179Y-31228548D01*
X63144923Y-31281340D01*
X63144926Y-31281343D01*
X63144930Y-31281347D01*
X63253664Y-31375567D01*
X63253667Y-31375568D01*
X63253668Y-31375569D01*
X63337371Y-31413796D01*
X63384541Y-31435338D01*
X63451580Y-31455023D01*
X63451584Y-31455024D01*
X63457297Y-31455845D01*
X63482983Y-31462400D01*
X63487517Y-31464091D01*
X63532001Y-31468873D01*
X63547116Y-31470499D01*
X63547118Y-31470499D01*
X63547127Y-31470500D01*
X63550350Y-31470499D01*
X63567998Y-31471760D01*
X63594000Y-31475500D01*
X63594001Y-31475500D01*
X68145991Y-31475500D01*
X68146000Y-31475500D01*
X68185901Y-31471209D01*
X68199157Y-31470499D01*
X68342871Y-31470499D01*
X68342872Y-31470499D01*
X68402483Y-31464091D01*
X68537331Y-31413796D01*
X68652546Y-31327546D01*
X68738796Y-31212331D01*
X68789091Y-31077483D01*
X68795500Y-31017873D01*
X68795499Y-27112128D01*
X68789091Y-27052517D01*
X68748039Y-26942452D01*
X68738797Y-26917671D01*
X68738793Y-26917664D01*
X68652547Y-26802455D01*
X68652544Y-26802452D01*
X68537335Y-26716206D01*
X68537328Y-26716202D01*
X68402482Y-26665908D01*
X68402483Y-26665908D01*
X68342883Y-26659501D01*
X68342881Y-26659500D01*
X68342873Y-26659500D01*
X68342865Y-26659500D01*
X68293974Y-26659500D01*
X68276327Y-26658238D01*
X68146000Y-26639500D01*
X63594000Y-26639500D01*
X63593991Y-26639500D01*
X63593990Y-26639501D01*
X63486549Y-26651052D01*
X63486537Y-26651054D01*
X63435027Y-26662260D01*
X63332502Y-26696383D01*
X63332496Y-26696386D01*
X63257141Y-26744815D01*
X63190101Y-26764500D01*
X60847514Y-26764500D01*
X60713797Y-26782510D01*
X60713786Y-26782512D01*
X60650504Y-26799873D01*
X60526299Y-26852626D01*
X60526296Y-26852628D01*
X60524246Y-26854281D01*
X60521960Y-26855227D01*
X60518930Y-26857044D01*
X60518660Y-26856594D01*
X60459694Y-26881018D01*
X60394930Y-26870522D01*
X60305465Y-26829664D01*
X60305460Y-26829662D01*
X60305459Y-26829662D01*
X60238420Y-26809977D01*
X60238422Y-26809977D01*
X60238417Y-26809976D01*
X60186098Y-26802454D01*
X60096000Y-26789500D01*
X48419000Y-26789500D01*
X48418997Y-26789500D01*
X48332582Y-26798790D01*
X48319330Y-26799500D01*
X48252131Y-26799500D01*
X48252122Y-26799501D01*
X48192516Y-26805908D01*
X48057671Y-26856202D01*
X48057664Y-26856206D01*
X47942455Y-26942452D01*
X47942452Y-26942455D01*
X47856206Y-27057664D01*
X47856202Y-27057671D01*
X47805908Y-27192517D01*
X47799501Y-27252116D01*
X47799500Y-27252135D01*
X47799500Y-27340577D01*
X47798238Y-27358223D01*
X47789500Y-27418998D01*
X47789500Y-28040500D01*
X47769815Y-28107539D01*
X47717011Y-28153294D01*
X47665500Y-28164500D01*
X44194000Y-28164500D01*
X44193991Y-28164500D01*
X44193990Y-28164501D01*
X44086549Y-28176052D01*
X44086537Y-28176054D01*
X44035027Y-28187260D01*
X43932499Y-28221385D01*
X43932496Y-28221387D01*
X43903822Y-28239815D01*
X43903820Y-28239816D01*
X43836781Y-28259500D01*
X40202129Y-28259500D01*
X40202123Y-28259501D01*
X40142516Y-28265908D01*
X40007671Y-28316202D01*
X40007664Y-28316206D01*
X39892455Y-28402452D01*
X39892452Y-28402455D01*
X39806206Y-28517664D01*
X39806202Y-28517671D01*
X39755908Y-28652517D01*
X39749501Y-28712116D01*
X39749501Y-28712123D01*
X39749500Y-28712135D01*
X39749500Y-28850354D01*
X39748238Y-28867999D01*
X39744500Y-28893996D01*
X39744500Y-33336004D01*
X39748790Y-33375909D01*
X39749500Y-33389161D01*
X39749500Y-33507869D01*
X39749501Y-33507876D01*
X39755908Y-33567483D01*
X39806202Y-33702328D01*
X39806206Y-33702335D01*
X39892452Y-33817544D01*
X39892455Y-33817547D01*
X40007664Y-33903793D01*
X40007671Y-33903797D01*
X40051551Y-33920163D01*
X40142517Y-33954091D01*
X40202127Y-33960500D01*
X40330354Y-33960499D01*
X40348004Y-33961761D01*
X40373998Y-33965499D01*
X40373999Y-33965500D01*
X40374000Y-33965500D01*
X42460500Y-33965500D01*
X42527539Y-33985185D01*
X42573294Y-34037989D01*
X42584500Y-34089500D01*
X42584500Y-34586000D01*
X42584501Y-34586009D01*
X42596052Y-34693450D01*
X42596054Y-34693462D01*
X42607260Y-34744972D01*
X42641383Y-34847497D01*
X42641386Y-34847503D01*
X42641387Y-34847504D01*
X42719175Y-34968543D01*
X42738477Y-34990819D01*
X42760511Y-35016248D01*
X42789535Y-35079804D01*
X42786573Y-35129539D01*
X42779499Y-35155941D01*
X42779499Y-35230500D01*
X42759814Y-35297539D01*
X42707010Y-35343294D01*
X42655499Y-35354500D01*
X42554000Y-35354500D01*
X42553991Y-35354500D01*
X42553990Y-35354501D01*
X42446549Y-35366052D01*
X42446537Y-35366054D01*
X42395033Y-35377259D01*
X42330957Y-35398585D01*
X42261132Y-35401078D01*
X42201043Y-35365425D01*
X42198089Y-35362136D01*
X42195075Y-35358658D01*
X42195072Y-35358655D01*
X42195070Y-35358653D01*
X42086336Y-35264433D01*
X42086333Y-35264431D01*
X42086331Y-35264430D01*
X41955465Y-35204664D01*
X41955460Y-35204662D01*
X41955459Y-35204662D01*
X41888420Y-35184977D01*
X41888422Y-35184977D01*
X41888417Y-35184976D01*
X41826347Y-35176052D01*
X41746000Y-35164500D01*
X40894000Y-35164500D01*
X40893991Y-35164500D01*
X40893990Y-35164501D01*
X40786549Y-35176052D01*
X40786537Y-35176054D01*
X40735027Y-35187260D01*
X40632502Y-35221383D01*
X40632496Y-35221386D01*
X40511462Y-35299171D01*
X40511451Y-35299179D01*
X40458659Y-35344923D01*
X40364433Y-35453664D01*
X40364430Y-35453668D01*
X40304664Y-35584534D01*
X40284976Y-35651582D01*
X40264500Y-35794001D01*
X40264500Y-39540500D01*
X40244815Y-39607539D01*
X40192011Y-39653294D01*
X40140500Y-39664500D01*
X39494500Y-39664500D01*
X39427461Y-39644815D01*
X39381706Y-39592011D01*
X39370500Y-39540500D01*
X39370500Y-39000472D01*
X39345502Y-38874805D01*
X39345501Y-38874804D01*
X39345501Y-38874800D01*
X39296465Y-38756417D01*
X39269037Y-38715368D01*
X39269037Y-38715367D01*
X39225277Y-38649875D01*
X39225271Y-38649868D01*
X37190129Y-36614726D01*
X37190125Y-36614723D01*
X37083583Y-36543535D01*
X36965200Y-36494499D01*
X36965194Y-36494497D01*
X36839527Y-36469500D01*
X36839525Y-36469500D01*
X31370808Y-36469500D01*
X31303769Y-36449815D01*
X31283127Y-36433181D01*
X28958170Y-34108224D01*
X28924685Y-34046901D01*
X28929669Y-33977209D01*
X28971541Y-33921276D01*
X29037005Y-33896859D01*
X29089184Y-33904361D01*
X29222517Y-33954091D01*
X29222516Y-33954091D01*
X29229444Y-33954835D01*
X29282127Y-33960500D01*
X33697872Y-33960499D01*
X33757483Y-33954091D01*
X33892331Y-33903796D01*
X34007546Y-33817546D01*
X34093796Y-33702331D01*
X34144091Y-33567483D01*
X34150500Y-33507873D01*
X34150499Y-28712128D01*
X34144091Y-28652517D01*
X34122431Y-28594444D01*
X34093797Y-28517671D01*
X34093793Y-28517664D01*
X34007547Y-28402455D01*
X34007544Y-28402452D01*
X33892335Y-28316206D01*
X33892328Y-28316202D01*
X33757482Y-28265908D01*
X33757483Y-28265908D01*
X33697883Y-28259501D01*
X33697881Y-28259500D01*
X33697873Y-28259500D01*
X33697865Y-28259500D01*
X31599500Y-28259500D01*
X31532461Y-28239815D01*
X31486706Y-28187011D01*
X31475500Y-28135500D01*
X31475500Y-13844010D01*
X31475500Y-13844000D01*
X31463947Y-13736544D01*
X31452741Y-13685033D01*
X31452637Y-13684722D01*
X31418616Y-13582502D01*
X31418613Y-13582496D01*
X31340828Y-13461462D01*
X31340825Y-13461457D01*
X31304315Y-13419322D01*
X31295076Y-13408659D01*
X31295072Y-13408656D01*
X31295070Y-13408653D01*
X31186336Y-13314433D01*
X31186333Y-13314431D01*
X31186331Y-13314430D01*
X31055465Y-13254664D01*
X31055460Y-13254662D01*
X31055459Y-13254662D01*
X30988420Y-13234977D01*
X30988422Y-13234977D01*
X30988417Y-13234976D01*
X30940944Y-13228150D01*
X30846000Y-13214500D01*
X30845998Y-13214500D01*
X26232783Y-13214500D01*
X26165744Y-13194815D01*
X26122060Y-13146325D01*
X26046258Y-12995981D01*
X26046247Y-12995961D01*
X25797668Y-12592242D01*
X25515744Y-12211056D01*
X25202510Y-11855153D01*
X24860220Y-11527095D01*
X24860211Y-11527086D01*
X24860209Y-11527085D01*
X24491345Y-11229248D01*
X24491344Y-11229247D01*
X24098546Y-10963763D01*
X24098536Y-10963756D01*
X24087662Y-10957681D01*
X23684637Y-10732537D01*
X23684615Y-10732526D01*
X23252608Y-10537247D01*
X22805566Y-10379297D01*
X22346754Y-10259832D01*
X21879472Y-10179708D01*
X21879446Y-10179705D01*
X21407075Y-10139500D01*
X21407057Y-10139500D01*
X20932943Y-10139500D01*
X20932924Y-10139500D01*
X20460553Y-10179705D01*
X20460527Y-10179708D01*
X19993245Y-10259832D01*
X19534433Y-10379297D01*
X19087391Y-10537247D01*
X18655384Y-10732526D01*
X18655362Y-10732537D01*
X18241472Y-10963751D01*
X18241453Y-10963763D01*
X17848655Y-11229247D01*
X17848654Y-11229248D01*
X17479790Y-11527085D01*
X17479788Y-11527086D01*
X17137489Y-11855153D01*
X16824262Y-12211048D01*
X16542331Y-12592243D01*
X16293752Y-12995961D01*
X16293741Y-12995981D01*
X16080302Y-13419311D01*
X16080298Y-13419322D01*
X15903529Y-13859229D01*
X15903527Y-13859234D01*
X15764698Y-14312559D01*
X15764696Y-14312567D01*
X15664810Y-14776038D01*
X15604587Y-15246326D01*
X15584467Y-15719993D01*
X15584467Y-15720006D01*
X1005500Y-15720006D01*
X1005500Y-3921288D01*
X2819500Y-3921288D01*
X2851161Y-4161785D01*
X2913947Y-4396104D01*
X3006773Y-4620205D01*
X3006776Y-4620212D01*
X3128064Y-4830289D01*
X3128066Y-4830292D01*
X3128067Y-4830293D01*
X3275733Y-5022736D01*
X3275739Y-5022743D01*
X3447256Y-5194260D01*
X3447262Y-5194265D01*
X3639711Y-5341936D01*
X3849788Y-5463224D01*
X4073900Y-5556054D01*
X4308211Y-5618838D01*
X4488586Y-5642584D01*
X4548711Y-5650500D01*
X4548712Y-5650500D01*
X4791289Y-5650500D01*
X4839388Y-5644167D01*
X5031789Y-5618838D01*
X5266100Y-5556054D01*
X5490212Y-5463224D01*
X5700289Y-5341936D01*
X5892738Y-5194265D01*
X6064265Y-5022738D01*
X6211936Y-4830289D01*
X6333224Y-4620212D01*
X6426054Y-4396100D01*
X6488838Y-4161789D01*
X6520500Y-3921288D01*
X82819500Y-3921288D01*
X82851161Y-4161785D01*
X82913947Y-4396104D01*
X83006773Y-4620205D01*
X83006776Y-4620212D01*
X83128064Y-4830289D01*
X83128066Y-4830292D01*
X83128067Y-4830293D01*
X83275733Y-5022736D01*
X83275739Y-5022743D01*
X83447256Y-5194260D01*
X83447262Y-5194265D01*
X83639711Y-5341936D01*
X83849788Y-5463224D01*
X84073900Y-5556054D01*
X84308211Y-5618838D01*
X84488586Y-5642584D01*
X84548711Y-5650500D01*
X84548712Y-5650500D01*
X84791289Y-5650500D01*
X84839388Y-5644167D01*
X85031789Y-5618838D01*
X85266100Y-5556054D01*
X85490212Y-5463224D01*
X85700289Y-5341936D01*
X85892738Y-5194265D01*
X86064265Y-5022738D01*
X86211936Y-4830289D01*
X86333224Y-4620212D01*
X86426054Y-4396100D01*
X86488838Y-4161789D01*
X86520500Y-3921288D01*
X86520500Y-3678712D01*
X86488838Y-3438211D01*
X86426054Y-3203900D01*
X86333224Y-2979788D01*
X86211936Y-2769711D01*
X86064265Y-2577262D01*
X86064260Y-2577256D01*
X85892743Y-2405739D01*
X85892736Y-2405733D01*
X85700293Y-2258067D01*
X85700292Y-2258066D01*
X85700289Y-2258064D01*
X85490212Y-2136776D01*
X85490205Y-2136773D01*
X85266104Y-2043947D01*
X85031785Y-1981161D01*
X84791289Y-1949500D01*
X84791288Y-1949500D01*
X84548712Y-1949500D01*
X84548711Y-1949500D01*
X84308214Y-1981161D01*
X84073895Y-2043947D01*
X83849794Y-2136773D01*
X83849785Y-2136777D01*
X83639706Y-2258067D01*
X83447263Y-2405733D01*
X83447256Y-2405739D01*
X83275739Y-2577256D01*
X83275733Y-2577263D01*
X83128067Y-2769706D01*
X83006777Y-2979785D01*
X83006773Y-2979794D01*
X82913947Y-3203895D01*
X82851161Y-3438214D01*
X82819500Y-3678711D01*
X82819500Y-3921288D01*
X6520500Y-3921288D01*
X6520500Y-3678712D01*
X6488838Y-3438211D01*
X6426054Y-3203900D01*
X6333224Y-2979788D01*
X6211936Y-2769711D01*
X6064265Y-2577262D01*
X6064260Y-2577256D01*
X5892743Y-2405739D01*
X5892736Y-2405733D01*
X5700293Y-2258067D01*
X5700292Y-2258066D01*
X5700289Y-2258064D01*
X5490212Y-2136776D01*
X5490205Y-2136773D01*
X5266104Y-2043947D01*
X5031785Y-1981161D01*
X4791289Y-1949500D01*
X4791288Y-1949500D01*
X4548712Y-1949500D01*
X4548711Y-1949500D01*
X4308214Y-1981161D01*
X4073895Y-2043947D01*
X3849794Y-2136773D01*
X3849785Y-2136777D01*
X3639706Y-2258067D01*
X3447263Y-2405733D01*
X3447256Y-2405739D01*
X3275739Y-2577256D01*
X3275733Y-2577263D01*
X3128067Y-2769706D01*
X3006777Y-2979785D01*
X3006773Y-2979794D01*
X2913947Y-3203895D01*
X2851161Y-3438214D01*
X2819500Y-3678711D01*
X2819500Y-3921288D01*
X1005500Y-3921288D01*
X1005500Y-1124500D01*
X1025185Y-1057461D01*
X1077989Y-1011706D01*
X1129500Y-1000500D01*
X87880500Y-1000500D01*
X87947539Y-1020185D01*
G37*
%TD.AperFunction*%
%TD*%
%TA.AperFunction,Conductor*%
%TO.N,+5V*%
G36*
X41813039Y-35689685D02*
G01*
X41858794Y-35742489D01*
X41870000Y-35794000D01*
X41870000Y-41470000D01*
X40770000Y-41470000D01*
X40770000Y-35794000D01*
X40789685Y-35726961D01*
X40842489Y-35681206D01*
X40894000Y-35670000D01*
X41746000Y-35670000D01*
X41813039Y-35689685D01*
G37*
%TD.AperFunction*%
%TD*%
%TA.AperFunction,Conductor*%
%TO.N,+12V*%
G36*
X30970000Y-33246000D02*
G01*
X30950315Y-33313039D01*
X30897511Y-33358794D01*
X30846000Y-33370000D01*
X27847044Y-33370000D01*
X27780005Y-33350315D01*
X27759363Y-33333681D01*
X27225213Y-32799531D01*
X27225208Y-32799527D01*
X27145290Y-32753387D01*
X27145289Y-32753386D01*
X27145288Y-32753386D01*
X27056144Y-32729500D01*
X25438856Y-32729500D01*
X25349712Y-32753386D01*
X25349711Y-32753386D01*
X25349709Y-32753387D01*
X25349706Y-32753388D01*
X25269794Y-32799526D01*
X25269785Y-32799533D01*
X24735637Y-33333681D01*
X24674314Y-33367166D01*
X24647956Y-33370000D01*
X18970000Y-33370000D01*
X18970000Y-28526797D01*
X19022497Y-28481242D01*
X19074089Y-28470000D01*
X28440000Y-28470000D01*
X30970000Y-28470000D01*
X30970000Y-33246000D01*
G37*
%TD.AperFunction*%
%TD*%
%TA.AperFunction,Conductor*%
%TO.N,+5V*%
G36*
X41870000Y-41946000D02*
G01*
X41850315Y-42013039D01*
X41797511Y-42058794D01*
X41746000Y-42070000D01*
X38420000Y-42070000D01*
X38420000Y-40170000D01*
X40770000Y-40170000D01*
X41870000Y-40170000D01*
X41870000Y-41946000D01*
G37*
%TD.AperFunction*%
%TD*%
%TA.AperFunction,Conductor*%
%TO.N,+12V*%
G36*
X30913039Y-13739685D02*
G01*
X30958794Y-13792489D01*
X30970000Y-13844000D01*
X30970000Y-19870000D01*
X20744000Y-19870000D01*
X20676961Y-19850315D01*
X20631206Y-19797511D01*
X20620000Y-19746000D01*
X20620000Y-13844000D01*
X20639685Y-13776961D01*
X20692489Y-13731206D01*
X20744000Y-13720000D01*
X30846000Y-13720000D01*
X30913039Y-13739685D01*
G37*
%TD.AperFunction*%
%TD*%
%TA.AperFunction,Conductor*%
%TO.N,+12V*%
G36*
X23630000Y-40970000D02*
G01*
X23420000Y-40970000D01*
X23420000Y-42490000D01*
X19083912Y-42490000D01*
X19016873Y-42470315D01*
X18971118Y-42417511D01*
X18959912Y-42366088D01*
X18950089Y-28594088D01*
X18969726Y-28527035D01*
X19022497Y-28481242D01*
X19074089Y-28470000D01*
X23630000Y-28470000D01*
X23630000Y-40970000D01*
G37*
%TD.AperFunction*%
%TD*%
%TA.AperFunction,Conductor*%
%TO.N,+5V*%
G36*
X37476747Y-40179297D02*
G01*
X37477590Y-40176703D01*
X37486872Y-40179718D01*
X37486874Y-40179719D01*
X37496263Y-40181206D01*
X37586507Y-40195500D01*
X37586512Y-40195500D01*
X38153493Y-40195500D01*
X38224658Y-40184227D01*
X38253126Y-40179719D01*
X38253129Y-40179717D01*
X38262410Y-40176703D01*
X38263252Y-40179297D01*
X38301971Y-40170000D01*
X38420000Y-40170000D01*
X38420000Y-42070000D01*
X38420000Y-42796000D01*
X38400315Y-42863039D01*
X38347511Y-42908794D01*
X38296000Y-42920000D01*
X29570000Y-42920000D01*
X29570000Y-40294000D01*
X29589685Y-40226961D01*
X29642489Y-40181206D01*
X29694000Y-40170000D01*
X37438029Y-40170000D01*
X37476747Y-40179297D01*
G37*
%TD.AperFunction*%
%TD*%
%TA.AperFunction,Conductor*%
%TO.N,+12V*%
G36*
X25413039Y-40989685D02*
G01*
X25458794Y-41042489D01*
X25470000Y-41094000D01*
X25470000Y-42396000D01*
X25450315Y-42463039D01*
X25397511Y-42508794D01*
X25346000Y-42520000D01*
X23501362Y-42520000D01*
X23434323Y-42500315D01*
X23421523Y-42490000D01*
X23420000Y-42490000D01*
X23420000Y-40970000D01*
X23630000Y-40970000D01*
X25346000Y-40970000D01*
X25413039Y-40989685D01*
G37*
%TD.AperFunction*%
%TD*%
%TA.AperFunction,Conductor*%
%TO.N,/D*%
G36*
X49020000Y-30570000D02*
G01*
X44070000Y-30570000D01*
X44070000Y-28770000D01*
X44079976Y-28760023D01*
X44089685Y-28726961D01*
X44142489Y-28681206D01*
X44194000Y-28670000D01*
X48295000Y-28670000D01*
X49020000Y-28670000D01*
X49020000Y-30570000D01*
G37*
%TD.AperFunction*%
%TD*%
%TA.AperFunction,Conductor*%
%TO.N,Net-(C12-Pad1)*%
G36*
X68295000Y-43470000D02*
G01*
X70582319Y-45757319D01*
X70615804Y-45818642D01*
X70610820Y-45888334D01*
X70582319Y-45932681D01*
X68057681Y-48457319D01*
X67996358Y-48490804D01*
X67926666Y-48485820D01*
X67882319Y-48457319D01*
X64706319Y-45281319D01*
X64680594Y-45234207D01*
X67345000Y-42520000D01*
X68295000Y-43470000D01*
G37*
%TD.AperFunction*%
%TD*%
%TA.AperFunction,Conductor*%
%TO.N,Net-(C12-Pad1)*%
G36*
X68238039Y-37589685D02*
G01*
X68270000Y-37626569D01*
X68270000Y-41605000D01*
X61869000Y-41605000D01*
X61801961Y-41585315D01*
X61756206Y-41532511D01*
X61745000Y-41481000D01*
X61745000Y-37694000D01*
X61764685Y-37626961D01*
X61817489Y-37581206D01*
X61869000Y-37570000D01*
X68171000Y-37570000D01*
X68238039Y-37589685D01*
G37*
%TD.AperFunction*%
%TD*%
%TA.AperFunction,Conductor*%
%TO.N,/D*%
G36*
X49315000Y-30255000D02*
G01*
X49315000Y-30595000D01*
X49315000Y-33710704D01*
X49295315Y-33777743D01*
X49242511Y-33823498D01*
X49190705Y-33834704D01*
X45395934Y-33825668D01*
X45328941Y-33805824D01*
X45294180Y-33772109D01*
X45245836Y-33702071D01*
X45156772Y-33623167D01*
X45119646Y-33563979D01*
X45115000Y-33530353D01*
X45115000Y-33460000D01*
X45115000Y-30245000D01*
X49315000Y-30255000D01*
G37*
%TD.AperFunction*%
%TD*%
%TA.AperFunction,Conductor*%
%TO.N,Net-(C5-Pad1)*%
G36*
X58583039Y-36159685D02*
G01*
X58628794Y-36212489D01*
X58640000Y-36264000D01*
X58640000Y-39316000D01*
X58620315Y-39383039D01*
X58567511Y-39428794D01*
X58516000Y-39440000D01*
X48310000Y-39440000D01*
X48310000Y-39418119D01*
X48302834Y-39404996D01*
X48300000Y-39378638D01*
X48300000Y-36264000D01*
X48319685Y-36196961D01*
X48372489Y-36151206D01*
X48424000Y-36140000D01*
X58516000Y-36140000D01*
X58583039Y-36159685D01*
G37*
%TD.AperFunction*%
%TD*%
%TA.AperFunction,Conductor*%
%TO.N,/D*%
G36*
X60163039Y-27314685D02*
G01*
X60208794Y-27367489D01*
X60220000Y-27419000D01*
X60220000Y-30471000D01*
X60200315Y-30538039D01*
X60147511Y-30583794D01*
X60096000Y-30595000D01*
X48295000Y-30595000D01*
X48295000Y-27419000D01*
X48314685Y-27351961D01*
X48367489Y-27306206D01*
X48419000Y-27295000D01*
X60096000Y-27295000D01*
X60163039Y-27314685D01*
G37*
%TD.AperFunction*%
%TD*%
%TA.AperFunction,Conductor*%
%TO.N,/G*%
G36*
X44253039Y-35879685D02*
G01*
X44298794Y-35932489D01*
X44310000Y-35984000D01*
X44310000Y-42616000D01*
X44290315Y-42683039D01*
X44237511Y-42728794D01*
X44186000Y-42740000D01*
X42554000Y-42740000D01*
X42486961Y-42720315D01*
X42441206Y-42667511D01*
X42430000Y-42616000D01*
X42430000Y-35984000D01*
X42449685Y-35916961D01*
X42502489Y-35871206D01*
X42554000Y-35860000D01*
X44186000Y-35860000D01*
X44253039Y-35879685D01*
G37*
%TD.AperFunction*%
%TD*%
%TA.AperFunction,Conductor*%
%TO.N,/D*%
G36*
X45150000Y-33460000D02*
G01*
X43650000Y-33460000D01*
X43650000Y-33390000D01*
X43090000Y-33390000D01*
X43090000Y-33460000D01*
X40374000Y-33460000D01*
X40306961Y-33440315D01*
X40261206Y-33387511D01*
X40250000Y-33336000D01*
X40250000Y-28894000D01*
X40269685Y-28826961D01*
X40322489Y-28781206D01*
X40374000Y-28770000D01*
X44070000Y-28770000D01*
X45150000Y-28770000D01*
X45150000Y-33460000D01*
G37*
%TD.AperFunction*%
%TD*%
%TA.AperFunction,Conductor*%
%TO.N,Net-(C12-Pad1)*%
G36*
X68283794Y-37642489D02*
G01*
X68295000Y-37694000D01*
X68295000Y-43470000D01*
X67345000Y-42520000D01*
X64680594Y-45234207D01*
X64672834Y-45219996D01*
X64670000Y-45193638D01*
X64670000Y-41605000D01*
X64670000Y-37595000D01*
X68242644Y-37595000D01*
X68283794Y-37642489D01*
G37*
%TD.AperFunction*%
%TD*%
%TA.AperFunction,Conductor*%
%TO.N,Net-(J2-In)*%
G36*
X60013334Y-49954180D02*
G01*
X60057681Y-49982681D01*
X63207319Y-53132319D01*
X63240804Y-53193642D01*
X63235820Y-53263334D01*
X63207319Y-53307681D01*
X60682681Y-55832319D01*
X60621358Y-55865804D01*
X60551666Y-55860820D01*
X60507319Y-55832319D01*
X57357681Y-52682681D01*
X57324196Y-52621358D01*
X57329180Y-52551666D01*
X57357681Y-52507319D01*
X59882319Y-49982681D01*
X59943642Y-49949196D01*
X60013334Y-49954180D01*
G37*
%TD.AperFunction*%
%TD*%
%TA.AperFunction,Conductor*%
%TO.N,Net-(C13-Pad2)*%
G36*
X68213039Y-27164685D02*
G01*
X68258794Y-27217489D01*
X68270000Y-27269000D01*
X68270000Y-30846000D01*
X68250315Y-30913039D01*
X68197511Y-30958794D01*
X68146000Y-30970000D01*
X63594000Y-30970000D01*
X63526961Y-30950315D01*
X63481206Y-30897511D01*
X63470000Y-30846000D01*
X63470000Y-30570000D01*
X63470000Y-27269000D01*
X63489685Y-27201961D01*
X63542489Y-27156206D01*
X63594000Y-27145000D01*
X68146000Y-27145000D01*
X68213039Y-27164685D01*
G37*
%TD.AperFunction*%
%TD*%
%TA.AperFunction,Conductor*%
%TO.N,Net-(C13-Pad2)*%
G36*
X67045000Y-30570000D02*
G01*
X60849500Y-30570000D01*
X60782461Y-30550315D01*
X60736706Y-30497511D01*
X60725500Y-30446000D01*
X60725500Y-27419010D01*
X60725500Y-27419000D01*
X60724237Y-27407255D01*
X60736641Y-27338498D01*
X60784251Y-27287359D01*
X60847526Y-27270000D01*
X63470000Y-27270000D01*
X67045000Y-27270000D01*
X67045000Y-30570000D01*
G37*
%TD.AperFunction*%
%TD*%
%TA.AperFunction,Conductor*%
%TO.N,Net-(C5-Pad1)*%
G36*
X52920000Y-39440000D02*
G01*
X52920000Y-41426000D01*
X52900315Y-41493039D01*
X52847511Y-41538794D01*
X52796000Y-41550000D01*
X48434000Y-41550000D01*
X48366961Y-41530315D01*
X48321206Y-41477511D01*
X48310000Y-41426000D01*
X48310000Y-39418119D01*
X48310000Y-38980000D01*
X52920000Y-38980000D01*
X52920000Y-39440000D01*
G37*
%TD.AperFunction*%
%TD*%
%TA.AperFunction,Conductor*%
%TO.N,/D*%
G36*
X43650000Y-33460000D02*
G01*
X43650000Y-34586000D01*
X43630315Y-34653039D01*
X43577511Y-34698794D01*
X43526000Y-34710000D01*
X43214000Y-34710000D01*
X43146961Y-34690315D01*
X43101206Y-34637511D01*
X43090000Y-34586000D01*
X43090000Y-33460000D01*
X43090000Y-33390000D01*
X43650000Y-33390000D01*
X43650000Y-33460000D01*
G37*
%TD.AperFunction*%
%TD*%
%TA.AperFunction,Conductor*%
%TO.N,Net-(U1-SW)*%
G36*
X26726301Y-41180868D02*
G01*
X26729859Y-41184426D01*
X26887888Y-41431695D01*
X26889693Y-41438911D01*
X26870846Y-41679215D01*
X26866783Y-41687195D01*
X26859182Y-41690000D01*
X26580818Y-41690000D01*
X26572545Y-41686573D01*
X26569154Y-41679215D01*
X26550306Y-41438908D01*
X26552110Y-41431698D01*
X26710141Y-41184425D01*
X26717484Y-41179301D01*
X26726301Y-41180868D01*
G37*
%TD.AperFunction*%
%TD*%
M02*
