%TF.GenerationSoftware,KiCad,Pcbnew,8.0.0*%
%TF.CreationDate,2024-04-09T17:38:52-07:00*%
%TF.ProjectId,phi2_50MHz_EPC2214,70686932-5f35-4304-9d48-7a5f45504332,rev?*%
%TF.SameCoordinates,Original*%
%TF.FileFunction,Paste,Top*%
%TF.FilePolarity,Positive*%
%FSLAX46Y46*%
G04 Gerber Fmt 4.6, Leading zero omitted, Abs format (unit mm)*
G04 Created by KiCad (PCBNEW 8.0.0) date 2024-04-09 17:38:52*
%MOMM*%
%LPD*%
G01*
G04 APERTURE LIST*
G04 Aperture macros list*
%AMRoundRect*
0 Rectangle with rounded corners*
0 $1 Rounding radius*
0 $2 $3 $4 $5 $6 $7 $8 $9 X,Y pos of 4 corners*
0 Add a 4 corners polygon primitive as box body*
4,1,4,$2,$3,$4,$5,$6,$7,$8,$9,$2,$3,0*
0 Add four circle primitives for the rounded corners*
1,1,$1+$1,$2,$3*
1,1,$1+$1,$4,$5*
1,1,$1+$1,$6,$7*
1,1,$1+$1,$8,$9*
0 Add four rect primitives between the rounded corners*
20,1,$1+$1,$2,$3,$4,$5,0*
20,1,$1+$1,$4,$5,$6,$7,0*
20,1,$1+$1,$6,$7,$8,$9,0*
20,1,$1+$1,$8,$9,$2,$3,0*%
%AMRotRect*
0 Rectangle, with rotation*
0 The origin of the aperture is its center*
0 $1 length*
0 $2 width*
0 $3 Rotation angle, in degrees counterclockwise*
0 Add horizontal line*
21,1,$1,$2,0,0,$3*%
%AMFreePoly0*
4,1,25,-1.500000,1.420000,-1.360000,1.280000,-1.205000,1.155000,-1.035000,1.045000,-0.860000,0.950000,-0.675001,0.875000,-0.480000,0.820000,-0.280000,0.780000,-0.085000,0.765000,0.085000,0.765000,0.280000,0.780000,0.480000,0.820000,0.675001,0.875000,0.860000,0.950000,1.035000,1.045000,1.205000,1.155000,1.360000,1.280000,1.500000,1.420000,1.645000,1.595000,3.555000,1.595000,
3.555000,-0.755000,-3.555000,-0.755000,-3.555000,1.595000,-1.645000,1.595000,-1.500000,1.420000,-1.500000,1.420000,$1*%
G04 Aperture macros list end*
%ADD10FreePoly0,135.000000*%
%ADD11FreePoly0,315.000000*%
%ADD12C,1.730000*%
%ADD13R,4.320000X4.700000*%
%ADD14RoundRect,0.250000X-0.325000X-0.650000X0.325000X-0.650000X0.325000X0.650000X-0.325000X0.650000X0*%
%ADD15RoundRect,0.150000X0.150000X0.200000X-0.150000X0.200000X-0.150000X-0.200000X0.150000X-0.200000X0*%
%ADD16RoundRect,0.150000X0.150000X-0.512500X0.150000X0.512500X-0.150000X0.512500X-0.150000X-0.512500X0*%
%ADD17R,10.340000X3.300000*%
%ADD18FreePoly0,90.000000*%
%ADD19FreePoly0,270.000000*%
%ADD20RoundRect,0.225000X-0.250000X0.225000X-0.250000X-0.225000X0.250000X-0.225000X0.250000X0.225000X0*%
%ADD21R,4.700000X3.810000*%
%ADD22RoundRect,0.140000X0.170000X-0.140000X0.170000X0.140000X-0.170000X0.140000X-0.170000X-0.140000X0*%
%ADD23RoundRect,0.250000X0.650000X-0.325000X0.650000X0.325000X-0.650000X0.325000X-0.650000X-0.325000X0*%
%ADD24RoundRect,0.200000X-0.275000X0.200000X-0.275000X-0.200000X0.275000X-0.200000X0.275000X0.200000X0*%
%ADD25RoundRect,0.225000X0.225000X0.250000X-0.225000X0.250000X-0.225000X-0.250000X0.225000X-0.250000X0*%
%ADD26R,0.300000X0.660000*%
%ADD27RoundRect,0.250000X-0.475000X0.250000X-0.475000X-0.250000X0.475000X-0.250000X0.475000X0.250000X0*%
%ADD28C,0.225000*%
%ADD29RoundRect,0.140000X-0.170000X0.140000X-0.170000X-0.140000X0.170000X-0.140000X0.170000X0.140000X0*%
%ADD30RoundRect,0.085000X0.085000X-0.265000X0.085000X0.265000X-0.085000X0.265000X-0.085000X-0.265000X0*%
%ADD31RoundRect,0.200000X0.200000X0.275000X-0.200000X0.275000X-0.200000X-0.275000X0.200000X-0.275000X0*%
%ADD32RoundRect,0.225000X-0.225000X-0.250000X0.225000X-0.250000X0.225000X0.250000X-0.225000X0.250000X0*%
%ADD33R,1.500000X4.200000*%
%ADD34RoundRect,0.200000X-0.200000X-0.275000X0.200000X-0.275000X0.200000X0.275000X-0.200000X0.275000X0*%
%ADD35RoundRect,0.250000X-1.500000X-0.550000X1.500000X-0.550000X1.500000X0.550000X-1.500000X0.550000X0*%
%ADD36RoundRect,0.135000X0.185000X-0.135000X0.185000X0.135000X-0.185000X0.135000X-0.185000X-0.135000X0*%
%ADD37RoundRect,0.225000X0.250000X-0.225000X0.250000X0.225000X-0.250000X0.225000X-0.250000X-0.225000X0*%
%ADD38RotRect,3.810000X4.700000X225.000000*%
G04 APERTURE END LIST*
D10*
%TO.C,RF_OUT*%
X57249899Y-46115101D03*
D11*
X53290101Y-50074899D03*
D12*
X55270000Y-48095000D03*
%TD*%
D13*
%TO.C,L1*%
X42410000Y-31110000D03*
X31490000Y-31110000D03*
%TD*%
D14*
%TO.C,C4*%
X33295000Y-26370000D03*
X30345000Y-26370000D03*
%TD*%
D15*
%TO.C,D8*%
X45412500Y-40640000D03*
X44012500Y-40640000D03*
%TD*%
D14*
%TO.C,C2*%
X33295000Y-21570000D03*
X30345000Y-21570000D03*
%TD*%
D16*
%TO.C,U4*%
X41720000Y-55457500D03*
X42670000Y-55457500D03*
X43620000Y-55457500D03*
X43620000Y-57732500D03*
X42670000Y-57732500D03*
X41720000Y-57732500D03*
%TD*%
D17*
%TO.C,L2*%
X53470000Y-37790000D03*
X53470000Y-28950000D03*
%TD*%
D18*
%TO.C,RF_IN*%
X46470000Y-64320000D03*
D19*
X40870000Y-64320000D03*
D12*
X43670000Y-64320000D03*
%TD*%
D20*
%TO.C,C19*%
X46930000Y-33235000D03*
X46930000Y-34785000D03*
%TD*%
D21*
%TO.C,L3*%
X65945000Y-39475000D03*
X65945000Y-29065000D03*
%TD*%
D22*
%TO.C,C9*%
X44970000Y-52765000D03*
X44970000Y-53725000D03*
%TD*%
D23*
%TO.C,C28*%
X30970000Y-38045000D03*
X30970000Y-40995000D03*
%TD*%
D20*
%TO.C,C20*%
X48340000Y-33235000D03*
X48340000Y-34785000D03*
%TD*%
D24*
%TO.C,R7*%
X24570000Y-39145000D03*
X24570000Y-37495000D03*
%TD*%
D25*
%TO.C,C12*%
X60695000Y-38020000D03*
X62245000Y-38020000D03*
%TD*%
D23*
%TO.C,C26*%
X35870000Y-38045000D03*
X35870000Y-40995000D03*
%TD*%
D25*
%TO.C,C21*%
X60695000Y-39570000D03*
X62245000Y-39570000D03*
%TD*%
D26*
%TO.C,U3*%
X42665000Y-51775000D03*
X43315000Y-51775000D03*
X43965000Y-51775000D03*
X43965000Y-53615000D03*
X43315000Y-53615000D03*
X42665000Y-53615000D03*
%TD*%
D27*
%TO.C,C24*%
X22970000Y-43640000D03*
X22970000Y-41740000D03*
%TD*%
D14*
%TO.C,C3*%
X33295000Y-23970000D03*
X30345000Y-23970000D03*
%TD*%
D26*
%TO.C,U5*%
X40270000Y-48275000D03*
X40920000Y-48275000D03*
X41570000Y-48275000D03*
X41570000Y-50115000D03*
X40920000Y-50115000D03*
X40270000Y-50115000D03*
%TD*%
D28*
%TO.C,Q1*%
X44445000Y-34170000D03*
X43995000Y-34170000D03*
X43545000Y-34170000D03*
X44445000Y-34620000D03*
X43995000Y-34620000D03*
X43545000Y-34620000D03*
X44445000Y-35070000D03*
X43995000Y-35070000D03*
X43545000Y-35070000D03*
%TD*%
D29*
%TO.C,C10*%
X40420000Y-58025000D03*
X40420000Y-57065000D03*
%TD*%
D15*
%TO.C,D4*%
X42770000Y-40620000D03*
X41370000Y-40620000D03*
%TD*%
%TO.C,D3*%
X42770000Y-39220000D03*
X41370000Y-39220000D03*
%TD*%
%TO.C,D1*%
X42770000Y-36420000D03*
X41370000Y-36420000D03*
%TD*%
%TO.C,D7*%
X45412500Y-39240000D03*
X44012500Y-39240000D03*
%TD*%
D23*
%TO.C,C27*%
X33470000Y-38045000D03*
X33470000Y-40995000D03*
%TD*%
D20*
%TO.C,C15*%
X45600000Y-33235000D03*
X45600000Y-34785000D03*
%TD*%
D30*
%TO.C,U1*%
X26220000Y-39670000D03*
X26720000Y-39670000D03*
X27220000Y-39670000D03*
X27220000Y-41170000D03*
X26720000Y-41170000D03*
X26220000Y-41170000D03*
%TD*%
D15*
%TO.C,D2*%
X42770000Y-37820000D03*
X41370000Y-37820000D03*
%TD*%
D22*
%TO.C,C8*%
X39320000Y-49365000D03*
X39320000Y-50325000D03*
%TD*%
D20*
%TO.C,C7*%
X49020000Y-42520000D03*
X49020000Y-40970000D03*
%TD*%
%TO.C,C25*%
X24770000Y-43245000D03*
X24770000Y-41695000D03*
%TD*%
D31*
%TO.C,R6*%
X38995000Y-59445000D03*
X40645000Y-59445000D03*
%TD*%
D15*
%TO.C,D5*%
X45410000Y-36450000D03*
X44010000Y-36450000D03*
%TD*%
D20*
%TO.C,C5*%
X52170000Y-42520000D03*
X52170000Y-40970000D03*
%TD*%
D24*
%TO.C,R3*%
X24570000Y-36045000D03*
X24570000Y-34395000D03*
%TD*%
D32*
%TO.C,C13*%
X61245000Y-28320000D03*
X59695000Y-28320000D03*
%TD*%
D24*
%TO.C,R5*%
X45170000Y-57420000D03*
X45170000Y-55770000D03*
%TD*%
D29*
%TO.C,C17*%
X41520000Y-53775000D03*
X41520000Y-52815000D03*
%TD*%
D33*
%TO.C,L5*%
X30420000Y-44670000D03*
X26820000Y-44670000D03*
%TD*%
D34*
%TO.C,R4*%
X43695000Y-59445000D03*
X42045000Y-59445000D03*
%TD*%
D35*
%TO.C,C1*%
X34470000Y-16620000D03*
X29070000Y-16620000D03*
%TD*%
D36*
%TO.C,R2*%
X25970000Y-33850000D03*
X25970000Y-34870000D03*
%TD*%
D37*
%TO.C,C29*%
X37870000Y-39545000D03*
X37870000Y-41095000D03*
%TD*%
D38*
%TO.C,L4*%
X60284018Y-52900491D03*
X67645000Y-45539509D03*
%TD*%
D15*
%TO.C,D6*%
X45412500Y-37850000D03*
X44012500Y-37850000D03*
%TD*%
D26*
%TO.C,U6*%
X42670000Y-48275000D03*
X43320000Y-48275000D03*
X43970000Y-48275000D03*
X43970000Y-50115000D03*
X43320000Y-50115000D03*
X42670000Y-50115000D03*
%TD*%
D25*
%TO.C,C18*%
X27545000Y-38220000D03*
X29095000Y-38220000D03*
%TD*%
D36*
%TO.C,R1*%
X25970000Y-35860000D03*
X25970000Y-36880000D03*
%TD*%
D32*
%TO.C,C14*%
X61245000Y-29870000D03*
X59695000Y-29870000D03*
%TD*%
D20*
%TO.C,C6*%
X50620000Y-42520000D03*
X50620000Y-40970000D03*
%TD*%
D22*
%TO.C,C11*%
X47320000Y-49315000D03*
X47320000Y-50275000D03*
%TD*%
D27*
%TO.C,C23*%
X20920000Y-43640000D03*
X20920000Y-41740000D03*
%TD*%
D26*
%TO.C,U7*%
X45070000Y-48275000D03*
X45720000Y-48275000D03*
X46370000Y-48275000D03*
X46370000Y-50115000D03*
X45720000Y-50115000D03*
X45070000Y-50115000D03*
%TD*%
D25*
%TO.C,C22*%
X60695000Y-41120000D03*
X62245000Y-41120000D03*
%TD*%
M02*
