%TF.GenerationSoftware,KiCad,Pcbnew,8.0.0*%
%TF.CreationDate,2024-04-09T17:38:52-07:00*%
%TF.ProjectId,phi2_50MHz_EPC2214,70686932-5f35-4304-9d48-7a5f45504332,rev?*%
%TF.SameCoordinates,Original*%
%TF.FileFunction,Copper,L2,Bot*%
%TF.FilePolarity,Positive*%
%FSLAX46Y46*%
G04 Gerber Fmt 4.6, Leading zero omitted, Abs format (unit mm)*
G04 Created by KiCad (PCBNEW 8.0.0) date 2024-04-09 17:38:52*
%MOMM*%
%LPD*%
G01*
G04 APERTURE LIST*
%TA.AperFunction,ComponentPad*%
%ADD10C,10.160000*%
%TD*%
%TA.AperFunction,ViaPad*%
%ADD11C,0.400000*%
%TD*%
%TA.AperFunction,ViaPad*%
%ADD12C,1.500000*%
%TD*%
%TA.AperFunction,ViaPad*%
%ADD13C,0.600000*%
%TD*%
%TA.AperFunction,ViaPad*%
%ADD14C,1.000000*%
%TD*%
%TA.AperFunction,ViaPad*%
%ADD15C,0.800000*%
%TD*%
%TA.AperFunction,Conductor*%
%ADD16C,0.300000*%
%TD*%
G04 APERTURE END LIST*
D10*
%TO.P,12 V,1,Pin_1*%
%TO.N,+12V*%
X21170000Y-15720000D03*
%TD*%
%TO.P,GND,1,Pin_1*%
%TO.N,GND*%
X42840000Y-20010000D03*
%TD*%
D11*
%TO.N,GND*%
X42030000Y-35050000D03*
X45040000Y-35660000D03*
D12*
X19720000Y-76070000D03*
X26720000Y-76070000D03*
X12720000Y-76070000D03*
X68720000Y-76070000D03*
X40720000Y-76070000D03*
X33720000Y-76070000D03*
X47720000Y-76070000D03*
X61720000Y-76070000D03*
X54720000Y-76070000D03*
X38120000Y-33920000D03*
X38220000Y-28820000D03*
X35470000Y-31320000D03*
X35470000Y-26370000D03*
X68620000Y-69170000D03*
X76205000Y-76200000D03*
D11*
X39320000Y-50325000D03*
X46420000Y-36420000D03*
X46420000Y-40620000D03*
X46420000Y-39220000D03*
X46420000Y-37820000D03*
X41260000Y-35070000D03*
D12*
X61320000Y-45970000D03*
X65560000Y-50560000D03*
X35420000Y-21470000D03*
X63320000Y-48410000D03*
X40620000Y-83180000D03*
X33620000Y-83180000D03*
X26620000Y-83180000D03*
X19620000Y-83180000D03*
X12620000Y-83180000D03*
X83205000Y-76200000D03*
X61620000Y-69170000D03*
X54620000Y-69170000D03*
X33620000Y-69170000D03*
X26620000Y-69170000D03*
X19620000Y-69170000D03*
X12620000Y-69170000D03*
X6205000Y-76200000D03*
X83205000Y-69200000D03*
X76205000Y-69200000D03*
X68620000Y-62170000D03*
X61620000Y-62170000D03*
X54620000Y-62170000D03*
X33620000Y-62170000D03*
X26620000Y-62170000D03*
X19620000Y-62170000D03*
X12620000Y-62170000D03*
X6205000Y-69200000D03*
X83205000Y-62200000D03*
X76205000Y-62200000D03*
X68620000Y-55170000D03*
X54620000Y-55170000D03*
X47620000Y-55170000D03*
X33620000Y-55170000D03*
X26620000Y-55170000D03*
X19620000Y-55170000D03*
X12620000Y-55170000D03*
X6205000Y-62200000D03*
X83205000Y-55200000D03*
X76205000Y-55200000D03*
X33620000Y-48170000D03*
X26620000Y-48170000D03*
X19620000Y-48170000D03*
X12620000Y-48170000D03*
X6205000Y-55200000D03*
X83205000Y-48200000D03*
X76205000Y-48200000D03*
X12620000Y-41170000D03*
X6205000Y-48200000D03*
X76205000Y-41200000D03*
X68620000Y-34170000D03*
X61620000Y-34170000D03*
X54620000Y-34170000D03*
X12620000Y-34170000D03*
X83205000Y-34200000D03*
X76205000Y-34200000D03*
X26620000Y-27170000D03*
X19620000Y-27170000D03*
X12620000Y-27170000D03*
X6205000Y-34200000D03*
X83205000Y-27200000D03*
X76205000Y-27200000D03*
X68620000Y-20170000D03*
X61620000Y-20170000D03*
X54620000Y-20170000D03*
X12620000Y-20170000D03*
X6205000Y-27200000D03*
X83205000Y-20200000D03*
X76205000Y-20200000D03*
X68620000Y-13170000D03*
X61620000Y-13170000D03*
X54620000Y-13170000D03*
X47620000Y-13170000D03*
X40620000Y-13170000D03*
X12620000Y-13170000D03*
X6205000Y-20200000D03*
X83205000Y-13200000D03*
X76205000Y-13200000D03*
X68620000Y-6170000D03*
X61620000Y-6170000D03*
X54620000Y-6170000D03*
X47620000Y-6170000D03*
X40620000Y-6170000D03*
X33620000Y-6170000D03*
X26620000Y-6170000D03*
X19620000Y-6170000D03*
X12620000Y-6170000D03*
X6205000Y-13200000D03*
X76205000Y-6200000D03*
D11*
X42480000Y-34360000D03*
X41290000Y-34290000D03*
%TO.N,+12V*%
X26150000Y-41180000D03*
D13*
X26010000Y-37930000D03*
%TO.N,GND*%
X25970000Y-33830000D03*
D14*
X49020000Y-42580000D03*
X50610000Y-42580000D03*
X52160000Y-42580000D03*
X60680000Y-41100000D03*
X60690000Y-39540000D03*
X60720000Y-38010000D03*
D12*
X49360000Y-46260000D03*
D11*
X42760000Y-35040000D03*
%TO.N,/G*%
X43280000Y-36300000D03*
D12*
%TO.N,GND*%
X58570000Y-41220000D03*
X55020000Y-41170000D03*
X38120000Y-31320000D03*
X38220000Y-26370000D03*
D11*
X45270000Y-40620000D03*
X45270000Y-39220000D03*
X45270000Y-37820000D03*
X45270000Y-36420000D03*
D12*
X59180000Y-43800000D03*
X46750000Y-44290000D03*
X40620000Y-43470000D03*
X51690000Y-31980000D03*
X35470000Y-33870000D03*
X35470000Y-28870000D03*
X35470000Y-23870000D03*
X26620000Y-23870000D03*
X19720000Y-23870000D03*
D15*
X45600000Y-34750000D03*
X46960000Y-34760000D03*
X48370000Y-34770000D03*
D11*
X44717653Y-34170000D03*
D13*
X37870000Y-39420000D03*
D11*
X40920000Y-49995000D03*
D14*
X41895000Y-67270000D03*
D11*
X41720000Y-55845000D03*
D13*
X35420000Y-37770000D03*
X24170000Y-40370000D03*
D14*
X46620000Y-61370000D03*
X51120000Y-48070000D03*
X54520000Y-51470000D03*
D13*
X39080000Y-59450000D03*
X33020000Y-37770000D03*
D14*
X59445000Y-48045000D03*
D13*
X33020000Y-23570000D03*
D11*
X41720000Y-55045000D03*
D13*
X22620000Y-43420000D03*
X33020000Y-21970000D03*
X33020000Y-24420000D03*
X28070000Y-40370000D03*
X33920000Y-37770000D03*
D14*
X46620000Y-66195000D03*
D13*
X36320000Y-37770000D03*
D14*
X51920000Y-47270000D03*
D13*
X33020000Y-25920000D03*
D14*
X58620000Y-47220000D03*
X55245000Y-43895000D03*
D13*
X23320000Y-43420000D03*
D11*
X43976666Y-35346266D03*
D14*
X33220000Y-16570000D03*
X58645000Y-48870000D03*
X55270000Y-52295000D03*
D11*
X42670000Y-58145000D03*
D13*
X28220000Y-36870000D03*
D11*
X43320000Y-53495000D03*
D14*
X40695000Y-61345000D03*
X40670000Y-67270000D03*
D13*
X28070000Y-39470000D03*
D14*
X46645000Y-67270000D03*
X35670000Y-16570000D03*
D13*
X31420000Y-37770000D03*
X27760000Y-35860000D03*
D14*
X56120000Y-51470000D03*
D13*
X30470000Y-37770000D03*
X24770000Y-43070000D03*
X42140000Y-59460000D03*
D14*
X40670000Y-66120000D03*
D13*
X25070000Y-40370000D03*
D14*
X56020000Y-44695000D03*
D11*
X45720000Y-49995000D03*
X44970000Y-53745000D03*
D13*
X20570000Y-43420000D03*
D11*
X43320000Y-49995000D03*
D13*
X33020000Y-26820000D03*
D14*
X40695000Y-62495000D03*
D13*
X28070000Y-41320000D03*
D11*
X24570000Y-38970000D03*
D14*
X41870000Y-61345000D03*
D11*
X47320000Y-50195000D03*
D14*
X46620000Y-62520000D03*
D13*
X21270000Y-43420000D03*
D14*
X45445000Y-67270000D03*
X51920000Y-48870000D03*
X54495000Y-44745000D03*
D11*
X42670000Y-57295000D03*
D13*
X33020000Y-21120000D03*
D11*
X40420000Y-57945000D03*
D14*
X45470000Y-61370000D03*
D11*
X41520000Y-53695000D03*
%TO.N,Net-(U1-SW)*%
X29095000Y-38220000D03*
X26720000Y-42370000D03*
%TO.N,/G*%
X44110000Y-40640000D03*
X44130000Y-37830000D03*
X44110000Y-39210000D03*
X42670000Y-37800000D03*
X42670000Y-39210000D03*
X42680000Y-40600000D03*
X44120000Y-36420000D03*
X42660000Y-36410000D03*
%TD*%
D16*
%TO.N,+12V*%
X26010000Y-41040000D02*
X26010000Y-37930000D01*
X26150000Y-41180000D02*
X26010000Y-41040000D01*
%TO.N,Net-(U1-SW)*%
X29420000Y-41370000D02*
X29420000Y-38370000D01*
X29420000Y-38370000D02*
X29270000Y-38220000D01*
X29270000Y-38220000D02*
X29095000Y-38220000D01*
X28420000Y-42370000D02*
X29420000Y-41370000D01*
X26720000Y-42370000D02*
X28420000Y-42370000D01*
%TD*%
%TA.AperFunction,Conductor*%
%TO.N,/G*%
G36*
X44253039Y-35879685D02*
G01*
X44298794Y-35932489D01*
X44310000Y-35984000D01*
X44310000Y-42616000D01*
X44290315Y-42683039D01*
X44237511Y-42728794D01*
X44186000Y-42740000D01*
X42554000Y-42740000D01*
X42486961Y-42720315D01*
X42441206Y-42667511D01*
X42430000Y-42616000D01*
X42430000Y-35984000D01*
X42449685Y-35916961D01*
X42502489Y-35871206D01*
X42554000Y-35860000D01*
X44186000Y-35860000D01*
X44253039Y-35879685D01*
G37*
%TD.AperFunction*%
%TD*%
%TA.AperFunction,Conductor*%
%TO.N,GND*%
G36*
X87947539Y-1020185D02*
G01*
X87993294Y-1072989D01*
X88004500Y-1124500D01*
X88004500Y-87875500D01*
X87984815Y-87942539D01*
X87932011Y-87988294D01*
X87880500Y-87999500D01*
X1129500Y-87999500D01*
X1062461Y-87979815D01*
X1016706Y-87927011D01*
X1005500Y-87875500D01*
X1005500Y-84921288D01*
X2819500Y-84921288D01*
X2851161Y-85161785D01*
X2913947Y-85396104D01*
X3006773Y-85620205D01*
X3006776Y-85620212D01*
X3128064Y-85830289D01*
X3128066Y-85830292D01*
X3128067Y-85830293D01*
X3275733Y-86022736D01*
X3275739Y-86022743D01*
X3447256Y-86194260D01*
X3447262Y-86194265D01*
X3639711Y-86341936D01*
X3849788Y-86463224D01*
X4073900Y-86556054D01*
X4308211Y-86618838D01*
X4488586Y-86642584D01*
X4548711Y-86650500D01*
X4548712Y-86650500D01*
X4791289Y-86650500D01*
X4839388Y-86644167D01*
X5031789Y-86618838D01*
X5266100Y-86556054D01*
X5490212Y-86463224D01*
X5700289Y-86341936D01*
X5892738Y-86194265D01*
X6064265Y-86022738D01*
X6211936Y-85830289D01*
X6333224Y-85620212D01*
X6426054Y-85396100D01*
X6488838Y-85161789D01*
X6520500Y-84921288D01*
X82819500Y-84921288D01*
X82851161Y-85161785D01*
X82913947Y-85396104D01*
X83006773Y-85620205D01*
X83006776Y-85620212D01*
X83128064Y-85830289D01*
X83128066Y-85830292D01*
X83128067Y-85830293D01*
X83275733Y-86022736D01*
X83275739Y-86022743D01*
X83447256Y-86194260D01*
X83447262Y-86194265D01*
X83639711Y-86341936D01*
X83849788Y-86463224D01*
X84073900Y-86556054D01*
X84308211Y-86618838D01*
X84488586Y-86642584D01*
X84548711Y-86650500D01*
X84548712Y-86650500D01*
X84791289Y-86650500D01*
X84839388Y-86644167D01*
X85031789Y-86618838D01*
X85266100Y-86556054D01*
X85490212Y-86463224D01*
X85700289Y-86341936D01*
X85892738Y-86194265D01*
X86064265Y-86022738D01*
X86211936Y-85830289D01*
X86333224Y-85620212D01*
X86426054Y-85396100D01*
X86488838Y-85161789D01*
X86520500Y-84921288D01*
X86520500Y-84678712D01*
X86488838Y-84438211D01*
X86426054Y-84203900D01*
X86333224Y-83979788D01*
X86211936Y-83769711D01*
X86064265Y-83577262D01*
X86064260Y-83577256D01*
X85892743Y-83405739D01*
X85892736Y-83405733D01*
X85700293Y-83258067D01*
X85700292Y-83258066D01*
X85700289Y-83258064D01*
X85490212Y-83136776D01*
X85490205Y-83136773D01*
X85266104Y-83043947D01*
X85031785Y-82981161D01*
X84791289Y-82949500D01*
X84791288Y-82949500D01*
X84548712Y-82949500D01*
X84548711Y-82949500D01*
X84308214Y-82981161D01*
X84073895Y-83043947D01*
X83849794Y-83136773D01*
X83849785Y-83136777D01*
X83639706Y-83258067D01*
X83447263Y-83405733D01*
X83447256Y-83405739D01*
X83275739Y-83577256D01*
X83275733Y-83577263D01*
X83128067Y-83769706D01*
X83006777Y-83979785D01*
X83006773Y-83979794D01*
X82913947Y-84203895D01*
X82851161Y-84438214D01*
X82819500Y-84678711D01*
X82819500Y-84921288D01*
X6520500Y-84921288D01*
X6520500Y-84678712D01*
X6488838Y-84438211D01*
X6426054Y-84203900D01*
X6333224Y-83979788D01*
X6211936Y-83769711D01*
X6064265Y-83577262D01*
X6064260Y-83577256D01*
X5892743Y-83405739D01*
X5892736Y-83405733D01*
X5700293Y-83258067D01*
X5700292Y-83258066D01*
X5700289Y-83258064D01*
X5490212Y-83136776D01*
X5490205Y-83136773D01*
X5266104Y-83043947D01*
X5031785Y-82981161D01*
X4791289Y-82949500D01*
X4791288Y-82949500D01*
X4548712Y-82949500D01*
X4548711Y-82949500D01*
X4308214Y-82981161D01*
X4073895Y-83043947D01*
X3849794Y-83136773D01*
X3849785Y-83136777D01*
X3639706Y-83258067D01*
X3447263Y-83405733D01*
X3447256Y-83405739D01*
X3275739Y-83577256D01*
X3275733Y-83577263D01*
X3128067Y-83769706D01*
X3006777Y-83979785D01*
X3006773Y-83979794D01*
X2913947Y-84203895D01*
X2851161Y-84438214D01*
X2819500Y-84678711D01*
X2819500Y-84921288D01*
X1005500Y-84921288D01*
X1005500Y-48020001D01*
X53870000Y-48020001D01*
X57364377Y-51612811D01*
X57397008Y-51674593D01*
X57391056Y-51744209D01*
X57363168Y-51786947D01*
X57000242Y-52149873D01*
X57000225Y-52149891D01*
X56932438Y-52234009D01*
X56932434Y-52234014D01*
X56903926Y-52278371D01*
X56855552Y-52375012D01*
X56855548Y-52375023D01*
X56824969Y-52515595D01*
X56824968Y-52515607D01*
X56819984Y-52585299D01*
X56830248Y-52728810D01*
X56880530Y-52863619D01*
X56914015Y-52924942D01*
X57000239Y-53040123D01*
X57000243Y-53040127D01*
X57000248Y-53040133D01*
X60149873Y-56189757D01*
X60149891Y-56189774D01*
X60234009Y-56257561D01*
X60234019Y-56257569D01*
X60278366Y-56286070D01*
X60278371Y-56286073D01*
X60325113Y-56309470D01*
X60375015Y-56334449D01*
X60375021Y-56334450D01*
X60375023Y-56334451D01*
X60515595Y-56365030D01*
X60515599Y-56365030D01*
X60515607Y-56365032D01*
X60576576Y-56369392D01*
X60585297Y-56370016D01*
X60585299Y-56370016D01*
X60585300Y-56370016D01*
X60594878Y-56369330D01*
X60728810Y-56359752D01*
X60863619Y-56309470D01*
X60924942Y-56275985D01*
X61040123Y-56189761D01*
X63564761Y-53665123D01*
X63564767Y-53665114D01*
X63564774Y-53665108D01*
X63602033Y-53618872D01*
X63632569Y-53580981D01*
X63661070Y-53536634D01*
X63709449Y-53439985D01*
X63740032Y-53299393D01*
X63745016Y-53229701D01*
X63734752Y-53086190D01*
X63684470Y-52951381D01*
X63650985Y-52890058D01*
X63564761Y-52774877D01*
X63564756Y-52774872D01*
X63564751Y-52774866D01*
X60415126Y-49625242D01*
X60415108Y-49625225D01*
X60330990Y-49557438D01*
X60330985Y-49557434D01*
X60330983Y-49557433D01*
X60330981Y-49557431D01*
X60286634Y-49528930D01*
X60286635Y-49528930D01*
X60286628Y-49528926D01*
X60189987Y-49480552D01*
X60189986Y-49480551D01*
X60189985Y-49480551D01*
X60189983Y-49480550D01*
X60189976Y-49480548D01*
X60049404Y-49449969D01*
X60049393Y-49449968D01*
X60026162Y-49448306D01*
X59979703Y-49444984D01*
X59979700Y-49444984D01*
X59836189Y-49455248D01*
X59701385Y-49505528D01*
X59640060Y-49539013D01*
X59524878Y-49625238D01*
X59524866Y-49625248D01*
X58938493Y-50211621D01*
X58877170Y-50245106D01*
X58807478Y-50240122D01*
X58762520Y-50211006D01*
X55320000Y-46720000D01*
X53870000Y-48020000D01*
X53870000Y-48020001D01*
X1005500Y-48020001D01*
X1005500Y-45605000D01*
X42380000Y-45605000D01*
X42380000Y-47005000D01*
X44310000Y-47005000D01*
X44310000Y-45605000D01*
X42380000Y-45605000D01*
X1005500Y-45605000D01*
X1005500Y-41841288D01*
X2819500Y-41841288D01*
X2851161Y-42081785D01*
X2913947Y-42316104D01*
X2936272Y-42370000D01*
X3006776Y-42540212D01*
X3128064Y-42750289D01*
X3128066Y-42750292D01*
X3128067Y-42750293D01*
X3275733Y-42942736D01*
X3275739Y-42942743D01*
X3447256Y-43114260D01*
X3447263Y-43114266D01*
X3488058Y-43145569D01*
X3639711Y-43261936D01*
X3849788Y-43383224D01*
X4073900Y-43476054D01*
X4308211Y-43538838D01*
X4488586Y-43562584D01*
X4548711Y-43570500D01*
X4548712Y-43570500D01*
X4791289Y-43570500D01*
X4839388Y-43564167D01*
X5031789Y-43538838D01*
X5266100Y-43476054D01*
X5490212Y-43383224D01*
X5700289Y-43261936D01*
X5892738Y-43114265D01*
X6064265Y-42942738D01*
X6211936Y-42750289D01*
X6333224Y-42540212D01*
X6426054Y-42316100D01*
X6488838Y-42081789D01*
X6520500Y-41841288D01*
X6520500Y-41598712D01*
X6518690Y-41584967D01*
X6508903Y-41510625D01*
X6488838Y-41358211D01*
X6426054Y-41123900D01*
X6333224Y-40899788D01*
X6211936Y-40689711D01*
X6064265Y-40497262D01*
X6064260Y-40497256D01*
X5892743Y-40325739D01*
X5892736Y-40325733D01*
X5700293Y-40178067D01*
X5700292Y-40178066D01*
X5700289Y-40178064D01*
X5490212Y-40056776D01*
X5490205Y-40056773D01*
X5266104Y-39963947D01*
X5031785Y-39901161D01*
X4791289Y-39869500D01*
X4791288Y-39869500D01*
X4548712Y-39869500D01*
X4548711Y-39869500D01*
X4308214Y-39901161D01*
X4073895Y-39963947D01*
X3849794Y-40056773D01*
X3849785Y-40056777D01*
X3639706Y-40178067D01*
X3447263Y-40325733D01*
X3447256Y-40325739D01*
X3275739Y-40497256D01*
X3275733Y-40497263D01*
X3128067Y-40689706D01*
X3006777Y-40899785D01*
X3006773Y-40899794D01*
X2913947Y-41123895D01*
X2851161Y-41358214D01*
X2819500Y-41598711D01*
X2819500Y-41841288D01*
X1005500Y-41841288D01*
X1005500Y-37930003D01*
X25204435Y-37930003D01*
X25224630Y-38109249D01*
X25224631Y-38109254D01*
X25284211Y-38279524D01*
X25340493Y-38369094D01*
X25359500Y-38435067D01*
X25359500Y-41104071D01*
X25374604Y-41180000D01*
X25374604Y-41180001D01*
X25384497Y-41229736D01*
X25384499Y-41229744D01*
X25433535Y-41348129D01*
X25497484Y-41443835D01*
X25510323Y-41468752D01*
X25525182Y-41507930D01*
X25621817Y-41647929D01*
X25702604Y-41719500D01*
X25749150Y-41760736D01*
X25899774Y-41839790D01*
X25942067Y-41850214D01*
X26013128Y-41867728D01*
X26073508Y-41902884D01*
X26105297Y-41965103D01*
X26098402Y-42034631D01*
X26096202Y-42039379D01*
X26034860Y-42201125D01*
X26034859Y-42201130D01*
X26014355Y-42370000D01*
X26034859Y-42538869D01*
X26034860Y-42538874D01*
X26095182Y-42697931D01*
X26148357Y-42774967D01*
X26191817Y-42837929D01*
X26297505Y-42931560D01*
X26319150Y-42950736D01*
X26467428Y-43028558D01*
X26469775Y-43029790D01*
X26634944Y-43070500D01*
X26805056Y-43070500D01*
X26970225Y-43029790D01*
X26970230Y-43029787D01*
X26973473Y-43028558D01*
X27017445Y-43020500D01*
X28484071Y-43020500D01*
X28594481Y-42998537D01*
X28609744Y-42995501D01*
X28728127Y-42946465D01*
X28733698Y-42942743D01*
X28733707Y-42942737D01*
X28831336Y-42877504D01*
X28834669Y-42875277D01*
X29093946Y-42616000D01*
X41924500Y-42616000D01*
X41924501Y-42616009D01*
X41936052Y-42723450D01*
X41936054Y-42723462D01*
X41947260Y-42774972D01*
X41981383Y-42877497D01*
X41981386Y-42877503D01*
X42059171Y-42998537D01*
X42059179Y-42998548D01*
X42104923Y-43051340D01*
X42104926Y-43051343D01*
X42104930Y-43051347D01*
X42213664Y-43145567D01*
X42213667Y-43145568D01*
X42213668Y-43145569D01*
X42307925Y-43188616D01*
X42344541Y-43205338D01*
X42411580Y-43225023D01*
X42411584Y-43225024D01*
X42554000Y-43245500D01*
X42554003Y-43245500D01*
X44185990Y-43245500D01*
X44186000Y-43245500D01*
X44293456Y-43233947D01*
X44344967Y-43222741D01*
X44379197Y-43211347D01*
X44447497Y-43188616D01*
X44447501Y-43188613D01*
X44447504Y-43188613D01*
X44568543Y-43110825D01*
X44621347Y-43065070D01*
X44715567Y-42956336D01*
X44775338Y-42825459D01*
X44795023Y-42758420D01*
X44795024Y-42758416D01*
X44815500Y-42616000D01*
X44815500Y-40648699D01*
X44815645Y-40646301D01*
X44815645Y-40633713D01*
X44815500Y-40631312D01*
X44815500Y-39378640D01*
X47794500Y-39378640D01*
X47797397Y-39432688D01*
X47797397Y-39432689D01*
X47800228Y-39459013D01*
X47800231Y-39459040D01*
X47802903Y-39475522D01*
X47804500Y-39495361D01*
X47804500Y-41426000D01*
X47804501Y-41426009D01*
X47816052Y-41533450D01*
X47816054Y-41533462D01*
X47827260Y-41584972D01*
X47861383Y-41687497D01*
X47861386Y-41687503D01*
X47939171Y-41808537D01*
X47939179Y-41808548D01*
X47984923Y-41861340D01*
X47984926Y-41861343D01*
X47984930Y-41861347D01*
X48093664Y-41955567D01*
X48093667Y-41955568D01*
X48093668Y-41955569D01*
X48214098Y-42010569D01*
X48224541Y-42015338D01*
X48291580Y-42035023D01*
X48291584Y-42035024D01*
X48434000Y-42055500D01*
X48434003Y-42055500D01*
X52795990Y-42055500D01*
X52796000Y-42055500D01*
X52903456Y-42043947D01*
X52954967Y-42032741D01*
X52989197Y-42021347D01*
X53057497Y-41998616D01*
X53057501Y-41998613D01*
X53057504Y-41998613D01*
X53178543Y-41920825D01*
X53231347Y-41875070D01*
X53325567Y-41766336D01*
X53385338Y-41635459D01*
X53405023Y-41568420D01*
X53405024Y-41568416D01*
X53417592Y-41481000D01*
X61239500Y-41481000D01*
X61239501Y-41481009D01*
X61251052Y-41588450D01*
X61251054Y-41588462D01*
X61262260Y-41639972D01*
X61296383Y-41742497D01*
X61296386Y-41742503D01*
X61374171Y-41863537D01*
X61374179Y-41863548D01*
X61419923Y-41916340D01*
X61419926Y-41916343D01*
X61419930Y-41916347D01*
X61528664Y-42010567D01*
X61528667Y-42010568D01*
X61528668Y-42010569D01*
X61627046Y-42055498D01*
X61659541Y-42070338D01*
X61726580Y-42090023D01*
X61726584Y-42090024D01*
X61869000Y-42110500D01*
X64040500Y-42110500D01*
X64107539Y-42130185D01*
X64153294Y-42182989D01*
X64164500Y-42234500D01*
X64164500Y-45193640D01*
X64167397Y-45247688D01*
X64167397Y-45247689D01*
X64170229Y-45274022D01*
X64170232Y-45274049D01*
X64178885Y-45327449D01*
X64178886Y-45327450D01*
X64229167Y-45462256D01*
X64235847Y-45474489D01*
X64235852Y-45474499D01*
X64262648Y-45523573D01*
X64262649Y-45523574D01*
X64262652Y-45523579D01*
X64348877Y-45638761D01*
X64348881Y-45638765D01*
X64348886Y-45638771D01*
X67524873Y-48814757D01*
X67524891Y-48814774D01*
X67609009Y-48882561D01*
X67609019Y-48882569D01*
X67653366Y-48911070D01*
X67653371Y-48911073D01*
X67700113Y-48934470D01*
X67750015Y-48959449D01*
X67750021Y-48959450D01*
X67750023Y-48959451D01*
X67890595Y-48990030D01*
X67890599Y-48990030D01*
X67890607Y-48990032D01*
X67951576Y-48994392D01*
X67960297Y-48995016D01*
X67960299Y-48995016D01*
X67960300Y-48995016D01*
X67969878Y-48994330D01*
X68103810Y-48984752D01*
X68238619Y-48934470D01*
X68299942Y-48900985D01*
X68415123Y-48814761D01*
X70939761Y-46290123D01*
X70939767Y-46290114D01*
X70939774Y-46290108D01*
X70977033Y-46243872D01*
X71007569Y-46205981D01*
X71036070Y-46161634D01*
X71084449Y-46064985D01*
X71115032Y-45924393D01*
X71120016Y-45854701D01*
X71109752Y-45711190D01*
X71059470Y-45576381D01*
X71025985Y-45515058D01*
X70939761Y-45399877D01*
X70939756Y-45399872D01*
X70939751Y-45399866D01*
X68836819Y-43296934D01*
X68803334Y-43235611D01*
X68800500Y-43209253D01*
X68800500Y-41841288D01*
X82819500Y-41841288D01*
X82851161Y-42081785D01*
X82913947Y-42316104D01*
X82936272Y-42370000D01*
X83006776Y-42540212D01*
X83128064Y-42750289D01*
X83128066Y-42750292D01*
X83128067Y-42750293D01*
X83275733Y-42942736D01*
X83275739Y-42942743D01*
X83447256Y-43114260D01*
X83447263Y-43114266D01*
X83488058Y-43145569D01*
X83639711Y-43261936D01*
X83849788Y-43383224D01*
X84073900Y-43476054D01*
X84308211Y-43538838D01*
X84488586Y-43562584D01*
X84548711Y-43570500D01*
X84548712Y-43570500D01*
X84791289Y-43570500D01*
X84839388Y-43564167D01*
X85031789Y-43538838D01*
X85266100Y-43476054D01*
X85490212Y-43383224D01*
X85700289Y-43261936D01*
X85892738Y-43114265D01*
X86064265Y-42942738D01*
X86211936Y-42750289D01*
X86333224Y-42540212D01*
X86426054Y-42316100D01*
X86488838Y-42081789D01*
X86520500Y-41841288D01*
X86520500Y-41598712D01*
X86518690Y-41584967D01*
X86508903Y-41510625D01*
X86488838Y-41358211D01*
X86426054Y-41123900D01*
X86333224Y-40899788D01*
X86211936Y-40689711D01*
X86064265Y-40497262D01*
X86064260Y-40497256D01*
X85892743Y-40325739D01*
X85892736Y-40325733D01*
X85700293Y-40178067D01*
X85700292Y-40178066D01*
X85700289Y-40178064D01*
X85490212Y-40056776D01*
X85490205Y-40056773D01*
X85266104Y-39963947D01*
X85031785Y-39901161D01*
X84791289Y-39869500D01*
X84791288Y-39869500D01*
X84548712Y-39869500D01*
X84548711Y-39869500D01*
X84308214Y-39901161D01*
X84073895Y-39963947D01*
X83849794Y-40056773D01*
X83849785Y-40056777D01*
X83639706Y-40178067D01*
X83447263Y-40325733D01*
X83447256Y-40325739D01*
X83275739Y-40497256D01*
X83275733Y-40497263D01*
X83128067Y-40689706D01*
X83006777Y-40899785D01*
X83006773Y-40899794D01*
X82913947Y-41123895D01*
X82851161Y-41358214D01*
X82819500Y-41598711D01*
X82819500Y-41841288D01*
X68800500Y-41841288D01*
X68800500Y-37694010D01*
X68800500Y-37694000D01*
X68788947Y-37586544D01*
X68777741Y-37535033D01*
X68743612Y-37432494D01*
X68665823Y-37311454D01*
X68660018Y-37304755D01*
X68660015Y-37304751D01*
X68620068Y-37258650D01*
X68620066Y-37258648D01*
X68511336Y-37164433D01*
X68380462Y-37104663D01*
X68313417Y-37084976D01*
X68251347Y-37076052D01*
X68171000Y-37064500D01*
X61869000Y-37064500D01*
X61868991Y-37064500D01*
X61868990Y-37064501D01*
X61761549Y-37076052D01*
X61761537Y-37076054D01*
X61710027Y-37087260D01*
X61607502Y-37121383D01*
X61607496Y-37121386D01*
X61486462Y-37199171D01*
X61486451Y-37199179D01*
X61433659Y-37244923D01*
X61339433Y-37353664D01*
X61339430Y-37353668D01*
X61279664Y-37484534D01*
X61259976Y-37551582D01*
X61254949Y-37586549D01*
X61239500Y-37694000D01*
X61239500Y-41481000D01*
X53417592Y-41481000D01*
X53425500Y-41426000D01*
X53425500Y-40069500D01*
X53445185Y-40002461D01*
X53497989Y-39956706D01*
X53549500Y-39945500D01*
X58515990Y-39945500D01*
X58516000Y-39945500D01*
X58623456Y-39933947D01*
X58674967Y-39922741D01*
X58709197Y-39911347D01*
X58777497Y-39888616D01*
X58777501Y-39888613D01*
X58777504Y-39888613D01*
X58898543Y-39810825D01*
X58951347Y-39765070D01*
X59045567Y-39656336D01*
X59105338Y-39525459D01*
X59125023Y-39458420D01*
X59125024Y-39458416D01*
X59145500Y-39316000D01*
X59145500Y-36264000D01*
X59133947Y-36156544D01*
X59122741Y-36105033D01*
X59122637Y-36104722D01*
X59088616Y-36002502D01*
X59088613Y-36002496D01*
X59010828Y-35881462D01*
X59010825Y-35881457D01*
X58976275Y-35841584D01*
X58965076Y-35828659D01*
X58965072Y-35828656D01*
X58965070Y-35828653D01*
X58856336Y-35734433D01*
X58856333Y-35734431D01*
X58856331Y-35734430D01*
X58725465Y-35674664D01*
X58725460Y-35674662D01*
X58725459Y-35674662D01*
X58658420Y-35654977D01*
X58658422Y-35654977D01*
X58658417Y-35654976D01*
X58596347Y-35646052D01*
X58516000Y-35634500D01*
X48424000Y-35634500D01*
X48423991Y-35634500D01*
X48423990Y-35634501D01*
X48316549Y-35646052D01*
X48316537Y-35646054D01*
X48265027Y-35657260D01*
X48162502Y-35691383D01*
X48162496Y-35691386D01*
X48041462Y-35769171D01*
X48041451Y-35769179D01*
X47988659Y-35814923D01*
X47894433Y-35923664D01*
X47894430Y-35923668D01*
X47834664Y-36054534D01*
X47814976Y-36121582D01*
X47809949Y-36156549D01*
X47794502Y-36263990D01*
X47794500Y-36264001D01*
X47794500Y-39378640D01*
X44815500Y-39378640D01*
X44815500Y-39218699D01*
X44815645Y-39216301D01*
X44815645Y-39203713D01*
X44815500Y-39201312D01*
X44815500Y-38003408D01*
X44816404Y-37988461D01*
X44823502Y-37930003D01*
X44835645Y-37830000D01*
X44816404Y-37671537D01*
X44815500Y-37656590D01*
X44815500Y-36511051D01*
X44816404Y-36496104D01*
X44825645Y-36420000D01*
X44816404Y-36343893D01*
X44815500Y-36328947D01*
X44815500Y-35984010D01*
X44815500Y-35984000D01*
X44803947Y-35876544D01*
X44792741Y-35825033D01*
X44789376Y-35814923D01*
X44758616Y-35722502D01*
X44758613Y-35722496D01*
X44727873Y-35674664D01*
X44680825Y-35601457D01*
X44680820Y-35601451D01*
X44635076Y-35548659D01*
X44635072Y-35548656D01*
X44635070Y-35548653D01*
X44526336Y-35454433D01*
X44526333Y-35454431D01*
X44526331Y-35454430D01*
X44395465Y-35394664D01*
X44395460Y-35394662D01*
X44395459Y-35394662D01*
X44328420Y-35374977D01*
X44328422Y-35374977D01*
X44328417Y-35374976D01*
X44266347Y-35366052D01*
X44186000Y-35354500D01*
X42554000Y-35354500D01*
X42553991Y-35354500D01*
X42553990Y-35354501D01*
X42446549Y-35366052D01*
X42446537Y-35366054D01*
X42395027Y-35377260D01*
X42292502Y-35411383D01*
X42292496Y-35411386D01*
X42171462Y-35489171D01*
X42171451Y-35489179D01*
X42118659Y-35534923D01*
X42024433Y-35643664D01*
X42024430Y-35643668D01*
X41964664Y-35774534D01*
X41944976Y-35841582D01*
X41933175Y-35923664D01*
X41924500Y-35984000D01*
X41924500Y-42616000D01*
X29093946Y-42616000D01*
X29925277Y-41784669D01*
X29996466Y-41678126D01*
X30029360Y-41598712D01*
X30045501Y-41559744D01*
X30066319Y-41455087D01*
X30070500Y-41434071D01*
X30070500Y-38305928D01*
X30045502Y-38180261D01*
X30045501Y-38180260D01*
X30045501Y-38180256D01*
X29996465Y-38061873D01*
X29925277Y-37955331D01*
X29925275Y-37955329D01*
X29925273Y-37955326D01*
X29684673Y-37714726D01*
X29653669Y-37694010D01*
X29578127Y-37643535D01*
X29459744Y-37594499D01*
X29459742Y-37594498D01*
X29459737Y-37594496D01*
X29398108Y-37582238D01*
X29364672Y-37570417D01*
X29345224Y-37560209D01*
X29180056Y-37519500D01*
X29009944Y-37519500D01*
X28844773Y-37560210D01*
X28694150Y-37639263D01*
X28566816Y-37752072D01*
X28470182Y-37892068D01*
X28409860Y-38051125D01*
X28409859Y-38051130D01*
X28389355Y-38220000D01*
X28409859Y-38388869D01*
X28409860Y-38388874D01*
X28470182Y-38547931D01*
X28532475Y-38638177D01*
X28566817Y-38687929D01*
X28694148Y-38800734D01*
X28703124Y-38805445D01*
X28753337Y-38854027D01*
X28769500Y-38915242D01*
X28769500Y-41049192D01*
X28749815Y-41116231D01*
X28733181Y-41136873D01*
X28186873Y-41683181D01*
X28125550Y-41716666D01*
X28099192Y-41719500D01*
X27017445Y-41719500D01*
X26973473Y-41711442D01*
X26970223Y-41710209D01*
X26856871Y-41682271D01*
X26796490Y-41647115D01*
X26764702Y-41584896D01*
X26771598Y-41515367D01*
X26773795Y-41510625D01*
X26774815Y-41507932D01*
X26774818Y-41507930D01*
X26835140Y-41348872D01*
X26855645Y-41180000D01*
X26835140Y-41011128D01*
X26774818Y-40852070D01*
X26774817Y-40852068D01*
X26682450Y-40718252D01*
X26660567Y-40651898D01*
X26660500Y-40647812D01*
X26660500Y-38435067D01*
X26679507Y-38369094D01*
X26735788Y-38279524D01*
X26735789Y-38279522D01*
X26795368Y-38109255D01*
X26801917Y-38051130D01*
X26815565Y-37930003D01*
X26815565Y-37929996D01*
X26795369Y-37750750D01*
X26795368Y-37750745D01*
X26782763Y-37714723D01*
X26735789Y-37580478D01*
X26717632Y-37551582D01*
X26642804Y-37432494D01*
X26639816Y-37427738D01*
X26512262Y-37300184D01*
X26504858Y-37295532D01*
X26359523Y-37204211D01*
X26189254Y-37144631D01*
X26189249Y-37144630D01*
X26010004Y-37124435D01*
X26009996Y-37124435D01*
X25830750Y-37144630D01*
X25830745Y-37144631D01*
X25660476Y-37204211D01*
X25507737Y-37300184D01*
X25380184Y-37427737D01*
X25284211Y-37580476D01*
X25224631Y-37750745D01*
X25224630Y-37750750D01*
X25204435Y-37929996D01*
X25204435Y-37930003D01*
X1005500Y-37930003D01*
X1005500Y-33336000D01*
X39744500Y-33336000D01*
X39744501Y-33336009D01*
X39756052Y-33443450D01*
X39756054Y-33443462D01*
X39767260Y-33494972D01*
X39801383Y-33597497D01*
X39801386Y-33597503D01*
X39879171Y-33718537D01*
X39879179Y-33718548D01*
X39924923Y-33771340D01*
X39924926Y-33771343D01*
X39924930Y-33771347D01*
X40033664Y-33865567D01*
X40033667Y-33865568D01*
X40033668Y-33865569D01*
X40153222Y-33920169D01*
X40164541Y-33925338D01*
X40231580Y-33945023D01*
X40231584Y-33945024D01*
X40374000Y-33965500D01*
X40374003Y-33965500D01*
X42966000Y-33965500D01*
X43033039Y-33985185D01*
X43078794Y-34037989D01*
X43090000Y-34089500D01*
X43090000Y-34730000D01*
X43583930Y-34730000D01*
X43625686Y-34742261D01*
X43647553Y-34742261D01*
X44527553Y-34742261D01*
X44527553Y-34502261D01*
X43804000Y-34502261D01*
X43736961Y-34482576D01*
X43691206Y-34429772D01*
X43680000Y-34378261D01*
X43680000Y-34089500D01*
X43699685Y-34022461D01*
X43752489Y-33976706D01*
X43804000Y-33965500D01*
X44734145Y-33965500D01*
X44801184Y-33985185D01*
X44817998Y-33998885D01*
X44818249Y-33998603D01*
X44853416Y-34029759D01*
X44873238Y-34052133D01*
X44878160Y-34059264D01*
X44942236Y-34134966D01*
X44942242Y-34134972D01*
X44976989Y-34168674D01*
X44976992Y-34168677D01*
X44977000Y-34168684D01*
X45054637Y-34230427D01*
X45185373Y-34290508D01*
X45252366Y-34310352D01*
X45394730Y-34331167D01*
X49171555Y-34340160D01*
X49189499Y-34340203D01*
X49189499Y-34340202D01*
X49189501Y-34340203D01*
X49297577Y-34328778D01*
X49349383Y-34317572D01*
X49452504Y-34283317D01*
X49573543Y-34205529D01*
X49626347Y-34159774D01*
X49720567Y-34051040D01*
X49780338Y-33920163D01*
X49800023Y-33853124D01*
X49800024Y-33853120D01*
X49820500Y-33710704D01*
X49820500Y-31224500D01*
X49840185Y-31157461D01*
X49892989Y-31111706D01*
X49944500Y-31100500D01*
X60095990Y-31100500D01*
X60096000Y-31100500D01*
X60203456Y-31088947D01*
X60254967Y-31077741D01*
X60289197Y-31066347D01*
X60357497Y-31043616D01*
X60357498Y-31043615D01*
X60357498Y-31043614D01*
X60357504Y-31043613D01*
X60425442Y-30999950D01*
X60492479Y-30980267D01*
X60543991Y-30991472D01*
X60640041Y-31035338D01*
X60707080Y-31055023D01*
X60707084Y-31055024D01*
X60849500Y-31075500D01*
X62933110Y-31075500D01*
X63000149Y-31095185D01*
X63037425Y-31132460D01*
X63099170Y-31228537D01*
X63099179Y-31228548D01*
X63144923Y-31281340D01*
X63144926Y-31281343D01*
X63144930Y-31281347D01*
X63253664Y-31375567D01*
X63253667Y-31375568D01*
X63253668Y-31375569D01*
X63347925Y-31418616D01*
X63384541Y-31435338D01*
X63451580Y-31455023D01*
X63451584Y-31455024D01*
X63594000Y-31475500D01*
X63594003Y-31475500D01*
X68145990Y-31475500D01*
X68146000Y-31475500D01*
X68253456Y-31463947D01*
X68304967Y-31452741D01*
X68339197Y-31441347D01*
X68407497Y-31418616D01*
X68407501Y-31418613D01*
X68407504Y-31418613D01*
X68528543Y-31340825D01*
X68581347Y-31295070D01*
X68675567Y-31186336D01*
X68735338Y-31055459D01*
X68755023Y-30988420D01*
X68755024Y-30988416D01*
X68775500Y-30846000D01*
X68775500Y-27269000D01*
X68763947Y-27161544D01*
X68752741Y-27110033D01*
X68742302Y-27078668D01*
X68718616Y-27007502D01*
X68718613Y-27007496D01*
X68640825Y-26886457D01*
X68636112Y-26881018D01*
X68595076Y-26833659D01*
X68595072Y-26833656D01*
X68595070Y-26833653D01*
X68486336Y-26739433D01*
X68486333Y-26739431D01*
X68486331Y-26739430D01*
X68355465Y-26679664D01*
X68355460Y-26679662D01*
X68355459Y-26679662D01*
X68288420Y-26659977D01*
X68288422Y-26659977D01*
X68288417Y-26659976D01*
X68226347Y-26651052D01*
X68146000Y-26639500D01*
X63594000Y-26639500D01*
X63593991Y-26639500D01*
X63593990Y-26639501D01*
X63486549Y-26651052D01*
X63486537Y-26651054D01*
X63435027Y-26662260D01*
X63332502Y-26696383D01*
X63332496Y-26696386D01*
X63257141Y-26744815D01*
X63190101Y-26764500D01*
X60847514Y-26764500D01*
X60713797Y-26782510D01*
X60713786Y-26782512D01*
X60650504Y-26799873D01*
X60526299Y-26852626D01*
X60526296Y-26852628D01*
X60524246Y-26854281D01*
X60521960Y-26855227D01*
X60518930Y-26857044D01*
X60518660Y-26856594D01*
X60459694Y-26881018D01*
X60394930Y-26870522D01*
X60305465Y-26829664D01*
X60305460Y-26829662D01*
X60305459Y-26829662D01*
X60238420Y-26809977D01*
X60238422Y-26809977D01*
X60238417Y-26809976D01*
X60176347Y-26801052D01*
X60096000Y-26789500D01*
X48419000Y-26789500D01*
X48418991Y-26789500D01*
X48418990Y-26789501D01*
X48311549Y-26801052D01*
X48311537Y-26801054D01*
X48260027Y-26812260D01*
X48157502Y-26846383D01*
X48157496Y-26846386D01*
X48036462Y-26924171D01*
X48036451Y-26924179D01*
X47983659Y-26969923D01*
X47889433Y-27078664D01*
X47889430Y-27078668D01*
X47829664Y-27209534D01*
X47809976Y-27276582D01*
X47789500Y-27419001D01*
X47789500Y-28040500D01*
X47769815Y-28107539D01*
X47717011Y-28153294D01*
X47665500Y-28164500D01*
X44194000Y-28164500D01*
X44193991Y-28164500D01*
X44193990Y-28164501D01*
X44086549Y-28176052D01*
X44086537Y-28176054D01*
X44035027Y-28187260D01*
X43932497Y-28221385D01*
X43932495Y-28221386D01*
X43896043Y-28244814D01*
X43829004Y-28264500D01*
X40374000Y-28264500D01*
X40373991Y-28264500D01*
X40373990Y-28264501D01*
X40266549Y-28276052D01*
X40266537Y-28276054D01*
X40215027Y-28287260D01*
X40112502Y-28321383D01*
X40112496Y-28321386D01*
X39991462Y-28399171D01*
X39991451Y-28399179D01*
X39938659Y-28444923D01*
X39844433Y-28553664D01*
X39844430Y-28553668D01*
X39784664Y-28684534D01*
X39784662Y-28684541D01*
X39764977Y-28751580D01*
X39764976Y-28751584D01*
X39744500Y-28894000D01*
X39744500Y-33336000D01*
X1005500Y-33336000D01*
X1005500Y-15720006D01*
X15584467Y-15720006D01*
X15604587Y-16193673D01*
X15664810Y-16663961D01*
X15764696Y-17127432D01*
X15764698Y-17127440D01*
X15903527Y-17580765D01*
X15903529Y-17580770D01*
X16080298Y-18020677D01*
X16080302Y-18020688D01*
X16293741Y-18444018D01*
X16293751Y-18444036D01*
X16542332Y-18847758D01*
X16824256Y-19228944D01*
X16824261Y-19228949D01*
X16824262Y-19228951D01*
X17137489Y-19584846D01*
X17479788Y-19912913D01*
X17479790Y-19912914D01*
X17848654Y-20210751D01*
X17848655Y-20210752D01*
X17999322Y-20312584D01*
X18241464Y-20476244D01*
X18425423Y-20579009D01*
X18655362Y-20707462D01*
X18655384Y-20707473D01*
X19087391Y-20902752D01*
X19087398Y-20902755D01*
X19534429Y-21060701D01*
X19993244Y-21180167D01*
X20460538Y-21260293D01*
X20606774Y-21272739D01*
X20932924Y-21300499D01*
X20932941Y-21300499D01*
X20932943Y-21300500D01*
X20932944Y-21300500D01*
X21407056Y-21300500D01*
X21407057Y-21300500D01*
X21407058Y-21300499D01*
X21407075Y-21300499D01*
X21688242Y-21276567D01*
X21879462Y-21260293D01*
X22346756Y-21180167D01*
X22805571Y-21060701D01*
X23252602Y-20902755D01*
X23684628Y-20707467D01*
X24098536Y-20476244D01*
X24491343Y-20210753D01*
X24860209Y-19912914D01*
X24860211Y-19912913D01*
X24860215Y-19912908D01*
X24860220Y-19912905D01*
X25202510Y-19584847D01*
X25515744Y-19228944D01*
X25797668Y-18847758D01*
X26046249Y-18444036D01*
X26259697Y-18020688D01*
X26436473Y-17580763D01*
X26575304Y-17127432D01*
X26675190Y-16663960D01*
X26735411Y-16193686D01*
X26755533Y-15720000D01*
X26735411Y-15246314D01*
X26675190Y-14776040D01*
X26575304Y-14312568D01*
X26436473Y-13859237D01*
X26259697Y-13419312D01*
X26259697Y-13419311D01*
X26046258Y-12995981D01*
X26046247Y-12995961D01*
X25797668Y-12592242D01*
X25515744Y-12211056D01*
X25202510Y-11855153D01*
X24860220Y-11527095D01*
X24860211Y-11527086D01*
X24860209Y-11527085D01*
X24491345Y-11229248D01*
X24491344Y-11229247D01*
X24098546Y-10963763D01*
X24098536Y-10963756D01*
X24087662Y-10957681D01*
X23684637Y-10732537D01*
X23684615Y-10732526D01*
X23252608Y-10537247D01*
X22805566Y-10379297D01*
X22346754Y-10259832D01*
X21879472Y-10179708D01*
X21879446Y-10179705D01*
X21407075Y-10139500D01*
X21407057Y-10139500D01*
X20932943Y-10139500D01*
X20932924Y-10139500D01*
X20460553Y-10179705D01*
X20460527Y-10179708D01*
X19993245Y-10259832D01*
X19534433Y-10379297D01*
X19087391Y-10537247D01*
X18655384Y-10732526D01*
X18655362Y-10732537D01*
X18241472Y-10963751D01*
X18241453Y-10963763D01*
X17848655Y-11229247D01*
X17848654Y-11229248D01*
X17479790Y-11527085D01*
X17479788Y-11527086D01*
X17137489Y-11855153D01*
X16824262Y-12211048D01*
X16542331Y-12592243D01*
X16293752Y-12995961D01*
X16293741Y-12995981D01*
X16080302Y-13419311D01*
X16080298Y-13419322D01*
X15903529Y-13859229D01*
X15903527Y-13859234D01*
X15764698Y-14312559D01*
X15764696Y-14312567D01*
X15664810Y-14776038D01*
X15604587Y-15246326D01*
X15584467Y-15719993D01*
X15584467Y-15720006D01*
X1005500Y-15720006D01*
X1005500Y-3921288D01*
X2819500Y-3921288D01*
X2851161Y-4161785D01*
X2913947Y-4396104D01*
X3006773Y-4620205D01*
X3006776Y-4620212D01*
X3128064Y-4830289D01*
X3128066Y-4830292D01*
X3128067Y-4830293D01*
X3275733Y-5022736D01*
X3275739Y-5022743D01*
X3447256Y-5194260D01*
X3447262Y-5194265D01*
X3639711Y-5341936D01*
X3849788Y-5463224D01*
X4073900Y-5556054D01*
X4308211Y-5618838D01*
X4488586Y-5642584D01*
X4548711Y-5650500D01*
X4548712Y-5650500D01*
X4791289Y-5650500D01*
X4839388Y-5644167D01*
X5031789Y-5618838D01*
X5266100Y-5556054D01*
X5490212Y-5463224D01*
X5700289Y-5341936D01*
X5892738Y-5194265D01*
X6064265Y-5022738D01*
X6211936Y-4830289D01*
X6333224Y-4620212D01*
X6426054Y-4396100D01*
X6488838Y-4161789D01*
X6520500Y-3921288D01*
X82819500Y-3921288D01*
X82851161Y-4161785D01*
X82913947Y-4396104D01*
X83006773Y-4620205D01*
X83006776Y-4620212D01*
X83128064Y-4830289D01*
X83128066Y-4830292D01*
X83128067Y-4830293D01*
X83275733Y-5022736D01*
X83275739Y-5022743D01*
X83447256Y-5194260D01*
X83447262Y-5194265D01*
X83639711Y-5341936D01*
X83849788Y-5463224D01*
X84073900Y-5556054D01*
X84308211Y-5618838D01*
X84488586Y-5642584D01*
X84548711Y-5650500D01*
X84548712Y-5650500D01*
X84791289Y-5650500D01*
X84839388Y-5644167D01*
X85031789Y-5618838D01*
X85266100Y-5556054D01*
X85490212Y-5463224D01*
X85700289Y-5341936D01*
X85892738Y-5194265D01*
X86064265Y-5022738D01*
X86211936Y-4830289D01*
X86333224Y-4620212D01*
X86426054Y-4396100D01*
X86488838Y-4161789D01*
X86520500Y-3921288D01*
X86520500Y-3678712D01*
X86488838Y-3438211D01*
X86426054Y-3203900D01*
X86333224Y-2979788D01*
X86211936Y-2769711D01*
X86064265Y-2577262D01*
X86064260Y-2577256D01*
X85892743Y-2405739D01*
X85892736Y-2405733D01*
X85700293Y-2258067D01*
X85700292Y-2258066D01*
X85700289Y-2258064D01*
X85490212Y-2136776D01*
X85490205Y-2136773D01*
X85266104Y-2043947D01*
X85031785Y-1981161D01*
X84791289Y-1949500D01*
X84791288Y-1949500D01*
X84548712Y-1949500D01*
X84548711Y-1949500D01*
X84308214Y-1981161D01*
X84073895Y-2043947D01*
X83849794Y-2136773D01*
X83849785Y-2136777D01*
X83639706Y-2258067D01*
X83447263Y-2405733D01*
X83447256Y-2405739D01*
X83275739Y-2577256D01*
X83275733Y-2577263D01*
X83128067Y-2769706D01*
X83006777Y-2979785D01*
X83006773Y-2979794D01*
X82913947Y-3203895D01*
X82851161Y-3438214D01*
X82819500Y-3678711D01*
X82819500Y-3921288D01*
X6520500Y-3921288D01*
X6520500Y-3678712D01*
X6488838Y-3438211D01*
X6426054Y-3203900D01*
X6333224Y-2979788D01*
X6211936Y-2769711D01*
X6064265Y-2577262D01*
X6064260Y-2577256D01*
X5892743Y-2405739D01*
X5892736Y-2405733D01*
X5700293Y-2258067D01*
X5700292Y-2258066D01*
X5700289Y-2258064D01*
X5490212Y-2136776D01*
X5490205Y-2136773D01*
X5266104Y-2043947D01*
X5031785Y-1981161D01*
X4791289Y-1949500D01*
X4791288Y-1949500D01*
X4548712Y-1949500D01*
X4548711Y-1949500D01*
X4308214Y-1981161D01*
X4073895Y-2043947D01*
X3849794Y-2136773D01*
X3849785Y-2136777D01*
X3639706Y-2258067D01*
X3447263Y-2405733D01*
X3447256Y-2405739D01*
X3275739Y-2577256D01*
X3275733Y-2577263D01*
X3128067Y-2769706D01*
X3006777Y-2979785D01*
X3006773Y-2979794D01*
X2913947Y-3203895D01*
X2851161Y-3438214D01*
X2819500Y-3678711D01*
X2819500Y-3921288D01*
X1005500Y-3921288D01*
X1005500Y-1124500D01*
X1025185Y-1057461D01*
X1077989Y-1011706D01*
X1129500Y-1000500D01*
X87880500Y-1000500D01*
X87947539Y-1020185D01*
G37*
%TD.AperFunction*%
%TD*%
M02*
