%TF.GenerationSoftware,KiCad,Pcbnew,8.0.0*%
%TF.CreationDate,2024-05-06T14:44:26-07:00*%
%TF.ProjectId,phi2_50MHz_EPC8010,70686932-5f35-4304-9d48-7a5f45504338,rev?*%
%TF.SameCoordinates,Original*%
%TF.FileFunction,Paste,Top*%
%TF.FilePolarity,Positive*%
%FSLAX46Y46*%
G04 Gerber Fmt 4.6, Leading zero omitted, Abs format (unit mm)*
G04 Created by KiCad (PCBNEW 8.0.0) date 2024-05-06 14:44:26*
%MOMM*%
%LPD*%
G01*
G04 APERTURE LIST*
G04 Aperture macros list*
%AMRoundRect*
0 Rectangle with rounded corners*
0 $1 Rounding radius*
0 $2 $3 $4 $5 $6 $7 $8 $9 X,Y pos of 4 corners*
0 Add a 4 corners polygon primitive as box body*
4,1,4,$2,$3,$4,$5,$6,$7,$8,$9,$2,$3,0*
0 Add four circle primitives for the rounded corners*
1,1,$1+$1,$2,$3*
1,1,$1+$1,$4,$5*
1,1,$1+$1,$6,$7*
1,1,$1+$1,$8,$9*
0 Add four rect primitives between the rounded corners*
20,1,$1+$1,$2,$3,$4,$5,0*
20,1,$1+$1,$4,$5,$6,$7,0*
20,1,$1+$1,$6,$7,$8,$9,0*
20,1,$1+$1,$8,$9,$2,$3,0*%
%AMRotRect*
0 Rectangle, with rotation*
0 The origin of the aperture is its center*
0 $1 length*
0 $2 width*
0 $3 Rotation angle, in degrees counterclockwise*
0 Add horizontal line*
21,1,$1,$2,0,0,$3*%
%AMFreePoly0*
4,1,25,-1.500000,1.420000,-1.360000,1.280000,-1.205000,1.155000,-1.035000,1.045000,-0.860000,0.950000,-0.675001,0.875000,-0.480000,0.820000,-0.280000,0.780000,-0.085000,0.765000,0.085000,0.765000,0.280000,0.780000,0.480000,0.820000,0.675001,0.875000,0.860000,0.950000,1.035000,1.045000,1.205000,1.155000,1.360000,1.280000,1.500000,1.420000,1.645000,1.595000,3.555000,1.595000,
3.555000,-0.755000,-3.555000,-0.755000,-3.555000,1.595000,-1.645000,1.595000,-1.500000,1.420000,-1.500000,1.420000,$1*%
G04 Aperture macros list end*
%ADD10RoundRect,0.034800X0.081200X0.261200X-0.081200X0.261200X-0.081200X-0.261200X0.081200X-0.261200X0*%
%ADD11RoundRect,0.033300X-0.191700X0.077700X-0.191700X-0.077700X0.191700X-0.077700X0.191700X0.077700X0*%
%ADD12RoundRect,0.033300X0.102700X0.077700X-0.102700X0.077700X-0.102700X-0.077700X0.102700X-0.077700X0*%
%ADD13FreePoly0,135.000000*%
%ADD14FreePoly0,315.000000*%
%ADD15C,1.730000*%
%ADD16FreePoly0,180.000000*%
%ADD17FreePoly0,0.000000*%
%ADD18R,4.320000X4.700000*%
%ADD19RoundRect,0.250000X-0.325000X-0.650000X0.325000X-0.650000X0.325000X0.650000X-0.325000X0.650000X0*%
%ADD20RoundRect,0.150000X0.150000X0.200000X-0.150000X0.200000X-0.150000X-0.200000X0.150000X-0.200000X0*%
%ADD21RoundRect,0.150000X0.150000X-0.512500X0.150000X0.512500X-0.150000X0.512500X-0.150000X-0.512500X0*%
%ADD22R,10.340000X3.300000*%
%ADD23RoundRect,0.225000X-0.250000X0.225000X-0.250000X-0.225000X0.250000X-0.225000X0.250000X0.225000X0*%
%ADD24RotRect,3.810000X4.700000X315.000000*%
%ADD25RoundRect,0.250000X0.650000X-0.325000X0.650000X0.325000X-0.650000X0.325000X-0.650000X-0.325000X0*%
%ADD26RoundRect,0.200000X-0.275000X0.200000X-0.275000X-0.200000X0.275000X-0.200000X0.275000X0.200000X0*%
%ADD27RoundRect,0.225000X0.225000X0.250000X-0.225000X0.250000X-0.225000X-0.250000X0.225000X-0.250000X0*%
%ADD28RoundRect,0.250000X-0.475000X0.250000X-0.475000X-0.250000X0.475000X-0.250000X0.475000X0.250000X0*%
%ADD29R,0.300000X0.660000*%
%ADD30RoundRect,0.140000X-0.170000X0.140000X-0.170000X-0.140000X0.170000X-0.140000X0.170000X0.140000X0*%
%ADD31RoundRect,0.085000X0.085000X-0.265000X0.085000X0.265000X-0.085000X0.265000X-0.085000X-0.265000X0*%
%ADD32RoundRect,0.140000X0.170000X-0.140000X0.170000X0.140000X-0.170000X0.140000X-0.170000X-0.140000X0*%
%ADD33RoundRect,0.200000X0.200000X0.275000X-0.200000X0.275000X-0.200000X-0.275000X0.200000X-0.275000X0*%
%ADD34RoundRect,0.225000X-0.225000X-0.250000X0.225000X-0.250000X0.225000X0.250000X-0.225000X0.250000X0*%
%ADD35R,1.500000X4.200000*%
%ADD36RoundRect,0.200000X-0.200000X-0.275000X0.200000X-0.275000X0.200000X0.275000X-0.200000X0.275000X0*%
%ADD37RoundRect,0.250000X-1.500000X-0.550000X1.500000X-0.550000X1.500000X0.550000X-1.500000X0.550000X0*%
%ADD38RoundRect,0.135000X0.185000X-0.135000X0.185000X0.135000X-0.185000X0.135000X-0.185000X-0.135000X0*%
%ADD39RoundRect,0.225000X0.250000X-0.225000X0.250000X0.225000X-0.250000X0.225000X-0.250000X-0.225000X0*%
%ADD40RotRect,3.810000X4.700000X225.000000*%
G04 APERTURE END LIST*
D10*
%TO.C,Q1*%
X43440000Y-35110000D03*
X43840000Y-35110000D03*
D11*
X44440000Y-35310000D03*
X44440000Y-34910000D03*
D12*
X45040000Y-35310000D03*
X45040000Y-34910000D03*
%TD*%
D13*
%TO.C,J2*%
X63334899Y-44715101D03*
D14*
X59375101Y-48674899D03*
D15*
X61355000Y-46695000D03*
%TD*%
%TO.C,J1*%
X44320000Y-61290000D03*
D16*
X44320000Y-58490000D03*
D17*
X44320000Y-64090000D03*
%TD*%
D18*
%TO.C,L1*%
X42430000Y-31640000D03*
X31510000Y-31640000D03*
%TD*%
D19*
%TO.C,C4*%
X30345000Y-26370000D03*
X33295000Y-26370000D03*
%TD*%
D20*
%TO.C,D8*%
X44012500Y-40640000D03*
X45412500Y-40640000D03*
%TD*%
D19*
%TO.C,C2*%
X30345000Y-21570000D03*
X33295000Y-21570000D03*
%TD*%
D21*
%TO.C,U4*%
X42370000Y-54722500D03*
X43320000Y-54722500D03*
X44270000Y-54722500D03*
X44270000Y-52447500D03*
X43320000Y-52447500D03*
X42370000Y-52447500D03*
%TD*%
D22*
%TO.C,L2*%
X55230000Y-28960000D03*
X55230000Y-37800000D03*
%TD*%
D23*
%TO.C,C19*%
X47610000Y-33335000D03*
X47610000Y-34885000D03*
%TD*%
D24*
%TO.C,L3*%
X74410491Y-36380491D03*
X67049509Y-29019509D03*
%TD*%
D25*
%TO.C,C28*%
X30970000Y-40995000D03*
X30970000Y-38045000D03*
%TD*%
D23*
%TO.C,C20*%
X49020000Y-34885000D03*
X49020000Y-33335000D03*
%TD*%
D26*
%TO.C,R7*%
X24320000Y-37395000D03*
X24320000Y-39045000D03*
%TD*%
D27*
%TO.C,C12*%
X68815000Y-35685000D03*
X70365000Y-35685000D03*
%TD*%
D25*
%TO.C,C26*%
X35870000Y-40995000D03*
X35870000Y-38045000D03*
%TD*%
D27*
%TO.C,C21*%
X68815000Y-37235000D03*
X70365000Y-37235000D03*
%TD*%
D28*
%TO.C,C24*%
X22970000Y-41740000D03*
X22970000Y-43640000D03*
%TD*%
D19*
%TO.C,C3*%
X30345000Y-23970000D03*
X33295000Y-23970000D03*
%TD*%
D29*
%TO.C,U5*%
X40270000Y-50115000D03*
X40920000Y-50115000D03*
X41570000Y-50115000D03*
X41570000Y-48275000D03*
X40920000Y-48275000D03*
X40270000Y-48275000D03*
%TD*%
D30*
%TO.C,C10*%
X41070000Y-54055000D03*
X41070000Y-55015000D03*
%TD*%
D20*
%TO.C,D4*%
X41370000Y-40620000D03*
X42770000Y-40620000D03*
%TD*%
%TO.C,D3*%
X41370000Y-39220000D03*
X42770000Y-39220000D03*
%TD*%
%TO.C,D1*%
X41370000Y-36420000D03*
X42770000Y-36420000D03*
%TD*%
%TO.C,D7*%
X44012500Y-39240000D03*
X45412500Y-39240000D03*
%TD*%
D25*
%TO.C,C27*%
X33470000Y-40995000D03*
X33470000Y-38045000D03*
%TD*%
D23*
%TO.C,C15*%
X46280000Y-33335000D03*
X46280000Y-34885000D03*
%TD*%
D31*
%TO.C,U1*%
X26220000Y-41170000D03*
X26720000Y-41170000D03*
X27220000Y-41170000D03*
X27220000Y-39670000D03*
X26720000Y-39670000D03*
X26220000Y-39670000D03*
%TD*%
D20*
%TO.C,D2*%
X41370000Y-37820000D03*
X42770000Y-37820000D03*
%TD*%
D32*
%TO.C,C8*%
X39320000Y-50325000D03*
X39320000Y-49365000D03*
%TD*%
D23*
%TO.C,C7*%
X50780000Y-40980000D03*
X50780000Y-42530000D03*
%TD*%
%TO.C,C25*%
X24770000Y-41695000D03*
X24770000Y-43245000D03*
%TD*%
D33*
%TO.C,R6*%
X41295000Y-56435000D03*
X39645000Y-56435000D03*
%TD*%
D20*
%TO.C,D5*%
X44010000Y-36450000D03*
X45410000Y-36450000D03*
%TD*%
D23*
%TO.C,C5*%
X53930000Y-40980000D03*
X53930000Y-42530000D03*
%TD*%
D26*
%TO.C,R3*%
X24320000Y-34295000D03*
X24320000Y-35945000D03*
%TD*%
D34*
%TO.C,C13*%
X61455000Y-28330000D03*
X63005000Y-28330000D03*
%TD*%
D26*
%TO.C,R5*%
X45820000Y-52760000D03*
X45820000Y-54410000D03*
%TD*%
D35*
%TO.C,L5*%
X26820000Y-44670000D03*
X30420000Y-44670000D03*
%TD*%
D36*
%TO.C,R4*%
X42695000Y-56435000D03*
X44345000Y-56435000D03*
%TD*%
D37*
%TO.C,C1*%
X29070000Y-16620000D03*
X34470000Y-16620000D03*
%TD*%
D38*
%TO.C,R2*%
X25970000Y-34870000D03*
X25970000Y-33850000D03*
%TD*%
D39*
%TO.C,C29*%
X37870000Y-41095000D03*
X37870000Y-39545000D03*
%TD*%
D40*
%TO.C,L4*%
X66589509Y-52100491D03*
X73950491Y-44739509D03*
%TD*%
D20*
%TO.C,D6*%
X44012500Y-37850000D03*
X45412500Y-37850000D03*
%TD*%
D29*
%TO.C,U6*%
X42670000Y-50115000D03*
X43320000Y-50115000D03*
X43970000Y-50115000D03*
X43970000Y-48275000D03*
X43320000Y-48275000D03*
X42670000Y-48275000D03*
%TD*%
D27*
%TO.C,C18*%
X29095000Y-38220000D03*
X27545000Y-38220000D03*
%TD*%
D38*
%TO.C,R1*%
X25970000Y-36880000D03*
X25970000Y-35860000D03*
%TD*%
D34*
%TO.C,C14*%
X61455000Y-29880000D03*
X63005000Y-29880000D03*
%TD*%
D23*
%TO.C,C6*%
X52380000Y-40980000D03*
X52380000Y-42530000D03*
%TD*%
D32*
%TO.C,C11*%
X47320000Y-50275000D03*
X47320000Y-49315000D03*
%TD*%
D28*
%TO.C,C23*%
X20920000Y-41740000D03*
X20920000Y-43640000D03*
%TD*%
D29*
%TO.C,U7*%
X45070000Y-50115000D03*
X45720000Y-50115000D03*
X46370000Y-50115000D03*
X46370000Y-48275000D03*
X45720000Y-48275000D03*
X45070000Y-48275000D03*
%TD*%
D27*
%TO.C,C22*%
X68815000Y-38785000D03*
X70365000Y-38785000D03*
%TD*%
M02*
