%TF.GenerationSoftware,KiCad,Pcbnew,8.0.0*%
%TF.CreationDate,2024-05-06T14:44:27-07:00*%
%TF.ProjectId,phi2_50MHz_EPC8010,70686932-5f35-4304-9d48-7a5f45504338,rev?*%
%TF.SameCoordinates,Original*%
%TF.FileFunction,Soldermask,Bot*%
%TF.FilePolarity,Negative*%
%FSLAX46Y46*%
G04 Gerber Fmt 4.6, Leading zero omitted, Abs format (unit mm)*
G04 Created by KiCad (PCBNEW 8.0.0) date 2024-05-06 14:44:27*
%MOMM*%
%LPD*%
G01*
G04 APERTURE LIST*
%ADD10C,0.100000*%
%ADD11C,3.200000*%
%ADD12C,10.160000*%
%ADD13C,1.500000*%
%ADD14C,0.400000*%
%ADD15C,0.600000*%
%ADD16C,1.000000*%
%ADD17C,0.800000*%
G04 APERTURE END LIST*
D10*
X44800000Y-34360000D02*
X45380000Y-34360000D01*
X45380000Y-35410000D01*
X44800000Y-35410000D01*
X44800000Y-34360000D01*
G36*
X44800000Y-34360000D02*
G01*
X45380000Y-34360000D01*
X45380000Y-35410000D01*
X44800000Y-35410000D01*
X44800000Y-34360000D01*
G37*
X43650000Y-35100000D02*
X45200000Y-35100000D01*
X45200000Y-35410000D01*
X43650000Y-35410000D01*
X43650000Y-35100000D01*
G36*
X43650000Y-35100000D02*
G01*
X45200000Y-35100000D01*
X45200000Y-35410000D01*
X43650000Y-35410000D01*
X43650000Y-35100000D01*
G37*
X43640000Y-34240000D02*
X44120000Y-34240000D01*
X44120000Y-35360000D01*
X43640000Y-35360000D01*
X43640000Y-34240000D01*
G36*
X43640000Y-34240000D02*
G01*
X44120000Y-34240000D01*
X44120000Y-35360000D01*
X43640000Y-35360000D01*
X43640000Y-34240000D01*
G37*
X44870000Y-35880000D02*
X47750000Y-35880000D01*
X47750000Y-42250000D01*
X44870000Y-42250000D01*
X44870000Y-35880000D01*
G36*
X44870000Y-35880000D02*
G01*
X47750000Y-35880000D01*
X47750000Y-42250000D01*
X44870000Y-42250000D01*
X44870000Y-35880000D01*
G37*
D11*
%TO.C,REF\u002A\u002A*%
X4590000Y-41300000D03*
%TD*%
%TO.C,REF\u002A\u002A*%
X4590000Y-3780000D03*
%TD*%
%TO.C,REF\u002A\u002A*%
X84590000Y-84780000D03*
%TD*%
%TO.C,REF\u002A\u002A*%
X84590000Y-3780000D03*
%TD*%
%TO.C,REF\u002A\u002A*%
X84590000Y-41300000D03*
%TD*%
%TO.C,REF\u002A\u002A*%
X4590000Y-84780000D03*
%TD*%
D12*
%TO.C,J6*%
X43990000Y-20400000D03*
%TD*%
%TO.C,J5*%
X19510000Y-16570000D03*
%TD*%
D13*
X61500000Y-55290000D03*
X54590000Y-48420000D03*
X67240000Y-43730000D03*
X70270000Y-48420000D03*
D14*
X40160000Y-51480000D03*
X41460000Y-51930000D03*
X43840000Y-34560000D03*
X44640000Y-35670000D03*
X45430000Y-35320000D03*
D13*
X47710000Y-69190000D03*
X40710000Y-69200000D03*
X26620000Y-48170000D03*
D15*
X37870000Y-39420000D03*
D13*
X46750000Y-44290000D03*
X61620000Y-20170000D03*
X35470000Y-28870000D03*
X78350000Y-40940000D03*
X6205000Y-62200000D03*
D14*
X40916409Y-49686409D03*
D13*
X61620000Y-62170000D03*
D16*
X42545000Y-64260000D03*
D14*
X46420000Y-40620000D03*
D13*
X76205000Y-48200000D03*
D14*
X42370000Y-52835000D03*
D13*
X54720000Y-76070000D03*
X76205000Y-55200000D03*
X54620000Y-69170000D03*
X61620000Y-34170000D03*
X76205000Y-62200000D03*
D15*
X35420000Y-37770000D03*
X24170000Y-40370000D03*
D13*
X68620000Y-34170000D03*
D16*
X47270000Y-58360000D03*
X57165000Y-46710000D03*
X60565000Y-50110000D03*
D13*
X83205000Y-76200000D03*
X12620000Y-34170000D03*
X40620000Y-6170000D03*
X54620000Y-13170000D03*
X12620000Y-6170000D03*
D15*
X39730000Y-56440000D03*
D13*
X54620000Y-55170000D03*
X40620000Y-13170000D03*
X61720000Y-76070000D03*
X76205000Y-27200000D03*
X6205000Y-55200000D03*
X54620000Y-62170000D03*
X47620000Y-6170000D03*
X40620000Y-43470000D03*
D15*
X33020000Y-37770000D03*
D14*
X46420000Y-36420000D03*
D13*
X19620000Y-6170000D03*
D14*
X39330000Y-50120000D03*
D13*
X12620000Y-41170000D03*
X6205000Y-27200000D03*
X6205000Y-20200000D03*
X6205000Y-13200000D03*
D14*
X45270000Y-39220000D03*
D16*
X65490000Y-46685000D03*
D15*
X33020000Y-23570000D03*
D14*
X42383790Y-52235156D03*
D13*
X83205000Y-48200000D03*
D15*
X22620000Y-43420000D03*
D13*
X68620000Y-6170000D03*
D15*
X33020000Y-21970000D03*
X33020000Y-24420000D03*
D17*
X46270000Y-34670000D03*
D13*
X76205000Y-69200000D03*
X54620000Y-6170000D03*
D15*
X28070000Y-40370000D03*
X33920000Y-37770000D03*
D13*
X33620000Y-83180000D03*
X68620000Y-55170000D03*
D16*
X47270000Y-63185000D03*
D13*
X38220000Y-28820000D03*
X12620000Y-20170000D03*
X68620000Y-13170000D03*
D15*
X36320000Y-37770000D03*
D13*
X68620000Y-20170000D03*
D16*
X57965000Y-45910000D03*
X68840000Y-35675000D03*
D15*
X33020000Y-25920000D03*
D13*
X33620000Y-55170000D03*
D16*
X64665000Y-45860000D03*
D13*
X33620000Y-6170000D03*
D16*
X61290000Y-42535000D03*
X53920000Y-42590000D03*
D13*
X38120000Y-33920000D03*
X40620000Y-83180000D03*
X33720000Y-76070000D03*
X26620000Y-83180000D03*
X40720000Y-76070000D03*
D15*
X23320000Y-43420000D03*
D13*
X38220000Y-26370000D03*
X12620000Y-62170000D03*
X6205000Y-69200000D03*
X35470000Y-23870000D03*
X26620000Y-69170000D03*
X76205000Y-20200000D03*
X83205000Y-62200000D03*
X83205000Y-27200000D03*
X26620000Y-6170000D03*
X19720000Y-76070000D03*
X83205000Y-69200000D03*
X12620000Y-69170000D03*
X26620000Y-55170000D03*
X61620000Y-69170000D03*
D16*
X68810000Y-37205000D03*
D13*
X68720000Y-76070000D03*
D16*
X33220000Y-16570000D03*
D14*
X45270000Y-40620000D03*
D13*
X35470000Y-31320000D03*
D16*
X64690000Y-47510000D03*
X50780000Y-42590000D03*
D13*
X76205000Y-6200000D03*
X6205000Y-48200000D03*
X38120000Y-31320000D03*
X33620000Y-69170000D03*
D16*
X61315000Y-50935000D03*
D13*
X19620000Y-69170000D03*
D14*
X43333480Y-54884851D03*
D15*
X28220000Y-36870000D03*
D13*
X35420000Y-21470000D03*
X68620000Y-69170000D03*
X61620000Y-6170000D03*
D16*
X41345000Y-58335000D03*
X41320000Y-64260000D03*
D13*
X47620000Y-13170000D03*
X47720000Y-76070000D03*
D15*
X28070000Y-39470000D03*
D13*
X19620000Y-83180000D03*
D16*
X47295000Y-64260000D03*
D13*
X35470000Y-33870000D03*
D16*
X35670000Y-16570000D03*
D13*
X12620000Y-48170000D03*
D15*
X31420000Y-37770000D03*
D13*
X65550000Y-38950000D03*
X35470000Y-26370000D03*
D15*
X27760000Y-35860000D03*
D16*
X62165000Y-50110000D03*
D13*
X83205000Y-13200000D03*
X54620000Y-20170000D03*
D15*
X30470000Y-37770000D03*
D13*
X83205000Y-20200000D03*
X26620000Y-27170000D03*
D15*
X24770000Y-43070000D03*
X42790000Y-56450000D03*
D13*
X33620000Y-62170000D03*
D16*
X41320000Y-63110000D03*
D15*
X25070000Y-40370000D03*
D16*
X62065000Y-43335000D03*
D14*
X46420000Y-39220000D03*
X45710000Y-49710000D03*
D13*
X6205000Y-76200000D03*
X83205000Y-34200000D03*
X19620000Y-48170000D03*
X68620000Y-62170000D03*
X47620000Y-55170000D03*
D16*
X68800000Y-38765000D03*
D14*
X45270000Y-37820000D03*
D13*
X12620000Y-13170000D03*
D15*
X20570000Y-43420000D03*
D14*
X43330000Y-49675000D03*
D13*
X19620000Y-27170000D03*
D15*
X33020000Y-26820000D03*
D16*
X41345000Y-59485000D03*
D13*
X26620000Y-23870000D03*
X83205000Y-55200000D03*
X12620000Y-83180000D03*
D15*
X28070000Y-41320000D03*
D16*
X52370000Y-42590000D03*
D13*
X76205000Y-76200000D03*
D14*
X24570000Y-38970000D03*
D13*
X26720000Y-76070000D03*
D17*
X47630000Y-34680000D03*
D13*
X12620000Y-27170000D03*
X26620000Y-62170000D03*
X61620000Y-13170000D03*
D15*
X25970000Y-33830000D03*
D13*
X76205000Y-13200000D03*
X54620000Y-34170000D03*
D16*
X42520000Y-58335000D03*
D13*
X33620000Y-48170000D03*
D14*
X47309513Y-50035487D03*
D13*
X19720000Y-23870000D03*
D17*
X49040000Y-34690000D03*
D16*
X47270000Y-59510000D03*
D13*
X12720000Y-76070000D03*
D15*
X21270000Y-43420000D03*
D16*
X46095000Y-64260000D03*
D13*
X19620000Y-55170000D03*
D16*
X57965000Y-47510000D03*
D13*
X6205000Y-34200000D03*
D16*
X60540000Y-43385000D03*
D13*
X12620000Y-55170000D03*
D14*
X43320000Y-54285000D03*
D15*
X33020000Y-21120000D03*
D14*
X46420000Y-37820000D03*
D13*
X19620000Y-62170000D03*
D14*
X41070000Y-54935000D03*
X45270000Y-36420000D03*
D16*
X46120000Y-58360000D03*
D14*
X26150000Y-41180000D03*
X29095000Y-38220000D03*
X26720000Y-42370000D03*
M02*
