%TF.GenerationSoftware,KiCad,Pcbnew,8.0.0*%
%TF.CreationDate,2024-05-06T14:44:26-07:00*%
%TF.ProjectId,phi2_50MHz_EPC8010,70686932-5f35-4304-9d48-7a5f45504338,rev?*%
%TF.SameCoordinates,Original*%
%TF.FileFunction,Copper,L1,Top*%
%TF.FilePolarity,Positive*%
%FSLAX46Y46*%
G04 Gerber Fmt 4.6, Leading zero omitted, Abs format (unit mm)*
G04 Created by KiCad (PCBNEW 8.0.0) date 2024-05-06 14:44:26*
%MOMM*%
%LPD*%
G01*
G04 APERTURE LIST*
G04 Aperture macros list*
%AMRoundRect*
0 Rectangle with rounded corners*
0 $1 Rounding radius*
0 $2 $3 $4 $5 $6 $7 $8 $9 X,Y pos of 4 corners*
0 Add a 4 corners polygon primitive as box body*
4,1,4,$2,$3,$4,$5,$6,$7,$8,$9,$2,$3,0*
0 Add four circle primitives for the rounded corners*
1,1,$1+$1,$2,$3*
1,1,$1+$1,$4,$5*
1,1,$1+$1,$6,$7*
1,1,$1+$1,$8,$9*
0 Add four rect primitives between the rounded corners*
20,1,$1+$1,$2,$3,$4,$5,0*
20,1,$1+$1,$4,$5,$6,$7,0*
20,1,$1+$1,$6,$7,$8,$9,0*
20,1,$1+$1,$8,$9,$2,$3,0*%
%AMRotRect*
0 Rectangle, with rotation*
0 The origin of the aperture is its center*
0 $1 length*
0 $2 width*
0 $3 Rotation angle, in degrees counterclockwise*
0 Add horizontal line*
21,1,$1,$2,0,0,$3*%
%AMFreePoly0*
4,1,25,-1.500000,1.420000,-1.360000,1.280000,-1.205000,1.155000,-1.035000,1.045000,-0.860000,0.950000,-0.675001,0.875000,-0.480000,0.820000,-0.280000,0.780000,-0.085000,0.765000,0.085000,0.765000,0.280000,0.780000,0.480000,0.820000,0.675001,0.875000,0.860000,0.950000,1.035000,1.045000,1.205000,1.155000,1.360000,1.280000,1.500000,1.420000,1.645000,1.595000,3.555000,1.595000,
3.555000,-0.755000,-3.555000,-0.755000,-3.555000,1.595000,-1.645000,1.595000,-1.500000,1.420000,-1.500000,1.420000,$1*%
G04 Aperture macros list end*
%TA.AperFunction,SMDPad,CuDef*%
%ADD10RoundRect,0.042000X0.098000X0.278000X-0.098000X0.278000X-0.098000X-0.278000X0.098000X-0.278000X0*%
%TD*%
%TA.AperFunction,SMDPad,CuDef*%
%ADD11RoundRect,0.040500X-0.208500X0.094500X-0.208500X-0.094500X0.208500X-0.094500X0.208500X0.094500X0*%
%TD*%
%TA.AperFunction,SMDPad,CuDef*%
%ADD12RoundRect,0.040500X0.119500X0.094500X-0.119500X0.094500X-0.119500X-0.094500X0.119500X-0.094500X0*%
%TD*%
%TA.AperFunction,ComponentPad*%
%ADD13C,10.160000*%
%TD*%
%TA.AperFunction,SMDPad,CuDef*%
%ADD14FreePoly0,135.000000*%
%TD*%
%TA.AperFunction,SMDPad,CuDef*%
%ADD15FreePoly0,315.000000*%
%TD*%
%TA.AperFunction,SMDPad,CuDef*%
%ADD16C,1.730000*%
%TD*%
%TA.AperFunction,SMDPad,CuDef*%
%ADD17FreePoly0,180.000000*%
%TD*%
%TA.AperFunction,SMDPad,CuDef*%
%ADD18FreePoly0,0.000000*%
%TD*%
%TA.AperFunction,SMDPad,CuDef*%
%ADD19R,4.320000X4.700000*%
%TD*%
%TA.AperFunction,SMDPad,CuDef*%
%ADD20RoundRect,0.250000X-0.325000X-0.650000X0.325000X-0.650000X0.325000X0.650000X-0.325000X0.650000X0*%
%TD*%
%TA.AperFunction,SMDPad,CuDef*%
%ADD21RoundRect,0.150000X0.150000X0.200000X-0.150000X0.200000X-0.150000X-0.200000X0.150000X-0.200000X0*%
%TD*%
%TA.AperFunction,SMDPad,CuDef*%
%ADD22RoundRect,0.150000X0.150000X-0.512500X0.150000X0.512500X-0.150000X0.512500X-0.150000X-0.512500X0*%
%TD*%
%TA.AperFunction,SMDPad,CuDef*%
%ADD23R,10.340000X3.300000*%
%TD*%
%TA.AperFunction,SMDPad,CuDef*%
%ADD24RoundRect,0.225000X-0.250000X0.225000X-0.250000X-0.225000X0.250000X-0.225000X0.250000X0.225000X0*%
%TD*%
%TA.AperFunction,SMDPad,CuDef*%
%ADD25RotRect,3.810000X4.700000X315.000000*%
%TD*%
%TA.AperFunction,SMDPad,CuDef*%
%ADD26RoundRect,0.250000X0.650000X-0.325000X0.650000X0.325000X-0.650000X0.325000X-0.650000X-0.325000X0*%
%TD*%
%TA.AperFunction,SMDPad,CuDef*%
%ADD27RoundRect,0.200000X-0.275000X0.200000X-0.275000X-0.200000X0.275000X-0.200000X0.275000X0.200000X0*%
%TD*%
%TA.AperFunction,SMDPad,CuDef*%
%ADD28RoundRect,0.225000X0.225000X0.250000X-0.225000X0.250000X-0.225000X-0.250000X0.225000X-0.250000X0*%
%TD*%
%TA.AperFunction,SMDPad,CuDef*%
%ADD29RoundRect,0.250000X-0.475000X0.250000X-0.475000X-0.250000X0.475000X-0.250000X0.475000X0.250000X0*%
%TD*%
%TA.AperFunction,SMDPad,CuDef*%
%ADD30R,0.300000X0.660000*%
%TD*%
%TA.AperFunction,SMDPad,CuDef*%
%ADD31RoundRect,0.140000X-0.170000X0.140000X-0.170000X-0.140000X0.170000X-0.140000X0.170000X0.140000X0*%
%TD*%
%TA.AperFunction,SMDPad,CuDef*%
%ADD32RoundRect,0.085000X0.085000X-0.265000X0.085000X0.265000X-0.085000X0.265000X-0.085000X-0.265000X0*%
%TD*%
%TA.AperFunction,SMDPad,CuDef*%
%ADD33RoundRect,0.140000X0.170000X-0.140000X0.170000X0.140000X-0.170000X0.140000X-0.170000X-0.140000X0*%
%TD*%
%TA.AperFunction,SMDPad,CuDef*%
%ADD34RoundRect,0.200000X0.200000X0.275000X-0.200000X0.275000X-0.200000X-0.275000X0.200000X-0.275000X0*%
%TD*%
%TA.AperFunction,SMDPad,CuDef*%
%ADD35RoundRect,0.225000X-0.225000X-0.250000X0.225000X-0.250000X0.225000X0.250000X-0.225000X0.250000X0*%
%TD*%
%TA.AperFunction,SMDPad,CuDef*%
%ADD36R,1.500000X4.200000*%
%TD*%
%TA.AperFunction,SMDPad,CuDef*%
%ADD37RoundRect,0.200000X-0.200000X-0.275000X0.200000X-0.275000X0.200000X0.275000X-0.200000X0.275000X0*%
%TD*%
%TA.AperFunction,SMDPad,CuDef*%
%ADD38RoundRect,0.250000X-1.500000X-0.550000X1.500000X-0.550000X1.500000X0.550000X-1.500000X0.550000X0*%
%TD*%
%TA.AperFunction,SMDPad,CuDef*%
%ADD39RoundRect,0.135000X0.185000X-0.135000X0.185000X0.135000X-0.185000X0.135000X-0.185000X-0.135000X0*%
%TD*%
%TA.AperFunction,SMDPad,CuDef*%
%ADD40RoundRect,0.225000X0.250000X-0.225000X0.250000X0.225000X-0.250000X0.225000X-0.250000X-0.225000X0*%
%TD*%
%TA.AperFunction,SMDPad,CuDef*%
%ADD41RotRect,3.810000X4.700000X225.000000*%
%TD*%
%TA.AperFunction,ViaPad*%
%ADD42C,1.500000*%
%TD*%
%TA.AperFunction,ViaPad*%
%ADD43C,0.400000*%
%TD*%
%TA.AperFunction,ViaPad*%
%ADD44C,0.600000*%
%TD*%
%TA.AperFunction,ViaPad*%
%ADD45C,1.000000*%
%TD*%
%TA.AperFunction,ViaPad*%
%ADD46C,0.800000*%
%TD*%
%TA.AperFunction,Conductor*%
%ADD47C,0.500000*%
%TD*%
%TA.AperFunction,Conductor*%
%ADD48C,1.000000*%
%TD*%
%TA.AperFunction,Conductor*%
%ADD49C,0.200000*%
%TD*%
%TA.AperFunction,Conductor*%
%ADD50C,0.300000*%
%TD*%
%TA.AperFunction,Conductor*%
%ADD51C,0.250000*%
%TD*%
%TA.AperFunction,Conductor*%
%ADD52C,1.500000*%
%TD*%
G04 APERTURE END LIST*
D10*
%TO.P,Q1,1,G*%
%TO.N,/G*%
X43440000Y-35110000D03*
%TO.P,Q1,2,SG*%
%TO.N,GND*%
X43840000Y-35110000D03*
D11*
%TO.P,Q1,3,SP1*%
X44440000Y-35310000D03*
%TO.P,Q1,4,D*%
%TO.N,/D*%
X44440000Y-34910000D03*
D12*
%TO.P,Q1,5,SP2*%
%TO.N,GND*%
X45040000Y-35310000D03*
%TO.P,Q1,6,Sub*%
X45040000Y-34910000D03*
%TD*%
D13*
%TO.P,J6,1,Pin_1*%
%TO.N,GND*%
X43990000Y-20400000D03*
%TD*%
%TO.P,J5,1,Pin_1*%
%TO.N,+12V*%
X19510000Y-16570000D03*
%TD*%
D14*
%TO.P,J2,2,Ext*%
%TO.N,GND*%
X63334899Y-44715101D03*
D15*
X59375101Y-48674899D03*
D16*
%TO.P,J2,1,In*%
%TO.N,/RF_OUT*%
X61355000Y-46695000D03*
%TD*%
%TO.P,J1,1,In*%
%TO.N,/RF_IN*%
X44320000Y-61290000D03*
D17*
%TO.P,J1,2,Ext*%
%TO.N,GND*%
X44320000Y-58490000D03*
D18*
X44320000Y-64090000D03*
%TD*%
D19*
%TO.P,L1,2,2*%
%TO.N,/D*%
X42430000Y-31640000D03*
%TO.P,L1,1,1*%
%TO.N,+12V*%
X31510000Y-31640000D03*
%TD*%
D20*
%TO.P,C4,1*%
%TO.N,+12V*%
X30345000Y-26370000D03*
%TO.P,C4,2*%
%TO.N,GND*%
X33295000Y-26370000D03*
%TD*%
D21*
%TO.P,D8,1,K*%
%TO.N,/G*%
X44012500Y-40640000D03*
%TO.P,D8,2,A*%
%TO.N,GND*%
X45412500Y-40640000D03*
%TD*%
D20*
%TO.P,C2,1*%
%TO.N,+12V*%
X30345000Y-21570000D03*
%TO.P,C2,2*%
%TO.N,GND*%
X33295000Y-21570000D03*
%TD*%
D22*
%TO.P,U4,1,-IN*%
%TO.N,Net-(U4--IN)*%
X42370000Y-54722500D03*
%TO.P,U4,2,V-*%
%TO.N,GND*%
X43320000Y-54722500D03*
%TO.P,U4,3,+IN*%
%TO.N,/RF_IN*%
X44270000Y-54722500D03*
%TO.P,U4,4,V+*%
%TO.N,+5V*%
X44270000Y-52447500D03*
%TO.P,U4,5,OUT*%
%TO.N,Net-(U4-OUT)*%
X43320000Y-52447500D03*
%TO.P,U4,6,SHDN*%
%TO.N,GND*%
X42370000Y-52447500D03*
%TD*%
D23*
%TO.P,L2,1,1*%
%TO.N,/D*%
X55230000Y-28960000D03*
%TO.P,L2,2,2*%
%TO.N,Net-(C5-Pad1)*%
X55230000Y-37800000D03*
%TD*%
D24*
%TO.P,C19,1*%
%TO.N,/D*%
X47610000Y-33335000D03*
%TO.P,C19,2*%
%TO.N,GND*%
X47610000Y-34885000D03*
%TD*%
D25*
%TO.P,L3,2,2*%
%TO.N,Net-(C12-Pad1)*%
X74410491Y-36380491D03*
%TO.P,L3,1,1*%
%TO.N,Net-(C13-Pad2)*%
X67049509Y-29019509D03*
%TD*%
D26*
%TO.P,C28,1*%
%TO.N,+5V*%
X30970000Y-40995000D03*
%TO.P,C28,2*%
%TO.N,GND*%
X30970000Y-38045000D03*
%TD*%
D24*
%TO.P,C20,2*%
%TO.N,GND*%
X49020000Y-34885000D03*
%TO.P,C20,1*%
%TO.N,/D*%
X49020000Y-33335000D03*
%TD*%
D27*
%TO.P,R7,1*%
%TO.N,Net-(U1-FB)*%
X24320000Y-37395000D03*
%TO.P,R7,2*%
%TO.N,GND*%
X24320000Y-39045000D03*
%TD*%
D28*
%TO.P,C12,2*%
%TO.N,GND*%
X68815000Y-35685000D03*
%TO.P,C12,1*%
%TO.N,Net-(C12-Pad1)*%
X70365000Y-35685000D03*
%TD*%
D26*
%TO.P,C26,1*%
%TO.N,+5V*%
X35870000Y-40995000D03*
%TO.P,C26,2*%
%TO.N,GND*%
X35870000Y-38045000D03*
%TD*%
D28*
%TO.P,C21,2*%
%TO.N,GND*%
X68815000Y-37235000D03*
%TO.P,C21,1*%
%TO.N,Net-(C12-Pad1)*%
X70365000Y-37235000D03*
%TD*%
D29*
%TO.P,C24,1*%
%TO.N,+12V*%
X22970000Y-41740000D03*
%TO.P,C24,2*%
%TO.N,GND*%
X22970000Y-43640000D03*
%TD*%
D20*
%TO.P,C3,1*%
%TO.N,+12V*%
X30345000Y-23970000D03*
%TO.P,C3,2*%
%TO.N,GND*%
X33295000Y-23970000D03*
%TD*%
D30*
%TO.P,U5,1,A1*%
%TO.N,Net-(U4-OUT)*%
X40270000Y-50115000D03*
%TO.P,U5,2,GND*%
%TO.N,GND*%
X40920000Y-50115000D03*
%TO.P,U5,3,A2*%
%TO.N,Net-(U4-OUT)*%
X41570000Y-50115000D03*
%TO.P,U5,4,Y2*%
%TO.N,/G1*%
X41570000Y-48275000D03*
%TO.P,U5,5,VCC*%
%TO.N,+5V*%
X40920000Y-48275000D03*
%TO.P,U5,6,Y1*%
%TO.N,/G1*%
X40270000Y-48275000D03*
%TD*%
D31*
%TO.P,C10,1*%
%TO.N,+5V*%
X41070000Y-54055000D03*
%TO.P,C10,2*%
%TO.N,GND*%
X41070000Y-55015000D03*
%TD*%
D21*
%TO.P,D4,1,K*%
%TO.N,+5V*%
X41370000Y-40620000D03*
%TO.P,D4,2,A*%
%TO.N,/G*%
X42770000Y-40620000D03*
%TD*%
%TO.P,D3,1,K*%
%TO.N,+5V*%
X41370000Y-39220000D03*
%TO.P,D3,2,A*%
%TO.N,/G*%
X42770000Y-39220000D03*
%TD*%
%TO.P,D1,1,K*%
%TO.N,+5V*%
X41370000Y-36420000D03*
%TO.P,D1,2,A*%
%TO.N,/G*%
X42770000Y-36420000D03*
%TD*%
%TO.P,D7,1,K*%
%TO.N,/G*%
X44012500Y-39240000D03*
%TO.P,D7,2,A*%
%TO.N,GND*%
X45412500Y-39240000D03*
%TD*%
D26*
%TO.P,C27,1*%
%TO.N,+5V*%
X33470000Y-40995000D03*
%TO.P,C27,2*%
%TO.N,GND*%
X33470000Y-38045000D03*
%TD*%
D24*
%TO.P,C15,1*%
%TO.N,/D*%
X46280000Y-33335000D03*
%TO.P,C15,2*%
%TO.N,GND*%
X46280000Y-34885000D03*
%TD*%
D32*
%TO.P,U1,1,VIN*%
%TO.N,+12V*%
X26220000Y-41170000D03*
%TO.P,U1,2,SW*%
%TO.N,Net-(U1-SW)*%
X26720000Y-41170000D03*
%TO.P,U1,3,GND*%
%TO.N,GND*%
X27220000Y-41170000D03*
%TO.P,U1,4,BST*%
%TO.N,Net-(U1-BST)*%
X27220000Y-39670000D03*
%TO.P,U1,5,EN*%
%TO.N,Net-(U1-EN)*%
X26720000Y-39670000D03*
%TO.P,U1,6,FB*%
%TO.N,Net-(U1-FB)*%
X26220000Y-39670000D03*
%TD*%
D21*
%TO.P,D2,1,K*%
%TO.N,+5V*%
X41370000Y-37820000D03*
%TO.P,D2,2,A*%
%TO.N,/G*%
X42770000Y-37820000D03*
%TD*%
D33*
%TO.P,C8,1*%
%TO.N,GND*%
X39320000Y-50325000D03*
%TO.P,C8,2*%
%TO.N,+5V*%
X39320000Y-49365000D03*
%TD*%
D24*
%TO.P,C7,1*%
%TO.N,Net-(C5-Pad1)*%
X50780000Y-40980000D03*
%TO.P,C7,2*%
%TO.N,GND*%
X50780000Y-42530000D03*
%TD*%
%TO.P,C25,1*%
%TO.N,+12V*%
X24770000Y-41695000D03*
%TO.P,C25,2*%
%TO.N,GND*%
X24770000Y-43245000D03*
%TD*%
D34*
%TO.P,R6,1*%
%TO.N,Net-(U4--IN)*%
X41295000Y-56435000D03*
%TO.P,R6,2*%
%TO.N,GND*%
X39645000Y-56435000D03*
%TD*%
D21*
%TO.P,D5,1,K*%
%TO.N,/G*%
X44010000Y-36450000D03*
%TO.P,D5,2,A*%
%TO.N,GND*%
X45410000Y-36450000D03*
%TD*%
D24*
%TO.P,C5,1*%
%TO.N,Net-(C5-Pad1)*%
X53930000Y-40980000D03*
%TO.P,C5,2*%
%TO.N,GND*%
X53930000Y-42530000D03*
%TD*%
D27*
%TO.P,R3,1*%
%TO.N,+5V*%
X24320000Y-34295000D03*
%TO.P,R3,2*%
%TO.N,Net-(U1-FB)*%
X24320000Y-35945000D03*
%TD*%
D35*
%TO.P,C13,1*%
%TO.N,/D*%
X61455000Y-28330000D03*
%TO.P,C13,2*%
%TO.N,Net-(C13-Pad2)*%
X63005000Y-28330000D03*
%TD*%
D27*
%TO.P,R5,1*%
%TO.N,+5V*%
X45820000Y-52760000D03*
%TO.P,R5,2*%
%TO.N,Net-(U4--IN)*%
X45820000Y-54410000D03*
%TD*%
D36*
%TO.P,L5,1*%
%TO.N,Net-(U1-SW)*%
X26820000Y-44670000D03*
%TO.P,L5,2*%
%TO.N,+5V*%
X30420000Y-44670000D03*
%TD*%
D37*
%TO.P,R4,1*%
%TO.N,GND*%
X42695000Y-56435000D03*
%TO.P,R4,2*%
%TO.N,/RF_IN*%
X44345000Y-56435000D03*
%TD*%
D38*
%TO.P,C1,1*%
%TO.N,+12V*%
X29070000Y-16620000D03*
%TO.P,C1,2*%
%TO.N,GND*%
X34470000Y-16620000D03*
%TD*%
D39*
%TO.P,R2,1*%
%TO.N,Net-(U1-EN)*%
X25970000Y-34870000D03*
%TO.P,R2,2*%
%TO.N,GND*%
X25970000Y-33850000D03*
%TD*%
D40*
%TO.P,C29,1*%
%TO.N,+5V*%
X37870000Y-41095000D03*
%TO.P,C29,2*%
%TO.N,GND*%
X37870000Y-39545000D03*
%TD*%
D41*
%TO.P,L4,2,2*%
%TO.N,/RF_OUT*%
X66589509Y-52100491D03*
%TO.P,L4,1,1*%
%TO.N,Net-(C12-Pad1)*%
X73950491Y-44739509D03*
%TD*%
D21*
%TO.P,D6,1,K*%
%TO.N,/G*%
X44012500Y-37850000D03*
%TO.P,D6,2,A*%
%TO.N,GND*%
X45412500Y-37850000D03*
%TD*%
D30*
%TO.P,U6,1,A1*%
%TO.N,Net-(U4-OUT)*%
X42670000Y-50115000D03*
%TO.P,U6,2,GND*%
%TO.N,GND*%
X43320000Y-50115000D03*
%TO.P,U6,3,A2*%
%TO.N,Net-(U4-OUT)*%
X43970000Y-50115000D03*
%TO.P,U6,4,Y2*%
%TO.N,/G1*%
X43970000Y-48275000D03*
%TO.P,U6,5,VCC*%
%TO.N,+5V*%
X43320000Y-48275000D03*
%TO.P,U6,6,Y1*%
%TO.N,/G1*%
X42670000Y-48275000D03*
%TD*%
D28*
%TO.P,C18,1*%
%TO.N,Net-(U1-SW)*%
X29095000Y-38220000D03*
%TO.P,C18,2*%
%TO.N,Net-(U1-BST)*%
X27545000Y-38220000D03*
%TD*%
D39*
%TO.P,R1,1*%
%TO.N,+12V*%
X25970000Y-36880000D03*
%TO.P,R1,2*%
%TO.N,Net-(U1-EN)*%
X25970000Y-35860000D03*
%TD*%
D35*
%TO.P,C14,1*%
%TO.N,/D*%
X61455000Y-29880000D03*
%TO.P,C14,2*%
%TO.N,Net-(C13-Pad2)*%
X63005000Y-29880000D03*
%TD*%
D24*
%TO.P,C6,1*%
%TO.N,Net-(C5-Pad1)*%
X52380000Y-40980000D03*
%TO.P,C6,2*%
%TO.N,GND*%
X52380000Y-42530000D03*
%TD*%
D33*
%TO.P,C11,1*%
%TO.N,GND*%
X47320000Y-50275000D03*
%TO.P,C11,2*%
%TO.N,+5V*%
X47320000Y-49315000D03*
%TD*%
D29*
%TO.P,C23,1*%
%TO.N,+12V*%
X20920000Y-41740000D03*
%TO.P,C23,2*%
%TO.N,GND*%
X20920000Y-43640000D03*
%TD*%
D30*
%TO.P,U7,1,A1*%
%TO.N,Net-(U4-OUT)*%
X45070000Y-50115000D03*
%TO.P,U7,2,GND*%
%TO.N,GND*%
X45720000Y-50115000D03*
%TO.P,U7,3,A2*%
%TO.N,Net-(U4-OUT)*%
X46370000Y-50115000D03*
%TO.P,U7,4,Y2*%
%TO.N,/G1*%
X46370000Y-48275000D03*
%TO.P,U7,5,VCC*%
%TO.N,+5V*%
X45720000Y-48275000D03*
%TO.P,U7,6,Y1*%
%TO.N,/G1*%
X45070000Y-48275000D03*
%TD*%
D28*
%TO.P,C22,2*%
%TO.N,GND*%
X68815000Y-38785000D03*
%TO.P,C22,1*%
%TO.N,Net-(C12-Pad1)*%
X70365000Y-38785000D03*
%TD*%
D42*
%TO.N,GND*%
X61500000Y-55290000D03*
X54590000Y-48420000D03*
X67240000Y-43730000D03*
X70270000Y-48420000D03*
D43*
X40160000Y-51480000D03*
X41460000Y-51930000D03*
X43840000Y-34560000D03*
X44640000Y-35670000D03*
X45430000Y-35320000D03*
D42*
X47710000Y-69190000D03*
X40710000Y-69200000D03*
X26620000Y-48170000D03*
D44*
X37870000Y-39420000D03*
D42*
X46750000Y-44290000D03*
X61620000Y-20170000D03*
X35470000Y-28870000D03*
X78350000Y-40940000D03*
X6205000Y-62200000D03*
D43*
X40916409Y-49686409D03*
D42*
X61620000Y-62170000D03*
D45*
X42545000Y-64260000D03*
D43*
X46420000Y-40620000D03*
D42*
X76205000Y-48200000D03*
D43*
X42370000Y-52835000D03*
D42*
X54720000Y-76070000D03*
X76205000Y-55200000D03*
X54620000Y-69170000D03*
X61620000Y-34170000D03*
X76205000Y-62200000D03*
D44*
X35420000Y-37770000D03*
X24170000Y-40370000D03*
D42*
X68620000Y-34170000D03*
D45*
X47270000Y-58360000D03*
X57165000Y-46710000D03*
X60565000Y-50110000D03*
D42*
X83205000Y-76200000D03*
X12620000Y-34170000D03*
X40620000Y-6170000D03*
X54620000Y-13170000D03*
X12620000Y-6170000D03*
D44*
X39730000Y-56440000D03*
D42*
X54620000Y-55170000D03*
X40620000Y-13170000D03*
X61720000Y-76070000D03*
X76205000Y-27200000D03*
X6205000Y-55200000D03*
X54620000Y-62170000D03*
X47620000Y-6170000D03*
X40620000Y-43470000D03*
D44*
X33020000Y-37770000D03*
D43*
X46420000Y-36420000D03*
D42*
X19620000Y-6170000D03*
D43*
X39330000Y-50120000D03*
D42*
X12620000Y-41170000D03*
X6205000Y-27200000D03*
X6205000Y-20200000D03*
X6205000Y-13200000D03*
D43*
X45270000Y-39220000D03*
D45*
X65490000Y-46685000D03*
D44*
X33020000Y-23570000D03*
D43*
X42383790Y-52235156D03*
D42*
X83205000Y-48200000D03*
D44*
X22620000Y-43420000D03*
D42*
X68620000Y-6170000D03*
D44*
X33020000Y-21970000D03*
X33020000Y-24420000D03*
D46*
X46270000Y-34670000D03*
D42*
X76205000Y-69200000D03*
X54620000Y-6170000D03*
D44*
X28070000Y-40370000D03*
X33920000Y-37770000D03*
D42*
X33620000Y-83180000D03*
X68620000Y-55170000D03*
D45*
X47270000Y-63185000D03*
D42*
X38220000Y-28820000D03*
X12620000Y-20170000D03*
X68620000Y-13170000D03*
D44*
X36320000Y-37770000D03*
D42*
X68620000Y-20170000D03*
D45*
X57965000Y-45910000D03*
X68840000Y-35675000D03*
D44*
X33020000Y-25920000D03*
D42*
X33620000Y-55170000D03*
D45*
X64665000Y-45860000D03*
D42*
X33620000Y-6170000D03*
D45*
X61290000Y-42535000D03*
X53920000Y-42590000D03*
D42*
X38120000Y-33920000D03*
X40620000Y-83180000D03*
X33720000Y-76070000D03*
X26620000Y-83180000D03*
X40720000Y-76070000D03*
D44*
X23320000Y-43420000D03*
D42*
X38220000Y-26370000D03*
X12620000Y-62170000D03*
X6205000Y-69200000D03*
X35470000Y-23870000D03*
X26620000Y-69170000D03*
X76205000Y-20200000D03*
X83205000Y-62200000D03*
X83205000Y-27200000D03*
X26620000Y-6170000D03*
X19720000Y-76070000D03*
X83205000Y-69200000D03*
X12620000Y-69170000D03*
X26620000Y-55170000D03*
X61620000Y-69170000D03*
D45*
X68810000Y-37205000D03*
D42*
X68720000Y-76070000D03*
D45*
X33220000Y-16570000D03*
D43*
X45270000Y-40620000D03*
D42*
X35470000Y-31320000D03*
D45*
X64690000Y-47510000D03*
X50780000Y-42590000D03*
D42*
X76205000Y-6200000D03*
X6205000Y-48200000D03*
X38120000Y-31320000D03*
X33620000Y-69170000D03*
D45*
X61315000Y-50935000D03*
D42*
X19620000Y-69170000D03*
D43*
X43333480Y-54884851D03*
D44*
X28220000Y-36870000D03*
D42*
X35420000Y-21470000D03*
X68620000Y-69170000D03*
X61620000Y-6170000D03*
D45*
X41345000Y-58335000D03*
X41320000Y-64260000D03*
D42*
X47620000Y-13170000D03*
X47720000Y-76070000D03*
D44*
X28070000Y-39470000D03*
D42*
X19620000Y-83180000D03*
D45*
X47295000Y-64260000D03*
D42*
X35470000Y-33870000D03*
D45*
X35670000Y-16570000D03*
D42*
X12620000Y-48170000D03*
D44*
X31420000Y-37770000D03*
D42*
X65550000Y-38950000D03*
X35470000Y-26370000D03*
D44*
X27760000Y-35860000D03*
D45*
X62165000Y-50110000D03*
D42*
X83205000Y-13200000D03*
X54620000Y-20170000D03*
D44*
X30470000Y-37770000D03*
D42*
X83205000Y-20200000D03*
X26620000Y-27170000D03*
D44*
X24770000Y-43070000D03*
X42790000Y-56450000D03*
D42*
X33620000Y-62170000D03*
D45*
X41320000Y-63110000D03*
D44*
X25070000Y-40370000D03*
D45*
X62065000Y-43335000D03*
D43*
X46420000Y-39220000D03*
X45710000Y-49710000D03*
D42*
X6205000Y-76200000D03*
X83205000Y-34200000D03*
X19620000Y-48170000D03*
X68620000Y-62170000D03*
X47620000Y-55170000D03*
D45*
X68800000Y-38765000D03*
D43*
X45270000Y-37820000D03*
D42*
X12620000Y-13170000D03*
D44*
X20570000Y-43420000D03*
D43*
X43330000Y-49675000D03*
D42*
X19620000Y-27170000D03*
D44*
X33020000Y-26820000D03*
D45*
X41345000Y-59485000D03*
D42*
X26620000Y-23870000D03*
X83205000Y-55200000D03*
X12620000Y-83180000D03*
D44*
X28070000Y-41320000D03*
D45*
X52370000Y-42590000D03*
D42*
X76205000Y-76200000D03*
D43*
X24570000Y-38970000D03*
D42*
X26720000Y-76070000D03*
D46*
X47630000Y-34680000D03*
D42*
X12620000Y-27170000D03*
X26620000Y-62170000D03*
X61620000Y-13170000D03*
D44*
X25970000Y-33830000D03*
D42*
X76205000Y-13200000D03*
X54620000Y-34170000D03*
D45*
X42520000Y-58335000D03*
D42*
X33620000Y-48170000D03*
D43*
X47309513Y-50035487D03*
D42*
X19720000Y-23870000D03*
D46*
X49040000Y-34690000D03*
D45*
X47270000Y-59510000D03*
D42*
X12720000Y-76070000D03*
D44*
X21270000Y-43420000D03*
D45*
X46095000Y-64260000D03*
D42*
X19620000Y-55170000D03*
D45*
X57965000Y-47510000D03*
D42*
X6205000Y-34200000D03*
D45*
X60540000Y-43385000D03*
D42*
X12620000Y-55170000D03*
D43*
X43320000Y-54285000D03*
D44*
X33020000Y-21120000D03*
D43*
X46420000Y-37820000D03*
D42*
X19620000Y-62170000D03*
D43*
X41070000Y-54935000D03*
X45270000Y-36420000D03*
D45*
X46120000Y-58360000D03*
D43*
%TO.N,+12V*%
X26150000Y-41180000D03*
%TO.N,Net-(U1-SW)*%
X29095000Y-38220000D03*
X26720000Y-42370000D03*
%TD*%
D47*
%TO.N,/RF_OUT*%
X66570000Y-51870000D02*
X66570000Y-52010000D01*
X61440000Y-46620000D02*
X61440000Y-46740000D01*
X61440000Y-46740000D02*
X66570000Y-51870000D01*
D48*
%TO.N,+5V*%
X37820000Y-46370000D02*
X37820000Y-43620000D01*
X37820000Y-48270000D02*
X37820000Y-46370000D01*
D47*
%TO.N,/RF_OUT*%
X61435000Y-46605000D02*
X61435000Y-46645000D01*
D49*
%TO.N,GND*%
X43840000Y-34560000D02*
X43840000Y-34620000D01*
X43840000Y-35110000D02*
X43840000Y-34560000D01*
X44040000Y-35310000D02*
X44480000Y-35310000D01*
X43840000Y-35110000D02*
X44040000Y-35310000D01*
X45015000Y-35345000D02*
X44490000Y-35345000D01*
X45050000Y-35310000D02*
X45015000Y-35345000D01*
X45040000Y-35300000D02*
X45050000Y-35310000D01*
X45040000Y-34910000D02*
X45040000Y-35300000D01*
D47*
%TO.N,+5V*%
X47508266Y-49315000D02*
X47320000Y-49315000D01*
X48080000Y-50663266D02*
X48080000Y-49886734D01*
X48080000Y-49886734D02*
X47508266Y-49315000D01*
X45840000Y-52770000D02*
X45973266Y-52770000D01*
X45973266Y-52770000D02*
X48080000Y-50663266D01*
D50*
%TO.N,Net-(U4-OUT)*%
X43290000Y-51115000D02*
X43290000Y-52570000D01*
X43270000Y-51095000D02*
X43290000Y-51115000D01*
D48*
%TO.N,+5V*%
X37820000Y-50800000D02*
X40960000Y-53940000D01*
X37820000Y-48270000D02*
X37820000Y-50800000D01*
D50*
%TO.N,Net-(U4-OUT)*%
X42615000Y-50170000D02*
X42670000Y-50115000D01*
X42615000Y-51095000D02*
X42615000Y-50170000D01*
D51*
%TO.N,GND*%
X26950000Y-40340000D02*
X27080000Y-40470000D01*
X27920000Y-41170000D02*
X28070000Y-41320000D01*
X27220000Y-41170000D02*
X27920000Y-41170000D01*
X25790000Y-40340000D02*
X26950000Y-40340000D01*
D47*
%TO.N,+12V*%
X24770000Y-41695000D02*
X25605000Y-41695000D01*
D51*
X25970000Y-36880000D02*
X25145000Y-36055000D01*
D52*
X31645000Y-30885000D02*
X31510000Y-31020000D01*
D51*
X24780000Y-35150000D02*
X23450000Y-35150000D01*
X25145000Y-36055000D02*
X25145000Y-35515000D01*
D47*
X25605000Y-41695000D02*
X26120000Y-41180000D01*
D51*
X25145000Y-35515000D02*
X24780000Y-35150000D01*
D50*
%TO.N,+5V*%
X44582500Y-52760000D02*
X44270000Y-52447500D01*
X45940000Y-49125000D02*
X43100000Y-49125000D01*
X40460000Y-49365000D02*
X40700000Y-49125000D01*
D47*
X47320000Y-47596472D02*
X47320000Y-49315000D01*
D50*
X38720000Y-40245000D02*
X37870000Y-41095000D01*
X24570000Y-33995000D02*
X25485000Y-33080000D01*
X47320000Y-49315000D02*
X46130000Y-49315000D01*
X45820000Y-52760000D02*
X44582500Y-52760000D01*
D48*
X37820000Y-43620000D02*
X38000000Y-43620000D01*
D50*
X45720000Y-48905000D02*
X45720000Y-48275000D01*
D48*
X37820000Y-41145000D02*
X37820000Y-43520000D01*
X39310000Y-44930000D02*
X45339390Y-44930000D01*
D50*
X38720000Y-39064544D02*
X38720000Y-40245000D01*
X40700000Y-49125000D02*
X40920000Y-48905000D01*
X43320000Y-48905000D02*
X43100000Y-49125000D01*
X39320000Y-49365000D02*
X40460000Y-49365000D01*
D48*
X47550000Y-47140610D02*
X47550000Y-49080000D01*
D50*
X40920000Y-48905000D02*
X40920000Y-48275000D01*
X36775456Y-37120000D02*
X38720000Y-39064544D01*
X46130000Y-49315000D02*
X45940000Y-49125000D01*
D48*
X45339390Y-44930000D02*
X47550000Y-47140610D01*
D50*
X31050000Y-37120000D02*
X36775456Y-37120000D01*
X45940000Y-49125000D02*
X45720000Y-48905000D01*
D48*
X38000000Y-43620000D02*
X39310000Y-44930000D01*
D47*
X38915000Y-49365000D02*
X37820000Y-48270000D01*
D50*
X43320000Y-48275000D02*
X43320000Y-48905000D01*
D47*
X39320000Y-49365000D02*
X38915000Y-49365000D01*
D50*
X25485000Y-33080000D02*
X27010000Y-33080000D01*
D48*
X37870000Y-41095000D02*
X37820000Y-41145000D01*
D50*
X27010000Y-33080000D02*
X31050000Y-37120000D01*
X24570000Y-34395000D02*
X24570000Y-33995000D01*
X43100000Y-49125000D02*
X40700000Y-49125000D01*
D47*
%TO.N,/D*%
X42410000Y-31110000D02*
X43430000Y-32130000D01*
D49*
X43545000Y-33295000D02*
X43570000Y-33270000D01*
X43510000Y-33260000D02*
X43530000Y-33240000D01*
X43545000Y-33165000D02*
X43550000Y-33160000D01*
D50*
%TO.N,Net-(U1-BST)*%
X27220000Y-39670000D02*
X27220000Y-38345000D01*
X27220000Y-38345000D02*
X27295000Y-38270000D01*
%TO.N,Net-(U1-SW)*%
X26720000Y-41170000D02*
X26720000Y-42370000D01*
X26720000Y-42370000D02*
X26720000Y-44570000D01*
X26720000Y-44570000D02*
X26820000Y-44670000D01*
%TO.N,/RF_IN*%
X44345000Y-56435000D02*
X44345000Y-56710000D01*
X44320000Y-56735000D02*
X44320000Y-61310000D01*
X44345000Y-54797500D02*
X44270000Y-54722500D01*
X44345000Y-56710000D02*
X44320000Y-56735000D01*
X44345000Y-56435000D02*
X44345000Y-54797500D01*
%TO.N,Net-(U1-EN)*%
X26720000Y-36020000D02*
X25970000Y-35270000D01*
D47*
X25970000Y-35860000D02*
X25970000Y-35270000D01*
D50*
X26720000Y-39670000D02*
X26720000Y-36020000D01*
D47*
X25970000Y-35270000D02*
X25970000Y-34870000D01*
D50*
%TO.N,Net-(U1-FB)*%
X26220000Y-39145000D02*
X24570000Y-37495000D01*
X26220000Y-39670000D02*
X26220000Y-39145000D01*
D47*
X24570000Y-36045000D02*
X24570000Y-37495000D01*
D50*
%TO.N,Net-(U4--IN)*%
X41295000Y-55797500D02*
X42370000Y-54722500D01*
D49*
X42370000Y-54722500D02*
X42370000Y-54060001D01*
X42370000Y-54060001D02*
X42670001Y-53760000D01*
X45170000Y-53760000D02*
X45820000Y-54410000D01*
D50*
X41295000Y-56435000D02*
X41295000Y-55797500D01*
D49*
X42670001Y-53760000D02*
X45170000Y-53760000D01*
D50*
%TO.N,Net-(U4-OUT)*%
X43970000Y-50745000D02*
X43620000Y-51095000D01*
X40620000Y-51095000D02*
X42070000Y-51095000D01*
X41570000Y-50115000D02*
X41570000Y-50795000D01*
X41870000Y-51095000D02*
X42070000Y-51095000D01*
X43620000Y-51095000D02*
X42715000Y-51095000D01*
X45070000Y-50695000D02*
X45070000Y-50115000D01*
X44470000Y-51095000D02*
X45820000Y-51095000D01*
X43620000Y-51095000D02*
X44470000Y-51095000D01*
X40270000Y-50115000D02*
X40270000Y-50745000D01*
X44470000Y-51095000D02*
X44670000Y-51095000D01*
X45820000Y-51095000D02*
X46370000Y-50545000D01*
X46370000Y-50545000D02*
X46370000Y-50115000D01*
X40270000Y-50745000D02*
X40620000Y-51095000D01*
X42070000Y-51095000D02*
X42615000Y-51095000D01*
X41570000Y-50795000D02*
X41870000Y-51095000D01*
X44670000Y-51095000D02*
X45070000Y-50695000D01*
X43970000Y-50115000D02*
X43970000Y-50745000D01*
%TO.N,/G1*%
X44520000Y-46895000D02*
X45770000Y-46895000D01*
X40270000Y-48275000D02*
X40270000Y-47645000D01*
X42670000Y-48275000D02*
X42670000Y-47295000D01*
X42670000Y-47295000D02*
X43070000Y-46895000D01*
X40270000Y-47645000D02*
X41020000Y-46895000D01*
X41020000Y-46895000D02*
X42320000Y-46895000D01*
X46370000Y-47495000D02*
X46370000Y-48275000D01*
X42320000Y-46895000D02*
X43070000Y-46895000D01*
X45770000Y-46895000D02*
X46370000Y-47495000D01*
X45070000Y-48275000D02*
X45070000Y-47445000D01*
X43970000Y-48275000D02*
X43970000Y-47295000D01*
X43070000Y-46895000D02*
X43570000Y-46895000D01*
X41570000Y-47645000D02*
X42320000Y-46895000D01*
X45070000Y-47445000D02*
X44520000Y-46895000D01*
X43970000Y-47295000D02*
X43570000Y-46895000D01*
X43570000Y-46895000D02*
X44520000Y-46895000D01*
X41570000Y-48275000D02*
X41570000Y-47645000D01*
%TD*%
%TA.AperFunction,Conductor*%
%TO.N,+5V*%
G36*
X31370000Y-42920000D02*
G01*
X31370000Y-46666687D01*
X31350315Y-46733726D01*
X31297511Y-46779481D01*
X31246689Y-46790685D01*
X29694689Y-46799307D01*
X29627541Y-46779995D01*
X29581494Y-46727446D01*
X29570000Y-46675309D01*
X29570000Y-42420000D01*
X31370000Y-42410000D01*
X31370000Y-42920000D01*
G37*
%TD.AperFunction*%
%TD*%
%TA.AperFunction,Conductor*%
%TO.N,GND*%
G36*
X46070000Y-41470000D02*
G01*
X44820000Y-41470000D01*
X44820000Y-35670000D01*
X46070000Y-35670000D01*
X46070000Y-41470000D01*
G37*
%TD.AperFunction*%
%TD*%
%TA.AperFunction,Conductor*%
%TO.N,+12V*%
G36*
X30970000Y-33246000D02*
G01*
X30950315Y-33313039D01*
X30897511Y-33358794D01*
X30846000Y-33370000D01*
X28440000Y-33370000D01*
X28440000Y-17270000D01*
X30970000Y-17270000D01*
X30970000Y-33246000D01*
G37*
%TD.AperFunction*%
%TD*%
%TA.AperFunction,Conductor*%
%TO.N,/G1*%
G36*
X44253039Y-45650185D02*
G01*
X44298794Y-45702989D01*
X44310000Y-45754500D01*
X44310000Y-46881000D01*
X44290315Y-46948039D01*
X44237511Y-46993794D01*
X44186000Y-47005000D01*
X42504000Y-47005000D01*
X42436961Y-46985315D01*
X42391206Y-46932511D01*
X42380000Y-46881000D01*
X42380000Y-45754500D01*
X42399685Y-45687461D01*
X42452489Y-45641706D01*
X42504000Y-45630500D01*
X44186000Y-45630500D01*
X44253039Y-45650185D01*
G37*
%TD.AperFunction*%
%TD*%
%TA.AperFunction,Conductor*%
%TO.N,+5V*%
G36*
X41813039Y-35689685D02*
G01*
X41858794Y-35742489D01*
X41870000Y-35794000D01*
X41870000Y-41470000D01*
X40770000Y-41470000D01*
X40770000Y-35794000D01*
X40789685Y-35726961D01*
X40842489Y-35681206D01*
X40894000Y-35670000D01*
X41746000Y-35670000D01*
X41813039Y-35689685D01*
G37*
%TD.AperFunction*%
%TD*%
%TA.AperFunction,Conductor*%
%TO.N,+12V*%
G36*
X30970000Y-33246000D02*
G01*
X30950315Y-33313039D01*
X30897511Y-33358794D01*
X30846000Y-33370000D01*
X27847044Y-33370000D01*
X27780005Y-33350315D01*
X27759363Y-33333681D01*
X27225213Y-32799531D01*
X27225208Y-32799527D01*
X27145290Y-32753387D01*
X27145289Y-32753386D01*
X27145288Y-32753386D01*
X27056144Y-32729500D01*
X25438856Y-32729500D01*
X25349712Y-32753386D01*
X25349711Y-32753386D01*
X25349709Y-32753387D01*
X25349706Y-32753388D01*
X25269794Y-32799526D01*
X25269785Y-32799533D01*
X24735637Y-33333681D01*
X24674314Y-33367166D01*
X24647956Y-33370000D01*
X18970000Y-33370000D01*
X18970000Y-28526797D01*
X19022497Y-28481242D01*
X19074089Y-28470000D01*
X28440000Y-28470000D01*
X30970000Y-28470000D01*
X30970000Y-33246000D01*
G37*
%TD.AperFunction*%
%TD*%
%TA.AperFunction,Conductor*%
%TO.N,+5V*%
G36*
X41870000Y-41946000D02*
G01*
X41850315Y-42013039D01*
X41797511Y-42058794D01*
X41746000Y-42070000D01*
X38420000Y-42070000D01*
X38420000Y-40170000D01*
X40770000Y-40170000D01*
X41870000Y-40170000D01*
X41870000Y-41946000D01*
G37*
%TD.AperFunction*%
%TD*%
%TA.AperFunction,Conductor*%
%TO.N,+12V*%
G36*
X30913039Y-13739685D02*
G01*
X30958794Y-13792489D01*
X30970000Y-13844000D01*
X30970000Y-19870000D01*
X20744000Y-19870000D01*
X20676961Y-19850315D01*
X20631206Y-19797511D01*
X20620000Y-19746000D01*
X20620000Y-13844000D01*
X20639685Y-13776961D01*
X20692489Y-13731206D01*
X20744000Y-13720000D01*
X30846000Y-13720000D01*
X30913039Y-13739685D01*
G37*
%TD.AperFunction*%
%TD*%
%TA.AperFunction,Conductor*%
%TO.N,+12V*%
G36*
X23630000Y-40970000D02*
G01*
X23420000Y-40970000D01*
X23420000Y-42490000D01*
X19083912Y-42490000D01*
X19016873Y-42470315D01*
X18971118Y-42417511D01*
X18959912Y-42366088D01*
X18950089Y-28594088D01*
X18969726Y-28527035D01*
X19022497Y-28481242D01*
X19074089Y-28470000D01*
X23630000Y-28470000D01*
X23630000Y-40970000D01*
G37*
%TD.AperFunction*%
%TD*%
%TA.AperFunction,Conductor*%
%TO.N,+5V*%
G36*
X37476747Y-40179297D02*
G01*
X37477590Y-40176703D01*
X37486872Y-40179718D01*
X37486874Y-40179719D01*
X37496263Y-40181206D01*
X37586507Y-40195500D01*
X37586512Y-40195500D01*
X38153493Y-40195500D01*
X38224658Y-40184227D01*
X38253126Y-40179719D01*
X38253129Y-40179717D01*
X38262410Y-40176703D01*
X38263252Y-40179297D01*
X38301971Y-40170000D01*
X38420000Y-40170000D01*
X38420000Y-42070000D01*
X38420000Y-42796000D01*
X38400315Y-42863039D01*
X38347511Y-42908794D01*
X38296000Y-42920000D01*
X29570000Y-42920000D01*
X29570000Y-40294000D01*
X29589685Y-40226961D01*
X29642489Y-40181206D01*
X29694000Y-40170000D01*
X37438029Y-40170000D01*
X37476747Y-40179297D01*
G37*
%TD.AperFunction*%
%TD*%
%TA.AperFunction,Conductor*%
%TO.N,+12V*%
G36*
X25413039Y-40989685D02*
G01*
X25458794Y-41042489D01*
X25470000Y-41094000D01*
X25470000Y-42396000D01*
X25450315Y-42463039D01*
X25397511Y-42508794D01*
X25346000Y-42520000D01*
X23501362Y-42520000D01*
X23434323Y-42500315D01*
X23421523Y-42490000D01*
X23420000Y-42490000D01*
X23420000Y-40970000D01*
X23630000Y-40970000D01*
X25346000Y-40970000D01*
X25413039Y-40989685D01*
G37*
%TD.AperFunction*%
%TD*%
%TA.AperFunction,Conductor*%
%TO.N,/D*%
G36*
X51870000Y-30605000D02*
G01*
X51870000Y-31076000D01*
X51850315Y-31143039D01*
X51797511Y-31188794D01*
X51746000Y-31200000D01*
X44070000Y-31200000D01*
X44070000Y-29310000D01*
X44091880Y-29310000D01*
X44105004Y-29302834D01*
X44131362Y-29300000D01*
X50055000Y-29300000D01*
X51870000Y-29300000D01*
X51870000Y-30605000D01*
G37*
%TD.AperFunction*%
%TD*%
%TA.AperFunction,Conductor*%
%TO.N,Net-(C13-Pad2)*%
G36*
X67431244Y-27289757D02*
G01*
X67498244Y-27309573D01*
X67543895Y-27362467D01*
X67555000Y-27413757D01*
X67555000Y-30465756D01*
X67535315Y-30532795D01*
X67482511Y-30578550D01*
X67430757Y-30589756D01*
X62609257Y-30580301D01*
X62542256Y-30560485D01*
X62496605Y-30507591D01*
X62485500Y-30456301D01*
X62485500Y-27429010D01*
X62485500Y-27429000D01*
X62484269Y-27417555D01*
X62496672Y-27348798D01*
X62544281Y-27297659D01*
X62607798Y-27280299D01*
X67431244Y-27289757D01*
G37*
%TD.AperFunction*%
%TD*%
%TA.AperFunction,Conductor*%
%TO.N,Net-(C12-Pad1)*%
G36*
X74253039Y-35174685D02*
G01*
X74298794Y-35227489D01*
X74310000Y-35279000D01*
X74310000Y-39190000D01*
X69929000Y-39190000D01*
X69861961Y-39170315D01*
X69816206Y-39117511D01*
X69805000Y-39066000D01*
X69805000Y-38774555D01*
X69805341Y-38767612D01*
X69805341Y-38762387D01*
X69805000Y-38755447D01*
X69805000Y-37316087D01*
X69805597Y-37303933D01*
X69815341Y-37205000D01*
X69805597Y-37106065D01*
X69805000Y-37093911D01*
X69805000Y-35958830D01*
X69810339Y-35922836D01*
X69826024Y-35871132D01*
X69845341Y-35675000D01*
X69826024Y-35478868D01*
X69810339Y-35427161D01*
X69805000Y-35391166D01*
X69805000Y-35279000D01*
X69824685Y-35211961D01*
X69877489Y-35166206D01*
X69929000Y-35155000D01*
X74186000Y-35155000D01*
X74253039Y-35174685D01*
G37*
%TD.AperFunction*%
%TD*%
%TA.AperFunction,Conductor*%
%TO.N,/RF_OUT*%
G36*
X66333334Y-49109180D02*
G01*
X66377681Y-49137681D01*
X69527319Y-52287319D01*
X69560804Y-52348642D01*
X69555820Y-52418334D01*
X69527319Y-52462681D01*
X67002681Y-54987319D01*
X66941358Y-55020804D01*
X66871666Y-55015820D01*
X66827319Y-54987319D01*
X63677681Y-51837681D01*
X63644196Y-51776358D01*
X63649180Y-51706666D01*
X63677681Y-51662319D01*
X66202319Y-49137681D01*
X66263642Y-49104196D01*
X66333334Y-49109180D01*
G37*
%TD.AperFunction*%
%TD*%
%TA.AperFunction,Conductor*%
%TO.N,/D*%
G36*
X49810000Y-30240000D02*
G01*
X49812704Y-31200000D01*
X49819173Y-33496528D01*
X49819650Y-33665780D01*
X49800154Y-33732874D01*
X49747479Y-33778778D01*
X49695779Y-33790129D01*
X49152649Y-33790695D01*
X49139569Y-33790017D01*
X49134646Y-33789500D01*
X48945354Y-33789500D01*
X48938896Y-33790179D01*
X48938830Y-33789556D01*
X48925713Y-33790932D01*
X47797128Y-33792109D01*
X47771219Y-33789399D01*
X47724647Y-33779500D01*
X47724646Y-33779500D01*
X47535354Y-33779500D01*
X47535352Y-33779500D01*
X47487129Y-33789749D01*
X47461480Y-33792458D01*
X46490584Y-33793471D01*
X46464675Y-33790761D01*
X46364646Y-33769500D01*
X46175354Y-33769500D01*
X46075639Y-33790695D01*
X46073150Y-33791224D01*
X46047499Y-33793933D01*
X45141267Y-33794878D01*
X45074207Y-33775263D01*
X45053580Y-33758683D01*
X45024817Y-33730001D01*
X45015000Y-30235000D01*
X49810000Y-30240000D01*
G37*
%TD.AperFunction*%
%TD*%
%TA.AperFunction,Conductor*%
%TO.N,Net-(C5-Pad1)*%
G36*
X60343039Y-36169685D02*
G01*
X60388794Y-36222489D01*
X60400000Y-36274000D01*
X60400000Y-39326000D01*
X60380315Y-39393039D01*
X60327511Y-39438794D01*
X60276000Y-39450000D01*
X50070000Y-39450000D01*
X50070000Y-39428119D01*
X50062834Y-39414996D01*
X50060000Y-39388638D01*
X50060000Y-36274000D01*
X50079685Y-36206961D01*
X50132489Y-36161206D01*
X50184000Y-36150000D01*
X60276000Y-36150000D01*
X60343039Y-36169685D01*
G37*
%TD.AperFunction*%
%TD*%
%TA.AperFunction,Conductor*%
%TO.N,Net-(C5-Pad1)*%
G36*
X54680000Y-39450000D02*
G01*
X54680000Y-41436000D01*
X54660315Y-41503039D01*
X54607511Y-41548794D01*
X54556000Y-41560000D01*
X50194000Y-41560000D01*
X50126961Y-41540315D01*
X50081206Y-41487511D01*
X50070000Y-41436000D01*
X50070000Y-39428119D01*
X50070000Y-38990000D01*
X54680000Y-38990000D01*
X54680000Y-39450000D01*
G37*
%TD.AperFunction*%
%TD*%
%TA.AperFunction,Conductor*%
%TO.N,/D*%
G36*
X61923039Y-27324685D02*
G01*
X61968794Y-27377489D01*
X61980000Y-27429000D01*
X61980000Y-30481000D01*
X61960315Y-30548039D01*
X61907511Y-30593794D01*
X61856000Y-30605000D01*
X50055000Y-30605000D01*
X50055000Y-27429000D01*
X50074685Y-27361961D01*
X50127489Y-27316206D01*
X50179000Y-27305000D01*
X61856000Y-27305000D01*
X61923039Y-27324685D01*
G37*
%TD.AperFunction*%
%TD*%
%TA.AperFunction,Conductor*%
%TO.N,/G*%
G36*
X44253039Y-35879685D02*
G01*
X44298794Y-35932489D01*
X44310000Y-35984000D01*
X44310000Y-42616000D01*
X44290315Y-42683039D01*
X44237511Y-42728794D01*
X44186000Y-42740000D01*
X42554000Y-42740000D01*
X42486961Y-42720315D01*
X42441206Y-42667511D01*
X42430000Y-42616000D01*
X42430000Y-35984000D01*
X42449685Y-35916961D01*
X42502489Y-35871206D01*
X42554000Y-35860000D01*
X43098000Y-35860000D01*
X43738000Y-35860000D01*
X44186000Y-35860000D01*
X44253039Y-35879685D01*
G37*
%TD.AperFunction*%
%TD*%
%TA.AperFunction,Conductor*%
%TO.N,/D*%
G36*
X45140000Y-33730000D02*
G01*
X40374281Y-33730000D01*
X40307242Y-33710315D01*
X40261487Y-33657511D01*
X40250281Y-33605719D01*
X40259720Y-29433719D01*
X40279557Y-29366725D01*
X40332464Y-29321089D01*
X40383720Y-29310000D01*
X44091880Y-29310000D01*
X45160000Y-29310000D01*
X45140000Y-33730000D01*
G37*
%TD.AperFunction*%
%TD*%
%TA.AperFunction,Conductor*%
%TO.N,/D*%
G36*
X44595232Y-34863096D02*
G01*
X44583499Y-34877230D01*
X44572305Y-34880000D01*
X44328382Y-34880000D01*
X44311411Y-34872971D01*
X44305211Y-34862253D01*
X44238746Y-34615943D01*
X44238214Y-34605949D01*
X44245492Y-34560000D01*
X44225646Y-34434696D01*
X44225645Y-34434694D01*
X44225645Y-34434693D01*
X44168051Y-34321660D01*
X44168050Y-34321658D01*
X44160645Y-34314253D01*
X44154446Y-34303536D01*
X43999683Y-33730000D01*
X44945952Y-33730000D01*
X44595232Y-34863096D01*
G37*
%TD.AperFunction*%
%TD*%
%TA.AperFunction,Conductor*%
%TO.N,/G*%
G36*
X43505265Y-35397377D02*
G01*
X43544302Y-35444933D01*
X43737999Y-35860000D01*
X43098000Y-35860000D01*
X43322524Y-35439016D01*
X43371440Y-35389129D01*
X43439563Y-35373606D01*
X43505265Y-35397377D01*
G37*
%TD.AperFunction*%
%TD*%
%TA.AperFunction,Conductor*%
%TO.N,GND*%
G36*
X40488098Y-51732006D02*
G01*
X40533501Y-51741038D01*
X40555930Y-51745500D01*
X40555931Y-51745500D01*
X40684069Y-51745500D01*
X41805931Y-51745500D01*
X42005931Y-51745500D01*
X42395500Y-51745500D01*
X42462539Y-51765185D01*
X42508294Y-51817989D01*
X42519500Y-51869500D01*
X42519500Y-53025701D01*
X42522899Y-53068886D01*
X42520988Y-53069036D01*
X42514612Y-53129519D01*
X42470882Y-53184012D01*
X42445170Y-53195977D01*
X42445724Y-53197314D01*
X42438210Y-53200426D01*
X42301291Y-53279475D01*
X42301283Y-53279481D01*
X42189481Y-53391284D01*
X42189479Y-53391286D01*
X42114681Y-53466084D01*
X42056365Y-53524400D01*
X41995042Y-53557884D01*
X41925350Y-53552900D01*
X41869417Y-53511028D01*
X41854123Y-53484170D01*
X41846632Y-53466086D01*
X41846631Y-53466084D01*
X41737143Y-53302223D01*
X41737137Y-53302215D01*
X40376227Y-51941305D01*
X40342742Y-51879982D01*
X40347726Y-51810290D01*
X40389598Y-51754357D01*
X40455062Y-51729940D01*
X40488098Y-51732006D01*
G37*
%TD.AperFunction*%
%TA.AperFunction,Conductor*%
G36*
X38979082Y-50122327D02*
G01*
X39049007Y-50142643D01*
X39085310Y-50145500D01*
X39085318Y-50145500D01*
X39495500Y-50145500D01*
X39562539Y-50165185D01*
X39608294Y-50217989D01*
X39619500Y-50269500D01*
X39619500Y-50809070D01*
X39632993Y-50876900D01*
X39626766Y-50946492D01*
X39583904Y-51001670D01*
X39518014Y-51024915D01*
X39450017Y-51008848D01*
X39423695Y-50988774D01*
X38856819Y-50421897D01*
X38823334Y-50360574D01*
X38820500Y-50334216D01*
X38820500Y-50241407D01*
X38840185Y-50174368D01*
X38892989Y-50128613D01*
X38962147Y-50118669D01*
X38979082Y-50122327D01*
G37*
%TD.AperFunction*%
%TA.AperFunction,Conductor*%
G36*
X24466231Y-38315185D02*
G01*
X24486873Y-38331819D01*
X25533181Y-39378127D01*
X25566666Y-39439450D01*
X25569500Y-39465808D01*
X25569500Y-39734069D01*
X25569500Y-39734071D01*
X25569499Y-39734071D01*
X25594497Y-39859738D01*
X25594499Y-39859744D01*
X25643533Y-39978124D01*
X25643538Y-39978133D01*
X25714723Y-40084668D01*
X25714726Y-40084672D01*
X25805327Y-40175273D01*
X25805331Y-40175276D01*
X25910603Y-40245617D01*
X25955408Y-40299229D01*
X25964115Y-40368554D01*
X25933961Y-40431582D01*
X25889165Y-40463280D01*
X25764510Y-40514914D01*
X25764495Y-40514922D01*
X25746243Y-40527117D01*
X25679564Y-40547992D01*
X25625845Y-40536806D01*
X25555465Y-40504664D01*
X25555460Y-40504662D01*
X25555459Y-40504662D01*
X25488420Y-40484977D01*
X25488422Y-40484977D01*
X25488417Y-40484976D01*
X25440944Y-40478150D01*
X25346000Y-40464500D01*
X25345998Y-40464500D01*
X24259500Y-40464500D01*
X24192461Y-40444815D01*
X24146706Y-40392011D01*
X24135500Y-40340500D01*
X24135500Y-38419500D01*
X24155185Y-38352461D01*
X24207989Y-38306706D01*
X24259500Y-38295500D01*
X24399192Y-38295500D01*
X24466231Y-38315185D01*
G37*
%TD.AperFunction*%
%TA.AperFunction,Conductor*%
G36*
X4047751Y-1020185D02*
G01*
X4093506Y-1072989D01*
X4103450Y-1142147D01*
X4074425Y-1205703D01*
X4015647Y-1243477D01*
X4008305Y-1245391D01*
X3868955Y-1277196D01*
X3868953Y-1277197D01*
X3593261Y-1373665D01*
X3330109Y-1500393D01*
X3082795Y-1655791D01*
X2854435Y-1837901D01*
X2647901Y-2044435D01*
X2465791Y-2272795D01*
X2310393Y-2520109D01*
X2183665Y-2783261D01*
X2087197Y-3058953D01*
X2087196Y-3058955D01*
X2022202Y-3343714D01*
X2022199Y-3343728D01*
X1989500Y-3633952D01*
X1989500Y-3926047D01*
X2022199Y-4216271D01*
X2022202Y-4216285D01*
X2087196Y-4501044D01*
X2087197Y-4501046D01*
X2183665Y-4776738D01*
X2310393Y-5039890D01*
X2310395Y-5039893D01*
X2465792Y-5287206D01*
X2647902Y-5515565D01*
X2854435Y-5722098D01*
X3082794Y-5904208D01*
X3330107Y-6059605D01*
X3593263Y-6186335D01*
X3868955Y-6282803D01*
X4153714Y-6347798D01*
X4153723Y-6347799D01*
X4153728Y-6347800D01*
X4347210Y-6369599D01*
X4443953Y-6380499D01*
X4443956Y-6380500D01*
X4443959Y-6380500D01*
X4736044Y-6380500D01*
X4736045Y-6380499D01*
X4884371Y-6363787D01*
X5026271Y-6347800D01*
X5026274Y-6347799D01*
X5026286Y-6347798D01*
X5311045Y-6282803D01*
X5586737Y-6186335D01*
X5849893Y-6059605D01*
X6097206Y-5904208D01*
X6325565Y-5722098D01*
X6532098Y-5515565D01*
X6714208Y-5287206D01*
X6869605Y-5039893D01*
X6996335Y-4776737D01*
X7092803Y-4501045D01*
X7157798Y-4216286D01*
X7190500Y-3926041D01*
X7190500Y-3633959D01*
X7157798Y-3343714D01*
X7092803Y-3058955D01*
X6996335Y-2783263D01*
X6869605Y-2520107D01*
X6714208Y-2272794D01*
X6532098Y-2044435D01*
X6325565Y-1837902D01*
X6097206Y-1655792D01*
X5849893Y-1500395D01*
X5849890Y-1500393D01*
X5586738Y-1373665D01*
X5311046Y-1277197D01*
X5311044Y-1277196D01*
X5171695Y-1245391D01*
X5110717Y-1211282D01*
X5077859Y-1149621D01*
X5083554Y-1079984D01*
X5125994Y-1024480D01*
X5191704Y-1000732D01*
X5199288Y-1000500D01*
X83980712Y-1000500D01*
X84047751Y-1020185D01*
X84093506Y-1072989D01*
X84103450Y-1142147D01*
X84074425Y-1205703D01*
X84015647Y-1243477D01*
X84008305Y-1245391D01*
X83868955Y-1277196D01*
X83868953Y-1277197D01*
X83593261Y-1373665D01*
X83330109Y-1500393D01*
X83082795Y-1655791D01*
X82854435Y-1837901D01*
X82647901Y-2044435D01*
X82465791Y-2272795D01*
X82310393Y-2520109D01*
X82183665Y-2783261D01*
X82087197Y-3058953D01*
X82087196Y-3058955D01*
X82022202Y-3343714D01*
X82022199Y-3343728D01*
X81989500Y-3633952D01*
X81989500Y-3926047D01*
X82022199Y-4216271D01*
X82022202Y-4216285D01*
X82087196Y-4501044D01*
X82087197Y-4501046D01*
X82183665Y-4776738D01*
X82310393Y-5039890D01*
X82310395Y-5039893D01*
X82465792Y-5287206D01*
X82647902Y-5515565D01*
X82854435Y-5722098D01*
X83082794Y-5904208D01*
X83330107Y-6059605D01*
X83593263Y-6186335D01*
X83868955Y-6282803D01*
X84153714Y-6347798D01*
X84153723Y-6347799D01*
X84153728Y-6347800D01*
X84347210Y-6369599D01*
X84443953Y-6380499D01*
X84443956Y-6380500D01*
X84443959Y-6380500D01*
X84736044Y-6380500D01*
X84736045Y-6380499D01*
X84884371Y-6363787D01*
X85026271Y-6347800D01*
X85026274Y-6347799D01*
X85026286Y-6347798D01*
X85311045Y-6282803D01*
X85586737Y-6186335D01*
X85849893Y-6059605D01*
X86097206Y-5904208D01*
X86325565Y-5722098D01*
X86532098Y-5515565D01*
X86714208Y-5287206D01*
X86869605Y-5039893D01*
X86996335Y-4776737D01*
X87092803Y-4501045D01*
X87157798Y-4216286D01*
X87190500Y-3926041D01*
X87190500Y-3633959D01*
X87157798Y-3343714D01*
X87092803Y-3058955D01*
X86996335Y-2783263D01*
X86869605Y-2520107D01*
X86714208Y-2272794D01*
X86532098Y-2044435D01*
X86325565Y-1837902D01*
X86097206Y-1655792D01*
X85849893Y-1500395D01*
X85849890Y-1500393D01*
X85586738Y-1373665D01*
X85311046Y-1277197D01*
X85311044Y-1277196D01*
X85171695Y-1245391D01*
X85110717Y-1211282D01*
X85077859Y-1149621D01*
X85083554Y-1079984D01*
X85125994Y-1024480D01*
X85191704Y-1000732D01*
X85199288Y-1000500D01*
X87880500Y-1000500D01*
X87947539Y-1020185D01*
X87993294Y-1072989D01*
X88004500Y-1124500D01*
X88004500Y-87875500D01*
X87984815Y-87942539D01*
X87932011Y-87988294D01*
X87880500Y-87999500D01*
X1129500Y-87999500D01*
X1062461Y-87979815D01*
X1016706Y-87927011D01*
X1005500Y-87875500D01*
X1005500Y-84926047D01*
X1989500Y-84926047D01*
X2022199Y-85216271D01*
X2022202Y-85216285D01*
X2087196Y-85501044D01*
X2087197Y-85501046D01*
X2183665Y-85776738D01*
X2310393Y-86039890D01*
X2310395Y-86039893D01*
X2465792Y-86287206D01*
X2647902Y-86515565D01*
X2854435Y-86722098D01*
X3082794Y-86904208D01*
X3330107Y-87059605D01*
X3593263Y-87186335D01*
X3868955Y-87282803D01*
X4153714Y-87347798D01*
X4153723Y-87347799D01*
X4153728Y-87347800D01*
X4347210Y-87369599D01*
X4443953Y-87380499D01*
X4443956Y-87380500D01*
X4443959Y-87380500D01*
X4736044Y-87380500D01*
X4736045Y-87380499D01*
X4884371Y-87363787D01*
X5026271Y-87347800D01*
X5026274Y-87347799D01*
X5026286Y-87347798D01*
X5311045Y-87282803D01*
X5586737Y-87186335D01*
X5849893Y-87059605D01*
X6097206Y-86904208D01*
X6325565Y-86722098D01*
X6532098Y-86515565D01*
X6714208Y-86287206D01*
X6869605Y-86039893D01*
X6996335Y-85776737D01*
X7092803Y-85501045D01*
X7157798Y-85216286D01*
X7190499Y-84926047D01*
X81989500Y-84926047D01*
X82022199Y-85216271D01*
X82022202Y-85216285D01*
X82087196Y-85501044D01*
X82087197Y-85501046D01*
X82183665Y-85776738D01*
X82310393Y-86039890D01*
X82310395Y-86039893D01*
X82465792Y-86287206D01*
X82647902Y-86515565D01*
X82854435Y-86722098D01*
X83082794Y-86904208D01*
X83330107Y-87059605D01*
X83593263Y-87186335D01*
X83868955Y-87282803D01*
X84153714Y-87347798D01*
X84153723Y-87347799D01*
X84153728Y-87347800D01*
X84347210Y-87369599D01*
X84443953Y-87380499D01*
X84443956Y-87380500D01*
X84443959Y-87380500D01*
X84736044Y-87380500D01*
X84736045Y-87380499D01*
X84884371Y-87363787D01*
X85026271Y-87347800D01*
X85026274Y-87347799D01*
X85026286Y-87347798D01*
X85311045Y-87282803D01*
X85586737Y-87186335D01*
X85849893Y-87059605D01*
X86097206Y-86904208D01*
X86325565Y-86722098D01*
X86532098Y-86515565D01*
X86714208Y-86287206D01*
X86869605Y-86039893D01*
X86996335Y-85776737D01*
X87092803Y-85501045D01*
X87157798Y-85216286D01*
X87190500Y-84926041D01*
X87190500Y-84633959D01*
X87157798Y-84343714D01*
X87092803Y-84058955D01*
X86996335Y-83783263D01*
X86869605Y-83520107D01*
X86714208Y-83272794D01*
X86532098Y-83044435D01*
X86325565Y-82837902D01*
X86097206Y-82655792D01*
X85849893Y-82500395D01*
X85849890Y-82500393D01*
X85586738Y-82373665D01*
X85311046Y-82277197D01*
X85311044Y-82277196D01*
X85091280Y-82227036D01*
X85026286Y-82212202D01*
X85026283Y-82212201D01*
X85026271Y-82212199D01*
X84736047Y-82179500D01*
X84736041Y-82179500D01*
X84443959Y-82179500D01*
X84443952Y-82179500D01*
X84153728Y-82212199D01*
X84153714Y-82212202D01*
X83868955Y-82277196D01*
X83868953Y-82277197D01*
X83593261Y-82373665D01*
X83330109Y-82500393D01*
X83082795Y-82655791D01*
X82854435Y-82837901D01*
X82647901Y-83044435D01*
X82465791Y-83272795D01*
X82310393Y-83520109D01*
X82183665Y-83783261D01*
X82087197Y-84058953D01*
X82087196Y-84058955D01*
X82022202Y-84343714D01*
X82022199Y-84343728D01*
X81989500Y-84633952D01*
X81989500Y-84926047D01*
X7190499Y-84926047D01*
X7190500Y-84926041D01*
X7190500Y-84633959D01*
X7157798Y-84343714D01*
X7092803Y-84058955D01*
X6996335Y-83783263D01*
X6869605Y-83520107D01*
X6714208Y-83272794D01*
X6532098Y-83044435D01*
X6325565Y-82837902D01*
X6097206Y-82655792D01*
X5849893Y-82500395D01*
X5849890Y-82500393D01*
X5586738Y-82373665D01*
X5311046Y-82277197D01*
X5311044Y-82277196D01*
X5091280Y-82227036D01*
X5026286Y-82212202D01*
X5026283Y-82212201D01*
X5026271Y-82212199D01*
X4736047Y-82179500D01*
X4736041Y-82179500D01*
X4443959Y-82179500D01*
X4443952Y-82179500D01*
X4153728Y-82212199D01*
X4153714Y-82212202D01*
X3868955Y-82277196D01*
X3868953Y-82277197D01*
X3593261Y-82373665D01*
X3330109Y-82500393D01*
X3082795Y-82655791D01*
X2854435Y-82837901D01*
X2647901Y-83044435D01*
X2465791Y-83272795D01*
X2310393Y-83520109D01*
X2183665Y-83783261D01*
X2087197Y-84058953D01*
X2087196Y-84058955D01*
X2022202Y-84343714D01*
X2022199Y-84343728D01*
X1989500Y-84633952D01*
X1989500Y-84926047D01*
X1005500Y-84926047D01*
X1005500Y-41446047D01*
X1989500Y-41446047D01*
X2022199Y-41736271D01*
X2022202Y-41736285D01*
X2087196Y-42021044D01*
X2087197Y-42021046D01*
X2183665Y-42296738D01*
X2310393Y-42559890D01*
X2324695Y-42582651D01*
X2465792Y-42807206D01*
X2536259Y-42895569D01*
X2639874Y-43025499D01*
X2647902Y-43035565D01*
X2854435Y-43242098D01*
X3082794Y-43424208D01*
X3330107Y-43579605D01*
X3593263Y-43706335D01*
X3868955Y-43802803D01*
X4153714Y-43867798D01*
X4153723Y-43867799D01*
X4153728Y-43867800D01*
X4347210Y-43889599D01*
X4443953Y-43900499D01*
X4443956Y-43900500D01*
X4443959Y-43900500D01*
X4736044Y-43900500D01*
X4736045Y-43900499D01*
X4884371Y-43883787D01*
X5026271Y-43867800D01*
X5026274Y-43867799D01*
X5026286Y-43867798D01*
X5311045Y-43802803D01*
X5586737Y-43706335D01*
X5849893Y-43579605D01*
X6097206Y-43424208D01*
X6325565Y-43242098D01*
X6532098Y-43035565D01*
X6714208Y-42807206D01*
X6869605Y-42559893D01*
X6996335Y-42296737D01*
X7092803Y-42021045D01*
X7157798Y-41736286D01*
X7159134Y-41724435D01*
X7175585Y-41578416D01*
X7190500Y-41446041D01*
X7190500Y-41153959D01*
X7179599Y-41057210D01*
X7157800Y-40863728D01*
X7157799Y-40863723D01*
X7157798Y-40863714D01*
X7092803Y-40578955D01*
X6996335Y-40303263D01*
X6923288Y-40151580D01*
X6869606Y-40040109D01*
X6830660Y-39978127D01*
X6714208Y-39792794D01*
X6532098Y-39564435D01*
X6325565Y-39357902D01*
X6097206Y-39175792D01*
X5849893Y-39020395D01*
X5849890Y-39020393D01*
X5586738Y-38893665D01*
X5311046Y-38797197D01*
X5311044Y-38797196D01*
X5091280Y-38747036D01*
X5026286Y-38732202D01*
X5026283Y-38732201D01*
X5026271Y-38732199D01*
X4736047Y-38699500D01*
X4736041Y-38699500D01*
X4443959Y-38699500D01*
X4443952Y-38699500D01*
X4153728Y-38732199D01*
X4153714Y-38732202D01*
X3868955Y-38797196D01*
X3868953Y-38797197D01*
X3593261Y-38893665D01*
X3330109Y-39020393D01*
X3082795Y-39175791D01*
X2854435Y-39357901D01*
X2647901Y-39564435D01*
X2465791Y-39792795D01*
X2310393Y-40040109D01*
X2183665Y-40303261D01*
X2087197Y-40578953D01*
X2087196Y-40578955D01*
X2022202Y-40863714D01*
X2022199Y-40863728D01*
X1989500Y-41153952D01*
X1989500Y-41446047D01*
X1005500Y-41446047D01*
X1005500Y-16570006D01*
X13924467Y-16570006D01*
X13944587Y-17043673D01*
X14004810Y-17513961D01*
X14104696Y-17977432D01*
X14104698Y-17977440D01*
X14243527Y-18430765D01*
X14243529Y-18430770D01*
X14420298Y-18870677D01*
X14420302Y-18870688D01*
X14633741Y-19294018D01*
X14633751Y-19294036D01*
X14882332Y-19697758D01*
X15164256Y-20078944D01*
X15164261Y-20078949D01*
X15164262Y-20078951D01*
X15477489Y-20434846D01*
X15819788Y-20762913D01*
X15819790Y-20762914D01*
X16188654Y-21060751D01*
X16188655Y-21060752D01*
X16339322Y-21162584D01*
X16581464Y-21326244D01*
X16765423Y-21429009D01*
X16995362Y-21557462D01*
X16995384Y-21557473D01*
X17427391Y-21752752D01*
X17427398Y-21752755D01*
X17874429Y-21910701D01*
X18333244Y-22030167D01*
X18800538Y-22110293D01*
X18946774Y-22122739D01*
X19272924Y-22150499D01*
X19272941Y-22150499D01*
X19272943Y-22150500D01*
X19272944Y-22150500D01*
X19747056Y-22150500D01*
X19747057Y-22150500D01*
X19747058Y-22150499D01*
X19747075Y-22150499D01*
X20028242Y-22126567D01*
X20219462Y-22110293D01*
X20686756Y-22030167D01*
X21145571Y-21910701D01*
X21592602Y-21752755D01*
X22024628Y-21557467D01*
X22438536Y-21326244D01*
X22831343Y-21060753D01*
X23200209Y-20762914D01*
X23200211Y-20762913D01*
X23200215Y-20762908D01*
X23200220Y-20762905D01*
X23542510Y-20434847D01*
X23557709Y-20417577D01*
X23616776Y-20380257D01*
X23650793Y-20375500D01*
X27810500Y-20375500D01*
X27877539Y-20395185D01*
X27923294Y-20447989D01*
X27934500Y-20499500D01*
X27934500Y-27840500D01*
X27914815Y-27907539D01*
X27862011Y-27953294D01*
X27810500Y-27964500D01*
X19074089Y-27964500D01*
X18966466Y-27976089D01*
X18914881Y-27987329D01*
X18914879Y-27987330D01*
X18812171Y-28021575D01*
X18796511Y-28031656D01*
X18691189Y-28099449D01*
X18638413Y-28145245D01*
X18544280Y-28254040D01*
X18544277Y-28254043D01*
X18484604Y-28384956D01*
X18484598Y-28384974D01*
X18465283Y-28450926D01*
X18464973Y-28451950D01*
X18444589Y-28594439D01*
X18444589Y-28594444D01*
X18454411Y-42366452D01*
X18466002Y-42473714D01*
X18466004Y-42473726D01*
X18477209Y-42525144D01*
X18511298Y-42627502D01*
X18511299Y-42627505D01*
X18589082Y-42748537D01*
X18589091Y-42748548D01*
X18634835Y-42801340D01*
X18634838Y-42801343D01*
X18634842Y-42801347D01*
X18743576Y-42895567D01*
X18743579Y-42895568D01*
X18743580Y-42895569D01*
X18837408Y-42938420D01*
X18874453Y-42955338D01*
X18941492Y-42975023D01*
X18941496Y-42975024D01*
X19083912Y-42995500D01*
X23308681Y-42995500D01*
X23343619Y-43000524D01*
X23355600Y-43004041D01*
X23358942Y-43005023D01*
X23358946Y-43005024D01*
X23501362Y-43025500D01*
X23501365Y-43025500D01*
X25345990Y-43025500D01*
X25346000Y-43025500D01*
X25432246Y-43016227D01*
X25501004Y-43028632D01*
X25552141Y-43076242D01*
X25569500Y-43139516D01*
X25569500Y-46817870D01*
X25569501Y-46817876D01*
X25575908Y-46877483D01*
X25626202Y-47012328D01*
X25626206Y-47012335D01*
X25712452Y-47127544D01*
X25712455Y-47127547D01*
X25827664Y-47213793D01*
X25827671Y-47213797D01*
X25962517Y-47264091D01*
X25962516Y-47264091D01*
X25969444Y-47264835D01*
X26022127Y-47270500D01*
X27617872Y-47270499D01*
X27677483Y-47264091D01*
X27812331Y-47213796D01*
X27927546Y-47127546D01*
X28013796Y-47012331D01*
X28064091Y-46877483D01*
X28070500Y-46817873D01*
X28070499Y-42522128D01*
X28064091Y-42462517D01*
X28048233Y-42420000D01*
X28013797Y-42327671D01*
X28013793Y-42327664D01*
X27927547Y-42212455D01*
X27927544Y-42212452D01*
X27812335Y-42126206D01*
X27812328Y-42126202D01*
X27677482Y-42075908D01*
X27677483Y-42075908D01*
X27617883Y-42069501D01*
X27617881Y-42069500D01*
X27617873Y-42069500D01*
X27617865Y-42069500D01*
X27494500Y-42069500D01*
X27427461Y-42049815D01*
X27381706Y-41997011D01*
X27370500Y-41945500D01*
X27370500Y-41751625D01*
X27373518Y-41724435D01*
X27374798Y-41718740D01*
X27388545Y-41543462D01*
X27393645Y-41478440D01*
X27393998Y-41472488D01*
X27394779Y-41459373D01*
X27380084Y-41316245D01*
X27378279Y-41309029D01*
X27374797Y-41296155D01*
X27370500Y-41263791D01*
X27370500Y-41105928D01*
X27345502Y-40980261D01*
X27345501Y-40980260D01*
X27345501Y-40980256D01*
X27307574Y-40888692D01*
X27296466Y-40861875D01*
X27296461Y-40861866D01*
X27225276Y-40755331D01*
X27225273Y-40755327D01*
X27134672Y-40664726D01*
X27134668Y-40664723D01*
X27028133Y-40593538D01*
X27028124Y-40593533D01*
X26909744Y-40544499D01*
X26909738Y-40544497D01*
X26895257Y-40541617D01*
X26833347Y-40509232D01*
X26798772Y-40448516D01*
X26802512Y-40378747D01*
X26843379Y-40322075D01*
X26895257Y-40298383D01*
X26903784Y-40296686D01*
X26909744Y-40295501D01*
X26922547Y-40290197D01*
X26992013Y-40282728D01*
X27017447Y-40290195D01*
X27030256Y-40295501D01*
X27030260Y-40295501D01*
X27030261Y-40295502D01*
X27155928Y-40320500D01*
X27155931Y-40320500D01*
X27284071Y-40320500D01*
X27370733Y-40303261D01*
X27409744Y-40295501D01*
X27528127Y-40246465D01*
X27634669Y-40175276D01*
X27725276Y-40084669D01*
X27796465Y-39978127D01*
X27845501Y-39859744D01*
X27855885Y-39807544D01*
X27870500Y-39734071D01*
X27870500Y-39290533D01*
X27890185Y-39223494D01*
X27942989Y-39177739D01*
X27955489Y-39172829D01*
X28078697Y-39132003D01*
X28223044Y-39042968D01*
X28232319Y-39033693D01*
X28293642Y-39000208D01*
X28363334Y-39005192D01*
X28407681Y-39033693D01*
X28416955Y-39042967D01*
X28416959Y-39042970D01*
X28561294Y-39131998D01*
X28561297Y-39131999D01*
X28561303Y-39132003D01*
X28722292Y-39185349D01*
X28821655Y-39195500D01*
X29368344Y-39195499D01*
X29368352Y-39195498D01*
X29368355Y-39195498D01*
X29422760Y-39189940D01*
X29467708Y-39185349D01*
X29628697Y-39132003D01*
X29773044Y-39042968D01*
X29892968Y-38923044D01*
X29982003Y-38778697D01*
X30035349Y-38617708D01*
X30045500Y-38518345D01*
X30045499Y-37921656D01*
X30035349Y-37822292D01*
X29982003Y-37661303D01*
X29982000Y-37661298D01*
X29981998Y-37661294D01*
X29892970Y-37516959D01*
X29892967Y-37516955D01*
X29773044Y-37397032D01*
X29773040Y-37397029D01*
X29628705Y-37308001D01*
X29628699Y-37307998D01*
X29628697Y-37307997D01*
X29578245Y-37291279D01*
X29467709Y-37254651D01*
X29368346Y-37244500D01*
X28821662Y-37244500D01*
X28821644Y-37244501D01*
X28722292Y-37254650D01*
X28722289Y-37254651D01*
X28561305Y-37307996D01*
X28561294Y-37308001D01*
X28416959Y-37397029D01*
X28416955Y-37397032D01*
X28407681Y-37406307D01*
X28346358Y-37439792D01*
X28276666Y-37434808D01*
X28232319Y-37406307D01*
X28223044Y-37397032D01*
X28223040Y-37397029D01*
X28078705Y-37308001D01*
X28078699Y-37307998D01*
X28078697Y-37307997D01*
X28028245Y-37291279D01*
X27917709Y-37254651D01*
X27818352Y-37244500D01*
X27818345Y-37244500D01*
X27494500Y-37244500D01*
X27427461Y-37224815D01*
X27381706Y-37172011D01*
X27370500Y-37120500D01*
X27370500Y-35955928D01*
X27345502Y-35830261D01*
X27345501Y-35830260D01*
X27345501Y-35830256D01*
X27296465Y-35711873D01*
X27296464Y-35711872D01*
X27296461Y-35711866D01*
X27225277Y-35605332D01*
X27186750Y-35566805D01*
X27134669Y-35514724D01*
X26982081Y-35362136D01*
X26823526Y-35203580D01*
X26790041Y-35142257D01*
X26787589Y-35106171D01*
X26789246Y-35085109D01*
X26790500Y-35069181D01*
X26790499Y-34670820D01*
X26787665Y-34634796D01*
X26742869Y-34480607D01*
X26661135Y-34342402D01*
X26661133Y-34342400D01*
X26661130Y-34342396D01*
X26547603Y-34228869D01*
X26547595Y-34228863D01*
X26409393Y-34147131D01*
X26409388Y-34147129D01*
X26255208Y-34102335D01*
X26255202Y-34102334D01*
X26219181Y-34099500D01*
X25720830Y-34099500D01*
X25720803Y-34099502D01*
X25691871Y-34101778D01*
X25623495Y-34087412D01*
X25573740Y-34038358D01*
X25558403Y-33970193D01*
X25582355Y-33904556D01*
X25594453Y-33890492D01*
X25718129Y-33766816D01*
X25779450Y-33733334D01*
X25805808Y-33730500D01*
X26689192Y-33730500D01*
X26756231Y-33750185D01*
X26776872Y-33766818D01*
X30635331Y-37625277D01*
X30662290Y-37643290D01*
X30689244Y-37661300D01*
X30689246Y-37661301D01*
X30689249Y-37661303D01*
X30741873Y-37696465D01*
X30860256Y-37745501D01*
X30860260Y-37745501D01*
X30860261Y-37745502D01*
X30985928Y-37770500D01*
X30985931Y-37770500D01*
X36454648Y-37770500D01*
X36521687Y-37790185D01*
X36542329Y-37806819D01*
X38033181Y-39297671D01*
X38066666Y-39358994D01*
X38069500Y-39385352D01*
X38069500Y-39566000D01*
X38049815Y-39633039D01*
X37997011Y-39678794D01*
X37945500Y-39690000D01*
X37636058Y-39690000D01*
X37616660Y-39688473D01*
X37597651Y-39685462D01*
X37585789Y-39683583D01*
X37575397Y-39681477D01*
X37563817Y-39678610D01*
X37560655Y-39678520D01*
X37549632Y-39677711D01*
X37438033Y-39664500D01*
X37438029Y-39664500D01*
X29694000Y-39664500D01*
X29693991Y-39664500D01*
X29693990Y-39664501D01*
X29586549Y-39676052D01*
X29586537Y-39676054D01*
X29535027Y-39687260D01*
X29432502Y-39721383D01*
X29432496Y-39721386D01*
X29311462Y-39799171D01*
X29311451Y-39799179D01*
X29258659Y-39844923D01*
X29164433Y-39953664D01*
X29164430Y-39953668D01*
X29104664Y-40084534D01*
X29084976Y-40151582D01*
X29071456Y-40245617D01*
X29064500Y-40294000D01*
X29064500Y-42420000D01*
X29064500Y-46675309D01*
X29071612Y-46740605D01*
X29076354Y-46784139D01*
X29087848Y-46836276D01*
X29087848Y-46836277D01*
X29116279Y-46920524D01*
X29122847Y-46939987D01*
X29122849Y-46939990D01*
X29122850Y-46939992D01*
X29189254Y-47042069D01*
X29201305Y-47060593D01*
X29247352Y-47113142D01*
X29247354Y-47113144D01*
X29356613Y-47206760D01*
X29487821Y-47265802D01*
X29521395Y-47275458D01*
X29554963Y-47285113D01*
X29554967Y-47285113D01*
X29554969Y-47285114D01*
X29554970Y-47285114D01*
X29563085Y-47286257D01*
X29563412Y-47286280D01*
X29697497Y-47304799D01*
X31249497Y-47296177D01*
X31355516Y-47284332D01*
X31392535Y-47276170D01*
X31406321Y-47273132D01*
X31406324Y-47273130D01*
X31406338Y-47273128D01*
X31507504Y-47239300D01*
X31628543Y-47161512D01*
X31681347Y-47115757D01*
X31775567Y-47007023D01*
X31835338Y-46876146D01*
X31855023Y-46809107D01*
X31855024Y-46809103D01*
X31875500Y-46666687D01*
X31875500Y-43549500D01*
X31895185Y-43482461D01*
X31947989Y-43436706D01*
X31999500Y-43425500D01*
X36695500Y-43425500D01*
X36762539Y-43445185D01*
X36808294Y-43497989D01*
X36819500Y-43549500D01*
X36819500Y-46271459D01*
X36819500Y-48171459D01*
X36819500Y-50898541D01*
X36819500Y-50898543D01*
X36819499Y-50898543D01*
X36836646Y-50984741D01*
X36836646Y-50984742D01*
X36849812Y-51050931D01*
X36857947Y-51091829D01*
X36857949Y-51091837D01*
X36933364Y-51273907D01*
X36933371Y-51273920D01*
X37042859Y-51437780D01*
X37042860Y-51437781D01*
X37042861Y-51437782D01*
X37182218Y-51577139D01*
X37182219Y-51577139D01*
X37189286Y-51584206D01*
X37189285Y-51584206D01*
X37189289Y-51584209D01*
X40322215Y-54717137D01*
X40322219Y-54717140D01*
X40486079Y-54826628D01*
X40486085Y-54826631D01*
X40486086Y-54826632D01*
X40668165Y-54902052D01*
X40861455Y-54940500D01*
X40861458Y-54940501D01*
X40932691Y-54940501D01*
X40999730Y-54960186D01*
X41045485Y-55012990D01*
X41055429Y-55082148D01*
X41026404Y-55145704D01*
X41020372Y-55152182D01*
X40789725Y-55382828D01*
X40789724Y-55382829D01*
X40734211Y-55465913D01*
X40734210Y-55465913D01*
X40718536Y-55489369D01*
X40688065Y-55562930D01*
X40661187Y-55603155D01*
X40539529Y-55724813D01*
X40451522Y-55870393D01*
X40400913Y-56032807D01*
X40394500Y-56103386D01*
X40394500Y-56766613D01*
X40400913Y-56837192D01*
X40451522Y-56999606D01*
X40539530Y-57145188D01*
X40659811Y-57265469D01*
X40659813Y-57265470D01*
X40659815Y-57265472D01*
X40805394Y-57353478D01*
X40967804Y-57404086D01*
X41038384Y-57410500D01*
X41038387Y-57410500D01*
X41551613Y-57410500D01*
X41551616Y-57410500D01*
X41622196Y-57404086D01*
X41784606Y-57353478D01*
X41930185Y-57265472D01*
X42050472Y-57145185D01*
X42138478Y-56999606D01*
X42189086Y-56837196D01*
X42195500Y-56766616D01*
X42195500Y-56103384D01*
X42189086Y-56032804D01*
X42189085Y-56032803D01*
X42188492Y-56026270D01*
X42189939Y-56026138D01*
X42195486Y-55964108D01*
X42238345Y-55908928D01*
X42304233Y-55885678D01*
X42310879Y-55885500D01*
X42585686Y-55885500D01*
X42585694Y-55885500D01*
X42622569Y-55882598D01*
X42622571Y-55882597D01*
X42622573Y-55882597D01*
X42664585Y-55870391D01*
X42780398Y-55836744D01*
X42921865Y-55753081D01*
X43038081Y-55636865D01*
X43121744Y-55495398D01*
X43167598Y-55337569D01*
X43170500Y-55300694D01*
X43170500Y-54484500D01*
X43190185Y-54417461D01*
X43242989Y-54371706D01*
X43294500Y-54360500D01*
X43345500Y-54360500D01*
X43412539Y-54380185D01*
X43458294Y-54432989D01*
X43469500Y-54484500D01*
X43469500Y-55300701D01*
X43472401Y-55337567D01*
X43472402Y-55337573D01*
X43518254Y-55495393D01*
X43518255Y-55495396D01*
X43518256Y-55495398D01*
X43519196Y-55496987D01*
X43584340Y-55607141D01*
X43601523Y-55674865D01*
X43583725Y-55734411D01*
X43501523Y-55870391D01*
X43501522Y-55870393D01*
X43501522Y-55870394D01*
X43497719Y-55882598D01*
X43450913Y-56032807D01*
X43444500Y-56103386D01*
X43444500Y-56766613D01*
X43450913Y-56837192D01*
X43501522Y-56999606D01*
X43589530Y-57145188D01*
X43633180Y-57188837D01*
X43666666Y-57250160D01*
X43669500Y-57276519D01*
X43669500Y-60015512D01*
X43649815Y-60082551D01*
X43604520Y-60124564D01*
X43570585Y-60142930D01*
X43570581Y-60142932D01*
X43392003Y-60281925D01*
X43238732Y-60448420D01*
X43114962Y-60637866D01*
X43024059Y-60845102D01*
X42968506Y-61064479D01*
X42949820Y-61289993D01*
X42949820Y-61290006D01*
X42968506Y-61515520D01*
X43024059Y-61734897D01*
X43114962Y-61942133D01*
X43238732Y-62131579D01*
X43392004Y-62298076D01*
X43392008Y-62298079D01*
X43570574Y-62437063D01*
X43570581Y-62437067D01*
X43570583Y-62437069D01*
X43769605Y-62544774D01*
X43880746Y-62582929D01*
X43983637Y-62618252D01*
X43983639Y-62618252D01*
X43983641Y-62618253D01*
X44206851Y-62655500D01*
X44206852Y-62655500D01*
X44433148Y-62655500D01*
X44433149Y-62655500D01*
X44656359Y-62618253D01*
X44870395Y-62544774D01*
X45069417Y-62437069D01*
X45247998Y-62298074D01*
X45401265Y-62131582D01*
X45525037Y-61942134D01*
X45615940Y-61734897D01*
X45671493Y-61515524D01*
X45690180Y-61290000D01*
X45690180Y-61289993D01*
X45671493Y-61064479D01*
X45671493Y-61064476D01*
X45615940Y-60845103D01*
X45525037Y-60637866D01*
X45401267Y-60448420D01*
X45381603Y-60427059D01*
X45247998Y-60281926D01*
X45069417Y-60142931D01*
X45035479Y-60124564D01*
X44985891Y-60075346D01*
X44970500Y-60015512D01*
X44970500Y-57326519D01*
X44990185Y-57259480D01*
X45006814Y-57238842D01*
X45100472Y-57145185D01*
X45188478Y-56999606D01*
X45239086Y-56837196D01*
X45245500Y-56766616D01*
X45245500Y-56103384D01*
X45239086Y-56032804D01*
X45188478Y-55870394D01*
X45100472Y-55724815D01*
X45100470Y-55724813D01*
X45100469Y-55724811D01*
X45033757Y-55658099D01*
X45000272Y-55596776D01*
X45005256Y-55527084D01*
X45014705Y-55507300D01*
X45021744Y-55495398D01*
X45067598Y-55337569D01*
X45067598Y-55337558D01*
X45067804Y-55336440D01*
X45068093Y-55335864D01*
X45069366Y-55331485D01*
X45070178Y-55331721D01*
X45099210Y-55274027D01*
X45159374Y-55238501D01*
X45229194Y-55241142D01*
X45253935Y-55252596D01*
X45255394Y-55253478D01*
X45417804Y-55304086D01*
X45488384Y-55310500D01*
X45488387Y-55310500D01*
X46151613Y-55310500D01*
X46151616Y-55310500D01*
X46222196Y-55304086D01*
X46384606Y-55253478D01*
X46530185Y-55165472D01*
X46650472Y-55045185D01*
X46738478Y-54899606D01*
X46789086Y-54737196D01*
X46795500Y-54666616D01*
X46795500Y-54153384D01*
X46789086Y-54082804D01*
X46738478Y-53920394D01*
X46650472Y-53774815D01*
X46650470Y-53774813D01*
X46650469Y-53774811D01*
X46548339Y-53672681D01*
X46514854Y-53611358D01*
X46519838Y-53541666D01*
X46548339Y-53497319D01*
X46650468Y-53395189D01*
X46650469Y-53395188D01*
X46650472Y-53395185D01*
X46738478Y-53249606D01*
X46789086Y-53087196D01*
X46792184Y-53053097D01*
X46817854Y-52988116D01*
X46827986Y-52976647D01*
X48662952Y-51141682D01*
X48736952Y-51030931D01*
X48745084Y-51018761D01*
X48801658Y-50882179D01*
X48830500Y-50737184D01*
X48830500Y-49812816D01*
X48830500Y-49812813D01*
X48801659Y-49667826D01*
X48801658Y-49667825D01*
X48801658Y-49667821D01*
X48745084Y-49531239D01*
X48700491Y-49464500D01*
X48700491Y-49464499D01*
X48662950Y-49408315D01*
X48577901Y-49323266D01*
X48544416Y-49261943D01*
X48543965Y-49211393D01*
X48550500Y-49178541D01*
X48550500Y-47042069D01*
X48550500Y-47042066D01*
X48533959Y-46958913D01*
X48533959Y-46958908D01*
X48512053Y-46848782D01*
X48512052Y-46848775D01*
X48448359Y-46695006D01*
X59984820Y-46695006D01*
X60003506Y-46920520D01*
X60059059Y-47139897D01*
X60149962Y-47347133D01*
X60273732Y-47536579D01*
X60427004Y-47703076D01*
X60427008Y-47703079D01*
X60605574Y-47842063D01*
X60605581Y-47842067D01*
X60605583Y-47842069D01*
X60804605Y-47949774D01*
X60915746Y-47987929D01*
X61018637Y-48023252D01*
X61018639Y-48023252D01*
X61018641Y-48023253D01*
X61241851Y-48060500D01*
X61241852Y-48060500D01*
X61468146Y-48060500D01*
X61468149Y-48060500D01*
X61603145Y-48037972D01*
X61672506Y-48046353D01*
X61711233Y-48072600D01*
X64044193Y-50405560D01*
X64077678Y-50466883D01*
X64072694Y-50536575D01*
X64044193Y-50580922D01*
X63320242Y-51304873D01*
X63320225Y-51304891D01*
X63252438Y-51389009D01*
X63252426Y-51389024D01*
X63228457Y-51426320D01*
X63211831Y-51446952D01*
X63193020Y-51465765D01*
X63193007Y-51465780D01*
X63155392Y-51512454D01*
X63095604Y-51643371D01*
X63075123Y-51785827D01*
X63095604Y-51928285D01*
X63155391Y-52059200D01*
X63155393Y-52059202D01*
X63193011Y-52105884D01*
X63193014Y-52105887D01*
X63193019Y-52105893D01*
X66027629Y-54940500D01*
X66584116Y-55496987D01*
X66584120Y-55496990D01*
X66584122Y-55496992D01*
X66630797Y-55534607D01*
X66692816Y-55562930D01*
X66761714Y-55594395D01*
X66904172Y-55614877D01*
X67046629Y-55594395D01*
X67177545Y-55534607D01*
X67224227Y-55496989D01*
X69986005Y-52735209D01*
X70023625Y-52688527D01*
X70083413Y-52557611D01*
X70103895Y-52415154D01*
X70083413Y-52272696D01*
X70023625Y-52141780D01*
X70023621Y-52141775D01*
X70019547Y-52135179D01*
X70020114Y-52134828D01*
X70005519Y-52109194D01*
X70004470Y-52106380D01*
X70004467Y-52106375D01*
X69970991Y-52045068D01*
X69970987Y-52045062D01*
X69970985Y-52045058D01*
X69884761Y-51929877D01*
X69884756Y-51929872D01*
X69884751Y-51929866D01*
X66735126Y-48780242D01*
X66735108Y-48780225D01*
X66650990Y-48712438D01*
X66650985Y-48712434D01*
X66650983Y-48712433D01*
X66650981Y-48712431D01*
X66606634Y-48683930D01*
X66606635Y-48683930D01*
X66606628Y-48683926D01*
X66509987Y-48635552D01*
X66509986Y-48635551D01*
X66509985Y-48635551D01*
X66509983Y-48635550D01*
X66509976Y-48635548D01*
X66467140Y-48626230D01*
X66441987Y-48617859D01*
X66417303Y-48606586D01*
X66295327Y-48589049D01*
X66274846Y-48586105D01*
X66274845Y-48586105D01*
X66132389Y-48606586D01*
X66001473Y-48666374D01*
X65990763Y-48675005D01*
X65972394Y-48687278D01*
X65967952Y-48689703D01*
X65960055Y-48694016D01*
X65844884Y-48780232D01*
X65844866Y-48780248D01*
X65280922Y-49344193D01*
X65219599Y-49377678D01*
X65149907Y-49372694D01*
X65105560Y-49344193D01*
X62745252Y-46983885D01*
X62711767Y-46922562D01*
X62709357Y-46885964D01*
X62725180Y-46695005D01*
X62725180Y-46694993D01*
X62706493Y-46469479D01*
X62706493Y-46469476D01*
X62650940Y-46250103D01*
X62648482Y-46244500D01*
X62560037Y-46042866D01*
X62436267Y-45853420D01*
X62282995Y-45686923D01*
X62282991Y-45686920D01*
X62104425Y-45547936D01*
X62104414Y-45547929D01*
X61905401Y-45440229D01*
X61905398Y-45440228D01*
X61905395Y-45440226D01*
X61905389Y-45440224D01*
X61905387Y-45440223D01*
X61691362Y-45366747D01*
X61523951Y-45338811D01*
X61468149Y-45329500D01*
X61241851Y-45329500D01*
X61197209Y-45336949D01*
X61018637Y-45366747D01*
X60804612Y-45440223D01*
X60804598Y-45440229D01*
X60605585Y-45547929D01*
X60605574Y-45547936D01*
X60427008Y-45686920D01*
X60427004Y-45686923D01*
X60273732Y-45853420D01*
X60149962Y-46042866D01*
X60059059Y-46250102D01*
X60003506Y-46469479D01*
X59984820Y-46694993D01*
X59984820Y-46695006D01*
X48448359Y-46695006D01*
X48440200Y-46675309D01*
X48436633Y-46666698D01*
X48436628Y-46666689D01*
X48327140Y-46502829D01*
X48327137Y-46502825D01*
X46123599Y-44299289D01*
X46123596Y-44299285D01*
X46123596Y-44299286D01*
X46116529Y-44292219D01*
X46116529Y-44292218D01*
X45977172Y-44152861D01*
X45977171Y-44152860D01*
X45977170Y-44152859D01*
X45813310Y-44043371D01*
X45813301Y-44043366D01*
X45730073Y-44008892D01*
X45684555Y-43990038D01*
X45657890Y-43978993D01*
X45631227Y-43967949D01*
X45631223Y-43967948D01*
X45513335Y-43944499D01*
X45437933Y-43929500D01*
X45437931Y-43929500D01*
X39775783Y-43929500D01*
X39708744Y-43909815D01*
X39688102Y-43893181D01*
X38918078Y-43123157D01*
X38884593Y-43061834D01*
X38886781Y-43000541D01*
X38905023Y-42938420D01*
X38905024Y-42938416D01*
X38925500Y-42796000D01*
X38925500Y-42699500D01*
X38945185Y-42632461D01*
X38997989Y-42586706D01*
X39049500Y-42575500D01*
X41745990Y-42575500D01*
X41746000Y-42575500D01*
X41794866Y-42570246D01*
X41863625Y-42582651D01*
X41914762Y-42630261D01*
X41931410Y-42680277D01*
X41936053Y-42723454D01*
X41936054Y-42723462D01*
X41947260Y-42774972D01*
X41981383Y-42877497D01*
X41981386Y-42877503D01*
X42059171Y-42998537D01*
X42059179Y-42998548D01*
X42104923Y-43051340D01*
X42104926Y-43051343D01*
X42104930Y-43051347D01*
X42213664Y-43145567D01*
X42213667Y-43145568D01*
X42213668Y-43145569D01*
X42307925Y-43188616D01*
X42344541Y-43205338D01*
X42411580Y-43225023D01*
X42411584Y-43225024D01*
X42554000Y-43245500D01*
X42554003Y-43245500D01*
X44185990Y-43245500D01*
X44186000Y-43245500D01*
X44293456Y-43233947D01*
X44344967Y-43222741D01*
X44379197Y-43211347D01*
X44447497Y-43188616D01*
X44447501Y-43188613D01*
X44447504Y-43188613D01*
X44568543Y-43110825D01*
X44621347Y-43065070D01*
X44715567Y-42956336D01*
X44775338Y-42825459D01*
X44795023Y-42758420D01*
X44795024Y-42758416D01*
X44815500Y-42616000D01*
X44815500Y-39388639D01*
X49554500Y-39388639D01*
X49557396Y-39442667D01*
X49557399Y-39442699D01*
X49558790Y-39455642D01*
X49559500Y-39468886D01*
X49559500Y-39497859D01*
X49559501Y-39497871D01*
X49563790Y-39537770D01*
X49564500Y-39551022D01*
X49564500Y-41436000D01*
X49564501Y-41436009D01*
X49576052Y-41543450D01*
X49576054Y-41543462D01*
X49587260Y-41594972D01*
X49621383Y-41697497D01*
X49621386Y-41697503D01*
X49699171Y-41818537D01*
X49699179Y-41818548D01*
X49744923Y-41871340D01*
X49744926Y-41871343D01*
X49744930Y-41871347D01*
X49853664Y-41965567D01*
X49853667Y-41965568D01*
X49853668Y-41965569D01*
X49975140Y-42021045D01*
X49984541Y-42025338D01*
X50051580Y-42045023D01*
X50051584Y-42045024D01*
X50194000Y-42065500D01*
X50194003Y-42065500D01*
X54555990Y-42065500D01*
X54556000Y-42065500D01*
X54663456Y-42053947D01*
X54714967Y-42042741D01*
X54749197Y-42031347D01*
X54817497Y-42008616D01*
X54817501Y-42008613D01*
X54817504Y-42008613D01*
X54938543Y-41930825D01*
X54991347Y-41885070D01*
X55085567Y-41776336D01*
X55145338Y-41645459D01*
X55165023Y-41578420D01*
X55165024Y-41578416D01*
X55185500Y-41436000D01*
X55185500Y-40079500D01*
X55205185Y-40012461D01*
X55257989Y-39966706D01*
X55309500Y-39955500D01*
X60275991Y-39955500D01*
X60276000Y-39955500D01*
X60315901Y-39951209D01*
X60329157Y-39950499D01*
X60447871Y-39950499D01*
X60447872Y-39950499D01*
X60507483Y-39944091D01*
X60642331Y-39893796D01*
X60757546Y-39807546D01*
X60843796Y-39692331D01*
X60894091Y-39557483D01*
X60900500Y-39497873D01*
X60900499Y-39369643D01*
X60901762Y-39351990D01*
X60905500Y-39326000D01*
X60905500Y-39066000D01*
X69299500Y-39066000D01*
X69299501Y-39066009D01*
X69311052Y-39173450D01*
X69311054Y-39173462D01*
X69322260Y-39224972D01*
X69356383Y-39327497D01*
X69356386Y-39327503D01*
X69434171Y-39448537D01*
X69434179Y-39448548D01*
X69479923Y-39501340D01*
X69479926Y-39501343D01*
X69479930Y-39501347D01*
X69588664Y-39595567D01*
X69588667Y-39595568D01*
X69588668Y-39595569D01*
X69719536Y-39655336D01*
X69719537Y-39655336D01*
X69719541Y-39655338D01*
X69786580Y-39675023D01*
X69786585Y-39675024D01*
X69787943Y-39675423D01*
X69818107Y-39688864D01*
X69831297Y-39697000D01*
X69831299Y-39697000D01*
X69831303Y-39697003D01*
X69992292Y-39750349D01*
X70091655Y-39760500D01*
X70638344Y-39760499D01*
X70638352Y-39760498D01*
X70638355Y-39760498D01*
X70692760Y-39754940D01*
X70737708Y-39750349D01*
X70884239Y-39701794D01*
X70923243Y-39695500D01*
X71344660Y-39695500D01*
X71411699Y-39715185D01*
X71457454Y-39767989D01*
X71468659Y-39819362D01*
X71470903Y-41885070D01*
X71472261Y-43135026D01*
X71452649Y-43202087D01*
X71435942Y-43222842D01*
X70553998Y-44104787D01*
X70553989Y-44104797D01*
X70516374Y-44151472D01*
X70456586Y-44282389D01*
X70436105Y-44424845D01*
X70456586Y-44567303D01*
X70516373Y-44698218D01*
X70516375Y-44698220D01*
X70553993Y-44744902D01*
X70553996Y-44744905D01*
X70554001Y-44744911D01*
X73390021Y-47580928D01*
X73945098Y-48136005D01*
X73945102Y-48136008D01*
X73945104Y-48136010D01*
X73991779Y-48173625D01*
X74122696Y-48233413D01*
X74265154Y-48253895D01*
X74407611Y-48233413D01*
X74538527Y-48173625D01*
X74585209Y-48136007D01*
X77346987Y-45374227D01*
X77384607Y-45327545D01*
X77444395Y-45196629D01*
X77464877Y-45054172D01*
X77444395Y-44911714D01*
X77384608Y-44780799D01*
X77378175Y-44772816D01*
X77346989Y-44734116D01*
X77346984Y-44734111D01*
X77346980Y-44734106D01*
X76555363Y-43942490D01*
X76521878Y-43881167D01*
X76519044Y-43854944D01*
X76516427Y-41446047D01*
X81989500Y-41446047D01*
X82022199Y-41736271D01*
X82022202Y-41736285D01*
X82087196Y-42021044D01*
X82087197Y-42021046D01*
X82183665Y-42296738D01*
X82310393Y-42559890D01*
X82324695Y-42582651D01*
X82465792Y-42807206D01*
X82536259Y-42895569D01*
X82639874Y-43025499D01*
X82647902Y-43035565D01*
X82854435Y-43242098D01*
X83082794Y-43424208D01*
X83330107Y-43579605D01*
X83593263Y-43706335D01*
X83868955Y-43802803D01*
X84153714Y-43867798D01*
X84153723Y-43867799D01*
X84153728Y-43867800D01*
X84347210Y-43889599D01*
X84443953Y-43900499D01*
X84443956Y-43900500D01*
X84443959Y-43900500D01*
X84736044Y-43900500D01*
X84736045Y-43900499D01*
X84884371Y-43883787D01*
X85026271Y-43867800D01*
X85026274Y-43867799D01*
X85026286Y-43867798D01*
X85311045Y-43802803D01*
X85586737Y-43706335D01*
X85849893Y-43579605D01*
X86097206Y-43424208D01*
X86325565Y-43242098D01*
X86532098Y-43035565D01*
X86714208Y-42807206D01*
X86869605Y-42559893D01*
X86996335Y-42296737D01*
X87092803Y-42021045D01*
X87157798Y-41736286D01*
X87159134Y-41724435D01*
X87175585Y-41578416D01*
X87190500Y-41446041D01*
X87190500Y-41153959D01*
X87179599Y-41057210D01*
X87157800Y-40863728D01*
X87157799Y-40863723D01*
X87157798Y-40863714D01*
X87092803Y-40578955D01*
X86996335Y-40303263D01*
X86923288Y-40151580D01*
X86869606Y-40040109D01*
X86830660Y-39978127D01*
X86714208Y-39792794D01*
X86532098Y-39564435D01*
X86325565Y-39357902D01*
X86097206Y-39175792D01*
X85849893Y-39020395D01*
X85849890Y-39020393D01*
X85586738Y-38893665D01*
X85311046Y-38797197D01*
X85311044Y-38797196D01*
X85091280Y-38747036D01*
X85026286Y-38732202D01*
X85026283Y-38732201D01*
X85026271Y-38732199D01*
X84736047Y-38699500D01*
X84736041Y-38699500D01*
X84443959Y-38699500D01*
X84443952Y-38699500D01*
X84153728Y-38732199D01*
X84153714Y-38732202D01*
X83868955Y-38797196D01*
X83868953Y-38797197D01*
X83593261Y-38893665D01*
X83330109Y-39020393D01*
X83082795Y-39175791D01*
X82854435Y-39357901D01*
X82647901Y-39564435D01*
X82465791Y-39792795D01*
X82310393Y-40040109D01*
X82183665Y-40303261D01*
X82087197Y-40578953D01*
X82087196Y-40578955D01*
X82022202Y-40863714D01*
X82022199Y-40863728D01*
X81989500Y-41153952D01*
X81989500Y-41446047D01*
X76516427Y-41446047D01*
X76512391Y-37731972D01*
X76532003Y-37664915D01*
X76548705Y-37644165D01*
X77806987Y-36385884D01*
X77844607Y-36339202D01*
X77904395Y-36208286D01*
X77924877Y-36065828D01*
X77904395Y-35923371D01*
X77883010Y-35876544D01*
X77844608Y-35792456D01*
X77838175Y-35784473D01*
X77806989Y-35745773D01*
X77806984Y-35745768D01*
X77806980Y-35745763D01*
X75045212Y-32983998D01*
X75045206Y-32983993D01*
X75045202Y-32983989D01*
X74998527Y-32946374D01*
X74867609Y-32886586D01*
X74867611Y-32886586D01*
X74725154Y-32866105D01*
X74582696Y-32886586D01*
X74451781Y-32946373D01*
X74405088Y-32984001D01*
X72775911Y-34613181D01*
X72714588Y-34646666D01*
X72688230Y-34649500D01*
X69929000Y-34649500D01*
X69928991Y-34649500D01*
X69928990Y-34649501D01*
X69821549Y-34661052D01*
X69821537Y-34661054D01*
X69770027Y-34672260D01*
X69667502Y-34706383D01*
X69667496Y-34706386D01*
X69546462Y-34784171D01*
X69546451Y-34784179D01*
X69493659Y-34829923D01*
X69399433Y-34938664D01*
X69399430Y-34938668D01*
X69339664Y-35069534D01*
X69319976Y-35136582D01*
X69299500Y-35279001D01*
X69299500Y-35391166D01*
X69304971Y-35465336D01*
X69310310Y-35501333D01*
X69326419Y-35573074D01*
X69328834Y-35588085D01*
X69336197Y-35662845D01*
X69336197Y-35687152D01*
X69328834Y-35761919D01*
X69326418Y-35776934D01*
X69310311Y-35848658D01*
X69310309Y-35848670D01*
X69304971Y-35884658D01*
X69299500Y-35958829D01*
X69299500Y-37093894D01*
X69300109Y-37118718D01*
X69300706Y-37130877D01*
X69302530Y-37155607D01*
X69306198Y-37192845D01*
X69306198Y-37217150D01*
X69302531Y-37254385D01*
X69300706Y-37279120D01*
X69300109Y-37291279D01*
X69299500Y-37316103D01*
X69299500Y-38755459D01*
X69299659Y-38761978D01*
X69299659Y-38768025D01*
X69299500Y-38774543D01*
X69299500Y-38774555D01*
X69299500Y-39066000D01*
X60905500Y-39066000D01*
X60905500Y-36274010D01*
X60905500Y-36274000D01*
X60901210Y-36234098D01*
X60900499Y-36220843D01*
X60900499Y-36102129D01*
X60900498Y-36102123D01*
X60900497Y-36102116D01*
X60894091Y-36042517D01*
X60872269Y-35984010D01*
X60843797Y-35907671D01*
X60843793Y-35907664D01*
X60757547Y-35792455D01*
X60757544Y-35792452D01*
X60642335Y-35706206D01*
X60642328Y-35706202D01*
X60507482Y-35655908D01*
X60507483Y-35655908D01*
X60447883Y-35649501D01*
X60447881Y-35649500D01*
X60447873Y-35649500D01*
X60447865Y-35649500D01*
X60319645Y-35649500D01*
X60301999Y-35648238D01*
X60276001Y-35644500D01*
X60276000Y-35644500D01*
X50184000Y-35644500D01*
X50183995Y-35644500D01*
X50144089Y-35648790D01*
X50130837Y-35649500D01*
X50012130Y-35649500D01*
X50012123Y-35649501D01*
X49952516Y-35655908D01*
X49817671Y-35706202D01*
X49817664Y-35706206D01*
X49702455Y-35792452D01*
X49702452Y-35792455D01*
X49616206Y-35907664D01*
X49616202Y-35907671D01*
X49565908Y-36042517D01*
X49559501Y-36102116D01*
X49559501Y-36102123D01*
X49559500Y-36102135D01*
X49559500Y-36230354D01*
X49558238Y-36247999D01*
X49554500Y-36273996D01*
X49554500Y-39388639D01*
X44815500Y-39388639D01*
X44815500Y-35984000D01*
X44803947Y-35876544D01*
X44792741Y-35825033D01*
X44792637Y-35824722D01*
X44758616Y-35722502D01*
X44758613Y-35722496D01*
X44748141Y-35706202D01*
X44680825Y-35601457D01*
X44650799Y-35566805D01*
X44621775Y-35503249D01*
X44631719Y-35434091D01*
X44677474Y-35381287D01*
X44710875Y-35366252D01*
X44736143Y-35359132D01*
X44865728Y-35296607D01*
X44972448Y-35200106D01*
X44984181Y-35185972D01*
X45016458Y-35142557D01*
X45078129Y-35012564D01*
X45271616Y-34387448D01*
X45310241Y-34329232D01*
X45374213Y-34301136D01*
X45389928Y-34300118D01*
X46048026Y-34299433D01*
X46100590Y-34296637D01*
X46117369Y-34294865D01*
X46126214Y-34293931D01*
X46126219Y-34293930D01*
X46126241Y-34293928D01*
X46169726Y-34287030D01*
X46189153Y-34285499D01*
X46351634Y-34285499D01*
X46371002Y-34287021D01*
X46377296Y-34288016D01*
X46412088Y-34293518D01*
X46412116Y-34293521D01*
X46412124Y-34293522D01*
X46423893Y-34294752D01*
X46437997Y-34296228D01*
X46491111Y-34298971D01*
X46491118Y-34298970D01*
X46491119Y-34298971D01*
X46499223Y-34298962D01*
X47462007Y-34297958D01*
X47514575Y-34295162D01*
X47540224Y-34292453D01*
X47574400Y-34287031D01*
X47593829Y-34285499D01*
X47666792Y-34285499D01*
X47686159Y-34287020D01*
X47718632Y-34292156D01*
X47744541Y-34294866D01*
X47797655Y-34297609D01*
X47797661Y-34297608D01*
X47797662Y-34297609D01*
X47805926Y-34297600D01*
X48926240Y-34296432D01*
X48950067Y-34295172D01*
X48956610Y-34295000D01*
X49113295Y-34295000D01*
X49119706Y-34295166D01*
X49122281Y-34295299D01*
X49126482Y-34295517D01*
X49153176Y-34296195D01*
X49153176Y-34296194D01*
X49153177Y-34296195D01*
X49153743Y-34296194D01*
X49696306Y-34295629D01*
X49804182Y-34283869D01*
X49855882Y-34272518D01*
X49958768Y-34238003D01*
X50079588Y-34159874D01*
X50132263Y-34113970D01*
X50226174Y-34004972D01*
X50285576Y-33873927D01*
X50305072Y-33806833D01*
X50305073Y-33806829D01*
X50325148Y-33664356D01*
X50319980Y-31829848D01*
X50339476Y-31762755D01*
X50392151Y-31716851D01*
X50443980Y-31705500D01*
X51745990Y-31705500D01*
X51746000Y-31705500D01*
X51853456Y-31693947D01*
X51904967Y-31682741D01*
X51939197Y-31671347D01*
X52007497Y-31648616D01*
X52007501Y-31648613D01*
X52007504Y-31648613D01*
X52128543Y-31570825D01*
X52181347Y-31525070D01*
X52275567Y-31416336D01*
X52335338Y-31285459D01*
X52355023Y-31218420D01*
X52355024Y-31218416D01*
X52355059Y-31218169D01*
X52355251Y-31216843D01*
X52355395Y-31216527D01*
X52355635Y-31215306D01*
X52355926Y-31215363D01*
X52384281Y-31153290D01*
X52443062Y-31115520D01*
X52477987Y-31110500D01*
X61855990Y-31110500D01*
X61856000Y-31110500D01*
X61963456Y-31098947D01*
X62014967Y-31087741D01*
X62049197Y-31076347D01*
X62117497Y-31053616D01*
X62117499Y-31053614D01*
X62117504Y-31053613D01*
X62185266Y-31010064D01*
X62252303Y-30990379D01*
X62304036Y-31001685D01*
X62398890Y-31045229D01*
X62465891Y-31065045D01*
X62608266Y-31085800D01*
X65038231Y-31090564D01*
X65105231Y-31110380D01*
X65125668Y-31126883D01*
X65828635Y-31829849D01*
X66414791Y-32416005D01*
X66414795Y-32416008D01*
X66414797Y-32416010D01*
X66461472Y-32453625D01*
X66526931Y-32483519D01*
X66592389Y-32513413D01*
X66592388Y-32513413D01*
X66612870Y-32516357D01*
X66734846Y-32533895D01*
X66877304Y-32513413D01*
X67008220Y-32453625D01*
X67054902Y-32416007D01*
X70446005Y-29024902D01*
X70483625Y-28978220D01*
X70543413Y-28847304D01*
X70563895Y-28704846D01*
X70543413Y-28562389D01*
X70492509Y-28450926D01*
X70483626Y-28431474D01*
X70446154Y-28384974D01*
X70446007Y-28384791D01*
X70446002Y-28384786D01*
X70445998Y-28384781D01*
X67684230Y-25623016D01*
X67684224Y-25623011D01*
X67684220Y-25623007D01*
X67637545Y-25585392D01*
X67506627Y-25525604D01*
X67506629Y-25525604D01*
X67364172Y-25505123D01*
X67221714Y-25525604D01*
X67090799Y-25585391D01*
X67044106Y-25623019D01*
X65922320Y-26744805D01*
X65860997Y-26778290D01*
X65834396Y-26781124D01*
X62608790Y-26774800D01*
X62608789Y-26774800D01*
X62608788Y-26774800D01*
X62608773Y-26774801D01*
X62474527Y-26792682D01*
X62435411Y-26803373D01*
X62411009Y-26810043D01*
X62411007Y-26810044D01*
X62411001Y-26810046D01*
X62286326Y-26862929D01*
X62286315Y-26862935D01*
X62284497Y-26864401D01*
X62282463Y-26865243D01*
X62278940Y-26867354D01*
X62278627Y-26866831D01*
X62219945Y-26891135D01*
X62155185Y-26880639D01*
X62065465Y-26839664D01*
X62065460Y-26839662D01*
X62065459Y-26839662D01*
X61998420Y-26819977D01*
X61998422Y-26819977D01*
X61998417Y-26819976D01*
X61929329Y-26810043D01*
X61856000Y-26799500D01*
X50179000Y-26799500D01*
X50178997Y-26799500D01*
X50092582Y-26808790D01*
X50079330Y-26809500D01*
X50012131Y-26809500D01*
X50012122Y-26809501D01*
X49952516Y-26815908D01*
X49817671Y-26866202D01*
X49817664Y-26866206D01*
X49702455Y-26952452D01*
X49702452Y-26952455D01*
X49616206Y-27067664D01*
X49616202Y-27067671D01*
X49565908Y-27202517D01*
X49559501Y-27262116D01*
X49559500Y-27262135D01*
X49559500Y-27350577D01*
X49558238Y-27368223D01*
X49549500Y-27428998D01*
X49549500Y-28670500D01*
X49529815Y-28737539D01*
X49477011Y-28783294D01*
X49425500Y-28794500D01*
X44691021Y-28794500D01*
X44677766Y-28793789D01*
X44637883Y-28789501D01*
X44637881Y-28789500D01*
X44637873Y-28789500D01*
X44637864Y-28789500D01*
X40222129Y-28789500D01*
X40222123Y-28789501D01*
X40162516Y-28795908D01*
X40027671Y-28846202D01*
X40027664Y-28846206D01*
X39912455Y-28932452D01*
X39912452Y-28932455D01*
X39826206Y-29047664D01*
X39826202Y-29047671D01*
X39775908Y-29182517D01*
X39769501Y-29242116D01*
X39769501Y-29242123D01*
X39769500Y-29242135D01*
X39769500Y-29318977D01*
X39768198Y-29336902D01*
X39754220Y-29432576D01*
X39744782Y-33604576D01*
X39756214Y-33712629D01*
X39766695Y-33761064D01*
X39769500Y-33787288D01*
X39769500Y-34037869D01*
X39769501Y-34037876D01*
X39775908Y-34097483D01*
X39826202Y-34232328D01*
X39826206Y-34232335D01*
X39912452Y-34347544D01*
X39912455Y-34347547D01*
X40027664Y-34433793D01*
X40027671Y-34433797D01*
X40162517Y-34484091D01*
X40162516Y-34484091D01*
X40169444Y-34484835D01*
X40222127Y-34490500D01*
X43187825Y-34490499D01*
X43254864Y-34510184D01*
X43300619Y-34562988D01*
X43310563Y-34632146D01*
X43281538Y-34695702D01*
X43256717Y-34717600D01*
X43239263Y-34729262D01*
X43239262Y-34729263D01*
X43207769Y-34776396D01*
X43207766Y-34776403D01*
X43199500Y-34817959D01*
X43199500Y-34833980D01*
X43179815Y-34901019D01*
X43131976Y-34942471D01*
X43132572Y-34943538D01*
X43127427Y-34946413D01*
X43127011Y-34946774D01*
X43126087Y-34947161D01*
X43124830Y-34947864D01*
X43010502Y-35035215D01*
X42961585Y-35085103D01*
X42961583Y-35085106D01*
X42961581Y-35085109D01*
X42877244Y-35200112D01*
X42876489Y-35201141D01*
X42829711Y-35288852D01*
X42780795Y-35338742D01*
X42720299Y-35354500D01*
X42554000Y-35354500D01*
X42553991Y-35354500D01*
X42553990Y-35354501D01*
X42446549Y-35366052D01*
X42446537Y-35366054D01*
X42395033Y-35377259D01*
X42330957Y-35398585D01*
X42261132Y-35401078D01*
X42201043Y-35365425D01*
X42198089Y-35362136D01*
X42195075Y-35358658D01*
X42195072Y-35358655D01*
X42195070Y-35358653D01*
X42086336Y-35264433D01*
X42086333Y-35264431D01*
X42086331Y-35264430D01*
X41955465Y-35204664D01*
X41955460Y-35204662D01*
X41955459Y-35204662D01*
X41888420Y-35184977D01*
X41888422Y-35184977D01*
X41888417Y-35184976D01*
X41826347Y-35176052D01*
X41746000Y-35164500D01*
X40894000Y-35164500D01*
X40893991Y-35164500D01*
X40893990Y-35164501D01*
X40786549Y-35176052D01*
X40786537Y-35176054D01*
X40735027Y-35187260D01*
X40632502Y-35221383D01*
X40632496Y-35221386D01*
X40511462Y-35299171D01*
X40511451Y-35299179D01*
X40458659Y-35344923D01*
X40364433Y-35453664D01*
X40364430Y-35453668D01*
X40304664Y-35584534D01*
X40284976Y-35651582D01*
X40274780Y-35722502D01*
X40269113Y-35761919D01*
X40264500Y-35794001D01*
X40264500Y-39540500D01*
X40244815Y-39607539D01*
X40192011Y-39653294D01*
X40140500Y-39664500D01*
X39494500Y-39664500D01*
X39427461Y-39644815D01*
X39381706Y-39592011D01*
X39370500Y-39540500D01*
X39370500Y-39000472D01*
X39345502Y-38874805D01*
X39345501Y-38874804D01*
X39345501Y-38874800D01*
X39296465Y-38756417D01*
X39259103Y-38700500D01*
X39259103Y-38700499D01*
X39225279Y-38649878D01*
X39225273Y-38649870D01*
X37190129Y-36614726D01*
X37190125Y-36614723D01*
X37083583Y-36543535D01*
X36965200Y-36494499D01*
X36965194Y-36494497D01*
X36839527Y-36469500D01*
X36839525Y-36469500D01*
X31370808Y-36469500D01*
X31303769Y-36449815D01*
X31283127Y-36433181D01*
X29552126Y-34702180D01*
X29518641Y-34640857D01*
X29523625Y-34571165D01*
X29565497Y-34515232D01*
X29630961Y-34490815D01*
X29639807Y-34490499D01*
X33717871Y-34490499D01*
X33717872Y-34490499D01*
X33777483Y-34484091D01*
X33912331Y-34433796D01*
X34027546Y-34347546D01*
X34113796Y-34232331D01*
X34164091Y-34097483D01*
X34170500Y-34037873D01*
X34170499Y-29242128D01*
X34164091Y-29182517D01*
X34113796Y-29047669D01*
X34113795Y-29047668D01*
X34113793Y-29047664D01*
X34027547Y-28932455D01*
X34027544Y-28932452D01*
X33912335Y-28846206D01*
X33912328Y-28846202D01*
X33777482Y-28795908D01*
X33777483Y-28795908D01*
X33717883Y-28789501D01*
X33717881Y-28789500D01*
X33717873Y-28789500D01*
X33717865Y-28789500D01*
X31599500Y-28789500D01*
X31532461Y-28769815D01*
X31486706Y-28717011D01*
X31475500Y-28665500D01*
X31475500Y-13844010D01*
X31475500Y-13844000D01*
X31463947Y-13736544D01*
X31452741Y-13685033D01*
X31452637Y-13684722D01*
X31418616Y-13582502D01*
X31418613Y-13582496D01*
X31340828Y-13461462D01*
X31340825Y-13461457D01*
X31324175Y-13442242D01*
X31295076Y-13408659D01*
X31295072Y-13408656D01*
X31295070Y-13408653D01*
X31186336Y-13314433D01*
X31186333Y-13314431D01*
X31186331Y-13314430D01*
X31055465Y-13254664D01*
X31055460Y-13254662D01*
X31055459Y-13254662D01*
X30988420Y-13234977D01*
X30988422Y-13234977D01*
X30988417Y-13234976D01*
X30940944Y-13228150D01*
X30846000Y-13214500D01*
X30845998Y-13214500D01*
X24031751Y-13214500D01*
X23964712Y-13194815D01*
X23932056Y-13164235D01*
X23855743Y-13061055D01*
X23855734Y-13061043D01*
X23542511Y-12705154D01*
X23542510Y-12705153D01*
X23200211Y-12377086D01*
X23200209Y-12377085D01*
X22831345Y-12079248D01*
X22831344Y-12079247D01*
X22438546Y-11813763D01*
X22438536Y-11813756D01*
X22427662Y-11807681D01*
X22024637Y-11582537D01*
X22024615Y-11582526D01*
X21592608Y-11387247D01*
X21145566Y-11229297D01*
X20686754Y-11109832D01*
X20219472Y-11029708D01*
X20219446Y-11029705D01*
X19747075Y-10989500D01*
X19747057Y-10989500D01*
X19272943Y-10989500D01*
X19272924Y-10989500D01*
X18800553Y-11029705D01*
X18800527Y-11029708D01*
X18333245Y-11109832D01*
X17874433Y-11229297D01*
X17427391Y-11387247D01*
X16995384Y-11582526D01*
X16995362Y-11582537D01*
X16581472Y-11813751D01*
X16581453Y-11813763D01*
X16188655Y-12079247D01*
X16188654Y-12079248D01*
X15819790Y-12377085D01*
X15819788Y-12377086D01*
X15477489Y-12705153D01*
X15164262Y-13061048D01*
X14882331Y-13442243D01*
X14633752Y-13845961D01*
X14633741Y-13845981D01*
X14420302Y-14269311D01*
X14420298Y-14269322D01*
X14243529Y-14709229D01*
X14243527Y-14709234D01*
X14104698Y-15162559D01*
X14104696Y-15162567D01*
X14004810Y-15626038D01*
X13944587Y-16096326D01*
X13924467Y-16569993D01*
X13924467Y-16570006D01*
X1005500Y-16570006D01*
X1005500Y-1124500D01*
X1025185Y-1057461D01*
X1077989Y-1011706D01*
X1129500Y-1000500D01*
X3980712Y-1000500D01*
X4047751Y-1020185D01*
G37*
%TD.AperFunction*%
%TD*%
%TA.AperFunction,Conductor*%
%TO.N,Net-(C12-Pad1)*%
G36*
X75948174Y-36009685D02*
G01*
X75993929Y-36062489D01*
X76005134Y-36113862D01*
X76012455Y-42852542D01*
X76014865Y-45070865D01*
X75995253Y-45137926D01*
X75942499Y-45183738D01*
X75890865Y-45195000D01*
X72103865Y-45195000D01*
X72036826Y-45175315D01*
X71991071Y-45122511D01*
X71979865Y-45071135D01*
X71979865Y-45070865D01*
X71970000Y-35990000D01*
X74310000Y-35990000D01*
X75881135Y-35990000D01*
X75948174Y-36009685D01*
G37*
%TD.AperFunction*%
%TD*%
%TA.AperFunction,Conductor*%
%TO.N,Net-(U1-SW)*%
G36*
X26726301Y-41180868D02*
G01*
X26729859Y-41184426D01*
X26887888Y-41431695D01*
X26889693Y-41438911D01*
X26870846Y-41679215D01*
X26866783Y-41687195D01*
X26859182Y-41690000D01*
X26580818Y-41690000D01*
X26572545Y-41686573D01*
X26569154Y-41679215D01*
X26550306Y-41438908D01*
X26552110Y-41431698D01*
X26710141Y-41184425D01*
X26717484Y-41179301D01*
X26726301Y-41180868D01*
G37*
%TD.AperFunction*%
%TD*%
M02*
