%TF.GenerationSoftware,KiCad,Pcbnew,8.0.0*%
%TF.CreationDate,2024-05-06T14:44:26-07:00*%
%TF.ProjectId,phi2_50MHz_EPC8010,70686932-5f35-4304-9d48-7a5f45504338,rev?*%
%TF.SameCoordinates,Original*%
%TF.FileFunction,Copper,L2,Bot*%
%TF.FilePolarity,Positive*%
%FSLAX46Y46*%
G04 Gerber Fmt 4.6, Leading zero omitted, Abs format (unit mm)*
G04 Created by KiCad (PCBNEW 8.0.0) date 2024-05-06 14:44:26*
%MOMM*%
%LPD*%
G01*
G04 APERTURE LIST*
%TA.AperFunction,ComponentPad*%
%ADD10C,10.160000*%
%TD*%
%TA.AperFunction,ViaPad*%
%ADD11C,1.500000*%
%TD*%
%TA.AperFunction,ViaPad*%
%ADD12C,0.400000*%
%TD*%
%TA.AperFunction,ViaPad*%
%ADD13C,0.600000*%
%TD*%
%TA.AperFunction,ViaPad*%
%ADD14C,1.000000*%
%TD*%
%TA.AperFunction,ViaPad*%
%ADD15C,0.800000*%
%TD*%
%TA.AperFunction,Conductor*%
%ADD16C,0.300000*%
%TD*%
G04 APERTURE END LIST*
D10*
%TO.P,J6,1,Pin_1*%
%TO.N,GND*%
X43990000Y-20400000D03*
%TD*%
%TO.P,J5,1,Pin_1*%
%TO.N,+12V*%
X19510000Y-16570000D03*
%TD*%
D11*
%TO.N,GND*%
X61500000Y-55290000D03*
X54590000Y-48420000D03*
X67240000Y-43730000D03*
X70270000Y-48420000D03*
D12*
X40160000Y-51480000D03*
X41460000Y-51930000D03*
X43840000Y-34560000D03*
X44640000Y-35670000D03*
X45430000Y-35320000D03*
D11*
X47710000Y-69190000D03*
X40710000Y-69200000D03*
X26620000Y-48170000D03*
D13*
X37870000Y-39420000D03*
D11*
X46750000Y-44290000D03*
X61620000Y-20170000D03*
X35470000Y-28870000D03*
X78350000Y-40940000D03*
X6205000Y-62200000D03*
D12*
X40916409Y-49686409D03*
D11*
X61620000Y-62170000D03*
D14*
X42545000Y-64260000D03*
D12*
X46420000Y-40620000D03*
D11*
X76205000Y-48200000D03*
D12*
X42370000Y-52835000D03*
D11*
X54720000Y-76070000D03*
X76205000Y-55200000D03*
X54620000Y-69170000D03*
X61620000Y-34170000D03*
X76205000Y-62200000D03*
D13*
X35420000Y-37770000D03*
X24170000Y-40370000D03*
D11*
X68620000Y-34170000D03*
D14*
X47270000Y-58360000D03*
X57165000Y-46710000D03*
X60565000Y-50110000D03*
D11*
X83205000Y-76200000D03*
X12620000Y-34170000D03*
X40620000Y-6170000D03*
X54620000Y-13170000D03*
X12620000Y-6170000D03*
D13*
X39730000Y-56440000D03*
D11*
X54620000Y-55170000D03*
X40620000Y-13170000D03*
X61720000Y-76070000D03*
X76205000Y-27200000D03*
X6205000Y-55200000D03*
X54620000Y-62170000D03*
X47620000Y-6170000D03*
X40620000Y-43470000D03*
D13*
X33020000Y-37770000D03*
D12*
X46420000Y-36420000D03*
D11*
X19620000Y-6170000D03*
D12*
X39330000Y-50120000D03*
D11*
X12620000Y-41170000D03*
X6205000Y-27200000D03*
X6205000Y-20200000D03*
X6205000Y-13200000D03*
D12*
X45270000Y-39220000D03*
D14*
X65490000Y-46685000D03*
D13*
X33020000Y-23570000D03*
D12*
X42383790Y-52235156D03*
D11*
X83205000Y-48200000D03*
D13*
X22620000Y-43420000D03*
D11*
X68620000Y-6170000D03*
D13*
X33020000Y-21970000D03*
X33020000Y-24420000D03*
D15*
X46270000Y-34670000D03*
D11*
X76205000Y-69200000D03*
X54620000Y-6170000D03*
D13*
X28070000Y-40370000D03*
X33920000Y-37770000D03*
D11*
X33620000Y-83180000D03*
X68620000Y-55170000D03*
D14*
X47270000Y-63185000D03*
D11*
X38220000Y-28820000D03*
X12620000Y-20170000D03*
X68620000Y-13170000D03*
D13*
X36320000Y-37770000D03*
D11*
X68620000Y-20170000D03*
D14*
X57965000Y-45910000D03*
X68840000Y-35675000D03*
D13*
X33020000Y-25920000D03*
D11*
X33620000Y-55170000D03*
D14*
X64665000Y-45860000D03*
D11*
X33620000Y-6170000D03*
D14*
X61290000Y-42535000D03*
X53920000Y-42590000D03*
D11*
X38120000Y-33920000D03*
X40620000Y-83180000D03*
X33720000Y-76070000D03*
X26620000Y-83180000D03*
X40720000Y-76070000D03*
D13*
X23320000Y-43420000D03*
D11*
X38220000Y-26370000D03*
X12620000Y-62170000D03*
X6205000Y-69200000D03*
X35470000Y-23870000D03*
X26620000Y-69170000D03*
X76205000Y-20200000D03*
X83205000Y-62200000D03*
X83205000Y-27200000D03*
X26620000Y-6170000D03*
X19720000Y-76070000D03*
X83205000Y-69200000D03*
X12620000Y-69170000D03*
X26620000Y-55170000D03*
X61620000Y-69170000D03*
D14*
X68810000Y-37205000D03*
D11*
X68720000Y-76070000D03*
D14*
X33220000Y-16570000D03*
D12*
X45270000Y-40620000D03*
D11*
X35470000Y-31320000D03*
D14*
X64690000Y-47510000D03*
X50780000Y-42590000D03*
D11*
X76205000Y-6200000D03*
X6205000Y-48200000D03*
X38120000Y-31320000D03*
X33620000Y-69170000D03*
D14*
X61315000Y-50935000D03*
D11*
X19620000Y-69170000D03*
D12*
X43333480Y-54884851D03*
D13*
X28220000Y-36870000D03*
D11*
X35420000Y-21470000D03*
X68620000Y-69170000D03*
X61620000Y-6170000D03*
D14*
X41345000Y-58335000D03*
X41320000Y-64260000D03*
D11*
X47620000Y-13170000D03*
X47720000Y-76070000D03*
D13*
X28070000Y-39470000D03*
D11*
X19620000Y-83180000D03*
D14*
X47295000Y-64260000D03*
D11*
X35470000Y-33870000D03*
D14*
X35670000Y-16570000D03*
D11*
X12620000Y-48170000D03*
D13*
X31420000Y-37770000D03*
D11*
X65550000Y-38950000D03*
X35470000Y-26370000D03*
D13*
X27760000Y-35860000D03*
D14*
X62165000Y-50110000D03*
D11*
X83205000Y-13200000D03*
X54620000Y-20170000D03*
D13*
X30470000Y-37770000D03*
D11*
X83205000Y-20200000D03*
X26620000Y-27170000D03*
D13*
X24770000Y-43070000D03*
X42790000Y-56450000D03*
D11*
X33620000Y-62170000D03*
D14*
X41320000Y-63110000D03*
D13*
X25070000Y-40370000D03*
D14*
X62065000Y-43335000D03*
D12*
X46420000Y-39220000D03*
X45710000Y-49710000D03*
D11*
X6205000Y-76200000D03*
X83205000Y-34200000D03*
X19620000Y-48170000D03*
X68620000Y-62170000D03*
X47620000Y-55170000D03*
D14*
X68800000Y-38765000D03*
D12*
X45270000Y-37820000D03*
D11*
X12620000Y-13170000D03*
D13*
X20570000Y-43420000D03*
D12*
X43330000Y-49675000D03*
D11*
X19620000Y-27170000D03*
D13*
X33020000Y-26820000D03*
D14*
X41345000Y-59485000D03*
D11*
X26620000Y-23870000D03*
X83205000Y-55200000D03*
X12620000Y-83180000D03*
D13*
X28070000Y-41320000D03*
D14*
X52370000Y-42590000D03*
D11*
X76205000Y-76200000D03*
D12*
X24570000Y-38970000D03*
D11*
X26720000Y-76070000D03*
D15*
X47630000Y-34680000D03*
D11*
X12620000Y-27170000D03*
X26620000Y-62170000D03*
X61620000Y-13170000D03*
D13*
X25970000Y-33830000D03*
D11*
X76205000Y-13200000D03*
X54620000Y-34170000D03*
D14*
X42520000Y-58335000D03*
D11*
X33620000Y-48170000D03*
D12*
X47309513Y-50035487D03*
D11*
X19720000Y-23870000D03*
D15*
X49040000Y-34690000D03*
D14*
X47270000Y-59510000D03*
D11*
X12720000Y-76070000D03*
D13*
X21270000Y-43420000D03*
D14*
X46095000Y-64260000D03*
D11*
X19620000Y-55170000D03*
D14*
X57965000Y-47510000D03*
D11*
X6205000Y-34200000D03*
D14*
X60540000Y-43385000D03*
D11*
X12620000Y-55170000D03*
D12*
X43320000Y-54285000D03*
D13*
X33020000Y-21120000D03*
D12*
X46420000Y-37820000D03*
D11*
X19620000Y-62170000D03*
D12*
X41070000Y-54935000D03*
X45270000Y-36420000D03*
D14*
X46120000Y-58360000D03*
D12*
%TO.N,+12V*%
X26150000Y-41180000D03*
%TO.N,Net-(U1-SW)*%
X29095000Y-38220000D03*
X26720000Y-42370000D03*
%TD*%
D16*
%TO.N,Net-(U1-SW)*%
X29420000Y-41370000D02*
X29420000Y-38370000D01*
X29420000Y-38370000D02*
X29270000Y-38220000D01*
X29270000Y-38220000D02*
X29095000Y-38220000D01*
X28420000Y-42370000D02*
X29420000Y-41370000D01*
X26720000Y-42370000D02*
X28420000Y-42370000D01*
%TD*%
%TA.AperFunction,Conductor*%
%TO.N,GND*%
G36*
X4047751Y-1020185D02*
G01*
X4093506Y-1072989D01*
X4103450Y-1142147D01*
X4074425Y-1205703D01*
X4015647Y-1243477D01*
X4008305Y-1245391D01*
X3868955Y-1277196D01*
X3868953Y-1277197D01*
X3593261Y-1373665D01*
X3330109Y-1500393D01*
X3082795Y-1655791D01*
X2854435Y-1837901D01*
X2647901Y-2044435D01*
X2465791Y-2272795D01*
X2310393Y-2520109D01*
X2183665Y-2783261D01*
X2087197Y-3058953D01*
X2087196Y-3058955D01*
X2022202Y-3343714D01*
X2022199Y-3343728D01*
X1989500Y-3633952D01*
X1989500Y-3926047D01*
X2022199Y-4216271D01*
X2022202Y-4216285D01*
X2087196Y-4501044D01*
X2087197Y-4501046D01*
X2183665Y-4776738D01*
X2310393Y-5039890D01*
X2310395Y-5039893D01*
X2465792Y-5287206D01*
X2647902Y-5515565D01*
X2854435Y-5722098D01*
X3082794Y-5904208D01*
X3330107Y-6059605D01*
X3593263Y-6186335D01*
X3868955Y-6282803D01*
X4153714Y-6347798D01*
X4153723Y-6347799D01*
X4153728Y-6347800D01*
X4347210Y-6369599D01*
X4443953Y-6380499D01*
X4443956Y-6380500D01*
X4443959Y-6380500D01*
X4736044Y-6380500D01*
X4736045Y-6380499D01*
X4884371Y-6363787D01*
X5026271Y-6347800D01*
X5026274Y-6347799D01*
X5026286Y-6347798D01*
X5311045Y-6282803D01*
X5586737Y-6186335D01*
X5849893Y-6059605D01*
X6097206Y-5904208D01*
X6325565Y-5722098D01*
X6532098Y-5515565D01*
X6714208Y-5287206D01*
X6869605Y-5039893D01*
X6996335Y-4776737D01*
X7092803Y-4501045D01*
X7157798Y-4216286D01*
X7190500Y-3926041D01*
X7190500Y-3633959D01*
X7157798Y-3343714D01*
X7092803Y-3058955D01*
X6996335Y-2783263D01*
X6869605Y-2520107D01*
X6714208Y-2272794D01*
X6532098Y-2044435D01*
X6325565Y-1837902D01*
X6097206Y-1655792D01*
X5849893Y-1500395D01*
X5849890Y-1500393D01*
X5586738Y-1373665D01*
X5311046Y-1277197D01*
X5311044Y-1277196D01*
X5171695Y-1245391D01*
X5110717Y-1211282D01*
X5077859Y-1149621D01*
X5083554Y-1079984D01*
X5125994Y-1024480D01*
X5191704Y-1000732D01*
X5199288Y-1000500D01*
X83980712Y-1000500D01*
X84047751Y-1020185D01*
X84093506Y-1072989D01*
X84103450Y-1142147D01*
X84074425Y-1205703D01*
X84015647Y-1243477D01*
X84008305Y-1245391D01*
X83868955Y-1277196D01*
X83868953Y-1277197D01*
X83593261Y-1373665D01*
X83330109Y-1500393D01*
X83082795Y-1655791D01*
X82854435Y-1837901D01*
X82647901Y-2044435D01*
X82465791Y-2272795D01*
X82310393Y-2520109D01*
X82183665Y-2783261D01*
X82087197Y-3058953D01*
X82087196Y-3058955D01*
X82022202Y-3343714D01*
X82022199Y-3343728D01*
X81989500Y-3633952D01*
X81989500Y-3926047D01*
X82022199Y-4216271D01*
X82022202Y-4216285D01*
X82087196Y-4501044D01*
X82087197Y-4501046D01*
X82183665Y-4776738D01*
X82310393Y-5039890D01*
X82310395Y-5039893D01*
X82465792Y-5287206D01*
X82647902Y-5515565D01*
X82854435Y-5722098D01*
X83082794Y-5904208D01*
X83330107Y-6059605D01*
X83593263Y-6186335D01*
X83868955Y-6282803D01*
X84153714Y-6347798D01*
X84153723Y-6347799D01*
X84153728Y-6347800D01*
X84347210Y-6369599D01*
X84443953Y-6380499D01*
X84443956Y-6380500D01*
X84443959Y-6380500D01*
X84736044Y-6380500D01*
X84736045Y-6380499D01*
X84884371Y-6363787D01*
X85026271Y-6347800D01*
X85026274Y-6347799D01*
X85026286Y-6347798D01*
X85311045Y-6282803D01*
X85586737Y-6186335D01*
X85849893Y-6059605D01*
X86097206Y-5904208D01*
X86325565Y-5722098D01*
X86532098Y-5515565D01*
X86714208Y-5287206D01*
X86869605Y-5039893D01*
X86996335Y-4776737D01*
X87092803Y-4501045D01*
X87157798Y-4216286D01*
X87190500Y-3926041D01*
X87190500Y-3633959D01*
X87157798Y-3343714D01*
X87092803Y-3058955D01*
X86996335Y-2783263D01*
X86869605Y-2520107D01*
X86714208Y-2272794D01*
X86532098Y-2044435D01*
X86325565Y-1837902D01*
X86097206Y-1655792D01*
X85849893Y-1500395D01*
X85849890Y-1500393D01*
X85586738Y-1373665D01*
X85311046Y-1277197D01*
X85311044Y-1277196D01*
X85171695Y-1245391D01*
X85110717Y-1211282D01*
X85077859Y-1149621D01*
X85083554Y-1079984D01*
X85125994Y-1024480D01*
X85191704Y-1000732D01*
X85199288Y-1000500D01*
X87880500Y-1000500D01*
X87947539Y-1020185D01*
X87993294Y-1072989D01*
X88004500Y-1124500D01*
X88004500Y-87875500D01*
X87984815Y-87942539D01*
X87932011Y-87988294D01*
X87880500Y-87999500D01*
X1129500Y-87999500D01*
X1062461Y-87979815D01*
X1016706Y-87927011D01*
X1005500Y-87875500D01*
X1005500Y-84926047D01*
X1989500Y-84926047D01*
X2022199Y-85216271D01*
X2022202Y-85216285D01*
X2087196Y-85501044D01*
X2087197Y-85501046D01*
X2183665Y-85776738D01*
X2310393Y-86039890D01*
X2310395Y-86039893D01*
X2465792Y-86287206D01*
X2647902Y-86515565D01*
X2854435Y-86722098D01*
X3082794Y-86904208D01*
X3330107Y-87059605D01*
X3593263Y-87186335D01*
X3868955Y-87282803D01*
X4153714Y-87347798D01*
X4153723Y-87347799D01*
X4153728Y-87347800D01*
X4347210Y-87369599D01*
X4443953Y-87380499D01*
X4443956Y-87380500D01*
X4443959Y-87380500D01*
X4736044Y-87380500D01*
X4736045Y-87380499D01*
X4884371Y-87363787D01*
X5026271Y-87347800D01*
X5026274Y-87347799D01*
X5026286Y-87347798D01*
X5311045Y-87282803D01*
X5586737Y-87186335D01*
X5849893Y-87059605D01*
X6097206Y-86904208D01*
X6325565Y-86722098D01*
X6532098Y-86515565D01*
X6714208Y-86287206D01*
X6869605Y-86039893D01*
X6996335Y-85776737D01*
X7092803Y-85501045D01*
X7157798Y-85216286D01*
X7190499Y-84926047D01*
X81989500Y-84926047D01*
X82022199Y-85216271D01*
X82022202Y-85216285D01*
X82087196Y-85501044D01*
X82087197Y-85501046D01*
X82183665Y-85776738D01*
X82310393Y-86039890D01*
X82310395Y-86039893D01*
X82465792Y-86287206D01*
X82647902Y-86515565D01*
X82854435Y-86722098D01*
X83082794Y-86904208D01*
X83330107Y-87059605D01*
X83593263Y-87186335D01*
X83868955Y-87282803D01*
X84153714Y-87347798D01*
X84153723Y-87347799D01*
X84153728Y-87347800D01*
X84347210Y-87369599D01*
X84443953Y-87380499D01*
X84443956Y-87380500D01*
X84443959Y-87380500D01*
X84736044Y-87380500D01*
X84736045Y-87380499D01*
X84884371Y-87363787D01*
X85026271Y-87347800D01*
X85026274Y-87347799D01*
X85026286Y-87347798D01*
X85311045Y-87282803D01*
X85586737Y-87186335D01*
X85849893Y-87059605D01*
X86097206Y-86904208D01*
X86325565Y-86722098D01*
X86532098Y-86515565D01*
X86714208Y-86287206D01*
X86869605Y-86039893D01*
X86996335Y-85776737D01*
X87092803Y-85501045D01*
X87157798Y-85216286D01*
X87190500Y-84926041D01*
X87190500Y-84633959D01*
X87157798Y-84343714D01*
X87092803Y-84058955D01*
X86996335Y-83783263D01*
X86869605Y-83520107D01*
X86714208Y-83272794D01*
X86532098Y-83044435D01*
X86325565Y-82837902D01*
X86097206Y-82655792D01*
X85849893Y-82500395D01*
X85849890Y-82500393D01*
X85586738Y-82373665D01*
X85311046Y-82277197D01*
X85311044Y-82277196D01*
X85091280Y-82227036D01*
X85026286Y-82212202D01*
X85026283Y-82212201D01*
X85026271Y-82212199D01*
X84736047Y-82179500D01*
X84736041Y-82179500D01*
X84443959Y-82179500D01*
X84443952Y-82179500D01*
X84153728Y-82212199D01*
X84153714Y-82212202D01*
X83868955Y-82277196D01*
X83868953Y-82277197D01*
X83593261Y-82373665D01*
X83330109Y-82500393D01*
X83082795Y-82655791D01*
X82854435Y-82837901D01*
X82647901Y-83044435D01*
X82465791Y-83272795D01*
X82310393Y-83520109D01*
X82183665Y-83783261D01*
X82087197Y-84058953D01*
X82087196Y-84058955D01*
X82022202Y-84343714D01*
X82022199Y-84343728D01*
X81989500Y-84633952D01*
X81989500Y-84926047D01*
X7190499Y-84926047D01*
X7190500Y-84926041D01*
X7190500Y-84633959D01*
X7157798Y-84343714D01*
X7092803Y-84058955D01*
X6996335Y-83783263D01*
X6869605Y-83520107D01*
X6714208Y-83272794D01*
X6532098Y-83044435D01*
X6325565Y-82837902D01*
X6097206Y-82655792D01*
X5849893Y-82500395D01*
X5849890Y-82500393D01*
X5586738Y-82373665D01*
X5311046Y-82277197D01*
X5311044Y-82277196D01*
X5091280Y-82227036D01*
X5026286Y-82212202D01*
X5026283Y-82212201D01*
X5026271Y-82212199D01*
X4736047Y-82179500D01*
X4736041Y-82179500D01*
X4443959Y-82179500D01*
X4443952Y-82179500D01*
X4153728Y-82212199D01*
X4153714Y-82212202D01*
X3868955Y-82277196D01*
X3868953Y-82277197D01*
X3593261Y-82373665D01*
X3330109Y-82500393D01*
X3082795Y-82655791D01*
X2854435Y-82837901D01*
X2647901Y-83044435D01*
X2465791Y-83272795D01*
X2310393Y-83520109D01*
X2183665Y-83783261D01*
X2087197Y-84058953D01*
X2087196Y-84058955D01*
X2022202Y-84343714D01*
X2022199Y-84343728D01*
X1989500Y-84633952D01*
X1989500Y-84926047D01*
X1005500Y-84926047D01*
X1005500Y-45605000D01*
X42380000Y-45605000D01*
X42380000Y-47005000D01*
X44310000Y-47005000D01*
X44310000Y-46614838D01*
X59955372Y-46614838D01*
X63847250Y-50604681D01*
X63879970Y-50666416D01*
X63874120Y-50736040D01*
X63846167Y-50778947D01*
X63320241Y-51304873D01*
X63320225Y-51304891D01*
X63252429Y-51389019D01*
X63252413Y-51389040D01*
X63223931Y-51433360D01*
X63223927Y-51433366D01*
X63175549Y-51530016D01*
X63175546Y-51530023D01*
X63144968Y-51670594D01*
X63144967Y-51670606D01*
X63139983Y-51740298D01*
X63150247Y-51883809D01*
X63200529Y-52018618D01*
X63234014Y-52079941D01*
X63320238Y-52195122D01*
X63320242Y-52195126D01*
X63320247Y-52195132D01*
X66469873Y-55344757D01*
X66469891Y-55344774D01*
X66554009Y-55412561D01*
X66554019Y-55412569D01*
X66598366Y-55441070D01*
X66598371Y-55441073D01*
X66645113Y-55464470D01*
X66695015Y-55489449D01*
X66695021Y-55489450D01*
X66695023Y-55489451D01*
X66835595Y-55520030D01*
X66835599Y-55520030D01*
X66835607Y-55520032D01*
X66896576Y-55524392D01*
X66905297Y-55525016D01*
X66905299Y-55525016D01*
X66905300Y-55525016D01*
X66914878Y-55524330D01*
X67048810Y-55514752D01*
X67183619Y-55464470D01*
X67244942Y-55430985D01*
X67360123Y-55344761D01*
X69884761Y-52820123D01*
X69884767Y-52820114D01*
X69884774Y-52820108D01*
X69922033Y-52773872D01*
X69952569Y-52735981D01*
X69981070Y-52691634D01*
X70029449Y-52594985D01*
X70060032Y-52454393D01*
X70065016Y-52384701D01*
X70054752Y-52241190D01*
X70004470Y-52106381D01*
X69970985Y-52045058D01*
X69884761Y-51929877D01*
X69884756Y-51929872D01*
X69884751Y-51929866D01*
X66735125Y-48780241D01*
X66735107Y-48780224D01*
X66650989Y-48712437D01*
X66650984Y-48712433D01*
X66650982Y-48712432D01*
X66650980Y-48712430D01*
X66606633Y-48683929D01*
X66606634Y-48683929D01*
X66606627Y-48683925D01*
X66509986Y-48635551D01*
X66509985Y-48635550D01*
X66509984Y-48635550D01*
X66509982Y-48635549D01*
X66509975Y-48635547D01*
X66369403Y-48604968D01*
X66369392Y-48604967D01*
X66346161Y-48603305D01*
X66299702Y-48599983D01*
X66299700Y-48599983D01*
X66156194Y-48610246D01*
X66156191Y-48610246D01*
X66156191Y-48610247D01*
X66021383Y-48660526D01*
X66021377Y-48660529D01*
X65962020Y-48692940D01*
X65960546Y-48693710D01*
X65960063Y-48694008D01*
X65844881Y-48780233D01*
X65844869Y-48780244D01*
X65419156Y-49205958D01*
X65357833Y-49239443D01*
X65288141Y-49234459D01*
X65243199Y-49205359D01*
X61405372Y-45314838D01*
X59955372Y-46614837D01*
X59955372Y-46614838D01*
X44310000Y-46614838D01*
X44310000Y-45605000D01*
X42380000Y-45605000D01*
X1005500Y-45605000D01*
X1005500Y-41446047D01*
X1989500Y-41446047D01*
X2022199Y-41736271D01*
X2022201Y-41736283D01*
X2022202Y-41736286D01*
X2027606Y-41759963D01*
X2087196Y-42021044D01*
X2087197Y-42021046D01*
X2183665Y-42296738D01*
X2310393Y-42559890D01*
X2310395Y-42559893D01*
X2465792Y-42807206D01*
X2567298Y-42934491D01*
X2641296Y-43027282D01*
X2647902Y-43035565D01*
X2854435Y-43242098D01*
X3082794Y-43424208D01*
X3330107Y-43579605D01*
X3593263Y-43706335D01*
X3868955Y-43802803D01*
X4153714Y-43867798D01*
X4153723Y-43867799D01*
X4153728Y-43867800D01*
X4347210Y-43889599D01*
X4443953Y-43900499D01*
X4443956Y-43900500D01*
X4443959Y-43900500D01*
X4736044Y-43900500D01*
X4736045Y-43900499D01*
X4884371Y-43883787D01*
X5026271Y-43867800D01*
X5026274Y-43867799D01*
X5026286Y-43867798D01*
X5311045Y-43802803D01*
X5586737Y-43706335D01*
X5849893Y-43579605D01*
X6097206Y-43424208D01*
X6325565Y-43242098D01*
X6532098Y-43035565D01*
X6714208Y-42807206D01*
X6869605Y-42559893D01*
X6996335Y-42296737D01*
X7092803Y-42021045D01*
X7157798Y-41736286D01*
X7159690Y-41719500D01*
X7175649Y-41577853D01*
X7190500Y-41446041D01*
X7190500Y-41180000D01*
X25494722Y-41180000D01*
X25513762Y-41336818D01*
X25569779Y-41484521D01*
X25569780Y-41484523D01*
X25659517Y-41614530D01*
X25777760Y-41719283D01*
X25789860Y-41725633D01*
X25917634Y-41792696D01*
X26071014Y-41830500D01*
X26078460Y-41831404D01*
X26078127Y-41834145D01*
X26132750Y-41850185D01*
X26178505Y-41902989D01*
X26188449Y-41972147D01*
X26167762Y-42024937D01*
X26153898Y-42045024D01*
X26139779Y-42065478D01*
X26083762Y-42213181D01*
X26064722Y-42369999D01*
X26064722Y-42370000D01*
X26083762Y-42526818D01*
X26139780Y-42674523D01*
X26229517Y-42804530D01*
X26347760Y-42909283D01*
X26347762Y-42909284D01*
X26487634Y-42982696D01*
X26641014Y-43020500D01*
X26641015Y-43020500D01*
X26798985Y-43020500D01*
X26952365Y-42982696D01*
X26959377Y-42980037D01*
X26960069Y-42981862D01*
X27006166Y-42970500D01*
X28333331Y-42970500D01*
X28333347Y-42970501D01*
X28340943Y-42970501D01*
X28499054Y-42970501D01*
X28499057Y-42970501D01*
X28651785Y-42929577D01*
X28712477Y-42894536D01*
X28788716Y-42850520D01*
X28900520Y-42738716D01*
X28900520Y-42738714D01*
X28910724Y-42728511D01*
X28910727Y-42728506D01*
X29023217Y-42616016D01*
X41974500Y-42616016D01*
X41984909Y-42712822D01*
X41984911Y-42712833D01*
X41996114Y-42764333D01*
X41996115Y-42764335D01*
X41996116Y-42764338D01*
X42024334Y-42851081D01*
X42096962Y-42965800D01*
X42096963Y-42965801D01*
X42096962Y-42965801D01*
X42111602Y-42982696D01*
X42142717Y-43018604D01*
X42235508Y-43100120D01*
X42358628Y-43157363D01*
X42358636Y-43157365D01*
X42358638Y-43157366D01*
X42425659Y-43177046D01*
X42425661Y-43177046D01*
X42425667Y-43177048D01*
X42554000Y-43195500D01*
X42554002Y-43195500D01*
X44186000Y-43195500D01*
X44186016Y-43195499D01*
X44241447Y-43189538D01*
X44282827Y-43185090D01*
X44334338Y-43173884D01*
X44421081Y-43145666D01*
X44535800Y-43073038D01*
X44588604Y-43027283D01*
X44670120Y-42934492D01*
X44727363Y-42811372D01*
X44747048Y-42744333D01*
X44765500Y-42616000D01*
X44765500Y-39388640D01*
X49554500Y-39388640D01*
X49557397Y-39442688D01*
X49557397Y-39442689D01*
X49560228Y-39469013D01*
X49560231Y-39469040D01*
X49562903Y-39485522D01*
X49564500Y-39505361D01*
X49564500Y-41436000D01*
X49564501Y-41436009D01*
X49576052Y-41543450D01*
X49576054Y-41543462D01*
X49587260Y-41594972D01*
X49621383Y-41697497D01*
X49621386Y-41697503D01*
X49699171Y-41818537D01*
X49699179Y-41818548D01*
X49744923Y-41871340D01*
X49744926Y-41871343D01*
X49744930Y-41871347D01*
X49853664Y-41965567D01*
X49853667Y-41965568D01*
X49853668Y-41965569D01*
X49983671Y-42024941D01*
X49984541Y-42025338D01*
X50051580Y-42045023D01*
X50051584Y-42045024D01*
X50194000Y-42065500D01*
X50194003Y-42065500D01*
X54555990Y-42065500D01*
X54556000Y-42065500D01*
X54663456Y-42053947D01*
X54714967Y-42042741D01*
X54749197Y-42031347D01*
X54817497Y-42008616D01*
X54817501Y-42008613D01*
X54817504Y-42008613D01*
X54938543Y-41930825D01*
X54991347Y-41885070D01*
X55085567Y-41776336D01*
X55145338Y-41645459D01*
X55165023Y-41578420D01*
X55165024Y-41578416D01*
X55185500Y-41436000D01*
X55185500Y-40079500D01*
X55205185Y-40012461D01*
X55257989Y-39966706D01*
X55309500Y-39955500D01*
X60275990Y-39955500D01*
X60276000Y-39955500D01*
X60383456Y-39943947D01*
X60434967Y-39932741D01*
X60469197Y-39921347D01*
X60537497Y-39898616D01*
X60537501Y-39898613D01*
X60537504Y-39898613D01*
X60658543Y-39820825D01*
X60711347Y-39775070D01*
X60805567Y-39666336D01*
X60865338Y-39535459D01*
X60885023Y-39468420D01*
X60885024Y-39468416D01*
X60905500Y-39326000D01*
X60905500Y-39066000D01*
X69299500Y-39066000D01*
X69299501Y-39066009D01*
X69311052Y-39173450D01*
X69311054Y-39173462D01*
X69322260Y-39224972D01*
X69356383Y-39327497D01*
X69356386Y-39327503D01*
X69434171Y-39448537D01*
X69434179Y-39448548D01*
X69479923Y-39501340D01*
X69479926Y-39501343D01*
X69479930Y-39501347D01*
X69588664Y-39595567D01*
X69719541Y-39655338D01*
X69786580Y-39675023D01*
X69786584Y-39675024D01*
X69929000Y-39695500D01*
X71344659Y-39695500D01*
X71411698Y-39715185D01*
X71457453Y-39767989D01*
X71468658Y-39819363D01*
X71468941Y-40079500D01*
X71471426Y-42367508D01*
X71471753Y-42385139D01*
X71472058Y-42393630D01*
X71472989Y-42411112D01*
X71503443Y-42551737D01*
X71527798Y-42617220D01*
X71527801Y-42617225D01*
X71596632Y-42743562D01*
X71596636Y-42743567D01*
X71659923Y-42806971D01*
X71693352Y-42868325D01*
X71688303Y-42938012D01*
X71659761Y-42982334D01*
X70680396Y-43959880D01*
X70680388Y-43959888D01*
X70612890Y-44043373D01*
X70612884Y-44043381D01*
X70584474Y-44087366D01*
X70584469Y-44087374D01*
X70536135Y-44183207D01*
X70536133Y-44183211D01*
X70505026Y-44323671D01*
X70505024Y-44323683D01*
X70499778Y-44393363D01*
X70499778Y-44393366D01*
X70509501Y-44536898D01*
X70509502Y-44536905D01*
X70559273Y-44671896D01*
X70559277Y-44671905D01*
X70585784Y-44720885D01*
X70592529Y-44733349D01*
X70592533Y-44733356D01*
X70678324Y-44848860D01*
X72431103Y-46614837D01*
X73823372Y-48017590D01*
X73823382Y-48017599D01*
X73908459Y-48086489D01*
X73908470Y-48086497D01*
X73937013Y-48104878D01*
X73953355Y-48115402D01*
X74051275Y-48164360D01*
X74191924Y-48194683D01*
X74191927Y-48194683D01*
X74191931Y-48194684D01*
X74191930Y-48194684D01*
X74261621Y-48199538D01*
X74261623Y-48199537D01*
X74261625Y-48199538D01*
X74405120Y-48189007D01*
X74470829Y-48164360D01*
X74539828Y-48138479D01*
X74539830Y-48138477D01*
X74539835Y-48138476D01*
X74601096Y-48104877D01*
X74716116Y-48018440D01*
X77230880Y-45494327D01*
X77298079Y-45410763D01*
X77326351Y-45366753D01*
X77374407Y-45270909D01*
X77405204Y-45130364D01*
X77410294Y-45060680D01*
X77410294Y-45060671D01*
X77400245Y-44917142D01*
X77350166Y-44782258D01*
X77350163Y-44782252D01*
X77350163Y-44782251D01*
X77316777Y-44720891D01*
X77316774Y-44720887D01*
X77316773Y-44720885D01*
X77230724Y-44605576D01*
X76949666Y-44323671D01*
X76329819Y-43701957D01*
X76296426Y-43640584D01*
X76301516Y-43570900D01*
X76323831Y-43533307D01*
X76324540Y-43532487D01*
X76418642Y-43423648D01*
X76478271Y-43292705D01*
X76497883Y-43225644D01*
X76497883Y-43225643D01*
X76498031Y-43224601D01*
X76499121Y-43216995D01*
X76499126Y-43216930D01*
X76518205Y-43083205D01*
X76516426Y-41446047D01*
X81989500Y-41446047D01*
X82022199Y-41736271D01*
X82022201Y-41736283D01*
X82022202Y-41736286D01*
X82027606Y-41759963D01*
X82087196Y-42021044D01*
X82087197Y-42021046D01*
X82183665Y-42296738D01*
X82310393Y-42559890D01*
X82310395Y-42559893D01*
X82465792Y-42807206D01*
X82567298Y-42934491D01*
X82641296Y-43027282D01*
X82647902Y-43035565D01*
X82854435Y-43242098D01*
X83082794Y-43424208D01*
X83330107Y-43579605D01*
X83593263Y-43706335D01*
X83868955Y-43802803D01*
X84153714Y-43867798D01*
X84153723Y-43867799D01*
X84153728Y-43867800D01*
X84347210Y-43889599D01*
X84443953Y-43900499D01*
X84443956Y-43900500D01*
X84443959Y-43900500D01*
X84736044Y-43900500D01*
X84736045Y-43900499D01*
X84884371Y-43883787D01*
X85026271Y-43867800D01*
X85026274Y-43867799D01*
X85026286Y-43867798D01*
X85311045Y-43802803D01*
X85586737Y-43706335D01*
X85849893Y-43579605D01*
X86097206Y-43424208D01*
X86325565Y-43242098D01*
X86532098Y-43035565D01*
X86714208Y-42807206D01*
X86869605Y-42559893D01*
X86996335Y-42296737D01*
X87092803Y-42021045D01*
X87157798Y-41736286D01*
X87159690Y-41719500D01*
X87175649Y-41577853D01*
X87190500Y-41446041D01*
X87190500Y-41153959D01*
X87175765Y-41023181D01*
X87157800Y-40863728D01*
X87157799Y-40863723D01*
X87157798Y-40863714D01*
X87092803Y-40578955D01*
X86996335Y-40303263D01*
X86869605Y-40040107D01*
X86714208Y-39792794D01*
X86532098Y-39564435D01*
X86325565Y-39357902D01*
X86097206Y-39175792D01*
X85849893Y-39020395D01*
X85849890Y-39020393D01*
X85586738Y-38893665D01*
X85311046Y-38797197D01*
X85311044Y-38797196D01*
X85091280Y-38747036D01*
X85026286Y-38732202D01*
X85026283Y-38732201D01*
X85026271Y-38732199D01*
X84736047Y-38699500D01*
X84736041Y-38699500D01*
X84443959Y-38699500D01*
X84443952Y-38699500D01*
X84153728Y-38732199D01*
X84153714Y-38732202D01*
X83868955Y-38797196D01*
X83868953Y-38797197D01*
X83593261Y-38893665D01*
X83330109Y-39020393D01*
X83082795Y-39175791D01*
X82854435Y-39357901D01*
X82647901Y-39564435D01*
X82465791Y-39792795D01*
X82310393Y-40040109D01*
X82183665Y-40303261D01*
X82087197Y-40578953D01*
X82087196Y-40578955D01*
X82022202Y-40863714D01*
X82022199Y-40863728D01*
X81989500Y-41153952D01*
X81989500Y-41446047D01*
X76516426Y-41446047D01*
X76512414Y-37753960D01*
X76532026Y-37686903D01*
X76548728Y-37666153D01*
X77714761Y-36500122D01*
X77782568Y-36415980D01*
X77811069Y-36371633D01*
X77859448Y-36274984D01*
X77883037Y-36166544D01*
X77890029Y-36134403D01*
X77890029Y-36134400D01*
X77890031Y-36134392D01*
X77895015Y-36064700D01*
X77884751Y-35921189D01*
X77834469Y-35786380D01*
X77800984Y-35725057D01*
X77714760Y-35609876D01*
X77714755Y-35609871D01*
X77714750Y-35609865D01*
X75190126Y-33085242D01*
X75190108Y-33085225D01*
X75105990Y-33017438D01*
X75105985Y-33017434D01*
X75105983Y-33017433D01*
X75105981Y-33017431D01*
X75061634Y-32988930D01*
X75061635Y-32988930D01*
X75061628Y-32988926D01*
X74964987Y-32940552D01*
X74964986Y-32940551D01*
X74964985Y-32940551D01*
X74964983Y-32940550D01*
X74964976Y-32940548D01*
X74824404Y-32909969D01*
X74824393Y-32909968D01*
X74801162Y-32908306D01*
X74754703Y-32904984D01*
X74754700Y-32904984D01*
X74611189Y-32915248D01*
X74476385Y-32965528D01*
X74415060Y-32999013D01*
X74299878Y-33085238D01*
X74299866Y-33085248D01*
X72771935Y-34613181D01*
X72710612Y-34646666D01*
X72684254Y-34649500D01*
X69929000Y-34649500D01*
X69928991Y-34649500D01*
X69928990Y-34649501D01*
X69821549Y-34661052D01*
X69821537Y-34661054D01*
X69770027Y-34672260D01*
X69667502Y-34706383D01*
X69667496Y-34706386D01*
X69546462Y-34784171D01*
X69546451Y-34784179D01*
X69493659Y-34829923D01*
X69399433Y-34938664D01*
X69399430Y-34938668D01*
X69339664Y-35069534D01*
X69319976Y-35136582D01*
X69299500Y-35279001D01*
X69299500Y-35391166D01*
X69304971Y-35465336D01*
X69310310Y-35501333D01*
X69326419Y-35573074D01*
X69328834Y-35588085D01*
X69336197Y-35662845D01*
X69336197Y-35687152D01*
X69328834Y-35761919D01*
X69326418Y-35776934D01*
X69310311Y-35848658D01*
X69310309Y-35848670D01*
X69304971Y-35884658D01*
X69299500Y-35958829D01*
X69299500Y-37093894D01*
X69300109Y-37118718D01*
X69300706Y-37130877D01*
X69302530Y-37155607D01*
X69306198Y-37192845D01*
X69306198Y-37217150D01*
X69302531Y-37254385D01*
X69300706Y-37279120D01*
X69300109Y-37291279D01*
X69299500Y-37316103D01*
X69299500Y-38755459D01*
X69299659Y-38761978D01*
X69299659Y-38768025D01*
X69299500Y-38774543D01*
X69299500Y-38774555D01*
X69299500Y-39066000D01*
X60905500Y-39066000D01*
X60905500Y-36274000D01*
X60893947Y-36166544D01*
X60882741Y-36115033D01*
X60865989Y-36064701D01*
X60848616Y-36012502D01*
X60848613Y-36012496D01*
X60830301Y-35984002D01*
X60770825Y-35891457D01*
X60770820Y-35891451D01*
X60725076Y-35838659D01*
X60725072Y-35838656D01*
X60725070Y-35838653D01*
X60616336Y-35744433D01*
X60616333Y-35744431D01*
X60616331Y-35744430D01*
X60485465Y-35684664D01*
X60485460Y-35684662D01*
X60485459Y-35684662D01*
X60426192Y-35667259D01*
X60418417Y-35664976D01*
X60356347Y-35656052D01*
X60276000Y-35644500D01*
X50184000Y-35644500D01*
X50183991Y-35644500D01*
X50183990Y-35644501D01*
X50076549Y-35656052D01*
X50076537Y-35656054D01*
X50025027Y-35667260D01*
X49922502Y-35701383D01*
X49922496Y-35701386D01*
X49801462Y-35779171D01*
X49801451Y-35779179D01*
X49748659Y-35824923D01*
X49654433Y-35933664D01*
X49654430Y-35933668D01*
X49594664Y-36064534D01*
X49574976Y-36131582D01*
X49569949Y-36166549D01*
X49554502Y-36273990D01*
X49554500Y-36274001D01*
X49554500Y-39388640D01*
X44765500Y-39388640D01*
X44765500Y-35984000D01*
X44765499Y-35983983D01*
X44755551Y-35891462D01*
X44755090Y-35887173D01*
X44743884Y-35835662D01*
X44715666Y-35748919D01*
X44643038Y-35634200D01*
X44643036Y-35634198D01*
X44643037Y-35634198D01*
X44597282Y-35581395D01*
X44597279Y-35581392D01*
X44504494Y-35499882D01*
X44504491Y-35499879D01*
X44381375Y-35442638D01*
X44381361Y-35442633D01*
X44314340Y-35422953D01*
X44311513Y-35422546D01*
X44186000Y-35404500D01*
X42554000Y-35404500D01*
X42553983Y-35404500D01*
X42457177Y-35414909D01*
X42457166Y-35414911D01*
X42405666Y-35426114D01*
X42405664Y-35426115D01*
X42318918Y-35454334D01*
X42204198Y-35526963D01*
X42151395Y-35572717D01*
X42151392Y-35572720D01*
X42069882Y-35665505D01*
X42069879Y-35665508D01*
X42012638Y-35788624D01*
X42012633Y-35788638D01*
X41992953Y-35855659D01*
X41992952Y-35855667D01*
X41974503Y-35983983D01*
X41974500Y-35984002D01*
X41974500Y-42616016D01*
X29023217Y-42616016D01*
X29900520Y-41738716D01*
X29979577Y-41601784D01*
X30020501Y-41449057D01*
X30020501Y-41290942D01*
X30020501Y-41283347D01*
X30020500Y-41283329D01*
X30020500Y-38459059D01*
X30020501Y-38459046D01*
X30020501Y-38290945D01*
X30020501Y-38290943D01*
X29979577Y-38138215D01*
X29936256Y-38063182D01*
X29900520Y-38001284D01*
X29788716Y-37889480D01*
X29788715Y-37889479D01*
X29784385Y-37885149D01*
X29784374Y-37885139D01*
X29757590Y-37858355D01*
X29757588Y-37858352D01*
X29638717Y-37739481D01*
X29638709Y-37739475D01*
X29536936Y-37680717D01*
X29536934Y-37680716D01*
X29501790Y-37660425D01*
X29501781Y-37660421D01*
X29365526Y-37623910D01*
X29339999Y-37613934D01*
X29327367Y-37607305D01*
X29327365Y-37607304D01*
X29173985Y-37569500D01*
X29016015Y-37569500D01*
X29016014Y-37569500D01*
X28862634Y-37607303D01*
X28722762Y-37680715D01*
X28604516Y-37785471D01*
X28514781Y-37915475D01*
X28514780Y-37915476D01*
X28458763Y-38063180D01*
X28439722Y-38219999D01*
X28439722Y-38220000D01*
X28458762Y-38376818D01*
X28514780Y-38524523D01*
X28514781Y-38524524D01*
X28604517Y-38654531D01*
X28700790Y-38739820D01*
X28722760Y-38759283D01*
X28722764Y-38759285D01*
X28722767Y-38759287D01*
X28740410Y-38768546D01*
X28751858Y-38774555D01*
X28753124Y-38775219D01*
X28803337Y-38823802D01*
X28819500Y-38885016D01*
X28819500Y-41069902D01*
X28799815Y-41136941D01*
X28783181Y-41157583D01*
X28207584Y-41733181D01*
X28146261Y-41766666D01*
X28119903Y-41769500D01*
X27006166Y-41769500D01*
X26960069Y-41758137D01*
X26959377Y-41759963D01*
X26952365Y-41757303D01*
X26798985Y-41719499D01*
X26791540Y-41718596D01*
X26791872Y-41715854D01*
X26737250Y-41699815D01*
X26691495Y-41647011D01*
X26681551Y-41577853D01*
X26702237Y-41525062D01*
X26730220Y-41484523D01*
X26786237Y-41336818D01*
X26805278Y-41180000D01*
X26786237Y-41023182D01*
X26730220Y-40875477D01*
X26640483Y-40745470D01*
X26522240Y-40640717D01*
X26522238Y-40640716D01*
X26522237Y-40640715D01*
X26382365Y-40567303D01*
X26228986Y-40529500D01*
X26228985Y-40529500D01*
X26071015Y-40529500D01*
X26071014Y-40529500D01*
X25917634Y-40567303D01*
X25777762Y-40640715D01*
X25659516Y-40745471D01*
X25569781Y-40875475D01*
X25569780Y-40875476D01*
X25513762Y-41023181D01*
X25494722Y-41179999D01*
X25494722Y-41180000D01*
X7190500Y-41180000D01*
X7190500Y-41153959D01*
X7175765Y-41023181D01*
X7157800Y-40863728D01*
X7157799Y-40863723D01*
X7157798Y-40863714D01*
X7092803Y-40578955D01*
X6996335Y-40303263D01*
X6869605Y-40040107D01*
X6714208Y-39792794D01*
X6532098Y-39564435D01*
X6325565Y-39357902D01*
X6097206Y-39175792D01*
X5849893Y-39020395D01*
X5849890Y-39020393D01*
X5586738Y-38893665D01*
X5311046Y-38797197D01*
X5311044Y-38797196D01*
X5091280Y-38747036D01*
X5026286Y-38732202D01*
X5026283Y-38732201D01*
X5026271Y-38732199D01*
X4736047Y-38699500D01*
X4736041Y-38699500D01*
X4443959Y-38699500D01*
X4443952Y-38699500D01*
X4153728Y-38732199D01*
X4153714Y-38732202D01*
X3868955Y-38797196D01*
X3868953Y-38797197D01*
X3593261Y-38893665D01*
X3330109Y-39020393D01*
X3082795Y-39175791D01*
X2854435Y-39357901D01*
X2647901Y-39564435D01*
X2465791Y-39792795D01*
X2310393Y-40040109D01*
X2183665Y-40303261D01*
X2087197Y-40578953D01*
X2087196Y-40578955D01*
X2022202Y-40863714D01*
X2022199Y-40863728D01*
X1989500Y-41153952D01*
X1989500Y-41446047D01*
X1005500Y-41446047D01*
X1005500Y-33604689D01*
X39794782Y-33604689D01*
X39805084Y-33702053D01*
X39805086Y-33702064D01*
X39816287Y-33753830D01*
X39816289Y-33753837D01*
X39844614Y-33841078D01*
X39844614Y-33841080D01*
X39917240Y-33955796D01*
X39917243Y-33955801D01*
X39959851Y-34004972D01*
X39962998Y-34008604D01*
X40055789Y-34090120D01*
X40178909Y-34147363D01*
X40178917Y-34147365D01*
X40178919Y-34147366D01*
X40245940Y-34167046D01*
X40245942Y-34167046D01*
X40245948Y-34167048D01*
X40374281Y-34185500D01*
X44026624Y-34185500D01*
X44093663Y-34205185D01*
X44139418Y-34257989D01*
X44146462Y-34277644D01*
X44240650Y-34631969D01*
X44238849Y-34701816D01*
X44208494Y-34751505D01*
X44190000Y-34769999D01*
X44190000Y-34770000D01*
X44190000Y-35050000D01*
X44690000Y-35050000D01*
X44690000Y-34768986D01*
X44657734Y-34709896D01*
X44660253Y-34647497D01*
X44755451Y-34334136D01*
X44793773Y-34275715D01*
X44857597Y-34247285D01*
X44925496Y-34257337D01*
X44932295Y-34260434D01*
X44998344Y-34279753D01*
X44999294Y-34280040D01*
X44999353Y-34280048D01*
X44999355Y-34280049D01*
X44999357Y-34280050D01*
X45141794Y-34300378D01*
X45141794Y-34300377D01*
X45141795Y-34300378D01*
X45142746Y-34300377D01*
X46048026Y-34299433D01*
X46100590Y-34296637D01*
X46117388Y-34294863D01*
X46126214Y-34293931D01*
X46126219Y-34293930D01*
X46126241Y-34293928D01*
X46178249Y-34285678D01*
X46204727Y-34280050D01*
X46215736Y-34277710D01*
X46241517Y-34275000D01*
X46298485Y-34275000D01*
X46324265Y-34277709D01*
X46359580Y-34285215D01*
X46359587Y-34285216D01*
X46359596Y-34285218D01*
X46393356Y-34290556D01*
X46412088Y-34293518D01*
X46412104Y-34293519D01*
X46412114Y-34293521D01*
X46424947Y-34294863D01*
X46437997Y-34296228D01*
X46491111Y-34298971D01*
X46491118Y-34298970D01*
X46491119Y-34298971D01*
X46499223Y-34298962D01*
X47462007Y-34297958D01*
X47514575Y-34295162D01*
X47540224Y-34292453D01*
X47577555Y-34286531D01*
X47596983Y-34285000D01*
X47663636Y-34285000D01*
X47683002Y-34286521D01*
X47718632Y-34292156D01*
X47718639Y-34292156D01*
X47718658Y-34292159D01*
X47731586Y-34293511D01*
X47744541Y-34294866D01*
X47797655Y-34297609D01*
X47797661Y-34297608D01*
X47797662Y-34297609D01*
X47805926Y-34297600D01*
X48926240Y-34296432D01*
X48950067Y-34295172D01*
X48956610Y-34295000D01*
X49113295Y-34295000D01*
X49119706Y-34295166D01*
X49122281Y-34295299D01*
X49126482Y-34295517D01*
X49153176Y-34296195D01*
X49153176Y-34296194D01*
X49153177Y-34296195D01*
X49153743Y-34296194D01*
X49696306Y-34295629D01*
X49804182Y-34283869D01*
X49855882Y-34272518D01*
X49958768Y-34238003D01*
X50079588Y-34159874D01*
X50132263Y-34113970D01*
X50226174Y-34004972D01*
X50285576Y-33873927D01*
X50305072Y-33806833D01*
X50305073Y-33806829D01*
X50325148Y-33664356D01*
X50319980Y-31829848D01*
X50339476Y-31762755D01*
X50392151Y-31716851D01*
X50443980Y-31705500D01*
X51745990Y-31705500D01*
X51746000Y-31705500D01*
X51853456Y-31693947D01*
X51904967Y-31682741D01*
X51939197Y-31671347D01*
X52007497Y-31648616D01*
X52007501Y-31648613D01*
X52007504Y-31648613D01*
X52128543Y-31570825D01*
X52181347Y-31525070D01*
X52275567Y-31416336D01*
X52335338Y-31285459D01*
X52355023Y-31218420D01*
X52355024Y-31218416D01*
X52355059Y-31218169D01*
X52355251Y-31216843D01*
X52355395Y-31216527D01*
X52355635Y-31215306D01*
X52355926Y-31215363D01*
X52384281Y-31153290D01*
X52443062Y-31115520D01*
X52477987Y-31110500D01*
X61855990Y-31110500D01*
X61856000Y-31110500D01*
X61963456Y-31098947D01*
X62014967Y-31087741D01*
X62049197Y-31076347D01*
X62117497Y-31053616D01*
X62117499Y-31053614D01*
X62117504Y-31053613D01*
X62185266Y-31010064D01*
X62252303Y-30990379D01*
X62304036Y-31001685D01*
X62398890Y-31045229D01*
X62465891Y-31065045D01*
X62608266Y-31085800D01*
X65034554Y-31090556D01*
X65101554Y-31110372D01*
X65121991Y-31126875D01*
X66294873Y-32299757D01*
X66294891Y-32299774D01*
X66379009Y-32367561D01*
X66379019Y-32367569D01*
X66423366Y-32396070D01*
X66423371Y-32396073D01*
X66470113Y-32419470D01*
X66520015Y-32444449D01*
X66520021Y-32444450D01*
X66520023Y-32444451D01*
X66660595Y-32475030D01*
X66660599Y-32475030D01*
X66660607Y-32475032D01*
X66721576Y-32479392D01*
X66730297Y-32480016D01*
X66730299Y-32480016D01*
X66730300Y-32480016D01*
X66739878Y-32479330D01*
X66873810Y-32469752D01*
X67008619Y-32419470D01*
X67069942Y-32385985D01*
X67185123Y-32299761D01*
X70329761Y-29155123D01*
X70329767Y-29155114D01*
X70329774Y-29155108D01*
X70367033Y-29108872D01*
X70397569Y-29070981D01*
X70426070Y-29026634D01*
X70474449Y-28929985D01*
X70486217Y-28875888D01*
X70505030Y-28789404D01*
X70505030Y-28789401D01*
X70505032Y-28789393D01*
X70510016Y-28719701D01*
X70499752Y-28576190D01*
X70449470Y-28441381D01*
X70415985Y-28380058D01*
X70329761Y-28264877D01*
X70329756Y-28264872D01*
X70329751Y-28264866D01*
X67805126Y-25740242D01*
X67805108Y-25740225D01*
X67720990Y-25672438D01*
X67720985Y-25672434D01*
X67720983Y-25672433D01*
X67720981Y-25672431D01*
X67676634Y-25643930D01*
X67676635Y-25643930D01*
X67676628Y-25643926D01*
X67579987Y-25595552D01*
X67579986Y-25595551D01*
X67579985Y-25595551D01*
X67579983Y-25595550D01*
X67579976Y-25595548D01*
X67439404Y-25564969D01*
X67439393Y-25564968D01*
X67416162Y-25563306D01*
X67369703Y-25559984D01*
X67369700Y-25559984D01*
X67226189Y-25570248D01*
X67091385Y-25620528D01*
X67030060Y-25654013D01*
X66914878Y-25740238D01*
X66914866Y-25740248D01*
X65910332Y-26744782D01*
X65849009Y-26778267D01*
X65822408Y-26781101D01*
X62608790Y-26774800D01*
X62608789Y-26774800D01*
X62608788Y-26774800D01*
X62608773Y-26774801D01*
X62474527Y-26792682D01*
X62435411Y-26803373D01*
X62411009Y-26810043D01*
X62411007Y-26810044D01*
X62411001Y-26810046D01*
X62286326Y-26862929D01*
X62286315Y-26862935D01*
X62284497Y-26864401D01*
X62282463Y-26865243D01*
X62278940Y-26867354D01*
X62278627Y-26866831D01*
X62219945Y-26891135D01*
X62155185Y-26880639D01*
X62065465Y-26839664D01*
X62065460Y-26839662D01*
X62065459Y-26839662D01*
X61998420Y-26819977D01*
X61998422Y-26819977D01*
X61998417Y-26819976D01*
X61929329Y-26810043D01*
X61856000Y-26799500D01*
X50179000Y-26799500D01*
X50178991Y-26799500D01*
X50178990Y-26799501D01*
X50071549Y-26811052D01*
X50071537Y-26811054D01*
X50020027Y-26822260D01*
X49917502Y-26856383D01*
X49917496Y-26856386D01*
X49796462Y-26934171D01*
X49796451Y-26934179D01*
X49743659Y-26979923D01*
X49649433Y-27088664D01*
X49649430Y-27088668D01*
X49589664Y-27219534D01*
X49569976Y-27286582D01*
X49549500Y-27429001D01*
X49549500Y-28670500D01*
X49529815Y-28737539D01*
X49477011Y-28783294D01*
X49425500Y-28794500D01*
X44131360Y-28794500D01*
X44077311Y-28797397D01*
X44077310Y-28797397D01*
X44050977Y-28800229D01*
X44050950Y-28800232D01*
X43997566Y-28808883D01*
X43997556Y-28808886D01*
X43990262Y-28811606D01*
X43981877Y-28814396D01*
X43862406Y-28849477D01*
X43827470Y-28854500D01*
X40383719Y-28854500D01*
X40287408Y-28864799D01*
X40287395Y-28864801D01*
X40236150Y-28875888D01*
X40236137Y-28875891D01*
X40149834Y-28903804D01*
X40034949Y-28976175D01*
X39982044Y-29021809D01*
X39982041Y-29021812D01*
X39900324Y-29114411D01*
X39842801Y-29237400D01*
X39842799Y-29237403D01*
X39822964Y-29304393D01*
X39804221Y-29432677D01*
X39804220Y-29432689D01*
X39794782Y-33604689D01*
X1005500Y-33604689D01*
X1005500Y-16570006D01*
X13974512Y-16570006D01*
X13994452Y-17039429D01*
X14054135Y-17505503D01*
X14153126Y-17964822D01*
X14153128Y-17964830D01*
X14290713Y-18414093D01*
X14290718Y-18414107D01*
X14465901Y-18850063D01*
X14465905Y-18850074D01*
X14662604Y-19240204D01*
X14677441Y-19269630D01*
X14923795Y-19669734D01*
X15203192Y-20047504D01*
X15513621Y-20400219D01*
X15852843Y-20725338D01*
X16218415Y-21020516D01*
X16607703Y-21283629D01*
X16790014Y-21385473D01*
X17017893Y-21512775D01*
X17017915Y-21512786D01*
X17446050Y-21706316D01*
X17446057Y-21706319D01*
X17889083Y-21862849D01*
X18343787Y-21981245D01*
X18806894Y-22060653D01*
X18951821Y-22072988D01*
X19275048Y-22100499D01*
X19275065Y-22100499D01*
X19275067Y-22100500D01*
X19275068Y-22100500D01*
X19744932Y-22100500D01*
X19744933Y-22100500D01*
X19744934Y-22100499D01*
X19744951Y-22100499D01*
X20023598Y-22076782D01*
X20213106Y-22060653D01*
X20676213Y-21981245D01*
X21130917Y-21862849D01*
X21573943Y-21706319D01*
X22002097Y-21512780D01*
X22412297Y-21283629D01*
X22801585Y-21020516D01*
X23167157Y-20725338D01*
X23506379Y-20400219D01*
X23816808Y-20047504D01*
X24096205Y-19669734D01*
X24342559Y-19269630D01*
X24554094Y-18850074D01*
X24729287Y-18414091D01*
X24866874Y-17964822D01*
X24965865Y-17505502D01*
X25025546Y-17039442D01*
X25045488Y-16570000D01*
X25025546Y-16100558D01*
X24965865Y-15634498D01*
X24866874Y-15175178D01*
X24729287Y-14725909D01*
X24729286Y-14725906D01*
X24729281Y-14725892D01*
X24554098Y-14289936D01*
X24554094Y-14289925D01*
X24454920Y-14093226D01*
X24342559Y-13870370D01*
X24096205Y-13470266D01*
X23816808Y-13092496D01*
X23506379Y-12739781D01*
X23167157Y-12414662D01*
X22801585Y-12119484D01*
X22412297Y-11856371D01*
X22401525Y-11850353D01*
X22002106Y-11627224D01*
X22002084Y-11627213D01*
X21573949Y-11433683D01*
X21130912Y-11277149D01*
X20676211Y-11158754D01*
X20213116Y-11079348D01*
X20213090Y-11079345D01*
X19744951Y-11039500D01*
X19744933Y-11039500D01*
X19275067Y-11039500D01*
X19275048Y-11039500D01*
X18806909Y-11079345D01*
X18806883Y-11079348D01*
X18343788Y-11158754D01*
X17889087Y-11277149D01*
X17446050Y-11433683D01*
X17017915Y-11627213D01*
X17017893Y-11627224D01*
X16607711Y-11856366D01*
X16607692Y-11856378D01*
X16218420Y-12119480D01*
X15852840Y-12414664D01*
X15513620Y-12739781D01*
X15513619Y-12739782D01*
X15203203Y-13092482D01*
X15203196Y-13092491D01*
X15203192Y-13092496D01*
X15004096Y-13361691D01*
X14923794Y-13470267D01*
X14677442Y-13870367D01*
X14677432Y-13870387D01*
X14465905Y-14289925D01*
X14465901Y-14289936D01*
X14290718Y-14725892D01*
X14290713Y-14725906D01*
X14153128Y-15175169D01*
X14153126Y-15175177D01*
X14054135Y-15634496D01*
X13994452Y-16100570D01*
X13974512Y-16569993D01*
X13974512Y-16570006D01*
X1005500Y-16570006D01*
X1005500Y-1124500D01*
X1025185Y-1057461D01*
X1077989Y-1011706D01*
X1129500Y-1000500D01*
X3980712Y-1000500D01*
X4047751Y-1020185D01*
G37*
%TD.AperFunction*%
%TD*%
%TA.AperFunction,Conductor*%
%TO.N,Net-(C13-Pad2)*%
G36*
X73683228Y-41779271D02*
G01*
X73727599Y-41807863D01*
X76404434Y-44492761D01*
X76872744Y-44962481D01*
X76906137Y-45023854D01*
X76901047Y-45093538D01*
X76872775Y-45137548D01*
X74358011Y-47661661D01*
X74296750Y-47695260D01*
X74227049Y-47690405D01*
X74182157Y-47661495D01*
X71037105Y-44492761D01*
X71003851Y-44431312D01*
X71009097Y-44361640D01*
X71037511Y-44317650D01*
X73552189Y-41807646D01*
X73613541Y-41774221D01*
X73683228Y-41779271D01*
G37*
%TD.AperFunction*%
%TD*%
%TA.AperFunction,Conductor*%
%TO.N,Net-(C13-Pad2)*%
G36*
X67403334Y-26069180D02*
G01*
X67447681Y-26097681D01*
X69972319Y-28622319D01*
X70005804Y-28683642D01*
X70000820Y-28753334D01*
X69972319Y-28797681D01*
X66827681Y-31942319D01*
X66766358Y-31975804D01*
X66696666Y-31970820D01*
X66652319Y-31942319D01*
X65295570Y-30585570D01*
X64040000Y-29330000D01*
X67272319Y-26097681D01*
X67333642Y-26064196D01*
X67403334Y-26069180D01*
G37*
%TD.AperFunction*%
%TD*%
%TA.AperFunction,Conductor*%
%TO.N,Net-(C12-Pad1)*%
G36*
X74788334Y-33414180D02*
G01*
X74832681Y-33442681D01*
X77357318Y-35967318D01*
X77390803Y-36028641D01*
X77385819Y-36098333D01*
X77357318Y-36142680D01*
X76006633Y-37493364D01*
X76006632Y-37493366D01*
X74125000Y-39375000D01*
X71425000Y-36675000D01*
X74657319Y-33442681D01*
X74718642Y-33409196D01*
X74788334Y-33414180D01*
G37*
%TD.AperFunction*%
%TD*%
M02*
