M48
; DRILL file {KiCad 8.0.0} date 2024-05-06T14:44:25-0700
; FORMAT={-:-/ absolute / inch / decimal}
; #@! TF.CreationDate,2024-05-06T14:44:25-07:00
; #@! TF.GenerationSoftware,Kicad,Pcbnew,8.0.0
; #@! TF.FileFunction,Plated,1,2,PTH
FMAT,2
INCH
; #@! TA.AperFunction,Plated,PTH,ViaDrill
T1C0.0118
; #@! TA.AperFunction,Plated,PTH,ViaDrill
T2C0.0157
; #@! TA.AperFunction,Plated,PTH,ViaDrill
T3C0.0236
; #@! TA.AperFunction,Plated,PTH,ViaDrill
T4C0.0394
; #@! TA.AperFunction,Plated,PTH,ComponentDrill
T5C0.2402
%
G90
G05
T1
X0.8098Y-1.7094
X0.8374Y-1.7094
X0.8906Y-1.7094
X0.9181Y-1.7094
X0.9516Y-1.5894
X0.9673Y-1.5343
X0.9752Y-1.6957
X0.987Y-1.5894
X1.0224Y-1.3319
X1.0295Y-1.6213
X1.052Y-1.6681
X1.0929Y-1.4118
X1.1051Y-1.5539
X1.1051Y-1.5894
X1.1051Y-1.6268
X1.111Y-1.4516
X1.1455Y-1.5047
X1.1996Y-1.487
X1.237Y-1.487
X1.3Y-0.8315
X1.3Y-0.865
X1.3Y-0.928
X1.3Y-0.9614
X1.3Y-1.0205
X1.3Y-1.0559
X1.3Y-1.487
X1.3354Y-1.487
X1.3945Y-1.487
X1.4299Y-1.487
X1.4909Y-1.552
X1.5484Y-1.9732
X1.5642Y-2.222
X1.5811Y-2.0268
X1.6109Y-1.9562
X1.6169Y-2.1628
X1.6323Y-2.0445
X1.6681Y-2.0801
X1.6687Y-2.0565
X1.6846Y-2.2224
X1.7055Y-2.1372
X1.7059Y-1.9557
X1.706Y-2.1608
X1.726Y-1.3606
X1.7575Y-1.4043
X1.7823Y-1.4339
X1.7823Y-1.489
X1.7823Y-1.5441
X1.7823Y-1.5992
X1.7886Y-1.3906
X1.7996Y-1.9571
X1.8276Y-1.4339
X1.8276Y-1.489
X1.8276Y-1.5441
X1.8276Y-1.5992
X1.8626Y-1.9699
T2
X1.8217Y-1.365
X1.8752Y-1.3654
X1.9307Y-1.3657
T3
X1.3079Y-0.6524
X1.4043Y-0.6524
X1.6268Y-2.4846
X1.6268Y-2.5299
X1.6278Y-2.2967
X1.6278Y-2.3419
X1.674Y-2.2967
X1.675Y-2.5299
X1.8148Y-2.5299
X1.8157Y-2.2976
X1.861Y-2.2976
X1.861Y-2.3429
X1.861Y-2.4876
X1.862Y-2.5299
X1.9992Y-1.6768
X2.0618Y-1.6768
X2.1228Y-1.6768
X2.2506Y-1.839
X2.2821Y-1.8075
X2.2821Y-1.8705
X2.3835Y-1.7081
X2.3844Y-1.9728
X2.413Y-1.6746
X2.414Y-2.0053
X2.4435Y-1.7061
X2.4474Y-1.9728
X2.5459Y-1.8055
X2.5469Y-1.8705
X2.5783Y-1.838
X2.7087Y-1.5262
X2.7091Y-1.4648
X2.7102Y-1.4045
T4
X0.2443Y-0.5197
X0.2443Y-0.7953
X0.2443Y-1.0709
X0.2443Y-1.3465
X0.2443Y-1.8976
X0.2443Y-2.1732
X0.2443Y-2.4488
X0.2443Y-2.7244
X0.2443Y-3.0
X0.4969Y-0.2429
X0.4969Y-0.5185
X0.4969Y-0.7941
X0.4969Y-1.0697
X0.4969Y-1.3453
X0.4969Y-1.6209
X0.4969Y-1.8965
X0.4969Y-2.172
X0.4969Y-2.4476
X0.4969Y-2.7232
X0.4969Y-3.2748
X0.5008Y-2.9949
X0.7724Y-0.2429
X0.7724Y-1.0697
X0.7724Y-1.8965
X0.7724Y-2.172
X0.7724Y-2.4476
X0.7724Y-2.7232
X0.7724Y-3.2748
X0.7764Y-0.9398
X0.7764Y-2.9949
X1.048Y-0.2429
X1.048Y-0.9398
X1.048Y-1.0697
X1.048Y-1.8965
X1.048Y-2.172
X1.048Y-2.4476
X1.048Y-2.7232
X1.048Y-3.2748
X1.052Y-2.9949
X1.3236Y-0.2429
X1.3236Y-1.8965
X1.3236Y-2.172
X1.3236Y-2.4476
X1.3236Y-2.7232
X1.3236Y-3.2748
X1.3276Y-2.9949
X1.3945Y-0.8453
X1.3965Y-0.9398
X1.3965Y-1.0382
X1.3965Y-1.1366
X1.3965Y-1.2331
X1.3965Y-1.3335
X1.5008Y-1.2331
X1.5008Y-1.3354
X1.5047Y-1.0382
X1.5047Y-1.1346
X1.5992Y-0.2429
X1.5992Y-0.5185
X1.5992Y-1.7114
X1.5992Y-3.2748
X1.6028Y-2.7244
X1.6031Y-2.9949
X1.8406Y-1.7437
X1.8748Y-0.2429
X1.8748Y-0.5185
X1.8748Y-2.172
X1.8783Y-2.724
X1.8787Y-2.9949
X2.1492Y-1.9063
X2.1504Y-0.2429
X2.1504Y-0.5185
X2.1504Y-0.7941
X2.1504Y-1.3453
X2.1504Y-2.172
X2.1504Y-2.4476
X2.1504Y-2.7232
X2.1543Y-2.9949
X2.4213Y-2.1768
X2.426Y-0.2429
X2.426Y-0.5185
X2.426Y-0.7941
X2.426Y-1.3453
X2.426Y-2.4476
X2.426Y-2.7232
X2.4299Y-2.9949
X2.5807Y-1.5335
X2.6472Y-1.7217
X2.7016Y-0.2429
X2.7016Y-0.5185
X2.7016Y-0.7941
X2.7016Y-1.3453
X2.7016Y-2.172
X2.7016Y-2.4476
X2.7016Y-2.7232
X2.7055Y-2.9949
X2.7665Y-1.9063
X3.0002Y-0.2441
X3.0002Y-0.5197
X3.0002Y-0.7953
X3.0002Y-1.0709
X3.0002Y-1.8976
X3.0002Y-2.1732
X3.0002Y-2.4488
X3.0002Y-2.7244
X3.0002Y-3.0
X3.0846Y-1.6118
X3.2758Y-0.5197
X3.2758Y-0.7953
X3.2758Y-1.0709
X3.2758Y-1.3465
X3.2758Y-1.8976
X3.2758Y-2.1732
X3.2758Y-2.4488
X3.2758Y-2.7244
X3.2758Y-3.0
T5
X0.7681Y-0.6524
X1.7319Y-0.8031
M30
