%TF.GenerationSoftware,KiCad,Pcbnew,8.0.0*%
%TF.CreationDate,2024-05-06T14:27:36-07:00*%
%TF.ProjectId,phi2_50MHz_EPC8010,70686932-5f35-4304-9d48-7a5f45504338,rev?*%
%TF.SameCoordinates,Original*%
%TF.FileFunction,Copper,L1,Top*%
%TF.FilePolarity,Positive*%
%FSLAX46Y46*%
G04 Gerber Fmt 4.6, Leading zero omitted, Abs format (unit mm)*
G04 Created by KiCad (PCBNEW 8.0.0) date 2024-05-06 14:27:36*
%MOMM*%
%LPD*%
G01*
G04 APERTURE LIST*
G04 Aperture macros list*
%AMRoundRect*
0 Rectangle with rounded corners*
0 $1 Rounding radius*
0 $2 $3 $4 $5 $6 $7 $8 $9 X,Y pos of 4 corners*
0 Add a 4 corners polygon primitive as box body*
4,1,4,$2,$3,$4,$5,$6,$7,$8,$9,$2,$3,0*
0 Add four circle primitives for the rounded corners*
1,1,$1+$1,$2,$3*
1,1,$1+$1,$4,$5*
1,1,$1+$1,$6,$7*
1,1,$1+$1,$8,$9*
0 Add four rect primitives between the rounded corners*
20,1,$1+$1,$2,$3,$4,$5,0*
20,1,$1+$1,$4,$5,$6,$7,0*
20,1,$1+$1,$6,$7,$8,$9,0*
20,1,$1+$1,$8,$9,$2,$3,0*%
%AMRotRect*
0 Rectangle, with rotation*
0 The origin of the aperture is its center*
0 $1 length*
0 $2 width*
0 $3 Rotation angle, in degrees counterclockwise*
0 Add horizontal line*
21,1,$1,$2,0,0,$3*%
%AMFreePoly0*
4,1,25,-1.500000,1.420000,-1.360000,1.280000,-1.205000,1.155000,-1.035000,1.045000,-0.860000,0.950000,-0.675001,0.875000,-0.480000,0.820000,-0.280000,0.780000,-0.085000,0.765000,0.085000,0.765000,0.280000,0.780000,0.480000,0.820000,0.675001,0.875000,0.860000,0.950000,1.035000,1.045000,1.205000,1.155000,1.360000,1.280000,1.500000,1.420000,1.645000,1.595000,3.555000,1.595000,
3.555000,-0.755000,-3.555000,-0.755000,-3.555000,1.595000,-1.645000,1.595000,-1.500000,1.420000,-1.500000,1.420000,$1*%
G04 Aperture macros list end*
%TA.AperFunction,SMDPad,CuDef*%
%ADD10RoundRect,0.042000X0.098000X0.278000X-0.098000X0.278000X-0.098000X-0.278000X0.098000X-0.278000X0*%
%TD*%
%TA.AperFunction,SMDPad,CuDef*%
%ADD11RoundRect,0.040500X-0.208500X0.094500X-0.208500X-0.094500X0.208500X-0.094500X0.208500X0.094500X0*%
%TD*%
%TA.AperFunction,SMDPad,CuDef*%
%ADD12RoundRect,0.040500X0.119500X0.094500X-0.119500X0.094500X-0.119500X-0.094500X0.119500X-0.094500X0*%
%TD*%
%TA.AperFunction,ComponentPad*%
%ADD13C,10.160000*%
%TD*%
%TA.AperFunction,SMDPad,CuDef*%
%ADD14C,1.730000*%
%TD*%
%TA.AperFunction,SMDPad,CuDef*%
%ADD15FreePoly0,315.000000*%
%TD*%
%TA.AperFunction,SMDPad,CuDef*%
%ADD16FreePoly0,135.000000*%
%TD*%
%TA.AperFunction,SMDPad,CuDef*%
%ADD17FreePoly0,180.000000*%
%TD*%
%TA.AperFunction,SMDPad,CuDef*%
%ADD18FreePoly0,0.000000*%
%TD*%
%TA.AperFunction,SMDPad,CuDef*%
%ADD19R,4.320000X4.700000*%
%TD*%
%TA.AperFunction,SMDPad,CuDef*%
%ADD20RoundRect,0.250000X-0.325000X-0.650000X0.325000X-0.650000X0.325000X0.650000X-0.325000X0.650000X0*%
%TD*%
%TA.AperFunction,SMDPad,CuDef*%
%ADD21RoundRect,0.150000X0.150000X0.200000X-0.150000X0.200000X-0.150000X-0.200000X0.150000X-0.200000X0*%
%TD*%
%TA.AperFunction,SMDPad,CuDef*%
%ADD22RoundRect,0.150000X0.150000X-0.512500X0.150000X0.512500X-0.150000X0.512500X-0.150000X-0.512500X0*%
%TD*%
%TA.AperFunction,SMDPad,CuDef*%
%ADD23R,10.340000X3.300000*%
%TD*%
%TA.AperFunction,SMDPad,CuDef*%
%ADD24RoundRect,0.225000X-0.250000X0.225000X-0.250000X-0.225000X0.250000X-0.225000X0.250000X0.225000X0*%
%TD*%
%TA.AperFunction,SMDPad,CuDef*%
%ADD25R,4.700000X3.810000*%
%TD*%
%TA.AperFunction,SMDPad,CuDef*%
%ADD26RoundRect,0.250000X0.650000X-0.325000X0.650000X0.325000X-0.650000X0.325000X-0.650000X-0.325000X0*%
%TD*%
%TA.AperFunction,SMDPad,CuDef*%
%ADD27RoundRect,0.200000X-0.275000X0.200000X-0.275000X-0.200000X0.275000X-0.200000X0.275000X0.200000X0*%
%TD*%
%TA.AperFunction,SMDPad,CuDef*%
%ADD28RoundRect,0.225000X0.225000X0.250000X-0.225000X0.250000X-0.225000X-0.250000X0.225000X-0.250000X0*%
%TD*%
%TA.AperFunction,SMDPad,CuDef*%
%ADD29RoundRect,0.250000X-0.475000X0.250000X-0.475000X-0.250000X0.475000X-0.250000X0.475000X0.250000X0*%
%TD*%
%TA.AperFunction,SMDPad,CuDef*%
%ADD30R,0.300000X0.660000*%
%TD*%
%TA.AperFunction,SMDPad,CuDef*%
%ADD31RoundRect,0.140000X-0.170000X0.140000X-0.170000X-0.140000X0.170000X-0.140000X0.170000X0.140000X0*%
%TD*%
%TA.AperFunction,SMDPad,CuDef*%
%ADD32RoundRect,0.085000X0.085000X-0.265000X0.085000X0.265000X-0.085000X0.265000X-0.085000X-0.265000X0*%
%TD*%
%TA.AperFunction,SMDPad,CuDef*%
%ADD33RoundRect,0.140000X0.170000X-0.140000X0.170000X0.140000X-0.170000X0.140000X-0.170000X-0.140000X0*%
%TD*%
%TA.AperFunction,SMDPad,CuDef*%
%ADD34RoundRect,0.200000X0.200000X0.275000X-0.200000X0.275000X-0.200000X-0.275000X0.200000X-0.275000X0*%
%TD*%
%TA.AperFunction,SMDPad,CuDef*%
%ADD35RoundRect,0.225000X-0.225000X-0.250000X0.225000X-0.250000X0.225000X0.250000X-0.225000X0.250000X0*%
%TD*%
%TA.AperFunction,SMDPad,CuDef*%
%ADD36R,1.500000X4.200000*%
%TD*%
%TA.AperFunction,SMDPad,CuDef*%
%ADD37RoundRect,0.200000X-0.200000X-0.275000X0.200000X-0.275000X0.200000X0.275000X-0.200000X0.275000X0*%
%TD*%
%TA.AperFunction,SMDPad,CuDef*%
%ADD38RoundRect,0.250000X-1.500000X-0.550000X1.500000X-0.550000X1.500000X0.550000X-1.500000X0.550000X0*%
%TD*%
%TA.AperFunction,SMDPad,CuDef*%
%ADD39RoundRect,0.135000X0.185000X-0.135000X0.185000X0.135000X-0.185000X0.135000X-0.185000X-0.135000X0*%
%TD*%
%TA.AperFunction,SMDPad,CuDef*%
%ADD40RoundRect,0.225000X0.250000X-0.225000X0.250000X0.225000X-0.250000X0.225000X-0.250000X-0.225000X0*%
%TD*%
%TA.AperFunction,SMDPad,CuDef*%
%ADD41RotRect,3.810000X4.700000X225.000000*%
%TD*%
%TA.AperFunction,ViaPad*%
%ADD42C,0.400000*%
%TD*%
%TA.AperFunction,ViaPad*%
%ADD43C,1.500000*%
%TD*%
%TA.AperFunction,ViaPad*%
%ADD44C,0.600000*%
%TD*%
%TA.AperFunction,ViaPad*%
%ADD45C,1.000000*%
%TD*%
%TA.AperFunction,ViaPad*%
%ADD46C,0.800000*%
%TD*%
%TA.AperFunction,Conductor*%
%ADD47C,1.000000*%
%TD*%
%TA.AperFunction,Conductor*%
%ADD48C,0.500000*%
%TD*%
%TA.AperFunction,Conductor*%
%ADD49C,0.200000*%
%TD*%
%TA.AperFunction,Conductor*%
%ADD50C,0.300000*%
%TD*%
%TA.AperFunction,Conductor*%
%ADD51C,0.250000*%
%TD*%
%TA.AperFunction,Conductor*%
%ADD52C,1.500000*%
%TD*%
G04 APERTURE END LIST*
D10*
%TO.P,Q1,1,G*%
%TO.N,/G*%
X43440000Y-35110000D03*
%TO.P,Q1,2,SG*%
%TO.N,GND*%
X43840000Y-35110000D03*
D11*
%TO.P,Q1,3,SP1*%
X44440000Y-35310000D03*
%TO.P,Q1,4,D*%
%TO.N,/D*%
X44440000Y-34910000D03*
D12*
%TO.P,Q1,5,SP2*%
%TO.N,GND*%
X45040000Y-35310000D03*
%TO.P,Q1,6,Sub*%
X45040000Y-34910000D03*
%TD*%
D13*
%TO.P,J6,1,Pin_1*%
%TO.N,GND*%
X43990000Y-20400000D03*
%TD*%
%TO.P,J5,1,Pin_1*%
%TO.N,+12V*%
X19510000Y-16570000D03*
%TD*%
D14*
%TO.P,J2,1,In*%
%TO.N,/RF_OUT*%
X56910000Y-49850000D03*
D15*
%TO.P,J2,2,Ext*%
%TO.N,GND*%
X54930101Y-51829899D03*
D16*
X58889899Y-47870101D03*
%TD*%
D14*
%TO.P,J1,1,In*%
%TO.N,/RF_IN*%
X44320000Y-61290000D03*
D17*
%TO.P,J1,2,Ext*%
%TO.N,GND*%
X44320000Y-58490000D03*
D18*
X44320000Y-64090000D03*
%TD*%
D19*
%TO.P,L1,1,1*%
%TO.N,+12V*%
X31510000Y-31740000D03*
%TO.P,L1,2,2*%
%TO.N,/D*%
X42430000Y-31740000D03*
%TD*%
D20*
%TO.P,C4,1*%
%TO.N,+12V*%
X30345000Y-26370000D03*
%TO.P,C4,2*%
%TO.N,GND*%
X33295000Y-26370000D03*
%TD*%
D21*
%TO.P,D8,1,K*%
%TO.N,/G*%
X44012500Y-40640000D03*
%TO.P,D8,2,A*%
%TO.N,GND*%
X45412500Y-40640000D03*
%TD*%
D20*
%TO.P,C2,1*%
%TO.N,+12V*%
X30345000Y-21570000D03*
%TO.P,C2,2*%
%TO.N,GND*%
X33295000Y-21570000D03*
%TD*%
D22*
%TO.P,U4,1,-IN*%
%TO.N,Net-(U4--IN)*%
X42370000Y-54722500D03*
%TO.P,U4,2,V-*%
%TO.N,GND*%
X43320000Y-54722500D03*
%TO.P,U4,3,+IN*%
%TO.N,/RF_IN*%
X44270000Y-54722500D03*
%TO.P,U4,4,V+*%
%TO.N,+5V*%
X44270000Y-52447500D03*
%TO.P,U4,5,OUT*%
%TO.N,Net-(U4-OUT)*%
X43320000Y-52447500D03*
%TO.P,U4,6,SHDN*%
%TO.N,GND*%
X42370000Y-52447500D03*
%TD*%
D23*
%TO.P,L2,1,1*%
%TO.N,/D*%
X55230000Y-28960000D03*
%TO.P,L2,2,2*%
%TO.N,Net-(C5-Pad1)*%
X55230000Y-37800000D03*
%TD*%
D24*
%TO.P,C19,1*%
%TO.N,/D*%
X47610000Y-33335000D03*
%TO.P,C19,2*%
%TO.N,GND*%
X47610000Y-34885000D03*
%TD*%
D25*
%TO.P,L3,1,1*%
%TO.N,Net-(C13-Pad2)*%
X68860000Y-29095000D03*
%TO.P,L3,2,2*%
%TO.N,Net-(C12-Pad1)*%
X68860000Y-39505000D03*
%TD*%
D26*
%TO.P,C28,1*%
%TO.N,+5V*%
X30970000Y-40995000D03*
%TO.P,C28,2*%
%TO.N,GND*%
X30970000Y-38045000D03*
%TD*%
D24*
%TO.P,C20,2*%
%TO.N,GND*%
X49020000Y-34885000D03*
%TO.P,C20,1*%
%TO.N,/D*%
X49020000Y-33335000D03*
%TD*%
D27*
%TO.P,R7,1*%
%TO.N,Net-(U1-FB)*%
X24320000Y-37395000D03*
%TO.P,R7,2*%
%TO.N,GND*%
X24320000Y-39045000D03*
%TD*%
D28*
%TO.P,C12,1*%
%TO.N,Net-(C12-Pad1)*%
X64005000Y-38030000D03*
%TO.P,C12,2*%
%TO.N,GND*%
X62455000Y-38030000D03*
%TD*%
D26*
%TO.P,C26,1*%
%TO.N,+5V*%
X35870000Y-40995000D03*
%TO.P,C26,2*%
%TO.N,GND*%
X35870000Y-38045000D03*
%TD*%
D28*
%TO.P,C21,1*%
%TO.N,Net-(C12-Pad1)*%
X64005000Y-39580000D03*
%TO.P,C21,2*%
%TO.N,GND*%
X62455000Y-39580000D03*
%TD*%
D29*
%TO.P,C24,1*%
%TO.N,+12V*%
X22970000Y-41740000D03*
%TO.P,C24,2*%
%TO.N,GND*%
X22970000Y-43640000D03*
%TD*%
D20*
%TO.P,C3,1*%
%TO.N,+12V*%
X30345000Y-23970000D03*
%TO.P,C3,2*%
%TO.N,GND*%
X33295000Y-23970000D03*
%TD*%
D30*
%TO.P,U5,1,A1*%
%TO.N,Net-(U4-OUT)*%
X40270000Y-50115000D03*
%TO.P,U5,2,GND*%
%TO.N,GND*%
X40920000Y-50115000D03*
%TO.P,U5,3,A2*%
%TO.N,Net-(U4-OUT)*%
X41570000Y-50115000D03*
%TO.P,U5,4,Y2*%
%TO.N,/G1*%
X41570000Y-48275000D03*
%TO.P,U5,5,VCC*%
%TO.N,+5V*%
X40920000Y-48275000D03*
%TO.P,U5,6,Y1*%
%TO.N,/G1*%
X40270000Y-48275000D03*
%TD*%
D31*
%TO.P,C10,1*%
%TO.N,+5V*%
X41070000Y-54055000D03*
%TO.P,C10,2*%
%TO.N,GND*%
X41070000Y-55015000D03*
%TD*%
D21*
%TO.P,D4,1,K*%
%TO.N,+5V*%
X41370000Y-40620000D03*
%TO.P,D4,2,A*%
%TO.N,/G*%
X42770000Y-40620000D03*
%TD*%
%TO.P,D3,1,K*%
%TO.N,+5V*%
X41370000Y-39220000D03*
%TO.P,D3,2,A*%
%TO.N,/G*%
X42770000Y-39220000D03*
%TD*%
%TO.P,D1,1,K*%
%TO.N,+5V*%
X41370000Y-36420000D03*
%TO.P,D1,2,A*%
%TO.N,/G*%
X42770000Y-36420000D03*
%TD*%
%TO.P,D7,1,K*%
%TO.N,/G*%
X44012500Y-39240000D03*
%TO.P,D7,2,A*%
%TO.N,GND*%
X45412500Y-39240000D03*
%TD*%
D26*
%TO.P,C27,1*%
%TO.N,+5V*%
X33470000Y-40995000D03*
%TO.P,C27,2*%
%TO.N,GND*%
X33470000Y-38045000D03*
%TD*%
D24*
%TO.P,C15,1*%
%TO.N,/D*%
X46280000Y-33335000D03*
%TO.P,C15,2*%
%TO.N,GND*%
X46280000Y-34885000D03*
%TD*%
D32*
%TO.P,U1,1,VIN*%
%TO.N,+12V*%
X26220000Y-41170000D03*
%TO.P,U1,2,SW*%
%TO.N,Net-(U1-SW)*%
X26720000Y-41170000D03*
%TO.P,U1,3,GND*%
%TO.N,GND*%
X27220000Y-41170000D03*
%TO.P,U1,4,BST*%
%TO.N,Net-(U1-BST)*%
X27220000Y-39670000D03*
%TO.P,U1,5,EN*%
%TO.N,Net-(U1-EN)*%
X26720000Y-39670000D03*
%TO.P,U1,6,FB*%
%TO.N,Net-(U1-FB)*%
X26220000Y-39670000D03*
%TD*%
D21*
%TO.P,D2,1,K*%
%TO.N,+5V*%
X41370000Y-37820000D03*
%TO.P,D2,2,A*%
%TO.N,/G*%
X42770000Y-37820000D03*
%TD*%
D33*
%TO.P,C8,1*%
%TO.N,GND*%
X39320000Y-50325000D03*
%TO.P,C8,2*%
%TO.N,+5V*%
X39320000Y-49365000D03*
%TD*%
D24*
%TO.P,C7,1*%
%TO.N,Net-(C5-Pad1)*%
X50780000Y-40980000D03*
%TO.P,C7,2*%
%TO.N,GND*%
X50780000Y-42530000D03*
%TD*%
%TO.P,C25,1*%
%TO.N,+12V*%
X24770000Y-41695000D03*
%TO.P,C25,2*%
%TO.N,GND*%
X24770000Y-43245000D03*
%TD*%
D34*
%TO.P,R6,1*%
%TO.N,Net-(U4--IN)*%
X41295000Y-56435000D03*
%TO.P,R6,2*%
%TO.N,GND*%
X39645000Y-56435000D03*
%TD*%
D21*
%TO.P,D5,1,K*%
%TO.N,/G*%
X44010000Y-36450000D03*
%TO.P,D5,2,A*%
%TO.N,GND*%
X45410000Y-36450000D03*
%TD*%
D24*
%TO.P,C5,1*%
%TO.N,Net-(C5-Pad1)*%
X53930000Y-40980000D03*
%TO.P,C5,2*%
%TO.N,GND*%
X53930000Y-42530000D03*
%TD*%
D27*
%TO.P,R3,1*%
%TO.N,+5V*%
X24320000Y-34295000D03*
%TO.P,R3,2*%
%TO.N,Net-(U1-FB)*%
X24320000Y-35945000D03*
%TD*%
D35*
%TO.P,C13,1*%
%TO.N,/D*%
X61455000Y-28330000D03*
%TO.P,C13,2*%
%TO.N,Net-(C13-Pad2)*%
X63005000Y-28330000D03*
%TD*%
D27*
%TO.P,R5,1*%
%TO.N,+5V*%
X45820000Y-52760000D03*
%TO.P,R5,2*%
%TO.N,Net-(U4--IN)*%
X45820000Y-54410000D03*
%TD*%
D36*
%TO.P,L5,1*%
%TO.N,Net-(U1-SW)*%
X26820000Y-44670000D03*
%TO.P,L5,2*%
%TO.N,+5V*%
X30420000Y-44670000D03*
%TD*%
D37*
%TO.P,R4,1*%
%TO.N,GND*%
X42695000Y-56435000D03*
%TO.P,R4,2*%
%TO.N,/RF_IN*%
X44345000Y-56435000D03*
%TD*%
D38*
%TO.P,C1,1*%
%TO.N,+12V*%
X29070000Y-16620000D03*
%TO.P,C1,2*%
%TO.N,GND*%
X34470000Y-16620000D03*
%TD*%
D39*
%TO.P,R2,1*%
%TO.N,Net-(U1-EN)*%
X25970000Y-34870000D03*
%TO.P,R2,2*%
%TO.N,GND*%
X25970000Y-33850000D03*
%TD*%
D40*
%TO.P,C29,1*%
%TO.N,+5V*%
X37870000Y-41095000D03*
%TO.P,C29,2*%
%TO.N,GND*%
X37870000Y-39545000D03*
%TD*%
D41*
%TO.P,L4,1,1*%
%TO.N,Net-(C12-Pad1)*%
X69240491Y-47539509D03*
%TO.P,L4,2,2*%
%TO.N,/RF_OUT*%
X61879509Y-54900491D03*
%TD*%
D21*
%TO.P,D6,1,K*%
%TO.N,/G*%
X44012500Y-37850000D03*
%TO.P,D6,2,A*%
%TO.N,GND*%
X45412500Y-37850000D03*
%TD*%
D30*
%TO.P,U6,1,A1*%
%TO.N,Net-(U4-OUT)*%
X42670000Y-50115000D03*
%TO.P,U6,2,GND*%
%TO.N,GND*%
X43320000Y-50115000D03*
%TO.P,U6,3,A2*%
%TO.N,Net-(U4-OUT)*%
X43970000Y-50115000D03*
%TO.P,U6,4,Y2*%
%TO.N,/G1*%
X43970000Y-48275000D03*
%TO.P,U6,5,VCC*%
%TO.N,+5V*%
X43320000Y-48275000D03*
%TO.P,U6,6,Y1*%
%TO.N,/G1*%
X42670000Y-48275000D03*
%TD*%
D28*
%TO.P,C18,1*%
%TO.N,Net-(U1-SW)*%
X29095000Y-38220000D03*
%TO.P,C18,2*%
%TO.N,Net-(U1-BST)*%
X27545000Y-38220000D03*
%TD*%
D39*
%TO.P,R1,1*%
%TO.N,+12V*%
X25970000Y-36880000D03*
%TO.P,R1,2*%
%TO.N,Net-(U1-EN)*%
X25970000Y-35860000D03*
%TD*%
D35*
%TO.P,C14,1*%
%TO.N,/D*%
X61455000Y-29880000D03*
%TO.P,C14,2*%
%TO.N,Net-(C13-Pad2)*%
X63005000Y-29880000D03*
%TD*%
D24*
%TO.P,C6,1*%
%TO.N,Net-(C5-Pad1)*%
X52380000Y-40980000D03*
%TO.P,C6,2*%
%TO.N,GND*%
X52380000Y-42530000D03*
%TD*%
D33*
%TO.P,C11,1*%
%TO.N,GND*%
X47320000Y-50275000D03*
%TO.P,C11,2*%
%TO.N,+5V*%
X47320000Y-49315000D03*
%TD*%
D29*
%TO.P,C23,1*%
%TO.N,+12V*%
X20920000Y-41740000D03*
%TO.P,C23,2*%
%TO.N,GND*%
X20920000Y-43640000D03*
%TD*%
D30*
%TO.P,U7,1,A1*%
%TO.N,Net-(U4-OUT)*%
X45070000Y-50115000D03*
%TO.P,U7,2,GND*%
%TO.N,GND*%
X45720000Y-50115000D03*
%TO.P,U7,3,A2*%
%TO.N,Net-(U4-OUT)*%
X46370000Y-50115000D03*
%TO.P,U7,4,Y2*%
%TO.N,/G1*%
X46370000Y-48275000D03*
%TO.P,U7,5,VCC*%
%TO.N,+5V*%
X45720000Y-48275000D03*
%TO.P,U7,6,Y1*%
%TO.N,/G1*%
X45070000Y-48275000D03*
%TD*%
D28*
%TO.P,C22,1*%
%TO.N,Net-(C12-Pad1)*%
X64005000Y-41130000D03*
%TO.P,C22,2*%
%TO.N,GND*%
X62455000Y-41130000D03*
%TD*%
D42*
%TO.N,GND*%
X40160000Y-51480000D03*
X41460000Y-51930000D03*
X43840000Y-34560000D03*
X44640000Y-35670000D03*
X45430000Y-35320000D03*
D43*
X47710000Y-69190000D03*
X40710000Y-69200000D03*
X26620000Y-48170000D03*
D44*
X37870000Y-39420000D03*
D43*
X46750000Y-44290000D03*
X61620000Y-20170000D03*
X35470000Y-28870000D03*
X57180000Y-41740000D03*
X76205000Y-41200000D03*
X6205000Y-62200000D03*
D42*
X40916409Y-49686409D03*
D43*
X61620000Y-62170000D03*
D45*
X42545000Y-64260000D03*
D43*
X63320000Y-48410000D03*
D42*
X46420000Y-40620000D03*
D43*
X76205000Y-48200000D03*
D42*
X42370000Y-52835000D03*
D43*
X54720000Y-76070000D03*
X76205000Y-55200000D03*
X54620000Y-69170000D03*
X61620000Y-34170000D03*
X76205000Y-62200000D03*
D44*
X35420000Y-37770000D03*
X24170000Y-40370000D03*
D43*
X68620000Y-34170000D03*
D45*
X47270000Y-58360000D03*
X52720000Y-49865000D03*
X56120000Y-53265000D03*
D43*
X83205000Y-76200000D03*
X12620000Y-34170000D03*
X40620000Y-6170000D03*
X54620000Y-13170000D03*
X12620000Y-6170000D03*
D44*
X39730000Y-56440000D03*
D43*
X54620000Y-55170000D03*
X40620000Y-13170000D03*
X61720000Y-76070000D03*
X76205000Y-27200000D03*
X6205000Y-55200000D03*
X54620000Y-62170000D03*
X47620000Y-6170000D03*
X40620000Y-43470000D03*
D44*
X33020000Y-37770000D03*
D42*
X46420000Y-36420000D03*
D43*
X19620000Y-6170000D03*
D42*
X39330000Y-50120000D03*
D43*
X12620000Y-41170000D03*
X6205000Y-27200000D03*
X6205000Y-20200000D03*
X6205000Y-13200000D03*
D42*
X45270000Y-39220000D03*
D45*
X61045000Y-49840000D03*
D44*
X33020000Y-23570000D03*
D42*
X42383790Y-52235156D03*
D43*
X83205000Y-48200000D03*
D44*
X22620000Y-43420000D03*
D43*
X68620000Y-6170000D03*
D44*
X33020000Y-21970000D03*
X33020000Y-24420000D03*
D46*
X46270000Y-34670000D03*
D43*
X76205000Y-69200000D03*
X54620000Y-6170000D03*
D44*
X28070000Y-40370000D03*
X33920000Y-37770000D03*
D43*
X33620000Y-83180000D03*
X68620000Y-55170000D03*
D45*
X47270000Y-63185000D03*
D43*
X38220000Y-28820000D03*
X12620000Y-20170000D03*
X59180000Y-43800000D03*
X68620000Y-13170000D03*
D44*
X36320000Y-37770000D03*
D43*
X68620000Y-20170000D03*
D45*
X53520000Y-49065000D03*
X62480000Y-38020000D03*
D44*
X33020000Y-25920000D03*
D43*
X33620000Y-55170000D03*
D45*
X60220000Y-49015000D03*
D43*
X33620000Y-6170000D03*
D45*
X56845000Y-45690000D03*
X53920000Y-42590000D03*
D43*
X38120000Y-33920000D03*
X40620000Y-83180000D03*
X33720000Y-76070000D03*
X26620000Y-83180000D03*
X40720000Y-76070000D03*
D44*
X23320000Y-43420000D03*
D43*
X38220000Y-26370000D03*
X12620000Y-62170000D03*
X6205000Y-69200000D03*
X35470000Y-23870000D03*
X26620000Y-69170000D03*
X76205000Y-20200000D03*
X83205000Y-62200000D03*
X83205000Y-27200000D03*
X26620000Y-6170000D03*
X19720000Y-76070000D03*
X83205000Y-69200000D03*
X65560000Y-50560000D03*
X12620000Y-69170000D03*
X26620000Y-55170000D03*
X61620000Y-69170000D03*
D45*
X62450000Y-39550000D03*
D43*
X68720000Y-76070000D03*
D45*
X33220000Y-16570000D03*
D42*
X45270000Y-40620000D03*
D43*
X35470000Y-31320000D03*
D45*
X60245000Y-50665000D03*
X50780000Y-42590000D03*
D43*
X76205000Y-6200000D03*
X49360000Y-46260000D03*
X6205000Y-48200000D03*
X38120000Y-31320000D03*
X33620000Y-69170000D03*
D45*
X56870000Y-54090000D03*
D43*
X19620000Y-69170000D03*
D42*
X43333480Y-54884851D03*
D44*
X28220000Y-36870000D03*
D43*
X35420000Y-21470000D03*
X68620000Y-69170000D03*
X61620000Y-6170000D03*
D45*
X41345000Y-58335000D03*
X41320000Y-64260000D03*
D43*
X47620000Y-13170000D03*
X47720000Y-76070000D03*
D44*
X28070000Y-39470000D03*
D43*
X19620000Y-83180000D03*
D45*
X47295000Y-64260000D03*
D43*
X35470000Y-33870000D03*
D45*
X35670000Y-16570000D03*
D43*
X12620000Y-48170000D03*
D44*
X31420000Y-37770000D03*
D43*
X76205000Y-34200000D03*
X35470000Y-26370000D03*
D44*
X27760000Y-35860000D03*
D45*
X57720000Y-53265000D03*
D43*
X83205000Y-13200000D03*
X61320000Y-45970000D03*
X54620000Y-20170000D03*
D44*
X30470000Y-37770000D03*
D43*
X83205000Y-20200000D03*
X26620000Y-27170000D03*
D44*
X24770000Y-43070000D03*
X42790000Y-56450000D03*
D43*
X33620000Y-62170000D03*
D45*
X41320000Y-63110000D03*
D44*
X25070000Y-40370000D03*
D45*
X57620000Y-46490000D03*
D42*
X46420000Y-39220000D03*
X45710000Y-49710000D03*
D43*
X6205000Y-76200000D03*
X83205000Y-34200000D03*
X19620000Y-48170000D03*
X68620000Y-62170000D03*
X47620000Y-55170000D03*
D45*
X62440000Y-41110000D03*
D42*
X45270000Y-37820000D03*
D43*
X12620000Y-13170000D03*
D44*
X20570000Y-43420000D03*
D42*
X43330000Y-49675000D03*
D43*
X19620000Y-27170000D03*
D44*
X33020000Y-26820000D03*
D45*
X41345000Y-59485000D03*
D43*
X26620000Y-23870000D03*
X83205000Y-55200000D03*
X12620000Y-83180000D03*
D44*
X28070000Y-41320000D03*
D45*
X52370000Y-42590000D03*
D43*
X76205000Y-76200000D03*
D42*
X24570000Y-38970000D03*
D43*
X26720000Y-76070000D03*
D46*
X47630000Y-34680000D03*
D43*
X12620000Y-27170000D03*
X26620000Y-62170000D03*
X61620000Y-13170000D03*
D44*
X25970000Y-33830000D03*
D43*
X76205000Y-13200000D03*
X54620000Y-34170000D03*
D45*
X42520000Y-58335000D03*
D43*
X33620000Y-48170000D03*
D42*
X47309513Y-50035487D03*
D43*
X19720000Y-23870000D03*
D46*
X49040000Y-34690000D03*
D45*
X47270000Y-59510000D03*
D43*
X12720000Y-76070000D03*
D44*
X21270000Y-43420000D03*
D45*
X46095000Y-64260000D03*
D43*
X19620000Y-55170000D03*
D45*
X53520000Y-50665000D03*
D43*
X6205000Y-34200000D03*
D45*
X56095000Y-46540000D03*
D43*
X12620000Y-55170000D03*
D42*
X43320000Y-54285000D03*
D44*
X33020000Y-21120000D03*
D42*
X46420000Y-37820000D03*
D43*
X19620000Y-62170000D03*
D42*
X41070000Y-54935000D03*
X45270000Y-36420000D03*
D45*
X46120000Y-58360000D03*
D42*
%TO.N,+12V*%
X26150000Y-41180000D03*
%TO.N,Net-(U1-SW)*%
X29095000Y-38220000D03*
X26720000Y-42370000D03*
%TD*%
D47*
%TO.N,+5V*%
X37820000Y-46370000D02*
X37820000Y-43620000D01*
X37820000Y-48270000D02*
X37820000Y-46370000D01*
D48*
%TO.N,/RF_OUT*%
X56990000Y-49800000D02*
X61860000Y-54670000D01*
X61860000Y-54670000D02*
X61860000Y-54810000D01*
X56990000Y-49760000D02*
X56990000Y-49800000D01*
D49*
%TO.N,GND*%
X43840000Y-34560000D02*
X43840000Y-34620000D01*
X43840000Y-35110000D02*
X43840000Y-34560000D01*
X44040000Y-35310000D02*
X44480000Y-35310000D01*
X43840000Y-35110000D02*
X44040000Y-35310000D01*
X45015000Y-35345000D02*
X44490000Y-35345000D01*
X45050000Y-35310000D02*
X45015000Y-35345000D01*
X45040000Y-35300000D02*
X45050000Y-35310000D01*
X45040000Y-34910000D02*
X45040000Y-35300000D01*
D48*
%TO.N,+5V*%
X47508266Y-49315000D02*
X47320000Y-49315000D01*
X48080000Y-50663266D02*
X48080000Y-49886734D01*
X48080000Y-49886734D02*
X47508266Y-49315000D01*
X45840000Y-52770000D02*
X45973266Y-52770000D01*
X45973266Y-52770000D02*
X48080000Y-50663266D01*
D50*
%TO.N,Net-(U4-OUT)*%
X43290000Y-51115000D02*
X43290000Y-52570000D01*
X43270000Y-51095000D02*
X43290000Y-51115000D01*
D47*
%TO.N,+5V*%
X37820000Y-50800000D02*
X40960000Y-53940000D01*
X37820000Y-48270000D02*
X37820000Y-50800000D01*
D50*
%TO.N,Net-(U4-OUT)*%
X42615000Y-50170000D02*
X42670000Y-50115000D01*
X42615000Y-51095000D02*
X42615000Y-50170000D01*
D51*
%TO.N,GND*%
X26950000Y-40340000D02*
X27080000Y-40470000D01*
X27920000Y-41170000D02*
X28070000Y-41320000D01*
X27220000Y-41170000D02*
X27920000Y-41170000D01*
X25790000Y-40340000D02*
X26950000Y-40340000D01*
D48*
%TO.N,+12V*%
X24770000Y-41695000D02*
X25605000Y-41695000D01*
D51*
X25970000Y-36880000D02*
X25145000Y-36055000D01*
D52*
X31645000Y-30885000D02*
X31510000Y-31020000D01*
D51*
X24780000Y-35150000D02*
X23450000Y-35150000D01*
X25145000Y-36055000D02*
X25145000Y-35515000D01*
D48*
X25605000Y-41695000D02*
X26120000Y-41180000D01*
D51*
X25145000Y-35515000D02*
X24780000Y-35150000D01*
D50*
%TO.N,+5V*%
X44582500Y-52760000D02*
X44270000Y-52447500D01*
X45940000Y-49125000D02*
X43100000Y-49125000D01*
X40460000Y-49365000D02*
X40700000Y-49125000D01*
D48*
X47320000Y-47596472D02*
X47320000Y-49315000D01*
D50*
X38720000Y-40245000D02*
X37870000Y-41095000D01*
X24570000Y-33995000D02*
X25485000Y-33080000D01*
X47320000Y-49315000D02*
X46130000Y-49315000D01*
X45820000Y-52760000D02*
X44582500Y-52760000D01*
D47*
X37820000Y-43620000D02*
X38000000Y-43620000D01*
D50*
X45720000Y-48905000D02*
X45720000Y-48275000D01*
D47*
X37820000Y-41145000D02*
X37820000Y-43520000D01*
X39310000Y-44930000D02*
X45339390Y-44930000D01*
D50*
X38720000Y-39064544D02*
X38720000Y-40245000D01*
X40700000Y-49125000D02*
X40920000Y-48905000D01*
X43320000Y-48905000D02*
X43100000Y-49125000D01*
X39320000Y-49365000D02*
X40460000Y-49365000D01*
D47*
X47550000Y-47140610D02*
X47550000Y-49080000D01*
D50*
X40920000Y-48905000D02*
X40920000Y-48275000D01*
X36775456Y-37120000D02*
X38720000Y-39064544D01*
X46130000Y-49315000D02*
X45940000Y-49125000D01*
D47*
X45339390Y-44930000D02*
X47550000Y-47140610D01*
D50*
X31050000Y-37120000D02*
X36775456Y-37120000D01*
X45940000Y-49125000D02*
X45720000Y-48905000D01*
D47*
X38000000Y-43620000D02*
X39310000Y-44930000D01*
D48*
X38915000Y-49365000D02*
X37820000Y-48270000D01*
D50*
X43320000Y-48275000D02*
X43320000Y-48905000D01*
D48*
X39320000Y-49365000D02*
X38915000Y-49365000D01*
D50*
X25485000Y-33080000D02*
X27010000Y-33080000D01*
D47*
X37870000Y-41095000D02*
X37820000Y-41145000D01*
D50*
X27010000Y-33080000D02*
X31050000Y-37120000D01*
X24570000Y-34395000D02*
X24570000Y-33995000D01*
X43100000Y-49125000D02*
X40700000Y-49125000D01*
D48*
%TO.N,/D*%
X42410000Y-31110000D02*
X43430000Y-32130000D01*
D49*
X43545000Y-33295000D02*
X43570000Y-33270000D01*
X43510000Y-33260000D02*
X43530000Y-33240000D01*
X43545000Y-33165000D02*
X43550000Y-33160000D01*
D50*
%TO.N,Net-(U1-BST)*%
X27220000Y-39670000D02*
X27220000Y-38345000D01*
X27220000Y-38345000D02*
X27295000Y-38270000D01*
%TO.N,Net-(U1-SW)*%
X26720000Y-41170000D02*
X26720000Y-42370000D01*
X26720000Y-42370000D02*
X26720000Y-44570000D01*
X26720000Y-44570000D02*
X26820000Y-44670000D01*
%TO.N,/RF_IN*%
X44345000Y-56435000D02*
X44345000Y-56710000D01*
X44320000Y-56735000D02*
X44320000Y-61310000D01*
X44345000Y-54797500D02*
X44270000Y-54722500D01*
X44345000Y-56710000D02*
X44320000Y-56735000D01*
X44345000Y-56435000D02*
X44345000Y-54797500D01*
%TO.N,Net-(U1-EN)*%
X26720000Y-36020000D02*
X25970000Y-35270000D01*
D48*
X25970000Y-35860000D02*
X25970000Y-35270000D01*
D50*
X26720000Y-39670000D02*
X26720000Y-36020000D01*
D48*
X25970000Y-35270000D02*
X25970000Y-34870000D01*
D50*
%TO.N,Net-(U1-FB)*%
X26220000Y-39145000D02*
X24570000Y-37495000D01*
X26220000Y-39670000D02*
X26220000Y-39145000D01*
D48*
X24570000Y-36045000D02*
X24570000Y-37495000D01*
D50*
%TO.N,Net-(U4--IN)*%
X41295000Y-55797500D02*
X42370000Y-54722500D01*
D49*
X42370000Y-54722500D02*
X42370000Y-54060001D01*
X42370000Y-54060001D02*
X42670001Y-53760000D01*
X45170000Y-53760000D02*
X45820000Y-54410000D01*
D50*
X41295000Y-56435000D02*
X41295000Y-55797500D01*
D49*
X42670001Y-53760000D02*
X45170000Y-53760000D01*
D50*
%TO.N,Net-(U4-OUT)*%
X43970000Y-50745000D02*
X43620000Y-51095000D01*
X40620000Y-51095000D02*
X42070000Y-51095000D01*
X41570000Y-50115000D02*
X41570000Y-50795000D01*
X41870000Y-51095000D02*
X42070000Y-51095000D01*
X43620000Y-51095000D02*
X42715000Y-51095000D01*
X45070000Y-50695000D02*
X45070000Y-50115000D01*
X44470000Y-51095000D02*
X45820000Y-51095000D01*
X43620000Y-51095000D02*
X44470000Y-51095000D01*
X40270000Y-50115000D02*
X40270000Y-50745000D01*
X44470000Y-51095000D02*
X44670000Y-51095000D01*
X45820000Y-51095000D02*
X46370000Y-50545000D01*
X46370000Y-50545000D02*
X46370000Y-50115000D01*
X40270000Y-50745000D02*
X40620000Y-51095000D01*
X42070000Y-51095000D02*
X42615000Y-51095000D01*
X41570000Y-50795000D02*
X41870000Y-51095000D01*
X44670000Y-51095000D02*
X45070000Y-50695000D01*
X43970000Y-50115000D02*
X43970000Y-50745000D01*
%TO.N,/G1*%
X44520000Y-46895000D02*
X45770000Y-46895000D01*
X40270000Y-48275000D02*
X40270000Y-47645000D01*
X42670000Y-48275000D02*
X42670000Y-47295000D01*
X42670000Y-47295000D02*
X43070000Y-46895000D01*
X40270000Y-47645000D02*
X41020000Y-46895000D01*
X41020000Y-46895000D02*
X42320000Y-46895000D01*
X46370000Y-47495000D02*
X46370000Y-48275000D01*
X42320000Y-46895000D02*
X43070000Y-46895000D01*
X45770000Y-46895000D02*
X46370000Y-47495000D01*
X45070000Y-48275000D02*
X45070000Y-47445000D01*
X43970000Y-48275000D02*
X43970000Y-47295000D01*
X43070000Y-46895000D02*
X43570000Y-46895000D01*
X41570000Y-47645000D02*
X42320000Y-46895000D01*
X45070000Y-47445000D02*
X44520000Y-46895000D01*
X43970000Y-47295000D02*
X43570000Y-46895000D01*
X43570000Y-46895000D02*
X44520000Y-46895000D01*
X41570000Y-48275000D02*
X41570000Y-47645000D01*
%TD*%
%TA.AperFunction,Conductor*%
%TO.N,+5V*%
G36*
X31370000Y-42920000D02*
G01*
X31370000Y-46666687D01*
X31350315Y-46733726D01*
X31297511Y-46779481D01*
X31246689Y-46790685D01*
X29694689Y-46799307D01*
X29627541Y-46779995D01*
X29581494Y-46727446D01*
X29570000Y-46675309D01*
X29570000Y-42420000D01*
X31370000Y-42410000D01*
X31370000Y-42920000D01*
G37*
%TD.AperFunction*%
%TD*%
%TA.AperFunction,Conductor*%
%TO.N,GND*%
G36*
X46070000Y-41470000D02*
G01*
X44820000Y-41470000D01*
X44820000Y-35670000D01*
X46070000Y-35670000D01*
X46070000Y-41470000D01*
G37*
%TD.AperFunction*%
%TD*%
%TA.AperFunction,Conductor*%
%TO.N,+12V*%
G36*
X30970000Y-33246000D02*
G01*
X30950315Y-33313039D01*
X30897511Y-33358794D01*
X30846000Y-33370000D01*
X28440000Y-33370000D01*
X28440000Y-17270000D01*
X30970000Y-17270000D01*
X30970000Y-33246000D01*
G37*
%TD.AperFunction*%
%TD*%
%TA.AperFunction,Conductor*%
%TO.N,/G1*%
G36*
X44253039Y-45650185D02*
G01*
X44298794Y-45702989D01*
X44310000Y-45754500D01*
X44310000Y-46881000D01*
X44290315Y-46948039D01*
X44237511Y-46993794D01*
X44186000Y-47005000D01*
X42504000Y-47005000D01*
X42436961Y-46985315D01*
X42391206Y-46932511D01*
X42380000Y-46881000D01*
X42380000Y-45754500D01*
X42399685Y-45687461D01*
X42452489Y-45641706D01*
X42504000Y-45630500D01*
X44186000Y-45630500D01*
X44253039Y-45650185D01*
G37*
%TD.AperFunction*%
%TD*%
%TA.AperFunction,Conductor*%
%TO.N,+5V*%
G36*
X41813039Y-35689685D02*
G01*
X41858794Y-35742489D01*
X41870000Y-35794000D01*
X41870000Y-41470000D01*
X40770000Y-41470000D01*
X40770000Y-35794000D01*
X40789685Y-35726961D01*
X40842489Y-35681206D01*
X40894000Y-35670000D01*
X41746000Y-35670000D01*
X41813039Y-35689685D01*
G37*
%TD.AperFunction*%
%TD*%
%TA.AperFunction,Conductor*%
%TO.N,+12V*%
G36*
X30970000Y-33246000D02*
G01*
X30950315Y-33313039D01*
X30897511Y-33358794D01*
X30846000Y-33370000D01*
X27847044Y-33370000D01*
X27780005Y-33350315D01*
X27759363Y-33333681D01*
X27225213Y-32799531D01*
X27225208Y-32799527D01*
X27145290Y-32753387D01*
X27145289Y-32753386D01*
X27145288Y-32753386D01*
X27056144Y-32729500D01*
X25438856Y-32729500D01*
X25349712Y-32753386D01*
X25349711Y-32753386D01*
X25349709Y-32753387D01*
X25349706Y-32753388D01*
X25269794Y-32799526D01*
X25269785Y-32799533D01*
X24735637Y-33333681D01*
X24674314Y-33367166D01*
X24647956Y-33370000D01*
X18970000Y-33370000D01*
X18970000Y-28526797D01*
X19022497Y-28481242D01*
X19074089Y-28470000D01*
X28440000Y-28470000D01*
X30970000Y-28470000D01*
X30970000Y-33246000D01*
G37*
%TD.AperFunction*%
%TD*%
%TA.AperFunction,Conductor*%
%TO.N,+5V*%
G36*
X41870000Y-41946000D02*
G01*
X41850315Y-42013039D01*
X41797511Y-42058794D01*
X41746000Y-42070000D01*
X38420000Y-42070000D01*
X38420000Y-40170000D01*
X40770000Y-40170000D01*
X41870000Y-40170000D01*
X41870000Y-41946000D01*
G37*
%TD.AperFunction*%
%TD*%
%TA.AperFunction,Conductor*%
%TO.N,+12V*%
G36*
X30913039Y-13739685D02*
G01*
X30958794Y-13792489D01*
X30970000Y-13844000D01*
X30970000Y-19870000D01*
X20744000Y-19870000D01*
X20676961Y-19850315D01*
X20631206Y-19797511D01*
X20620000Y-19746000D01*
X20620000Y-13844000D01*
X20639685Y-13776961D01*
X20692489Y-13731206D01*
X20744000Y-13720000D01*
X30846000Y-13720000D01*
X30913039Y-13739685D01*
G37*
%TD.AperFunction*%
%TD*%
%TA.AperFunction,Conductor*%
%TO.N,+12V*%
G36*
X23630000Y-40970000D02*
G01*
X23420000Y-40970000D01*
X23420000Y-42490000D01*
X19083912Y-42490000D01*
X19016873Y-42470315D01*
X18971118Y-42417511D01*
X18959912Y-42366088D01*
X18950089Y-28594088D01*
X18969726Y-28527035D01*
X19022497Y-28481242D01*
X19074089Y-28470000D01*
X23630000Y-28470000D01*
X23630000Y-40970000D01*
G37*
%TD.AperFunction*%
%TD*%
%TA.AperFunction,Conductor*%
%TO.N,+5V*%
G36*
X37476747Y-40179297D02*
G01*
X37477590Y-40176703D01*
X37486872Y-40179718D01*
X37486874Y-40179719D01*
X37496263Y-40181206D01*
X37586507Y-40195500D01*
X37586512Y-40195500D01*
X38153493Y-40195500D01*
X38224658Y-40184227D01*
X38253126Y-40179719D01*
X38253129Y-40179717D01*
X38262410Y-40176703D01*
X38263252Y-40179297D01*
X38301971Y-40170000D01*
X38420000Y-40170000D01*
X38420000Y-42070000D01*
X38420000Y-42796000D01*
X38400315Y-42863039D01*
X38347511Y-42908794D01*
X38296000Y-42920000D01*
X29570000Y-42920000D01*
X29570000Y-40294000D01*
X29589685Y-40226961D01*
X29642489Y-40181206D01*
X29694000Y-40170000D01*
X37438029Y-40170000D01*
X37476747Y-40179297D01*
G37*
%TD.AperFunction*%
%TD*%
%TA.AperFunction,Conductor*%
%TO.N,+12V*%
G36*
X25413039Y-40989685D02*
G01*
X25458794Y-41042489D01*
X25470000Y-41094000D01*
X25470000Y-42396000D01*
X25450315Y-42463039D01*
X25397511Y-42508794D01*
X25346000Y-42520000D01*
X23501362Y-42520000D01*
X23434323Y-42500315D01*
X23421523Y-42490000D01*
X23420000Y-42490000D01*
X23420000Y-40970000D01*
X23630000Y-40970000D01*
X25346000Y-40970000D01*
X25413039Y-40989685D01*
G37*
%TD.AperFunction*%
%TD*%
%TA.AperFunction,Conductor*%
%TO.N,/D*%
G36*
X51870000Y-30605000D02*
G01*
X51870000Y-31076000D01*
X51850315Y-31143039D01*
X51797511Y-31188794D01*
X51746000Y-31200000D01*
X44070000Y-31200000D01*
X44070000Y-29310000D01*
X44091880Y-29310000D01*
X44105004Y-29302834D01*
X44131362Y-29300000D01*
X50055000Y-29300000D01*
X51870000Y-29300000D01*
X51870000Y-30605000D01*
G37*
%TD.AperFunction*%
%TD*%
%TA.AperFunction,Conductor*%
%TO.N,Net-(C13-Pad2)*%
G36*
X68805000Y-30580000D02*
G01*
X62609500Y-30580000D01*
X62542461Y-30560315D01*
X62496706Y-30507511D01*
X62485500Y-30456000D01*
X62485500Y-27429010D01*
X62485500Y-27429000D01*
X62484237Y-27417255D01*
X62496641Y-27348498D01*
X62544251Y-27297359D01*
X62607526Y-27280000D01*
X66440000Y-27280000D01*
X68805000Y-27280000D01*
X68805000Y-30580000D01*
G37*
%TD.AperFunction*%
%TD*%
%TA.AperFunction,Conductor*%
%TO.N,Net-(C12-Pad1)*%
G36*
X71183039Y-37599685D02*
G01*
X71228794Y-37652489D01*
X71240000Y-37704000D01*
X71240000Y-41491000D01*
X71220315Y-41558039D01*
X71167511Y-41603794D01*
X71116000Y-41615000D01*
X63629000Y-41615000D01*
X63561961Y-41595315D01*
X63516206Y-41542511D01*
X63505000Y-41491000D01*
X63505000Y-37704000D01*
X63524685Y-37636961D01*
X63577489Y-37591206D01*
X63629000Y-37580000D01*
X71116000Y-37580000D01*
X71183039Y-37599685D01*
G37*
%TD.AperFunction*%
%TD*%
%TA.AperFunction,Conductor*%
%TO.N,Net-(C13-Pad2)*%
G36*
X71183039Y-27189685D02*
G01*
X71228794Y-27242489D01*
X71240000Y-27294000D01*
X71240000Y-30871000D01*
X71220315Y-30938039D01*
X71167511Y-30983794D01*
X71116000Y-30995000D01*
X66564000Y-30995000D01*
X66496961Y-30975315D01*
X66451206Y-30922511D01*
X66440000Y-30871000D01*
X66440000Y-30580000D01*
X66440000Y-27280000D01*
X66445819Y-27274180D01*
X66459685Y-27226961D01*
X66512489Y-27181206D01*
X66564000Y-27170000D01*
X71116000Y-27170000D01*
X71183039Y-27189685D01*
G37*
%TD.AperFunction*%
%TD*%
%TA.AperFunction,Conductor*%
%TO.N,/RF_OUT*%
G36*
X61623334Y-51909180D02*
G01*
X61667681Y-51937681D01*
X64817319Y-55087319D01*
X64850804Y-55148642D01*
X64845820Y-55218334D01*
X64817319Y-55262681D01*
X62292681Y-57787319D01*
X62231358Y-57820804D01*
X62161666Y-57815820D01*
X62117319Y-57787319D01*
X58967681Y-54637681D01*
X58934196Y-54576358D01*
X58939180Y-54506666D01*
X58967681Y-54462319D01*
X61492319Y-51937681D01*
X61553642Y-51904196D01*
X61623334Y-51909180D01*
G37*
%TD.AperFunction*%
%TD*%
%TA.AperFunction,Conductor*%
%TO.N,/D*%
G36*
X49810000Y-30240000D02*
G01*
X49812704Y-31200000D01*
X49819173Y-33496528D01*
X49819650Y-33665780D01*
X49800154Y-33732874D01*
X49747479Y-33778778D01*
X49695779Y-33790129D01*
X49152649Y-33790695D01*
X49139569Y-33790017D01*
X49134646Y-33789500D01*
X48945354Y-33789500D01*
X48945353Y-33789500D01*
X48938899Y-33790178D01*
X48938833Y-33789556D01*
X48925721Y-33790931D01*
X47797130Y-33792108D01*
X47771222Y-33789399D01*
X47724647Y-33779500D01*
X47724646Y-33779500D01*
X47535354Y-33779500D01*
X47535352Y-33779500D01*
X47487129Y-33789749D01*
X47461480Y-33792458D01*
X46490583Y-33793471D01*
X46464674Y-33790761D01*
X46364646Y-33769500D01*
X46175354Y-33769500D01*
X46073150Y-33791224D01*
X46047499Y-33793933D01*
X45160000Y-33794859D01*
X45025000Y-33795000D01*
X45015000Y-30235000D01*
X49810000Y-30240000D01*
G37*
%TD.AperFunction*%
%TD*%
%TA.AperFunction,Conductor*%
%TO.N,Net-(C5-Pad1)*%
G36*
X60343039Y-36169685D02*
G01*
X60388794Y-36222489D01*
X60400000Y-36274000D01*
X60400000Y-39326000D01*
X60380315Y-39393039D01*
X60327511Y-39438794D01*
X60276000Y-39450000D01*
X50070000Y-39450000D01*
X50070000Y-39428119D01*
X50062834Y-39414996D01*
X50060000Y-39388638D01*
X50060000Y-36274000D01*
X50079685Y-36206961D01*
X50132489Y-36161206D01*
X50184000Y-36150000D01*
X60276000Y-36150000D01*
X60343039Y-36169685D01*
G37*
%TD.AperFunction*%
%TD*%
%TA.AperFunction,Conductor*%
%TO.N,Net-(C5-Pad1)*%
G36*
X54680000Y-39450000D02*
G01*
X54680000Y-41436000D01*
X54660315Y-41503039D01*
X54607511Y-41548794D01*
X54556000Y-41560000D01*
X50194000Y-41560000D01*
X50126961Y-41540315D01*
X50081206Y-41487511D01*
X50070000Y-41436000D01*
X50070000Y-39428119D01*
X50070000Y-38990000D01*
X54680000Y-38990000D01*
X54680000Y-39450000D01*
G37*
%TD.AperFunction*%
%TD*%
%TA.AperFunction,Conductor*%
%TO.N,/D*%
G36*
X61923039Y-27324685D02*
G01*
X61968794Y-27377489D01*
X61980000Y-27429000D01*
X61980000Y-30481000D01*
X61960315Y-30548039D01*
X61907511Y-30593794D01*
X61856000Y-30605000D01*
X50055000Y-30605000D01*
X50055000Y-27429000D01*
X50074685Y-27361961D01*
X50127489Y-27316206D01*
X50179000Y-27305000D01*
X61856000Y-27305000D01*
X61923039Y-27324685D01*
G37*
%TD.AperFunction*%
%TD*%
%TA.AperFunction,Conductor*%
%TO.N,/G*%
G36*
X44253039Y-35879685D02*
G01*
X44298794Y-35932489D01*
X44310000Y-35984000D01*
X44310000Y-42616000D01*
X44290315Y-42683039D01*
X44237511Y-42728794D01*
X44186000Y-42740000D01*
X42554000Y-42740000D01*
X42486961Y-42720315D01*
X42441206Y-42667511D01*
X42430000Y-42616000D01*
X42430000Y-35984000D01*
X42449685Y-35916961D01*
X42502489Y-35871206D01*
X42554000Y-35860000D01*
X43098000Y-35860000D01*
X43738000Y-35860000D01*
X44186000Y-35860000D01*
X44253039Y-35879685D01*
G37*
%TD.AperFunction*%
%TD*%
%TA.AperFunction,Conductor*%
%TO.N,/D*%
G36*
X45160000Y-33794859D02*
G01*
X45160000Y-33946000D01*
X45140315Y-34013039D01*
X45087511Y-34058794D01*
X45036000Y-34070000D01*
X43965549Y-34070000D01*
X43930615Y-34064977D01*
X43911961Y-34059500D01*
X43768039Y-34059500D01*
X43749384Y-34064977D01*
X43714451Y-34070000D01*
X40393740Y-34070000D01*
X40326701Y-34050315D01*
X40280946Y-33997511D01*
X40269740Y-33946261D01*
X40260261Y-29434261D01*
X40279805Y-29367180D01*
X40332513Y-29321314D01*
X40384261Y-29310000D01*
X44091880Y-29310000D01*
X45160000Y-29310000D01*
X45160000Y-33794859D01*
G37*
%TD.AperFunction*%
%TD*%
%TA.AperFunction,Conductor*%
%TO.N,Net-(C12-Pad1)*%
G36*
X70055000Y-41615000D02*
G01*
X70055000Y-47091000D01*
X70035315Y-47158039D01*
X69982511Y-47203794D01*
X69931000Y-47215000D01*
X66554000Y-47215000D01*
X66486961Y-47195315D01*
X66441206Y-47142511D01*
X66430000Y-47091000D01*
X66430000Y-41615000D01*
X66430000Y-37605000D01*
X70055000Y-37605000D01*
X70055000Y-41615000D01*
G37*
%TD.AperFunction*%
%TD*%
%TA.AperFunction,Conductor*%
%TO.N,/D*%
G36*
X44595232Y-34863096D02*
G01*
X44583499Y-34877230D01*
X44572305Y-34880000D01*
X44328382Y-34880000D01*
X44311411Y-34872971D01*
X44305211Y-34862253D01*
X44238746Y-34615943D01*
X44238214Y-34605949D01*
X44245492Y-34560000D01*
X44225646Y-34434696D01*
X44225645Y-34434694D01*
X44225645Y-34434693D01*
X44168051Y-34321660D01*
X44168050Y-34321658D01*
X44160645Y-34314253D01*
X44154446Y-34303535D01*
X44091429Y-34070000D01*
X44840714Y-34070000D01*
X44595232Y-34863096D01*
G37*
%TD.AperFunction*%
%TD*%
%TA.AperFunction,Conductor*%
%TO.N,/G*%
G36*
X43505265Y-35397377D02*
G01*
X43544302Y-35444933D01*
X43737999Y-35860000D01*
X43098000Y-35860000D01*
X43322524Y-35439016D01*
X43371440Y-35389129D01*
X43439563Y-35373606D01*
X43505265Y-35397377D01*
G37*
%TD.AperFunction*%
%TD*%
%TA.AperFunction,Conductor*%
%TO.N,GND*%
G36*
X40488098Y-51732006D02*
G01*
X40533501Y-51741038D01*
X40555930Y-51745500D01*
X40555931Y-51745500D01*
X40684069Y-51745500D01*
X41805931Y-51745500D01*
X42005931Y-51745500D01*
X42395500Y-51745500D01*
X42462539Y-51765185D01*
X42508294Y-51817989D01*
X42519500Y-51869500D01*
X42519500Y-53025701D01*
X42522899Y-53068886D01*
X42520988Y-53069036D01*
X42514612Y-53129519D01*
X42470882Y-53184012D01*
X42445170Y-53195977D01*
X42445724Y-53197314D01*
X42438210Y-53200426D01*
X42301291Y-53279475D01*
X42301283Y-53279481D01*
X42244189Y-53336576D01*
X42189481Y-53391284D01*
X42189479Y-53391286D01*
X42114681Y-53466084D01*
X42056365Y-53524400D01*
X41995042Y-53557884D01*
X41925350Y-53552900D01*
X41869417Y-53511028D01*
X41854123Y-53484170D01*
X41846632Y-53466086D01*
X41846631Y-53466084D01*
X41737143Y-53302223D01*
X41737137Y-53302215D01*
X40376227Y-51941305D01*
X40342742Y-51879982D01*
X40347726Y-51810290D01*
X40389598Y-51754357D01*
X40455062Y-51729940D01*
X40488098Y-51732006D01*
G37*
%TD.AperFunction*%
%TA.AperFunction,Conductor*%
G36*
X38979082Y-50122327D02*
G01*
X39049007Y-50142643D01*
X39085310Y-50145500D01*
X39085318Y-50145500D01*
X39495500Y-50145500D01*
X39562539Y-50165185D01*
X39608294Y-50217989D01*
X39619500Y-50269500D01*
X39619500Y-50809070D01*
X39632993Y-50876900D01*
X39626766Y-50946492D01*
X39583904Y-51001670D01*
X39518014Y-51024915D01*
X39450017Y-51008848D01*
X39423695Y-50988774D01*
X38856819Y-50421897D01*
X38823334Y-50360574D01*
X38820500Y-50334216D01*
X38820500Y-50241407D01*
X38840185Y-50174368D01*
X38892989Y-50128613D01*
X38962147Y-50118669D01*
X38979082Y-50122327D01*
G37*
%TD.AperFunction*%
%TA.AperFunction,Conductor*%
G36*
X24466231Y-38315185D02*
G01*
X24486873Y-38331819D01*
X25533181Y-39378127D01*
X25566666Y-39439450D01*
X25569500Y-39465808D01*
X25569500Y-39734069D01*
X25569500Y-39734071D01*
X25569499Y-39734071D01*
X25594497Y-39859738D01*
X25594499Y-39859744D01*
X25643533Y-39978124D01*
X25643538Y-39978133D01*
X25714723Y-40084668D01*
X25714726Y-40084672D01*
X25805327Y-40175273D01*
X25805331Y-40175276D01*
X25910603Y-40245617D01*
X25955408Y-40299229D01*
X25964115Y-40368554D01*
X25933961Y-40431582D01*
X25889165Y-40463280D01*
X25764510Y-40514914D01*
X25764495Y-40514922D01*
X25746243Y-40527117D01*
X25679564Y-40547992D01*
X25625845Y-40536806D01*
X25555465Y-40504664D01*
X25555460Y-40504662D01*
X25555459Y-40504662D01*
X25488420Y-40484977D01*
X25488422Y-40484977D01*
X25488417Y-40484976D01*
X25440944Y-40478150D01*
X25346000Y-40464500D01*
X25345998Y-40464500D01*
X24259500Y-40464500D01*
X24192461Y-40444815D01*
X24146706Y-40392011D01*
X24135500Y-40340500D01*
X24135500Y-38419500D01*
X24155185Y-38352461D01*
X24207989Y-38306706D01*
X24259500Y-38295500D01*
X24399192Y-38295500D01*
X24466231Y-38315185D01*
G37*
%TD.AperFunction*%
%TA.AperFunction,Conductor*%
G36*
X4047751Y-1020185D02*
G01*
X4093506Y-1072989D01*
X4103450Y-1142147D01*
X4074425Y-1205703D01*
X4015647Y-1243477D01*
X4008305Y-1245391D01*
X3868955Y-1277196D01*
X3868953Y-1277197D01*
X3593261Y-1373665D01*
X3330109Y-1500393D01*
X3082795Y-1655791D01*
X2854435Y-1837901D01*
X2647901Y-2044435D01*
X2465791Y-2272795D01*
X2310393Y-2520109D01*
X2183665Y-2783261D01*
X2087197Y-3058953D01*
X2087196Y-3058955D01*
X2022202Y-3343714D01*
X2022199Y-3343728D01*
X1989500Y-3633952D01*
X1989500Y-3926047D01*
X2022199Y-4216271D01*
X2022202Y-4216285D01*
X2087196Y-4501044D01*
X2087197Y-4501046D01*
X2183665Y-4776738D01*
X2310393Y-5039890D01*
X2310395Y-5039893D01*
X2465792Y-5287206D01*
X2647902Y-5515565D01*
X2854435Y-5722098D01*
X3082794Y-5904208D01*
X3330107Y-6059605D01*
X3593263Y-6186335D01*
X3868955Y-6282803D01*
X4153714Y-6347798D01*
X4153723Y-6347799D01*
X4153728Y-6347800D01*
X4347210Y-6369599D01*
X4443953Y-6380499D01*
X4443956Y-6380500D01*
X4443959Y-6380500D01*
X4736044Y-6380500D01*
X4736045Y-6380499D01*
X4884371Y-6363787D01*
X5026271Y-6347800D01*
X5026274Y-6347799D01*
X5026286Y-6347798D01*
X5311045Y-6282803D01*
X5586737Y-6186335D01*
X5849893Y-6059605D01*
X6097206Y-5904208D01*
X6325565Y-5722098D01*
X6532098Y-5515565D01*
X6714208Y-5287206D01*
X6869605Y-5039893D01*
X6996335Y-4776737D01*
X7092803Y-4501045D01*
X7157798Y-4216286D01*
X7190500Y-3926041D01*
X7190500Y-3633959D01*
X7157798Y-3343714D01*
X7092803Y-3058955D01*
X6996335Y-2783263D01*
X6869605Y-2520107D01*
X6714208Y-2272794D01*
X6532098Y-2044435D01*
X6325565Y-1837902D01*
X6097206Y-1655792D01*
X5849893Y-1500395D01*
X5849890Y-1500393D01*
X5586738Y-1373665D01*
X5311046Y-1277197D01*
X5311044Y-1277196D01*
X5171695Y-1245391D01*
X5110717Y-1211282D01*
X5077859Y-1149621D01*
X5083554Y-1079984D01*
X5125994Y-1024480D01*
X5191704Y-1000732D01*
X5199288Y-1000500D01*
X83980712Y-1000500D01*
X84047751Y-1020185D01*
X84093506Y-1072989D01*
X84103450Y-1142147D01*
X84074425Y-1205703D01*
X84015647Y-1243477D01*
X84008305Y-1245391D01*
X83868955Y-1277196D01*
X83868953Y-1277197D01*
X83593261Y-1373665D01*
X83330109Y-1500393D01*
X83082795Y-1655791D01*
X82854435Y-1837901D01*
X82647901Y-2044435D01*
X82465791Y-2272795D01*
X82310393Y-2520109D01*
X82183665Y-2783261D01*
X82087197Y-3058953D01*
X82087196Y-3058955D01*
X82022202Y-3343714D01*
X82022199Y-3343728D01*
X81989500Y-3633952D01*
X81989500Y-3926047D01*
X82022199Y-4216271D01*
X82022202Y-4216285D01*
X82087196Y-4501044D01*
X82087197Y-4501046D01*
X82183665Y-4776738D01*
X82310393Y-5039890D01*
X82310395Y-5039893D01*
X82465792Y-5287206D01*
X82647902Y-5515565D01*
X82854435Y-5722098D01*
X83082794Y-5904208D01*
X83330107Y-6059605D01*
X83593263Y-6186335D01*
X83868955Y-6282803D01*
X84153714Y-6347798D01*
X84153723Y-6347799D01*
X84153728Y-6347800D01*
X84347210Y-6369599D01*
X84443953Y-6380499D01*
X84443956Y-6380500D01*
X84443959Y-6380500D01*
X84736044Y-6380500D01*
X84736045Y-6380499D01*
X84884371Y-6363787D01*
X85026271Y-6347800D01*
X85026274Y-6347799D01*
X85026286Y-6347798D01*
X85311045Y-6282803D01*
X85586737Y-6186335D01*
X85849893Y-6059605D01*
X86097206Y-5904208D01*
X86325565Y-5722098D01*
X86532098Y-5515565D01*
X86714208Y-5287206D01*
X86869605Y-5039893D01*
X86996335Y-4776737D01*
X87092803Y-4501045D01*
X87157798Y-4216286D01*
X87190500Y-3926041D01*
X87190500Y-3633959D01*
X87157798Y-3343714D01*
X87092803Y-3058955D01*
X86996335Y-2783263D01*
X86869605Y-2520107D01*
X86714208Y-2272794D01*
X86532098Y-2044435D01*
X86325565Y-1837902D01*
X86097206Y-1655792D01*
X85849893Y-1500395D01*
X85849890Y-1500393D01*
X85586738Y-1373665D01*
X85311046Y-1277197D01*
X85311044Y-1277196D01*
X85171695Y-1245391D01*
X85110717Y-1211282D01*
X85077859Y-1149621D01*
X85083554Y-1079984D01*
X85125994Y-1024480D01*
X85191704Y-1000732D01*
X85199288Y-1000500D01*
X87880500Y-1000500D01*
X87947539Y-1020185D01*
X87993294Y-1072989D01*
X88004500Y-1124500D01*
X88004500Y-87875500D01*
X87984815Y-87942539D01*
X87932011Y-87988294D01*
X87880500Y-87999500D01*
X1129500Y-87999500D01*
X1062461Y-87979815D01*
X1016706Y-87927011D01*
X1005500Y-87875500D01*
X1005500Y-84926047D01*
X1989500Y-84926047D01*
X2022199Y-85216271D01*
X2022202Y-85216285D01*
X2087196Y-85501044D01*
X2087197Y-85501046D01*
X2183665Y-85776738D01*
X2310393Y-86039890D01*
X2310395Y-86039893D01*
X2465792Y-86287206D01*
X2647902Y-86515565D01*
X2854435Y-86722098D01*
X3082794Y-86904208D01*
X3330107Y-87059605D01*
X3593263Y-87186335D01*
X3868955Y-87282803D01*
X4153714Y-87347798D01*
X4153723Y-87347799D01*
X4153728Y-87347800D01*
X4347210Y-87369599D01*
X4443953Y-87380499D01*
X4443956Y-87380500D01*
X4443959Y-87380500D01*
X4736044Y-87380500D01*
X4736045Y-87380499D01*
X4884371Y-87363787D01*
X5026271Y-87347800D01*
X5026274Y-87347799D01*
X5026286Y-87347798D01*
X5311045Y-87282803D01*
X5586737Y-87186335D01*
X5849893Y-87059605D01*
X6097206Y-86904208D01*
X6325565Y-86722098D01*
X6532098Y-86515565D01*
X6714208Y-86287206D01*
X6869605Y-86039893D01*
X6996335Y-85776737D01*
X7092803Y-85501045D01*
X7157798Y-85216286D01*
X7190499Y-84926047D01*
X81989500Y-84926047D01*
X82022199Y-85216271D01*
X82022202Y-85216285D01*
X82087196Y-85501044D01*
X82087197Y-85501046D01*
X82183665Y-85776738D01*
X82310393Y-86039890D01*
X82310395Y-86039893D01*
X82465792Y-86287206D01*
X82647902Y-86515565D01*
X82854435Y-86722098D01*
X83082794Y-86904208D01*
X83330107Y-87059605D01*
X83593263Y-87186335D01*
X83868955Y-87282803D01*
X84153714Y-87347798D01*
X84153723Y-87347799D01*
X84153728Y-87347800D01*
X84347210Y-87369599D01*
X84443953Y-87380499D01*
X84443956Y-87380500D01*
X84443959Y-87380500D01*
X84736044Y-87380500D01*
X84736045Y-87380499D01*
X84884371Y-87363787D01*
X85026271Y-87347800D01*
X85026274Y-87347799D01*
X85026286Y-87347798D01*
X85311045Y-87282803D01*
X85586737Y-87186335D01*
X85849893Y-87059605D01*
X86097206Y-86904208D01*
X86325565Y-86722098D01*
X86532098Y-86515565D01*
X86714208Y-86287206D01*
X86869605Y-86039893D01*
X86996335Y-85776737D01*
X87092803Y-85501045D01*
X87157798Y-85216286D01*
X87190500Y-84926041D01*
X87190500Y-84633959D01*
X87157798Y-84343714D01*
X87092803Y-84058955D01*
X86996335Y-83783263D01*
X86869605Y-83520107D01*
X86714208Y-83272794D01*
X86532098Y-83044435D01*
X86325565Y-82837902D01*
X86097206Y-82655792D01*
X85849893Y-82500395D01*
X85849890Y-82500393D01*
X85586738Y-82373665D01*
X85311046Y-82277197D01*
X85311044Y-82277196D01*
X85091280Y-82227036D01*
X85026286Y-82212202D01*
X85026283Y-82212201D01*
X85026271Y-82212199D01*
X84736047Y-82179500D01*
X84736041Y-82179500D01*
X84443959Y-82179500D01*
X84443952Y-82179500D01*
X84153728Y-82212199D01*
X84153714Y-82212202D01*
X83868955Y-82277196D01*
X83868953Y-82277197D01*
X83593261Y-82373665D01*
X83330109Y-82500393D01*
X83082795Y-82655791D01*
X82854435Y-82837901D01*
X82647901Y-83044435D01*
X82465791Y-83272795D01*
X82310393Y-83520109D01*
X82183665Y-83783261D01*
X82087197Y-84058953D01*
X82087196Y-84058955D01*
X82022202Y-84343714D01*
X82022199Y-84343728D01*
X81989500Y-84633952D01*
X81989500Y-84926047D01*
X7190499Y-84926047D01*
X7190500Y-84926041D01*
X7190500Y-84633959D01*
X7157798Y-84343714D01*
X7092803Y-84058955D01*
X6996335Y-83783263D01*
X6869605Y-83520107D01*
X6714208Y-83272794D01*
X6532098Y-83044435D01*
X6325565Y-82837902D01*
X6097206Y-82655792D01*
X5849893Y-82500395D01*
X5849890Y-82500393D01*
X5586738Y-82373665D01*
X5311046Y-82277197D01*
X5311044Y-82277196D01*
X5091280Y-82227036D01*
X5026286Y-82212202D01*
X5026283Y-82212201D01*
X5026271Y-82212199D01*
X4736047Y-82179500D01*
X4736041Y-82179500D01*
X4443959Y-82179500D01*
X4443952Y-82179500D01*
X4153728Y-82212199D01*
X4153714Y-82212202D01*
X3868955Y-82277196D01*
X3868953Y-82277197D01*
X3593261Y-82373665D01*
X3330109Y-82500393D01*
X3082795Y-82655791D01*
X2854435Y-82837901D01*
X2647901Y-83044435D01*
X2465791Y-83272795D01*
X2310393Y-83520109D01*
X2183665Y-83783261D01*
X2087197Y-84058953D01*
X2087196Y-84058955D01*
X2022202Y-84343714D01*
X2022199Y-84343728D01*
X1989500Y-84633952D01*
X1989500Y-84926047D01*
X1005500Y-84926047D01*
X1005500Y-41446047D01*
X1989500Y-41446047D01*
X2022199Y-41736271D01*
X2022201Y-41736283D01*
X2022202Y-41736286D01*
X2025904Y-41752504D01*
X2087196Y-42021044D01*
X2087197Y-42021046D01*
X2183665Y-42296738D01*
X2310393Y-42559890D01*
X2324695Y-42582651D01*
X2465792Y-42807206D01*
X2536259Y-42895569D01*
X2639874Y-43025499D01*
X2647902Y-43035565D01*
X2854435Y-43242098D01*
X3082794Y-43424208D01*
X3330107Y-43579605D01*
X3593263Y-43706335D01*
X3868955Y-43802803D01*
X4153714Y-43867798D01*
X4153723Y-43867799D01*
X4153728Y-43867800D01*
X4347210Y-43889599D01*
X4443953Y-43900499D01*
X4443956Y-43900500D01*
X4443959Y-43900500D01*
X4736044Y-43900500D01*
X4736045Y-43900499D01*
X4884371Y-43883787D01*
X5026271Y-43867800D01*
X5026274Y-43867799D01*
X5026286Y-43867798D01*
X5311045Y-43802803D01*
X5586737Y-43706335D01*
X5849893Y-43579605D01*
X6097206Y-43424208D01*
X6325565Y-43242098D01*
X6532098Y-43035565D01*
X6714208Y-42807206D01*
X6869605Y-42559893D01*
X6996335Y-42296737D01*
X7092803Y-42021045D01*
X7157798Y-41736286D01*
X7159134Y-41724435D01*
X7175585Y-41578416D01*
X7190500Y-41446041D01*
X7190500Y-41153959D01*
X7179599Y-41057210D01*
X7157800Y-40863728D01*
X7157799Y-40863723D01*
X7157798Y-40863714D01*
X7092803Y-40578955D01*
X6996335Y-40303263D01*
X6923288Y-40151580D01*
X6869606Y-40040109D01*
X6830660Y-39978127D01*
X6714208Y-39792794D01*
X6532098Y-39564435D01*
X6325565Y-39357902D01*
X6097206Y-39175792D01*
X5849893Y-39020395D01*
X5849890Y-39020393D01*
X5586738Y-38893665D01*
X5311046Y-38797197D01*
X5311044Y-38797196D01*
X5091280Y-38747036D01*
X5026286Y-38732202D01*
X5026283Y-38732201D01*
X5026271Y-38732199D01*
X4736047Y-38699500D01*
X4736041Y-38699500D01*
X4443959Y-38699500D01*
X4443952Y-38699500D01*
X4153728Y-38732199D01*
X4153714Y-38732202D01*
X3868955Y-38797196D01*
X3868953Y-38797197D01*
X3593261Y-38893665D01*
X3330109Y-39020393D01*
X3082795Y-39175791D01*
X2854435Y-39357901D01*
X2647901Y-39564435D01*
X2465791Y-39792795D01*
X2310393Y-40040109D01*
X2183665Y-40303261D01*
X2087197Y-40578953D01*
X2087196Y-40578955D01*
X2022202Y-40863714D01*
X2022199Y-40863728D01*
X1989500Y-41153952D01*
X1989500Y-41446047D01*
X1005500Y-41446047D01*
X1005500Y-16570006D01*
X13924467Y-16570006D01*
X13944587Y-17043673D01*
X14004810Y-17513961D01*
X14104696Y-17977432D01*
X14104698Y-17977440D01*
X14243527Y-18430765D01*
X14243529Y-18430770D01*
X14420298Y-18870677D01*
X14420302Y-18870688D01*
X14633741Y-19294018D01*
X14633751Y-19294036D01*
X14882332Y-19697758D01*
X15164256Y-20078944D01*
X15164261Y-20078949D01*
X15164262Y-20078951D01*
X15477489Y-20434846D01*
X15819788Y-20762913D01*
X15819790Y-20762914D01*
X16188654Y-21060751D01*
X16188655Y-21060752D01*
X16339322Y-21162584D01*
X16581464Y-21326244D01*
X16765423Y-21429009D01*
X16995362Y-21557462D01*
X16995384Y-21557473D01*
X17427391Y-21752752D01*
X17427398Y-21752755D01*
X17874429Y-21910701D01*
X18333244Y-22030167D01*
X18800538Y-22110293D01*
X18946774Y-22122739D01*
X19272924Y-22150499D01*
X19272941Y-22150499D01*
X19272943Y-22150500D01*
X19272944Y-22150500D01*
X19747056Y-22150500D01*
X19747057Y-22150500D01*
X19747058Y-22150499D01*
X19747075Y-22150499D01*
X20028242Y-22126567D01*
X20219462Y-22110293D01*
X20686756Y-22030167D01*
X21145571Y-21910701D01*
X21592602Y-21752755D01*
X22024628Y-21557467D01*
X22438536Y-21326244D01*
X22831343Y-21060753D01*
X23200209Y-20762914D01*
X23200211Y-20762913D01*
X23200215Y-20762908D01*
X23200220Y-20762905D01*
X23542510Y-20434847D01*
X23557709Y-20417577D01*
X23616776Y-20380257D01*
X23650793Y-20375500D01*
X27810500Y-20375500D01*
X27877539Y-20395185D01*
X27923294Y-20447989D01*
X27934500Y-20499500D01*
X27934500Y-27840500D01*
X27914815Y-27907539D01*
X27862011Y-27953294D01*
X27810500Y-27964500D01*
X19074089Y-27964500D01*
X18966466Y-27976089D01*
X18914881Y-27987329D01*
X18914879Y-27987330D01*
X18812171Y-28021575D01*
X18796511Y-28031656D01*
X18691189Y-28099449D01*
X18638413Y-28145245D01*
X18544280Y-28254040D01*
X18544277Y-28254043D01*
X18484604Y-28384956D01*
X18484598Y-28384974D01*
X18465283Y-28450926D01*
X18464973Y-28451950D01*
X18444589Y-28594439D01*
X18444589Y-28594444D01*
X18454411Y-42366452D01*
X18466002Y-42473714D01*
X18466004Y-42473726D01*
X18477209Y-42525144D01*
X18511298Y-42627502D01*
X18511299Y-42627505D01*
X18589082Y-42748537D01*
X18589091Y-42748548D01*
X18634835Y-42801340D01*
X18634838Y-42801343D01*
X18634842Y-42801347D01*
X18743576Y-42895567D01*
X18743579Y-42895568D01*
X18743580Y-42895569D01*
X18837408Y-42938420D01*
X18874453Y-42955338D01*
X18941492Y-42975023D01*
X18941496Y-42975024D01*
X19083912Y-42995500D01*
X23308681Y-42995500D01*
X23343619Y-43000524D01*
X23355600Y-43004041D01*
X23358942Y-43005023D01*
X23358946Y-43005024D01*
X23501362Y-43025500D01*
X23501365Y-43025500D01*
X25345990Y-43025500D01*
X25346000Y-43025500D01*
X25432246Y-43016227D01*
X25501004Y-43028632D01*
X25552141Y-43076242D01*
X25569500Y-43139516D01*
X25569500Y-46817870D01*
X25569501Y-46817876D01*
X25575908Y-46877483D01*
X25626202Y-47012328D01*
X25626206Y-47012335D01*
X25712452Y-47127544D01*
X25712455Y-47127547D01*
X25827664Y-47213793D01*
X25827671Y-47213797D01*
X25962517Y-47264091D01*
X25962516Y-47264091D01*
X25969444Y-47264835D01*
X26022127Y-47270500D01*
X27617872Y-47270499D01*
X27677483Y-47264091D01*
X27812331Y-47213796D01*
X27927546Y-47127546D01*
X28013796Y-47012331D01*
X28064091Y-46877483D01*
X28070500Y-46817873D01*
X28070499Y-42522128D01*
X28064091Y-42462517D01*
X28048233Y-42420000D01*
X28013797Y-42327671D01*
X28013793Y-42327664D01*
X27927547Y-42212455D01*
X27927544Y-42212452D01*
X27812335Y-42126206D01*
X27812328Y-42126202D01*
X27677482Y-42075908D01*
X27677483Y-42075908D01*
X27617883Y-42069501D01*
X27617881Y-42069500D01*
X27617873Y-42069500D01*
X27617865Y-42069500D01*
X27494500Y-42069500D01*
X27427461Y-42049815D01*
X27381706Y-41997011D01*
X27370500Y-41945500D01*
X27370500Y-41751625D01*
X27373518Y-41724435D01*
X27374798Y-41718740D01*
X27388545Y-41543462D01*
X27393645Y-41478440D01*
X27393998Y-41472488D01*
X27394779Y-41459373D01*
X27380084Y-41316245D01*
X27378279Y-41309029D01*
X27374797Y-41296155D01*
X27370500Y-41263791D01*
X27370500Y-41105928D01*
X27345502Y-40980261D01*
X27345501Y-40980260D01*
X27345501Y-40980256D01*
X27307574Y-40888692D01*
X27296466Y-40861875D01*
X27296461Y-40861866D01*
X27225276Y-40755331D01*
X27225273Y-40755327D01*
X27134672Y-40664726D01*
X27134668Y-40664723D01*
X27028133Y-40593538D01*
X27028124Y-40593533D01*
X26909744Y-40544499D01*
X26909738Y-40544497D01*
X26895257Y-40541617D01*
X26833347Y-40509232D01*
X26798772Y-40448516D01*
X26802512Y-40378747D01*
X26843379Y-40322075D01*
X26895257Y-40298383D01*
X26903784Y-40296686D01*
X26909744Y-40295501D01*
X26922547Y-40290197D01*
X26992013Y-40282728D01*
X27017447Y-40290195D01*
X27030256Y-40295501D01*
X27030260Y-40295501D01*
X27030261Y-40295502D01*
X27155928Y-40320500D01*
X27155931Y-40320500D01*
X27284071Y-40320500D01*
X27370733Y-40303261D01*
X27409744Y-40295501D01*
X27528127Y-40246465D01*
X27634669Y-40175276D01*
X27725276Y-40084669D01*
X27796465Y-39978127D01*
X27845501Y-39859744D01*
X27855885Y-39807544D01*
X27870500Y-39734071D01*
X27870500Y-39290533D01*
X27890185Y-39223494D01*
X27942989Y-39177739D01*
X27955489Y-39172829D01*
X28078697Y-39132003D01*
X28223044Y-39042968D01*
X28232319Y-39033693D01*
X28293642Y-39000208D01*
X28363334Y-39005192D01*
X28407681Y-39033693D01*
X28416955Y-39042967D01*
X28416959Y-39042970D01*
X28561294Y-39131998D01*
X28561297Y-39131999D01*
X28561303Y-39132003D01*
X28722292Y-39185349D01*
X28821655Y-39195500D01*
X29368344Y-39195499D01*
X29368352Y-39195498D01*
X29368355Y-39195498D01*
X29422760Y-39189940D01*
X29467708Y-39185349D01*
X29628697Y-39132003D01*
X29773044Y-39042968D01*
X29892968Y-38923044D01*
X29982003Y-38778697D01*
X30035349Y-38617708D01*
X30045500Y-38518345D01*
X30045499Y-37921656D01*
X30035349Y-37822292D01*
X29982003Y-37661303D01*
X29982000Y-37661298D01*
X29981998Y-37661294D01*
X29892970Y-37516959D01*
X29892967Y-37516955D01*
X29773044Y-37397032D01*
X29773040Y-37397029D01*
X29628705Y-37308001D01*
X29628699Y-37307998D01*
X29628697Y-37307997D01*
X29628694Y-37307996D01*
X29467709Y-37254651D01*
X29368346Y-37244500D01*
X28821662Y-37244500D01*
X28821644Y-37244501D01*
X28722292Y-37254650D01*
X28722289Y-37254651D01*
X28561305Y-37307996D01*
X28561294Y-37308001D01*
X28416959Y-37397029D01*
X28416955Y-37397032D01*
X28407681Y-37406307D01*
X28346358Y-37439792D01*
X28276666Y-37434808D01*
X28232319Y-37406307D01*
X28223044Y-37397032D01*
X28223040Y-37397029D01*
X28078705Y-37308001D01*
X28078699Y-37307998D01*
X28078697Y-37307997D01*
X28078694Y-37307996D01*
X27917709Y-37254651D01*
X27818352Y-37244500D01*
X27818345Y-37244500D01*
X27494500Y-37244500D01*
X27427461Y-37224815D01*
X27381706Y-37172011D01*
X27370500Y-37120500D01*
X27370500Y-35955928D01*
X27345502Y-35830261D01*
X27345501Y-35830260D01*
X27345501Y-35830256D01*
X27296465Y-35711873D01*
X27296464Y-35711872D01*
X27296461Y-35711866D01*
X27225277Y-35605332D01*
X27186750Y-35566805D01*
X27134669Y-35514724D01*
X26982081Y-35362136D01*
X26823526Y-35203580D01*
X26790041Y-35142257D01*
X26787589Y-35106171D01*
X26789246Y-35085109D01*
X26790500Y-35069181D01*
X26790499Y-34670820D01*
X26787665Y-34634796D01*
X26742869Y-34480607D01*
X26661135Y-34342402D01*
X26661133Y-34342400D01*
X26661130Y-34342396D01*
X26547603Y-34228869D01*
X26547595Y-34228863D01*
X26409393Y-34147131D01*
X26409388Y-34147129D01*
X26255208Y-34102335D01*
X26255202Y-34102334D01*
X26219181Y-34099500D01*
X25720830Y-34099500D01*
X25720803Y-34099502D01*
X25691871Y-34101778D01*
X25623495Y-34087412D01*
X25573740Y-34038358D01*
X25558403Y-33970193D01*
X25582355Y-33904556D01*
X25594453Y-33890492D01*
X25718129Y-33766816D01*
X25779450Y-33733334D01*
X25805808Y-33730500D01*
X26689192Y-33730500D01*
X26756231Y-33750185D01*
X26776872Y-33766818D01*
X30635331Y-37625277D01*
X30662290Y-37643290D01*
X30689244Y-37661300D01*
X30689246Y-37661301D01*
X30689249Y-37661303D01*
X30741873Y-37696465D01*
X30860256Y-37745501D01*
X30860260Y-37745501D01*
X30860261Y-37745502D01*
X30985928Y-37770500D01*
X30985931Y-37770500D01*
X36454648Y-37770500D01*
X36521687Y-37790185D01*
X36542329Y-37806819D01*
X38033181Y-39297671D01*
X38066666Y-39358994D01*
X38069500Y-39385352D01*
X38069500Y-39566000D01*
X38049815Y-39633039D01*
X37997011Y-39678794D01*
X37945500Y-39690000D01*
X37636058Y-39690000D01*
X37616660Y-39688473D01*
X37597651Y-39685462D01*
X37585789Y-39683583D01*
X37575397Y-39681477D01*
X37563817Y-39678610D01*
X37560655Y-39678520D01*
X37549632Y-39677711D01*
X37438033Y-39664500D01*
X37438029Y-39664500D01*
X29694000Y-39664500D01*
X29693991Y-39664500D01*
X29693990Y-39664501D01*
X29586549Y-39676052D01*
X29586537Y-39676054D01*
X29535027Y-39687260D01*
X29432502Y-39721383D01*
X29432496Y-39721386D01*
X29311462Y-39799171D01*
X29311451Y-39799179D01*
X29258659Y-39844923D01*
X29164433Y-39953664D01*
X29164430Y-39953668D01*
X29104664Y-40084534D01*
X29084976Y-40151582D01*
X29064500Y-40294001D01*
X29064500Y-46675306D01*
X29076354Y-46784139D01*
X29087848Y-46836276D01*
X29087848Y-46836277D01*
X29119133Y-46928982D01*
X29122847Y-46939987D01*
X29122849Y-46939990D01*
X29122850Y-46939992D01*
X29189254Y-47042069D01*
X29201305Y-47060593D01*
X29247352Y-47113142D01*
X29247354Y-47113144D01*
X29356613Y-47206760D01*
X29487821Y-47265802D01*
X29521395Y-47275458D01*
X29554963Y-47285113D01*
X29554967Y-47285113D01*
X29554969Y-47285114D01*
X29554970Y-47285114D01*
X29563085Y-47286257D01*
X29563412Y-47286280D01*
X29697497Y-47304799D01*
X31249497Y-47296177D01*
X31355516Y-47284332D01*
X31392535Y-47276170D01*
X31406321Y-47273132D01*
X31406324Y-47273130D01*
X31406338Y-47273128D01*
X31507504Y-47239300D01*
X31628543Y-47161512D01*
X31681347Y-47115757D01*
X31775567Y-47007023D01*
X31835338Y-46876146D01*
X31855023Y-46809107D01*
X31855024Y-46809103D01*
X31875500Y-46666687D01*
X31875500Y-43549500D01*
X31895185Y-43482461D01*
X31947989Y-43436706D01*
X31999500Y-43425500D01*
X36695500Y-43425500D01*
X36762539Y-43445185D01*
X36808294Y-43497989D01*
X36819500Y-43549500D01*
X36819500Y-50898542D01*
X36834435Y-50973624D01*
X36834435Y-50973625D01*
X36849812Y-51050931D01*
X36857947Y-51091829D01*
X36857949Y-51091837D01*
X36933364Y-51273907D01*
X36933371Y-51273920D01*
X37042859Y-51437780D01*
X37042860Y-51437781D01*
X37042861Y-51437782D01*
X37182218Y-51577139D01*
X37182219Y-51577139D01*
X37189286Y-51584206D01*
X37189285Y-51584206D01*
X37189289Y-51584209D01*
X40322215Y-54717137D01*
X40322219Y-54717140D01*
X40486079Y-54826628D01*
X40486085Y-54826631D01*
X40486086Y-54826632D01*
X40668165Y-54902052D01*
X40832940Y-54934828D01*
X40861455Y-54940500D01*
X40861458Y-54940501D01*
X40932690Y-54940501D01*
X40999729Y-54960186D01*
X41045484Y-55012990D01*
X41055428Y-55082148D01*
X41026403Y-55145704D01*
X41020371Y-55152182D01*
X40789727Y-55382825D01*
X40789721Y-55382832D01*
X40719110Y-55488510D01*
X40719111Y-55488511D01*
X40718534Y-55489374D01*
X40688065Y-55562929D01*
X40661187Y-55603155D01*
X40539529Y-55724813D01*
X40451522Y-55870393D01*
X40400913Y-56032807D01*
X40394500Y-56103386D01*
X40394500Y-56766613D01*
X40400913Y-56837192D01*
X40451522Y-56999606D01*
X40539530Y-57145188D01*
X40659811Y-57265469D01*
X40659813Y-57265470D01*
X40659815Y-57265472D01*
X40805394Y-57353478D01*
X40967804Y-57404086D01*
X41038384Y-57410500D01*
X41038387Y-57410500D01*
X41551613Y-57410500D01*
X41551616Y-57410500D01*
X41622196Y-57404086D01*
X41784606Y-57353478D01*
X41930185Y-57265472D01*
X42050472Y-57145185D01*
X42138478Y-56999606D01*
X42189086Y-56837196D01*
X42195500Y-56766616D01*
X42195500Y-56103384D01*
X42189086Y-56032804D01*
X42189085Y-56032803D01*
X42188492Y-56026270D01*
X42189939Y-56026138D01*
X42195486Y-55964108D01*
X42238345Y-55908928D01*
X42304233Y-55885678D01*
X42310879Y-55885500D01*
X42585686Y-55885500D01*
X42585694Y-55885500D01*
X42622569Y-55882598D01*
X42622571Y-55882597D01*
X42622573Y-55882597D01*
X42664585Y-55870391D01*
X42780398Y-55836744D01*
X42921865Y-55753081D01*
X43038081Y-55636865D01*
X43121744Y-55495398D01*
X43161775Y-55357611D01*
X43167597Y-55337573D01*
X43167598Y-55337567D01*
X43170499Y-55300701D01*
X43170500Y-55300694D01*
X43170500Y-54484500D01*
X43190185Y-54417461D01*
X43242989Y-54371706D01*
X43294500Y-54360500D01*
X43345500Y-54360500D01*
X43412539Y-54380185D01*
X43458294Y-54432989D01*
X43469500Y-54484500D01*
X43469500Y-55300701D01*
X43472401Y-55337567D01*
X43472402Y-55337573D01*
X43518254Y-55495393D01*
X43518255Y-55495396D01*
X43584340Y-55607141D01*
X43601523Y-55674865D01*
X43583725Y-55734411D01*
X43501523Y-55870391D01*
X43501522Y-55870393D01*
X43501522Y-55870394D01*
X43497719Y-55882598D01*
X43450913Y-56032807D01*
X43444500Y-56103386D01*
X43444500Y-56766613D01*
X43450913Y-56837192D01*
X43501522Y-56999606D01*
X43589530Y-57145188D01*
X43633180Y-57188837D01*
X43666666Y-57250160D01*
X43669500Y-57276519D01*
X43669500Y-60015512D01*
X43649815Y-60082551D01*
X43604520Y-60124564D01*
X43570585Y-60142930D01*
X43570581Y-60142932D01*
X43392003Y-60281925D01*
X43238732Y-60448420D01*
X43114962Y-60637866D01*
X43024059Y-60845102D01*
X42968506Y-61064479D01*
X42949820Y-61289993D01*
X42949820Y-61290006D01*
X42968506Y-61515520D01*
X43024059Y-61734897D01*
X43114962Y-61942133D01*
X43238732Y-62131579D01*
X43392004Y-62298076D01*
X43392008Y-62298079D01*
X43570574Y-62437063D01*
X43570581Y-62437067D01*
X43570583Y-62437069D01*
X43769605Y-62544774D01*
X43880746Y-62582929D01*
X43983637Y-62618252D01*
X43983639Y-62618252D01*
X43983641Y-62618253D01*
X44206851Y-62655500D01*
X44206852Y-62655500D01*
X44433148Y-62655500D01*
X44433149Y-62655500D01*
X44656359Y-62618253D01*
X44870395Y-62544774D01*
X45069417Y-62437069D01*
X45247998Y-62298074D01*
X45401265Y-62131582D01*
X45525037Y-61942134D01*
X45615940Y-61734897D01*
X45671493Y-61515524D01*
X45690180Y-61290000D01*
X45690180Y-61289993D01*
X45671493Y-61064479D01*
X45671493Y-61064476D01*
X45615940Y-60845103D01*
X45525037Y-60637866D01*
X45401267Y-60448420D01*
X45381603Y-60427059D01*
X45247998Y-60281926D01*
X45069417Y-60142931D01*
X45035479Y-60124564D01*
X44985891Y-60075346D01*
X44970500Y-60015512D01*
X44970500Y-57326519D01*
X44990185Y-57259480D01*
X45006814Y-57238842D01*
X45100472Y-57145185D01*
X45188478Y-56999606D01*
X45239086Y-56837196D01*
X45245500Y-56766616D01*
X45245500Y-56103384D01*
X45239086Y-56032804D01*
X45188478Y-55870394D01*
X45100472Y-55724815D01*
X45100470Y-55724813D01*
X45100469Y-55724811D01*
X45033757Y-55658099D01*
X45000272Y-55596776D01*
X45005256Y-55527084D01*
X45014705Y-55507300D01*
X45021744Y-55495398D01*
X45067598Y-55337569D01*
X45067598Y-55337558D01*
X45067804Y-55336440D01*
X45068093Y-55335864D01*
X45069366Y-55331485D01*
X45070178Y-55331721D01*
X45099210Y-55274027D01*
X45159374Y-55238501D01*
X45229194Y-55241142D01*
X45253935Y-55252596D01*
X45255394Y-55253478D01*
X45417804Y-55304086D01*
X45488384Y-55310500D01*
X45488387Y-55310500D01*
X46151613Y-55310500D01*
X46151616Y-55310500D01*
X46222196Y-55304086D01*
X46384606Y-55253478D01*
X46530185Y-55165472D01*
X46650472Y-55045185D01*
X46738478Y-54899606D01*
X46789086Y-54737196D01*
X46795500Y-54666616D01*
X46795500Y-54153384D01*
X46789086Y-54082804D01*
X46738478Y-53920394D01*
X46650472Y-53774815D01*
X46650470Y-53774813D01*
X46650469Y-53774811D01*
X46548339Y-53672681D01*
X46514854Y-53611358D01*
X46519838Y-53541666D01*
X46548339Y-53497319D01*
X46650468Y-53395189D01*
X46650469Y-53395188D01*
X46650472Y-53395185D01*
X46738478Y-53249606D01*
X46789086Y-53087196D01*
X46792184Y-53053097D01*
X46817854Y-52988116D01*
X46827986Y-52976647D01*
X48662952Y-51141682D01*
X48722121Y-51053127D01*
X48724025Y-51050278D01*
X48729325Y-51042344D01*
X48745084Y-51018761D01*
X48801658Y-50882179D01*
X48830500Y-50737184D01*
X48830500Y-49850006D01*
X55539820Y-49850006D01*
X55558506Y-50075520D01*
X55614059Y-50294897D01*
X55704962Y-50502133D01*
X55828732Y-50691579D01*
X55982004Y-50858076D01*
X55982008Y-50858079D01*
X56160574Y-50997063D01*
X56160581Y-50997067D01*
X56160583Y-50997069D01*
X56359605Y-51104774D01*
X56467108Y-51141680D01*
X56573637Y-51178252D01*
X56573639Y-51178252D01*
X56573641Y-51178253D01*
X56796851Y-51215500D01*
X56796852Y-51215500D01*
X57023148Y-51215500D01*
X57023149Y-51215500D01*
X57235272Y-51180103D01*
X57304638Y-51188485D01*
X57343363Y-51214731D01*
X59334193Y-53205561D01*
X59367678Y-53266884D01*
X59362694Y-53336576D01*
X59334193Y-53380923D01*
X58610242Y-54104873D01*
X58610225Y-54104891D01*
X58542438Y-54189009D01*
X58542426Y-54189024D01*
X58518457Y-54226320D01*
X58501831Y-54246952D01*
X58483020Y-54265765D01*
X58483007Y-54265780D01*
X58445392Y-54312454D01*
X58385604Y-54443371D01*
X58365123Y-54585827D01*
X58385604Y-54728285D01*
X58445391Y-54859200D01*
X58445393Y-54859202D01*
X58483011Y-54905884D01*
X58483014Y-54905887D01*
X58483019Y-54905893D01*
X60343741Y-56766613D01*
X61874116Y-58296987D01*
X61874120Y-58296990D01*
X61874122Y-58296992D01*
X61920797Y-58334607D01*
X62051714Y-58394395D01*
X62194172Y-58414877D01*
X62336629Y-58394395D01*
X62467545Y-58334607D01*
X62514227Y-58296989D01*
X65276005Y-55535209D01*
X65313625Y-55488527D01*
X65373413Y-55357611D01*
X65393895Y-55215154D01*
X65373413Y-55072696D01*
X65313625Y-54941780D01*
X65313621Y-54941775D01*
X65309547Y-54935179D01*
X65310114Y-54934828D01*
X65295519Y-54909194D01*
X65294470Y-54906380D01*
X65294467Y-54906375D01*
X65260991Y-54845068D01*
X65260987Y-54845062D01*
X65260985Y-54845058D01*
X65174761Y-54729877D01*
X65174756Y-54729872D01*
X65174751Y-54729866D01*
X62025126Y-51580242D01*
X62025108Y-51580225D01*
X61940990Y-51512438D01*
X61940985Y-51512434D01*
X61940983Y-51512433D01*
X61940981Y-51512431D01*
X61896634Y-51483930D01*
X61896635Y-51483930D01*
X61896628Y-51483926D01*
X61799987Y-51435552D01*
X61799986Y-51435551D01*
X61799985Y-51435551D01*
X61799983Y-51435550D01*
X61799976Y-51435548D01*
X61757140Y-51426230D01*
X61731987Y-51417859D01*
X61707303Y-51406586D01*
X61585327Y-51389049D01*
X61564846Y-51386105D01*
X61564845Y-51386105D01*
X61422389Y-51406586D01*
X61291473Y-51466374D01*
X61280763Y-51475005D01*
X61262394Y-51487278D01*
X61257952Y-51489703D01*
X61250055Y-51494016D01*
X61134884Y-51580232D01*
X61134866Y-51580248D01*
X60570922Y-52144192D01*
X60509599Y-52177677D01*
X60439907Y-52172693D01*
X60395560Y-52144192D01*
X58307138Y-50055770D01*
X58273653Y-49994447D01*
X58271243Y-49957848D01*
X58280180Y-49850000D01*
X58261493Y-49624476D01*
X58234444Y-49517663D01*
X58205940Y-49405102D01*
X58115037Y-49197866D01*
X57991267Y-49008420D01*
X57837995Y-48841923D01*
X57837991Y-48841920D01*
X57659425Y-48702936D01*
X57659414Y-48702929D01*
X57460401Y-48595229D01*
X57460398Y-48595228D01*
X57460395Y-48595226D01*
X57460389Y-48595224D01*
X57460387Y-48595223D01*
X57246362Y-48521747D01*
X57078951Y-48493811D01*
X57023149Y-48484500D01*
X56796851Y-48484500D01*
X56752209Y-48491949D01*
X56573637Y-48521747D01*
X56359612Y-48595223D01*
X56359598Y-48595229D01*
X56160585Y-48702929D01*
X56160574Y-48702936D01*
X55982008Y-48841920D01*
X55982004Y-48841923D01*
X55828732Y-49008420D01*
X55704962Y-49197866D01*
X55614059Y-49405102D01*
X55558506Y-49624479D01*
X55539820Y-49849993D01*
X55539820Y-49850006D01*
X48830500Y-49850006D01*
X48830500Y-49812816D01*
X48830500Y-49812813D01*
X48801659Y-49667826D01*
X48801658Y-49667825D01*
X48801658Y-49667821D01*
X48745084Y-49531239D01*
X48700491Y-49464500D01*
X48700491Y-49464499D01*
X48662950Y-49408315D01*
X48577901Y-49323266D01*
X48544416Y-49261943D01*
X48543965Y-49211393D01*
X48550500Y-49178541D01*
X48550500Y-47042069D01*
X48544585Y-47012335D01*
X48543291Y-47005830D01*
X48532479Y-46951473D01*
X48530195Y-46939992D01*
X48512053Y-46848782D01*
X48512052Y-46848775D01*
X48440200Y-46675309D01*
X48436633Y-46666698D01*
X48436628Y-46666689D01*
X48327140Y-46502829D01*
X48327137Y-46502825D01*
X46123599Y-44299289D01*
X46123596Y-44299285D01*
X46123596Y-44299286D01*
X46116529Y-44292219D01*
X46116529Y-44292218D01*
X45977172Y-44152861D01*
X45977171Y-44152860D01*
X45977170Y-44152859D01*
X45813310Y-44043371D01*
X45813301Y-44043366D01*
X45730073Y-44008892D01*
X45684555Y-43990038D01*
X45657890Y-43978993D01*
X45631227Y-43967949D01*
X45631223Y-43967948D01*
X45513335Y-43944499D01*
X45437933Y-43929500D01*
X45437931Y-43929500D01*
X39775783Y-43929500D01*
X39708744Y-43909815D01*
X39688102Y-43893181D01*
X38918078Y-43123157D01*
X38884593Y-43061834D01*
X38886781Y-43000541D01*
X38905023Y-42938420D01*
X38905024Y-42938416D01*
X38925500Y-42796000D01*
X38925500Y-42699500D01*
X38945185Y-42632461D01*
X38997989Y-42586706D01*
X39049500Y-42575500D01*
X41745990Y-42575500D01*
X41746000Y-42575500D01*
X41794866Y-42570246D01*
X41863625Y-42582651D01*
X41914762Y-42630261D01*
X41931410Y-42680277D01*
X41936053Y-42723454D01*
X41936054Y-42723462D01*
X41947260Y-42774972D01*
X41981383Y-42877497D01*
X41981386Y-42877503D01*
X42059171Y-42998537D01*
X42059179Y-42998548D01*
X42104923Y-43051340D01*
X42104926Y-43051343D01*
X42104930Y-43051347D01*
X42213664Y-43145567D01*
X42213667Y-43145568D01*
X42213668Y-43145569D01*
X42307925Y-43188616D01*
X42344541Y-43205338D01*
X42411580Y-43225023D01*
X42411584Y-43225024D01*
X42554000Y-43245500D01*
X42554003Y-43245500D01*
X44185990Y-43245500D01*
X44186000Y-43245500D01*
X44293456Y-43233947D01*
X44344967Y-43222741D01*
X44379197Y-43211347D01*
X44447497Y-43188616D01*
X44447501Y-43188613D01*
X44447504Y-43188613D01*
X44568543Y-43110825D01*
X44621347Y-43065070D01*
X44715567Y-42956336D01*
X44775338Y-42825459D01*
X44795023Y-42758420D01*
X44795024Y-42758416D01*
X44815500Y-42616000D01*
X44815500Y-39388639D01*
X49554500Y-39388639D01*
X49557396Y-39442667D01*
X49557399Y-39442699D01*
X49558790Y-39455642D01*
X49559500Y-39468886D01*
X49559500Y-39497859D01*
X49559501Y-39497871D01*
X49563790Y-39537770D01*
X49564500Y-39551022D01*
X49564500Y-41436000D01*
X49564501Y-41436009D01*
X49576052Y-41543450D01*
X49576054Y-41543462D01*
X49587260Y-41594972D01*
X49621383Y-41697497D01*
X49621386Y-41697503D01*
X49699171Y-41818537D01*
X49699179Y-41818548D01*
X49744923Y-41871340D01*
X49744926Y-41871343D01*
X49744930Y-41871347D01*
X49853664Y-41965567D01*
X49853667Y-41965568D01*
X49853668Y-41965569D01*
X49975140Y-42021045D01*
X49984541Y-42025338D01*
X50051580Y-42045023D01*
X50051584Y-42045024D01*
X50194000Y-42065500D01*
X50194003Y-42065500D01*
X54555990Y-42065500D01*
X54556000Y-42065500D01*
X54663456Y-42053947D01*
X54714967Y-42042741D01*
X54749197Y-42031347D01*
X54817497Y-42008616D01*
X54817501Y-42008613D01*
X54817504Y-42008613D01*
X54938543Y-41930825D01*
X54991347Y-41885070D01*
X55085567Y-41776336D01*
X55145338Y-41645459D01*
X55165023Y-41578420D01*
X55165024Y-41578416D01*
X55177592Y-41491000D01*
X62999500Y-41491000D01*
X62999501Y-41491009D01*
X63011052Y-41598450D01*
X63011054Y-41598462D01*
X63022260Y-41649972D01*
X63056383Y-41752497D01*
X63056386Y-41752503D01*
X63134171Y-41873537D01*
X63134179Y-41873548D01*
X63179923Y-41926340D01*
X63179926Y-41926343D01*
X63179930Y-41926347D01*
X63288664Y-42020567D01*
X63288667Y-42020568D01*
X63288668Y-42020569D01*
X63409840Y-42075908D01*
X63419541Y-42080338D01*
X63486580Y-42100023D01*
X63486584Y-42100024D01*
X63629000Y-42120500D01*
X65700500Y-42120500D01*
X65767539Y-42140185D01*
X65813294Y-42192989D01*
X65824500Y-42244500D01*
X65824500Y-46886920D01*
X65808337Y-46943841D01*
X65809597Y-46944417D01*
X65746586Y-47082389D01*
X65726105Y-47224845D01*
X65746586Y-47367303D01*
X65806373Y-47498218D01*
X65806375Y-47498220D01*
X65843993Y-47544902D01*
X65843996Y-47544905D01*
X65844001Y-47544911D01*
X68684672Y-50385579D01*
X69235098Y-50936005D01*
X69235102Y-50936008D01*
X69235104Y-50936010D01*
X69281779Y-50973625D01*
X69380602Y-51018756D01*
X69412696Y-51033413D01*
X69555154Y-51053895D01*
X69697611Y-51033413D01*
X69828527Y-50973625D01*
X69875209Y-50936007D01*
X72636987Y-48174227D01*
X72674607Y-48127545D01*
X72734395Y-47996629D01*
X72754877Y-47854172D01*
X72734395Y-47711714D01*
X72674668Y-47580931D01*
X72674608Y-47580799D01*
X72668175Y-47572816D01*
X72636989Y-47534116D01*
X72636984Y-47534111D01*
X72636980Y-47534106D01*
X70696819Y-45593946D01*
X70663334Y-45532623D01*
X70660500Y-45506265D01*
X70660500Y-42244500D01*
X70680185Y-42177461D01*
X70732989Y-42131706D01*
X70784500Y-42120500D01*
X71115990Y-42120500D01*
X71116000Y-42120500D01*
X71223456Y-42108947D01*
X71274967Y-42097741D01*
X71309197Y-42086347D01*
X71377497Y-42063616D01*
X71377501Y-42063613D01*
X71377504Y-42063613D01*
X71498543Y-41985825D01*
X71551347Y-41940070D01*
X71645567Y-41831336D01*
X71705338Y-41700459D01*
X71725023Y-41633420D01*
X71725024Y-41633416D01*
X71745500Y-41491000D01*
X71745500Y-41446047D01*
X81989500Y-41446047D01*
X82022199Y-41736271D01*
X82022201Y-41736283D01*
X82022202Y-41736286D01*
X82025904Y-41752504D01*
X82087196Y-42021044D01*
X82087197Y-42021046D01*
X82183665Y-42296738D01*
X82310393Y-42559890D01*
X82324695Y-42582651D01*
X82465792Y-42807206D01*
X82536259Y-42895569D01*
X82639874Y-43025499D01*
X82647902Y-43035565D01*
X82854435Y-43242098D01*
X83082794Y-43424208D01*
X83330107Y-43579605D01*
X83593263Y-43706335D01*
X83868955Y-43802803D01*
X84153714Y-43867798D01*
X84153723Y-43867799D01*
X84153728Y-43867800D01*
X84347210Y-43889599D01*
X84443953Y-43900499D01*
X84443956Y-43900500D01*
X84443959Y-43900500D01*
X84736044Y-43900500D01*
X84736045Y-43900499D01*
X84884371Y-43883787D01*
X85026271Y-43867800D01*
X85026274Y-43867799D01*
X85026286Y-43867798D01*
X85311045Y-43802803D01*
X85586737Y-43706335D01*
X85849893Y-43579605D01*
X86097206Y-43424208D01*
X86325565Y-43242098D01*
X86532098Y-43035565D01*
X86714208Y-42807206D01*
X86869605Y-42559893D01*
X86996335Y-42296737D01*
X87092803Y-42021045D01*
X87157798Y-41736286D01*
X87159134Y-41724435D01*
X87175585Y-41578416D01*
X87190500Y-41446041D01*
X87190500Y-41153959D01*
X87179599Y-41057210D01*
X87157800Y-40863728D01*
X87157799Y-40863723D01*
X87157798Y-40863714D01*
X87092803Y-40578955D01*
X86996335Y-40303263D01*
X86923288Y-40151580D01*
X86869606Y-40040109D01*
X86830660Y-39978127D01*
X86714208Y-39792794D01*
X86532098Y-39564435D01*
X86325565Y-39357902D01*
X86097206Y-39175792D01*
X85849893Y-39020395D01*
X85849890Y-39020393D01*
X85586738Y-38893665D01*
X85311046Y-38797197D01*
X85311044Y-38797196D01*
X85091280Y-38747036D01*
X85026286Y-38732202D01*
X85026283Y-38732201D01*
X85026271Y-38732199D01*
X84736047Y-38699500D01*
X84736041Y-38699500D01*
X84443959Y-38699500D01*
X84443952Y-38699500D01*
X84153728Y-38732199D01*
X84153714Y-38732202D01*
X83868955Y-38797196D01*
X83868953Y-38797197D01*
X83593261Y-38893665D01*
X83330109Y-39020393D01*
X83082795Y-39175791D01*
X82854435Y-39357901D01*
X82647901Y-39564435D01*
X82465791Y-39792795D01*
X82310393Y-40040109D01*
X82183665Y-40303261D01*
X82087197Y-40578953D01*
X82087196Y-40578955D01*
X82022202Y-40863714D01*
X82022199Y-40863728D01*
X81989500Y-41153952D01*
X81989500Y-41446047D01*
X71745500Y-41446047D01*
X71745500Y-37704000D01*
X71733947Y-37596544D01*
X71722741Y-37545033D01*
X71713396Y-37516955D01*
X71688614Y-37442498D01*
X71688614Y-37442497D01*
X71688246Y-37441925D01*
X71676379Y-37418217D01*
X71653798Y-37357673D01*
X71653793Y-37357664D01*
X71567547Y-37242455D01*
X71567544Y-37242452D01*
X71452335Y-37156206D01*
X71452326Y-37156201D01*
X71317487Y-37105910D01*
X71317476Y-37105907D01*
X71294069Y-37103391D01*
X71272391Y-37099079D01*
X71258423Y-37094977D01*
X71258418Y-37094976D01*
X71155102Y-37080122D01*
X71116000Y-37074500D01*
X71115998Y-37074500D01*
X70367635Y-37074500D01*
X70320182Y-37065061D01*
X70211715Y-37020132D01*
X70192125Y-37017553D01*
X70055007Y-36999500D01*
X70055000Y-36999500D01*
X66430000Y-36999500D01*
X66429992Y-36999500D01*
X66273285Y-37020132D01*
X66273284Y-37020132D01*
X66196104Y-37052101D01*
X66165808Y-37064651D01*
X66164818Y-37065061D01*
X66117365Y-37074500D01*
X64427441Y-37074500D01*
X64388437Y-37068206D01*
X64377709Y-37064651D01*
X64278346Y-37054500D01*
X63731662Y-37054500D01*
X63731644Y-37054501D01*
X63632290Y-37064651D01*
X63602450Y-37074539D01*
X63576704Y-37080122D01*
X63521542Y-37086053D01*
X63470027Y-37097260D01*
X63367502Y-37131383D01*
X63367496Y-37131386D01*
X63246462Y-37209171D01*
X63246451Y-37209179D01*
X63193659Y-37254923D01*
X63099433Y-37363664D01*
X63099430Y-37363668D01*
X63039664Y-37494534D01*
X63019976Y-37561582D01*
X63014949Y-37596549D01*
X62999500Y-37704000D01*
X62999500Y-41491000D01*
X55177592Y-41491000D01*
X55185500Y-41436000D01*
X55185500Y-40079500D01*
X55205185Y-40012461D01*
X55257989Y-39966706D01*
X55309500Y-39955500D01*
X60275991Y-39955500D01*
X60276000Y-39955500D01*
X60315901Y-39951209D01*
X60329157Y-39950499D01*
X60447871Y-39950499D01*
X60447872Y-39950499D01*
X60507483Y-39944091D01*
X60642331Y-39893796D01*
X60757546Y-39807546D01*
X60843796Y-39692331D01*
X60894091Y-39557483D01*
X60900500Y-39497873D01*
X60900499Y-39369643D01*
X60901762Y-39351990D01*
X60905500Y-39326000D01*
X60905500Y-36274010D01*
X60905500Y-36274000D01*
X60901210Y-36234098D01*
X60900499Y-36220843D01*
X60900499Y-36102129D01*
X60900498Y-36102123D01*
X60900497Y-36102116D01*
X60894091Y-36042517D01*
X60872269Y-35984010D01*
X60843797Y-35907671D01*
X60843793Y-35907664D01*
X60757547Y-35792455D01*
X60757544Y-35792452D01*
X60642335Y-35706206D01*
X60642328Y-35706202D01*
X60507482Y-35655908D01*
X60507483Y-35655908D01*
X60447883Y-35649501D01*
X60447881Y-35649500D01*
X60447873Y-35649500D01*
X60447865Y-35649500D01*
X60319645Y-35649500D01*
X60301999Y-35648238D01*
X60276001Y-35644500D01*
X60276000Y-35644500D01*
X50184000Y-35644500D01*
X50183995Y-35644500D01*
X50144089Y-35648790D01*
X50130837Y-35649500D01*
X50012130Y-35649500D01*
X50012123Y-35649501D01*
X49952516Y-35655908D01*
X49817671Y-35706202D01*
X49817664Y-35706206D01*
X49702455Y-35792452D01*
X49702452Y-35792455D01*
X49616206Y-35907664D01*
X49616202Y-35907671D01*
X49565908Y-36042517D01*
X49559501Y-36102116D01*
X49559501Y-36102123D01*
X49559500Y-36102135D01*
X49559500Y-36230354D01*
X49558238Y-36247999D01*
X49554500Y-36273996D01*
X49554500Y-39388639D01*
X44815500Y-39388639D01*
X44815500Y-35984000D01*
X44803947Y-35876544D01*
X44792741Y-35825033D01*
X44792637Y-35824722D01*
X44758616Y-35722502D01*
X44758613Y-35722496D01*
X44748141Y-35706202D01*
X44680825Y-35601457D01*
X44650799Y-35566805D01*
X44621775Y-35503249D01*
X44631719Y-35434091D01*
X44677474Y-35381287D01*
X44710875Y-35366252D01*
X44736143Y-35359132D01*
X44865728Y-35296607D01*
X44972448Y-35200106D01*
X44984181Y-35185972D01*
X45016458Y-35142557D01*
X45078129Y-35012564D01*
X45204542Y-34604148D01*
X45243168Y-34545929D01*
X45283842Y-34523160D01*
X45297504Y-34518613D01*
X45418543Y-34440825D01*
X45471347Y-34395070D01*
X45516738Y-34342685D01*
X45575516Y-34304912D01*
X45610321Y-34299889D01*
X46048026Y-34299433D01*
X46100590Y-34296637D01*
X46117350Y-34294867D01*
X46126214Y-34293931D01*
X46126219Y-34293930D01*
X46126241Y-34293928D01*
X46169726Y-34287030D01*
X46189153Y-34285499D01*
X46351633Y-34285499D01*
X46371000Y-34287020D01*
X46412087Y-34293518D01*
X46412115Y-34293521D01*
X46412123Y-34293522D01*
X46423892Y-34294752D01*
X46437996Y-34296228D01*
X46491110Y-34298971D01*
X46491117Y-34298970D01*
X46491118Y-34298971D01*
X46499222Y-34298962D01*
X47462007Y-34297958D01*
X47514575Y-34295162D01*
X47540224Y-34292453D01*
X47574400Y-34287031D01*
X47593829Y-34285499D01*
X47666790Y-34285499D01*
X47686152Y-34287020D01*
X47691944Y-34287935D01*
X47718652Y-34292158D01*
X47744560Y-34294867D01*
X47797657Y-34297608D01*
X47797668Y-34297607D01*
X47797669Y-34297608D01*
X47811793Y-34297593D01*
X48926248Y-34296431D01*
X48950064Y-34295173D01*
X48956606Y-34295000D01*
X49113295Y-34295000D01*
X49119706Y-34295166D01*
X49122281Y-34295299D01*
X49126482Y-34295517D01*
X49153176Y-34296195D01*
X49153176Y-34296194D01*
X49153177Y-34296195D01*
X49153743Y-34296194D01*
X49696306Y-34295629D01*
X49804182Y-34283869D01*
X49855882Y-34272518D01*
X49958768Y-34238003D01*
X50079588Y-34159874D01*
X50132263Y-34113970D01*
X50226174Y-34004972D01*
X50285576Y-33873927D01*
X50305072Y-33806833D01*
X50305073Y-33806829D01*
X50325148Y-33664356D01*
X50319980Y-31829848D01*
X50339476Y-31762755D01*
X50392151Y-31716851D01*
X50443980Y-31705500D01*
X51745990Y-31705500D01*
X51746000Y-31705500D01*
X51853456Y-31693947D01*
X51904967Y-31682741D01*
X51939197Y-31671347D01*
X52007497Y-31648616D01*
X52007501Y-31648613D01*
X52007504Y-31648613D01*
X52128543Y-31570825D01*
X52181347Y-31525070D01*
X52275567Y-31416336D01*
X52335338Y-31285459D01*
X52355023Y-31218420D01*
X52355024Y-31218416D01*
X52355059Y-31218169D01*
X52355251Y-31216843D01*
X52355395Y-31216527D01*
X52355635Y-31215306D01*
X52355926Y-31215363D01*
X52384281Y-31153290D01*
X52443062Y-31115520D01*
X52477987Y-31110500D01*
X61855990Y-31110500D01*
X61856000Y-31110500D01*
X61963456Y-31098947D01*
X62014967Y-31087741D01*
X62063619Y-31071548D01*
X62117497Y-31053616D01*
X62117498Y-31053615D01*
X62117498Y-31053614D01*
X62117504Y-31053613D01*
X62185442Y-31009950D01*
X62252479Y-30990267D01*
X62303991Y-31001472D01*
X62400041Y-31045338D01*
X62467080Y-31065023D01*
X62467084Y-31065024D01*
X62609500Y-31085500D01*
X65893470Y-31085500D01*
X65960509Y-31105185D01*
X65997785Y-31142460D01*
X66069170Y-31253537D01*
X66069173Y-31253540D01*
X66069175Y-31253543D01*
X66086732Y-31273805D01*
X66106124Y-31296185D01*
X66111676Y-31303074D01*
X66152454Y-31357546D01*
X66152455Y-31357546D01*
X66152456Y-31357548D01*
X66267664Y-31443793D01*
X66267671Y-31443797D01*
X66402516Y-31494091D01*
X66428419Y-31496875D01*
X66462127Y-31500500D01*
X66539331Y-31500499D01*
X66539335Y-31500500D01*
X66564000Y-31500500D01*
X71119413Y-31500500D01*
X71119449Y-31500499D01*
X71257871Y-31500499D01*
X71257872Y-31500499D01*
X71317483Y-31494091D01*
X71452331Y-31443796D01*
X71567546Y-31357546D01*
X71653796Y-31242331D01*
X71704091Y-31107483D01*
X71706767Y-31082581D01*
X71711079Y-31060903D01*
X71725023Y-31013420D01*
X71725024Y-31013416D01*
X71745500Y-30871000D01*
X71745500Y-27294000D01*
X71733947Y-27186544D01*
X71722741Y-27135033D01*
X71688614Y-27032498D01*
X71688614Y-27032497D01*
X71688246Y-27031925D01*
X71676379Y-27008217D01*
X71653798Y-26947673D01*
X71653793Y-26947664D01*
X71567547Y-26832455D01*
X71567544Y-26832452D01*
X71452335Y-26746206D01*
X71452326Y-26746201D01*
X71317487Y-26695910D01*
X71317476Y-26695907D01*
X71294069Y-26693391D01*
X71272391Y-26689079D01*
X71258423Y-26684977D01*
X71258418Y-26684976D01*
X71187208Y-26674738D01*
X71116000Y-26664500D01*
X66564000Y-26664500D01*
X66563991Y-26664500D01*
X66563990Y-26664501D01*
X66456549Y-26676052D01*
X66456537Y-26676054D01*
X66405027Y-26687260D01*
X66302497Y-26721385D01*
X66302495Y-26721386D01*
X66250483Y-26754814D01*
X66183444Y-26774500D01*
X62607514Y-26774500D01*
X62473797Y-26792510D01*
X62473786Y-26792512D01*
X62410504Y-26809873D01*
X62286299Y-26862626D01*
X62286296Y-26862628D01*
X62284246Y-26864281D01*
X62281960Y-26865227D01*
X62278930Y-26867044D01*
X62278660Y-26866594D01*
X62219694Y-26891018D01*
X62154930Y-26880522D01*
X62065465Y-26839664D01*
X62065460Y-26839662D01*
X62065459Y-26839662D01*
X61998420Y-26819977D01*
X61998422Y-26819977D01*
X61998417Y-26819976D01*
X61950944Y-26813150D01*
X61856000Y-26799500D01*
X50179000Y-26799500D01*
X50178997Y-26799500D01*
X50092582Y-26808790D01*
X50079330Y-26809500D01*
X50012131Y-26809500D01*
X50012122Y-26809501D01*
X49952516Y-26815908D01*
X49817671Y-26866202D01*
X49817664Y-26866206D01*
X49702455Y-26952452D01*
X49702452Y-26952455D01*
X49616206Y-27067664D01*
X49616202Y-27067671D01*
X49565908Y-27202517D01*
X49559501Y-27262116D01*
X49559500Y-27262135D01*
X49559500Y-27350577D01*
X49558238Y-27368223D01*
X49549500Y-27428998D01*
X49549500Y-28670500D01*
X49529815Y-28737539D01*
X49477011Y-28783294D01*
X49425500Y-28794500D01*
X44131360Y-28794500D01*
X44077311Y-28797397D01*
X44077310Y-28797397D01*
X44050977Y-28800229D01*
X44050963Y-28800231D01*
X44044468Y-28801283D01*
X44034472Y-28802903D01*
X44014639Y-28804500D01*
X40384261Y-28804500D01*
X40276289Y-28816165D01*
X40224547Y-28827477D01*
X40121552Y-28861938D01*
X40000679Y-28939978D01*
X39947968Y-28985847D01*
X39853979Y-29094778D01*
X39841317Y-29122658D01*
X39827689Y-29145683D01*
X39826209Y-29147659D01*
X39826201Y-29147673D01*
X39810453Y-29189894D01*
X39807179Y-29197824D01*
X39794485Y-29225779D01*
X39794484Y-29225780D01*
X39786526Y-29253093D01*
X39783660Y-29261732D01*
X39775908Y-29282515D01*
X39774569Y-29294972D01*
X39774055Y-29299097D01*
X39754762Y-29435318D01*
X39754762Y-29435321D01*
X39764241Y-33947319D01*
X39764241Y-33947322D01*
X39768769Y-33988829D01*
X39769500Y-34002275D01*
X39769500Y-34137869D01*
X39769501Y-34137876D01*
X39775908Y-34197483D01*
X39826202Y-34332328D01*
X39826206Y-34332335D01*
X39912452Y-34447544D01*
X39912455Y-34447547D01*
X40027664Y-34533793D01*
X40027671Y-34533797D01*
X40162517Y-34584091D01*
X40162516Y-34584091D01*
X40169444Y-34584835D01*
X40222127Y-34590500D01*
X43099994Y-34590499D01*
X43167033Y-34610184D01*
X43212788Y-34662987D01*
X43222732Y-34732146D01*
X43210422Y-34764282D01*
X43212441Y-34765119D01*
X43207766Y-34776403D01*
X43199500Y-34817959D01*
X43199500Y-34833980D01*
X43179815Y-34901019D01*
X43131976Y-34942471D01*
X43132572Y-34943538D01*
X43127427Y-34946413D01*
X43127011Y-34946774D01*
X43126087Y-34947161D01*
X43124830Y-34947864D01*
X43010502Y-35035215D01*
X42961585Y-35085103D01*
X42961583Y-35085106D01*
X42961581Y-35085109D01*
X42877244Y-35200112D01*
X42876489Y-35201141D01*
X42829711Y-35288852D01*
X42780795Y-35338742D01*
X42720299Y-35354500D01*
X42554000Y-35354500D01*
X42553991Y-35354500D01*
X42553990Y-35354501D01*
X42446549Y-35366052D01*
X42446537Y-35366054D01*
X42395033Y-35377259D01*
X42330957Y-35398585D01*
X42261132Y-35401078D01*
X42201043Y-35365425D01*
X42198089Y-35362136D01*
X42195075Y-35358658D01*
X42195072Y-35358655D01*
X42195070Y-35358653D01*
X42086336Y-35264433D01*
X42086333Y-35264431D01*
X42086331Y-35264430D01*
X41955465Y-35204664D01*
X41955460Y-35204662D01*
X41955459Y-35204662D01*
X41888420Y-35184977D01*
X41888422Y-35184977D01*
X41888417Y-35184976D01*
X41826347Y-35176052D01*
X41746000Y-35164500D01*
X40894000Y-35164500D01*
X40893991Y-35164500D01*
X40893990Y-35164501D01*
X40786549Y-35176052D01*
X40786537Y-35176054D01*
X40735027Y-35187260D01*
X40632502Y-35221383D01*
X40632496Y-35221386D01*
X40511462Y-35299171D01*
X40511451Y-35299179D01*
X40458659Y-35344923D01*
X40364433Y-35453664D01*
X40364430Y-35453668D01*
X40304664Y-35584534D01*
X40284976Y-35651582D01*
X40264500Y-35794001D01*
X40264500Y-39540500D01*
X40244815Y-39607539D01*
X40192011Y-39653294D01*
X40140500Y-39664500D01*
X39494500Y-39664500D01*
X39427461Y-39644815D01*
X39381706Y-39592011D01*
X39370500Y-39540500D01*
X39370500Y-39000472D01*
X39345502Y-38874805D01*
X39345501Y-38874804D01*
X39345501Y-38874800D01*
X39296465Y-38756417D01*
X39259103Y-38700500D01*
X39259103Y-38700499D01*
X39225279Y-38649878D01*
X39225273Y-38649870D01*
X37190129Y-36614726D01*
X37190125Y-36614723D01*
X37083583Y-36543535D01*
X36965200Y-36494499D01*
X36965194Y-36494497D01*
X36839527Y-36469500D01*
X36839525Y-36469500D01*
X31370808Y-36469500D01*
X31303769Y-36449815D01*
X31283127Y-36433181D01*
X29652126Y-34802180D01*
X29618641Y-34740857D01*
X29623625Y-34671165D01*
X29665497Y-34615232D01*
X29730961Y-34590815D01*
X29739807Y-34590499D01*
X33717871Y-34590499D01*
X33717872Y-34590499D01*
X33777483Y-34584091D01*
X33912331Y-34533796D01*
X34027546Y-34447546D01*
X34113796Y-34332331D01*
X34164091Y-34197483D01*
X34170500Y-34137873D01*
X34170499Y-29342128D01*
X34164091Y-29282517D01*
X34164090Y-29282515D01*
X34113797Y-29147671D01*
X34113793Y-29147664D01*
X34027547Y-29032455D01*
X34027544Y-29032452D01*
X33912335Y-28946206D01*
X33912328Y-28946202D01*
X33777482Y-28895908D01*
X33777483Y-28895908D01*
X33717883Y-28889501D01*
X33717881Y-28889500D01*
X33717873Y-28889500D01*
X33717865Y-28889500D01*
X31599500Y-28889500D01*
X31532461Y-28869815D01*
X31486706Y-28817011D01*
X31475500Y-28765500D01*
X31475500Y-13844010D01*
X31475500Y-13844000D01*
X31463947Y-13736544D01*
X31452741Y-13685033D01*
X31452637Y-13684722D01*
X31418616Y-13582502D01*
X31418613Y-13582496D01*
X31340828Y-13461462D01*
X31340825Y-13461457D01*
X31324175Y-13442242D01*
X31295076Y-13408659D01*
X31295072Y-13408656D01*
X31295070Y-13408653D01*
X31186336Y-13314433D01*
X31186333Y-13314431D01*
X31186331Y-13314430D01*
X31055465Y-13254664D01*
X31055460Y-13254662D01*
X31055459Y-13254662D01*
X30988420Y-13234977D01*
X30988422Y-13234977D01*
X30988417Y-13234976D01*
X30940944Y-13228150D01*
X30846000Y-13214500D01*
X30845998Y-13214500D01*
X24031751Y-13214500D01*
X23964712Y-13194815D01*
X23932056Y-13164235D01*
X23855743Y-13061055D01*
X23855734Y-13061043D01*
X23542511Y-12705154D01*
X23542510Y-12705153D01*
X23200211Y-12377086D01*
X23200209Y-12377085D01*
X22831345Y-12079248D01*
X22831344Y-12079247D01*
X22438546Y-11813763D01*
X22438536Y-11813756D01*
X22427662Y-11807681D01*
X22024637Y-11582537D01*
X22024615Y-11582526D01*
X21592608Y-11387247D01*
X21145566Y-11229297D01*
X20686754Y-11109832D01*
X20219472Y-11029708D01*
X20219446Y-11029705D01*
X19747075Y-10989500D01*
X19747057Y-10989500D01*
X19272943Y-10989500D01*
X19272924Y-10989500D01*
X18800553Y-11029705D01*
X18800527Y-11029708D01*
X18333245Y-11109832D01*
X17874433Y-11229297D01*
X17427391Y-11387247D01*
X16995384Y-11582526D01*
X16995362Y-11582537D01*
X16581472Y-11813751D01*
X16581453Y-11813763D01*
X16188655Y-12079247D01*
X16188654Y-12079248D01*
X15819790Y-12377085D01*
X15819788Y-12377086D01*
X15477489Y-12705153D01*
X15164262Y-13061048D01*
X14882331Y-13442243D01*
X14633752Y-13845961D01*
X14633741Y-13845981D01*
X14420302Y-14269311D01*
X14420298Y-14269322D01*
X14243529Y-14709229D01*
X14243527Y-14709234D01*
X14104698Y-15162559D01*
X14104696Y-15162567D01*
X14004810Y-15626038D01*
X13944587Y-16096326D01*
X13924467Y-16569993D01*
X13924467Y-16570006D01*
X1005500Y-16570006D01*
X1005500Y-1124500D01*
X1025185Y-1057461D01*
X1077989Y-1011706D01*
X1129500Y-1000500D01*
X3980712Y-1000500D01*
X4047751Y-1020185D01*
G37*
%TD.AperFunction*%
%TD*%
%TA.AperFunction,Conductor*%
%TO.N,Net-(U1-SW)*%
G36*
X26726301Y-41180868D02*
G01*
X26729859Y-41184426D01*
X26887888Y-41431695D01*
X26889693Y-41438911D01*
X26870846Y-41679215D01*
X26866783Y-41687195D01*
X26859182Y-41690000D01*
X26580818Y-41690000D01*
X26572545Y-41686573D01*
X26569154Y-41679215D01*
X26550306Y-41438908D01*
X26552110Y-41431698D01*
X26710141Y-41184425D01*
X26717484Y-41179301D01*
X26726301Y-41180868D01*
G37*
%TD.AperFunction*%
%TD*%
M02*
